<?xml version="1.0" encoding="UTF-8" standalone="no"?><!DOCTYPE svg PUBLIC "-//W3C//DTD SVG 1.1//EN" "http://www.w3.org/Graphics/SVG/1.1/DTD/svg11.dtd"><svg width="100%" height="100%" viewBox="0 0 1000 1000" version="1.1" xmlns="http://www.w3.org/2000/svg" xmlns:xlink="http://www.w3.org/1999/xlink" xml:space="preserve" xmlns:serif="http://www.serif.com/" style="fill-rule:evenodd;clip-rule:evenodd;stroke-linejoin:round;stroke-miterlimit:2;"><rect id="_3D" serif:id="3D" x="0" y="0" width="1000" height="1000" style="fill:none;"/><g id="_3D1" serif:id="3D"><g><path d="M380.745,606.952l-87.189,-69.295c-1.99,-1.582 -3.602,-3.47 -4.817,-5.547c-0.625,-1.067 -1.158,-2.205 -1.583,-3.404c-0.235,-0.661 -0.434,-1.333 -0.598,-2.013c-0.64,-2.652 -0.718,-5.308 -0.311,-7.845c0.466,-2.935 1.595,-5.808 3.42,-8.39l159,-225c0.187,-0.266 0.382,-0.527 0.583,-0.784c0.05,-0.064 0.1,-0.127 0.151,-0.19c2.267,-2.827 5.152,-4.877 8.311,-6.109c2.454,-0.96 5.108,-1.44 7.821,-1.368c0.724,0.019 1.442,0.078 2.152,0.174c3.407,0.457 6.741,1.799 9.641,4.069c0,-0 229.987,179.99 230,180c0.423,0.33 0.828,0.675 1.217,1.032c-15.411,9.796 -32.283,19.755 -50.397,29.732l-73.93,-10.396l-6.66,50.985c-13.883,6.416 -28.176,12.753 -42.817,18.969l8.66,-66.301l-192.886,46.559l76.389,60.711c-15.822,5.283 -31.244,10.093 -46.157,14.411Zm308.105,-86.511l-137.503,195.081c-2.298,3.261 -5.396,5.626 -8.842,7.016c-2.817,1.14 -5.801,1.605 -8.733,1.424c-3.467,-0.209 -6.92,-1.323 -9.991,-3.405c-0.102,-0.069 -0.203,-0.139 -0.303,-0.21c-0.314,-0.221 -0.622,-0.451 -0.922,-0.689l-103.866,-82.549c14.749,-4.621 29.874,-9.659 45.287,-15.102l55.773,44.326l9.006,-68.954c3.318,-1.35 6.643,-2.717 9.975,-4.1c11.1,-4.609 22.019,-9.296 32.735,-14.043l-6.143,47.028l46.151,-65.476c27.671,-13.277 53.616,-26.842 77.376,-40.347Zm-145.733,-136.909l35.861,56.956l45.002,6.328l-80.863,-63.284Zm-7.878,62.56c-24.611,-39.088 -71.198,-113.079 -71.198,-113.079l-110.985,157.054l182.183,-43.975Z" style="fill:url(#_Linear1);"/><path d="M292.776,537.005c-36.719,23.203 -65.29,45.435 -82.665,64.836c-5.31,5.929 -9.469,11.471 -12.205,16.658c-1.707,3.237 -3.703,5.722 -2.728,8.069c0.727,1.75 3.014,2.105 5.426,3.011c6.866,2.58 16.001,3.752 27.002,4.039c62.115,1.621 174.19,-26.792 295.786,-77.281c121.596,-50.489 220.835,-109.818 263.533,-154.959c7.562,-7.995 13.18,-15.293 16.2,-21.977c1.06,-2.348 2.424,-4.219 1.697,-5.969c-0.829,-1.996 -3.474,-2.35 -6.319,-3.333c-7.659,-2.645 -17.863,-3.726 -30.157,-3.777c-36.243,-0.151 -88.113,9.236 -148.329,26.599l-38.532,-30.156c90.49,-28.387 166.981,-40.697 209.977,-35.016c27.688,3.658 44.173,15.583 50.302,30.344c3.725,8.971 4.204,19.304 0.521,30.782c-3.744,11.666 -12.462,25.36 -26.3,39.99c-45.02,47.595 -149.047,111.179 -277.254,164.414c-128.207,53.234 -246.677,82.034 -312.168,80.325c-20.131,-0.525 -35.985,-4.015 -46.891,-9.599c-10.73,-5.494 -17.711,-13.126 -21.436,-22.098c-5.665,-13.643 -3.585,-31.513 9.94,-51.408c20.827,-30.638 72.404,-71.069 143.698,-111.466l-19.098,57.972Z" style="fill:url(#_Radial2);"/></g><g><path d="M873.318,945.352c24.281,-14.019 64.155,-37.04 81.682,-47.159c3.094,-1.786 5,-5.088 5,-8.66c0,-36.221 0.001,-117.413 0.001,-117.413l39.999,-11.547l-0,146.28c-0,7.145 -3.812,13.748 -10,17.32l-126.682,73.14c-6.188,3.573 -13.812,3.573 -20,0l-126.682,-73.14c-6.188,-3.572 -10,-10.175 -10,-17.32l-0,-146.28l40,11.547c-0,-0 -0.001,84.523 -0.001,117.412c0,3.573 1.906,6.874 5,8.66c14.372,8.298 56.381,32.552 81.683,47.16l-0,-111.274l40,0l-0,111.274Z" style="fill:url(#_Linear3);"/><g><path d="M735.779,752.667l1.114,-0.643l5.268,2.885c1.473,0.807 2.696,0.924 3.687,0.352c0.806,-0.466 0.956,-1.101 0.411,-2.022l-0.315,0.182c0.125,0.44 0.043,0.689 -0.325,0.902c-0.554,0.319 -1.394,0.282 -2.078,-0.092l-5.374,-2.943l1.683,-0.971l-0.479,-0.263l-1.683,0.972l-2.45,-1.342l-0.238,0.137c0.892,0.877 1.067,1.82 0.478,2.681l0.301,0.165Z" style="fill:#fa2;fill-rule:nonzero;"/><path d="M755.239,749.254c-0.962,0.528 -1.46,0.531 -2.73,-0.164l-2.833,-1.552c-1.987,-1.088 -3.559,-1.534 -5.129,-0.683c-0.562,0.306 -0.978,0.839 -1.061,1.39l0.199,0.948c0.026,0.057 0.083,0.089 0.117,0.133c0.017,0.018 0.034,0.036 0.035,0.054c0,0.008 -0.015,0.017 -0.023,0.013l-0.006,0.049c0.001,0.018 -0.015,0.018 -0.023,0.013l-0.008,-0.004l-0.009,-0.023l-0.001,-0.026l-0.028,0.08c0.001,0.009 -0.007,0.013 -0.023,0.013c-0.008,-0.004 -0.008,-0.004 -0.008,-0.013l0.019,-0.085l-0.046,0.027c-0.008,0.004 -0.015,0.009 -0.031,0.009c-0.032,-0.009 -0.049,-0.018 -0.05,-0.036l-0.007,0.004c-0.016,0 -0.081,-0.035 -0.012,-0.075c0.092,-0.053 0.073,-0.116 -0.017,-0.165l-5.575,-3.053l-1.526,1.998l0.377,0.103c0.6,-0.648 1.194,-0.625 2.293,-0.023l7.668,4.199c1.197,0.656 1.293,0.976 0.41,1.504l0.3,0.164l3.68,-2.124l-0.3,-0.165c-1.039,0.573 -1.505,0.585 -2.8,-0.124l-3.965,-2.171c-0.085,-0.574 -0.053,-1.197 0.777,-1.676c0.745,-0.43 1.79,-0.42 2.629,0.039l3.672,2.011c1.237,0.678 1.283,0.954 0.386,1.518l0.3,0.164l3.649,-2.107l-0.3,-0.164Zm-11.545,0.125l0.007,-0.031l-0.017,-0.009c-0.008,-0.004 -0.039,-0.004 -0.062,0.001c-0.023,0.013 -0.031,0.026 -0.014,0.044l0,0.009c0.008,-0.005 0.024,0.004 0.04,0.013l0.024,-0.004l0.022,-0.023Z" style="fill:#fa2;fill-rule:nonzero;"/><path d="M759.128,743.821c0.526,1.299 0.34,2.14 -0.774,2.783c-1.59,0.918 -4.45,0.7 -6.282,-0.303l-0.269,-0.147l4.94,-2.853c-0.609,-0.333 -1.27,-0.566 -1.973,-0.691c-1.397,-0.247 -2.817,-0.031 -3.901,0.595c-0.637,0.368 -1.027,0.785 -1.17,1.252c-0.291,0.946 0.453,2.001 2.08,2.892c2.085,1.142 5.052,1.351 6.911,0.277c1.568,-0.905 1.735,-2.127 0.722,-3.822l-0.284,0.017Zm-7.737,2.168l0.011,0.058c0.001,0.009 -0.023,0.014 -0.031,0.009l-0.008,-0.004l-0.015,0.054c0.001,0.008 -0.031,0.009 -0.031,-0l-0.001,-0.018l0.007,-0.032l-0.061,0.072c0,-0 -0.007,0.013 -0.023,0.013c-0.008,-0.004 -0.016,-0.009 -0.016,-0.018l0.052,-0.075l-0.032,0.018l-0.023,0.004l-0.04,-0.004c-0.016,-0 -0.032,-0.009 -0.032,-0.018c-0,-0 0.007,-0.014 -0.001,-0.018l-0.016,-0.009c-0.009,-0.004 -0.017,-0.009 -0.017,-0.018c0.007,-0.013 0.023,-0.031 0.054,-0.058c0.061,-0.036 0.146,-0.085 0.121,-0.107l-0.033,-0.027c-0.312,-0.222 -0.546,-0.445 -0.677,-0.69c-0.303,-0.512 -0.138,-0.992 0.469,-1.343c0.845,-0.487 2.4,-0.405 2.986,-0.084c0.302,0.165 0.345,0.397 -0.077,0.641l-2.566,1.481c-0.039,0.022 -0.037,0.058 -0.019,0.111l0.019,0.062Zm-0.221,0.019l-0.008,0.013c0.016,0 0.024,0.005 0.033,0.018l0.024,0.004l0.039,-0.022l0.015,-0.027l-0.009,-0.014c-0.008,-0.004 -0.016,-0.009 -0.032,-0.008c-0.032,-0 -0.055,0.013 -0.062,0.036Z" style="fill:#fa2;fill-rule:nonzero;"/><path d="M776.775,737.158l3.711,-2.143l-0.3,-0.164l-0.146,0.084c-0.285,0.155 -0.557,0.248 -0.801,0.279c-0.495,0.066 -0.993,-0.077 -1.799,-0.518l-3.053,-1.672c-0.985,-0.54 -1.55,-0.772 -2.222,-0.897c-0.982,-0.202 -1.987,-0.07 -2.717,0.352c-0.538,0.31 -0.853,0.665 -0.943,1.074c-0.159,0.458 -0.152,0.912 0.014,1.357l0.004,0.072l0.019,0.062l0.01,0.057c0,0.009 -0.024,0.014 -0.032,0.009l-0.008,-0.004l-0.014,0.054c0,0.009 -0.031,0.009 -0.032,-0l-0,-0.018l0.007,-0.031l-0.059,0.069c0,0 -0.007,0.014 -0.023,0.014c-0.008,-0.005 -0.016,-0.009 -0.016,-0.018l0.052,-0.075l-0.031,0.018l-0.023,0.004l-0.04,-0.004c-0.016,-0 -0.032,-0.009 -0.033,-0.018c0,-0 0.008,-0.014 -0.001,-0.018l-0.016,-0.009c-0.008,-0.004 -0.016,-0.009 -0.017,-0.018c0.008,-0.013 0.022,-0.031 0.053,-0.058c0.061,-0.035 0.083,-0.066 0.082,-0.093l-0.002,-0.035c-1.32,-0.429 -2.447,-0.373 -3.384,0.168c-0.615,0.355 -0.97,1.008 -0.903,1.702l0.03,0.587l-1.587,-0.869l-1.74,2.002l0.4,0.089c0.105,-0.124 0.218,-0.226 0.349,-0.302c0.199,-0.115 0.402,-0.177 0.607,-0.194c0.41,-0.026 0.902,0.139 1.65,0.549l3.517,1.926c0.407,0.223 0.686,0.41 0.844,0.566c0.301,0.312 0.188,0.57 -0.365,0.898l-0.154,0.089l0.3,0.164l3.68,-2.124l-0.3,-0.165l-0.108,0.062c-0.292,0.16 -0.564,0.253 -0.808,0.284c-0.487,0.071 -0.985,-0.073 -1.799,-0.518l-4.039,-2.212l0.005,-0.058l-0.007,-0.315c-0.007,-0.445 0.329,-0.979 0.798,-1.249c0.914,-0.528 1.91,-0.407 3.375,0.396l2.988,1.636c0.407,0.223 0.686,0.41 0.844,0.566c0.301,0.312 0.187,0.552 -0.35,0.889l-0.192,0.111l0.3,0.165l3.726,-2.152l-0.3,-0.164l-0.138,0.08c-0.285,0.155 -0.549,0.253 -0.793,0.283c-0.487,0.071 -0.993,-0.077 -1.807,-0.523l-3.005,-1.645c-0.203,-0.111 -0.593,-0.299 -0.763,-0.384l-0.299,-0.129l-0.033,-0.018l-0.023,-0.306c-0.024,-0.472 0.349,-1.045 0.872,-1.347c0.776,-0.448 1.87,-0.429 2.757,0.057l3.606,1.975c0.407,0.223 0.686,0.411 0.844,0.566c0.301,0.312 0.187,0.552 -0.35,0.89l-0.169,0.097l0.3,0.165Zm-8.407,-2.061l0.039,-0.022l0.015,-0.027l-0.008,-0.013c-0.008,-0.005 -0.016,-0.009 -0.032,-0.009c-0.031,0 -0.055,0.014 -0.062,0.036l-0.008,0.013c0.016,0 0.024,0.005 0.032,0.018l0.024,0.004Z" style="fill:#fa2;fill-rule:nonzero;"/><path d="M771.621,728.43c0.463,0.254 1.214,0.251 1.652,-0.002c0.453,-0.261 0.431,-0.679 -0.032,-0.933c-0.48,-0.263 -1.232,-0.268 -1.685,-0.007c-0.437,0.253 -0.415,0.679 0.065,0.942Zm9.427,6.261l3.541,-2.044l-0.301,-0.165c-0.324,0.16 -0.603,0.257 -0.855,0.293c-0.494,0.074 -0.984,-0.064 -1.79,-0.505l-6.073,-3.326l-1.555,1.896l0.378,0.12c0.066,-0.102 0.149,-0.186 0.257,-0.248c0.199,-0.116 0.394,-0.182 0.59,-0.204c0.386,-0.04 0.828,0.09 1.487,0.451l3.688,2.02c0.399,0.218 0.67,0.41 0.82,0.57c0.294,0.334 0.135,0.618 -0.472,0.969l-0.016,0.009l0.301,0.164Z" style="fill:#fa2;fill-rule:nonzero;"/><path d="M779.834,726.482l-1.615,1.966l0.425,0.112c0.133,-0.178 0.246,-0.298 0.353,-0.36c0.469,-0.27 0.979,-0.189 1.867,0.297l3.753,2.055c0.415,0.228 0.694,0.415 0.845,0.575c0.301,0.312 0.164,0.574 -0.435,0.929l0.3,0.164l3.618,-2.089l-0.3,-0.164c-0.331,0.182 -0.626,0.297 -0.877,0.341c-0.517,0.097 -1.055,-0.059 -1.861,-0.5l-3.973,-2.176c-0.129,-0.806 0.099,-1.312 0.737,-1.681c0.868,-0.501 1.862,-0.415 3.107,0.267l3.289,1.801c0.399,0.219 0.67,0.411 0.813,0.566c0.285,0.321 0.125,0.597 -0.497,0.956l-0.092,0.053l0.3,0.165l3.679,-2.125l-0.3,-0.164c-0.308,0.168 -0.587,0.266 -0.831,0.305c-0.494,0.075 -0.992,-0.068 -1.782,-0.5l-3.387,-1.855c-1.734,-0.95 -3.424,-1.081 -4.653,-0.371c-0.292,0.168 -0.505,0.346 -0.645,0.537c-0.282,0.382 -0.342,0.92 -0.202,1.791l-1.636,-0.895Z" style="fill:#fa2;fill-rule:nonzero;"/><path d="M785.803,723.786l1.114,-0.644l5.268,2.885c1.473,0.807 2.696,0.924 3.687,0.352c0.807,-0.465 0.956,-1.101 0.411,-2.022l-0.315,0.182c0.126,0.441 0.043,0.69 -0.325,0.902c-0.554,0.32 -1.394,0.283 -2.078,-0.092l-5.373,-2.942l1.682,-0.972l-0.479,-0.262l-1.683,0.971l-2.45,-1.342l-0.238,0.138c0.892,0.877 1.068,1.819 0.479,2.681l0.3,0.165Z" style="fill:#fa2;fill-rule:nonzero;"/><path d="M802.386,719.039l0.142,0.156c0.017,0.017 0.034,0.035 0.035,0.053c0,0.009 -0.015,0.018 -0.023,0.013l-0.005,0.049c0.001,0.018 -0.015,0.018 -0.023,0.013l-0.008,-0.004l-0.01,-0.022l-0.001,-0.027l-0.027,0.08c0,0.009 -0.007,0.013 -0.023,0.013c-0.008,-0.005 -0.008,-0.005 -0.009,-0.013l0.019,-0.085l-0.045,0.027c-0.008,0.004 -0.016,0.009 -0.032,0.009c-0.032,-0.009 -0.048,-0.018 -0.049,-0.036l-0.008,0.004c-0.015,0 -0.081,-0.035 -0.012,-0.075c0.076,-0.044 0.027,-0.08 -0.024,-0.151l-0.11,0.009c0.563,1.406 0.274,2.232 -0.794,2.849c-1.783,1.029 -4.439,0.767 -6.361,-0.285c-1.555,-0.852 -2.424,-1.916 -0.887,-2.803c0.684,-0.395 1.379,-0.568 1.908,-0.278c0.122,0.067 0.222,0.165 0.425,0.259c0.624,0.281 1.253,0.211 1.621,-0.002c0.446,-0.257 0.435,-0.608 -0.11,-0.907c-1.034,-0.566 -3.012,-0.138 -4.095,0.488c-2.114,1.22 -1.993,2.945 0.563,4.345c2.272,1.244 5.279,1.457 7.308,0.286c1.483,-0.857 1.845,-2.127 0.729,-3.974l-0.094,0.009Zm0.035,0.209l0.005,-0.031l-0.016,-0.009c-0.008,-0.005 -0.04,-0.005 -0.063,-0.001c-0.023,0.013 -0.03,0.027 -0.013,0.045l0.001,0.008c0.007,-0.004 0.024,0.005 0.04,0.014l0.023,-0.004l0.023,-0.022Z" style="fill:#fa2;fill-rule:nonzero;"/><path d="M803.052,713.224c-0.235,0.035 -0.437,0.106 -0.614,0.208c-0.707,0.408 -0.797,0.964 -0.269,2.005c0.009,0.013 0.01,0.04 0.003,0.071c-0.006,0.031 -0.005,0.057 0.004,0.079c0.026,0.04 0.027,0.067 0.004,0.08l-0.024,-0.004l-0.008,-0.004l-0.013,0.053c0,0.009 -0.031,0.009 -0.032,-0l-0.001,-0.018l0.007,-0.031l-0.06,0.071c0,-0 -0.007,0.013 -0.023,0.013c-0.008,-0.004 -0.016,-0.009 -0.016,-0.017l0.052,-0.076l-0.031,0.018l-0.023,0.005l-0.04,-0.005c-0.016,0 -0.032,-0.009 -0.033,-0.018c0,0 0.007,-0.013 -0.001,-0.018l-0.016,-0.008c-0.008,-0.005 -0.016,-0.009 -0.017,-0.018c0.007,-0.014 0.022,-0.031 0.053,-0.058c0.03,-0.018 0.053,-0.031 0.068,-0.049c0.008,-0.004 0.054,-0.04 0.029,-0.062l-0.017,-0.018l-1.213,-0.664l-0.649,-0.019l-1.221,1.794l0.385,0.099c0.118,-0.169 0.238,-0.293 0.384,-0.378c0.177,-0.102 0.365,-0.137 0.572,-0.119c0.413,0.045 0.793,0.219 1.404,0.553l3.558,1.949c0.423,0.231 0.71,0.423 0.852,0.57c0.293,0.307 0.156,0.578 -0.458,0.942l-0.046,0.027l0.3,0.164l3.871,-2.235l-0.3,-0.164l-0.238,0.137c-0.323,0.178 -0.611,0.28 -0.861,0.324c-0.503,0.079 -1.008,-0.06 -1.847,-0.519l-3.802,-2.082c-0.293,-0.481 -0.378,-0.899 -0.187,-1.166c0.06,-0.08 0.127,-0.146 0.212,-0.195c0.192,-0.111 0.436,-0.142 0.739,-0.088c0.351,0.063 0.681,0.01 0.919,-0.128c0.392,-0.226 0.428,-0.595 -0.027,-0.844c-0.325,-0.178 -0.834,-0.232 -1.329,-0.157Zm-1.047,2.425l0.039,-0.022l0.014,-0.026l-0.008,-0.013c-0.008,-0.005 -0.016,-0.009 -0.032,-0.009c-0.031,-0 -0.054,0.013 -0.061,0.035l-0.007,0.014c0.015,-0.001 0.023,0.004 0.031,0.017l0.024,0.004Z" style="fill:#fa2;fill-rule:nonzero;"/><path d="M817.198,712.041c0.528,0.375 0.584,0.701 0.269,0.883c-0.292,0.168 -0.847,0.167 -1.451,-0.163l-3.89,-2.131c-1.604,-0.878 -3.219,-0.934 -4.717,-0.069c-0.607,0.351 -1.057,0.83 -1.287,1.301c-0.286,0.578 -0.241,1.146 0.265,1.449c0.498,0.308 1.112,0.255 1.457,0.056c0.346,-0.2 0.439,-0.537 -0.027,-0.827c-0.285,-0.174 -0.618,-0.183 -0.805,-0.285c-0.431,-0.237 -0.083,-0.859 0.462,-1.174c0.677,-0.39 1.723,-0.509 2.366,-0.157c0.96,0.526 0.389,1.286 -0.122,2.277c-0.555,1.061 -0.594,1.972 0.577,2.614c1.159,0.635 2.803,0.619 3.855,0.012c0.991,-0.573 1.215,-1.324 0.668,-2.246l-0.128,-0.139l-0.026,-0.049c-0.008,-0.004 0.015,-0.017 0.023,-0.013l0.006,-0.049c-0.001,-0.018 0.023,-0.013 0.023,-0.013l0.008,0.004l0.009,0.023l0.001,0.026l0.028,-0.08l0.023,-0.013l0.008,0.013l-0.019,0.085l0.046,-0.027l0.047,-0.009c0.016,0 0.025,0.014 0.025,0.014l0.009,0.022l0.008,-0.004c0.016,-0 0.041,0.023 0.041,0.023c0.009,0.013 0.002,0.035 -0.028,0.053c-0.093,0.053 -0.074,0.098 0.016,0.147c1.153,0.562 2.101,0.417 2.716,0.062c0.684,-0.395 0.934,-1.07 -0.204,-1.762l-0.252,0.146Zm-4.361,0.412c0.805,0.441 1.278,0.882 1.405,1.323c0.135,0.446 -0.113,0.846 -0.582,1.117c-0.738,0.426 -1.668,0.366 -2.296,0.022c-0.497,-0.272 -0.805,-0.726 -0.657,-1.251c0.14,-0.502 0.358,-0.893 0.795,-1.942l1.335,0.731Zm1.999,0.923l-0.022,0.022l-0.005,0.032l0.016,0.009c0.009,0.004 0.02,0.011 0.044,0.006c0.031,-0.008 0.042,-0.028 0.033,-0.05l-0.001,-0.009c-0.008,0.004 -0.024,-0.005 -0.041,-0.014l-0.024,0.004Z" style="fill:#fa2;fill-rule:nonzero;"/><path d="M811.669,703.569c-1.566,1.087 -1.187,2.59 0.653,3.597l0.684,0.375l-1.007,0.581l0.212,0.453l1.307,-0.754l5.373,2.943c0.407,0.223 0.686,0.41 0.844,0.566c0.301,0.312 0.187,0.552 -0.35,0.889l-0.146,0.084l0.301,0.165l3.779,-2.182l-0.301,-0.165l-0.13,0.076c-0.323,0.186 -0.61,0.297 -0.861,0.341c-0.502,0.088 -0.991,-0.05 -1.846,-0.519l-5.374,-2.942l1.176,-0.679l-0.212,-0.453l-1.406,0.811c-0.046,0.027 -0.045,0.063 -0.019,0.111l0.019,0.063l0.011,0.057c0.001,0.009 -0.023,0.014 -0.031,0.009l-0.008,-0.004l-0.012,0.053c0,0.008 -0.032,0.008 -0.032,-0l-0.001,-0.018l0.006,-0.031l-0.06,0.071c0,0 -0.007,0.014 -0.023,0.014c-0.008,-0.005 -0.016,-0.009 -0.016,-0.018l0.05,-0.076l-0.031,0.018l-0.023,0.004l-0.04,-0.005c-0.016,0 -0.032,-0.008 -0.032,-0.017c-0,-0 0.007,-0.014 -0.001,-0.018l-0.016,-0.009c-0.008,-0.004 -0.016,-0.009 -0.017,-0.017c0.008,-0.014 0.023,-0.031 0.053,-0.058c0.061,-0.036 0.137,-0.098 0.105,-0.115l-1.539,-0.843c-1.36,-0.745 -1.852,-1.239 -1.03,-1.714c0.522,-0.302 1.17,-0.465 1.936,-0.193c0.693,0.25 1.211,0.153 1.526,-0.029c0.33,-0.19 0.377,-0.511 -0.09,-0.818c-0.745,-0.494 -2.38,-0.301 -3.381,0.396Zm2.525,3.413l0.038,-0.022l0.014,-0.026l-0.008,-0.014c-0.008,-0.004 -0.016,-0.009 -0.032,-0.009c-0.031,0 -0.054,0.014 -0.061,0.036l-0.008,0.013c0.016,0 0.024,0.005 0.033,0.018l0.024,0.004Z" style="fill:#fa2;fill-rule:nonzero;"/><path d="M817.35,705.572l1.114,-0.643l5.267,2.885c1.474,0.807 2.697,0.924 3.687,0.352c0.807,-0.466 0.957,-1.101 0.411,-2.022l-0.315,0.182c0.126,0.44 0.044,0.689 -0.325,0.902c-0.553,0.319 -1.394,0.283 -2.077,-0.092l-5.374,-2.943l1.683,-0.971l-0.48,-0.263l-1.682,0.972l-2.45,-1.342l-0.238,0.137c0.891,0.877 1.067,1.82 0.478,2.682l0.301,0.164Z" style="fill:#fa2;fill-rule:nonzero;"/><path d="M834.975,703.556l3.541,-2.044l-0.301,-0.165l-0.03,0.018c-0.285,0.155 -0.549,0.244 -0.785,0.279c-0.471,0.062 -0.962,-0.086 -1.768,-0.527l-10.118,-5.542l-0.269,0.156l-1.226,1.825l0.377,0.103c0.074,-0.107 0.18,-0.196 0.303,-0.267c0.376,-0.217 0.731,-0.239 1.214,-0.078c0.258,0.098 0.558,0.237 0.908,0.428l7.522,4.12c0.399,0.218 0.669,0.401 0.812,0.557c0.3,0.311 0.18,0.582 -0.358,0.902l-0.122,0.071l0.3,0.164Z" style="fill:#fa2;fill-rule:nonzero;"/><path d="M835.945,698.884c0.692,0.379 1.497,0.639 2.406,0.782c1.834,0.297 3.751,0.041 4.98,-0.669c0.961,-0.554 1.465,-1.385 1.366,-2.234c-0.083,-0.841 -0.785,-1.709 -1.868,-2.302c-0.692,-0.379 -1.497,-0.647 -2.406,-0.79c-1.826,-0.292 -3.718,-0.023 -4.978,0.704c-0.661,0.382 -1.089,0.848 -1.283,1.39c-0.386,1.102 0.285,2.299 1.783,3.119Zm0.761,-1.181c-0.602,-0.33 -1.047,-0.668 -1.341,-1.011c-0.59,-0.686 -0.496,-1.326 0.303,-1.788c0.462,-0.266 1.047,-0.412 1.758,-0.447c1.421,-0.06 3.136,0.37 4.626,1.186c0.603,0.33 1.047,0.668 1.35,1.015c0.598,0.7 0.504,1.349 -0.295,1.81c-0.453,0.262 -1.039,0.408 -1.758,0.429c-1.43,0.047 -3.185,-0.396 -4.643,-1.194Z" style="fill:#fa2;fill-rule:nonzero;"/><path d="M855.372,692.402c-1.456,-0.797 -2.7,-0.546 -4.311,0.421l-0.822,0.493c-0.837,0.501 -1.583,1.06 -2.178,0.735c-0.269,-0.147 -0.395,-0.45 -0.371,-0.912c0.459,-0.138 0.862,-0.306 1.192,-0.497c1.553,-0.896 1.678,-2.158 0.082,-3.032c-0.464,-0.254 -1.043,-0.433 -1.737,-0.537c-0.118,0.005 -0.157,0.018 -0.227,0.049c-0.038,0.022 -0.07,0.031 -0.093,0.035c-0.016,0 -0.024,-0.004 -0.032,-0.009l-0.016,-0.008c-0.008,-0.005 -0.031,-0.001 -0.031,-0.001c-0.016,0 -0.032,-0.009 -0.033,-0.017l-0.009,-0.023l0.007,-0.013l0.03,-0.017l-0.131,0.03c-0.016,-0 -0.024,-0.004 -0.033,-0.009c0,-0.009 0,-0.009 0.008,-0.013c0.008,0.004 0.008,0.004 0.015,-0l0.124,-0.035l-0.055,0.004l-0.031,0l-0.017,-0.009c-0.015,0 -0.008,-0.004 -0,-0.009l0.008,-0.004l0.008,0.004l0.094,-0.008l-0.008,-0.005c-0.008,-0.004 -0.001,-0.018 0.015,-0.018l0.103,0.005l0.111,0.009c0.095,-0 0.15,-0.004 0.166,-0.004l0.024,-0.005l0.891,-0.514l-0.287,-0.676l-2.051,1.184c-0.85,0.096 -1.566,0.318 -2.158,0.66c-1.575,0.909 -1.719,2.264 -0.099,3.152c0.969,0.53 2.331,0.706 3.615,0.468c-0.135,0.919 0.044,1.457 0.573,1.747c0.366,0.201 0.911,0.197 1.628,-0.006c-0.54,0.724 -0.208,1.458 0.557,1.877c1.262,0.691 2.962,0.249 4.361,-0.558c1.944,-1.123 3.057,-2.872 1.118,-3.934Zm-11.215,-0.731c-0.863,-0.473 -1.158,-1.127 -0.397,-1.567c0.999,-0.576 2.949,-0.209 4.219,0.487c0.977,0.535 1.473,1.247 0.681,1.704c-1.053,0.608 -3.111,0.138 -4.503,-0.624Zm2.741,-2.545c0.039,-0.004 0.062,-0.017 0.061,-0.035c-0,-0.009 -0.008,-0.013 -0.016,-0.018l-0.024,-0.004l-0.046,0.009l-0.038,0.022l0.008,0.013c0.024,0.004 0.032,0.009 0.032,0.017l0.023,-0.004Zm8.286,3.734c1.042,0.571 0.122,1.597 -1.323,2.431c-1.168,0.674 -2.766,1.303 -3.833,0.719c-0.48,-0.263 -0.647,-0.726 -0.241,-1.152c0.288,-0.093 0.674,-0.271 1.167,-0.546l1.423,-0.785c1.039,-0.572 2.008,-1.105 2.807,-0.667Z" style="fill:#fa2;fill-rule:nonzero;"/><path d="M852.495,689.33c0.692,0.379 1.496,0.638 2.405,0.782c1.835,0.296 3.751,0.04 4.98,-0.67c0.961,-0.554 1.465,-1.385 1.366,-2.234c-0.083,-0.84 -0.785,-1.708 -1.868,-2.301c-0.692,-0.379 -1.497,-0.647 -2.406,-0.791c-1.826,-0.292 -3.718,-0.023 -4.978,0.705c-0.661,0.381 -1.089,0.847 -1.283,1.389c-0.386,1.102 0.286,2.299 1.784,3.12Zm0.76,-1.182c-0.602,-0.329 -1.047,-0.668 -1.341,-1.011c-0.589,-0.686 -0.496,-1.326 0.304,-1.787c0.461,-0.267 1.047,-0.413 1.757,-0.447c1.421,-0.06 3.136,0.369 4.626,1.185c0.603,0.33 1.048,0.668 1.35,1.016c0.598,0.699 0.505,1.348 -0.295,1.81c-0.453,0.261 -1.039,0.407 -1.758,0.428c-1.43,0.047 -3.185,-0.395 -4.643,-1.194Z" style="fill:#fa2;fill-rule:nonzero;"/></g><g><path d="M855.936,827.819l-1.14,1.388l0.3,0.079c0.094,-0.125 0.174,-0.21 0.25,-0.254c0.33,-0.191 0.691,-0.134 1.317,0.209l2.65,1.451c0.293,0.161 0.489,0.293 0.596,0.406c0.212,0.22 0.116,0.405 -0.307,0.656l0.212,0.116l2.554,-1.475l-0.212,-0.116c-0.234,0.129 -0.442,0.21 -0.619,0.241c-0.365,0.069 -0.745,-0.042 -1.314,-0.353l-2.805,-1.536c-0.09,-0.569 0.07,-0.926 0.52,-1.186c0.614,-0.354 1.315,-0.294 2.194,0.188l2.322,1.271c0.282,0.155 0.473,0.29 0.573,0.4c0.202,0.226 0.089,0.421 -0.35,0.674l-0.065,0.038l0.211,0.116l2.598,-1.5l-0.212,-0.116c-0.217,0.119 -0.415,0.188 -0.587,0.216c-0.349,0.053 -0.7,-0.048 -1.258,-0.353l-2.39,-1.31c-1.225,-0.67 -2.418,-0.763 -3.285,-0.262c-0.206,0.119 -0.356,0.245 -0.456,0.38c-0.198,0.269 -0.241,0.649 -0.142,1.264l-1.155,-0.632Z" style="fill:#fa2;fill-rule:nonzero;"/><path d="M862.999,827.128c0.489,0.268 1.056,0.451 1.698,0.552c1.295,0.21 2.648,0.029 3.516,-0.472c0.678,-0.391 1.034,-0.978 0.964,-1.577c-0.059,-0.593 -0.555,-1.206 -1.319,-1.625c-0.488,-0.267 -1.057,-0.456 -1.698,-0.558c-1.29,-0.206 -2.625,-0.016 -3.514,0.498c-0.467,0.269 -0.769,0.598 -0.906,0.981c-0.272,0.777 0.202,1.622 1.259,2.201Zm0.537,-0.833c-0.425,-0.233 -0.739,-0.472 -0.947,-0.714c-0.416,-0.484 -0.35,-0.936 0.215,-1.262c0.325,-0.188 0.739,-0.291 1.24,-0.315c1.003,-0.043 2.214,0.26 3.266,0.836c0.425,0.233 0.739,0.472 0.953,0.717c0.422,0.494 0.356,0.952 -0.208,1.278c-0.32,0.184 -0.734,0.287 -1.242,0.302c-1.009,0.034 -2.248,-0.279 -3.277,-0.842Z" style="fill:#fa2;fill-rule:nonzero;"/><path d="M872.089,818.642l0.2,0.11c0.575,-0.326 0.903,-0.262 1.303,0.146l1.956,2.31l-4.124,-1.045c-0.719,-0.173 -0.832,-0.431 -0.301,-0.738l0.049,-0.028l-0.2,-0.11l-5.078,2.932l0.201,0.109c0.446,-0.225 0.863,-0.143 1.645,0.065l6.066,1.56l0.201,-0.116l-2.023,-2.756l4.73,1.193l0.223,-0.129l-2.776,-3.271c-0.375,-0.437 -0.677,-0.78 -0.348,-1.002l-0.2,-0.11l-1.524,0.88Zm0.625,4.235c0.036,0.051 0.048,0.063 0.067,0.098l0.013,0.044l0.007,0.04c0,0.006 -0.016,0.01 -0.022,0.007l-0.006,-0.003l-0.01,0.037c0,0.007 -0.022,0.007 -0.022,0.001l-0.001,-0.013l0.005,-0.022l-0.043,0.05c0,0 -0.005,0.01 -0.016,0.01c-0.005,-0.004 -0.011,-0.007 -0.011,-0.013l0.037,-0.053l-0.022,0.013l-0.017,0.003l-0.028,-0.003c-0.011,-0.001 -0.023,-0.007 -0.023,-0.013c0,-0 0.005,-0.009 -0.001,-0.013l-0.011,-0.006c-0.029,-0.016 0.004,-0.041 0.026,-0.054c0.081,-0.047 0.058,-0.072 0.018,-0.088l-0.023,-0.006l-3.981,-1.038c-1.047,-0.275 -0.687,-0.657 -0.172,-0.955c0.766,-0.442 0.985,-0.419 2.8,0.007l1.436,1.97Zm-0.077,0.155l-0.005,0.009c0.011,-0 0.017,0.003 0.023,0.012l0.016,0.003l0.028,-0.015l0.011,-0.019l-0.006,-0.01c-0.006,-0.003 -0.011,-0.006 -0.022,-0.006c-0.023,0 -0.039,0.01 -0.045,0.026Z" style="fill:#fa2;fill-rule:nonzero;"/><path d="M883.765,811.901l0.201,0.11c0.575,-0.326 0.902,-0.263 1.303,0.146l1.956,2.31l-4.125,-1.045c-0.718,-0.174 -0.832,-0.431 -0.3,-0.738l0.048,-0.028l-0.2,-0.11l-5.077,2.931l0.2,0.11c0.446,-0.225 0.864,-0.143 1.645,0.065l6.067,1.559l0.201,-0.116l-2.023,-2.756l4.73,1.193l0.222,-0.128l-2.776,-3.272c-0.374,-0.436 -0.677,-0.779 -0.347,-1.001l-0.201,-0.11l-1.524,0.88Zm0.626,4.235c0.036,0.05 0.048,0.063 0.066,0.097l0.013,0.044l0.008,0.041c-0,0.006 -0.017,0.009 -0.023,0.006l-0.005,-0.003l-0.01,0.038c-0,0.006 -0.022,0.006 -0.023,0l-0,-0.012l0.005,-0.023l-0.043,0.051c-0,-0 -0.005,0.009 -0.016,0.009c-0.006,-0.003 -0.012,-0.006 -0.012,-0.012l0.037,-0.054l-0.022,0.013l-0.016,0.003l-0.029,-0.003c-0.011,0 -0.022,-0.006 -0.022,-0.013c-0,0 0.005,-0.009 -0.001,-0.012l-0.012,-0.006c-0.028,-0.016 0.004,-0.041 0.026,-0.054c0.082,-0.047 0.058,-0.072 0.018,-0.088l-0.022,-0.006l-3.981,-1.039c-1.047,-0.274 -0.687,-0.657 -0.172,-0.954c0.766,-0.442 0.984,-0.42 2.799,0.007l1.437,1.97Zm-0.077,0.154l-0.005,0.01c0.011,-0 0.016,0.003 0.022,0.012l0.017,0.003l0.028,-0.016l0.01,-0.019l-0.005,-0.009c-0.006,-0.003 -0.012,-0.006 -0.023,-0.006c-0.022,-0 -0.039,0.009 -0.044,0.025Z" style="fill:#fa2;fill-rule:nonzero;"/><path d="M884.468,809.374c0.328,0.179 0.858,0.177 1.167,-0.001c0.319,-0.185 0.304,-0.48 -0.023,-0.659c-0.339,-0.186 -0.869,-0.19 -1.189,-0.005c-0.309,0.178 -0.294,0.48 0.045,0.665Zm6.655,4.419l2.499,-1.443l-0.212,-0.116c-0.228,0.113 -0.426,0.182 -0.603,0.207c-0.349,0.052 -0.695,-0.045 -1.264,-0.357l-4.287,-2.348l-1.097,1.339l0.267,0.085c0.046,-0.072 0.105,-0.132 0.18,-0.176c0.141,-0.081 0.279,-0.128 0.417,-0.143c0.273,-0.028 0.585,0.063 1.05,0.318l2.603,1.426c0.282,0.154 0.473,0.289 0.579,0.402c0.208,0.236 0.095,0.437 -0.333,0.684l-0.011,0.006l0.212,0.116Z" style="fill:#fa2;fill-rule:nonzero;"/><path d="M888.894,809.321l0.786,-0.454l3.718,2.036c1.04,0.57 1.904,0.652 2.603,0.249c0.569,-0.329 0.675,-0.778 0.29,-1.428l-0.222,0.128c0.088,0.311 0.031,0.487 -0.23,0.637c-0.39,0.226 -0.984,0.2 -1.466,-0.065l-3.793,-2.077l1.187,-0.686l-0.338,-0.185l-1.188,0.686l-1.729,-0.947l-0.168,0.097c0.629,0.619 0.753,1.284 0.337,1.892l0.213,0.117Z" style="fill:#fa2;fill-rule:nonzero;"/><path d="M902.63,806.911c-0.679,0.373 -1.03,0.375 -1.927,-0.116l-2,-1.095c-1.402,-0.768 -2.512,-1.083 -3.62,-0.482c-0.397,0.216 -0.69,0.592 -0.749,0.981l0.14,0.669c0.019,0.041 0.059,0.063 0.083,0.094c0.012,0.013 0.024,0.025 0.024,0.038c0.001,0.006 -0.01,0.013 -0.016,0.009l-0.004,0.035c0.001,0.012 -0.01,0.012 -0.016,0.009l-0.006,-0.003l-0.006,-0.016l-0.001,-0.018l-0.019,0.056c-0,0.006 -0.005,0.009 -0.017,0.009c-0.005,-0.003 -0.005,-0.003 -0.006,-0.009l0.014,-0.06l-0.033,0.019c-0.005,0.003 -0.01,0.006 -0.022,0.006c-0.022,-0.006 -0.034,-0.012 -0.034,-0.025l-0.006,0.003c-0.011,0 -0.057,-0.025 -0.008,-0.053c0.065,-0.038 0.051,-0.081 -0.012,-0.116l-3.935,-2.155l-1.077,1.41l0.266,0.073c0.423,-0.458 0.843,-0.442 1.618,-0.017l5.413,2.965c0.845,0.462 0.912,0.688 0.289,1.061l0.212,0.116l2.598,-1.5l-0.212,-0.116c-0.734,0.404 -1.063,0.413 -1.976,-0.087l-2.799,-1.533c-0.06,-0.405 -0.038,-0.845 0.548,-1.183c0.526,-0.304 1.264,-0.296 1.856,0.028l2.592,1.419c0.873,0.479 0.906,0.674 0.272,1.071l0.212,0.116l2.576,-1.487l-0.212,-0.116Zm-8.149,0.089l0.004,-0.022l-0.011,-0.006c-0.006,-0.004 -0.028,-0.003 -0.044,-0c-0.017,0.009 -0.022,0.018 -0.01,0.031l0,0.006c0.005,-0.003 0.017,0.003 0.028,0.01l0.017,-0.004l0.016,-0.015Z" style="fill:#fa2;fill-rule:nonzero;"/><path d="M910.939,802.352l-0.212,-0.116l-0.065,0.038c-0.228,0.132 -0.43,0.216 -0.612,0.25c-0.359,0.078 -0.727,-0.007 -1.233,-0.284l-7.027,-3.849l-0.201,0.116l-0.269,0.505l0.033,-0.007c0.022,-0.006 0.038,-0.015 0.06,-0.028c0.027,-0.009 0.049,-0.015 0.066,-0.018c0.011,-0 0.017,0.003 0.023,0.006l0.011,0.006c0.006,0.003 0.022,0 0.022,0c0.012,0 0.023,0.007 0.023,0.013l0.007,0.016l-0.005,0.009l-0.022,0.012l0.093,-0.021c0.011,-0 0.017,0.003 0.023,0.006c-0,0.006 -0.017,0.009 -0.017,0.009l-0.087,0.025l0.039,-0.003l0.033,-0c0.006,0.003 0.006,0.009 0.001,0.012l-0.006,-0.003l-0.006,0.003l-0.066,0.007l0.006,0.003c0.005,0.003 0,0.012 -0.011,0.012l-0.072,-0.003l-0.079,-0.006c-0.044,-0 -0.078,-0 -0.1,0.006l-0.541,0.997l0.287,0.048c0.085,-0.192 0.196,-0.327 0.331,-0.405c0.185,-0.106 0.373,-0.137 0.571,-0.09c0.204,0.057 0.553,0.217 1.053,0.491l4.907,2.688c0.259,0.142 0.427,0.264 0.511,0.365c0.161,0.21 0.02,0.402 -0.479,0.69l-0.032,0.019l0.212,0.116l2.83,-1.635Zm-9.453,-3.371c-0.028,0.003 -0.044,0.012 -0.044,0.025c0.001,0.006 0.006,0.009 0.012,0.012l0.017,0.003l0.032,-0.006l0.028,-0.016l-0.006,-0.009c-0.017,-0.003 -0.023,-0.006 -0.023,-0.013l-0.016,0.004Z" style="fill:#fa2;fill-rule:nonzero;"/><path d="M916.493,799.146l-0.212,-0.116l-0.065,0.038c-0.228,0.131 -0.43,0.216 -0.613,0.25c-0.359,0.078 -0.726,-0.007 -1.232,-0.284l-7.028,-3.849l-0.2,0.116l-0.27,0.504l0.034,-0.006c0.022,-0.006 0.038,-0.015 0.059,-0.028c0.028,-0.009 0.05,-0.016 0.066,-0.019c0.012,0 0.017,0.003 0.023,0.007l0.012,0.006c0.005,0.003 0.022,-0 0.022,-0c0.011,-0 0.023,0.006 0.023,0.013l0.006,0.015l-0.005,0.01l-0.021,0.012l0.093,-0.022c0.011,0 0.016,0.004 0.022,0.007c0,0.006 -0.016,0.009 -0.016,0.009l-0.088,0.025l0.039,-0.003l0.034,-0c0.005,0.003 0.005,0.009 0,0.012l-0.006,-0.003l-0.005,0.003l-0.066,0.006l0.005,0.004c0.006,0.003 0.001,0.012 -0.01,0.012l-0.073,-0.003l-0.078,-0.006c-0.045,-0 -0.078,-0 -0.1,0.006l-0.541,0.997l0.287,0.047c0.085,-0.191 0.195,-0.326 0.331,-0.404c0.184,-0.107 0.372,-0.138 0.57,-0.09c0.204,0.056 0.553,0.217 1.053,0.491l4.908,2.688c0.259,0.141 0.427,0.264 0.51,0.365c0.162,0.21 0.021,0.401 -0.478,0.689l-0.033,0.019l0.212,0.116l2.831,-1.634Zm-9.454,-3.372c-0.028,0.003 -0.044,0.013 -0.043,0.025c0,0.007 0.006,0.01 0.011,0.013l0.017,0.003l0.033,-0.007l0.027,-0.015l-0.006,-0.01c-0.016,-0.003 -0.022,-0.006 -0.022,-0.012l-0.017,0.003Z" style="fill:#fa2;fill-rule:nonzero;"/><path d="M918.861,797.74c0.246,0 0.45,-0.047 0.618,-0.144c0.342,-0.197 0.336,-0.517 -0.026,-0.715c-0.361,-0.198 -0.93,-0.193 -1.272,0.005c-0.33,0.191 -0.32,0.507 0.042,0.706c0.178,0.097 0.393,0.148 0.638,0.148Z" style="fill:#fa2;fill-rule:nonzero;"/><path d="M925.056,794.202l-0.212,-0.116l-0.065,0.038c-0.228,0.131 -0.43,0.216 -0.612,0.25c-0.359,0.078 -0.727,-0.008 -1.233,-0.284l-7.027,-3.849l-0.201,0.116l-0.269,0.504l0.033,-0.006c0.022,-0.006 0.038,-0.016 0.06,-0.028c0.027,-0.009 0.049,-0.016 0.066,-0.019c0.011,0 0.017,0.003 0.023,0.006l0.011,0.007c0.006,0.003 0.022,-0 0.022,-0c0.012,-0 0.023,0.006 0.023,0.012l0.007,0.016l-0.005,0.01l-0.022,0.012l0.093,-0.022c0.011,0 0.017,0.003 0.023,0.007c-0,0.006 -0.017,0.009 -0.017,0.009l-0.087,0.025l0.039,-0.003l0.033,-0c0.006,0.003 0.006,0.009 0.001,0.012l-0.006,-0.003l-0.006,0.003l-0.066,0.006l0.006,0.003c0.005,0.004 0,0.013 -0.011,0.013l-0.072,-0.003l-0.079,-0.006c-0.044,-0 -0.078,-0.001 -0.1,0.006l-0.541,0.997l0.287,0.047c0.085,-0.191 0.196,-0.326 0.331,-0.404c0.185,-0.107 0.373,-0.138 0.571,-0.09c0.204,0.056 0.553,0.217 1.053,0.491l4.907,2.688c0.259,0.141 0.427,0.264 0.511,0.364c0.161,0.211 0.02,0.402 -0.479,0.69l-0.032,0.019l0.212,0.116l2.83,-1.634Zm-9.453,-3.372c-0.028,0.003 -0.044,0.013 -0.044,0.025c0.001,0.006 0.006,0.009 0.012,0.013l0.017,0.003l0.033,-0.007l0.027,-0.015l-0.006,-0.01c-0.017,-0.003 -0.023,-0.006 -0.023,-0.012l-0.016,0.003Z" style="fill:#fa2;fill-rule:nonzero;"/><path d="M927.298,793.276l0.477,-0.275l-3.268,-7.764l-0.477,0.275l3.268,7.764Zm-6.838,-3.343c0.902,0.494 1.811,0.687 2.715,0.579c0.355,-0.044 0.646,-0.135 0.879,-0.27c0.266,-0.153 0.419,-0.344 0.452,-0.57c0.066,-0.452 -0.335,-0.964 -1.139,-1.404c-0.391,-0.214 -0.807,-0.375 -1.248,-0.476c-0.882,-0.203 -1.737,-0.135 -2.28,0.178c-0.266,0.154 -0.418,0.345 -0.457,0.568c-0.077,0.452 0.325,0.983 1.078,1.395Zm-0.443,-1.865c0.542,-0.314 1.463,-0.115 2.768,0.6c0.615,0.337 1.015,0.629 1.184,0.874c0.175,0.255 0.141,0.456 -0.114,0.603c-0.548,0.316 -1.458,0.124 -2.728,-0.572c-1.27,-0.696 -1.642,-1.198 -1.11,-1.505Zm8.364,1.914c0.632,0.346 1.278,0.542 1.939,0.587c0.679,0.048 1.226,-0.037 1.639,-0.275c0.271,-0.156 0.424,-0.347 0.463,-0.576c0.071,-0.449 -0.319,-0.961 -1.129,-1.405c-0.391,-0.214 -0.812,-0.372 -1.253,-0.473c-0.881,-0.202 -1.732,-0.137 -2.29,0.186c-0.261,0.15 -0.408,0.338 -0.447,0.561c-0.083,0.454 0.325,0.982 1.078,1.395Zm0.667,-0.36c-1.281,-0.702 -1.659,-1.202 -1.133,-1.506c0.548,-0.316 1.48,-0.117 2.791,0.601c0.592,0.324 0.981,0.617 1.173,0.874c0.186,0.255 0.152,0.456 -0.114,0.609c-0.537,0.31 -1.447,0.118 -2.717,-0.578Z" style="fill:#fa2;fill-rule:nonzero;"/><path d="M943.512,783.546l2.619,-1.512l-0.212,-0.116l-0.103,0.06c-0.201,0.109 -0.393,0.175 -0.565,0.197c-0.349,0.046 -0.701,-0.055 -1.27,-0.366l-2.155,-1.181c-0.695,-0.381 -1.094,-0.544 -1.568,-0.633c-0.694,-0.142 -1.403,-0.049 -1.918,0.249c-0.38,0.219 -0.602,0.47 -0.666,0.758c-0.112,0.323 -0.107,0.644 0.01,0.958l0.003,0.05l0.013,0.044l0.007,0.041c0,0.006 -0.016,0.009 -0.022,0.006l-0.006,-0.003l-0.01,0.038c0,0.006 -0.022,0.006 -0.022,0l-0.001,-0.012l0.005,-0.022l-0.041,0.049c0,-0 -0.005,0.009 -0.016,0.009c-0.006,-0.003 -0.011,-0.006 -0.012,-0.012l0.037,-0.053l-0.022,0.012l-0.016,0.003l-0.028,-0.003c-0.011,0 -0.023,-0.006 -0.023,-0.012c-0,-0 0.005,-0.01 -0.001,-0.013l-0.011,-0.006c-0.006,-0.004 -0.012,-0.007 -0.012,-0.013c0.005,-0.009 0.015,-0.022 0.037,-0.041c0.043,-0.025 0.059,-0.047 0.058,-0.065l-0.002,-0.026c-0.931,-0.302 -1.727,-0.263 -2.389,0.119c-0.434,0.251 -0.684,0.712 -0.637,1.201l0.022,0.415l-1.121,-0.613l-1.228,1.413l0.282,0.063c0.074,-0.088 0.154,-0.16 0.246,-0.213c0.141,-0.082 0.284,-0.125 0.429,-0.138c0.29,-0.018 0.637,0.099 1.165,0.388l2.482,1.36c0.288,0.157 0.484,0.289 0.596,0.399c0.213,0.22 0.133,0.402 -0.258,0.634l-0.108,0.063l0.212,0.116l2.597,-1.5l-0.212,-0.116l-0.076,0.044c-0.206,0.113 -0.398,0.178 -0.57,0.2c-0.344,0.05 -0.696,-0.051 -1.27,-0.366l-2.851,-1.561l0.004,-0.041l-0.006,-0.222c-0.005,-0.315 0.233,-0.691 0.564,-0.882c0.645,-0.373 1.348,-0.287 2.382,0.279l2.109,1.155c0.288,0.158 0.484,0.29 0.596,0.4c0.213,0.22 0.132,0.39 -0.247,0.628l-0.136,0.078l0.212,0.116l2.631,-1.519l-0.212,-0.116l-0.098,0.057c-0.201,0.109 -0.387,0.178 -0.559,0.2c-0.344,0.05 -0.701,-0.054 -1.276,-0.369l-2.121,-1.162c-0.144,-0.078 -0.419,-0.211 -0.539,-0.27l-0.211,-0.092l-0.023,-0.012l-0.016,-0.217c-0.018,-0.333 0.246,-0.737 0.615,-0.95c0.548,-0.317 1.32,-0.303 1.946,0.04l2.546,1.394c0.287,0.158 0.484,0.29 0.596,0.4c0.212,0.22 0.131,0.389 -0.247,0.627l-0.12,0.069l0.212,0.116Zm-5.935,-1.454l0.028,-0.016l0.011,-0.019l-0.006,-0.009c-0.006,-0.003 -0.011,-0.006 -0.022,-0.006c-0.023,-0 -0.039,0.009 -0.045,0.025l-0.005,0.01c0.011,-0 0.017,0.003 0.023,0.012l0.016,0.003Z" style="fill:#fa2;fill-rule:nonzero;"/><path d="M944.192,780.252c0.489,0.267 1.057,0.45 1.698,0.552c1.295,0.209 2.648,0.028 3.516,-0.473c0.678,-0.391 1.034,-0.978 0.964,-1.577c-0.059,-0.593 -0.554,-1.206 -1.319,-1.625c-0.488,-0.267 -1.056,-0.456 -1.698,-0.558c-1.289,-0.206 -2.625,-0.016 -3.514,0.498c-0.467,0.269 -0.769,0.598 -0.906,0.981c-0.272,0.778 0.202,1.622 1.259,2.202Zm0.537,-0.834c-0.425,-0.233 -0.739,-0.472 -0.947,-0.714c-0.416,-0.484 -0.349,-0.936 0.215,-1.262c0.325,-0.188 0.739,-0.291 1.24,-0.315c1.003,-0.043 2.214,0.26 3.266,0.836c0.425,0.233 0.739,0.472 0.953,0.717c0.422,0.494 0.356,0.952 -0.208,1.278c-0.32,0.185 -0.734,0.288 -1.241,0.303c-1.01,0.033 -2.249,-0.28 -3.278,-0.843Z" style="fill:#fa2;fill-rule:nonzero;"/><path d="M950.677,773.224c-0.166,0.025 -0.309,0.075 -0.434,0.147c-0.499,0.288 -0.562,0.68 -0.189,1.415c0.006,0.01 0.007,0.029 0.002,0.05c-0.005,0.022 -0.004,0.041 0.002,0.057c0.019,0.028 0.02,0.047 0.003,0.056l-0.016,-0.003l-0.006,-0.003l-0.009,0.037c-0,0.007 -0.022,0.007 -0.023,0l-0,-0.012l0.004,-0.022l-0.042,0.05c0,0 -0.005,0.009 -0.016,0.009c-0.006,-0.003 -0.012,-0.006 -0.012,-0.012l0.037,-0.053l-0.022,0.012l-0.016,0.004l-0.028,-0.004c-0.012,0 -0.023,-0.006 -0.023,-0.012c-0,-0 0.005,-0.01 -0.001,-0.013l-0.012,-0.006c-0.005,-0.003 -0.011,-0.006 -0.011,-0.013c0.005,-0.009 0.015,-0.022 0.037,-0.04c0.021,-0.013 0.037,-0.022 0.048,-0.035c0.005,-0.003 0.038,-0.028 0.02,-0.044l-0.012,-0.012l-0.856,-0.469l-0.458,-0.013l-0.862,1.266l0.272,0.07c0.083,-0.12 0.168,-0.207 0.271,-0.267c0.125,-0.072 0.257,-0.097 0.403,-0.084c0.292,0.032 0.56,0.154 0.991,0.39l2.512,1.376c0.299,0.163 0.501,0.299 0.602,0.402c0.206,0.217 0.11,0.409 -0.324,0.665l-0.032,0.019l0.212,0.116l2.732,-1.577l-0.211,-0.116l-0.169,0.097c-0.228,0.125 -0.431,0.197 -0.608,0.228c-0.354,0.056 -0.711,-0.042 -1.303,-0.366l-2.684,-1.47c-0.207,-0.339 -0.267,-0.634 -0.132,-0.823c0.042,-0.056 0.09,-0.103 0.15,-0.138c0.135,-0.078 0.307,-0.1 0.522,-0.061c0.247,0.044 0.48,0.006 0.648,-0.091c0.277,-0.159 0.302,-0.42 -0.019,-0.596c-0.23,-0.126 -0.589,-0.164 -0.938,-0.111Zm-0.739,1.712l0.027,-0.015l0.01,-0.019l-0.005,-0.009c-0.006,-0.003 -0.012,-0.006 -0.023,-0.006c-0.022,-0 -0.038,0.009 -0.043,0.025l-0.005,0.009c0.011,-0 0.016,0.003 0.022,0.012l0.017,0.003Z" style="fill:#fa2;fill-rule:nonzero;"/><path d="M959.501,771.827c0.371,0.917 0.24,1.51 -0.547,1.964c-1.122,0.648 -3.141,0.495 -4.434,-0.213l-0.19,-0.104l3.487,-2.014c-0.43,-0.235 -0.897,-0.399 -1.393,-0.488c-0.986,-0.174 -1.988,-0.021 -2.753,0.42c-0.45,0.26 -0.726,0.554 -0.826,0.884c-0.206,0.668 0.319,1.413 1.468,2.042c1.471,0.806 3.566,0.953 4.879,0.195c1.106,-0.639 1.224,-1.501 0.509,-2.698l-0.2,0.012Zm-5.462,1.531l0.008,0.04c0,0.007 -0.017,0.01 -0.022,0.007l-0.006,-0.003l-0.01,0.038c0,0.006 -0.022,0.006 -0.022,-0l-0.001,-0.013l0.005,-0.022l-0.043,0.05c0,0 -0.005,0.01 -0.016,0.01c-0.006,-0.003 -0.011,-0.007 -0.012,-0.013l0.037,-0.053l-0.022,0.012l-0.017,0.004l-0.028,-0.004c-0.011,0 -0.022,-0.006 -0.023,-0.012c0,-0 0.005,-0.01 -0,-0.013l-0.012,-0.006c-0.005,-0.003 -0.011,-0.006 -0.012,-0.013c0.006,-0.009 0.016,-0.022 0.038,-0.041c0.044,-0.025 0.104,-0.059 0.086,-0.075l-0.023,-0.019c-0.221,-0.157 -0.385,-0.314 -0.478,-0.487c-0.214,-0.362 -0.098,-0.701 0.331,-0.948c0.596,-0.344 1.694,-0.286 2.108,-0.059c0.213,0.116 0.243,0.279 -0.055,0.452l-1.811,1.045c-0.027,0.016 -0.026,0.041 -0.013,0.079l0.013,0.044Zm-0.156,0.013l-0.005,0.009c0.011,0 0.017,0.003 0.023,0.013l0.016,0.003l0.028,-0.016l0.011,-0.019l-0.006,-0.01c-0.006,-0.003 -0.012,-0.006 -0.023,-0.006c-0.023,0 -0.039,0.01 -0.044,0.026Z" style="fill:#fa2;fill-rule:nonzero;"/><path d="M965.824,770.665l2.5,-1.444l-0.212,-0.116l-0.022,0.013c-0.201,0.11 -0.388,0.172 -0.554,0.197c-0.333,0.043 -0.679,-0.061 -1.247,-0.372l-7.143,-3.912l-0.19,0.11l-0.865,1.288l0.266,0.073c0.052,-0.076 0.127,-0.138 0.213,-0.188c0.266,-0.154 0.517,-0.169 0.858,-0.056c0.182,0.07 0.393,0.167 0.641,0.303l5.309,2.907c0.282,0.155 0.473,0.284 0.573,0.394c0.212,0.22 0.127,0.411 -0.252,0.636l-0.087,0.051l0.212,0.116Z" style="fill:#fa2;fill-rule:nonzero;"/><path d="M962.19,764.501c0.328,0.179 0.858,0.177 1.167,-0.001c0.32,-0.185 0.304,-0.48 -0.023,-0.659c-0.339,-0.186 -0.869,-0.19 -1.189,-0.005c-0.309,0.178 -0.293,0.48 0.045,0.665Zm6.655,4.419l2.499,-1.443l-0.211,-0.116c-0.229,0.113 -0.427,0.182 -0.604,0.207c-0.349,0.053 -0.695,-0.045 -1.264,-0.357l-4.286,-2.347l-1.098,1.338l0.267,0.085c0.046,-0.072 0.105,-0.132 0.181,-0.176c0.141,-0.081 0.278,-0.128 0.417,-0.143c0.272,-0.028 0.584,0.063 1.049,0.318l2.603,1.426c0.282,0.154 0.473,0.289 0.579,0.402c0.208,0.236 0.095,0.437 -0.333,0.684l-0.011,0.006l0.212,0.116Z" style="fill:#fa2;fill-rule:nonzero;"/><path d="M967.989,763.126l-1.141,1.388l0.3,0.079c0.094,-0.126 0.174,-0.21 0.25,-0.254c0.33,-0.191 0.691,-0.134 1.317,0.209l2.65,1.451c0.293,0.16 0.489,0.293 0.596,0.406c0.212,0.22 0.116,0.405 -0.307,0.655l0.212,0.116l2.554,-1.474l-0.212,-0.116c-0.234,0.128 -0.442,0.21 -0.619,0.241c-0.365,0.068 -0.745,-0.042 -1.314,-0.354l-2.804,-1.536c-0.091,-0.568 0.069,-0.926 0.52,-1.186c0.613,-0.354 1.314,-0.293 2.193,0.189l2.322,1.271c0.282,0.154 0.473,0.29 0.574,0.4c0.201,0.226 0.088,0.42 -0.351,0.674l-0.065,0.038l0.211,0.116l2.598,-1.5l-0.212,-0.116c-0.217,0.119 -0.415,0.188 -0.586,0.216c-0.35,0.053 -0.701,-0.048 -1.258,-0.354l-2.391,-1.309c-1.224,-0.67 -2.418,-0.763 -3.285,-0.262c-0.206,0.119 -0.356,0.244 -0.456,0.379c-0.198,0.27 -0.241,0.65 -0.142,1.265l-1.154,-0.632Z" style="fill:#fa2;fill-rule:nonzero;"/><path d="M979.958,760.016c0.371,0.917 0.24,1.511 -0.547,1.965c-1.122,0.648 -3.141,0.494 -4.434,-0.214l-0.19,-0.104l3.487,-2.014c-0.43,-0.235 -0.897,-0.399 -1.393,-0.488c-0.986,-0.174 -1.988,-0.021 -2.753,0.42c-0.45,0.26 -0.726,0.555 -0.826,0.884c-0.206,0.668 0.319,1.413 1.468,2.042c1.471,0.806 3.566,0.953 4.879,0.195c1.106,-0.638 1.224,-1.501 0.509,-2.698l-0.2,0.012Zm-5.462,1.531l0.008,0.041c0,0.006 -0.017,0.009 -0.022,0.006l-0.006,-0.003l-0.01,0.038c0,0.006 -0.022,0.006 -0.023,-0l-0,-0.013l0.005,-0.022l-0.043,0.051c0,-0 -0.005,0.009 -0.016,0.009c-0.006,-0.003 -0.012,-0.006 -0.012,-0.013l0.037,-0.053l-0.022,0.013l-0.017,0.003l-0.028,-0.003c-0.011,-0 -0.022,-0.007 -0.023,-0.013c0,0 0.005,-0.009 -0,-0.012l-0.012,-0.007c-0.006,-0.003 -0.011,-0.006 -0.012,-0.012c0.006,-0.01 0.016,-0.022 0.038,-0.042c0.044,-0.025 0.103,-0.059 0.086,-0.075l-0.023,-0.019c-0.221,-0.157 -0.385,-0.314 -0.478,-0.487c-0.214,-0.362 -0.098,-0.7 0.331,-0.948c0.596,-0.344 1.694,-0.286 2.108,-0.059c0.213,0.116 0.243,0.28 -0.055,0.452l-1.811,1.046c-0.027,0.015 -0.026,0.04 -0.013,0.078l0.013,0.044Zm-0.156,0.013l-0.005,0.009c0.011,0 0.016,0.003 0.022,0.013l0.017,0.003l0.028,-0.016l0.011,-0.019l-0.006,-0.009c-0.006,-0.004 -0.012,-0.007 -0.023,-0.007c-0.023,0 -0.039,0.01 -0.044,0.026Z" style="fill:#fa2;fill-rule:nonzero;"/><path d="M983.924,757.777c-0.608,-0.101 -1.391,-0.037 -2.713,0.216c-1.195,0.231 -1.776,0.23 -2.23,-0.019c-0.138,-0.075 -0.226,-0.166 -0.259,-0.27c-0.073,-0.21 0.072,-0.443 0.419,-0.643c0.212,-0.122 0.47,-0.207 0.77,-0.244c0.599,-0.074 1.308,0.04 1.948,0.31l0.2,-0.115l-1.654,-0.906l-0.135,0.078c0.018,0.041 0.072,0.125 0.101,0.154c0.012,0.012 0.024,0.025 0.025,0.037c-0,0.007 -0.011,0.013 -0.017,0.01l-0.003,0.034c0,0.013 -0.011,0.013 -0.016,0.01l-0.006,-0.004l-0.007,-0.015l-0.001,-0.019l-0.019,0.056c0.001,0.007 -0.005,0.01 -0.016,0.01c-0.006,-0.004 -0.006,-0.004 -0.006,-0.01l0.013,-0.059l-0.032,0.018c-0.005,0.003 -0.011,0.007 -0.022,0.007c-0.023,-0.007 -0.034,-0.013 -0.035,-0.026l-0.005,0.004c-0.011,-0 -0.057,-0.026 -0.009,-0.054c0.066,-0.037 0.052,-0.081 -0.01,-0.116c-0.014,0.06 -0.062,0.113 -0.154,0.167c-0.07,0.04 -0.158,0.078 -0.257,0.109l-0.451,0.138c-0.165,0.05 -0.323,0.122 -0.491,0.219c-0.298,0.172 -0.501,0.366 -0.608,0.576c-0.207,0.424 -0,0.854 0.598,1.181c0.758,0.415 1.564,0.345 2.777,0.155c0.881,-0.14 1.509,-0.211 1.877,-0.211c0.364,0.004 0.68,0.079 0.956,0.231c0.437,0.239 0.392,0.672 -0.075,0.941c-0.764,0.442 -1.955,0.431 -3.113,-0.038l-0.189,0.109l1.833,1.003l0.238,-0.137c-0.003,-0.056 0.034,-0.11 0.115,-0.157c0.32,-0.184 0.914,-0.25 1.462,-0.566c0.911,-0.526 0.997,-1.351 0.06,-1.864c-0.27,-0.148 -0.554,-0.249 -0.859,-0.3Zm-3.629,-1.402l0.004,-0.022l-0.011,-0.006c-0.006,-0.003 -0.027,-0.003 -0.044,0c-0.016,0.01 -0.021,0.019 -0.01,0.031l0.001,0.006c0.005,-0.003 0.017,0.004 0.028,0.01l0.017,-0.003l0.015,-0.016Z" style="fill:#ffaa00;fill-rule:nonzero;"/></g><path d="M843.318,670.112c6.188,-3.572 13.812,-3.572 20,0l126.682,73.14c6.188,3.573 10,10.175 10,17.321l-0,0.034c-0,6.717 -3.583,12.923 -9.4,16.282l-127.282,73.486c-6.188,3.573 -13.812,3.573 -20,0l-127.282,-73.486c-5.817,-3.359 -9.4,-9.565 -9.4,-16.282l-0,-0.034c-0,-7.146 3.812,-13.748 10,-17.321l126.682,-73.14Zm-71.612,87.534c-0.929,0.535 -1.5,1.526 -1.5,2.598c-0,1.071 0.571,2.062 1.5,2.598c25.299,14.606 57.952,33.459 76.611,44.232c3.094,1.786 6.906,1.786 10,-0c15.394,-8.887 61.917,-35.747 76.613,-44.232c0.928,-0.536 1.5,-1.527 1.5,-2.598c-0,-1.072 -0.572,-2.063 -1.5,-2.598c-14.696,-8.485 -61.219,-35.345 -76.612,-44.232c-3.094,-1.787 -6.906,-1.787 -10,-0c-15.394,8.887 -61.916,35.747 -76.612,44.232Z" style="fill:#fb0;"/></g></g><defs><linearGradient id="_Linear1" x1="0" y1="0" x2="1" y2="0" gradientUnits="userSpaceOnUse" gradientTransform="matrix(45,123,-123,45,516,512)"><stop offset="0" style="stop-color:#eee;stop-opacity:1"/><stop offset="0.5" style="stop-color:#eee;stop-opacity:0.58"/><stop offset="1" style="stop-color:#eee;stop-opacity:1"/></linearGradient><radialGradient id="_Radial2" cx="0" cy="0" r="1" gradientUnits="userSpaceOnUse" gradientTransform="matrix(37.5312,75,-218,109.091,441,460)"><stop offset="0" style="stop-color:#eee;stop-opacity:0"/><stop offset="1" style="stop-color:#eee;stop-opacity:0.5"/></radialGradient><linearGradient id="_Linear3" x1="0" y1="0" x2="1" y2="0" gradientUnits="userSpaceOnUse" gradientTransform="matrix(1.11925e-14,-182.787,182.787,1.11925e-14,853.318,943.36)"><stop offset="0" style="stop-color:#e59801;stop-opacity:1"/><stop offset="1" style="stop-color:#bc7801;stop-opacity:1"/></linearGradient></defs></svg>