<?xml version="1.0" encoding="UTF-8" standalone="no"?><!DOCTYPE svg PUBLIC "-//W3C//DTD SVG 1.1//EN" "http://www.w3.org/Graphics/SVG/1.1/DTD/svg11.dtd"><svg width="100%" height="100%" viewBox="0 0 1000 1000" version="1.1" xmlns="http://www.w3.org/2000/svg" xmlns:xlink="http://www.w3.org/1999/xlink" xml:space="preserve" xmlns:serif="http://www.serif.com/" style="fill-rule:evenodd;clip-rule:evenodd;stroke-linejoin:round;stroke-miterlimit:2;"><rect id="MoGraph" x="0" y="0" width="1000" height="1000" style="fill:none;"/><g id="MoGraph1" serif:id="MoGraph"><g><path d="M943.532,723.142c-0,-0 50.493,-36.02 54.004,-29.617c3.511,6.403 3.254,14.21 -0.672,20.368l-74.541,116.927c-4.181,6.558 -4.181,14.944 -0,21.502l74.541,116.927c3.926,6.157 4.183,13.965 0.672,20.368c-3.511,6.403 -10.233,10.383 -17.536,10.383l-243.921,-0c-7.302,-0 36.469,-40 36.469,-40l170.983,0l-54.937,-86.175c-12.542,-19.674 -12.542,-44.834 -0,-64.508l54.938,-86.175Z" style="fill:url(#_Radial1);"/><path d="M980,723.142l-207.452,-0l54.937,86.175c12.543,19.674 12.543,44.834 0,64.508l-54.937,86.175l-19.847,30.857c-3.34,5.143 -9.319,9.143 -16.622,9.143c-7.302,-0 -14.024,-3.98 -17.536,-10.383c-3.511,-6.403 -3.254,-14.211 0.672,-20.368l74.541,-116.927c4.181,-6.558 4.181,-14.944 0,-21.502l-74.541,-116.927c-3.926,-6.158 -4.183,-13.965 -0.672,-20.368c3.512,-6.403 10.234,-10.383 17.536,-10.383l243.921,-0c3.626,-0 7.028,0.967 9.962,2.657c3.132,1.799 5.775,4.444 7.574,7.726c1.555,2.827 2.447,6.069 2.464,9.516c-0,0.034 0,0.067 -0,0.101c-0,3.956 -1.151,7.645 -3.136,10.751c-3.554,5.56 -9.782,9.249 -16.864,9.249Z" style="fill:#29f;"/></g><g><path d="M274.488,829.497l-38.976,-8.994c20.176,-87.437 43.605,-160.475 69.186,-220.41c99.541,-233.214 234.299,-273.123 342.906,-199.449l-22.455,33.102c-92.28,-62.597 -199.086,-16.104 -283.661,182.049c-24.801,58.105 -47.44,128.936 -67,213.702Z" style="fill:url(#_Linear2);"/><g><path d="M597.909,528.547c3.406,-0.073 6.462,0.874 6.701,1.709c0.077,0.268 -0.169,0.369 -0.519,0.378l-5.698,0.085l-0.149,0.119l0.835,1.795c3.391,-0.068 6.462,0.875 6.701,1.71c0.077,0.268 -0.162,0.397 -0.516,0.392l-3.741,-0.078c-1.46,-0.025 -1.956,0.591 -1.741,1.341c0.214,0.748 1.201,1.689 2.468,2l0.248,-0.469c-1.051,-0.464 -1.219,-0.997 -0.423,-0.996l3.946,0.095c1.288,0.014 1.727,-0.586 1.46,-1.519c-0.417,-1.457 -2.458,-2.233 -4.218,-2.556l-0.013,-0.043l1.601,0.033c1.307,0.024 1.728,-0.587 1.461,-1.521c-0.417,-1.455 -2.458,-2.233 -4.219,-2.556l-0.012,-0.043l1.546,0.002c0.34,0.01 0.606,-0.021 0.818,-0.081c0.621,-0.178 0.916,-0.645 0.717,-1.338c-0.226,-0.791 -1.213,-1.625 -2.354,-2.033l-0.235,0.465c1.019,0.458 1.155,1.093 0.288,1.111l-5.637,0.084l-0.149,0.119l0.834,1.795Z" style="fill:#eee;fill-rule:nonzero;"/><path d="M609.352,543.595c0.795,-0.307 0.901,-1.294 0.445,-2.473c-0.962,-2.484 -3.845,-3.701 -6.452,-2.691c-1.563,0.605 -2.044,1.926 -1.519,3.283c0.494,1.277 1.875,2.241 3.166,2.561l0.2,-0.503c-0.774,-0.41 -1.541,-0.965 -1.807,-1.651c-0.271,-0.7 0.081,-1.342 1.137,-1.751c0.179,-0.069 0.376,-0.129 0.573,-0.19c1.205,2.501 2.967,3.915 4.257,3.415Zm-0.402,-2.587c0.106,0.275 -0.041,0.505 -0.343,0.622c-1.125,0.436 -2.164,-0.251 -2.986,-1.559c1.4,-0.257 2.947,-0.051 3.329,0.937Z" style="fill:#eee;fill-rule:nonzero;"/><path d="M616.207,549.438c0.569,-0.137 0.962,-0.614 0.619,-1.347c-0.344,-0.731 -1.115,-0.921 -1.63,-0.809c-0.443,0.094 -0.961,0.547 -0.605,1.306c0.306,0.652 1.041,0.973 1.616,0.85Zm-15.001,-0.015c0.743,1.586 3.419,2.444 5.648,1.999l5.018,-1.007c0.311,-0.065 0.59,-0.13 0.79,-0.224c0.611,-0.287 0.84,-0.768 0.528,-1.433c-0.349,-0.745 -1.463,-1.425 -2.656,-1.646l-0.151,0.51c0.53,0.125 0.841,0.337 0.948,0.563c0.106,0.227 -0.09,0.4 -0.487,0.488l-6.764,1.304c-0.807,0.151 -1.388,-0.048 -1.657,-0.621c-0.181,-0.386 -0.176,-0.86 -0.006,-1.329l-0.074,-0.159l-1.398,-0.107c-0.069,0.405 -0.057,0.985 0.261,1.664l-0,-0.002Z" style="fill:#eee;fill-rule:nonzero;"/><path d="M607.822,555.083c0.737,1.324 2.885,1.557 4.652,1.466l0.029,0.051l-1.5,0.33c-0.338,0.087 -0.598,0.165 -0.791,0.272c-0.565,0.314 -0.759,0.81 -0.423,1.414c0.379,0.681 1.547,1.361 2.851,1.376l0.135,-0.513c-1.116,-0.221 -1.426,-0.688 -0.625,-0.881l5.491,-1.356l0.111,-0.163l-1.221,-1.559c-3.281,0.85 -6.448,0.694 -6.87,-0.064c-0.136,-0.244 0.081,-0.399 0.427,-0.473l3.659,-0.775c1.533,-0.331 1.765,-1.032 1.343,-1.79c-0.401,-0.721 -1.545,-1.294 -2.756,-1.445l-0.116,0.519c1.069,0.196 1.352,0.795 0.556,0.969l-3.867,0.824c-1.265,0.266 -1.557,0.95 -1.085,1.798Z" style="fill:#eee;fill-rule:nonzero;"/><path d="M612.893,563.387c3.205,-1.152 6.404,-1.227 6.897,-0.512c0.158,0.23 -0.044,0.405 -0.373,0.524l-5.374,1.893l-0.104,0.161l1.363,1.436c3.194,-1.144 6.404,-1.227 6.897,-0.512c0.158,0.23 -0.027,0.429 -0.364,0.536l-3.571,1.117c-1.393,0.441 -1.667,1.182 -1.225,1.825c0.442,0.642 1.677,1.22 2.976,1.111l0.087,-0.523c-1.145,-0.106 -1.473,-0.558 -0.718,-0.81l3.77,-1.166c1.226,-0.396 1.452,-1.105 0.901,-1.905c-0.858,-1.248 -3.04,-1.334 -4.812,-1.08l-0.025,-0.037l1.528,-0.479c1.246,-0.392 1.451,-1.105 0.9,-1.906c-0.858,-1.247 -3.041,-1.335 -4.813,-1.081l-0.025,-0.036l1.467,-0.491c0.325,-0.099 0.568,-0.212 0.749,-0.337c0.533,-0.366 0.663,-0.903 0.255,-1.496c-0.466,-0.678 -1.668,-1.154 -2.879,-1.178l-0.074,0.515c1.111,0.11 1.441,0.668 0.626,0.962l-5.318,1.873l-0.103,0.16l1.362,1.436Z" style="fill:#eee;fill-rule:nonzero;"/><path d="M621.228,575.152c1.381,1.684 4.56,2.29 7.051,0.246c1.114,-0.913 1.324,-2.094 0.196,-3.469c-0.411,-0.5 -0.947,-0.899 -1.532,-1.218l0.82,-0.368l-0.914,-1.114l-1.675,0.785c-0.977,-0.263 -1.936,-0.39 -2.656,-0.408l-0.054,0.653c0.49,0.017 1.127,0.121 1.692,0.229l-6.443,3.003c-0.624,0.303 -1.124,0.18 -1.778,-0.616l-0.686,0.393l3.404,4.149l0.696,-0.381l-1.286,-1.568l2.676,-1.283c0.098,0.375 0.265,0.694 0.489,0.967Zm5.517,-1.461c-1.433,1.176 -4.143,1.933 -4.852,1.068c-0.197,-0.239 -0.311,-0.563 -0.205,-0.992l4.917,-2.379c0.276,0.174 0.466,0.36 0.616,0.542c0.448,0.546 0.342,1.09 -0.476,1.761Z" style="fill:#eee;fill-rule:nonzero;"/><path d="M635.219,575.798c0.498,-0.307 0.724,-0.883 0.169,-1.472c-0.554,-0.588 -1.346,-0.528 -1.801,-0.261c-0.392,0.227 -0.743,0.821 -0.169,1.43c0.494,0.524 1.293,0.6 1.801,0.303Zm-9.497,4.502c0.504,0.535 1.823,0.908 3.101,0.613l-0.015,-0.531c-1.146,0.071 -1.549,-0.357 -0.832,-0.69l3.513,-1.654c1.119,-0.528 1.371,-1.311 0.717,-2.006c-0.585,-0.621 -1.806,-0.866 -3.007,-0.705l0.005,0.521c0.553,-0.036 0.914,0.069 1.075,0.24c0.172,0.182 0.07,0.44 -0.33,0.615l-3.325,1.554c-1.329,0.605 -1.488,1.422 -0.902,2.043Z" style="fill:#eee;fill-rule:nonzero;"/><path d="M629.915,584.273c2.896,-1.793 6.009,-2.532 6.638,-1.936c0.202,0.192 0.063,0.425 -0.245,0.6l-3.259,1.836c-1.271,0.721 -1.385,1.503 -0.82,2.039c0.566,0.536 1.894,0.845 3.143,0.468l-0.024,-0.53c-1.141,0.135 -1.557,-0.239 -0.871,-0.643l3.446,-1.923c1.116,-0.643 1.19,-1.383 0.485,-2.051c-1.099,-1.042 -3.251,-0.673 -4.931,-0.056l-0.032,-0.03l1.332,-0.785c0.298,-0.164 0.512,-0.326 0.664,-0.486c0.444,-0.469 0.46,-1.02 -0.063,-1.516c-0.597,-0.567 -1.872,-0.783 -3.062,-0.555l0.035,0.52c1.099,-0.134 1.539,0.364 0.812,0.811l-4.812,2.937l-0.068,0.178l1.632,1.122Z" style="fill:#eee;fill-rule:nonzero;"/><path d="M645.806,588.177l-1.432,-0.552c-0.236,-0.498 -0.606,-0.974 -1.003,-1.301c-2.216,-1.823 -5.564,-0.808 -7.07,1.022c-0.653,0.794 -0.823,1.625 -0.108,2.213l0.102,0.084c-1.839,-0.427 -3.158,-0.35 -3.682,0.287c-0.617,0.749 -0.212,1.899 0.923,2.834c1.432,1.178 4.69,2.356 5.91,0.711c0.508,-0.687 0.737,-0.918 1.604,-1.555l4.893,-3.631l-0.137,-0.112Zm-3.026,0.022c-1.49,0.908 -4.02,1.551 -4.69,1c-0.217,-0.178 -0.206,-0.608 0.205,-1.108c1.038,-1.261 3.191,-2.348 4.384,-1.366c0.307,0.252 0.528,0.701 0.564,1.188l-0.463,0.286Zm-3.246,2.417c-0.702,0.506 -1.249,1.008 -1.583,1.553c-0.767,1.256 -1.779,1.49 -3.097,0.405c-0.784,-0.645 -0.932,-1.205 -0.568,-1.648c0.692,-0.841 1.963,-0.787 3.462,-0.734c1.174,0.148 2.434,-0.224 3.082,-0.549l0.034,0.028l-1.33,0.945Z" style="fill:#eee;fill-rule:nonzero;"/><path d="M646.593,598.174c2.393,1.583 5.341,0.431 6.689,-1.606c0.763,-1.153 0.806,-2.604 -0.922,-3.748c-2.455,-1.624 -5.341,-0.431 -6.681,1.593c-0.763,1.154 -0.815,2.617 0.914,3.761Zm0.667,-0.474c-0.467,-0.309 -0.33,-0.995 0.262,-1.891c1.096,-1.656 3.148,-3.209 4.179,-2.527c0.467,0.308 0.31,0.999 -0.283,1.894c-1.088,1.645 -3.176,3.174 -4.158,2.524Z" style="fill:#eee;fill-rule:nonzero;"/><path d="M667.297,596.587c-0.813,-0.445 -1.893,-0.617 -2.966,-0.401c-0.319,-0.827 -0.909,-1.434 -1.631,-1.83c-1.69,-0.925 -4.109,-0.64 -5.626,1.03l-0.392,0.44l-1.342,-0.735l-0.623,0.68l1.355,0.741l-5.15,5.735c-0.646,0.72 -1.217,0.876 -1.759,0.58c-0.374,-0.205 -0.663,-0.597 -0.803,-1.076l-0.142,-0.078l-1.205,0.731c0.177,0.382 0.574,0.851 1.194,1.189c1.535,0.841 4.122,-0.089 5.653,-1.784l3.927,-4.358l2.787,1.525l-5.15,5.735c-0.645,0.72 -1.217,0.876 -1.759,0.58c-0.374,-0.205 -0.662,-0.597 -0.803,-1.076l-0.141,-0.078l-1.204,0.732c0.176,0.381 0.574,0.85 1.193,1.189c1.535,0.84 4.11,-0.097 5.654,-1.785l3.94,-4.351l1.78,0.975l0.636,-0.673l-1.767,-0.967l1.398,-1.667c0.544,-0.626 1.134,-0.755 1.702,-0.445c0.503,0.276 0.733,0.989 0.773,1.682l0.155,0.084l1.651,-0.873c-0.235,-0.581 -0.69,-1.098 -1.335,-1.451l-0,0Zm-8.86,0.199l1.24,-1.469c0.558,-0.651 1.224,-0.706 1.779,-0.402c0.568,0.311 1.048,1.026 1.198,1.947c-0.337,0.218 -0.63,0.477 -0.905,0.797l-0.551,0.638l-2.761,-1.511Z" style="fill:#eee;fill-rule:nonzero;"/><path d="M665.308,608.478c1.662,0.678 4.003,-1.049 4.812,-1.784l0.054,0.023l-0.548,0.682c-1.029,1.312 -1.376,2.28 -0.369,2.691c0.722,0.295 1.985,0.002 3.031,-0.73l-0.215,-0.485c-0.965,0.496 -1.548,0.369 -1.044,-0.283l3.656,-4.673l-0.163,-0.066l-1.518,-0.097c-0.436,-0.448 -0.909,-0.768 -1.413,-0.974c-2.506,-1.023 -5.981,1.149 -6.943,3.505c-0.389,0.953 -0.196,1.841 0.66,2.191Zm1.705,-0.907c-0.259,-0.106 -0.294,-0.486 -0.049,-1.085c0.69,-1.689 2.791,-3.644 4.112,-3.104c0.354,0.144 0.592,0.417 0.837,0.946l-0.309,0.366c-1.121,1.306 -3.787,3.205 -4.591,2.877Z" style="fill:#eee;fill-rule:nonzero;"/><path d="M678.288,613.221c1.468,0.429 3.191,-0.169 4.42,-1.389l-0.31,-0.458c-1.099,0.721 -2.247,1.03 -2.939,0.828c-0.677,-0.198 -0.968,-0.881 -0.655,-1.955c0.578,-1.977 2,-3.278 3.143,-2.944c0.65,0.189 1.044,0.78 1.296,1.911l0.156,0.045l1.344,-1.14c-0.503,-0.743 -1.219,-1.335 -2.165,-1.611c-2.414,-0.705 -5.285,0.892 -6.064,3.561c-0.45,1.539 0.419,2.757 1.774,3.152Z" style="fill:#eee;fill-rule:nonzero;"/><path d="M683.744,612.618c-0.652,1.297 -0.4,2.022 0.302,2.187c0.773,0.182 2.062,-0.225 2.97,-1.19l-0.306,-0.434c-0.915,0.676 -1.44,0.597 -1.061,-0.114l4.585,-8.953l-0.158,-0.037l-3.355,-0.185l-0.359,0.625l1.36,0.321l-3.978,7.78Z" style="fill:#eee;fill-rule:nonzero;"/><path d="M693.986,606.693c0.224,-0.54 0.071,-1.139 -0.723,-1.293c-0.794,-0.154 -1.401,0.357 -1.615,0.84c-0.185,0.414 -0.123,1.1 0.699,1.259c0.707,0.137 1.399,-0.268 1.639,-0.806Zm-5.079,9.202c0.722,0.14 2.011,-0.328 2.875,-1.313l-0.322,-0.423c-0.889,0.727 -1.466,0.615 -1.078,-0.074l1.885,-3.395c0.599,-1.082 0.347,-1.865 -0.591,-2.047c-0.837,-0.162 -1.971,0.352 -2.852,1.185l0.309,0.419c0.427,-0.351 0.782,-0.477 1.013,-0.432c0.245,0.047 0.313,0.315 0.09,0.691l-1.79,3.204c-0.725,1.267 -0.377,2.023 0.461,2.185Z" style="fill:#eee;fill-rule:nonzero;"/><path d="M705.644,606.41c-0.92,-0.115 -1.987,0.121 -2.906,0.716c-0.6,-0.653 -1.372,-1.001 -2.189,-1.104c-1.912,-0.24 -4.057,0.913 -4.856,3.023l-0.202,0.553l-1.518,-0.19l-0.33,0.861l1.532,0.192l-2.685,7.225c-0.336,0.907 -0.811,1.262 -1.424,1.185c-0.423,-0.053 -0.835,-0.312 -1.141,-0.706l-0.161,-0.02l-0.852,1.122c0.304,0.29 0.846,0.58 1.546,0.668c1.737,0.218 3.803,-1.597 4.604,-3.735l2.054,-5.496l3.152,0.396l-2.686,7.225c-0.336,0.907 -0.81,1.262 -1.423,1.185c-0.423,-0.053 -0.835,-0.312 -1.142,-0.706l-0.16,-0.02l-0.852,1.122c0.305,0.29 0.847,0.58 1.547,0.668c1.736,0.218 3.787,-1.598 4.604,-3.735l2.068,-5.494l2.013,0.253l0.345,-0.859l-1.999,-0.251l0.689,-2.064c0.276,-0.781 0.778,-1.119 1.42,-1.038c0.569,0.071 1.045,0.65 1.336,1.28l0.175,0.022l1.216,-1.419c-0.432,-0.454 -1.045,-0.767 -1.775,-0.859l-0,0Zm-8.168,3.437l0.614,-1.821c0.279,-0.811 0.88,-1.106 1.507,-1.027c0.642,0.08 1.352,0.57 1.829,1.371c-0.234,0.327 -0.411,0.675 -0.55,1.073l-0.277,0.796l-3.123,-0.392Z" style="fill:#eee;fill-rule:nonzero;"/><path d="M714.006,606.488c-1.735,-0.04 -3.897,1.233 -4.435,3.503l-0.195,0.819l-1.544,-0.035l-0.241,0.89l1.544,0.036l-1.937,7.46c-0.242,0.936 -0.678,1.338 -1.296,1.324c-0.426,-0.01 -0.862,-0.226 -1.207,-0.587l-0.162,-0.003l-0.734,1.203c0.333,0.257 0.901,0.491 1.607,0.507c1.75,0.04 3.605,-1.975 4.2,-4.184l1.499,-5.675l2.029,0.046l0.256,-0.889l-2.014,-0.047l0.475,-2.123c0.195,-0.805 0.66,-1.192 1.307,-1.177c0.573,0.013 1.105,0.54 1.459,1.137l0.177,0.004l1.065,-1.535c-0.476,-0.407 -1.118,-0.657 -1.853,-0.674Z" style="fill:#eee;fill-rule:nonzero;"/><path d="M715.243,617.982c0.599,-2.819 2.161,-5.867 3.572,-5.921c0.294,-0.011 0.534,0.097 0.778,0.324l0.177,-0.007l0.93,-1.462c-0.322,-0.341 -0.741,-0.531 -1.182,-0.514c-1.352,0.052 -2.665,1.925 -3.395,3.631l-0.044,0.002l0.409,-1.635c0.091,-0.328 0.125,-0.594 0.116,-0.814c-0.024,-0.645 -0.407,-1.043 -1.142,-1.015c-0.809,0.031 -1.854,0.791 -2.522,1.802l0.396,0.353c0.672,-0.894 1.335,-0.875 1.147,-0.029l-1.278,5.495l0.095,0.173l1.943,-0.383Z" style="fill:#eee;fill-rule:nonzero;"/><path d="M723.077,617.785c2.857,-0.276 4.421,-3.027 4.186,-5.458c-0.133,-1.377 -1.012,-2.531 -3.076,-2.332c-2.929,0.284 -4.421,3.027 -4.187,5.444c0.133,1.376 1.014,2.546 3.077,2.346Zm0.22,-0.788c-0.557,0.054 -0.883,-0.565 -0.986,-1.634c-0.191,-1.977 0.425,-4.475 1.655,-4.594c0.557,-0.054 0.87,0.581 0.973,1.65c0.19,1.962 -0.47,4.465 -1.642,4.578Z" style="fill:#eee;fill-rule:nonzero;"/><path d="M730.712,616.672c0.233,-3.398 1.451,-6.357 2.304,-6.52c0.274,-0.052 0.353,0.202 0.33,0.551l-0.428,5.682l0.105,0.16l1.864,-0.67c0.237,-3.384 1.451,-6.358 2.304,-6.52c0.274,-0.053 0.382,0.196 0.344,0.548l-0.413,3.719c-0.156,1.452 0.412,2.001 1.179,1.855c0.765,-0.146 1.79,-1.045 2.214,-2.278l-0.445,-0.29c-0.557,1.005 -1.103,1.125 -1.03,0.332l0.449,-3.921c0.13,-1.282 -0.428,-1.773 -1.382,-1.591c-1.488,0.284 -2.444,2.247 -2.924,3.972l-0.044,0.008l0.176,-1.592c0.142,-1.299 -0.429,-1.773 -1.383,-1.591c-1.487,0.284 -2.446,2.248 -2.925,3.972l-0.044,0.008l0.141,-1.539c0.04,-0.338 0.034,-0.606 -0.007,-0.822c-0.122,-0.635 -0.56,-0.97 -1.268,-0.835c-0.808,0.154 -1.727,1.063 -2.236,2.162l0.442,0.276c0.548,-0.974 1.191,-1.052 1.132,-0.187l-0.424,5.622l0.106,0.159l1.863,-0.67Z" style="fill:#eee;fill-rule:nonzero;"/><path d="M746.68,613.256c1.441,-0.47 2.081,-2.534 2.329,-4.286l0.056,-0.018l0.037,1.535c0.021,0.349 0.047,0.619 0.115,0.829c0.201,0.614 0.65,0.9 1.307,0.686c0.741,-0.242 1.632,-1.259 1.896,-2.536l-0.478,-0.231c-0.43,1.053 -0.947,1.269 -0.984,0.445l-0.281,-5.648l-0.139,-0.141l-1.764,0.901c0.207,3.383 -0.551,6.462 -1.375,6.731c-0.267,0.087 -0.377,-0.156 -0.384,-0.509l-0.06,-3.74c-0.033,-1.568 -0.676,-1.93 -1.501,-1.661c-0.784,0.256 -1.566,1.269 -1.945,2.43l0.487,0.212c0.397,-1.012 1.039,-1.175 1.057,-0.361l0.07,3.954c0.019,1.292 0.635,1.71 1.557,1.408Z" style="fill:#eee;fill-rule:nonzero;"/><path d="M757.6,606.666c-0.316,-0.792 -1.017,-1.162 -2.633,-1.564c-0.719,-0.172 -1.315,-0.315 -1.484,-0.739c-0.147,-0.369 0.151,-0.614 0.425,-0.723c0.561,-0.224 1.593,-0.017 2.299,0.208l0.164,-0.066l0.109,-1.673c-0.331,-0.074 -1.174,-0.086 -2.238,0.339c-1.491,0.594 -2.382,2.008 -1.925,3.156c0.316,0.793 1.034,1.125 2.587,1.488c0.894,0.214 1.377,0.433 1.535,0.829c0.191,0.478 -0.105,0.85 -0.502,1.008c-0.615,0.245 -1.837,-0.044 -2.55,-0.282l-0.15,0.059l-0.128,1.825c0.573,0.087 1.422,0.033 2.2,-0.277c1.696,-0.676 2.83,-2.234 2.291,-3.588Z" style="fill:#eee;fill-rule:nonzero;"/><path d="M759.659,597.475c-0.133,-0.57 -0.607,-0.967 -1.342,-0.629c-0.734,0.338 -0.93,1.108 -0.822,1.624c0.091,0.444 0.542,0.966 1.302,0.616c0.654,-0.301 0.981,-1.034 0.862,-1.611Zm1.24,10.437c0.669,-0.307 1.442,-1.439 1.57,-2.744l-0.508,-0.155c-0.299,1.109 -0.833,1.355 -0.919,0.569l-0.449,-3.858c-0.144,-1.228 -0.806,-1.717 -1.673,-1.318c-0.775,0.356 -1.396,1.435 -1.626,2.626l0.495,0.16c0.142,-0.534 0.357,-0.843 0.571,-0.942c0.227,-0.104 0.438,0.074 0.477,0.509l0.414,3.647c0.15,1.452 0.873,1.863 1.648,1.506Z" style="fill:#eee;fill-rule:nonzero;"/><path d="M766.004,605.201c-0.779,-3.316 -0.49,-6.502 0.275,-6.909c0.247,-0.131 0.423,0.076 0.491,0.423l0.704,3.674c0.28,1.434 0.985,1.79 1.673,1.425c0.688,-0.365 1.403,-1.527 1.443,-2.831l-0.51,-0.145c-0.235,1.125 -0.722,1.4 -0.886,0.621l-0.728,-3.879c-0.255,-1.262 -0.933,-1.567 -1.791,-1.112c-1.337,0.711 -1.672,2.869 -1.62,4.658l-0.039,0.02l-0.321,-1.512c-0.061,-0.334 -0.146,-0.589 -0.25,-0.784c-0.303,-0.57 -0.821,-0.761 -1.457,-0.423c-0.727,0.387 -1.338,1.526 -1.499,2.727l0.503,0.132c0.223,-1.084 0.835,-1.343 1.027,-0.512l1.254,5.496l0.148,0.121l1.583,-1.19Z" style="fill:#eee;fill-rule:nonzero;"/><path d="M774.741,591.382l-0.978,1.183c-0.548,0.066 -1.116,0.266 -1.552,0.538c-2.433,1.522 -2.534,5.02 -1.277,7.028c0.545,0.872 1.279,1.297 2.064,0.806l0.112,-0.07c-0.989,1.608 -1.335,2.883 -0.898,3.582c0.515,0.823 1.734,0.805 2.981,0.025c1.572,-0.983 3.724,-3.698 2.551,-5.378c-0.49,-0.7 -0.636,-0.99 -0.965,-2.015l-1.889,-5.792l-0.149,0.093Zm-0.941,2.877c0.389,1.701 0.195,4.304 -0.541,4.765c-0.238,0.148 -0.642,0.002 -0.985,-0.547c-0.867,-1.385 -1.214,-3.771 0.097,-4.591c0.336,-0.21 0.832,-0.277 1.306,-0.157l0.123,0.53Zm1.261,3.845c0.257,0.827 0.559,1.505 0.97,1.995c0.947,1.126 0.848,2.16 -0.599,3.065c-0.861,0.539 -1.44,0.501 -1.744,0.015c-0.578,-0.924 -0.123,-2.111 0.404,-3.516c0.514,-1.066 0.56,-2.379 0.459,-3.096l0.037,-0.024l0.473,1.561Z" style="fill:#eee;fill-rule:nonzero;"/><path d="M783.212,594.799c1.412,-1.107 1.071,-3.997 0.833,-5.063l0.046,-0.036l0.321,0.814c0.63,1.543 1.3,2.325 2.156,1.653c0.613,-0.481 0.985,-1.724 0.866,-2.995l-0.528,-0.053c-0.047,1.084 -0.446,1.528 -0.763,0.766l-2.249,-5.489l-0.139,0.108l-0.835,1.271c-0.606,0.158 -1.118,0.41 -1.546,0.746c-2.13,1.67 -1.963,5.765 -0.393,7.768c0.636,0.809 1.502,1.081 2.231,0.51Zm0.056,-1.93c-0.22,0.173 -0.568,0.015 -0.967,-0.494c-1.126,-1.436 -1.784,-4.229 -0.661,-5.11c0.301,-0.236 0.655,-0.308 1.236,-0.259l0.166,0.45c0.579,1.621 0.909,4.878 0.226,5.413Z" style="fill:#eee;fill-rule:nonzero;"/><path d="M786.424,576.632c-1.292,1.157 -1.999,3.565 -0.839,5.588l0.418,0.732l-1.15,1.03l0.433,0.814l1.15,-1.03l3.691,6.767c0.464,0.848 0.42,1.439 -0.04,1.851c-0.317,0.285 -0.783,0.426 -1.282,0.399l-0.12,0.108l0.288,1.379c0.418,-0.039 0.992,-0.258 1.518,-0.729c1.304,-1.167 1.279,-3.907 0.203,-5.925l-2.789,-5.165l1.512,-1.354l-0.423,-0.824l-1.501,1.345l-1.105,-1.875c-0.409,-0.72 -0.334,-1.321 0.148,-1.752c0.427,-0.383 1.176,-0.362 1.843,-0.169l0.131,-0.118l-0.273,-1.848c-0.626,0.029 -1.265,0.285 -1.813,0.776Z" style="fill:#eee;fill-rule:nonzero;"/><path d="M793.336,577.187l-0.487,-0.8l-1.435,1.435l-0.915,-1.414l-0.728,0.728l0.322,2.007l-1.05,1.05l0.488,0.799l0.946,-0.946l2.487,4.068c0.52,0.852 1.31,1.309 2.006,0.613c0.842,-0.843 0.999,-2.682 0.521,-4.076l-0.52,0.083c0.145,0.874 0.073,1.883 -0.187,2.143c-0.135,0.135 -0.312,0.083 -0.52,-0.271l-2.383,-3.963l1.455,-1.456Z" style="fill:#eee;fill-rule:nonzero;"/><path d="M797.999,572.258c-0.633,-0.57 -1.561,-0.22 -2.407,0.719c-1.783,1.98 -1.568,5.101 0.509,6.972c1.246,1.123 2.642,0.956 3.616,-0.126c0.916,-1.017 1.153,-2.684 0.856,-3.98l-0.539,0.048c-0.016,0.876 -0.165,1.811 -0.658,2.358c-0.502,0.557 -1.233,0.533 -2.075,-0.225c-0.142,-0.128 -0.285,-0.277 -0.428,-0.426c1.688,-2.203 2.154,-4.414 1.126,-5.34Zm-2.127,1.527c0.197,-0.219 0.469,-0.192 0.71,0.025c0.896,0.807 0.752,2.045 -0.044,3.368c-0.861,-1.132 -1.375,-2.606 -0.666,-3.393Z" style="fill:#eee;fill-rule:nonzero;"/><path d="M804.168,574.295c-1.76,-2.282 -3.07,-5.446 -2.197,-6.556c0.181,-0.232 0.419,-0.344 0.75,-0.383l0.109,-0.139l-0.511,-1.656c-0.468,0.025 -0.885,0.221 -1.157,0.568c-0.837,1.064 -0.26,3.277 0.568,4.938l-0.028,0.035l-0.981,-1.371c-0.191,-0.281 -0.371,-0.479 -0.545,-0.615c-0.507,-0.4 -1.058,-0.365 -1.513,0.213c-0.5,0.636 -0.598,1.925 -0.261,3.089l0.526,-0.074c-0.246,-1.091 0.198,-1.584 0.721,-0.892l3.359,4.532l0.193,0.04l0.967,-1.729Z" style="fill:#eee;fill-rule:nonzero;"/><path d="M808.31,557.932c-0.715,-0.465 -1.577,0.027 -2.265,1.086c-1.452,2.234 -0.751,5.284 1.593,6.807c1.406,0.914 2.758,0.531 3.551,-0.69c0.746,-1.147 0.72,-2.832 0.224,-4.065l-0.525,0.132c0.121,0.867 0.119,1.814 -0.282,2.431c-0.409,0.63 -1.134,0.72 -2.084,0.102c-0.161,-0.104 -0.325,-0.228 -0.49,-0.353c1.323,-2.44 1.438,-4.697 0.278,-5.45Zm-1.862,1.84c0.16,-0.247 0.433,-0.263 0.705,-0.086c1.011,0.657 1.062,1.902 0.483,3.333c-1.028,-0.984 -1.766,-2.359 -1.188,-3.247Z" style="fill:#eee;fill-rule:nonzero;"/><path d="M809.198,544.966c-0.443,0.814 -0.612,1.894 -0.394,2.967c-0.826,0.321 -1.432,0.912 -1.825,1.635c-0.921,1.693 -0.63,4.111 1.043,5.624l0.441,0.391l-0.731,1.343l0.681,0.622l0.738,-1.357l5.748,5.136c0.721,0.644 0.879,1.215 0.583,1.758c-0.203,0.374 -0.595,0.664 -1.073,0.805l-0.078,0.142l0.734,1.203c0.381,-0.178 0.849,-0.576 1.186,-1.196c0.837,-1.538 -0.099,-4.123 -1.798,-5.649l-4.367,-3.917l1.518,-2.79l5.747,5.136c0.722,0.643 0.879,1.214 0.584,1.757c-0.204,0.375 -0.595,0.664 -1.074,0.806l-0.077,0.142l0.734,1.202c0.381,-0.178 0.849,-0.576 1.186,-1.197c0.837,-1.537 -0.106,-4.109 -1.798,-5.649l-4.36,-3.929l0.97,-1.783l-0.675,-0.634l-0.962,1.769l-1.671,-1.394c-0.627,-0.542 -0.758,-1.132 -0.449,-1.701c0.274,-0.503 0.987,-0.735 1.68,-0.777l0.084,-0.155l-0.877,-1.649c-0.581,0.237 -1.096,0.693 -1.448,1.339l0,-0Zm0.221,8.859l-1.472,-1.236c-0.653,-0.556 -0.709,-1.223 -0.407,-1.778c0.31,-0.569 1.024,-1.051 1.945,-1.203c0.218,0.337 0.478,0.629 0.798,0.904l0.64,0.548l-1.504,2.765Z" style="fill:#eee;fill-rule:nonzero;"/><path d="M816.203,542.26c-0.779,-0.347 -1.553,0.274 -2.067,1.428c-1.085,2.434 0.085,5.336 2.638,6.474c1.532,0.682 2.808,0.092 3.4,-1.237c0.557,-1.251 0.267,-2.91 -0.416,-4.051l-0.497,0.213c0.255,0.837 0.402,1.773 0.102,2.445c-0.305,0.686 -1.008,0.889 -2.042,0.427c-0.175,-0.077 -0.357,-0.175 -0.54,-0.272c0.925,-2.617 0.686,-4.864 -0.578,-5.427Zm-1.552,2.109c0.12,-0.269 0.388,-0.327 0.683,-0.195c1.103,0.491 1.348,1.712 1,3.217c-1.169,-0.811 -2.114,-2.054 -1.683,-3.022Z" style="fill:#eee;fill-rule:nonzero;"/><path d="M823.034,542.086c0.532,-1.434 0.057,-3.195 -1.073,-4.508l-0.479,0.277c0.642,1.148 0.868,2.315 0.618,2.99c-0.246,0.662 -0.948,0.904 -1.996,0.515c-1.932,-0.716 -3.129,-2.227 -2.715,-3.344c0.236,-0.634 0.852,-0.986 1.999,-1.157l0.056,-0.152l-1.042,-1.421c-0.777,0.449 -1.418,1.121 -1.761,2.045c-0.874,2.358 0.515,5.335 3.123,6.301c1.503,0.558 2.779,-0.223 3.27,-1.546Z" style="fill:#eee;fill-rule:nonzero;"/><path d="M820.236,529.929l-0.807,-0.475l-0.589,1.942l-1.474,-0.815l-0.298,0.985l1.231,1.617l-0.43,1.421l0.807,0.475l0.388,-1.28l4.112,2.413c0.86,0.506 1.772,0.536 2.058,-0.407c0.345,-1.14 -0.385,-2.835 -1.465,-3.838l-0.419,0.318c0.541,0.702 0.953,1.625 0.847,1.977c-0.056,0.183 -0.236,0.221 -0.587,0.007l-3.971,-2.37l0.597,-1.97Z" style="fill:#eee;fill-rule:nonzero;"/><path d="M825.317,526.17c-0.827,-0.21 -1.539,0.139 -2.813,1.211c-0.562,0.48 -1.028,0.878 -1.47,0.766c-0.385,-0.098 -0.408,-0.484 -0.336,-0.769c0.149,-0.586 0.922,-1.299 1.52,-1.738l0.043,-0.171l-1.29,-1.072c-0.254,0.224 -0.759,0.9 -1.041,2.01c-0.395,1.556 0.225,3.108 1.423,3.413c0.827,0.21 1.517,-0.176 2.723,-1.219c0.699,-0.597 1.16,-0.86 1.574,-0.755c0.499,0.127 0.625,0.585 0.52,0.999c-0.163,0.642 -1.115,1.461 -1.727,1.897l-0.04,0.157l1.401,1.175c0.408,-0.412 0.863,-1.131 1.069,-1.942c0.45,-1.769 -0.144,-3.603 -1.556,-3.962Z" style="fill:#eee;fill-rule:nonzero;"/></g><path d="M712.5,367.5c73.129,0 132.5,59.371 132.5,132.5c-0,73.129 -59.371,132.5 -132.5,132.5c-73.129,0 -132.5,-59.371 -132.5,-132.5c-0,-73.129 59.371,-132.5 132.5,-132.5Zm-0,40c-51.052,0 -92.5,41.448 -92.5,92.5c-0,51.052 41.448,92.5 92.5,92.5c51.052,0 92.5,-41.448 92.5,-92.5c-0,-51.052 -41.448,-92.5 -92.5,-92.5Z" style="fill:#eee;"/><path d="M235,381.906l-69.081,-73.144c-7.012,-7.425 -10.919,-17.252 -10.919,-27.465l0,-86.297c0,-22.091 17.909,-40 40,-40l120,0c22.091,0 40,17.909 40,40l0,86.297c0,10.213 -3.907,20.04 -10.919,27.465l-69.081,73.144l0,443.094c-0,11.038 -8.962,20 -20,20c-11.038,-0 -20,-8.962 -20,-20l0,-443.094Zm-30,-186.906c-5.523,-0 -10,4.477 -10,10l-0,72.321c-0,2.554 0.977,5.01 2.73,6.867l50,52.941c1.889,2 4.519,3.133 7.27,3.133c2.751,0 5.381,-1.133 7.27,-3.133l50,-52.941c1.753,-1.857 2.73,-4.313 2.73,-6.867l0,-72.321c0,-2.652 -1.054,-5.196 -2.929,-7.071c-1.875,-1.875 -4.419,-2.929 -7.071,-2.929l-100,-0Z" style="fill:#eee;"/></g></g><defs><radialGradient id="_Radial1" cx="0" cy="0" r="1" gradientUnits="userSpaceOnUse" gradientTransform="matrix(-166,0,0,234,941,959)"><stop offset="0" style="stop-color:#1f83e9;stop-opacity:1"/><stop offset="1" style="stop-color:#196bc0;stop-opacity:1"/></radialGradient><linearGradient id="_Linear2" x1="0" y1="0" x2="1" y2="0" gradientUnits="userSpaceOnUse" gradientTransform="matrix(381.377,0,0,381.377,255,825)"><stop offset="0" style="stop-color:#eee;stop-opacity:0.37"/><stop offset="0.22" style="stop-color:#eee;stop-opacity:0.47"/><stop offset="0.5" style="stop-color:#eee;stop-opacity:0.5"/><stop offset="1" style="stop-color:#eee;stop-opacity:0.37"/></linearGradient></defs></svg>