<?xml version="1.0" encoding="UTF-8" standalone="no"?><!DOCTYPE svg PUBLIC "-//W3C//DTD SVG 1.1//EN" "http://www.w3.org/Graphics/SVG/1.1/DTD/svg11.dtd"><svg width="100%" height="100%" viewBox="0 0 1000 1000" version="1.1" xmlns="http://www.w3.org/2000/svg" xmlns:xlink="http://www.w3.org/1999/xlink" xml:space="preserve" xmlns:serif="http://www.serif.com/" style="fill-rule:evenodd;clip-rule:evenodd;stroke-linejoin:round;stroke-miterlimit:2;"><rect id="Hell" x="0" y="0" width="1000" height="1000" style="fill:none;"/><clipPath id="_clip1"><rect id="Hell1" serif:id="Hell" x="0" y="0" width="1000" height="1000"/></clipPath><g clip-path="url(#_clip1)"><g><path d="M420,601.875c-0,-0 314.501,-0 375,-0c5.523,-0 10,-4.477 10,-10c-0,-48.324 -0,-257.301 -0,-305.625c-0,-2.652 -1.054,-5.196 -2.929,-7.071c-1.875,-1.875 -4.419,-2.929 -7.071,-2.929c-72.556,0 -517.444,0 -590,0c-2.652,-0 -5.196,1.054 -7.071,2.929c-1.875,1.875 -2.929,4.419 -2.929,7.071c0,48.324 0,257.301 0,305.625c0,5.523 4.477,10 10,10c17.068,-0 50,-0 50,-0l0,40l-60,-0c-22.077,-0 -40,-17.923 -40,-40l0,-325.625c0,-22.077 17.923,-40 40,-40l610,0c22.077,0 40,17.923 40,40l-0,325.625c-0,22.077 -17.923,40 -40,40l-275,-0c-2.652,-0 -5.196,1.054 -7.071,2.929c-1.875,1.875 -2.929,4.419 -2.929,7.071c0,15.743 0,46.132 0,61.875c-0,2.652 1.054,5.196 2.929,7.071c1.875,1.875 4.419,2.929 7.071,2.929c32.415,-0 132.5,-0 132.5,-0c11.038,0 20,8.962 20,20c-0,11.038 -8.962,20 -20,20l-325,-0l82.5,-40l50,-0c2.652,-0 5.196,-1.054 7.071,-2.929c1.875,-1.875 2.929,-4.419 2.929,-7.071c0,-15.743 0,-46.132 0,-61.875c0,-2.652 -1.054,-5.196 -2.929,-7.071c-1.875,-1.875 -4.419,-2.929 -7.071,-2.929c-17.068,-0 -50,-0 -50,-0l-0,-40Z" style="fill:url(#_Radial2);"/><g><g><g><path d="M310.506,420.593c-0.984,0 -1.83,-0.363 -2.539,-1.089c-0.79,-0.808 -1.206,-1.895 -1.247,-3.26c-0.035,-1.323 0.298,-2.489 1.001,-3.496c0.82,-1.189 1.963,-1.784 3.427,-1.784c1.171,0 2.059,0.536 2.662,1.608c0.48,0.867 0.712,1.909 0.694,3.128c-0.018,1.3 -0.357,2.41 -1.019,3.33c-0.75,1.042 -1.743,1.563 -2.979,1.563Zm0.528,-7.845c-0.861,-0.006 -1.532,0.404 -2.012,1.23c-0.381,0.662 -0.571,1.417 -0.571,2.266c-0,0.85 0.231,1.512 0.694,1.986c0.386,0.392 0.84,0.589 1.361,0.589c0.61,-0 1.134,-0.223 1.573,-0.668c0.498,-0.492 0.762,-1.157 0.791,-1.994c0.082,-2.267 -0.53,-3.404 -1.836,-3.409Z" style="fill:#eee;fill-rule:nonzero;"/><path d="M324.028,420.62c-0.416,-0 -0.688,-0.223 -0.817,-0.668c-0.135,-0.48 -0.258,-1.163 -0.369,-2.047c-0.106,-0.849 -0.158,-1.546 -0.158,-2.091c-0,-0.152 0.007,-0.384 0.022,-0.694c0.014,-0.311 0.022,-0.542 0.022,-0.694c-0,-1.101 -0.276,-1.652 -0.826,-1.652c-0.744,-0 -1.409,0.337 -1.995,1.01c-0.298,0.346 -0.708,1.005 -1.23,1.977c0,2.232 -0.093,3.553 -0.281,3.963c-0.164,0.363 -0.419,0.544 -0.764,0.544c-0.24,0 -0.451,-0.082 -0.633,-0.246c-0.181,-0.164 -0.272,-0.363 -0.272,-0.597c-0,-0.082 0.026,-0.211 0.079,-0.387c0.047,-0.146 0.079,-0.574 0.097,-1.282l0.026,-1.301l0.026,-6.457c0.041,-0.727 0.062,-1.216 0.062,-1.468c-0,-0.298 -0.028,-0.581 -0.084,-0.847c-0.055,-0.267 -0.083,-0.544 -0.083,-0.831c-0,-0.246 0.085,-0.449 0.255,-0.61c0.17,-0.161 0.377,-0.242 0.623,-0.242c0.481,-0 0.762,0.258 0.844,0.773c0.094,0.568 0.141,1.081 0.141,1.538c-0,0.615 -0.021,1.256 -0.062,1.924c-0.035,0.638 -0.05,1.28 -0.044,1.924l0.009,0.773c0.48,-0.644 0.994,-1.126 1.542,-1.445c0.547,-0.319 1.129,-0.479 1.744,-0.479c0.972,-0 1.64,0.316 2.003,0.949c0.258,0.445 0.404,1.195 0.439,2.249l0.071,1.678l0.175,1.828c0.082,0.685 0.182,1.288 0.299,1.81c0.023,0.099 0.035,0.184 0.035,0.254c0,0.241 -0.088,0.441 -0.263,0.602c-0.176,0.161 -0.387,0.242 -0.633,0.242Z" style="fill:#eee;fill-rule:nonzero;"/><path d="M338.375,413.31c-0.322,-0 -0.547,-0.108 -0.676,-0.325c-0.088,-0.152 -0.164,-0.469 -0.228,-0.949c-0.44,0.111 -1.116,0.316 -2.03,0.615c-0.943,0.375 -1.418,0.838 -1.423,1.388c0.175,0.065 0.348,0.111 0.518,0.141c1.347,0.24 2.349,0.571 3.005,0.993c0.955,0.615 1.432,1.505 1.432,2.67c-0,0.955 -0.413,1.676 -1.239,2.162c-0.685,0.398 -1.552,0.597 -2.601,0.597c-0.767,0 -1.499,-0.129 -2.196,-0.386c-0.902,-0.328 -1.353,-0.785 -1.353,-1.371c-0,-0.234 0.092,-0.439 0.277,-0.615c0.184,-0.176 0.394,-0.264 0.628,-0.264c0.181,0 0.416,0.141 0.703,0.422c0.14,0.135 0.457,0.246 0.949,0.334c0.392,0.07 0.723,0.105 0.992,0.105c0.492,0 0.926,-0.058 1.301,-0.175c0.544,-0.17 0.817,-0.44 0.817,-0.809c-0,-0.796 -0.557,-1.335 -1.669,-1.616l-0.914,-0.202c-0.779,-0.17 -1.333,-0.369 -1.661,-0.598c-0.474,-0.328 -0.711,-0.823 -0.711,-1.485c-0,-1.224 0.577,-2.096 1.73,-2.618c0.352,-0.158 0.914,-0.347 1.687,-0.566c0.773,-0.22 1.327,-0.406 1.661,-0.558c0.24,-0.106 0.501,-0.158 0.782,-0.158c0.252,-0 0.458,0.082 0.619,0.246c0.161,0.164 0.242,0.377 0.242,0.641c-0,0.17 0.036,0.419 0.11,0.747c0.073,0.328 0.109,0.577 0.109,0.747c0,0.263 -0.08,0.477 -0.241,0.641c-0.161,0.164 -0.368,0.246 -0.62,0.246Z" style="fill:#eee;fill-rule:nonzero;"/><path d="M348.558,420.62c-0.416,-0 -0.688,-0.223 -0.817,-0.668c-0.134,-0.48 -0.257,-1.163 -0.369,-2.047c-0.105,-0.849 -0.158,-1.546 -0.158,-2.091c0,-0.152 0.007,-0.384 0.022,-0.694c0.015,-0.311 0.022,-0.542 0.022,-0.694c0,-1.101 -0.275,-1.652 -0.826,-1.652c-0.744,-0 -1.409,0.337 -1.994,1.01c-0.299,0.346 -0.709,1.005 -1.23,1.977c-0,2.232 -0.094,3.553 -0.281,3.963c-0.164,0.363 -0.419,0.544 -0.765,0.544c-0.24,0 -0.451,-0.082 -0.632,-0.246c-0.182,-0.164 -0.273,-0.363 -0.273,-0.597c0,-0.082 0.027,-0.211 0.079,-0.387c0.047,-0.146 0.079,-0.574 0.097,-1.282l0.026,-1.301l0.027,-6.457c0.041,-0.727 0.061,-1.216 0.061,-1.468c0,-0.298 -0.028,-0.581 -0.083,-0.847c-0.056,-0.267 -0.084,-0.544 -0.084,-0.831c0,-0.246 0.085,-0.449 0.255,-0.61c0.17,-0.161 0.378,-0.242 0.624,-0.242c0.48,-0 0.761,0.258 0.843,0.773c0.094,0.568 0.141,1.081 0.141,1.538c-0,0.615 -0.021,1.256 -0.062,1.924c-0.035,0.638 -0.049,1.28 -0.044,1.924l0.009,0.773c0.481,-0.644 0.994,-1.126 1.542,-1.445c0.548,-0.319 1.129,-0.479 1.744,-0.479c0.972,-0 1.64,0.316 2.003,0.949c0.258,0.445 0.405,1.195 0.44,2.249l0.07,1.678l0.176,1.828c0.082,0.685 0.181,1.288 0.298,1.81c0.024,0.099 0.036,0.184 0.036,0.254c-0,0.241 -0.088,0.441 -0.264,0.602c-0.176,0.161 -0.387,0.242 -0.633,0.242Z" style="fill:#eee;fill-rule:nonzero;"/><path d="M353.276,408.952c-0.281,0 -0.524,-0.099 -0.729,-0.299c-0.205,-0.199 -0.307,-0.439 -0.307,-0.72c-0,-0.281 0.102,-0.521 0.307,-0.721c0.205,-0.199 0.448,-0.298 0.729,-0.298c0.282,-0 0.523,0.099 0.725,0.298c0.202,0.2 0.303,0.44 0.303,0.721c0,0.281 -0.101,0.521 -0.303,0.72c-0.202,0.2 -0.443,0.299 -0.725,0.299Zm0.396,7.134c-0,0.352 0.01,0.877 0.031,1.577c0.02,0.7 0.03,1.226 0.03,1.577c0,0.258 -0.079,0.469 -0.237,0.633c-0.158,0.164 -0.366,0.246 -0.624,0.246c-0.252,0 -0.458,-0.082 -0.619,-0.246c-0.161,-0.164 -0.242,-0.375 -0.242,-0.633c0,-0.351 -0.01,-0.877 -0.031,-1.577c-0.02,-0.7 -0.03,-1.225 -0.03,-1.577c-0,-0.55 0.029,-1.237 0.088,-2.06c0.058,-0.823 0.087,-1.51 0.087,-2.06c0,-0.264 0.081,-0.478 0.242,-0.642c0.161,-0.164 0.368,-0.246 0.619,-0.246c0.252,0 0.459,0.082 0.62,0.246c0.161,0.164 0.241,0.378 0.241,0.642c0,0.55 -0.029,1.237 -0.087,2.06c-0.059,0.823 -0.088,1.51 -0.088,2.06Z" style="fill:#eee;fill-rule:nonzero;"/><path d="M362.519,412.589c-0.123,0 -0.268,-0.005 -0.435,-0.017c-0.167,-0.012 -0.312,-0.018 -0.435,-0.018c-0.134,0 -0.533,0.044 -1.194,0.132l0.166,5.193l0.009,0.386l0.009,0.448c0.023,1.283 -0.284,1.924 -0.922,1.924c-0.235,0 -0.438,-0.076 -0.611,-0.228c-0.173,-0.152 -0.259,-0.343 -0.259,-0.571c-0,-0.223 0.008,-0.557 0.026,-1.002c0.018,-0.445 0.026,-0.779 0.026,-1.001l-0.175,-5.131c-0.428,-0.018 -1.078,-0.068 -1.951,-0.15c-0.521,-0.07 -0.782,-0.36 -0.782,-0.869c0,-0.258 0.079,-0.472 0.237,-0.642c0.159,-0.17 0.361,-0.255 0.607,-0.255l1.845,0.15c-0,-0.299 -0.013,-0.699 -0.04,-1.2c-0.026,-0.5 -0.039,-0.862 -0.039,-1.085c-0,-0.246 0.085,-0.449 0.254,-0.61c0.17,-0.161 0.378,-0.242 0.624,-0.242c0.527,0 0.835,0.431 0.923,1.292c0.017,0.216 0.026,0.477 0.026,0.782l-0.017,0.509l-0.009,0.545c0.726,-0.094 1.142,-0.141 1.247,-0.141c0.61,0 1.008,0.03 1.195,0.088c0.358,0.117 0.536,0.393 0.536,0.826c0,0.258 -0.08,0.47 -0.241,0.637c-0.161,0.167 -0.368,0.25 -0.62,0.25Z" style="fill:#eee;fill-rule:nonzero;"/><path d="M366.403,423.097c-0.205,0 -0.384,-0.079 -0.536,-0.237c-0.153,-0.158 -0.229,-0.34 -0.229,-0.545c0,-0.169 0.182,-0.673 0.545,-1.511c0.316,-0.726 0.559,-1.244 0.729,-1.555c0.152,-0.281 0.355,-0.422 0.606,-0.422c0.211,0 0.391,0.081 0.541,0.242c0.149,0.161 0.224,0.344 0.224,0.549c-0,0.141 -0.416,1.142 -1.248,3.005c-0.135,0.316 -0.345,0.474 -0.632,0.474Z" style="fill:#eee;fill-rule:nonzero;"/></g><g><path d="M374.398,746.517c-0,-0.1 -0.015,-0.245 -0.044,-0.435c-0.029,-0.19 -0.044,-0.332 -0.044,-0.426c-0,-0.217 0.079,-0.397 0.237,-0.54c0.158,-0.144 0.349,-0.216 0.571,-0.216c0.563,0 0.844,0.501 0.844,1.503c-0,0.386 -0.009,0.966 -0.027,1.739c-0.017,0.773 -0.026,1.353 -0.026,1.74c-0,0.228 -0.073,0.416 -0.22,0.562c-0.146,0.147 -0.334,0.22 -0.562,0.22c-0.228,-0 -0.416,-0.073 -0.562,-0.22c-0.147,-0.146 -0.22,-0.334 -0.22,-0.562c0,-0.375 0.009,-0.936 0.026,-1.683c0.018,-0.746 0.027,-1.307 0.027,-1.682Zm-3.453,3.33c-0,-0.094 0.009,-0.226 0.026,-0.396c0.018,-0.169 0.027,-0.292 0.027,-0.369l0.079,-3.426c0.011,-0.527 0.272,-0.791 0.782,-0.791c0.222,0 0.41,0.073 0.562,0.22c0.152,0.146 0.225,0.331 0.22,0.553l-0.079,3.488c-0.012,0.463 -0.05,0.788 -0.115,0.976c-0.123,0.351 -0.363,0.527 -0.72,0.527c-0.229,-0 -0.416,-0.075 -0.562,-0.224c-0.147,-0.15 -0.22,-0.336 -0.22,-0.558Z" style="fill:#eee;fill-rule:nonzero;"/><path d="M357.608,744.575c0.457,-1.909 1.054,-4.068 1.792,-6.475c0.164,-0.533 0.437,-1.081 0.817,-1.643c0.205,-0.31 0.484,-0.463 0.835,-0.457c0.638,0.012 1.136,0.806 1.494,2.381c0.117,0.504 0.237,1.189 0.36,2.056l0.29,1.959l0.72,-1.678l1.336,-3.628c0.076,-0.223 0.187,-0.393 0.334,-0.51c0.175,-0.34 0.456,-0.515 0.843,-0.527c0.445,-0.018 0.876,0.855 1.291,2.618c0.211,0.908 0.422,2.138 0.633,3.69l0.211,1.318c0.076,0.527 0.114,0.969 0.114,1.327c0,0.246 -0.086,0.449 -0.259,0.61c-0.173,0.161 -0.382,0.242 -0.628,0.242c-0.445,-0 -0.721,-0.243 -0.826,-0.729c-0.076,-0.346 -0.138,-0.773 -0.185,-1.283l-0.131,-1.292l-0.519,-3.944c-0.65,1.804 -1.324,3.883 -2.021,6.238c-0.193,0.65 -0.53,0.975 -1.01,0.975c-0.463,-0 -0.776,-0.363 -0.94,-1.09c-0.152,-0.685 -0.343,-1.739 -0.571,-3.163c-0.234,-1.476 -0.442,-2.627 -0.624,-3.452l-0.641,2.389l-1.134,4.789c-0.088,0.357 -0.339,0.536 -0.755,0.536c-0.246,-0 -0.46,-0.084 -0.642,-0.251c-0.181,-0.167 -0.272,-0.367 -0.272,-0.602c0,-0.029 0.029,-0.164 0.088,-0.404Z" style="fill:#eee;fill-rule:nonzero;"/><path d="M351.713,736.308c1.323,-0 2.395,0.331 3.215,0.992c0.896,0.733 1.344,1.758 1.344,3.076c0,1.522 -0.369,2.799 -1.107,3.83c-0.802,1.125 -1.874,1.687 -3.215,1.687c-0.973,0 -1.766,-0.164 -2.381,-0.492c-0.756,-0.404 -1.134,-1.025 -1.134,-1.863c0,-0.585 0.331,-1.118 0.993,-1.599c0.293,-0.21 0.914,-0.538 1.863,-0.984l3.356,-1.59c-0.328,-0.486 -0.737,-0.852 -1.226,-1.098c-0.489,-0.246 -1.058,-0.369 -1.708,-0.369c-0.405,-0 -0.879,0.076 -1.424,0.228c-0.691,0.194 -1.136,0.447 -1.335,0.76c-0.199,0.314 -0.413,0.47 -0.642,0.47c-0.205,0 -0.388,-0.077 -0.549,-0.232c-0.161,-0.156 -0.241,-0.336 -0.241,-0.541c-0,-0.65 0.524,-1.209 1.572,-1.678c0.896,-0.398 1.769,-0.597 2.619,-0.597Zm0.237,8.004c0.714,-0 1.309,-0.277 1.783,-0.831c0.475,-0.553 0.829,-1.386 1.063,-2.499l-2.697,1.283c-1.06,0.515 -1.816,0.963 -2.267,1.344c0.504,0.468 1.21,0.703 2.118,0.703Z" style="fill:#eee;fill-rule:nonzero;"/><path d="M341.855,736.343c0.896,-0 1.71,0.176 2.442,0.527c0.188,-0.281 0.416,-0.422 0.685,-0.422c0.223,0 0.412,0.078 0.567,0.233c0.155,0.155 0.233,0.35 0.233,0.584c0,0.153 -0.007,0.378 -0.022,0.677c-0.015,0.299 -0.022,0.524 -0.022,0.676c0,0.621 0.016,1.551 0.048,2.79c0.033,1.239 0.049,2.169 0.049,2.789c-0,0.428 -0.003,1.238 -0.009,2.43c-0.006,1.192 -0.009,2.004 -0.009,2.438c0,0.351 -0.073,0.668 -0.22,0.949c-0.193,0.357 -0.459,0.536 -0.799,0.536c-0.439,-0 -0.659,-0.255 -0.659,-0.765c0,-0.082 0.015,-0.202 0.044,-0.36c0.029,-0.158 0.044,-0.278 0.044,-0.36l0.026,-1.924l0.018,-2.241c-0.51,0.346 -0.994,0.605 -1.454,0.778c-0.46,0.173 -0.892,0.259 -1.296,0.259c-1.259,0 -2.282,-0.483 -3.066,-1.45c-0.738,-0.907 -1.107,-2.023 -1.107,-3.347c-0,-1.336 0.43,-2.469 1.291,-3.4c0.861,-0.932 1.933,-1.397 3.216,-1.397Zm-0.334,7.934c0.48,-0 0.972,-0.135 1.476,-0.405c0.246,-0.134 0.668,-0.424 1.265,-0.869l0.018,-1.52l-0.009,-1.371l-0.009,-1.441c-0.281,-0.129 -0.676,-0.293 -1.186,-0.492c-0.363,-0.111 -0.77,-0.167 -1.221,-0.167c-0.85,0 -1.547,0.299 -2.091,0.896c-0.545,0.598 -0.817,1.342 -0.817,2.232c-0,0.873 0.219,1.602 0.658,2.188c0.475,0.632 1.113,0.949 1.916,0.949Z" style="fill:#eee;fill-rule:nonzero;"/><path d="M329.352,743.477c0.322,-0 0.548,0.108 0.677,0.325c0.088,0.152 0.164,0.469 0.228,0.949c0.44,-0.111 1.116,-0.316 2.03,-0.615c0.943,-0.375 1.417,-0.838 1.423,-1.388c-0.176,-0.065 -0.348,-0.112 -0.518,-0.141c-1.347,-0.24 -2.349,-0.571 -3.005,-0.993c-0.955,-0.615 -1.432,-1.505 -1.432,-2.671c-0,-0.954 0.413,-1.675 1.239,-2.161c0.685,-0.398 1.552,-0.597 2.6,-0.597c0.768,-0 1.5,0.129 2.197,0.386c0.902,0.328 1.353,0.785 1.353,1.371c-0,0.234 -0.092,0.439 -0.277,0.615c-0.184,0.176 -0.394,0.263 -0.628,0.263c-0.182,0 -0.416,-0.14 -0.703,-0.421c-0.141,-0.135 -0.457,-0.246 -0.949,-0.334c-0.392,-0.07 -0.723,-0.106 -0.993,-0.106c-0.492,0 -0.925,0.059 -1.3,0.176c-0.545,0.17 -0.817,0.439 -0.817,0.808c-0,0.797 0.556,1.336 1.669,1.617l0.914,0.202c0.779,0.17 1.332,0.369 1.661,0.598c0.474,0.328 0.711,0.823 0.711,1.484c0,1.225 -0.577,2.097 -1.731,2.619c-0.351,0.158 -0.913,0.347 -1.687,0.566c-0.773,0.22 -1.326,0.406 -1.66,0.558c-0.24,0.106 -0.501,0.158 -0.782,0.158c-0.252,0 -0.458,-0.082 -0.619,-0.246c-0.162,-0.164 -0.242,-0.377 -0.242,-0.641c-0,-0.17 -0.037,-0.419 -0.11,-0.747c-0.073,-0.328 -0.11,-0.577 -0.11,-0.747c0,-0.263 0.081,-0.477 0.242,-0.641c0.161,-0.164 0.367,-0.246 0.619,-0.246Z" style="fill:#eee;fill-rule:nonzero;"/><path d="M324.845,747.835c0.281,-0 0.524,0.099 0.729,0.299c0.205,0.199 0.308,0.439 0.308,0.72c-0,0.281 -0.103,0.521 -0.308,0.72c-0.205,0.2 -0.448,0.299 -0.729,0.299c-0.281,0 -0.523,-0.099 -0.725,-0.299c-0.202,-0.199 -0.303,-0.439 -0.303,-0.72c0,-0.281 0.101,-0.521 0.303,-0.72c0.202,-0.2 0.444,-0.299 0.725,-0.299Zm-0.395,-7.134c-0,-0.352 -0.011,-0.877 -0.031,-1.577c-0.021,-0.7 -0.031,-1.226 -0.031,-1.578c0,-0.257 0.079,-0.468 0.237,-0.632c0.159,-0.164 0.367,-0.246 0.624,-0.246c0.252,-0 0.459,0.082 0.62,0.246c0.161,0.164 0.241,0.375 0.241,0.632c0,0.352 0.011,0.878 0.031,1.578c0.021,0.7 0.031,1.225 0.031,1.577c-0,0.55 -0.03,1.237 -0.088,2.06c-0.059,0.823 -0.088,1.51 -0.088,2.06c0,0.264 -0.08,0.478 -0.242,0.642c-0.161,0.164 -0.367,0.246 -0.619,0.246c-0.252,-0 -0.458,-0.082 -0.619,-0.246c-0.161,-0.164 -0.242,-0.378 -0.242,-0.642c0,-0.55 0.029,-1.237 0.088,-2.06c0.058,-0.823 0.088,-1.51 0.088,-2.06Z" style="fill:#eee;fill-rule:nonzero;"/><path d="M315.602,744.197c0.123,0 0.268,0.006 0.435,0.018c0.167,0.012 0.312,0.018 0.435,0.018c0.135,-0 0.533,-0.044 1.195,-0.132l-0.167,-5.193l-0.009,-0.386l-0.009,-0.448c-0.023,-1.283 0.285,-1.924 0.923,-1.924c0.234,-0 0.438,0.076 0.611,0.228c0.172,0.152 0.259,0.343 0.259,0.571c-0,0.223 -0.009,0.556 -0.027,1.002c-0.017,0.445 -0.026,0.779 -0.026,1.001l0.176,5.131c0.427,0.018 1.078,0.068 1.95,0.15c0.522,0.07 0.782,0.36 0.782,0.869c0,0.258 -0.079,0.472 -0.237,0.642c-0.158,0.17 -0.36,0.255 -0.606,0.255l-1.845,-0.15c-0,0.299 0.013,0.699 0.039,1.199c0.027,0.501 0.04,0.863 0.04,1.086c-0,0.246 -0.085,0.449 -0.255,0.61c-0.17,0.161 -0.378,0.242 -0.624,0.242c-0.527,-0 -0.834,-0.431 -0.922,-1.292c-0.018,-0.216 -0.027,-0.477 -0.027,-0.782l0.018,-0.509l0.009,-0.545c-0.727,0.094 -1.142,0.141 -1.248,0.141c-0.609,-0 -1.007,-0.03 -1.195,-0.088c-0.357,-0.117 -0.536,-0.393 -0.536,-0.826c0,-0.258 0.081,-0.47 0.242,-0.637c0.161,-0.167 0.367,-0.251 0.619,-0.251Z" style="fill:#eee;fill-rule:nonzero;"/><path d="M308.899,736.308c1.323,-0 2.395,0.331 3.215,0.992c0.896,0.733 1.345,1.758 1.345,3.076c-0,1.522 -0.369,2.799 -1.108,3.83c-0.802,1.125 -1.874,1.687 -3.215,1.687c-0.972,0 -1.766,-0.164 -2.381,-0.492c-0.756,-0.404 -1.134,-1.025 -1.134,-1.863c0,-0.585 0.331,-1.118 0.993,-1.599c0.293,-0.21 0.914,-0.538 1.863,-0.984l3.356,-1.59c-0.328,-0.486 -0.736,-0.852 -1.226,-1.098c-0.489,-0.246 -1.058,-0.369 -1.708,-0.369c-0.405,-0 -0.879,0.076 -1.424,0.228c-0.691,0.194 -1.136,0.447 -1.335,0.76c-0.199,0.314 -0.413,0.47 -0.642,0.47c-0.205,0 -0.388,-0.077 -0.549,-0.232c-0.161,-0.156 -0.241,-0.336 -0.241,-0.541c-0,-0.65 0.524,-1.209 1.572,-1.678c0.897,-0.398 1.769,-0.597 2.619,-0.597Zm0.237,8.004c0.714,-0 1.309,-0.277 1.783,-0.831c0.475,-0.553 0.829,-1.386 1.063,-2.499l-2.697,1.283c-1.06,0.515 -1.816,0.963 -2.267,1.344c0.504,0.468 1.21,0.703 2.118,0.703Z" style="fill:#eee;fill-rule:nonzero;"/><path d="M301.782,746.517c0,-0.1 -0.015,-0.245 -0.044,-0.435c-0.029,-0.19 -0.044,-0.332 -0.044,-0.426c0,-0.217 0.079,-0.397 0.237,-0.54c0.159,-0.144 0.349,-0.216 0.571,-0.216c0.563,0 0.844,0.501 0.844,1.503c-0,0.386 -0.009,0.966 -0.026,1.739c-0.018,0.773 -0.027,1.353 -0.027,1.74c0,0.228 -0.073,0.416 -0.219,0.562c-0.147,0.147 -0.334,0.22 -0.563,0.22c-0.228,-0 -0.416,-0.073 -0.562,-0.22c-0.146,-0.146 -0.22,-0.334 -0.22,-0.562c0,-0.375 0.009,-0.936 0.027,-1.683c0.017,-0.746 0.026,-1.307 0.026,-1.682Zm-3.453,3.33c0,-0.094 0.009,-0.226 0.026,-0.396c0.018,-0.169 0.027,-0.292 0.027,-0.369l0.079,-3.426c0.012,-0.527 0.272,-0.791 0.782,-0.791c0.222,0 0.41,0.073 0.562,0.22c0.152,0.146 0.226,0.331 0.22,0.553l-0.079,3.488c-0.012,0.463 -0.05,0.788 -0.114,0.976c-0.123,0.351 -0.364,0.527 -0.721,0.527c-0.228,-0 -0.416,-0.075 -0.562,-0.224c-0.147,-0.15 -0.22,-0.336 -0.22,-0.558Z" style="fill:#eee;fill-rule:nonzero;"/></g><g><path d="M424.014,453.011c-0.861,-0.07 -1.722,-0.105 -2.583,-0.105c-1.95,-0 -3.423,0.091 -4.419,0.272c-0.082,0.012 -0.149,0.018 -0.202,0.018c-0.234,-0 -0.428,-0.082 -0.58,-0.246c-0.152,-0.164 -0.228,-0.355 -0.228,-0.571c-0,-0.363 0.263,-0.63 0.79,-0.8c-0.31,-0.422 -0.544,-0.859 -0.702,-1.313c-0.159,-0.454 -0.238,-0.927 -0.238,-1.419c0,-1.213 0.404,-2.217 1.213,-3.014c0.826,-0.82 1.886,-1.23 3.18,-1.23c1.564,0 2.818,0.415 3.761,1.243c0.943,0.829 1.414,1.905 1.414,3.229c0,0.68 -0.105,1.204 -0.316,1.573l-0.606,0.826c2.466,0.082 4.126,0.178 4.981,0.29c0.522,0.076 0.782,0.342 0.782,0.799c0,0.533 -0.284,0.8 -0.852,0.8c-0.814,-0 -2.612,-0.117 -5.395,-0.352Zm-0.228,-3.901c-0,-0.984 -0.291,-1.722 -0.874,-2.214c-0.583,-0.492 -1.46,-0.738 -2.632,-0.738c-0.755,0 -1.405,0.268 -1.95,0.804c-0.545,0.536 -0.817,1.164 -0.817,1.885c-0,0.492 0.091,0.908 0.272,1.247c0.106,0.199 0.349,0.525 0.729,0.976c0.077,0.087 0.167,0.172 0.273,0.254l1.52,-0.026l1.019,0.009l1.037,0.017c0.474,-0.222 0.83,-0.518 1.067,-0.887c0.237,-0.369 0.356,-0.811 0.356,-1.327Z" style="fill:#eee;fill-rule:nonzero;"/><path d="M415.738,458.784c0,-0.984 0.363,-1.831 1.09,-2.54c0.808,-0.79 1.894,-1.206 3.259,-1.247c1.324,-0.035 2.489,0.299 3.497,1.001c1.189,0.821 1.783,1.963 1.783,3.427c0,1.171 -0.535,2.059 -1.607,2.662c-0.867,0.48 -1.91,0.712 -3.128,0.694c-1.3,-0.017 -2.41,-0.357 -3.33,-1.019c-1.043,-0.75 -1.564,-1.742 -1.564,-2.978Zm7.846,0.527c0.006,-0.861 -0.404,-1.532 -1.23,-2.012c-0.662,-0.381 -1.418,-0.571 -2.267,-0.571c-0.849,-0 -1.511,0.231 -1.986,0.694c-0.392,0.386 -0.588,0.84 -0.588,1.362c-0,0.609 0.222,1.133 0.668,1.572c0.492,0.498 1.156,0.762 1.994,0.791c2.267,0.082 3.403,-0.53 3.409,-1.836Z" style="fill:#eee;fill-rule:nonzero;"/><path d="M415.633,471.69c-0,-0.504 0.275,-0.788 0.826,-0.852l1.924,-0.246c0.685,-0.082 1.326,-0.123 1.924,-0.123c0.164,-0 0.442,0.01 0.834,0.031c0.393,0.02 0.671,0.03 0.835,0.03c1.265,0 1.898,-0.234 1.898,-0.702c-0,-0.656 -0.39,-1.283 -1.169,-1.881c-0.708,-0.539 -1.605,-0.96 -2.688,-1.265c-0.229,-0.012 -0.516,-0.038 -0.861,-0.079c-0.293,-0.035 -0.577,-0.053 -0.852,-0.053c-0.176,0 -0.44,0.018 -0.791,0.053c-0.352,0.035 -0.615,0.053 -0.791,0.053c-0.263,-0 -0.477,-0.081 -0.641,-0.242c-0.164,-0.161 -0.246,-0.367 -0.246,-0.619c-0,-0.258 0.082,-0.466 0.246,-0.624c0.164,-0.158 0.378,-0.237 0.641,-0.237c0.176,-0 0.439,-0.019 0.791,-0.057c0.351,-0.038 0.615,-0.057 0.791,-0.057c0.603,-0 1.439,0.042 2.508,0.127c1.069,0.085 1.905,0.127 2.508,0.127c0.188,0 0.466,-0.01 0.835,-0.03c0.369,-0.021 0.647,-0.031 0.835,-0.031c0.252,-0 0.458,0.083 0.619,0.25c0.161,0.167 0.242,0.374 0.242,0.62c-0,0.539 -0.381,0.834 -1.142,0.887l-1.028,0.026c1.312,0.984 1.968,1.995 1.968,3.032c-0,0.937 -0.413,1.59 -1.239,1.959c-0.551,0.252 -1.365,0.389 -2.443,0.413l-0.887,-0l-0.817,-0.009c-0.486,-0 -1.115,0.063 -1.885,0.189c-0.77,0.126 -1.395,0.189 -1.876,0.189c-0.257,-0 -0.467,-0.084 -0.628,-0.251c-0.161,-0.167 -0.241,-0.376 -0.241,-0.628Z" style="fill:#eee;fill-rule:nonzero;"/><path d="M428.961,477.208c-0.176,-0 -0.436,0.014 -0.782,0.044c-0.346,0.029 -0.606,0.044 -0.782,0.044c-0.75,-0 -1.125,-0.264 -1.125,-0.791c0,-0.363 0.129,-0.595 0.387,-0.694c0.135,-0.047 0.413,-0.071 0.835,-0.071c0.164,0 0.408,-0.016 0.733,-0.048c0.325,-0.032 0.57,-0.048 0.734,-0.048c0.586,-0 0.981,0.023 1.186,0.07c0.463,0.117 0.694,0.375 0.694,0.773c0,0.223 -0.072,0.41 -0.215,0.563c-0.144,0.152 -0.327,0.228 -0.549,0.228c-0.123,0 -0.309,-0.012 -0.558,-0.035c-0.249,-0.024 -0.435,-0.035 -0.558,-0.035Z" style="fill:#eee;fill-rule:nonzero;"/><path d="M423.742,487.233c0,-0.123 0.006,-0.268 0.018,-0.435c0.011,-0.167 0.017,-0.312 0.017,-0.435c0,-0.135 -0.044,-0.533 -0.132,-1.195l-5.192,0.167l-0.387,0.009l-0.448,0.008c-1.282,0.024 -1.924,-0.284 -1.924,-0.922c0,-0.235 0.076,-0.438 0.229,-0.611c0.152,-0.173 0.342,-0.259 0.571,-0.259c0.222,-0 0.556,0.009 1.001,0.026c0.445,0.018 0.779,0.027 1.002,0.027l5.131,-0.176c0.017,-0.428 0.067,-1.078 0.149,-1.951c0.07,-0.521 0.36,-0.781 0.87,-0.781c0.258,-0 0.472,0.079 0.641,0.237c0.17,0.158 0.255,0.36 0.255,0.606l-0.149,1.845c0.299,0 0.698,-0.013 1.199,-0.039c0.501,-0.027 0.863,-0.04 1.085,-0.04c0.246,-0 0.45,0.085 0.611,0.255c0.161,0.17 0.241,0.378 0.241,0.624c0,0.527 -0.43,0.834 -1.291,0.922c-0.217,0.018 -0.478,0.026 -0.782,0.026l-0.51,-0.017l-0.544,-0.009c0.093,0.726 0.14,1.142 0.14,1.248c0,0.609 -0.029,1.007 -0.088,1.195c-0.117,0.357 -0.392,0.536 -0.826,0.536c-0.257,-0 -0.47,-0.081 -0.637,-0.242c-0.166,-0.161 -0.25,-0.368 -0.25,-0.619Z" style="fill:#eee;fill-rule:nonzero;"/><path d="M423.742,501.088c0,-0.123 0.006,-0.268 0.018,-0.435c0.011,-0.167 0.017,-0.312 0.017,-0.435c0,-0.135 -0.044,-0.533 -0.132,-1.195l-5.192,0.167l-0.387,0.009l-0.448,0.009c-1.282,0.023 -1.924,-0.284 -1.924,-0.923c0,-0.234 0.076,-0.438 0.229,-0.61c0.152,-0.173 0.342,-0.26 0.571,-0.26c0.222,0 0.556,0.009 1.001,0.027c0.445,0.017 0.779,0.026 1.002,0.026l5.131,-0.176c0.017,-0.427 0.067,-1.077 0.149,-1.95c0.07,-0.521 0.36,-0.782 0.87,-0.782c0.258,-0 0.472,0.079 0.641,0.237c0.17,0.158 0.255,0.36 0.255,0.606l-0.149,1.845c0.299,0 0.698,-0.013 1.199,-0.039c0.501,-0.026 0.863,-0.04 1.085,-0.04c0.246,0 0.45,0.085 0.611,0.255c0.161,0.17 0.241,0.378 0.241,0.624c0,0.527 -0.43,0.835 -1.291,0.923c-0.217,0.017 -0.478,0.026 -0.782,0.026l-0.51,-0.018l-0.544,-0.008c0.093,0.726 0.14,1.142 0.14,1.247c0,0.609 -0.029,1.008 -0.088,1.195c-0.117,0.357 -0.392,0.536 -0.826,0.536c-0.257,-0 -0.47,-0.081 -0.637,-0.242c-0.166,-0.161 -0.25,-0.367 -0.25,-0.619Z" style="fill:#eee;fill-rule:nonzero;"/><path d="M424.12,514.205c-1.91,-0.457 -4.068,-1.054 -6.475,-1.792c-0.533,-0.164 -1.081,-0.436 -1.643,-0.817c-0.311,-0.205 -0.463,-0.483 -0.457,-0.835c0.011,-0.638 0.805,-1.136 2.381,-1.493c0.503,-0.118 1.189,-0.238 2.056,-0.361l1.959,-0.29l-1.678,-0.72l-3.629,-1.335c-0.222,-0.077 -0.392,-0.188 -0.509,-0.334c-0.34,-0.176 -0.516,-0.457 -0.528,-0.844c-0.017,-0.445 0.856,-0.875 2.619,-1.291c0.908,-0.211 2.138,-0.422 3.69,-0.633l1.318,-0.211c0.527,-0.076 0.969,-0.114 1.326,-0.114c0.246,0 0.45,0.086 0.611,0.259c0.161,0.173 0.242,0.382 0.242,0.628c-0,0.446 -0.243,0.721 -0.73,0.826c-0.345,0.076 -0.773,0.138 -1.282,0.185l-1.292,0.132l-3.945,0.518c1.804,0.65 3.884,1.324 6.238,2.021c0.65,0.193 0.975,0.53 0.975,1.01c0,0.463 -0.363,0.776 -1.089,0.94c-0.685,0.153 -1.74,0.343 -3.163,0.571c-1.476,0.235 -2.627,0.443 -3.453,0.624l2.39,0.641l4.788,1.134c0.358,0.088 0.536,0.34 0.536,0.755c0,0.246 -0.083,0.46 -0.25,0.642c-0.167,0.181 -0.368,0.272 -0.602,0.272c-0.029,0 -0.164,-0.029 -0.404,-0.088Z" style="fill:#eee;fill-rule:nonzero;"/><path d="M415.738,519.292c0,-0.984 0.363,-1.83 1.09,-2.539c0.808,-0.79 1.894,-1.206 3.259,-1.247c1.324,-0.035 2.489,0.298 3.497,1.001c1.189,0.82 1.783,1.962 1.783,3.427c0,1.171 -0.535,2.059 -1.607,2.662c-0.867,0.48 -1.91,0.712 -3.128,0.694c-1.3,-0.018 -2.41,-0.357 -3.33,-1.019c-1.043,-0.75 -1.564,-1.743 -1.564,-2.979Zm7.846,0.528c0.006,-0.861 -0.404,-1.532 -1.23,-2.012c-0.662,-0.381 -1.418,-0.572 -2.267,-0.572c-0.849,0 -1.511,0.232 -1.986,0.695c-0.392,0.386 -0.588,0.84 -0.588,1.361c-0,0.61 0.222,1.134 0.668,1.573c0.492,0.498 1.156,0.762 1.994,0.791c2.267,0.082 3.403,-0.53 3.409,-1.836Z" style="fill:#eee;fill-rule:nonzero;"/><path d="M423.022,536.768c-0,-0.323 0.108,-0.548 0.325,-0.677c0.152,-0.088 0.468,-0.164 0.949,-0.228c-0.112,-0.44 -0.317,-1.116 -0.615,-2.03c-0.375,-0.943 -0.838,-1.417 -1.389,-1.423c-0.064,0.176 -0.111,0.348 -0.14,0.518c-0.24,1.347 -0.571,2.349 -0.993,3.005c-0.615,0.955 -1.505,1.432 -2.671,1.432c-0.955,0 -1.675,-0.413 -2.161,-1.239c-0.399,-0.685 -0.598,-1.552 -0.598,-2.6c0,-0.768 0.129,-1.5 0.387,-2.197c0.328,-0.902 0.785,-1.353 1.37,-1.353c0.235,0 0.44,0.092 0.615,0.277c0.176,0.184 0.264,0.394 0.264,0.628c0,0.182 -0.141,0.416 -0.422,0.703c-0.134,0.141 -0.246,0.457 -0.334,0.949c-0.07,0.392 -0.105,0.723 -0.105,0.993c0,0.492 0.059,0.925 0.176,1.3c0.17,0.545 0.439,0.817 0.808,0.817c0.797,0 1.336,-0.556 1.617,-1.669l0.202,-0.914c0.17,-0.779 0.369,-1.333 0.597,-1.661c0.328,-0.474 0.823,-0.711 1.485,-0.711c1.224,-0 2.097,0.577 2.618,1.731c0.158,0.351 0.347,0.913 0.567,1.686c0.22,0.774 0.406,1.327 0.558,1.661c0.105,0.24 0.158,0.501 0.158,0.782c-0,0.252 -0.082,0.458 -0.246,0.619c-0.164,0.161 -0.378,0.242 -0.641,0.242c-0.17,0 -0.419,0.037 -0.747,0.11c-0.328,0.073 -0.577,0.11 -0.747,0.11c-0.264,-0 -0.477,-0.081 -0.641,-0.242c-0.164,-0.161 -0.246,-0.367 -0.246,-0.619Z" style="fill:#eee;fill-rule:nonzero;"/><path d="M415.703,543.568c-0,-1.201 0.363,-2.202 1.089,-3.005c0.762,-0.843 1.766,-1.265 3.014,-1.265c1.189,-0 2.416,0.395 3.681,1.186c1.406,0.879 2.109,1.869 2.109,2.97c-0,0.574 -0.135,1.215 -0.404,1.924c-0.346,0.896 -0.768,1.344 -1.265,1.344c-0.223,0 -0.421,-0.073 -0.593,-0.22c-0.173,-0.146 -0.26,-0.328 -0.26,-0.544c0,-0.17 0.052,-0.318 0.154,-0.444c0.103,-0.126 0.204,-0.247 0.303,-0.365c0.275,-0.345 0.413,-0.91 0.413,-1.695c0,-0.598 -0.533,-1.189 -1.599,-1.775c-0.978,-0.533 -1.824,-0.8 -2.539,-0.8c-0.773,0 -1.382,0.264 -1.828,0.791c-0.415,0.492 -0.623,1.125 -0.623,1.898c-0,0.351 0.093,0.726 0.281,1.125l0.545,1.019c0.093,0.175 0.14,0.301 0.14,0.378c0,0.216 -0.086,0.404 -0.259,0.562c-0.173,0.158 -0.371,0.237 -0.593,0.237c-0.428,0 -0.841,-0.451 -1.239,-1.353c-0.351,-0.791 -0.527,-1.447 -0.527,-1.968Z" style="fill:#eee;fill-rule:nonzero;"/><path d="M422.749,555.675c-0.732,-0.041 -1.098,-0.334 -1.098,-0.879c0,-0.503 0.29,-0.755 0.87,-0.755c0.111,-0 0.316,-0.009 0.615,-0.027l0.738,-0.026c-0.111,-0.925 -0.372,-1.666 -0.782,-2.223c-0.381,-0.521 -0.955,-0.955 -1.722,-1.3l-4.815,0.017c-0.591,0 -0.887,-0.289 -0.887,-0.869c-0,-0.516 0.296,-0.773 0.887,-0.773l6.168,-0c0.193,-0 0.483,0.007 0.87,0.021c0.386,0.015 0.676,0.022 0.87,0.022c0.591,0 0.887,0.258 0.887,0.774c-0,0.574 -0.486,0.864 -1.459,0.869c1.084,1.125 1.626,2.373 1.626,3.743c-0,0.475 -0.179,0.829 -0.536,1.063c-0.357,0.235 -0.896,0.352 -1.617,0.352c-0.304,-0 -0.509,-0.003 -0.615,-0.009Z" style="fill:#eee;fill-rule:nonzero;"/><path d="M415.852,561.588c0,-1.324 0.331,-2.396 0.993,-3.216c0.732,-0.896 1.757,-1.344 3.075,-1.344c1.523,0 2.8,0.369 3.831,1.107c1.124,0.802 1.687,1.874 1.687,3.216c-0,0.972 -0.164,1.766 -0.492,2.381c-0.404,0.755 -1.025,1.133 -1.863,1.133c-0.586,0 -1.119,-0.331 -1.599,-0.993c-0.211,-0.293 -0.539,-0.913 -0.984,-1.862l-1.59,-3.357c-0.486,0.328 -0.852,0.737 -1.098,1.226c-0.246,0.489 -0.369,1.059 -0.369,1.709c-0,0.404 0.076,0.879 0.228,1.423c0.193,0.691 0.447,1.137 0.76,1.336c0.313,0.199 0.47,0.413 0.47,0.641c0,0.205 -0.078,0.388 -0.233,0.549c-0.155,0.161 -0.335,0.242 -0.54,0.242c-0.65,-0 -1.21,-0.524 -1.678,-1.573c-0.399,-0.896 -0.598,-1.769 -0.598,-2.618Zm8.004,-0.237c0,-0.715 -0.276,-1.309 -0.83,-1.784c-0.554,-0.474 -1.387,-0.829 -2.5,-1.063l1.283,2.697c0.516,1.061 0.964,1.816 1.344,2.267c0.469,-0.504 0.703,-1.209 0.703,-2.117Z" style="fill:#eee;fill-rule:nonzero;"/><path d="M415.852,571.446c0,-1.324 0.331,-2.396 0.993,-3.216c0.732,-0.896 1.757,-1.344 3.075,-1.344c1.523,-0 2.8,0.369 3.831,1.107c1.124,0.802 1.687,1.874 1.687,3.216c-0,0.972 -0.164,1.765 -0.492,2.381c-0.404,0.755 -1.025,1.133 -1.863,1.133c-0.586,-0 -1.119,-0.331 -1.599,-0.993c-0.211,-0.293 -0.539,-0.914 -0.984,-1.863l-1.59,-3.356c-0.486,0.328 -0.852,0.737 -1.098,1.226c-0.246,0.489 -0.369,1.059 -0.369,1.709c-0,0.404 0.076,0.878 0.228,1.423c0.193,0.691 0.447,1.136 0.76,1.336c0.313,0.199 0.47,0.412 0.47,0.641c0,0.205 -0.078,0.388 -0.233,0.549c-0.155,0.161 -0.335,0.242 -0.54,0.242c-0.65,-0 -1.21,-0.525 -1.678,-1.573c-0.399,-0.896 -0.598,-1.769 -0.598,-2.618Zm8.004,-0.237c0,-0.715 -0.276,-1.31 -0.83,-1.784c-0.554,-0.474 -1.387,-0.829 -2.5,-1.063l1.283,2.697c0.516,1.06 0.964,1.816 1.344,2.267c0.469,-0.504 0.703,-1.21 0.703,-2.117Z" style="fill:#eee;fill-rule:nonzero;"/><path d="M415.633,583.939c-0,-0.503 0.275,-0.787 0.826,-0.852l1.924,-0.246c0.685,-0.082 1.326,-0.123 1.924,-0.123c0.164,0 0.442,0.01 0.834,0.031c0.393,0.02 0.671,0.031 0.835,0.031c1.265,-0 1.898,-0.235 1.898,-0.703c-0,-0.656 -0.39,-1.283 -1.169,-1.88c-0.708,-0.539 -1.605,-0.961 -2.688,-1.266c-0.229,-0.011 -0.516,-0.038 -0.861,-0.079c-0.293,-0.035 -0.577,-0.052 -0.852,-0.052c-0.176,-0 -0.44,0.017 -0.791,0.052c-0.352,0.035 -0.615,0.053 -0.791,0.053c-0.263,0 -0.477,-0.081 -0.641,-0.242c-0.164,-0.161 -0.246,-0.367 -0.246,-0.619c-0,-0.258 0.082,-0.466 0.246,-0.624c0.164,-0.158 0.378,-0.237 0.641,-0.237c0.176,-0 0.439,-0.019 0.791,-0.057c0.351,-0.038 0.615,-0.057 0.791,-0.057c0.603,-0 1.439,0.042 2.508,0.127c1.069,0.085 1.905,0.128 2.508,0.128c0.188,-0 0.466,-0.011 0.835,-0.031c0.369,-0.021 0.647,-0.031 0.835,-0.031c0.252,0 0.458,0.084 0.619,0.25c0.161,0.167 0.242,0.374 0.242,0.62c-0,0.539 -0.381,0.835 -1.142,0.887l-1.028,0.027c1.312,0.984 1.968,1.994 1.968,3.031c-0,0.937 -0.413,1.59 -1.239,1.959c-0.551,0.252 -1.365,0.39 -2.443,0.413l-0.887,-0l-0.817,-0.009c-0.486,0 -1.115,0.063 -1.885,0.189c-0.77,0.126 -1.395,0.189 -1.876,0.189c-0.257,-0 -0.467,-0.084 -0.628,-0.25c-0.161,-0.167 -0.241,-0.377 -0.241,-0.629Z" style="fill:#eee;fill-rule:nonzero;"/><path d="M423.022,592.55c-0,-0.323 0.108,-0.548 0.325,-0.677c0.152,-0.088 0.468,-0.164 0.949,-0.228c-0.112,-0.44 -0.317,-1.116 -0.615,-2.03c-0.375,-0.943 -0.838,-1.417 -1.389,-1.423c-0.064,0.175 -0.111,0.348 -0.14,0.518c-0.24,1.347 -0.571,2.349 -0.993,3.005c-0.615,0.955 -1.505,1.432 -2.671,1.432c-0.955,0 -1.675,-0.413 -2.161,-1.239c-0.399,-0.685 -0.598,-1.552 -0.598,-2.6c0,-0.768 0.129,-1.5 0.387,-2.197c0.328,-0.902 0.785,-1.353 1.37,-1.353c0.235,0 0.44,0.092 0.615,0.277c0.176,0.184 0.264,0.394 0.264,0.628c0,0.182 -0.141,0.416 -0.422,0.703c-0.134,0.14 -0.246,0.457 -0.334,0.949c-0.07,0.392 -0.105,0.723 -0.105,0.993c0,0.492 0.059,0.925 0.176,1.3c0.17,0.545 0.439,0.817 0.808,0.817c0.797,-0 1.336,-0.556 1.617,-1.669l0.202,-0.914c0.17,-0.779 0.369,-1.333 0.597,-1.661c0.328,-0.474 0.823,-0.711 1.485,-0.711c1.224,-0 2.097,0.577 2.618,1.731c0.158,0.351 0.347,0.913 0.567,1.686c0.22,0.774 0.406,1.327 0.558,1.661c0.105,0.24 0.158,0.501 0.158,0.782c-0,0.252 -0.082,0.458 -0.246,0.619c-0.164,0.161 -0.378,0.242 -0.641,0.242c-0.17,-0 -0.419,0.037 -0.747,0.11c-0.328,0.073 -0.577,0.11 -0.747,0.11c-0.264,-0 -0.477,-0.081 -0.641,-0.242c-0.164,-0.161 -0.246,-0.368 -0.246,-0.619Z" style="fill:#eee;fill-rule:nonzero;"/><path d="M427.371,603.637c-0,-0.281 0.099,-0.522 0.298,-0.724c0.2,-0.202 0.437,-0.304 0.712,-0.304c0.281,0 0.521,0.102 0.72,0.304c0.2,0.202 0.299,0.443 0.299,0.724c0,0.282 -0.099,0.525 -0.299,0.73c-0.199,0.205 -0.439,0.307 -0.72,0.307c-0.275,0 -0.512,-0.102 -0.712,-0.307c-0.199,-0.205 -0.298,-0.448 -0.298,-0.73Zm-13.153,-0.07c0.685,0.006 2.44,-0.094 5.263,-0.299l4.841,-0.298c0.293,-0 0.553,0.083 0.782,0.25c0.228,0.167 0.343,0.379 0.343,0.637c-0,0.199 -0.074,0.398 -0.22,0.598c-0.147,0.199 -0.296,0.304 -0.448,0.316l-5.061,0.29l-5.412,0.237c-0.814,-0 -1.552,-0.243 -2.214,-0.729c-0.721,-0.527 -1.081,-1.169 -1.081,-1.924c0,-1.26 0.97,-2.314 2.908,-3.163c0.159,-0.071 0.299,-0.106 0.422,-0.106c0.234,0 0.436,0.093 0.606,0.277c0.17,0.185 0.255,0.394 0.255,0.628c0,0.346 -0.381,0.706 -1.142,1.081c-0.199,0.094 -0.486,0.258 -0.861,0.492c-0.293,0.228 -0.439,0.492 -0.439,0.791c-0,0.257 0.193,0.477 0.58,0.659c0.292,0.14 0.585,0.228 0.878,0.263Z" style="fill:#eee;fill-rule:nonzero;"/><path d="M421.387,615.182c-0.421,0 -1.054,0.003 -1.897,0.009c-0.844,0.006 -1.476,0.009 -1.898,0.009c-0.129,-0 -0.325,0.01 -0.589,0.03c-0.263,0.021 -0.46,0.031 -0.588,0.031c-0.252,0 -0.459,-0.085 -0.62,-0.255c-0.161,-0.169 -0.241,-0.377 -0.241,-0.623c-0,-0.451 0.278,-0.738 0.834,-0.861c-0.38,-0.733 -0.571,-1.576 -0.571,-2.531c0,-0.767 0.17,-1.403 0.51,-1.906c0.375,-0.557 0.922,-0.888 1.643,-0.993c1.552,-0.229 2.934,-0.343 4.147,-0.343c0.802,0 1.716,0.088 2.741,0.264c0.509,0.082 0.764,0.36 0.764,0.834c0,0.252 -0.08,0.463 -0.241,0.633c-0.161,0.17 -0.368,0.255 -0.62,0.255c-0.269,-0 -0.7,-0.043 -1.291,-0.128c-0.592,-0.084 -1.043,-0.127 -1.353,-0.127c-0.979,0 -1.816,0.032 -2.513,0.097c-0.697,0.064 -1.257,0.161 -1.678,0.29c-0.106,0.193 -0.186,0.383 -0.242,0.571c-0.055,0.187 -0.083,0.372 -0.083,0.553c-0,0.785 0.126,1.614 0.377,2.487l1.784,-0.009l1.705,-0.018c1.265,0 2.363,0.056 3.294,0.167c0.539,0.065 0.809,0.349 0.809,0.852c-0,0.252 -0.082,0.463 -0.246,0.633c-0.164,0.17 -0.369,0.249 -0.615,0.237l-3.322,-0.158Z" style="fill:#eee;fill-rule:nonzero;"/><path d="M423.022,623.3c-0,-0.322 0.108,-0.547 0.325,-0.676c0.152,-0.088 0.468,-0.164 0.949,-0.229c-0.112,-0.439 -0.317,-1.115 -0.615,-2.029c-0.375,-0.943 -0.838,-1.418 -1.389,-1.423c-0.064,0.175 -0.111,0.348 -0.14,0.518c-0.24,1.347 -0.571,2.349 -0.993,3.005c-0.615,0.954 -1.505,1.432 -2.671,1.432c-0.955,-0 -1.675,-0.413 -2.161,-1.239c-0.399,-0.685 -0.598,-1.552 -0.598,-2.601c0,-0.767 0.129,-1.499 0.387,-2.196c0.328,-0.902 0.785,-1.353 1.37,-1.353c0.235,-0 0.44,0.092 0.615,0.277c0.176,0.184 0.264,0.393 0.264,0.628c0,0.181 -0.141,0.416 -0.422,0.703c-0.134,0.14 -0.246,0.457 -0.334,0.949c-0.07,0.392 -0.105,0.723 -0.105,0.992c0,0.492 0.059,0.926 0.176,1.301c0.17,0.544 0.439,0.817 0.808,0.817c0.797,-0 1.336,-0.557 1.617,-1.67l0.202,-0.913c0.17,-0.779 0.369,-1.333 0.597,-1.661c0.328,-0.474 0.823,-0.712 1.485,-0.712c1.224,0 2.097,0.577 2.618,1.731c0.158,0.352 0.347,0.914 0.567,1.687c0.22,0.773 0.406,1.327 0.558,1.661c0.105,0.24 0.158,0.501 0.158,0.782c-0,0.252 -0.082,0.458 -0.246,0.619c-0.164,0.161 -0.378,0.242 -0.641,0.242c-0.17,-0 -0.419,0.036 -0.747,0.11c-0.328,0.073 -0.577,0.109 -0.747,0.109c-0.264,0 -0.477,-0.08 -0.641,-0.241c-0.164,-0.161 -0.246,-0.368 -0.246,-0.62Z" style="fill:#eee;fill-rule:nonzero;"/><path d="M423.742,632.007c0,-0.123 0.006,-0.268 0.018,-0.435c0.011,-0.167 0.017,-0.312 0.017,-0.435c0,-0.134 -0.044,-0.533 -0.132,-1.194l-5.192,0.166l-0.387,0.009l-0.448,0.009c-1.282,0.023 -1.924,-0.284 -1.924,-0.922c0,-0.235 0.076,-0.438 0.229,-0.611c0.152,-0.173 0.342,-0.259 0.571,-0.259c0.222,-0 0.556,0.008 1.001,0.026c0.445,0.018 0.779,0.026 1.002,0.026l5.131,-0.175c0.017,-0.428 0.067,-1.078 0.149,-1.951c0.07,-0.521 0.36,-0.782 0.87,-0.782c0.258,0 0.472,0.079 0.641,0.238c0.17,0.158 0.255,0.36 0.255,0.606l-0.149,1.845c0.299,-0 0.698,-0.013 1.199,-0.04c0.501,-0.026 0.863,-0.039 1.085,-0.039c0.246,-0 0.45,0.085 0.611,0.254c0.161,0.17 0.241,0.378 0.241,0.624c0,0.527 -0.43,0.835 -1.291,0.923c-0.217,0.017 -0.478,0.026 -0.782,0.026l-0.51,-0.017l-0.544,-0.009c0.093,0.726 0.14,1.142 0.14,1.247c0,0.61 -0.029,1.008 -0.088,1.195c-0.117,0.358 -0.392,0.536 -0.826,0.536c-0.257,0 -0.47,-0.08 -0.637,-0.241c-0.166,-0.161 -0.25,-0.368 -0.25,-0.62Z" style="fill:#eee;fill-rule:nonzero;"/><path d="M418.444,639.941c0.246,-0.006 0.447,0.078 0.602,0.25c0.155,0.173 0.233,0.385 0.233,0.637c-0,0.287 -0.164,0.539 -0.492,0.756c-0.445,0.299 -0.747,0.565 -0.905,0.799c-0.328,0.498 -0.492,1.222 -0.492,2.171c-0,0.907 0.196,1.751 0.588,2.53c0.504,0.996 1.204,1.494 2.1,1.494c0.738,-0 1.321,-0.419 1.749,-1.257c0.369,-0.709 0.568,-1.584 0.597,-2.627c0.035,-0.925 0.237,-1.713 0.606,-2.363c0.475,-0.832 1.154,-1.248 2.039,-1.248c1.042,0 1.994,0.592 2.855,1.775c0.814,1.13 1.221,2.299 1.221,3.505c0,0.569 -0.096,1.21 -0.29,1.925c-0.251,0.948 -0.574,1.423 -0.966,1.423c-0.515,-0 -0.773,-0.264 -0.773,-0.791c-0,-0.234 0.063,-0.644 0.189,-1.23c0.126,-0.586 0.186,-1.04 0.18,-1.362c-0.012,-0.913 -0.237,-1.69 -0.677,-2.328c-0.451,-0.656 -0.998,-0.984 -1.643,-0.984c-0.486,0 -0.828,0.433 -1.028,1.3c-0.076,0.322 -0.146,0.946 -0.21,1.872c-0.1,1.341 -0.522,2.39 -1.266,3.145c-0.679,0.691 -1.508,1.037 -2.486,1.037c-1.394,-0 -2.507,-0.644 -3.339,-1.933c-0.72,-1.119 -1.08,-2.416 -1.08,-3.892c-0,-1.072 0.205,-2.053 0.615,-2.944c0.503,-1.089 1.195,-1.642 2.073,-1.66Z" style="fill:#eee;fill-rule:nonzero;"/><path d="M426.114,660.939c0,-0.375 0.22,-0.656 0.659,-0.843c0.375,-0.164 0.604,-0.316 0.686,-0.457c0.064,-0.123 0.096,-0.428 0.096,-0.914c0,-0.849 -0.65,-1.792 -1.95,-2.829c-1.746,-1.406 -3.4,-2.108 -4.964,-2.108c-0.756,-0 -1.406,0.243 -1.951,0.729c-0.562,0.498 -0.843,1.098 -0.843,1.801c-0,0.603 0.155,1.209 0.465,1.819c0.176,0.339 0.522,0.861 1.037,1.564c0.246,0.333 0.369,0.585 0.369,0.755c0,0.252 -0.095,0.463 -0.285,0.633c-0.191,0.17 -0.403,0.254 -0.637,0.254c-0.264,0 -0.495,-0.111 -0.695,-0.333c-1.37,-1.547 -2.055,-3.111 -2.055,-4.692c-0,-1.213 0.465,-2.238 1.397,-3.075c0.902,-0.808 1.968,-1.213 3.198,-1.213c1.985,0 4.021,0.832 6.106,2.496c1.739,1.388 2.609,2.788 2.609,4.199c0,0.287 -0.013,0.545 -0.039,0.773c-0.027,0.229 -0.069,0.431 -0.128,0.607c0.299,0.205 0.448,0.471 0.448,0.799c0,0.404 -0.266,0.659 -0.799,0.765c-0.475,0.093 -1.057,0.14 -1.748,0.14c-0.241,0 -0.452,-0.064 -0.633,-0.193c-0.229,-0.158 -0.343,-0.384 -0.343,-0.677Z" style="fill:#eee;fill-rule:nonzero;"/><path d="M416.16,671.974c-0,-0.222 0.094,-0.43 0.281,-0.623c1.915,-1.939 3.204,-4.095 3.866,-6.467l-1.722,0.071l-1.731,0.043c-0.258,0 -0.473,-0.083 -0.646,-0.25c-0.173,-0.167 -0.259,-0.376 -0.259,-0.628c-0,-0.252 0.086,-0.461 0.259,-0.628c0.173,-0.167 0.388,-0.251 0.646,-0.251c0.463,0 1.152,-0.022 2.069,-0.066c0.917,-0.044 1.606,-0.066 2.069,-0.066c0.539,0 1.341,0.059 2.407,0.176c1.066,0.117 1.866,0.176 2.399,0.176c0.299,-0 0.741,-0.028 1.327,-0.084c0.585,-0.055 1.028,-0.083 1.326,-0.083c0.334,-0 0.627,0.094 0.879,0.281c0.31,0.223 0.451,0.53 0.422,0.923l-0.167,2.117c-0.1,0.803 -0.296,1.479 -0.589,2.03c-1.259,2.372 -2.797,3.558 -4.613,3.558c-0.89,-0 -1.678,-0.404 -2.363,-1.213c-0.551,-0.65 -0.969,-1.461 -1.256,-2.433c-0.979,1.821 -2.009,3.183 -3.093,4.085c-0.187,0.152 -0.387,0.229 -0.597,0.229c-0.246,-0 -0.46,-0.09 -0.642,-0.268c-0.181,-0.179 -0.272,-0.388 -0.272,-0.629Zm11.615,-5.596l0.105,-1.3l-1.063,0.087c-0.433,0.041 -0.788,0.062 -1.063,0.062c-0.469,-0 -1.051,-0.038 -1.748,-0.114l-1.749,-0.185c0,0.082 -0.003,0.21 -0.009,0.382c-0.005,0.173 -0.008,0.303 -0.008,0.391c-0,1.494 0.199,2.613 0.597,3.357c0.182,0.328 0.419,0.632 0.712,0.913c0.328,0.311 0.606,0.466 0.834,0.466c0.815,-0 1.573,-0.463 2.276,-1.388c0.644,-0.85 1.016,-1.74 1.116,-2.671Z" style="fill:#eee;fill-rule:nonzero;"/><path d="M428.082,683.185c0,-0.082 0.015,-0.172 0.044,-0.272c0.281,-0.99 0.422,-1.945 0.422,-2.864c-0,-0.481 -0.044,-1.005 -0.132,-1.573c-0.088,-0.568 -0.222,-1.18 -0.404,-1.836c-0.381,0.053 -0.685,0.079 -0.914,0.079c-0.814,-0 -1.933,-0.05 -3.356,-0.149l0.369,3.848c0.117,1.13 0.176,1.824 0.176,2.082c-0,0.258 -0.082,0.474 -0.246,0.65c-0.164,0.176 -0.384,0.264 -0.659,0.264c-0.533,-0 -0.832,-0.27 -0.896,-0.809l-0.185,-2.091l-0.369,-4.059c-0.416,-0.023 -0.81,-0.042 -1.182,-0.057c-0.371,-0.014 -0.719,-0.022 -1.041,-0.022c-1.294,0 -2.056,0.094 -2.284,0.281c-0.164,0.141 -0.246,0.601 -0.246,1.38c-0,0.363 0.01,0.909 0.031,1.638c0.02,0.73 0.03,1.279 0.03,1.648c0,0.117 0.02,0.29 0.058,0.518c0.038,0.229 0.057,0.398 0.057,0.51c-0,0.621 -0.305,0.931 -0.914,0.931c-0.492,-0 -0.788,-0.249 -0.887,-0.747c-0.112,-0.55 -0.167,-1.742 -0.167,-3.576c-0,-1.815 0.24,-2.981 0.72,-3.497c0.521,-0.562 1.722,-0.843 3.602,-0.843c0.375,0 0.785,0.009 1.23,0.026c0.446,0.018 0.926,0.041 1.441,0.071c0.135,-0.065 0.278,-0.097 0.431,-0.097c0.199,0 0.378,0.056 0.536,0.167c1.692,0.117 2.943,0.176 3.751,0.176c0.217,-0 0.535,-0.03 0.954,-0.088c0.418,-0.059 0.736,-0.088 0.953,-0.088c0.697,-0 1.045,0.293 1.045,0.879c0,0.246 -0.085,0.456 -0.254,0.632c0.187,0.703 0.328,1.366 0.421,1.99c0.094,0.624 0.141,1.211 0.141,1.762c-0,1.423 -0.17,2.559 -0.51,3.409c-0.158,0.392 -0.439,0.588 -0.843,0.588c-0.234,0 -0.442,-0.076 -0.624,-0.228c-0.199,-0.17 -0.299,-0.381 -0.299,-0.633Z" style="fill:#eee;fill-rule:nonzero;"/><path d="M415.993,695.609c-0,-0.539 0.691,-1.008 2.073,-1.406c0.528,-0.152 1.45,-0.343 2.768,-0.571c-0.082,-0.598 -0.229,-1.38 -0.439,-2.346l-0.484,-2.337c-0.767,-0.293 -1.889,-0.794 -3.365,-1.502c-0.328,-0.188 -0.492,-0.443 -0.492,-0.765c0,-0.234 0.085,-0.444 0.255,-0.628c0.17,-0.185 0.381,-0.277 0.633,-0.277c0.281,0 1.35,0.442 3.207,1.327c0.152,-0.1 0.328,-0.149 0.527,-0.149c0.474,-0 0.779,0.287 0.914,0.861c1.253,0.667 2.694,1.511 4.322,2.53c2.22,1.388 3.33,2.252 3.33,2.592c0,0.462 -0.322,0.779 -0.966,0.949l-2.952,0.553l-6.107,1.309l-1.388,0.501c-0.474,0.17 -0.791,0.255 -0.949,0.255c-0.252,-0 -0.462,-0.091 -0.632,-0.273c-0.17,-0.181 -0.255,-0.389 -0.255,-0.623Zm10.042,-3.102l-4.05,-2.513c0.181,0.709 0.401,1.784 0.659,3.225l3.391,-0.712Z" style="fill:#eee;fill-rule:nonzero;"/><path d="M415.527,712.065c0,-0.317 0.164,-0.577 0.492,-0.782c0.281,-0.176 0.75,-0.334 1.406,-0.475l1.511,-0.316c0.937,-0.24 3.005,-0.621 6.203,-1.142l-5.298,-1.757l-1.669,-0.519c-0.662,-0.211 -1.204,-0.43 -1.626,-0.659c-0.445,-0.246 -0.667,-0.577 -0.667,-0.992c-0,-0.346 0.187,-0.618 0.562,-0.818c0.246,-0.128 0.559,-0.246 0.94,-0.351l0.975,-0.255c2.068,-0.591 4.282,-1.113 6.642,-1.564l-1.572,-0.316l-4.639,-1.133c-0.545,-0.047 -1.35,-0.194 -2.416,-0.44c-0.457,-0.175 -0.686,-0.465 -0.686,-0.869c0,-0.287 0.103,-0.516 0.308,-0.686c0.176,-0.146 0.392,-0.219 0.65,-0.219c0.978,-0 2.179,0.202 3.602,0.606l3.541,0.966l2.768,0.51c1.294,0.258 2.14,0.53 2.539,0.817c0.339,0.234 0.509,0.524 0.509,0.87c0,0.38 -0.216,0.665 -0.65,0.852c-0.521,0.228 -1.584,0.474 -3.189,0.738c-1.927,0.31 -4.012,0.794 -6.256,1.45c2.255,0.867 4.604,1.616 7.047,2.249l1.282,0.263c0.516,0.106 0.932,0.244 1.248,0.413c0.433,0.229 0.65,0.542 0.65,0.941c0,0.503 -0.486,0.887 -1.458,1.15c-0.334,0.094 -1.025,0.208 -2.074,0.343c-2.647,0.346 -4.908,0.776 -6.783,1.292l-1.511,0.43c-0.808,0.223 -1.306,0.334 -1.493,0.334c-0.252,0 -0.463,-0.095 -0.633,-0.286c-0.17,-0.19 -0.255,-0.405 -0.255,-0.645Z" style="fill:#eee;fill-rule:nonzero;"/></g><g><path d="M252.5,601.639c-0,0.123 -0.006,0.268 -0.018,0.435c-0.011,0.166 -0.017,0.311 -0.017,0.434c-0,0.135 0.044,0.533 0.132,1.195l5.192,-0.167l0.387,-0.008l0.448,-0.009c1.283,-0.024 1.924,0.284 1.924,0.922c-0,0.235 -0.076,0.438 -0.229,0.611c-0.152,0.173 -0.342,0.259 -0.571,0.259c-0.222,0 -0.556,-0.009 -1.001,-0.026c-0.445,-0.018 -0.779,-0.027 -1.002,-0.027l-5.131,0.176c-0.017,0.428 -0.067,1.078 -0.149,1.951c-0.07,0.521 -0.36,0.782 -0.87,0.782c-0.258,-0 -0.471,-0.079 -0.641,-0.238c-0.17,-0.158 -0.255,-0.36 -0.255,-0.606l0.149,-1.845c-0.298,0 -0.698,0.013 -1.199,0.04c-0.501,0.026 -0.863,0.039 -1.085,0.039c-0.246,0 -0.45,-0.085 -0.611,-0.255c-0.161,-0.169 -0.241,-0.377 -0.241,-0.623c-0,-0.528 0.43,-0.835 1.291,-0.923c0.217,-0.018 0.478,-0.026 0.782,-0.026l0.51,0.017l0.544,0.009c-0.093,-0.726 -0.14,-1.142 -0.14,-1.248c-0,-0.609 0.029,-1.007 0.088,-1.194c0.117,-0.358 0.392,-0.536 0.826,-0.536c0.257,-0 0.47,0.08 0.637,0.241c0.167,0.161 0.25,0.368 0.25,0.62Z" style="fill:#eee;fill-rule:nonzero;"/><path d="M260.504,595.743c-0,0.984 -0.363,1.831 -1.089,2.539c-0.809,0.791 -1.895,1.207 -3.26,1.248c-1.324,0.035 -2.489,-0.299 -3.497,-1.002c-1.189,-0.82 -1.783,-1.962 -1.783,-3.426c-0,-1.172 0.536,-2.059 1.607,-2.662c0.867,-0.481 1.91,-0.712 3.128,-0.694c1.301,0.017 2.41,0.357 3.33,1.019c1.043,0.75 1.564,1.742 1.564,2.978Zm-7.846,-0.527c-0.006,0.861 0.404,1.532 1.23,2.012c0.662,0.381 1.418,0.571 2.267,0.571c0.849,0 1.511,-0.231 1.986,-0.694c0.392,-0.386 0.588,-0.84 0.588,-1.362c0,-0.609 -0.222,-1.133 -0.668,-1.572c-0.492,-0.498 -1.156,-0.762 -1.994,-0.791c-2.267,-0.082 -3.403,0.53 -3.409,1.836Z" style="fill:#eee;fill-rule:nonzero;"/><path d="M252.149,576.537l6.571,3.04c1.599,0.75 2.938,1.324 4.016,1.722l1.704,0.58c0.422,0.152 0.633,0.416 0.633,0.791c-0,0.246 -0.081,0.458 -0.242,0.637c-0.161,0.178 -0.362,0.268 -0.602,0.268c-0.585,-0 -2.281,-0.633 -5.087,-1.898l-6.053,3.145l-0.642,0.396c-0.269,0.158 -0.495,0.237 -0.676,0.237c-0.24,-0 -0.451,-0.092 -0.633,-0.277c-0.181,-0.184 -0.272,-0.391 -0.272,-0.619c-0,-0.27 0.102,-0.478 0.307,-0.624c1.383,-0.996 3.351,-2.065 5.904,-3.207l-3.031,-1.3c-1.048,-0.469 -1.95,-0.92 -2.706,-1.353c-0.328,-0.188 -0.492,-0.434 -0.492,-0.738c0,-0.24 0.085,-0.453 0.255,-0.637c0.17,-0.185 0.372,-0.277 0.606,-0.277c0.129,-0 0.276,0.038 0.44,0.114Z" style="fill:#eee;fill-rule:nonzero;"/><path d="M260.504,571.538c-0,0.984 -0.363,1.83 -1.089,2.539c-0.809,0.791 -1.895,1.207 -3.26,1.248c-1.324,0.035 -2.489,-0.299 -3.497,-1.002c-1.189,-0.82 -1.783,-1.962 -1.783,-3.426c-0,-1.172 0.536,-2.059 1.607,-2.663c0.867,-0.48 1.91,-0.711 3.128,-0.694c1.301,0.018 2.41,0.358 3.33,1.02c1.043,0.749 1.564,1.742 1.564,2.978Zm-7.846,-0.527c-0.006,0.861 0.404,1.532 1.23,2.012c0.662,0.381 1.418,0.571 2.267,0.571c0.849,-0 1.511,-0.231 1.986,-0.694c0.392,-0.387 0.588,-0.841 0.588,-1.362c0,-0.609 -0.222,-1.133 -0.668,-1.573c-0.492,-0.498 -1.156,-0.761 -1.994,-0.79c-2.267,-0.082 -3.403,0.53 -3.409,1.836Z" style="fill:#eee;fill-rule:nonzero;"/><path d="M254.855,558.201c0.421,-0 1.054,-0.003 1.897,-0.009c0.844,-0.006 1.476,-0.009 1.898,-0.009c0.129,0 0.325,-0.01 0.589,-0.03c0.263,-0.021 0.46,-0.031 0.588,-0.031c0.252,-0 0.459,0.085 0.62,0.255c0.161,0.17 0.241,0.377 0.241,0.623c0,0.451 -0.278,0.738 -0.834,0.861c0.381,0.733 0.571,1.576 0.571,2.531c-0,0.767 -0.17,1.403 -0.51,1.906c-0.375,0.557 -0.922,0.888 -1.643,0.993c-1.552,0.229 -2.934,0.343 -4.147,0.343c-0.802,-0 -1.716,-0.088 -2.741,-0.264c-0.509,-0.082 -0.764,-0.36 -0.764,-0.834c-0,-0.252 0.08,-0.463 0.241,-0.633c0.161,-0.17 0.368,-0.255 0.62,-0.255c0.269,0 0.7,0.043 1.291,0.128c0.592,0.085 1.043,0.127 1.353,0.127c0.979,0 1.816,-0.032 2.513,-0.097c0.697,-0.064 1.257,-0.161 1.678,-0.29c0.106,-0.193 0.186,-0.383 0.242,-0.571c0.056,-0.187 0.083,-0.372 0.083,-0.553c0,-0.785 -0.126,-1.614 -0.377,-2.487l-1.784,0.009l-1.704,0.018c-1.266,-0 -2.364,-0.056 -3.295,-0.167c-0.539,-0.065 -0.808,-0.349 -0.808,-0.852c-0,-0.252 0.082,-0.463 0.246,-0.633c0.164,-0.17 0.369,-0.249 0.615,-0.237l3.321,0.158Z" style="fill:#eee;fill-rule:nonzero;"/><path d="M257.28,553.975c-0,0.24 -0.093,0.451 -0.277,0.632c-0.185,0.182 -0.394,0.273 -0.628,0.273c-0.405,-0 -0.902,-0.375 -1.494,-1.125l-1.581,-2.1c-0.651,-0.755 -1.245,-1.133 -1.784,-1.133c-0.679,0 -1.306,0.319 -1.88,0.958c-0.557,0.615 -0.835,1.268 -0.835,1.959c0,0.369 0.189,0.838 0.567,1.406c0.378,0.568 0.567,0.919 0.567,1.054c-0,0.24 -0.097,0.447 -0.29,0.619c-0.194,0.173 -0.41,0.26 -0.651,0.26c-0.462,-0 -0.922,-0.448 -1.379,-1.345c-0.41,-0.802 -0.615,-1.467 -0.615,-1.994c-0,-1.177 0.46,-2.246 1.379,-3.207c0.92,-0.961 1.966,-1.441 3.137,-1.441c0.855,0 1.614,0.275 2.276,0.826c0.398,0.328 0.913,0.937 1.546,1.828c0.65,0.896 1.177,1.52 1.581,1.871c0.24,0.205 0.361,0.425 0.361,0.659Zm3.338,0.483c0,0.258 -0.086,0.491 -0.259,0.699c-0.173,0.208 -0.382,0.312 -0.628,0.312c-0.363,-0 -0.691,-0.097 -0.984,-0.29c-0.328,-0.217 -0.492,-0.495 -0.492,-0.835c-0,-0.562 0.345,-0.844 1.037,-0.844c0.322,0 0.612,0.077 0.869,0.229c0.305,0.187 0.457,0.43 0.457,0.729Z" style="fill:#eee;fill-rule:nonzero;"/></g></g><path d="M440,433.75l-0,290c-0,22.077 -17.923,40 -40,40l-125,-0c-22.077,-0 -40,-17.923 -40,-40l0,-290c0,-22.077 17.923,-40 40,-40l125,0c22.077,0 40,17.923 40,40Zm-155,0c-5.523,0 -10,4.477 -10,10c0,44.629 0,225.371 0,270c-0,5.523 4.477,10 10,10c23.415,-0 81.585,-0 105,-0c5.523,-0 10,-4.477 10,-10c-0,-44.629 -0,-225.371 -0,-270c0,-5.523 -4.477,-10 -10,-10c-23.415,0 -81.585,0 -105,0Z" style="fill:#eee;"/></g></g><g><path d="M753.575,729.166c7.806,-7.806 20.479,-7.806 28.285,-0c7.805,7.805 7.805,20.479 -0,28.284l-59.634,59.633c-3.905,3.905 -3.905,10.237 0.001,14.142l86.208,86.208l-28.285,28.285l-86.208,-86.209c-19.526,-19.526 -19.526,-51.184 0,-70.71l59.633,-59.633Z" style="fill:url(#_Linear3);"/><path d="M925.502,938.768c-7.805,7.805 -20.479,7.805 -28.284,0c-7.806,-7.805 -7.806,-20.479 -0,-28.284l59.633,-59.633c3.905,-3.905 3.905,-10.237 -0,-14.142l-86.208,-86.208l28.284,-28.285l86.208,86.208c19.526,19.527 19.526,51.185 -0,70.711l-59.633,59.633Z" style="fill:url(#_Linear4);"/><g transform="matrix(0.5,-0.866025,0.774219,0.446996,-2317.44,-697.227)"><g transform="matrix(40.5754,0,0,40.5754,364.473,3930.16)"></g><text x="149.423px" y="3930.16px" style="font-family:'TrispaceExpanded-Regular', 'Trispace Expanded';font-stretch:expanded;font-size:40.575px;fill:#f44;">slash</text></g><path d="M906.994,677.317c5.52,-9.559 17.761,-12.839 27.321,-7.32c9.559,5.519 12.84,17.761 7.32,27.32l-169.042,292.791c-5.52,9.56 -17.761,12.84 -27.321,7.321c-9.559,-5.519 -12.84,-17.761 -7.32,-27.321l169.042,-292.791Z" style="fill:#f44;"/></g></g><defs><radialGradient id="_Radial2" cx="0" cy="0" r="1" gradientUnits="userSpaceOnUse" gradientTransform="matrix(162.5,0,0,352.348,337.5,616)"><stop offset="0" style="stop-color:#eee;stop-opacity:0.15"/><stop offset="1" style="stop-color:#eee;stop-opacity:0.5"/></radialGradient><linearGradient id="_Linear3" x1="0" y1="0" x2="1" y2="0" gradientUnits="userSpaceOnUse" gradientTransform="matrix(88.7832,52,-52,88.7832,721,824)"><stop offset="0" style="stop-color:#df333a;stop-opacity:1"/><stop offset="1" style="stop-color:#ae2e2e;stop-opacity:1"/></linearGradient><linearGradient id="_Linear4" x1="0" y1="0" x2="1" y2="0" gradientUnits="userSpaceOnUse" gradientTransform="matrix(-88.7832,-52,52,-88.7832,972.162,839.902)"><stop offset="0" style="stop-color:#df333a;stop-opacity:1"/><stop offset="1" style="stop-color:#b5262b;stop-opacity:1"/></linearGradient></defs></svg>