<?xml version="1.0" encoding="UTF-8" standalone="no"?>
<!DOCTYPE svg PUBLIC "-//W3C//DTD SVG 1.1//EN" "http://www.w3.org/Graphics/SVG/1.1/DTD/svg11.dtd">
<svg width="100%" height="100%" viewBox="0 0 700 700" version="1.1" xmlns="http://www.w3.org/2000/svg" xmlns:xlink="http://www.w3.org/1999/xlink" xml:space="preserve" style="fill-rule:evenodd;clip-rule:evenodd;stroke-linejoin:round;stroke-miterlimit:2;">
    <path d="M350,0C156.83,0 0,156.83 0,350C0,543.17 156.83,700 350,700C543.17,700 700,543.17 700,350C700,156.83 543.17,0 350,0ZM350,655.267C290.052,655.267 241.454,606.67 241.454,546.721C241.454,523.123 249.144,500.196 263.311,481.397L298.755,481.397C399.558,481.397 481.397,399.558 481.397,298.755L481.397,218.603C481.397,218.603 401.245,218.603 401.245,218.603C300.442,218.603 218.603,300.442 218.603,401.245L218.603,467.797C204.35,491.525 196.721,518.789 196.721,546.721C196.721,575.537 204.673,602.496 218.507,625.531C115.761,576.357 44.733,471.408 44.733,350C44.733,181.519 181.519,44.733 350,44.733C518.481,44.733 655.267,181.519 655.267,350C655.267,518.481 518.481,655.267 350,655.267ZM436.665,263.335L436.665,298.755C436.665,374.87 374.87,436.665 298.755,436.665L263.335,436.665L263.335,401.245C263.335,325.13 325.13,263.335 401.245,263.335L436.665,263.335Z"/>
</svg>
