<svg xmlns="http://www.w3.org/2000/svg" xml:space="preserve" style="fill-rule:evenodd;clip-rule:evenodd;stroke-linecap:round;stroke-linejoin:round;stroke-miterlimit:1.5" viewBox="0 0 1349 1349"><circle cx="2048" cy="2048" r="1365.33" style="fill:none;stroke:#eee;stroke-width:186.41px" transform="translate(-272.572 -272.571)scale(.46241)"/><path d="M1503.48 2394.84a640.84 640.84 0 0 0-140.3 400.16c0 353.91 286.91 640.82 640.82 640.82V3248.8c-250.63 0-453.8-203.17-453.8-453.8 0-103 35.03-202.93 99.35-283.38z" style="fill:#eee" transform="translate(-249.231 -234.74)scale(.46092)"/><path d="M1503.48 2394.84a640.84 640.84 0 0 0-140.3 400.16c0 353.91 286.91 640.82 640.82 640.82V3248.8c-250.63 0-453.8-203.17-453.8-453.8 0-103 35.03-202.93 99.35-283.38z" style="fill:url(#a)" transform="translate(-249.231 -234.74)scale(.46092)"/><path d="M227.666 88.961h3.55c10.103 0 18.305-8.202 18.305-18.305v-8.033l-4.484 4.483v3.55c0 7.628-6.193 13.821-13.821 13.821h-8.033z" style="fill:url(#b)" transform="translate(-3870.03 -782.843)scale(19.22758)"/><path d="M249.521 62.623h-8.033c-10.103 0-18.305 8.202-18.305 18.305v8.033h4.483v-8.033c0-7.629 6.193-13.822 13.822-13.822h8.033z" style="fill:#4b5" transform="translate(-3870.03 -782.843)scale(19.22758)"/><defs><linearGradient id="a" x1="0" x2="1" y1="0" y2="0" gradientTransform="rotate(-120.787 1925.227 1055.36)scale(994.814)" gradientUnits="userSpaceOnUse"><stop offset="0" style="stop-color:#4b5;stop-opacity:0"/><stop offset="1" style="stop-color:#4b5;stop-opacity:1"/></linearGradient><linearGradient id="b" x1="0" x2="1" y1="0" y2="0" gradientTransform="rotate(-90 166.999 -80.28)scale(21.8543)" gradientUnits="userSpaceOnUse"><stop offset="0" style="stop-color:#095;stop-opacity:1"/><stop offset="1" style="stop-color:#074;stop-opacity:1"/></linearGradient></defs></svg>