<?xml version="1.0" encoding="UTF-8" standalone="no"?>
<!DOCTYPE svg PUBLIC "-//W3C//DTD SVG 1.1//EN" "http://www.w3.org/Graphics/SVG/1.1/DTD/svg11.dtd">
<svg width="100%" height="100%" viewBox="0 0 1349 1349" version="1.1" xmlns="http://www.w3.org/2000/svg" xmlns:xlink="http://www.w3.org/1999/xlink" xml:space="preserve" xmlns:serif="http://www.serif.com/" style="fill-rule:evenodd;clip-rule:evenodd;stroke-linejoin:round;stroke-miterlimit:2;">
    <circle cx="674.5" cy="674.5" r="674.5" style="fill:rgb(17,17,17);"/>
    <g transform="matrix(0.296413,0,0,0.296413,67.4135,67.4102)">
        <path d="M2040.17,3506.51C1238.78,3502.29 589.465,2850.38 589.465,2048C589.465,1243.01 1243.01,589.465 2048,589.465C2852.99,589.465 3506.53,1243.01 3506.53,2048C3506.53,2852.98 2853,3506.52 2048.02,3506.53L2048.02,3506.56C2045.4,3506.56 2042.78,3506.55 2040.17,3506.51ZM2042.78,3320.11C2044.52,3320.12 2046.26,3320.12 2048,3320.12C2750.11,3320.12 3320.12,2750.11 3320.12,2048C3320.12,1345.89 2750.11,775.875 2048,775.875C1345.89,775.875 775.875,1345.89 775.875,2048C775.875,2553.96 1071.89,2991.33 1500.04,3196.21C1442.41,3100.25 1409.26,2987.9 1409.26,2867.81C1409.27,2722.86 1458.6,2582.15 1549.11,2468.94L1694.71,2585.34C1630.6,2665.53 1595.68,2765.14 1595.68,2867.81C1595.68,3115.88 1795.37,3317.31 2042.78,3320.11Z" style="fill:rgb(238,238,238);"/>
    </g>
    <g transform="matrix(0.295458,0,0,0.295458,82.3755,91.6605)">
        <path d="M1503.48,2394.84C1412.68,2508.42 1363.18,2649.59 1363.18,2795C1363.18,3148.91 1650.09,3435.82 2004,3435.82L2004,3248.8C1753.37,3248.8 1550.2,3045.63 1550.2,2795C1550.2,2692 1585.23,2592.07 1649.55,2511.62L1503.48,2394.84Z" style="fill:url(#_Linear1);"/>
    </g>
    <g transform="matrix(12.3252,0,0,12.3252,-2238.62,-259.684)">
        <path d="M227.666,88.961L231.216,88.961C241.319,88.961 249.521,80.759 249.521,70.656L249.521,62.623L245.037,67.106L245.037,70.656C245.037,78.284 238.844,84.477 231.216,84.477L223.183,84.477L227.666,88.961Z" style="fill:url(#_Linear2);"/>
    </g>
    <g transform="matrix(12.3252,0,0,12.3252,-2238.62,-259.684)">
        <path d="M249.521,62.623L241.488,62.623C231.385,62.623 223.183,70.825 223.183,80.928L223.183,88.961L227.666,88.961L227.666,80.928C227.666,73.299 233.859,67.106 241.488,67.106L249.521,67.106L249.521,62.623Z" style="fill:url(#_Linear3);"/>
    </g>
    <defs>
        <linearGradient id="_Linear1" x1="0" y1="0" x2="1" y2="0" gradientUnits="userSpaceOnUse" gradientTransform="matrix(-362.67,-727.544,727.544,-362.67,2004.02,3249.46)"><stop offset="0" style="stop-color:rgb(0,184,92);stop-opacity:0"/><stop offset="1" style="stop-color:rgb(0,184,88);stop-opacity:1"/></linearGradient>
        <linearGradient id="_Linear2" x1="0" y1="0" x2="1" y2="0" gradientUnits="userSpaceOnUse" gradientTransform="matrix(1.203e-15,-19.6465,19.6465,1.203e-15,247.279,86.719)"><stop offset="0" style="stop-color:rgb(0,184,92);stop-opacity:1"/><stop offset="1" style="stop-color:rgb(0,143,69);stop-opacity:1"/></linearGradient>
        <linearGradient id="_Linear3" x1="0" y1="0" x2="1" y2="0" gradientUnits="userSpaceOnUse" gradientTransform="matrix(1.34058e-15,-21.8934,21.8934,1.34058e-15,227.632,84.5164)"><stop offset="0" style="stop-color:rgb(0,184,92);stop-opacity:1"/><stop offset="1" style="stop-color:rgb(0,204,102);stop-opacity:1"/></linearGradient>
    </defs>
</svg>
