<svg xmlns="http://www.w3.org/2000/svg" xml:space="preserve" style="fill-rule:evenodd;clip-rule:evenodd;stroke-linejoin:round;stroke-miterlimit:2" viewBox="0 0 1349 1349"><circle cx="674.5" cy="674.5" r="674.5" style="fill:#111"/><path d="M2040.17 3506.51C1238.78 3502.29 589.465 2850.38 589.465 2048c0-804.99 653.545-1458.535 1458.535-1458.535S3506.53 1243.01 3506.53 2048c0 804.98-653.53 1458.52-1458.51 1458.53v.03c-2.62 0-5.24-.01-7.85-.05m2.61-186.4c1.74.01 3.48.01 5.22.01 702.11 0 1272.12-570.01 1272.12-1272.12S2750.11 775.875 2048 775.875 775.875 1345.89 775.875 2048c0 505.96 296.015 943.33 724.165 1148.21-57.63-95.96-90.78-208.31-90.78-328.4.01-144.95 49.34-285.66 139.85-398.87l145.6 116.4a452.34 452.34 0 0 0-99.03 282.47c0 248.07 199.69 449.5 447.1 452.3" style="fill:#eee" transform="translate(67.413 67.41)scale(.29641)"/><path d="M1503.48 2394.84c-90.8 113.58-140.3 254.75-140.3 400.16 0 353.91 286.91 640.82 640.82 640.82V3248.8c-250.63 0-453.8-203.17-453.8-453.8 0-103 35.03-202.93 99.35-283.38z" style="fill:url(#a)" transform="translate(82.376 91.66)scale(.29546)"/><path d="M227.666 88.961h3.55c10.103 0 18.305-8.202 18.305-18.305v-8.033l-4.484 4.483v3.55c0 7.628-6.193 13.821-13.821 13.821h-8.033z" style="fill:url(#b)" transform="translate(-2238.62 -259.684)scale(12.3252)"/><path d="M249.521 62.623h-8.033c-10.103 0-18.305 8.202-18.305 18.305v8.033h4.483v-8.033c0-7.629 6.193-13.822 13.822-13.822h8.033z" style="fill:url(#c)" transform="translate(-2238.62 -259.684)scale(12.3252)"/><defs><linearGradient id="a" x1="0" x2="1" y1="0" y2="0" gradientTransform="rotate(-116.496 2007.344 1004.678)scale(812.927)" gradientUnits="userSpaceOnUse"><stop offset="0" style="stop-color:#00b85c;stop-opacity:0"/><stop offset="1" style="stop-color:#00b858;stop-opacity:1"/></linearGradient><linearGradient id="b" x1="0" x2="1" y1="0" y2="0" gradientTransform="rotate(-90 166.999 -80.28)scale(19.6465)" gradientUnits="userSpaceOnUse"><stop offset="0" style="stop-color:#00b85c;stop-opacity:1"/><stop offset="1" style="stop-color:#008f45;stop-opacity:1"/></linearGradient><linearGradient id="c" x1="0" x2="1" y1="0" y2="0" gradientTransform="rotate(-90 156.074 -71.558)scale(21.8934)" gradientUnits="userSpaceOnUse"><stop offset="0" style="stop-color:#00b85c;stop-opacity:1"/><stop offset="1" style="stop-color:#0c6;stop-opacity:1"/></linearGradient></defs></svg>