<?xml version="1.0" encoding="UTF-8" standalone="no"?>
<!DOCTYPE svg PUBLIC "-//W3C//DTD SVG 1.1//EN" "http://www.w3.org/Graphics/SVG/1.1/DTD/svg11.dtd">
<svg width="100%" height="100%" viewBox="0 0 307 67" version="1.1" xmlns="http://www.w3.org/2000/svg" xmlns:xlink="http://www.w3.org/1999/xlink" xml:space="preserve" xmlns:serif="http://www.serif.com/" style="fill-rule:evenodd;clip-rule:evenodd;stroke-linecap:square;stroke-miterlimit:1.5;">
    <g transform="matrix(0.104675,0,0,0.0226897,-208.756,4.89796)">
        <g transform="matrix(54.8126,0,0,252.869,6902.21,-13392.8)">
            <path d="M-89.539,63.787L-88.281,63.787L-88.281,60.117L-88.209,60.117C-88.005,60.452 -87.356,61.183 -86.144,61.183C-84.403,61.183 -83.169,59.817 -83.169,57.873C-83.169,55.927 -84.403,54.597 -86.216,54.597C-87.464,54.597 -88.065,55.4 -88.233,55.651L-88.317,55.651L-88.317,54.753L-89.539,54.753L-89.539,63.787ZM-86.372,60.045C-87.476,60.045 -88.317,59.241 -88.317,57.885C-88.317,56.696 -87.596,55.735 -86.396,55.735C-85.232,55.735 -84.451,56.576 -84.451,57.884C-84.451,59.145 -85.232,60.045 -86.372,60.045Z" style="fill:rgb(238,238,238);fill-rule:nonzero;"/>
            <path d="M-81.643,63.787L-80.385,63.787L-80.385,60.117L-80.313,60.117C-80.109,60.452 -79.46,61.183 -78.248,61.183C-76.507,61.183 -75.273,59.817 -75.273,57.873C-75.273,55.927 -76.507,54.597 -78.32,54.597C-79.568,54.597 -80.169,55.4 -80.337,55.651L-80.421,55.651L-80.421,54.753L-81.643,54.753L-81.643,63.787ZM-78.476,60.045C-79.58,60.045 -80.421,59.241 -80.421,57.885C-80.421,56.696 -79.7,55.735 -78.5,55.735C-77.336,55.735 -76.555,56.576 -76.555,57.884C-76.555,59.145 -77.336,60.045 -78.476,60.045Z" style="fill:rgb(238,238,238);fill-rule:nonzero;"/>
            <path d="M-73.747,61.027L-72.489,61.027L-72.489,57.931C-72.489,56.767 -71.877,55.963 -70.809,55.963L-70.221,55.963L-70.221,54.741L-70.773,54.741C-71.661,54.741 -72.261,55.34 -72.453,55.843L-72.537,55.843L-72.537,54.753L-73.747,54.753L-73.747,61.027Z" style="fill:rgb(238,238,238);fill-rule:nonzero;"/>
            <path d="M-68.767,61.027L-67.509,61.027L-67.509,57.331C-67.509,56.407 -66.884,55.771 -66.092,55.771C-65.3,55.771 -64.735,56.323 -64.735,57.199L-64.735,61.027L-63.477,61.027L-63.477,57.367C-63.477,56.359 -62.84,55.771 -62.048,55.771C-61.22,55.771 -60.727,56.323 -60.727,57.343L-60.727,61.027L-59.469,61.027L-59.469,56.911C-59.469,55.556 -60.38,54.597 -61.76,54.597C-62.612,54.597 -63.273,54.908 -63.692,55.651L-63.776,55.651C-64.136,55.016 -64.795,54.597 -65.696,54.597C-66.596,54.597 -67.185,55.052 -67.461,55.579L-67.545,55.579L-67.545,54.753L-68.767,54.753L-68.767,61.027Z" style="fill:rgb(238,238,238);fill-rule:nonzero;"/>
            <path d="M-57.02,53.767C-56.528,53.767 -56.181,53.444 -56.181,52.964C-56.181,52.508 -56.528,52.173 -57.02,52.173C-57.5,52.173 -57.847,52.508 -57.847,52.964C-57.847,53.444 -57.5,53.767 -57.02,53.767ZM-57.655,61.027L-56.397,61.027L-56.397,54.753L-57.655,54.753L-57.655,61.027Z" style="fill:rgb(238,238,238);fill-rule:nonzero;"/>
            <path d="M-54.583,61.027L-53.325,61.027L-53.325,57.368C-53.325,56.455 -52.676,55.771 -51.8,55.771C-51.008,55.771 -50.395,56.359 -50.395,57.235L-50.395,61.027L-49.137,61.027L-49.137,56.995C-49.137,55.639 -50.012,54.597 -51.44,54.597C-52.376,54.597 -53.025,55.076 -53.277,55.591L-53.361,55.591L-53.361,54.753L-54.583,54.753L-54.583,61.027Z" style="fill:rgb(238,238,238);fill-rule:nonzero;"/>
            <path d="M-44.733,61.027L-43.689,61.027L-43.689,59.961L-44.541,59.961C-45.201,59.961 -45.453,59.601 -45.453,59L-45.453,55.783L-43.629,55.783L-43.629,54.753L-45.453,54.753L-45.453,52.977L-46.639,52.977L-46.639,54.357C-46.639,54.609 -46.795,54.765 -47.011,54.765L-47.839,54.765L-47.839,55.783L-46.711,55.783L-46.711,59.036C-46.711,60.344 -45.968,61.027 -44.733,61.027Z" style="fill:rgb(238,238,238);fill-rule:nonzero;"/>
        </g>
        <g transform="matrix(9.55338,0,0,44.0729,3833.47,-2103.76)">
            <g transform="matrix(1.37273,0,0,1.37273,-228.447,-28.0418)">
                <path d="M225.425,86.719L231.216,86.719C240.082,86.719 247.279,79.521 247.279,70.656L247.279,64.865" style="fill:none;stroke:url(#_Linear1);stroke-width:4.37px;"/>
            </g>
            <g transform="matrix(1.37273,0,0,1.37273,-228.447,-28.0418)">
                <path d="M247.279,64.865L241.488,64.865C232.622,64.865 225.425,72.062 225.425,80.928L225.425,86.719" style="fill:none;stroke:url(#_Linear2);stroke-width:4.37px;"/>
            </g>
        </g>
    </g>
    <defs>
        <linearGradient id="_Linear1" x1="0" y1="0" x2="1" y2="0" gradientUnits="userSpaceOnUse" gradientTransform="matrix(1.06366e-15,-17.3709,17.3709,1.06366e-15,243.529,84.4773)"><stop offset="0" style="stop-color:rgb(0,184,92);stop-opacity:1"/><stop offset="1" style="stop-color:rgb(0,143,71);stop-opacity:1"/></linearGradient>
        <linearGradient id="_Linear2" x1="0" y1="0" x2="1" y2="0" gradientUnits="userSpaceOnUse" gradientTransform="matrix(1.06366e-15,-17.3709,17.3709,1.06366e-15,225.425,84.4773)"><stop offset="0" style="stop-color:rgb(0,184,92);stop-opacity:1"/><stop offset="1" style="stop-color:rgb(0,204,102);stop-opacity:1"/></linearGradient>
    </defs>
</svg>
