<?xml version="1.0" encoding="UTF-8" standalone="no"?>
<!DOCTYPE svg PUBLIC "-//W3C//DTD SVG 1.1//EN" "http://www.w3.org/Graphics/SVG/1.1/DTD/svg11.dtd">
<svg width="100%" height="100%" viewBox="0 0 269 60" version="1.1" xmlns="http://www.w3.org/2000/svg" xmlns:xlink="http://www.w3.org/1999/xlink" xml:space="preserve" xmlns:serif="http://www.serif.com/" style="fill-rule:evenodd;clip-rule:evenodd;stroke-linejoin:round;stroke-miterlimit:2;">
    <g>
        <path d="M18.18,46.663c7.878,-0 15.977,-6.721 15.977,-17.244c-0,-8.87 -6.06,-17.519 -16.473,-17.519l-0.165,-0c-0.055,-0 -0.606,-0 -1.322,0.055c-5.564,0.496 -8.815,3.085 -10.743,6.446l0,-5.675l-5.454,0l-0,46.828l5.454,0l0,-19.337c1.102,1.928 4.022,6.446 12.726,6.446Zm-12.726,-17.409c0,-1.708 0.331,-7.162 4.297,-10.137c2.975,-2.149 6.666,-2.204 7.162,-2.204c11.569,0 11.735,11.79 11.735,12.451c-0,8.374 -5.95,12.285 -11.735,12.285c-2.975,0 -5.895,-0.991 -7.933,-2.975c-3.195,-2.975 -3.526,-7.712 -3.526,-9.42Z" style="fill:#eee;fill-rule:nonzero;"/>
        <path d="M57.846,46.663c7.879,-0 15.977,-6.721 15.977,-17.244c0,-8.87 -6.06,-17.519 -16.472,-17.519l-0.166,-0c-0.055,-0 -0.606,-0 -1.322,0.055c-5.564,0.496 -8.815,3.085 -10.743,6.446l0,-5.675l-5.454,0l0,46.828l5.454,0l0,-19.337c1.102,1.928 4.022,6.446 12.726,6.446Zm-12.726,-17.409c0,-1.708 0.331,-7.162 4.297,-10.137c2.975,-2.149 6.666,-2.204 7.162,-2.204c11.57,0 11.735,11.79 11.735,12.451c-0,8.374 -5.95,12.285 -11.735,12.285c-2.975,0 -5.895,-0.991 -7.933,-2.975c-3.195,-2.975 -3.526,-7.712 -3.526,-9.42Z" style="fill:#eee;fill-rule:nonzero;"/>
        <path d="M84.786,25.673c0,-2.755 3.141,-7.823 8.429,-7.823l6.005,-0l0,-5.069l-5.894,0c-4.959,0 -8.54,5.509 -8.54,5.509l0,-5.509l-5.454,0l0,33.055l5.454,0l0,-20.163Z" style="fill:#eee;fill-rule:nonzero;"/>
        <path d="M120.486,16.858c3.911,0 8.374,2.259 8.484,9.2l-0,19.723l5.509,0l0,-17.464c0,-3.636 1.983,-11.404 9.531,-11.404c4.022,0 8.209,2.59 8.209,9.311l-0.11,19.557l5.509,0l-0.055,-19.502c-0.055,-9.641 -6.556,-14.434 -13.112,-14.434c-4.573,-0 -9.145,2.314 -11.625,6.996c-2.699,-5.509 -7.988,-6.941 -11.183,-6.941c-5.565,-0 -8.76,2.754 -10.358,5.564l0,-4.738l-5.454,0l0,33.055l5.454,0l0,-17.299c0,-1.597 0.386,-11.624 9.201,-11.624Z" style="fill:#eee;fill-rule:nonzero;"/>
        <path d="M169.683,12.726l-5.509,0l-0,33.055l5.509,0l-0,-33.055Zm-6.336,-9.09c0,2.038 1.598,3.636 3.636,3.636c1.984,0 3.636,-1.598 3.636,-3.636c0,-1.983 -1.652,-3.636 -3.636,-3.636c-2.038,-0 -3.636,1.653 -3.636,3.636Z" style="fill:#eee;fill-rule:nonzero;"/>
        <path d="M192.656,11.9l-0.11,-0c-6.831,-0 -9.751,3.801 -10.688,5.564l0,-4.738l-5.509,0l-0,33.055l5.509,0l0,-17.684c0,-3.802 1.488,-11.239 9.035,-11.239c8.099,0 9.2,6.17 9.256,9.2l-0,19.723l5.509,0l-0,-19.502c-0,-10.247 -7.327,-14.379 -13.002,-14.379Z" style="fill:#eee;fill-rule:nonzero;"/>
        <path d="M217.778,35.369l-0,-17.519l11.018,-0l0,-5.069l-11.018,0l-0,-9.365l-5.509,-0l-0,31.677c0.055,6.556 3.966,10.688 10.137,10.743l6.39,-0.055l0,-5.013l-5.564,-0c-1.708,-0 -5.399,-0.055 -5.454,-5.399Z" style="fill:#eee;fill-rule:nonzero;"/>
        <path d="M235.407,45.781l0,-5.041l9.93,-0c9.95,-0 18.029,-8.079 18.029,-18.029l-0,-9.93l5.041,0l0,9.93c0,12.733 -10.337,23.07 -23.07,23.07l-9.93,0Z" style="fill:url(#_Linear1);"/>
        <path d="M268.407,12.781l0,5.042l-9.929,-0c-9.951,-0 -18.029,8.078 -18.029,18.029l0,9.929l-5.042,0l0,-9.929c0,-12.733 10.338,-23.071 23.071,-23.071l9.929,0Z" style="fill:url(#_Linear2);"/>
    </g>
    <defs>
        <linearGradient id="_Linear1" x1="0" y1="0" x2="1" y2="0" gradientUnits="userSpaceOnUse" gradientTransform="matrix(1.36075e-15,-22.2227,22.2227,1.36075e-15,261.089,40.3927)"><stop offset="0" style="stop-color:#00b85c;stop-opacity:1"/><stop offset="1" style="stop-color:#008f47;stop-opacity:1"/></linearGradient>
        <linearGradient id="_Linear2" x1="0" y1="0" x2="1" y2="0" gradientUnits="userSpaceOnUse" gradientTransform="matrix(1.36075e-15,-22.2227,22.2227,1.36075e-15,237.928,40.3927)"><stop offset="0" style="stop-color:#00b85c;stop-opacity:1"/><stop offset="1" style="stop-color:#0c6;stop-opacity:1"/></linearGradient>
    </defs>
</svg>
