<svg xmlns="http://www.w3.org/2000/svg" xml:space="preserve" style="fill-rule:evenodd;clip-rule:evenodd;stroke-linejoin:round;stroke-miterlimit:2" viewBox="0 0 269 60"><path d="M18.18 46.663c7.878 0 15.977-6.721 15.977-17.244 0-8.87-6.06-17.519-16.473-17.519h-.165c-.055 0-.606 0-1.322.055-5.564.496-8.815 3.085-10.743 6.446v-5.675H0v46.828h5.454V40.217c1.102 1.928 4.022 6.446 12.726 6.446M5.454 29.254c0-1.708.331-7.162 4.297-10.137 2.975-2.149 6.666-2.204 7.162-2.204 11.569 0 11.735 11.79 11.735 12.451 0 8.374-5.95 12.285-11.735 12.285-2.975 0-5.895-.991-7.933-2.975-3.195-2.975-3.526-7.712-3.526-9.42M57.846 46.663c7.879 0 15.977-6.721 15.977-17.244 0-8.87-6.06-17.519-16.472-17.519h-.166c-.055 0-.606 0-1.322.055-5.564.496-8.815 3.085-10.743 6.446v-5.675h-5.454v46.828h5.454V40.217c1.102 1.928 4.022 6.446 12.726 6.446M45.12 29.254c0-1.708.331-7.162 4.297-10.137 2.975-2.149 6.666-2.204 7.162-2.204 11.57 0 11.735 11.79 11.735 12.451 0 8.374-5.95 12.285-11.735 12.285-2.975 0-5.895-.991-7.933-2.975-3.195-2.975-3.526-7.712-3.526-9.42M84.786 25.673c0-2.755 3.141-7.823 8.429-7.823h6.005v-5.069h-5.894c-4.959 0-8.54 5.509-8.54 5.509v-5.509h-5.454v33.055h5.454zM120.486 16.858c3.911 0 8.374 2.259 8.484 9.2v19.723h5.509V28.317c0-3.636 1.983-11.404 9.531-11.404 4.022 0 8.209 2.59 8.209 9.311l-.11 19.557h5.509l-.055-19.502c-.055-9.641-6.556-14.434-13.112-14.434-4.573 0-9.145 2.314-11.625 6.996-2.699-5.509-7.988-6.941-11.183-6.941-5.565 0-8.76 2.754-10.358 5.564v-4.738h-5.454v33.055h5.454V28.482c0-1.597.386-11.624 9.201-11.624M169.683 12.726h-5.509v33.055h5.509zm-6.336-9.09a3.6 3.6 0 0 0 3.636 3.636 3.63 3.63 0 0 0 3.636-3.636c0-1.983-1.652-3.636-3.636-3.636a3.633 3.633 0 0 0-3.636 3.636M192.656 11.9h-.11c-6.831 0-9.751 3.801-10.688 5.564v-4.738h-5.509v33.055h5.509V28.097c0-3.802 1.488-11.239 9.035-11.239 8.099 0 9.2 6.17 9.256 9.2v19.723h5.509V26.279c0-10.247-7.327-14.379-13.002-14.379M217.778 35.369V17.85h11.018v-5.069h-11.018V3.416h-5.509v31.677c.055 6.556 3.966 10.688 10.137 10.743l6.39-.055v-5.013h-5.564c-1.708 0-5.399-.055-5.454-5.399" style="fill:#eee;fill-rule:nonzero"/><path d="M235.407 45.781V40.74h9.93c9.95 0 18.029-8.079 18.029-18.029v-9.93h5.041v9.93c0 12.733-10.337 23.07-23.07 23.07z" style="fill:url(#a)"/><path d="M268.407 12.781v5.042h-9.929c-9.951 0-18.029 8.078-18.029 18.029v9.929h-5.042v-9.929c0-12.733 10.338-23.071 23.071-23.071z" style="fill:url(#b)"/><defs><linearGradient id="a" x1="0" x2="1" y1="0" y2="0" gradientTransform="rotate(-90 150.74 -110.348)scale(22.2227)" gradientUnits="userSpaceOnUse"><stop offset="0" style="stop-color:#00b85c;stop-opacity:1"/><stop offset="1" style="stop-color:#008f47;stop-opacity:1"/></linearGradient><linearGradient id="b" x1="0" x2="1" y1="0" y2="0" gradientTransform="rotate(-90 139.16 -98.768)scale(22.2227)" gradientUnits="userSpaceOnUse"><stop offset="0" style="stop-color:#00b85c;stop-opacity:1"/><stop offset="1" style="stop-color:#0c6;stop-opacity:1"/></linearGradient></defs></svg>