<svg xmlns="http://www.w3.org/2000/svg" xml:space="preserve" style="fill-rule:evenodd;clip-rule:evenodd;stroke-linejoin:round;stroke-miterlimit:2" viewBox="0 0 346 75"><path d="M21.113 88.556h5.27V73.183h.302c.855 1.406 3.57 4.467 8.648 4.467 7.29 0 12.46-5.723 12.46-13.865 0-8.147-5.17-13.72-12.762-13.72-5.229 0-7.743 3.363-8.446 4.417h-.352v-3.764h-5.12v37.838Zm13.265-15.674c-4.626 0-8.145-3.367-8.145-9.046 0-4.981 3.016-9.003 8.044-9.003 4.877 0 8.145 3.519 8.145 8.999 0 5.281-3.268 9.05-8.044 9.05ZM54.182 88.556h5.271V73.183h.302c.854 1.406 3.569 4.467 8.647 4.467 7.29 0 12.461-5.723 12.461-13.865 0-8.147-5.171-13.72-12.762-13.72-5.229 0-7.743 3.363-8.447 4.417h-.352v-3.764h-5.12v37.838Zm13.265-15.674c-4.625 0-8.145-3.367-8.145-9.046 0-4.981 3.017-9.003 8.045-9.003 4.877 0 8.144 3.519 8.144 8.999 0 5.281-3.267 9.05-8.044 9.05ZM87.252 76.997h5.271V64.03c0-4.875 2.563-8.242 7.036-8.242h2.462v-5.12h-2.312c-3.719 0-6.232 2.51-7.036 4.618h-.351v-4.568h-5.07v26.279ZM108.109 76.997h5.27v-15.48c0-3.869 2.615-6.533 5.934-6.533s5.682 2.312 5.682 5.981v16.032h5.271V61.668c0-4.221 2.665-6.684 5.984-6.684 3.47 0 5.531 2.312 5.531 6.584v15.429h5.271V59.758c0-5.677-3.815-9.693-9.595-9.693-3.57 0-6.336 1.305-8.094 4.417h-.352c-1.506-2.66-4.267-4.417-8.039-4.417-3.771 0-6.235 1.907-7.391 4.116h-.352v-3.463h-5.12v26.279ZM157.308 46.591c2.059 0 3.515-1.356 3.515-3.364 0-1.908-1.456-3.314-3.515-3.314-2.009 0-3.465 1.406-3.465 3.314 0 2.008 1.456 3.364 3.465 3.364Zm-2.661 30.406h5.271V50.718h-5.271v26.279ZM167.513 76.997h5.271V61.672c0-3.823 2.715-6.688 6.386-6.688 3.319 0 5.883 2.463 5.883 6.131v15.882h5.271V60.11c0-5.678-3.664-10.045-9.645-10.045-3.923 0-6.638 2.008-7.694 4.166h-.352v-3.513h-5.12v26.279ZM208.769 76.997h4.372V72.53h-3.568c-2.765 0-3.82-1.508-3.82-4.022V55.034h7.639v-4.316h-7.639V43.28h-4.97v5.78c0 1.055-.652 1.709-1.557 1.709h-3.468v4.265h4.724v13.625c0 5.477 3.113 8.338 8.287 8.338Z" style="fill:#ebebeb;fill-rule:nonzero" transform="translate(-32.417 -61.284) scale(1.53545)"/><path d="m227.582 88.876-.653-4.314h4.287c7.675 0 13.906-6.231 13.906-13.906v-4.287l4.314.653v3.634c0 10.056-8.164 18.22-18.22 18.22h-3.634Z" style="fill:url(#a)" transform="matrix(1.54192 0 0 1.54192 -38.831 -80.099)"/><path d="M249.436 62.708v4.314h-7.948c-7.675 0-13.906 6.231-13.906 13.906v7.948h-4.314v-7.948c0-10.056 8.164-18.22 18.22-18.22h7.948Z" style="fill:#0c6" transform="matrix(1.54192 0 0 1.54192 -38.831 -80.099)"/><defs><linearGradient id="a" x1="0" x2="1" y1="0" y2="0" gradientTransform="rotate(-90 165.92 -81.358) scale(17.5404)" gradientUnits="userSpaceOnUse"><stop offset="0" style="stop-color:#15ab57;stop-opacity:1"/><stop offset="1" style="stop-color:#148a48;stop-opacity:1"/></linearGradient></defs></svg>