<svg xmlns="http://www.w3.org/2000/svg" xml:space="preserve" viewBox="0 0 282 59"><path d="M34.112 29.707c0-10.7-7.741-17.371-16.615-17.371-8.875 0-12.021 6.545-12.021 6.545v-5.664H0v44.937h5.476V40.595s3.146 6.482 12.021 6.482 16.615-6.671 16.615-17.37m-28.636.063c0-5.917 2.643-12.336 12.147-12.336 6.23 0 11.014 5.287 11.014 12.273s-4.784 12.335-11.014 12.335c-9.504 0-12.147-6.356-12.147-12.272M75.777 29.707c0-10.7-7.741-17.371-16.616-17.371S47.14 18.881 47.14 18.881v-5.664h-5.475v44.937h5.475V40.595s3.147 6.482 12.021 6.482 16.616-6.671 16.616-17.37m-28.637.063c0-5.917 2.644-12.336 12.147-12.336 6.231 0 11.014 5.287 11.014 12.273s-4.783 12.335-11.014 12.335c-9.503 0-12.147-6.356-12.147-12.272M88.868 27.567c0-5.979 3.965-9.315 9.504-9.315h4.846v-5.035h-4.783c-7.175 0-9.567 5.601-9.567 5.601v-5.601h-5.539v32.979h5.539zM125.498 17.371c3.902 0 8.308 1.636 8.433 8.559v20.266h5.539v-19.51c0-4.154 2.517-9.315 9.504-9.315 4.028 0 8.181 1.951 8.181 8.685l-.063 20.14h5.539l-.126-20.077c-.063-9.629-6.482-13.846-13.028-13.846-4.594 0-9.252 2.329-11.643 6.986-2.77-5.539-7.994-6.923-11.203-6.923-5.539 0-8.812 3.65-10.322 6.482v-5.601h-5.539v32.979h5.539v-19.51c0-4.217 2.643-9.315 9.189-9.315M170.561 3.65a3.654 3.654 0 0 0 3.651 3.651 3.653 3.653 0 0 0 3.65-3.651 3.65 3.65 0 0 0-3.65-3.65 3.653 3.653 0 0 0-3.651 3.65m.881 42.546h5.539V13.217h-5.539zM202.156 12.336h-.063c-6.797 0-9.755 4.72-10.762 6.482v-5.601h-5.539v32.979h5.539v-19.51c0-4.217 2.832-9.315 9.063-9.315 8.119 0 9.126 5.538 9.188 8.559v20.266h5.539V26.119c0-10.322-7.301-13.783-12.965-13.783M229.471 35.749V18.252h11.014v-5.035h-11.014V3.776h-5.539v31.658c.126 6.545 4.028 10.699 10.196 10.762h6.357v-5.035h-5.476c-1.699 0-5.412 0-5.538-5.412" fill="currentColor" /><path d="M248.037 46.196v-5.041h9.93c9.95 0 18.029-8.079 18.029-18.029v-9.93h5.041v9.93c0 12.733-10.337 23.07-23.07 23.07z" style="fill:url(#a)"/><path d="M281.037 13.196v5.042h-9.929c-9.951 0-18.029 8.078-18.029 18.029v9.929h-5.042v-9.929c0-12.733 10.338-23.071 23.071-23.071z" style="fill:url(#b)"/><defs><linearGradient id="a" x1="0" x2="1" y1="0" y2="0" gradientTransform="rotate(-90 157.263 -116.455)scale(22.2227)" gradientUnits="userSpaceOnUse"><stop offset="0" style="stop-color:#3da447;stop-opacity:1"/><stop offset="1" style="stop-color:#32863a;stop-opacity:1"/></linearGradient><linearGradient id="b" x1="0" x2="1" y1="0" y2="0" gradientTransform="rotate(-90 145.683 -104.875)scale(22.2227)" gradientUnits="userSpaceOnUse"><stop offset="0" style="stop-color:#3da447;stop-opacity:1"/><stop offset="1" style="stop-color:#4b5;stop-opacity:1"/></linearGradient></defs></svg>