<svg xmlns="http://www.w3.org/2000/svg" xml:space="preserve" style="fill-rule:evenodd;clip-rule:evenodd;stroke-linejoin:round;stroke-miterlimit:2" viewBox="0 0 245 55"><path d="M211.27 42.349v-5.041h9.93c9.95 0 18.029-8.079 18.029-18.029v-9.93h5.041v9.93c0 12.733-10.337 23.07-23.07 23.07z" style="fill:url(#a)"/><path d="M244.27 9.349v5.042h-9.929c-9.951 0-18.029 8.078-18.029 18.029v9.929h-5.042V32.42c0-12.733 10.338-23.071 23.071-23.071z" style="fill:url(#b)"/><path d="M204.659 25.897c0-10.372-7.165-17.349-17.096-17.349s-17.034 6.977-17.034 17.349 7.102 17.348 17.034 17.348 17.096-6.977 17.096-17.348m-5.531 0c0 7.92-5.028 12.319-11.565 12.319s-11.503-4.399-11.503-12.319 4.966-12.32 11.503-12.32 11.565 4.4 11.565 12.32" style="fill:#eee"/><path d="M204.659 25.897c0-10.372-7.165-17.349-17.096-17.349s-17.034 6.977-17.034 17.349 7.102 17.348 17.034 17.348 17.096-6.977 17.096-17.348" style="fill:none"/><path d="M199.128 25.897c0 7.92-5.028 12.319-11.565 12.319s-11.503-4.399-11.503-12.319 4.966-12.32 11.503-12.32 11.565 4.4 11.565 12.32" style="fill:none"/><path d="M153.243 31.931V14.457h11V9.428h-11V0h-5.531v31.617c.126 6.537 4.023 10.685 10.182 10.748h6.349v-5.028h-5.469c-1.697 0-5.405 0-5.531-5.406" style="fill:#eee"/><path d="M153.243 31.931V14.457h11V9.428h-11V0h-5.531v31.617c.126 6.537 4.023 10.685 10.182 10.748h6.349v-5.028h-5.469c-1.697 0-5.405 0-5.531-5.406" style="fill:none"/><path d="M104.844 25.897c0 10.685 7.731 17.348 16.594 17.348s12.005-6.537 12.005-6.537v5.657h5.469V9.366h-5.469v5.657s-3.142-6.537-12.005-6.537-16.594 6.725-16.594 17.411m28.599-.063c0 5.908-2.639 12.32-12.131 12.32-6.223 0-11-5.28-11-12.257s4.777-12.32 11-12.32c9.492 0 12.131 6.348 12.131 12.257" style="fill:#eee"/><path d="M104.844 25.897c0 10.685 7.731 17.348 16.594 17.348s12.005-6.537 12.005-6.537v5.657h5.469V9.366h-5.469v5.657s-3.142-6.537-12.005-6.537-16.594 6.725-16.594 17.411" style="fill:none"/><path d="M133.443 25.834c0 5.908-2.639 12.32-12.131 12.32-6.223 0-11-5.28-11-12.257s4.777-12.32 11-12.32c9.492 0 12.131 6.348 12.131 12.257" style="fill:none"/><path d="M87.559 31.931V14.457h10.999V9.428H87.559V0h-5.532v31.617c.126 6.537 4.023 10.685 10.183 10.748h6.348v-5.028H93.09c-1.697 0-5.406 0-5.531-5.406" style="fill:#eee"/><path d="M87.559 31.931V14.457h10.999V9.428H87.559V0h-5.532v31.617c.126 6.537 4.023 10.685 10.183 10.748h6.348v-5.028H93.09c-1.697 0-5.406 0-5.531-5.406" style="fill:none"/><path d="M74.484 25.897c0-10.372-7.165-17.349-17.096-17.349s-17.034 6.977-17.034 17.349 7.102 17.348 17.034 17.348 17.096-6.977 17.096-17.348m-5.531 0c0 7.92-5.028 12.319-11.565 12.319s-11.503-4.399-11.503-12.319 4.966-12.32 11.503-12.32 11.565 4.4 11.565 12.32" style="fill:#eee"/><path d="M74.484 25.897c0-10.372-7.165-17.349-17.096-17.349s-17.034 6.977-17.034 17.349 7.102 17.348 17.034 17.348 17.096-6.977 17.096-17.348" style="fill:none"/><path d="M68.953 25.897c0 7.92-5.028 12.319-11.565 12.319s-11.503-4.399-11.503-12.319 4.966-12.32 11.503-12.32 11.565 4.4 11.565 12.32" style="fill:none"/><path d="M34.068 25.897c0-10.686-7.731-17.349-16.594-17.349S5.468 15.085 5.468 15.085V9.428H0v44.88h5.468V36.771s3.143 6.474 12.006 6.474 16.594-6.663 16.594-17.348m-28.6.063c0-5.909 2.64-12.32 12.132-12.32 6.222 0 11 5.28 11 12.257s-4.778 12.319-11 12.319c-9.492 0-12.132-6.348-12.132-12.256" style="fill:#eee"/><path d="M34.068 25.897c0-10.686-7.731-17.349-16.594-17.349S5.468 15.085 5.468 15.085V9.428H0v44.88h5.468V36.771s3.143 6.474 12.006 6.474 16.594-6.663 16.594-17.348" style="fill:none"/><path d="M5.468 25.96c0-5.909 2.64-12.32 12.132-12.32 6.222 0 11 5.28 11 12.257s-4.778 12.319-11 12.319c-9.492 0-12.132-6.348-12.132-12.256" style="fill:none"/><defs><linearGradient id="a" x1="0" x2="1" y1="0" y2="0" gradientTransform="rotate(-90 136.956 -99.995)scale(22.2227)" gradientUnits="userSpaceOnUse"><stop offset="0" style="stop-color:#00b85c;stop-opacity:1"/><stop offset="1" style="stop-color:#008f47;stop-opacity:1"/></linearGradient><linearGradient id="b" x1="0" x2="1" y1="0" y2="0" gradientTransform="rotate(-90 125.376 -88.415)scale(22.2227)" gradientUnits="userSpaceOnUse"><stop offset="0" style="stop-color:#00b85c;stop-opacity:1"/><stop offset="1" style="stop-color:#0c6;stop-opacity:1"/></linearGradient></defs></svg>
