<?xml version="1.0" encoding="UTF-8" standalone="no"?>
<!DOCTYPE svg PUBLIC "-//W3C//DTD SVG 1.1//EN" "http://www.w3.org/Graphics/SVG/1.1/DTD/svg11.dtd">
<svg width="100%" height="100%" viewBox="0 0 307 67" version="1.1" xmlns="http://www.w3.org/2000/svg" xmlns:xlink="http://www.w3.org/1999/xlink" xml:space="preserve" xmlns:serif="http://www.serif.com/" style="fill-rule:evenodd;clip-rule:evenodd;stroke-linecap:square;stroke-miterlimit:1.5;">
    <g transform="matrix(0.104675,0,0,0.0226897,-208.756,4.89796)">
        <g transform="matrix(54.8126,0,0,252.869,6902.21,-13392.8)">
            <g transform="matrix(12,0,0,12,-43.112,61.028)">
            </g>
            <text x="-90.524px" y="61.028px" style="font-family:'Silka-Medium', 'Silka';font-weight:500;font-size:12px;fill:rgb(238,238,238);">pprmint</text>
        </g>
        <g transform="matrix(9.55338,0,0,44.0729,3833.47,-2103.76)">
            <g transform="matrix(1.37273,0,0,1.37273,-228.447,-28.0418)">
                <path d="M225.425,86.719L231.216,86.719C240.082,86.719 247.279,79.521 247.279,70.656L247.279,64.865" style="fill:none;stroke:url(#_Linear1);stroke-width:4.37px;"/>
            </g>
            <g transform="matrix(1.37273,0,0,1.37273,-228.447,-28.0418)">
                <path d="M247.279,64.865L241.488,64.865C232.622,64.865 225.425,72.062 225.425,80.928L225.425,86.719" style="fill:none;stroke:url(#_Linear2);stroke-width:4.37px;"/>
            </g>
        </g>
    </g>
    <defs>
        <linearGradient id="_Linear1" x1="0" y1="0" x2="1" y2="0" gradientUnits="userSpaceOnUse" gradientTransform="matrix(1.06366e-15,-17.3709,17.3709,1.06366e-15,243.529,84.4773)"><stop offset="0" style="stop-color:rgb(0,184,92);stop-opacity:1"/><stop offset="1" style="stop-color:rgb(0,143,71);stop-opacity:1"/></linearGradient>
        <linearGradient id="_Linear2" x1="0" y1="0" x2="1" y2="0" gradientUnits="userSpaceOnUse" gradientTransform="matrix(1.06366e-15,-17.3709,17.3709,1.06366e-15,225.425,84.4773)"><stop offset="0" style="stop-color:rgb(0,184,92);stop-opacity:1"/><stop offset="1" style="stop-color:rgb(0,204,102);stop-opacity:1"/></linearGradient>
    </defs>
</svg>
