<svg xmlns="http://www.w3.org/2000/svg" xml:space="preserve" style="fill-rule:evenodd;clip-rule:evenodd;stroke-linejoin:round;stroke-miterlimit:2" viewBox="0 0 64 64"><path d="M0 0h64v64H0z"/><clipPath id="a"><path d="M0 0h64v64H0z"/></clipPath><g clip-path="url(#a)"><g opacity=".25"><g opacity=".5"><path d="M0 0h4v1H0z" style="fill:#7f7f7f" transform="matrix(21.5 12.413 0 99.3042 -54 -18)"/><path d="M11 15H9v1h2v-1Zm4-1h-3v1h4v-2h-1v1ZM2 13H0v1h2v-1Zm3-2v2h1v-1h1v-1H5Zm11 0h-1v1h1v-1Zm-2 0h-2v1h2v-1ZM0 9h2v1h1V8H0v1Zm15 0h-4v1h4V9ZM7 9H6v1h3V9h1V8H7v1ZM5 8H4v1h1V8Zm4-2H7v1h2V6ZM6 6H3v1h3V6Zm10-1h-1v1h1V5ZM2 5H1v1h1V5Zm6-1h1v1h4V4h-3V3H8v1ZM6 3H5v1h1V3ZM4 3H2v1h2V3Zm0-3H0v1h4V0Z" style="fill:#8f8f8f" transform="matrix(5.375 3.10325 0 6.20651 -54 -18)"/><path d="M14 15h-1v1h1v-1Zm-6 0H6v1h2v-1Zm-5-1H1v1h2v-1Zm-2-1h2v1h2v-1H4v-1H1v1Zm12 0h-1v1h3v-1h-1v-1h-1v1Zm-6-1v2h3v-1H9v-1H7Zm9 0h-1v1h1v-1ZM3 10H2v1h1v-1Zm6 0H8v1h1v-1Zm2 0h-1v1h1v-1Zm-5 0H4v1h2v-1Zm10 0h-3v1h3v-1Zm0-2h-1v1h1V8ZM5 7H4v1h1V7Zm4-2v2h1v1h3V7h-1V6h-1V5H9ZM0 6v2h2V7H1V6H0Zm6 0v2h2V7H7V6H6Zm7-1h-1v1h1V5Zm2 0h-1v1h1V5Zm-1-1h-1v1h1V4ZM6 4H3v1h3V4ZM1 4H0v1h1V4Zm7 0H7v1h1V4Zm8-1h-3v1h3V3ZM2 2H1v1h1V2Zm2-1v2h3V2H5V1H4Zm7 1H8v1h3V2ZM3 1H2v1h1V1Zm11 0h-1v1h1V1Zm2 0h-1v1h1V1ZM7 0H5v1h2V0Zm2 0H8v1h1V0Zm3 0h-2v1h2V0Z" style="fill:#747474" transform="matrix(5.375 3.10325 0 6.20651 -54 -18)"/><path d="M15 12h-1v1h1v-1Zm-2 0h-2v1h2v-1ZM1 10H0v1h1v-1Zm7 0H6v1h2v-1ZM6 7H5v1h1V7ZM4 7H2v1h2V7Zm8-2h-1v1h1V5Zm2 0h-1v1h1V5ZM8 2H7v1h1V2ZM4 2H2v1h2V2Zm9-1h-2v1h2V1Zm-3-1H9v1h1V0Z" style="fill:#686868" transform="matrix(5.375 3.10325 0 6.20651 -54 -18)"/></g><g opacity=".75"><path d="M0 0h4v1H0z" style="fill:#7f7f7f" transform="matrix(21.5 -12.413 0 99.3042 32 31.652)"/><path d="M11 15H9v1h2v-1Zm4-1h-3v1h4v-2h-1v1ZM2 13H0v1h2v-1Zm3-2v2h1v-1h1v-1H5Zm11 0h-1v1h1v-1Zm-2 0h-2v1h2v-1ZM0 9h2v1h1V8H0v1Zm15 0h-4v1h4V9ZM7 9H6v1h3V9h1V8H7v1ZM5 8H4v1h1V8Zm4-2H7v1h2V6ZM6 6H3v1h3V6Zm10-1h-1v1h1V5ZM2 5H1v1h1V5Zm6-1h1v1h4V4h-3V3H8v1ZM6 3H5v1h1V3ZM4 3H2v1h2V3Zm0-3H0v1h4V0Z" style="fill:#8f8f8f" transform="matrix(5.375 -3.10325 0 6.20651 32 31.652)"/><path d="M14 15h-1v1h1v-1Zm-6 0H6v1h2v-1Zm-5-1H1v1h2v-1Zm-2-1h2v1h2v-1H4v-1H1v1Zm12 0h-1v1h3v-1h-1v-1h-1v1Zm-6-1v2h3v-1H9v-1H7Zm9 0h-1v1h1v-1ZM3 10H2v1h1v-1Zm6 0H8v1h1v-1Zm2 0h-1v1h1v-1Zm-5 0H4v1h2v-1Zm10 0h-3v1h3v-1Zm0-2h-1v1h1V8ZM5 7H4v1h1V7Zm4-2v2h1v1h3V7h-1V6h-1V5H9ZM0 6v2h2V7H1V6H0Zm6 0v2h2V7H7V6H6Zm7-1h-1v1h1V5Zm2 0h-1v1h1V5Zm-1-1h-1v1h1V4ZM6 4H3v1h3V4ZM1 4H0v1h1V4Zm7 0H7v1h1V4Zm8-1h-3v1h3V3ZM2 2H1v1h1V2Zm2-1v2h3V2H5V1H4Zm7 1H8v1h3V2ZM3 1H2v1h1V1Zm11 0h-1v1h1V1Zm2 0h-1v1h1V1ZM7 0H5v1h2V0Zm2 0H8v1h1V0Zm3 0h-2v1h2V0Z" style="fill:#747474" transform="matrix(5.375 -3.10325 0 6.20651 32 31.652)"/><path d="M15 12h-1v1h1v-1Zm-2 0h-2v1h2v-1ZM1 10H0v1h1v-1Zm7 0H6v1h2v-1ZM6 7H5v1h1V7ZM4 7H2v1h2V7Zm8-2h-1v1h1V5Zm2 0h-1v1h1V5ZM8 2H7v1h1V2ZM4 2H2v1h2V2Zm9-1h-2v1h2V1Zm-3-1H9v1h1V0Z" style="fill:#686868" transform="matrix(5.375 -3.10325 0 6.20651 32 31.652)"/></g><path d="M0 0h4v1H0z" style="fill:#7f7f7f" transform="matrix(21.5 -12.413 85.9999 49.652 -54 -17.652)"/><path d="M11 15H9v1h2v-1Zm4-1h-3v1h4v-2h-1v1ZM2 13H0v1h2v-1Zm3-2v2h1v-1h1v-1H5Zm11 0h-1v1h1v-1Zm-2 0h-2v1h2v-1ZM0 9h2v1h1V8H0v1Zm15 0h-4v1h4V9ZM7 9H6v1h3V9h1V8H7v1ZM5 8H4v1h1V8Zm4-2H7v1h2V6ZM6 6H3v1h3V6Zm10-1h-1v1h1V5ZM2 5H1v1h1V5Zm6-1h1v1h4V4h-3V3H8v1ZM6 3H5v1h1V3ZM4 3H2v1h2V3Zm0-3H0v1h4V0Z" style="fill:#8f8f8f" transform="scale(7.60138 4.38866) rotate(-45 -8.407 6.564)"/><path d="M14 15h-1v1h1v-1Zm-6 0H6v1h2v-1Zm-5-1H1v1h2v-1Zm-2-1h2v1h2v-1H4v-1H1v1Zm12 0h-1v1h3v-1h-1v-1h-1v1Zm-6-1v2h3v-1H9v-1H7Zm9 0h-1v1h1v-1ZM3 10H2v1h1v-1Zm6 0H8v1h1v-1Zm2 0h-1v1h1v-1Zm-5 0H4v1h2v-1Zm10 0h-3v1h3v-1Zm0-2h-1v1h1V8ZM5 7H4v1h1V7Zm4-2v2h1v1h3V7h-1V6h-1V5H9ZM0 6v2h2V7H1V6H0Zm6 0v2h2V7H7V6H6Zm7-1h-1v1h1V5Zm2 0h-1v1h1V5Zm-1-1h-1v1h1V4ZM6 4H3v1h3V4ZM1 4H0v1h1V4Zm7 0H7v1h1V4Zm8-1h-3v1h3V3ZM2 2H1v1h1V2Zm2-1v2h3V2H5V1H4Zm7 1H8v1h3V2ZM3 1H2v1h1V1Zm11 0h-1v1h1V1Zm2 0h-1v1h1V1ZM7 0H5v1h2V0Zm2 0H8v1h1V0Zm3 0h-2v1h2V0Z" style="fill:#747474" transform="scale(7.60138 4.38866) rotate(-45 -8.407 6.564)"/><path d="M15 12h-1v1h1v-1Zm-2 0h-2v1h2v-1ZM1 10H0v1h1v-1Zm7 0H6v1h2v-1ZM6 7H5v1h1V7ZM4 7H2v1h2V7Zm8-2h-1v1h1V5Zm2 0h-1v1h1V5ZM8 2H7v1h1V2ZM4 2H2v1h2V2Zm9-1h-2v1h2V1Zm-3-1H9v1h1V0Z" style="fill:#686868" transform="scale(7.60138 4.38866) rotate(-45 -8.407 6.564)"/></g><path d="m2293.56 1040.71-19.56-11.29-19.56 11.29v22.58l19.56 11.29 19.56-11.29v-22.58Zm-19.56-4.13 13.35 7.71v15.42l-13.35 7.71-13.35-7.71v-15.42l13.35-7.71Z" style="fill:url(#b)" transform="translate(-1828.29 -828.607) scale(.81807)"/><path d="M2251.43 1041.96v4.14l22.57 13.02 22.57-13.02v-4.14l-22.57-13.04-22.57 13.04Zm10.74 2.07 11.83 6.82 11.83-6.82-11.83-6.83-11.83 6.83Z" style="fill:#fa2" transform="translate(-1579.87 -715.804) scale(.70883)"/></g><defs><linearGradient id="b" x1="0" x2="1" y1="0" y2="0" gradientTransform="matrix(0 -10.9586 10.9586 0 2274 1054.92)" gradientUnits="userSpaceOnUse"><stop offset="0" style="stop-color:#df8f00;stop-opacity:1"/><stop offset="1" style="stop-color:#c07500;stop-opacity:1"/></linearGradient></defs></svg>