<svg xmlns="http://www.w3.org/2000/svg" xml:space="preserve" style="fill-rule:evenodd;clip-rule:evenodd;stroke-miterlimit:1.5" viewBox="0 0 64 64"><path d="M0 0h64v64H0z"/><clipPath id="a"><path d="M0 0h64v64H0z"/></clipPath><g clip-path="url(#a)"><g opacity=".25"><path d="M0 0h4v1H0z" style="fill:#7f7f7f;fill-opacity:.5" transform="matrix(21.5 12.413 0 99.3042 -54 -18)"/><path d="M0 0h4v1H0z" style="fill:#7f7f7f;fill-opacity:.75" transform="matrix(21.5 -12.413 0 99.3042 32 31.652)"/><path d="M0 0h4v1H0z" style="fill:#7f7f7f" transform="matrix(21.5 -12.413 86 49.6521 -54 -17.652)"/></g><path d="M32 32v17" style="fill:none;stroke:url(#b);stroke-width:2.8px" transform="matrix(.29167 0 0 .41176 .167 37.824)"/><path d="M32 32v17" style="fill:none;stroke:#fa2;stroke-width:2.8px" transform="matrix(0 -.29167 .41176 0 -7.176 63.833)"/><path d="M.05-.7V0h.1v-.5h.1v-.1h-.1v-.1h-.1Zm.4.2V0h.1v-.7h-.1v.1h-.1v.1h.1Zm-.1.2v-.2h-.1v.2h.1Z" style="fill:#eee;fill-rule:nonzero" transform="matrix(10.0093 0 0 10 14.5 58)"/><path d="M.05 0h.3v-.1h-.1v-.4h-.2v.1h.1v.3h-.1V0Zm.2-.7h-.1v.1h.1v-.1Z" style="fill:#eee;fill-rule:nonzero" transform="matrix(10.0093 0 0 10 20.495 58)"/><path d="M.55 0v-.4h-.1V0h.1Zm-.4 0v-.4h.3v-.1h-.4V0h.1Z" style="fill:#eee;fill-rule:nonzero" transform="matrix(10.0093 0 0 10 24.499 58)"/><path d="M.15-.5v-.2h-.1v.6h.1L.149 0H.35v-.1h-.2v-.3h.2v-.1h-.2Z" style="fill:#eee;fill-rule:nonzero" transform="matrix(10.0093 0 0 10 30.494 58)"/><path d="M.05-.7V0h.4v-.1h-.3v-.2h.3v-.1h-.3v-.2h.3v-.1h-.4Zm.5.6v-.2h-.1v.2h.1Zm0-.3v-.2h-.1v.2h.1Z" style="fill:#eee;fill-rule:nonzero" transform="matrix(10.0093 0 0 10 34.488 58)"/><path d="M.05 0h.3v-.1h-.1v-.4h-.2v.1h.1v.3h-.1V0Zm.2-.7h-.1v.1h.1v-.1Z" style="fill:#eee;fill-rule:nonzero" transform="matrix(10.0093 0 0 10 40.494 58)"/><path d="M.15-.5v-.2h-.1v.6h.1L.149 0H.35v-.1h-.2v-.3h.2v-.1h-.2Z" style="fill:#eee;fill-rule:nonzero" transform="matrix(10.0093 0 0 10 44.497 58)"/><path d="M-42.306 33.857h11.147V45h3.715V19h-14.862v3.714h11.147v7.429h-11.147v-7.429h-3.715V45h3.715V33.857Z" style="fill:#df8f00;fill-rule:nonzero" transform="matrix(.53829 0 0 .53846 39.773 14.77)"/><path d="M-5.151 41.286V30.143h-3.715v-3.714h-11.147V19h-3.715v26h14.862v-3.714h-11.147V30.143h11.147v11.143h3.715Z" style="fill:#fa2;fill-rule:nonzero" transform="matrix(.53829 0 0 .53846 39.773 14.77)"/><path d="M2.28 45h11.147v-3.714h3.715v-3.715h-3.715v3.715H2.28V45Zm-3.715-14.857v11.143H2.28V30.143h-3.715Zm14.862 0v-3.714H2.28v3.714h11.147v3.714h3.715v-3.714h-3.715Z" style="fill:#eee;fill-rule:nonzero" transform="matrix(.53829 0 0 .53846 39.773 14.77)"/></g><defs><linearGradient id="b" x1="0" x2="1" y1="0" y2="0" gradientTransform="matrix(0 -17 17 0 32 49)" gradientUnits="userSpaceOnUse"><stop offset="0" style="stop-color:#df8f00;stop-opacity:1"/><stop offset="1" style="stop-color:#c07500;stop-opacity:1"/></linearGradient></defs></svg>