<svg xmlns="http://www.w3.org/2000/svg" xml:space="preserve" style="fill-rule:evenodd;clip-rule:evenodd;stroke-miterlimit:1.5" viewBox="0 0 64 64"><path d="M0 0h64v64H0z"/><clipPath id="a"><path d="M0 0h64v64H0z"/></clipPath><g clip-path="url(#a)"><g opacity=".25"><path d="M0 0h4v1H0z" style="fill:#7f7f7f;fill-opacity:.5" transform="matrix(21.5 12.413 0 99.3042 -54 -18)"/><path d="M0 0h4v1H0z" style="fill:#7f7f7f;fill-opacity:.75" transform="matrix(21.5 -12.413 0 99.3042 32 31.652)"/><path d="M0 0h4v1H0z" style="fill:#7f7f7f" transform="matrix(21.5 -12.413 86 49.6521 -54 -17.652)"/></g><path d="m25 27 1 2h-5v6h5l-1 2h-6V27h6Z" style="fill:#df8f00"/><path d="M41 35h-2v-6h2v6Zm2-10v2h-4v-2h4Zm0 2h2v10h-2V27Zm0 10v2h-4v-2h4Z" style="fill:#eee"/><path d="M27 25v-2h2v-2h2v-2h6v26h-6v-2h-2v-2h-2v-2h-2V25h2Zm0 12h2v2h2v2h2v2h2V21h-2v2h-2v2h-2v2h-2v10Z" style="fill:#fa2"/><path d="M32 32v17" style="fill:none;stroke:url(#b);stroke-width:2.8px" transform="matrix(.29167 0 0 .41176 .167 37.824)"/><path d="M32 32v17" style="fill:none;stroke:#fa2;stroke-width:2.8px" transform="matrix(0 -.29167 .41176 0 -7.176 63.833)"/><path d="M.45-.1h-.4V0h.4v-.1Zm.1 0v-.2h-.1v.2h.1Zm-.4-.2h.3v-.1h-.3v.1Zm0-.1v-.2h-.1v.2h.1Zm.4-.3h-.4v.1h.4v-.1Z" style="fill:#eee;fill-rule:nonzero" transform="matrix(10.0115 0 0 10 14.5 58)"/><path d="M.45-.5h-.3v.1h.3v.3h-.3V0h.3v-.1h.1v-.3h-.1v-.1Zm-.4.1v.3h.1v-.3h-.1Z" style="fill:#eee;fill-rule:nonzero" transform="matrix(10.0115 0 0 10 20.496 58)"/><path d="M.55 0v-.5h-.1v.4h-.3V0h.4Zm-.4-.1v-.4h-.1v.4h.1Z" style="fill:#eee;fill-rule:nonzero" transform="matrix(10.0115 0 0 10 26.493 58)"/><path d="M.55 0v-.4h-.1V0h.1Zm-.4 0v-.4h.3v-.1h-.4V0h.1Z" style="fill:#eee;fill-rule:nonzero" transform="matrix(10.0115 0 0 10 32.49 58)"/><path d="M.15 0h.4v-.7h-.1v.2h-.3v.1h.3v.3h-.3V0Zm-.1-.4v.3h.1v-.3h-.1Z" style="fill:#eee;fill-rule:nonzero" transform="matrix(10.0115 0 0 10 38.487 58)"/><path d="M.45-.1h-.4V0h.4v-.1h.1v-.1h-.1v.1Zm0-.2h-.3v.1h.3v-.1Zm-.3-.1h-.1v.1h.1v-.1Zm.4-.1h-.4v.1h.4v-.1Z" style="fill:#eee;fill-rule:nonzero" transform="matrix(10.0115 0 0 10 44.494 58)"/></g><defs><linearGradient id="b" x1="0" x2="1" y1="0" y2="0" gradientTransform="matrix(0 -17 17 0 32 49)" gradientUnits="userSpaceOnUse"><stop offset="0" style="stop-color:#df8f00;stop-opacity:1"/><stop offset="1" style="stop-color:#c07500;stop-opacity:1"/></linearGradient></defs></svg>