<?xml version="1.0" encoding="UTF-8" standalone="no"?>
<!DOCTYPE svg PUBLIC "-//W3C//DTD SVG 1.1//EN" "http://www.w3.org/Graphics/SVG/1.1/DTD/svg11.dtd">
<svg width="100%" height="100%" viewBox="0 0 1920 1080" version="1.1" xmlns="http://www.w3.org/2000/svg" xmlns:xlink="http://www.w3.org/1999/xlink" xml:space="preserve" xmlns:serif="http://www.serif.com/" style="fill-rule:evenodd;clip-rule:evenodd;stroke-linejoin:round;stroke-miterlimit:2;">
    <rect id="Artboard1" x="0" y="0" width="1920" height="1080" style="fill:none;"/>
    <g id="Artboard11" serif:id="Artboard1">
        <path d="M213.701,212.087c-4.569,0.996 -8.366,2.685 -11.389,5.067c-2.931,2.362 -5.201,5.346 -6.808,8.951l-1.733,-7.951l-25.087,5.467l21.51,98.703l25.772,-5.617l-7.498,-34.408c2.902,2.335 6.112,3.885 9.629,4.65c3.609,0.745 7.561,0.65 11.856,-0.286c6.398,-1.394 11.487,-4.179 15.268,-8.353c3.853,-4.286 6.314,-9.466 7.384,-15.538c1.141,-6.185 0.935,-12.841 -0.618,-19.969c-1.554,-7.129 -4.126,-13.222 -7.717,-18.279c-3.52,-5.168 -7.913,-8.854 -13.18,-11.057c-5.195,-2.314 -10.991,-2.774 -17.389,-1.38Zm-3.392,21.992c2.833,-0.617 5.267,-0.43 7.302,0.563c2.107,0.881 3.85,2.511 5.231,4.891c1.36,2.288 2.438,5.26 3.235,8.916c0.797,3.656 1.063,6.853 0.798,9.591c-0.285,2.647 -1.192,4.855 -2.721,6.624c-1.458,1.658 -3.603,2.795 -6.436,3.413c-2.833,0.617 -5.303,0.485 -7.41,-0.396c-2.035,-0.992 -3.733,-2.633 -5.093,-4.921c-1.38,-2.38 -2.469,-5.397 -3.265,-9.053c-0.797,-3.656 -1.053,-6.807 -0.768,-9.454c0.265,-2.738 1.126,-4.936 2.583,-6.594c1.53,-1.769 3.711,-2.962 6.544,-3.58Z" style="fill:#c4b5fd;fill-rule:nonzero;"/>
        <path d="M299.045,271.606c-6.397,1.394 -12.229,0.99 -17.496,-1.213c-5.195,-2.314 -9.588,-6 -13.179,-11.057c-3.52,-5.168 -6.056,-11.317 -7.61,-18.445c-1.553,-7.129 -1.795,-13.73 -0.725,-19.802c1.141,-6.185 3.602,-11.364 7.383,-15.539c3.853,-4.285 8.978,-7.126 15.375,-8.52c4.296,-0.936 8.202,-1.021 11.719,-0.256c3.609,0.745 6.865,2.285 9.767,4.621l-1.524,-6.992l25.773,-5.616l15.535,71.285l-25.087,5.467l-1.733,-7.951c-1.608,3.605 -3.923,6.599 -6.946,8.981c-2.931,2.362 -6.682,4.041 -11.252,5.037Zm3.393,-21.992c2.833,-0.617 4.978,-1.755 6.436,-3.413c1.529,-1.769 2.436,-3.977 2.721,-6.624c0.265,-2.738 -0.001,-5.935 -0.798,-9.591c-0.797,-3.656 -1.875,-6.628 -3.235,-8.916c-1.381,-2.38 -3.124,-4.01 -5.231,-4.891c-2.035,-0.993 -4.469,-1.18 -7.302,-0.563c-2.833,0.618 -5.015,1.811 -6.544,3.58c-1.457,1.658 -2.318,3.856 -2.583,6.594c-0.285,2.647 -0.029,5.798 0.768,9.454c0.796,3.656 1.885,6.673 3.265,9.053c1.36,2.289 3.058,3.929 5.093,4.921c2.107,0.882 4.577,1.013 7.41,0.396Z" style="fill:#c4b5fd;fill-rule:nonzero;"/>
        <path d="M384.314,253.023c-6.398,1.394 -12.23,0.99 -17.496,-1.213c-5.196,-2.314 -9.589,-5.999 -13.18,-11.057c-3.52,-5.168 -6.056,-11.316 -7.61,-18.445c-1.553,-7.128 -1.795,-13.729 -0.725,-19.802c1.141,-6.184 3.602,-11.363 7.384,-15.538c3.852,-4.286 8.977,-7.126 15.374,-8.52c4.296,-0.936 8.202,-1.022 11.72,-0.257c3.608,0.746 6.864,2.286 9.766,4.621l-1.524,-6.991l25.773,-5.617l15.535,71.286l-25.087,5.467l-1.733,-7.951c-1.607,3.605 -3.923,6.598 -6.946,8.98c-2.931,2.363 -6.682,4.041 -11.251,5.037Zm3.392,-21.991c2.833,-0.618 4.979,-1.756 6.436,-3.413c1.529,-1.77 2.436,-3.978 2.721,-6.625c0.265,-2.738 -0.001,-5.935 -0.798,-9.59c-0.796,-3.656 -1.875,-6.628 -3.235,-8.916c-1.38,-2.38 -3.124,-4.01 -5.23,-4.892c-2.036,-0.992 -4.47,-1.18 -7.303,-0.562c-2.833,0.617 -5.014,1.811 -6.543,3.58c-1.458,1.658 -2.319,3.856 -2.584,6.594c-0.285,2.647 -0.029,5.798 0.768,9.454c0.797,3.655 1.885,6.673 3.265,9.053c1.36,2.288 3.058,3.928 5.093,4.921c2.107,0.881 4.577,1.013 7.41,0.396Z" style="fill:#c4b5fd;fill-rule:nonzero;"/>
        <path d="M418.046,169.278l27.691,-6.035l20.842,38.968l1.366,-43.808l23.579,-5.138l19.471,39.267l2.738,-44.107l27.691,-6.035l-8.181,76.454l-27.143,5.915l-19.524,-37.532l-2.136,42.253l-27.143,5.915l-39.251,-66.117Z" style="fill:#c4b5fd;fill-rule:nonzero;"/>
        <g transform="matrix(0.639462,0.1215,-0.1215,0.639462,1271.58,34.232)">
            <g transform="matrix(149.377,0,0,149.377,105,207)">
                <path d="M0.238,-0.539c0.036,0 0.068,0.005 0.097,0.015c0.029,0.01 0.056,0.025 0.082,0.045l-0.039,0.058c-0.024,-0.015 -0.047,-0.027 -0.069,-0.034c-0.021,-0.007 -0.044,-0.011 -0.068,-0.011c-0.03,0 -0.054,0.006 -0.071,0.019c-0.017,0.012 -0.026,0.029 -0.026,0.05c-0,0.021 0.008,0.038 0.024,0.05c0.017,0.012 0.046,0.024 0.089,0.035c0.059,0.015 0.102,0.035 0.131,0.06c0.029,0.025 0.044,0.06 0.044,0.104c0,0.052 -0.02,0.092 -0.061,0.119c-0.04,0.027 -0.089,0.041 -0.147,0.041c-0.08,0 -0.146,-0.023 -0.199,-0.069l0.049,-0.056c0.045,0.034 0.094,0.051 0.148,0.051c0.035,0 0.062,-0.007 0.082,-0.021c0.021,-0.015 0.031,-0.034 0.031,-0.059c0,-0.018 -0.004,-0.032 -0.011,-0.043c-0.007,-0.011 -0.02,-0.021 -0.038,-0.029c-0.018,-0.009 -0.044,-0.018 -0.079,-0.027c-0.056,-0.015 -0.097,-0.034 -0.122,-0.059c-0.025,-0.025 -0.037,-0.056 -0.037,-0.094c0,-0.027 0.008,-0.052 0.024,-0.074c0.017,-0.023 0.039,-0.04 0.068,-0.052c0.029,-0.013 0.062,-0.019 0.098,-0.019Z" style="fill:#8bedbb;fill-rule:nonzero;"/>
            </g>
            <g transform="matrix(149.377,0,0,149.377,174.759,207)">
                <path d="M0.293,-0.539c0.074,0 0.131,0.025 0.172,0.074c0.041,0.049 0.062,0.116 0.062,0.201c0,0.055 -0.009,0.103 -0.028,0.145c-0.019,0.041 -0.046,0.074 -0.081,0.097c-0.035,0.023 -0.077,0.034 -0.126,0.034c-0.074,0 -0.132,-0.025 -0.173,-0.074c-0.041,-0.049 -0.062,-0.116 -0.062,-0.201c0,-0.055 0.009,-0.103 0.028,-0.144c0.019,-0.042 0.046,-0.074 0.081,-0.097c0.035,-0.023 0.078,-0.035 0.127,-0.035Zm0,0.074c-0.091,0 -0.137,0.067 -0.137,0.202c0,0.134 0.045,0.201 0.136,0.201c0.091,0 0.136,-0.067 0.136,-0.202c0,-0.134 -0.045,-0.201 -0.135,-0.201Z" style="fill:#8bedbb;fill-rule:nonzero;"/>
            </g>
            <g transform="matrix(149.377,0,0,149.377,261.995,207)">
                <path d="M0.624,-0.539c0.043,0 0.078,0.015 0.104,0.044c0.026,0.029 0.039,0.068 0.039,0.117l0,0.378l-0.092,0l0,-0.365c0,-0.068 -0.025,-0.102 -0.074,-0.102c-0.026,0 -0.048,0.008 -0.066,0.023c-0.018,0.015 -0.037,0.038 -0.058,0.07l-0,0.374l-0.092,0l-0,-0.365c-0,-0.068 -0.025,-0.102 -0.074,-0.102c-0.027,0 -0.049,0.008 -0.067,0.023c-0.018,0.015 -0.037,0.039 -0.057,0.07l-0,0.374l-0.092,0l-0,-0.527l0.079,0l0.008,0.077c0.039,-0.059 0.09,-0.089 0.152,-0.089c0.033,0 0.06,0.008 0.083,0.025c0.023,0.017 0.04,0.04 0.05,0.07c0.021,-0.031 0.043,-0.054 0.068,-0.07c0.025,-0.017 0.055,-0.025 0.089,-0.025Z" style="fill:#8bedbb;fill-rule:nonzero;"/>
            </g>
            <g transform="matrix(149.377,0,0,149.377,390.011,207)">
                <path d="M0.493,-0.279c0,0.015 -0.001,0.031 -0.002,0.047l-0.336,0c0.004,0.058 0.019,0.101 0.044,0.128c0.025,0.027 0.058,0.041 0.098,0.041c0.025,0 0.049,-0.004 0.07,-0.011c0.021,-0.007 0.044,-0.019 0.067,-0.035l0.04,0.055c-0.056,0.044 -0.117,0.066 -0.184,0.066c-0.073,0 -0.131,-0.024 -0.172,-0.072c-0.041,-0.048 -0.061,-0.114 -0.061,-0.198c0,-0.055 0.009,-0.103 0.026,-0.145c0.018,-0.043 0.043,-0.076 0.076,-0.1c0.033,-0.024 0.072,-0.036 0.117,-0.036c0.07,0 0.124,0.023 0.161,0.069c0.037,0.046 0.056,0.11 0.056,0.191Zm-0.091,-0.027c0,-0.052 -0.01,-0.092 -0.031,-0.119c-0.021,-0.027 -0.052,-0.041 -0.093,-0.041c-0.075,0 -0.116,0.055 -0.123,0.166l0.247,0l0,-0.006Z" style="fill:#8bedbb;fill-rule:nonzero;"/>
            </g>
            <g transform="matrix(149.377,0,0,149.377,471.422,207)">
                <path d="M0.361,-0.024c-0.035,0.024 -0.074,0.036 -0.118,0.036c-0.045,-0 -0.08,-0.013 -0.105,-0.038c-0.025,-0.026 -0.037,-0.063 -0.037,-0.112l0,-0.318l-0.092,0l-0,-0.071l0.092,0l0,-0.119l0.092,-0.011l0,0.13l0.125,0l-0.01,0.071l-0.115,0l0,0.314c-0,0.027 0.005,0.047 0.014,0.06c0.01,0.012 0.026,0.018 0.049,0.018c0.021,0 0.044,-0.007 0.07,-0.021l0.035,0.061Z" style="fill:#8bedbb;fill-rule:nonzero;"/>
            </g>
            <g transform="matrix(149.377,0,0,149.377,525.347,207)">
                <path d="M0.343,-0.539c0.048,0 0.085,0.014 0.112,0.043c0.027,0.029 0.041,0.068 0.041,0.118l0,0.378l-0.092,0l0,-0.365c0,-0.037 -0.007,-0.064 -0.022,-0.079c-0.014,-0.015 -0.035,-0.023 -0.062,-0.023c-0.027,0 -0.052,0.008 -0.073,0.024c-0.021,0.016 -0.041,0.039 -0.06,0.068l0,0.375l-0.092,0l0,-0.738l0.092,-0.01l0,0.294c0.041,-0.057 0.093,-0.085 0.156,-0.085Z" style="fill:#8bedbb;fill-rule:nonzero;"/>
            </g>
            <g transform="matrix(149.377,0,0,149.377,612.882,207)">
                <path d="M0.187,-0.527l0,0.527l-0.092,-0l0,-0.527l0.092,0Zm-0.047,-0.253c0.019,0 0.035,0.006 0.047,0.018c0.012,0.012 0.018,0.027 0.018,0.045c-0,0.018 -0.006,0.033 -0.018,0.045c-0.012,0.011 -0.028,0.017 -0.047,0.017c-0.019,-0 -0.034,-0.006 -0.046,-0.017c-0.012,-0.012 -0.018,-0.027 -0.018,-0.045c-0,-0.018 0.006,-0.033 0.018,-0.045c0.012,-0.012 0.027,-0.018 0.046,-0.018Z" style="fill:#8bedbb;fill-rule:nonzero;"/>
            </g>
            <g transform="matrix(149.377,0,0,149.377,655.006,207)">
                <path d="M0.343,-0.539c0.048,0 0.085,0.014 0.112,0.043c0.027,0.029 0.041,0.068 0.041,0.118l0,0.378l-0.092,0l0,-0.365c0,-0.037 -0.007,-0.064 -0.021,-0.079c-0.014,-0.015 -0.035,-0.023 -0.062,-0.023c-0.028,0 -0.053,0.008 -0.074,0.024c-0.021,0.016 -0.041,0.039 -0.06,0.069l0,0.374l-0.092,0l0,-0.527l0.079,0l0.008,0.078c0.019,-0.028 0.042,-0.05 0.069,-0.066c0.028,-0.016 0.059,-0.024 0.092,-0.024Z" style="fill:#8bedbb;fill-rule:nonzero;"/>
            </g>
            <g transform="matrix(149.377,0,0,149.377,742.541,207)">
                <path d="M0.52,-0.503c-0.02,0.007 -0.042,0.011 -0.066,0.013c-0.024,0.002 -0.053,0.003 -0.088,0.003c0.062,0.028 0.093,0.072 0.093,0.133c0,0.053 -0.018,0.096 -0.054,0.129c-0.036,0.033 -0.085,0.05 -0.147,0.05c-0.024,-0 -0.046,-0.003 -0.067,-0.01c-0.008,0.005 -0.014,0.013 -0.019,0.022c-0.005,0.009 -0.007,0.018 -0.007,0.027c0,0.029 0.023,0.043 0.069,0.043l0.084,0c0.035,-0 0.067,0.006 0.094,0.019c0.027,0.013 0.048,0.03 0.063,0.052c0.015,0.022 0.023,0.047 0.023,0.075c-0,0.051 -0.021,0.091 -0.063,0.118c-0.042,0.028 -0.103,0.042 -0.184,0.042c-0.057,-0 -0.102,-0.006 -0.135,-0.018c-0.033,-0.011 -0.056,-0.029 -0.07,-0.052c-0.014,-0.023 -0.021,-0.053 -0.021,-0.09l0.083,-0c-0,0.021 0.004,0.038 0.012,0.05c0.008,0.013 0.022,0.022 0.043,0.028c0.021,0.007 0.05,0.01 0.088,0.01c0.055,-0 0.095,-0.007 0.118,-0.021c0.024,-0.013 0.036,-0.034 0.036,-0.061c0,-0.025 -0.009,-0.043 -0.028,-0.056c-0.019,-0.013 -0.045,-0.019 -0.078,-0.019l-0.083,-0c-0.045,-0 -0.079,-0.009 -0.102,-0.028c-0.023,-0.019 -0.034,-0.043 -0.034,-0.072c0,-0.017 0.005,-0.034 0.015,-0.05c0.01,-0.016 0.024,-0.03 0.043,-0.043c-0.031,-0.016 -0.053,-0.036 -0.068,-0.059c-0.014,-0.024 -0.021,-0.053 -0.021,-0.087c0,-0.035 0.009,-0.067 0.026,-0.095c0.018,-0.028 0.042,-0.05 0.073,-0.065c0.031,-0.016 0.066,-0.024 0.104,-0.024c0.041,0.001 0.076,-0.001 0.104,-0.004c0.028,-0.004 0.051,-0.009 0.069,-0.015c0.019,-0.007 0.041,-0.016 0.068,-0.028l0.027,0.083Zm-0.268,0.03c-0.035,0 -0.062,0.011 -0.081,0.033c-0.019,0.021 -0.028,0.05 -0.028,0.085c0,0.036 0.01,0.065 0.029,0.087c0.019,0.021 0.047,0.032 0.082,0.032c0.036,0 0.063,-0.01 0.082,-0.031c0.019,-0.021 0.029,-0.051 0.029,-0.089c-0,-0.078 -0.038,-0.117 -0.113,-0.117Z" style="fill:#8bedbb;fill-rule:nonzero;"/>
            </g>
            <g transform="matrix(149.377,0,0,149.377,240.485,325.085)">
                <path d="M0.343,-0.539c0.048,0 0.085,0.014 0.112,0.043c0.027,0.029 0.041,0.068 0.041,0.118l0,0.378l-0.092,0l0,-0.365c0,-0.037 -0.007,-0.064 -0.021,-0.079c-0.014,-0.015 -0.035,-0.023 -0.062,-0.023c-0.028,0 -0.053,0.008 -0.074,0.024c-0.021,0.016 -0.041,0.039 -0.06,0.069l0,0.374l-0.092,0l0,-0.527l0.079,0l0.008,0.078c0.019,-0.028 0.042,-0.05 0.069,-0.066c0.028,-0.016 0.059,-0.024 0.092,-0.024Z" style="fill:#8bedbb;fill-rule:nonzero;"/>
            </g>
            <g transform="matrix(149.377,0,0,149.377,328.02,325.085)">
                <path d="M0.45,-0.123c0,0.021 0.004,0.037 0.011,0.048c0.007,0.01 0.018,0.018 0.033,0.023l-0.021,0.064c-0.027,-0.003 -0.049,-0.011 -0.066,-0.023c-0.017,-0.012 -0.029,-0.031 -0.037,-0.056c-0.035,0.053 -0.088,0.079 -0.157,0.079c-0.052,0 -0.093,-0.015 -0.123,-0.044c-0.03,-0.029 -0.045,-0.068 -0.045,-0.115c0,-0.056 0.02,-0.099 0.06,-0.129c0.041,-0.03 0.098,-0.045 0.172,-0.045l0.081,0l-0,-0.039c-0,-0.037 -0.009,-0.064 -0.027,-0.08c-0.018,-0.016 -0.046,-0.024 -0.083,-0.024c-0.039,0 -0.086,0.009 -0.142,0.028l-0.023,-0.067c0.065,-0.024 0.126,-0.036 0.182,-0.036c0.062,0 0.108,0.015 0.139,0.046c0.031,0.03 0.046,0.073 0.046,0.129l0,0.241Zm-0.216,0.066c0.053,0 0.094,-0.027 0.124,-0.082l0,-0.121l-0.069,0c-0.097,0 -0.146,0.036 -0.146,0.108c0,0.031 0.008,0.055 0.023,0.071c0.015,0.016 0.038,0.024 0.068,0.024Z" style="fill:#8bedbb;fill-rule:nonzero;"/>
            </g>
            <g transform="matrix(149.377,0,0,149.377,409.281,325.085)">
                <path d="M0.361,-0.024c-0.035,0.024 -0.074,0.036 -0.118,0.036c-0.045,-0 -0.08,-0.013 -0.105,-0.038c-0.025,-0.026 -0.037,-0.063 -0.037,-0.112l0,-0.318l-0.092,0l-0,-0.071l0.092,0l0,-0.119l0.092,-0.011l0,0.13l0.125,0l-0.01,0.071l-0.115,0l0,0.314c-0,0.027 0.005,0.047 0.014,0.06c0.01,0.012 0.026,0.018 0.049,0.018c0.021,0 0.044,-0.007 0.07,-0.021l0.035,0.061Z" style="fill:#8bedbb;fill-rule:nonzero;"/>
            </g>
            <g transform="matrix(149.377,0,0,149.377,463.206,325.085)">
                <path d="M0.487,-0l-0.079,-0l-0.007,-0.082c-0.02,0.033 -0.043,0.057 -0.069,0.072c-0.026,0.015 -0.058,0.022 -0.095,0.022c-0.046,-0 -0.082,-0.014 -0.108,-0.042c-0.026,-0.028 -0.039,-0.068 -0.039,-0.119l0,-0.378l0.092,0l0,0.368c0,0.036 0.006,0.062 0.019,0.077c0.013,0.015 0.033,0.022 0.062,0.022c0.051,0 0.095,-0.03 0.132,-0.091l0,-0.376l0.092,0l0,0.527Z" style="fill:#8bedbb;fill-rule:nonzero;"/>
            </g>
            <g transform="matrix(149.377,0,0,149.377,550.143,325.085)">
                <path d="M0.324,-0.539c0.019,0 0.036,0.002 0.052,0.006l-0.017,0.09c-0.016,-0.004 -0.031,-0.006 -0.046,-0.006c-0.033,0 -0.059,0.012 -0.079,0.036c-0.02,0.024 -0.036,0.061 -0.047,0.112l0,0.301l-0.092,0l0,-0.527l0.079,0l0.009,0.107c0.014,-0.039 0.033,-0.069 0.057,-0.089c0.024,-0.02 0.052,-0.03 0.084,-0.03Z" style="fill:#8bedbb;fill-rule:nonzero;"/>
            </g>
            <g transform="matrix(149.377,0,0,149.377,603.322,325.085)">
                <path d="M0.493,-0.279c0,0.015 -0.001,0.031 -0.002,0.047l-0.336,0c0.004,0.058 0.019,0.101 0.044,0.128c0.025,0.027 0.058,0.041 0.098,0.041c0.025,0 0.049,-0.004 0.07,-0.011c0.021,-0.007 0.044,-0.019 0.067,-0.035l0.04,0.055c-0.056,0.044 -0.117,0.066 -0.184,0.066c-0.073,0 -0.131,-0.024 -0.172,-0.072c-0.041,-0.048 -0.061,-0.114 -0.061,-0.198c0,-0.055 0.009,-0.103 0.026,-0.145c0.018,-0.043 0.043,-0.076 0.076,-0.1c0.033,-0.024 0.072,-0.036 0.117,-0.036c0.07,0 0.124,0.023 0.161,0.069c0.037,0.046 0.056,0.11 0.056,0.191Zm-0.091,-0.027c0,-0.052 -0.01,-0.092 -0.031,-0.119c-0.021,-0.027 -0.052,-0.041 -0.093,-0.041c-0.075,0 -0.116,0.055 -0.123,0.166l0.247,0l0,-0.006Z" style="fill:#8bedbb;fill-rule:nonzero;"/>
            </g>
        </g>
        <path d="M181.559,864.396l9.124,1.53l29.699,-28.921l-18.64,-39.001l-8.323,-1.395l1.234,-7.363l33.614,5.636l-1.234,7.363l-9.444,-1.584l13.526,29.257l0.64,0.107l21.369,-23.406l-9.925,-1.664l1.235,-7.363l28.972,4.858l-1.235,7.363l-9.123,-1.53l-28.338,28.656l18.559,39.481l8.323,1.395l-1.234,7.363l-33.774,-5.663l1.234,-7.363l9.444,1.584l-13.285,-29.71l-0.64,-0.108l-22.73,23.672l9.924,1.664l-1.234,7.363l-28.972,-4.858l1.234,-7.363Z" style="fill:#fea9ab;fill-rule:nonzero;"/>
        <path d="M271.356,879.452l9.124,1.53l29.699,-28.921l-18.64,-39l-8.323,-1.396l1.234,-7.363l33.614,5.636l-1.234,7.363l-9.444,-1.583l13.526,29.256l0.64,0.108l21.369,-23.406l-9.925,-1.664l1.235,-7.363l28.972,4.857l-1.235,7.363l-9.123,-1.529l-28.338,28.655l18.559,39.481l8.323,1.396l-1.234,7.363l-33.774,-5.663l1.234,-7.363l9.444,1.583l-13.285,-29.71l-0.64,-0.107l-22.73,23.671l9.924,1.664l-1.234,7.363l-28.972,-4.857l1.234,-7.364Z" style="fill:#fea9ab;fill-rule:nonzero;"/>
        <path d="M361.153,894.509l9.124,1.53l29.699,-28.921l-18.64,-39.001l-8.323,-1.396l1.235,-7.363l33.613,5.636l-1.234,7.363l-9.444,-1.583l13.526,29.257l0.64,0.107l21.369,-23.406l-9.925,-1.664l1.235,-7.363l28.972,4.858l-1.235,7.363l-9.123,-1.53l-28.338,28.655l18.559,39.481l8.323,1.396l-1.234,7.363l-33.774,-5.663l1.234,-7.363l9.444,1.584l-13.285,-29.711l-0.64,-0.107l-22.73,23.672l9.924,1.664l-1.234,7.363l-28.972,-4.858l1.234,-7.363Z" style="fill:#fea9ab;fill-rule:nonzero;"/>
        <path d="M1474.85,936.518l12.145,-120.84l-19.996,2.116l2.388,-23.81l67.173,-7.108l-2.194,23.79l-20.773,2.198l-12.146,120.84l-26.597,2.814Z" style="fill:#88d2ff;fill-rule:nonzero;"/>
        <path d="M1533.29,930.335l14.534,-144.65l28.15,-2.979l14.998,87.932l1.358,-0.144l2.929,-44.676l4.4,-45.618l23.88,-2.527l-14.34,144.63l-27.957,2.958l-15.109,-87.135l-1.165,0.123l-3.308,42.95l-4.297,46.589l-24.073,2.547Z" style="fill:#88d2ff;fill-rule:nonzero;"/>
        <path d="M1624.53,920.68l14.728,-144.671l26.403,-2.793l-6.555,66.066l-5.899,-5.658l35.721,-3.78l-7.281,7.249l6.534,-66.26l26.597,-2.815l-14.534,144.651l-26.597,2.814l6.932,-68.069l5.726,5.873l-35.722,3.779l7.282,-7.248l-6.738,68.048l-26.597,2.814Z" style="fill:#88d2ff;fill-rule:nonzero;"/>
        <path d="M134.355,278.589c27.598,-11.828 219.035,-123.216 229.806,-126.618c-41.076,44.237 -41.52,43.534 -88.233,81.753c-20.047,16.402 -61.458,34.121 -96.708,73.778c-0,-0 77.085,-65.518 245.259,-135.591c37.495,-15.623 43.867,-16.949 43.867,-16.949c-40.997,54.664 -212.358,156.528 -212.358,156.528c10.536,-3.512 9.927,-3.967 163.506,-80.756c100.696,-50.348 149.745,-53.852 163.506,-54.835" style="fill:none;stroke:#eee;stroke-width:16px;stroke-linejoin:miter;"/>
        <path d="M229.593,797.332c-33.333,33.333 -49.212,65.09 -52.381,71.428c65.504,-40.939 128.457,-83.276 173.81,-105.952c-41.882,50.259 -143.379,79.406 -192.669,149.123c25.446,-3.635 169.559,-83.88 247.431,-109.837c-0,-0 -119.402,62.612 -144.694,113.197c88.038,-8.524 228.027,-72.721 228.027,-72.721c-64.286,42.857 -108.147,86.719 -116.667,95.238" style="fill:none;stroke:#eee;stroke-width:16px;stroke-linejoin:miter;"/>
        <path d="M1406.97,946.141c57.964,-28.982 215.026,-107.141 373.809,-163.095" style="fill:none;stroke:#eee;stroke-width:16px;stroke-linejoin:miter;"/>
        <path d="M1402.21,821.141c-0,0 74.243,25 201.19,25c165.476,0 182.33,8.427 196.429,15.477" style="fill:none;stroke:#eee;stroke-width:16px;stroke-linejoin:miter;"/>
        <path d="M1327.88,138.774c4.843,17.249 3.122,40.423 51.269,27.036c38.429,-10.684 40.209,-4.342 41.035,-1.399c10.815,38.523 126.769,9.779 133.339,24.238c7.689,16.917 65.86,12.927 103.198,25.945c11.98,4.176 20.775,8.701 22.506,9.591c27.112,13.947 55.384,-9.244 109.196,18.438" style="fill:none;stroke:#eee;stroke-width:16px;stroke-linejoin:miter;"/>
        <path d="M1383.16,256.272c21.176,10.8 49.208,8.524 60.719,-2.987c5.452,-5.452 12.226,12.894 17.858,13.095c28.551,1.019 86.147,-3.896 90.476,4.762c3.543,7.087 32.705,23.45 55.952,25c30.94,2.062 33.382,-4.428 58.333,14.285c4.55,3.412 10.967,5.46 17.805,7.007" style="fill:none;stroke:#eee;stroke-width:16px;stroke-linejoin:miter;"/>
        <rect x="421.637" y="415.762" width="1076.73" height="248.475" style="fill:#6366f1;"/>
        <path d="M504.462,609.021l55.217,-0l-0,-27.608l-27.609,-0l0,-27.609l27.609,0l-0,-27.608l-27.609,-0l0,-55.217l-27.608,0l-0,55.217l-27.608,-0l-0,27.608l27.608,0l-0,55.217Z" style="fill:#eef2ff;fill-rule:nonzero;"/>
        <path d="M614.895,609.021l55.217,-0l0,-27.608l-27.608,-0l-0,-27.609l27.608,0l0,-27.608l-27.608,-0l-0,27.608l-27.609,0l0,-27.608l27.609,-0l-0,-27.609l-27.609,0l0,27.609l-27.608,-0l0,55.217l27.608,-0l0,27.608Z" style="fill:#eef2ff;fill-rule:nonzero;"/>
        <path d="M752.937,609.021l27.609,-0l-0,-82.825l-27.609,-0l0,82.825Zm-55.216,-0l27.608,-0l-0,-82.825l27.608,-0l0,-27.609l-55.216,0l-0,110.434Z" style="fill:#eef2ff;fill-rule:nonzero;"/>
        <path d="M835.762,609.021l55.217,-0l0,-27.608l-27.608,-0l-0,-27.609l27.608,0l0,-27.608l-27.608,-0l-0,-55.217l-27.609,0l0,55.217l-27.608,-0l-0,27.608l27.608,0l0,55.217Z" style="fill:#eef2ff;fill-rule:nonzero;"/>
        <path d="M1001.41,609.021l-0,-110.434l-55.217,0l-0,27.609l27.608,-0l0,55.217l-27.608,-0l-0,27.608l55.217,-0Zm-55.217,-27.608l-0,-55.217l-27.609,-0l0,55.217l27.609,-0Z" style="fill:#eef2ff;fill-rule:nonzero;"/>
        <path d="M1056.63,609.021l55.217,-0l0,-27.608l-27.608,-0l-0,-27.609l27.608,0l0,-27.608l-27.608,-0l-0,-55.217l-27.609,0l0,55.217l-27.608,-0l-0,27.608l27.608,0l0,55.217Z" style="fill:#eef2ff;fill-rule:nonzero;"/>
        <path d="M1167.06,609.021l27.608,-0l0,-82.825l-27.608,-0l-0,82.825Zm-0,-110.434l27.608,0l0,-27.608l-27.608,0l-0,27.608Z" style="fill:#eef2ff;fill-rule:nonzero;"/>
        <path d="M1277.5,609.021l27.609,-0l-0,-27.608l27.608,-0l-0,-82.826l-27.608,0l-0,82.826l-27.609,-0l0,27.608Zm0,-27.608l0,-82.826l-27.608,0l-0,82.826l27.608,-0Z" style="fill:#eef2ff;fill-rule:nonzero;"/>
        <path d="M1387.93,609.021l55.216,-0l0,-27.608l-27.608,-0l0,-27.609l27.608,0l0,-27.608l-27.608,-0l0,27.608l-27.608,0l-0,-27.608l27.608,-0l0,-27.609l-27.608,0l-0,27.609l-27.609,-0l0,55.217l27.609,-0l-0,27.608Z" style="fill:#eef2ff;fill-rule:nonzero;"/>
    </g>
</svg>
