<?xml version="1.0" encoding="UTF-8" standalone="no"?>
<!DOCTYPE svg PUBLIC "-//W3C//DTD SVG 1.1//EN" "http://www.w3.org/Graphics/SVG/1.1/DTD/svg11.dtd">
<svg width="100%" height="100%" viewBox="0 0 1000 1000" version="1.1" xmlns="http://www.w3.org/2000/svg" xmlns:xlink="http://www.w3.org/1999/xlink" xml:space="preserve" xmlns:serif="http://www.serif.com/" style="fill-rule:evenodd;clip-rule:evenodd;stroke-linejoin:round;stroke-miterlimit:2;">
    <g transform="matrix(1,0,0,1,-2100,0)">
        <g id="Bubbles" transform="matrix(1.95312,0,0,1.95312,2100,0)">
            <rect x="0" y="0" width="512" height="512" style="fill:none;"/>
            <g transform="matrix(0.262958,0.131479,1.84205e-17,0.371002,-630.322,-27.5072)">
                <path d="M3387.64,-747.294C3387.64,-667.076 3314.13,-601.949 3223.59,-601.949L2655.72,-601.949C2637.61,-601.949 2622.91,-614.975 2622.91,-631.018L2622.91,-747.294C2622.91,-827.512 2696.42,-892.638 2786.96,-892.638L3223.59,-892.638C3314.13,-892.638 3387.64,-827.512 3387.64,-747.294Z" style="fill:url(#_Linear1);"/>
                <path d="M3387.64,-747.294C3387.64,-667.076 3314.13,-601.949 3223.59,-601.949L2655.72,-601.949C2637.61,-601.949 2622.91,-614.975 2622.91,-631.018L2622.91,-747.294C2622.91,-827.512 2696.42,-892.638 2786.96,-892.638L3223.59,-892.638C3314.13,-892.638 3387.64,-827.512 3387.64,-747.294ZM3372.07,-741.774C3372.07,-818.021 3302.69,-880.295 3216.63,-880.295L2779.99,-880.295C2741.09,-880.295 2705.84,-867.133 2680.33,-844.528C2653.8,-821.024 2638.48,-788.647 2638.48,-752.814L2638.48,-636.539C2638.48,-624.465 2649.06,-614.293 2662.68,-614.293L3230.56,-614.293C3269.46,-614.293 3304.71,-627.455 3330.22,-650.06C3356.75,-673.564 3372.07,-705.941 3372.07,-741.774Z" style="fill:url(#_Linear2);"/>
            </g>
            <g transform="matrix(0.421225,0.210612,1.84205e-17,0.371002,-1045.44,-118.019)">
                <path d="M3387.64,-747.294C3387.64,-667.076 3341.75,-601.949 3285.23,-601.949L2725.32,-601.949C2668.8,-601.949 2622.91,-667.076 2622.91,-747.294L2622.91,-863.569C2622.91,-879.613 2632.09,-892.638 2643.39,-892.638L3285.23,-892.638C3341.75,-892.638 3387.64,-827.512 3387.64,-747.294Z" style="fill:url(#_Linear3);"/>
                <path d="M3387.64,-747.294C3387.64,-667.076 3341.75,-601.949 3285.23,-601.949L2725.32,-601.949C2668.8,-601.949 2622.91,-667.076 2622.91,-747.294L2622.91,-863.569C2622.91,-879.613 2632.09,-892.638 2643.39,-892.638L3285.23,-892.638C3341.75,-892.638 3387.64,-827.512 3387.64,-747.294ZM3377.92,-741.774C3377.92,-818.021 3334.61,-880.295 3280.88,-880.295L2639.04,-880.295C2637.35,-880.295 2635.86,-880.179 2634.74,-878.6C2633.01,-876.133 2632.63,-872.851 2632.63,-869.09L2632.63,-752.814C2632.63,-676.567 2675.94,-614.293 2729.67,-614.293L3289.58,-614.293C3313.86,-614.293 3335.87,-627.455 3351.8,-650.06C3368.36,-673.564 3377.92,-705.941 3377.92,-741.774Z" style="fill:url(#_Linear4);"/>
            </g>
            <g transform="matrix(0.421225,0.210612,2.92026e-17,0.58816,-974.274,152.824)">
                <path d="M3387.64,-800.957L3387.64,-620.286C3387.64,-610.166 3378.47,-601.949 3367.16,-601.949L2725.32,-601.949C2668.8,-601.949 2622.91,-643.03 2622.91,-693.63L2622.91,-800.957C2622.91,-851.558 2668.8,-892.638 2725.32,-892.638L3285.23,-892.638C3341.75,-892.638 3387.64,-851.558 3387.64,-800.957Z" style="fill:url(#_Linear5);"/>
                <path d="M3387.64,-800.957L3387.64,-620.286C3387.64,-610.166 3378.47,-601.949 3367.16,-601.949L2725.32,-601.949C2668.8,-601.949 2622.91,-643.03 2622.91,-693.63L2622.91,-800.957C2622.91,-851.558 2668.8,-892.638 2725.32,-892.638L3285.23,-892.638C3341.75,-892.638 3387.64,-851.558 3387.64,-800.957ZM3377.92,-797.475C3377.92,-845.571 3334.61,-884.852 3280.88,-884.852L2720.97,-884.852C2696.69,-884.852 2674.68,-876.55 2658.75,-862.291C2642.19,-847.465 2632.63,-827.042 2632.63,-804.44L2632.63,-697.112C2632.63,-649.017 2675.94,-609.736 2729.67,-609.736L3371.51,-609.736C3373.21,-609.736 3374.69,-609.808 3375.81,-610.805C3377.55,-612.361 3377.92,-614.431 3377.92,-616.804L3377.92,-797.475Z" style="fill:url(#_Linear6);"/>
            </g>
        </g>
    </g>
    <defs>
        <linearGradient id="_Linear1" x1="0" y1="0" x2="1" y2="0" gradientUnits="userSpaceOnUse" gradientTransform="matrix(-170.668,290.689,-324.793,-5.86251,3048.64,-892.638)"><stop offset="0" style="stop-color:#333;stop-opacity:1"/><stop offset="1" style="stop-color:#222;stop-opacity:1"/></linearGradient>
        <linearGradient id="_Linear2" x1="0" y1="0" x2="1" y2="0" gradientUnits="userSpaceOnUse" gradientTransform="matrix(-137.035,290.689,-341.61,23.9351,3005.28,-892.638)"><stop offset="0" style="stop-color:#444;stop-opacity:1"/><stop offset="1" style="stop-color:#222;stop-opacity:1"/></linearGradient>
        <linearGradient id="_Linear3" x1="0" y1="0" x2="1" y2="0" gradientUnits="userSpaceOnUse" gradientTransform="matrix(-108.18,290.689,-201.94,-8.1858,3022.81,-892.638)"><stop offset="0" style="stop-color:#222;stop-opacity:1"/><stop offset="1" style="stop-color:#111;stop-opacity:1"/></linearGradient>
        <linearGradient id="_Linear4" x1="0" y1="0" x2="1" y2="0" gradientUnits="userSpaceOnUse" gradientTransform="matrix(-108.18,290.689,-201.94,-8.1858,3021.59,-892.638)"><stop offset="0" style="stop-color:#333;stop-opacity:1"/><stop offset="1" style="stop-color:#111;stop-opacity:1"/></linearGradient>
        <linearGradient id="_Linear5" x1="0" y1="0" x2="1" y2="0" gradientUnits="userSpaceOnUse" gradientTransform="matrix(-165.027,290.689,-323.378,-2.39074,3077.22,-892.638)"><stop offset="0" style="stop-color:#333;stop-opacity:1"/><stop offset="1" style="stop-color:#222;stop-opacity:1"/></linearGradient>
        <linearGradient id="_Linear6" x1="0" y1="0" x2="1" y2="0" gradientUnits="userSpaceOnUse" gradientTransform="matrix(-122.766,290.689,-344.509,35.4424,3078.72,-892.638)"><stop offset="0" style="stop-color:#444;stop-opacity:1"/><stop offset="1" style="stop-color:#222;stop-opacity:1"/></linearGradient>
    </defs>
</svg>
