<svg
    xmlns="http://www.w3.org/2000/svg"
    xml:space="preserve"
    style="fill-rule:evenodd;clip-rule:evenodd;stroke-linejoin:round;stroke-miterlimit:2"
    viewBox="0 0 2000 2000"
>
	<path
        id="oi mate so like one time i made these weird chat bubbles hey"
		d="M1955.09 218.633s.13 30.479 20.68 39.256a4.974 4.974 0 0 1 3.04 4.94 4.99 4.99 0 0 1-3.7 4.471c-3.34.799-7.55 1.333-12.84 1.333-18 0-26.83-10.274-26.83-10.274a49.766 49.766 0 0 1-30.35 10.274h-820.82c-27.6 0-50-22.405-50-50V68.6c0-27.596 22.4-50 50-50h820.82c27.59 0 50 22.404 50 50v150.033Zm-49.16-153.68h-116.15c-5.88 0-10.19 4.308-10.19 10.189v.136c0 5.881 4.31 10.189 10.19 10.189h116.15c5.89 0 10.19-4.308 10.19-10.189v-.136c0-5.881-4.3-10.189-10.19-10.189ZM1320.1 133.36h-153.91c-5.88 0-10.19 4.307-10.19 10.188v.137c0 5.88 4.31 10.188 10.19 10.188h153.91c5.88 0 10.19-4.308 10.19-10.188v-.137c0-5.881-4.31-10.188-10.19-10.188Zm585.83 0H1770.9c-5.88 0-10.19 4.307-10.19 10.188v.137c0 5.88 4.31 10.188 10.19 10.188h135.03c5.89 0 10.19-4.308 10.19-10.188v-.137c0-5.881-4.3-10.188-10.19-10.188Zm-764.37-68.407h-58.14c-5.88 0-10.19 4.308-10.19 10.189v.136c0 5.881 4.31 10.189 10.19 10.189h58.14c5.88 0 10.19-4.308 10.19-10.189v-.136c0-5.881-4.31-10.189-10.19-10.189Zm-46.17 78.595v.137c0 5.88 4.31 10.188 10.2 10.188h19.69c5.88 0 10.19-4.308 10.19-10.188v-.137c0-5.881-4.31-10.188-10.19-10.188h-19.69c-5.89 0-10.2 4.307-10.2 10.188Zm340.04-78.595h-77.02c-5.88 0-10.19 4.308-10.19 10.189v.136c0 5.881 4.31 10.189 10.19 10.189h77.02c5.89 0 10.2-4.308 10.2-10.189v-.136c0-5.881-4.31-10.189-10.2-10.189Zm294.56 68.407H1575.4c-5.88 0-10.19 4.307-10.19 10.188v.137c0 5.88 4.31 10.188 10.19 10.188h154.59c5.88 0 10.19-4.308 10.19-10.188v-.137c0-5.881-4.31-10.188-10.19-10.188ZM1317.5 64.953h-135.03c-5.88 0-10.19 4.308-10.19 10.189v.136c0 5.881 4.31 10.189 10.19 10.189h135.03c5.88 0 10.19-4.308 10.19-10.189v-.136c0-5.881-4.31-10.189-10.19-10.189Zm588.43 136.813h-115.46c-5.88 0-10.19 4.308-10.19 10.188v.137c0 5.881 4.31 10.188 10.19 10.188h115.46c5.89 0 10.19-4.307 10.19-10.188v-.137c0-5.88-4.3-10.188-10.19-10.188ZM1592.5 64.953h-116.15c-5.89 0-10.19 4.308-10.19 10.189v.136c0 5.881 4.3 10.189 10.19 10.189h116.15c5.88 0 10.19-4.308 10.19-10.189v-.136c0-5.881-4.31-10.189-10.19-10.189Zm157.06 136.813h-250.37c-5.88 0-10.19 4.308-10.19 10.188v.137c0 5.881 4.31 10.188 10.19 10.188h250.37c5.88 0 10.19-4.307 10.19-10.188v-.137c0-5.88-4.31-10.188-10.19-10.188Zm-215.07-68.406h-173.48c-5.88 0-10.19 4.307-10.19 10.188v.137c0 5.88 4.31 10.188 10.19 10.188h173.48c5.88 0 10.19-4.308 10.19-10.188v-.137c0-5.881-4.31-10.188-10.19-10.188Zm214.38-68.407h-115.46c-5.88 0-10.19 4.308-10.19 10.189v.136c0 5.881 4.31 10.189 10.19 10.189h115.46c5.88 0 10.19-4.308 10.19-10.189v-.136c0-5.881-4.31-10.189-10.19-10.189Z"
		style="fill:#234977"
	/>
    <path
        id="and like i made them
        way too detailed for what they're worth"
		d="M1955.09 791.629s.13 30.48 20.68 39.257a4.974 4.974 0 0 1 3.04 4.94 4.99 4.99 0 0 1-3.7 4.47c-3.34.799-7.55 1.333-12.84 1.333-18 0-26.83-10.273-26.83-10.273a49.772 49.772 0 0 1-30.35 10.273h-845.82c-27.6 0-50-22.404-50-50v-75.033c0-27.596 22.4-50 50-50h875.82c11.04 0 20 8.962 20 20v105.033Zm-225.1-81.976h-77.7c-5.88 0-10.19 4.308-10.19 10.188v.137c0 5.88 4.31 10.188 10.19 10.188h77.7c5.89 0 10.19-4.308 10.19-10.188v-.137c0-5.88-4.3-10.188-10.19-10.188Zm175.94 0H1770.9c-5.88 0-10.19 4.308-10.19 10.188v.137c0 5.88 4.31 10.188 10.19 10.188h135.03c5.89 0 10.19-4.308 10.19-10.188v-.137c0-5.88-4.3-10.188-10.19-10.188Zm-294.55 0h-251.05c-5.88 0-10.19 4.308-10.19 10.188v.137c0 5.88 4.31 10.188 10.19 10.188h251.05c5.88 0 10.19-4.308 10.19-10.188v-.137c0-5.88-4.31-10.188-10.19-10.188Zm-291.96 0h-96.59c-5.88 0-10.19 4.308-10.19 10.188v.137c0 5.88 4.31 10.188 10.19 10.188h96.59c5.88 0 10.19-4.308 10.19-10.188v-.137c0-5.88-4.31-10.188-10.19-10.188Zm-137.5 0h-115.46c-5.88 0-10.19 4.308-10.19 10.188v.137c0 5.88 4.31 10.188 10.19 10.188h115.46c5.88 0 10.19-4.308 10.19-10.188v-.137c0-5.88-4.31-10.188-10.19-10.188Zm528.51 68.406h-212.6c-5.89 0-10.19 4.308-10.19 10.188v.137c0 5.881 4.3 10.188 10.19 10.188h212.6c5.88 0 10.19-4.307 10.19-10.188v-.137c0-5.88-4.31-10.188-10.19-10.188Zm195.5 0h-154.59c-5.88 0-10.19 4.308-10.19 10.188v.137c0 5.881 4.31 10.188 10.19 10.188h154.59c5.89 0 10.19-4.307 10.19-10.188v-.137c0-5.88-4.3-10.188-10.19-10.188ZM1955.09 596.629v30c0 11.039-8.96 20-20 20H1197c-27.6 0-50-22.404-50-50 0-27.595 22.4-50 50-50h708.09c27.59 0 50 22.405 50 50Zm-449.8-.068v.137c0 5.88 4.3 10.188 10.19 10.188h19.69c5.88 0 10.19-4.308 10.19-10.188v-.137c0-5.881-4.31-10.188-10.19-10.188h-19.69c-5.89 0-10.19 4.307-10.19 10.188Zm-187.79-10.188h-115.46c-5.88 0-10.19 4.307-10.19 10.188v.137c0 5.88 4.31 10.188 10.19 10.188h115.46c5.88 0 10.19-4.308 10.19-10.188v-.137c0-5.881-4.31-10.188-10.19-10.188Zm157.06 0h-116.15c-5.88 0-10.19 4.307-10.19 10.188v.137c0 5.88 4.31 10.188 10.19 10.188h116.15c5.88 0 10.19-4.308 10.19-10.188v-.137c0-5.881-4.31-10.188-10.19-10.188Zm431.37 0H1770.9c-5.88 0-10.19 4.307-10.19 10.188v.137c0 5.88 4.31 10.188 10.19 10.188h135.03c5.89 0 10.19-4.308 10.19-10.188v-.137c0-5.881-4.3-10.188-10.19-10.188Zm-175.94 0h-153.91c-5.88 0-10.19 4.307-10.19 10.188v.137c0 5.88 4.31 10.188 10.19 10.188h153.91c5.88 0 10.19-4.308 10.19-10.188v-.137c0-5.881-4.31-10.188-10.19-10.188Z"
		style="fill:#234977"
	/>
	<path
        id="so now theyre on this manky website and yea, hiya"
		d="M1955.09 1166.56s.13 30.48 20.68 39.26a4.982 4.982 0 0 1-.66 9.41c-3.34.8-7.55 1.33-12.84 1.33-18 0-26.83-10.27-26.83-10.27a49.788 49.788 0 0 1-30.35 10.27H929.268c-27.596 0-50-22.4-50-50v-75c0-27.59 22.404-50 50-50h975.822c27.59 0 50 22.41 50 50v75Zm-947.74-81.96h-77.021c-5.882 0-10.191 4.31-10.191 10.19v.14c0 5.88 4.309 10.19 10.191 10.19h77.021c5.88 0 10.19-4.31 10.19-10.19v-.14c0-5.88-4.31-10.19-10.19-10.19Zm508.26 0h-77.02c-5.89 0-10.19 4.31-10.19 10.19v.14c0 5.88 4.3 10.19 10.19 10.19h77.02c5.88 0 10.19-4.31 10.19-10.19v-.14c0-5.88-4.31-10.19-10.19-10.19Zm-117.94 0h-193.03c-5.88 0-10.19 4.31-10.19 10.19v.14c0 5.88 4.31 10.19 10.19 10.19h193.03c5.89 0 10.2-4.31 10.2-10.19v-.14c0-5.88-4.31-10.19-10.2-10.19Zm0 68.41h-231.48c-5.88 0-10.19 4.31-10.19 10.19v.14c0 5.88 4.31 10.18 10.19 10.18h231.48c5.89 0 10.2-4.3 10.2-10.18v-.14c0-5.88-4.31-10.19-10.2-10.19Zm156.38 0h-115.46c-5.89 0-10.19 4.31-10.19 10.19v.14c0 5.88 4.3 10.18 10.19 10.18h115.46c5.88 0 10.19-4.3 10.19-10.18v-.14c0-5.88-4.31-10.19-10.19-10.19Zm175.94 0h-135.03c-5.88 0-10.19 4.31-10.19 10.19v.14c0 5.88 4.31 10.18 10.19 10.18h135.03c5.89 0 10.19-4.3 10.19-10.18v-.14c0-5.88-4.3-10.19-10.19-10.19Zm-566.26-68.41h-115.47c-5.88 0-10.19 4.31-10.19 10.19v.14c0 5.88 4.31 10.19 10.19 10.19h115.47c5.88 0 10.19-4.31 10.19-10.19v-.14c0-5.88-4.31-10.19-10.19-10.19Zm508.94 0h-116.15c-5.88 0-10.19 4.31-10.19 10.19v.14c0 5.88 4.31 10.19 10.19 10.19h116.15c5.88 0 10.19-4.31 10.19-10.19v-.14c0-5.88-4.31-10.19-10.19-10.19Zm233.26 0h-192.35c-5.88 0-10.19 4.31-10.19 10.19v.14c0 5.88 4.31 10.19 10.19 10.19h192.35c5.89 0 10.19-4.31 10.19-10.19v-.14c0-5.88-4.3-10.19-10.19-10.19Zm0 68.41H1770.9c-5.88 0-10.19 4.31-10.19 10.19v.14c0 5.88 4.31 10.18 10.19 10.18h135.03c5.89 0 10.19-4.3 10.19-10.18v-.14c0-5.88-4.3-10.19-10.19-10.19Z"
		style="fill:#234977"
	/>
	<path
        id="dunno"
		d="M1955.09 1781.43s.13 30.48 20.68 39.26c1.97.83 3.19 2.81 3.04 4.94a4.993 4.993 0 0 1-3.7 4.47c-3.34.8-7.55 1.33-12.84 1.33-18 0-26.83-10.27-26.83-10.27a49.788 49.788 0 0 1-30.35 10.27h-190.82c-27.6 0-50-22.4-50-50 0-27.59 22.4-50 50-50h190.82c27.59 0 50 22.41 50 50Zm-49.16-10.25h-192.35c-5.88 0-10.19 4.3-10.19 10.18v.14c0 5.88 4.31 10.19 10.19 10.19h192.35c5.89 0 10.19-4.31 10.19-10.19v-.14c0-5.88-4.3-10.18-10.19-10.18Z"
		style="fill:#234977"
	/>
</svg>