<svg
    xmlns="http://www.w3.org/2000/svg"
    xml:space="preserve"
    style="fill-rule:evenodd;clip-rule:evenodd;stroke-linejoin:round;stroke-miterlimit:2"
    viewBox="0 0 2000 2000"
>
	<path
        id="dude why tf are you aussie now?"
		d="M44.913 446.662V368.6c0-27.596 22.404-50 50-50h609c27.595 0 50 22.404 50 50v78.062c0 27.596-22.405 50-50 50h-609a49.765 49.765 0 0 1-30.351-10.274s-8.83 10.274-26.83 10.274c-5.292 0-9.504-.534-12.845-1.333a4.981 4.981 0 0 1-.656-9.411c20.547-8.777 20.682-39.256 20.682-39.256Zm-18.694 43.844c3.011.704 6.79 1.156 11.513 1.156 15.392 0 23.038-8.533 23.038-8.533l3.079-3.583 3.752 2.872a44.785 44.785 0 0 0 27.312 9.244h609c24.836 0 45-20.164 45-45V368.6c0-24.836-20.164-45-45-45h-609c-24.837 0-45 20.164-45 45V446.684s-.043 11.943-4.915 23.558c-3.449 8.223-9.278 16.191-18.779 20.264Zm628.46-118.864c0-5.881 4.309-10.189 10.191-10.189h38.576c5.882 0 10.191 4.308 10.191 10.189v.136c0 5.881-4.309 10.189-10.191 10.189H664.87c-5.882 0-10.191-4.308-10.191-10.189v-.136Zm-248.39-10.189c5.882 0 10.191 4.308 10.191 10.189v.136c0 5.881-4.309 10.189-10.191 10.189H290.825c-5.882 0-10.191-4.308-10.191-10.189v-.136c0-5.881 4.309-10.189 10.191-10.189h115.464Zm217.669 0c5.882 0 10.191 4.308 10.191 10.189v.136c0 5.881-4.309 10.189-10.191 10.189h-96.584c-5.882 0-10.191-4.308-10.191-10.189v-.136c0-5.881 4.309-10.189 10.191-10.189h96.584Zm-374.046 0c5.882 0 10.192 4.308 10.192 10.189v.136c0 5.881-4.31 10.189-10.192 10.189H96.004c-5.882 0-10.191-4.308-10.191-10.189v-.136c0-5.881 4.309-10.189 10.191-10.189h153.908Zm236.55 0c5.882 0 10.19 4.308 10.19 10.189v.136c0 5.881-4.308 10.189-10.19 10.189h-39.261c-5.882 0-10.19-4.308-10.19-10.189v-.136c0-5.881 4.308-10.189 10.19-10.189h39.261ZM307.921 429.86c5.882 0 10.191 4.307 10.191 10.188v.137c0 5.88-4.309 10.188-10.191 10.188H96.004c-5.882 0-10.191-4.308-10.191-10.188v-.137c0-5.881 4.309-10.188 10.191-10.188h211.917Zm175.942 0c5.881 0 10.19 4.307 10.19 10.188v.137c0 5.88-4.309 10.188-10.19 10.188h-135.03c-5.882 0-10.191-4.308-10.191-10.188v-.137c0-5.881 4.309-10.188 10.191-10.188h135.03Z"
		style="fill:#333"
	/>
    <path
        id="right"
		d="M44.913 941.597c0-27.596 22.404-50 50-50h140c27.595 0 50 22.404 50 50s-22.405 50-50 50h-140a49.765 49.765 0 0 1-30.351-10.274s-8.83 10.274-26.83 10.274c-5.292 0-9.504-.534-12.845-1.333a4.983 4.983 0 0 1-.656-9.411c20.547-8.777 20.682-39.256 20.682-39.256Zm-18.694 43.844c3.011.703 6.79 1.156 11.513 1.156 15.392 0 23.038-8.533 23.038-8.533l3.079-3.583 3.752 2.872a44.785 44.785 0 0 0 27.312 9.244h140c24.836 0 45-20.164 45-45s-20.164-45-45-45h-140c-24.837 0-45 20.164-45 45.011v.011s-.043 11.943-4.915 23.558c-3.449 8.223-9.278 16.191-18.779 20.264Zm205.498-54.101c5.882 0 10.19 4.308 10.19 10.188v.137c0 5.881-4.308 10.188-10.19 10.188H96.003c-5.881 0-10.19-4.307-10.19-10.188v-.137c0-5.88 4.309-10.188 10.19-10.188h135.714Z"
		style="fill:#333"
	/>
	<path
        id="aha, but
            do enlighten me as to why you're telling me all this
            just curious"
		d="M44.913 1631.47v-30c0-11.04 8.961-20 20-20h419c27.595 0 50 22.4 50 50 0 27.59-22.405 50-50 50h-389c-11.41 0-21.933-3.84-30.351-10.28 0 0-8.83 10.28-26.83 10.28-5.292 0-9.504-.54-12.845-1.34a4.982 4.982 0 0 1-.656-9.41c20.547-8.78 20.682-39.25 20.682-39.25Zm-18.694 43.84c3.011.7 6.79 1.16 11.513 1.16 15.392 0 23.038-8.54 23.038-8.54l3.079-3.58 3.752 2.87a44.777 44.777 0 0 0 27.312 9.25h389c24.836 0 45-20.17 45-45 0-24.84-20.164-45-45-45h-419c-8.279 0-15 6.72-15 15V1631.49s-.043 11.94-4.915 23.56c-3.449 8.22-9.278 16.19-18.779 20.26Zm458.327-54.1c5.882 0 10.191 4.31 10.191 10.19v.13c0 5.88-4.309 10.19-10.191 10.19H253.065c-5.882 0-10.191-4.31-10.191-10.19v-.13c0-5.88 4.309-10.19 10.191-10.19h231.481Zm-272.393 0c5.882 0 10.19 4.31 10.19 10.19v.13c0 5.88-4.308 10.19-10.19 10.19H96.003c-5.881 0-10.19-4.31-10.19-10.19v-.13c0-5.88 4.309-10.19 10.19-10.19h116.15ZM44.913 1406.5c0-11.04 8.961-20 20-20h930c27.597 0 49.997 22.4 49.997 50v75c0 27.59-22.4 50-49.997 50h-930c-11.039 0-20-8.96-20-20v-135Zm5 0v135c0 8.28 6.721 15 15 15h930c24.837 0 44.997-20.17 44.997-45v-75c0-24.84-20.16-45-44.997-45h-930c-8.279 0-15 6.72-15 15Zm788.43 19.74c5.882 0 10.191 4.31 10.191 10.19v.14c0 5.88-4.309 10.19-10.191 10.19h-58.14c-5.882 0-10.191-4.31-10.191-10.19v-.14c0-5.88 4.309-10.19 10.191-10.19h58.14Zm-314.669 68.41c5.882 0 10.191 4.31 10.191 10.19v.13c0 5.88-4.309 10.19-10.191 10.19H329.953c-5.882 0-10.191-4.31-10.191-10.19v-.13c0-5.88 4.309-10.19 10.191-10.19h193.721Zm-234.634 0c5.883 0 10.192 4.31 10.192 10.19v.13c0 5.88-4.309 10.19-10.192 10.19H96.004c-5.882 0-10.191-4.31-10.191-10.19v-.13c0-5.88 4.309-10.19 10.191-10.19H289.04Zm352.566 0c5.882 0 10.192 4.31 10.192 10.19v.13c0 5.88-4.31 10.19-10.192 10.19h-77.019c-5.882 0-10.191-4.31-10.191-10.19v-.13c0-5.88 4.309-10.19 10.191-10.19h77.019Zm353.114-68.41c5.88 0 10.19 4.31 10.19 10.19v.14c0 5.88-4.31 10.19-10.19 10.19H879.256c-5.882 0-10.191-4.31-10.191-10.19v-.14c0-5.88 4.309-10.19 10.191-10.19H994.72Zm-234.496 68.41c5.882 0 10.19 4.31 10.19 10.19v.13c0 5.88-4.308 10.19-10.19 10.19h-77.705c-5.882 0-10.191-4.31-10.191-10.19v-.13c0-5.88 4.309-10.19 10.191-10.19h77.705Zm-256.798-68.41c5.882 0 10.191 4.31 10.191 10.19v.14c0 5.88-4.309 10.19-10.191 10.19h-289.49c-5.882 0-10.191-4.31-10.191-10.19v-.14c0-5.88 4.309-10.19 10.191-10.19h289.49Zm413.858 68.41c5.882 0 10.191 4.31 10.191 10.19v.13c0 5.88-4.309 10.19-10.191 10.19H801.135c-5.882 0-10.19-4.31-10.19-10.19v-.13c0-5.88 4.308-10.19 10.19-10.19h116.149Zm-744.261-68.41c5.882 0 10.192 4.31 10.192 10.19v.14c0 5.88-4.31 10.19-10.192 10.19H96.004c-5.882 0-10.191-4.31-10.191-10.19v-.14c0-5.88 4.309-10.19 10.191-10.19h77.019Zm448.335 0c5.882 0 10.192 4.31 10.192 10.19v.14c0 5.88-4.31 10.19-10.192 10.19h-77.019c-5.882 0-10.191-4.31-10.191-10.19v-.14c0-5.88 4.309-10.19 10.191-10.19h77.019Zm117.933 0c5.882 0 10.191 4.31 10.191 10.19v.14c0 5.88-4.309 10.19-10.191 10.19h-77.02c-5.882 0-10.191-4.31-10.191-10.19v-.14c0-5.88 4.309-10.19 10.191-10.19h77.02ZM44.913 1316.53c0-27.59 22.404-50 50-50H368c27.596 0 50 22.41 50 50 0 27.6-22.404 50-50 50H64.913c-11.039 0-20-8.96-20-20v-30Zm5 0v30c0 8.28 6.721 15 15 15H368c24.836 0 45-20.16 45-45 0-24.83-20.164-45-45-45H94.913c-24.837 0-45 20.17-45 45Zm181.12-10.25c5.882 0 10.19 4.3 10.19 10.18v.14c0 5.88-4.308 10.19-10.19 10.19H96.004c-5.882 0-10.191-4.31-10.191-10.19v-.14c0-5.88 4.309-10.18 10.191-10.18h135.029Zm137.497 0c5.881 0 10.19 4.3 10.19 10.18v.14c0 5.88-4.309 10.19-10.19 10.19h-96.585c-5.882 0-10.191-4.31-10.191-10.19v-.14c0-5.88 4.309-10.18 10.191-10.18h96.585Z"
		style="fill:#333"
	/>
	<path
        id="shocker"
		d="M44.913 1931.4c0-27.6 22.404-50 50-50h255c27.595 0 50 22.4 50 50s-22.405 50-50 50h-255a49.787 49.787 0 0 1-30.351-10.27s-8.83 10.27-26.83 10.27c-5.292 0-9.504-.53-12.845-1.33a4.985 4.985 0 0 1-3.697-4.47 4.974 4.974 0 0 1 3.041-4.94c20.547-8.78 20.682-39.26 20.682-39.26Zm-18.694 43.84c3.011.71 6.79 1.16 11.513 1.16 15.392 0 23.038-8.53 23.038-8.53l3.079-3.59 3.752 2.88a44.832 44.832 0 0 0 27.312 9.24h255c24.836 0 45-20.16 45-45s-20.164-45-45-45h-255c-24.837 0-45 20.16-45 45.01v.01s-.043 11.95-4.915 23.56c-3.449 8.22-9.278 16.19-18.779 20.26Zm320.147-54.1c5.882 0 10.19 4.31 10.19 10.19v.14c0 5.88-4.308 10.19-10.19 10.19H96.004c-5.882 0-10.191-4.31-10.191-10.19v-.14c0-5.88 4.309-10.19 10.191-10.19h250.362Z"
		style="fill:#333"
	/>
</svg>