<?xml version="1.0" encoding="UTF-8" standalone="no"?>
<!DOCTYPE svg PUBLIC "-//W3C//DTD SVG 1.1//EN" "http://www.w3.org/Graphics/SVG/1.1/DTD/svg11.dtd">
<svg width="100%" height="100%" viewBox="0 0 950 465" version="1.1" xmlns="http://www.w3.org/2000/svg" xmlns:xlink="http://www.w3.org/1999/xlink" xml:space="preserve" xmlns:serif="http://www.serif.com/" style="fill-rule:evenodd;clip-rule:evenodd;stroke-linejoin:round;stroke-miterlimit:2;">
    <path d="M945.202,12.989l-0,439.022c-0,5.047 -4.098,9.146 -9.146,9.146l-922.112,-0c-5.048,-0 -9.146,-4.099 -9.146,-9.146l0,-439.022c0,-5.047 4.098,-9.146 9.146,-9.146l922.112,0c5.048,0 9.146,4.099 9.146,9.146Zm-470.202,225.388c-0,-10.333 -8.389,-18.721 -18.721,-18.721l-347.531,-0c-10.333,-0 -18.722,8.388 -18.722,18.721l0,149.768c0,10.333 8.389,18.721 18.722,18.721l347.531,0c10.332,0 18.721,-8.388 18.721,-18.721l-0,-149.768Z" style="fill:#111;"/>
    <path d="M947.202,12.989l-0,439.022c-0,6.151 -4.995,11.146 -11.146,11.146l-922.112,-0c-6.151,-0 -11.146,-4.995 -11.146,-11.146l0,-439.022c0,-6.151 4.995,-11.146 11.146,-11.146l922.112,0c6.151,0 11.146,4.995 11.146,11.146Zm-4,0c-0,-3.944 -3.202,-7.146 -7.146,-7.146l-922.112,0c-3.944,0 -7.146,3.202 -7.146,7.146l0,439.022c0,3.944 3.202,7.146 7.146,7.146l922.112,-0c3.944,-0 7.146,-3.202 7.146,-7.146l-0,-439.022Zm-466.202,225.388l-0,149.768c-0,11.436 -9.285,20.721 -20.721,20.721l-347.531,0c-11.437,0 -20.722,-9.285 -20.722,-20.721l0,-149.768c0,-11.437 9.285,-20.721 20.722,-20.721l347.531,-0c11.436,-0 20.721,9.284 20.721,20.721Zm-4,-0c-0,-9.229 -7.492,-16.721 -16.721,-16.721l-347.531,-0c-9.229,-0 -16.722,7.492 -16.722,16.721l0,149.768c0,9.229 7.493,16.721 16.722,16.721l347.531,0c9.229,0 16.721,-7.492 16.721,-16.721l-0,-149.768Z" style="fill:#222;"/>
</svg>
