<?xml version="1.0" encoding="UTF-8" standalone="no"?>
<!DOCTYPE svg PUBLIC "-//W3C//DTD SVG 1.1//EN" "http://www.w3.org/Graphics/SVG/1.1/DTD/svg11.dtd">
<svg width="100%" height="100%" viewBox="0 0 1000 1000" version="1.1" xmlns="http://www.w3.org/2000/svg" xmlns:xlink="http://www.w3.org/1999/xlink" xml:space="preserve" xmlns:serif="http://www.serif.com/" style="fill-rule:evenodd;clip-rule:evenodd;stroke-linejoin:round;stroke-miterlimit:2;">
    <g transform="matrix(1,0,0,1,-1050,0)">
        <g id="Letter" transform="matrix(1.95312,0,0,1.95312,1050,5.68434e-14)">
            <rect x="0" y="0" width="512" height="512" style="fill:none;"/>
            <g transform="matrix(1.24145,0.620726,0,1.36465,-294.965,9.51409)">
                <path d="M546.094,5.025L546.094,113.778C546.094,117.112 543.713,119.82 540.78,119.82L346.834,119.82C343.901,119.82 341.521,117.112 341.521,113.778L341.521,5.025C341.521,1.691 343.901,-1.017 346.834,-1.017L540.78,-1.017C543.713,-1.017 546.094,1.691 546.094,5.025Z" style="fill:#111;"/>
            </g>
            <g transform="matrix(0.09413,0.047065,9.50729e-18,0.191484,139.264,4.56648)">
                <path d="M2420.18,0C2457.03,0 2480.32,12.795 2480.32,33.051C2480.32,271.888 2480.32,1724.41 2480.32,1724.41L0,1724.41L-0,43.264C0,33.997 9.761,22.992 25.797,14.178C41.833,5.365 61.857,-0 78.718,0C457.261,0 2085.84,-0 2420.18,0Z" style="fill:url(#_Linear1);"/>
                <path d="M2420.18,0C2457.03,0 2480.32,12.795 2480.32,33.051L2480.32,1724.41L0,1724.41L-0,43.264C0,33.997 9.761,22.992 25.797,14.178C41.833,5.365 61.857,-0 78.718,0L2420.18,0ZM2400.72,23.916L59.258,23.916C55.886,23.916 51.881,24.989 48.674,26.751C45.466,28.514 43.514,30.715 43.514,32.569L43.514,1700.49L2436.8,1700.49L2436.8,43.746C2436.8,31.593 2422.83,23.916 2400.72,23.916Z" style="fill:url(#_Linear2);"/>
            </g>
            <g transform="matrix(0.282393,0.141197,1.10946e-16,0.365437,28.6105,156.961)">
                <path d="M794.5,240.028L794.5,396.947C794.5,407.772 785.401,416.562 774.193,416.562L441.824,416.562C430.616,416.562 421.517,407.772 421.517,396.947L421.517,240.028C421.517,229.202 430.616,220.413 441.824,220.413L774.193,220.413C785.401,220.413 794.5,229.202 794.5,240.028Z" style="fill:url(#_Linear3);"/>
            </g>
            <g transform="matrix(1.24145,0.620726,0,1.36465,-294.965,9.51409)">
                <path d="M546.094,5.025L546.094,113.778C546.094,117.112 543.713,119.82 540.78,119.82L346.834,119.82C343.901,119.82 341.521,117.112 341.521,113.778L341.521,5.025C341.521,1.691 343.901,-1.017 346.834,-1.017L540.78,-1.017C543.713,-1.017 546.094,1.691 546.094,5.025ZM440.266,54.631C440.266,51.851 438.281,49.594 435.836,49.594L362.057,49.594C359.613,49.594 357.628,51.851 357.628,54.631L357.628,94.926C357.628,97.706 359.613,99.963 362.057,99.963L435.836,99.963C438.281,99.963 440.266,97.706 440.266,94.926L440.266,54.631Z" style="fill:url(#_Linear4);"/>
            </g>
            <g transform="matrix(1.24145,0.620726,0,1.36465,-294.965,9.51409)">
                <path d="M546.094,5.025L546.094,113.778C546.094,117.112 543.713,119.82 540.78,119.82L346.834,119.82C343.901,119.82 341.521,117.112 341.521,113.778L341.521,5.025C341.521,1.691 343.901,-1.017 346.834,-1.017L540.78,-1.017C543.713,-1.017 546.094,1.691 546.094,5.025ZM542.578,116.425C542.654,116.165 542.794,115.64 542.794,115.279L542.794,6.526C542.794,4.271 541.288,2.339 539.305,2.339L345.358,2.339C345.267,2.339 345.139,2.359 345.036,2.378C344.96,2.638 344.82,3.163 344.82,3.524L344.82,112.277C344.82,114.532 346.326,116.464 348.309,116.464L542.256,116.464C542.347,116.464 542.475,116.444 542.578,116.425Z" style="fill:url(#_Linear5);"/>
            </g>
        </g>
    </g>
    <defs>
        <linearGradient id="_Linear1" x1="0" y1="0" x2="1" y2="0" gradientUnits="userSpaceOnUse" gradientTransform="matrix(-930.118,1152.45,-1879.3,4.68637,1952.7,-2.27374e-13)"><stop offset="0" style="stop-color:#333;stop-opacity:1"/><stop offset="1" style="stop-color:#222;stop-opacity:1"/></linearGradient>
        <linearGradient id="_Linear2" x1="0" y1="0" x2="1" y2="0" gradientUnits="userSpaceOnUse" gradientTransform="matrix(-1309.79,1724.41,-2852.98,57.3685,1930.95,0)"><stop offset="0" style="stop-color:#444;stop-opacity:1"/><stop offset="1" style="stop-color:#222;stop-opacity:1"/></linearGradient>
        <linearGradient id="_Linear3" x1="0" y1="0" x2="1" y2="0" gradientUnits="userSpaceOnUse" gradientTransform="matrix(-88.8406,196.149,-209.41,12.2593,573.149,220.413)"><stop offset="0" style="stop-color:#eee;stop-opacity:0.1"/><stop offset="1" style="stop-color:#a6a6a6;stop-opacity:0.05"/></linearGradient>
        <linearGradient id="_Linear4" x1="0" y1="0" x2="1" y2="0" gradientUnits="userSpaceOnUse" gradientTransform="matrix(-51.5526,120.836,-107.051,1.79493,443.807,-1.0166)"><stop offset="0" style="stop-color:#222;stop-opacity:1"/><stop offset="1" style="stop-color:#111;stop-opacity:1"/></linearGradient>
        <linearGradient id="_Linear5" x1="0" y1="0" x2="1" y2="0" gradientUnits="userSpaceOnUse" gradientTransform="matrix(-53.2022,120.836,-106.226,-0.0810065,443.807,-1.0166)"><stop offset="0" style="stop-color:#333;stop-opacity:1"/><stop offset="1" style="stop-color:#111;stop-opacity:1"/></linearGradient>
    </defs>
</svg>
