<svg xmlns="http://www.w3.org/2000/svg" xml:space="preserve" style="fill-rule:evenodd;clip-rule:evenodd;stroke-linejoin:round;stroke-miterlimit:2" viewBox="0 0 2000 2000"><path d="M0 0h2000v2000H0z" style="fill:none"/><path d="M817 1601.91v-195.379c0-20.096 16.537-36.633 36.633-36.633h102.745l48.844 48.845h141.145c20.096 0 36.633 16.537 36.633 36.633 0 4.099-.688 8.169-2.035 12.04l-51.043 146.534c-5.109 14.683-19.035 24.586-34.582 24.593H853.633c-20.096 0-36.633-16.537-36.633-36.633m153.347-183.167-24.422-24.423h-92.634a12.22 12.22 0 0 0-8.645 3.566 12.22 12.22 0 0 0-3.566 8.645v120.036l28.99-83.231c5.112-14.692 19.05-24.597 34.606-24.593zm-116.714 195.378h241.707a12.24 12.24 0 0 0 11.528-8.206l51.018-146.534c.447-1.288.675-2.642.675-4.005 0-6.696-5.507-12.207-12.202-12.211H905.018a12.23 12.23 0 0 0-11.527 8.206l-51.385 146.533a12.2 12.2 0 0 0-.675 4.006c0 6.695 5.507 12.206 12.202 12.211" style="fill:#eee;fill-rule:nonzero"/><path d="M760.482 838.7c43.223 5.298 74.005 44.681 68.707 87.903s-44.681 74.005-87.903 68.707c-42.948-5.284-73.952-44.951-68.707-87.903 5.298-43.222 44.681-74.005 87.903-68.707m-71.437 52.661a66.94 66.94 0 0 0-4.363 35.593l23.492 2.88a101.6 101.6 0 0 1 4.363-35.593zm-1.261 48.016a67.2 67.2 0 0 0 36.14 38.908c-6.807-10.095-11.902-22.569-14.333-36.235zm34.241 4.197c3.471 15.985 11.088 29.792 20.858 38.709 11.633-6.293 22.359-17.852 29.589-32.525zm62.881 7.708c-5.66 12.674-13.616 23.548-22.66 31.701a67.2 67.2 0 0 0 44.467-29.028zm27.817-8.633a66.94 66.94 0 0 0 4.363-35.593l-23.492-2.88a101.6 101.6 0 0 1-4.362 35.594zm1.261-48.016a67.2 67.2 0 0 0-36.14-38.908c6.808 10.095 11.902 22.569 14.334 36.235zm-34.24-4.197c-3.472-15.985-11.089-29.792-20.858-38.709-11.634 6.293-22.36 17.852-29.59 32.525zm-62.882-7.708c5.66-12.674 13.617-23.548 22.66-31.701a67.2 67.2 0 0 0-44.467 29.028zm7.729 12.99a90.8 90.8 0 0 0-4.363 35.593l56.949 6.981a90.8 90.8 0 0 0 4.363-35.593z" style="fill:#eee;fill-opacity:.2;fill-rule:nonzero"/><path d="M1207.59 913.391c1.775 14.48-8.679 27.856-23.159 29.631l-140.771 17.261c-14.479 1.775-27.855-8.679-29.631-23.158l-14.024-114.377 193.56-23.733 3.237 26.394c24.132-2.959 46.426 14.465 49.385 38.597s-14.465 46.426-38.597 49.385m-8.631-70.385 6.473 52.789c14.48-1.776 24.934-15.151 23.158-29.631s-15.151-24.934-29.631-23.158m-20.832-24.237-158.368 19.418 11.867 96.78c.591 4.827 5.05 8.311 9.877 7.719l140.771-17.26c4.826-.592 8.311-5.051 7.719-9.877zm-139.64-90.044s23.273 15.007 25.431 32.604c2.157 17.596-16.801 37.781-16.801 37.781l21.116-2.589s15.439-19.754 13.281-37.35-21.911-33.035-21.911-33.035zm52.789-6.473s23.273 15.007 25.431 32.604c2.158 17.596-16.8 37.782-16.8 37.782l21.115-2.589s15.439-19.754 13.281-37.351-21.911-33.035-21.911-33.035z" style="fill:#eee;fill-opacity:.5;fill-rule:nonzero"/><path d="M327.043 1107.38c-17.912-.06-35.635-8.83-46.12-25.026s-11.232-35.956-3.954-52.324l-7.392-11.418c-5.362-8.283-3.014-19.361 5.337-24.767l19.988-12.94c8.351-5.406 19.42-3.013 24.782 5.269l7.392 11.418c17.912.061 35.635 8.831 46.12 25.027s11.232 35.956 3.954 52.324l7.392 11.418c5.362 8.282 3.014 19.361-5.337 24.767l-19.988 12.94c-8.351 5.406-19.42 3.013-24.782-5.27zm-43.253-88.721c3.746-4.717 8.235-8.887 13.437-12.254 5.203-3.368 10.844-5.758 16.682-7.244l-4.219-6.517c-1.781-2.751-5.562-3.49-8.3-1.718l-19.988 12.94c-2.738 1.773-3.612 5.525-1.831 8.276zm86.539 67.655c-3.746 4.717-8.235 8.886-13.438 12.254-5.202 3.368-10.843 5.757-16.681 7.244l4.219 6.516c1.781 2.752 5.562 3.491 8.3 1.718l19.988-12.939c2.738-1.773 3.612-5.525 1.831-8.277zm-66.614-69.888c-19.851 12.851-25.548 39.464-12.661 59.369s39.499 25.603 59.35 12.752 25.548-39.464 12.661-59.37-39.499-25.602-59.35-12.751m2.114 14.257 10.018-6.485 14.87 22.97 22.297 4.798-2.421 11.632-27.209-5.798z" style="fill:#eee;fill-opacity:.2"/><path d="m215.686 650.327 6.039 17.994-62.976 21.137c-14.807 4.969-31.08-3.125-36.049-17.931l-36.235-107.96c-4.97-14.807 3.125-31.08 17.931-36.049l62.983-21.119-1.794 20.602-55.15 18.51c-4.935 1.657-7.633 7.081-5.977 12.017l36.235 107.959c1.657 4.936 7.081 7.634 12.016 5.977zm-6.039-17.993-53.98 18.118-30.196-89.967 39.783-13.353-3.4 39.2a28.5 28.5 0 0 0 1.372 11.532c4.969 14.805 21.24 22.899 36.045 17.932l4.337-1.455zm5.915-42.026-22.33 7.495c-4.934 1.653-10.356-1.045-12.012-5.979a9.5 9.5 0 0 1-.456-3.851l7.181-82.451a9.49 9.49 0 0 1 6.428-8.229c4.926-1.653 10.339 1.04 11.992 5.965l.02.059 21.131 62.959 22.33-7.495c4.934-1.653 10.355 1.045 12.011 5.979a9.5 9.5 0 0 1 .457 3.851l-7.182 82.451a9.49 9.49 0 0 1-6.427 8.229c-4.926 1.653-10.339-1.04-11.993-5.965l-.019-.059zm138.031-6.287 3.02 8.996c4.969 14.807-3.125 31.08-17.931 36.049l-62.983 21.119 1.794-20.602 55.149-18.51c4.936-1.657 7.634-7.081 5.977-12.017l-36.235-107.959c-1.656-4.936-7.08-7.634-12.016-5.977l-62.976 21.137-6.039-17.994 62.976-21.137c14.806-4.969 31.079 3.125 36.049 17.932l3.019 8.996c9.871-3.313 20.72 2.083 24.033 11.954l18.117 53.98c3.313 9.871-2.083 20.72-11.954 24.033" style="fill:#eee"/><path d="m1702.54 832.017-21.463-214.098c-1.766-17.617 11.278-33.567 28.895-35.334l160.573-16.097 23.609 235.507-160.573 16.097q-5.654.546-10.887-.746l1.256 12.524a10.83 10.83 0 0 0 3.885 7.266 10.76 10.76 0 0 0 7.893 2.366l160.573-16.097 2.146 21.41-160.573 16.097c-17.608 1.73-33.534-11.295-35.334-28.895m63.103-233.388-53.524 5.366c-5.873.589-10.221 5.906-9.632 11.778l17.17 171.278c.589 5.872 5.906 10.22 11.778 9.632l139.163-13.951-19.316-192.688-21.41 2.147 9.029 90.07-35.334-28.895-28.895 35.334zm42.819-4.292-21.409 2.146 3.848 38.388 9.632-11.778 11.778 9.632z" style="fill:#eee;fill-rule:nonzero"/><path d="m1039.84 320.941 7.318 20.09a80.6 80.6 0 0 1 13.833 3.988l21.197-16.477 4.629 2.891a103.1 103.1 0 0 1 34.841 36.181l2.719 4.733-17.257 20.553a78 78 0 0 1 3.468 13.979l24.863 10.104-.192 5.455a103.1 103.1 0 0 1-13.888 48.271l-2.741 4.719-26.444-4.673a78 78 0 0 1-10.365 9.991l3.669 26.596-4.805 2.56a103.1 103.1 0 0 1-48.76 12.098l-5.445-.018-9.184-25.211a78 78 0 0 1-13.833-3.988l-21.197 16.477-4.629-2.892a103.1 103.1 0 0 1-34.84-36.18l-2.72-4.733 17.257-20.554a78 78 0 0 1-3.468-13.979l-24.863-10.103.192-5.456a103.1 103.1 0 0 1 13.889-48.27l2.74-4.72 26.444 4.674a79 79 0 0 1 10.365-9.992l-3.669-26.596 4.805-2.56a103.1 103.1 0 0 1 48.76-12.097l5.445.017zm-12.749 10.631a87.5 87.5 0 0 0-31.143 7.727l3.434 24.868-3.877 2.732a63.5 63.5 0 0 0-13.872 13.372l-2.879 3.772-24.725-4.359a87.5 87.5 0 0 0-8.879 30.835l23.254 9.457.434 4.737a62.5 62.5 0 0 0 4.635 18.679l1.829 4.391-16.136 19.229a87.7 87.7 0 0 0 22.263 23.11l19.82-15.412 4.308 1.99a63.6 63.6 0 0 0 18.513 5.337l4.705.603 8.588 23.589a87.5 87.5 0 0 0 31.143-7.726l-3.434-24.868 3.877-2.732a63.6 63.6 0 0 0 13.872-13.372l2.879-3.773 24.725 4.36a87.5 87.5 0 0 0 8.879-30.836l-23.254-9.457-.434-4.736a62.5 62.5 0 0 0-4.635-18.68l-1.829-4.39 16.136-19.229a87.5 87.5 0 0 0-22.263-23.11l-19.82 15.411-4.308-1.989a62.5 62.5 0 0 0-18.513-5.337l-4.705-.604zm-2.763 55.489c17.227-3.714 34.528 7.076 38.771 24.18 4.244 17.105-6.008 34.73-22.973 39.499-17.227 3.714-34.528-7.076-38.771-24.18s6.008-34.73 22.973-39.499m3.765 15.161c-9.149 2.274-14.812 11.674-12.542 20.824 2.271 9.153 11.676 14.816 20.829 12.545 9.149-2.274 14.812-11.674 12.542-20.824-2.271-9.154-11.676-14.816-20.829-12.545" style="fill:#eee"/><path d="m582.799 1291.44-29.663 1.885c-10.795.686-20.243-7.633-20.929-18.429l-4.167-65.596c-.686-10.796 7.633-20.243 18.428-20.929l131.193-8.335c10.795-.686 20.243 7.633 20.929 18.428l4.168 65.596c.685 10.796-7.634 20.244-18.429 20.93l-29.663 1.884 11.571 24.345.914 14.379-91.835 5.834-.914-14.378zm57.725-3.667-43.582 2.769-8.829 26.905 64.573-4.103zm44.947-88.475c-.229-3.599-3.378-6.372-6.977-6.143l-131.192 8.335c-3.599.229-6.372 3.378-6.143 6.976l4.167 65.597c.229 3.598 3.378 6.371 6.977 6.143l131.192-8.336c3.599-.228 6.372-3.378 6.143-6.976z" style="fill:#eee;fill-opacity:.2;fill-rule:nonzero"/><path d="M677.24 631.198c-15.799-13.873-26.423-31.851-29.371-50.429l-.355-2.197.943-2.016c15.283-32.89 57.361-55.833 102.203-49.576a106.8 106.8 0 0 1 43.28 16.099L821.855 522l20.402 2.847-36.237 27.362-11.827 8.937-18.513 13.979-11.997 9.052-35.332 26.679-11.991 9.061-14.584 11.012-12.457 9.4-27.918 21.08L641 658.563zm104.237-78.708a92.4 92.4 0 0 0-32.83-11.082c-37.08-5.174-72.275 12.508-85.996 39.261l-.004.029c3.098 15.566 12.639 30.333 26.417 41.572l18.503-13.972a37.87 37.87 0 0 1-3.48-21.847c2.871-20.571 22.16-35.136 42.731-32.266l.045.007a37.67 37.67 0 0 1 20.038 9.304zm-61.907 46.745 35.339-26.684a23.3 23.3 0 0 0-10.068-3.943c-12.664-1.767-24.539 7.2-26.306 19.864a23.3 23.3 0 0 0 1.035 10.763m96.754-36.542c10.089 11.925 16.807 25.762 19.063 39.947l.356 2.198-.943 2.015c-15.283 32.89-57.361 55.833-102.203 49.576a107.1 107.1 0 0 1-29.24-8.449l13.564-10.242q8.457 2.96 17.689 4.263c37.08 5.174 72.275-12.508 86-39.29-2.235-11.182-7.777-21.957-15.842-31.305z" style="fill:#eee;fill-opacity:.8"/><path d="M1531.44 999.34a6.5 6.5 0 0 1 8.452-3.598 6.5 6.5 0 0 1 3.599 8.452l-12.133 30.126-12.051-4.853zm-16.986 42.177 12.05 4.853-14.559 36.152-12.051-4.853zm-21.757 19.248-12.051-4.853 14.56-36.152 12.051 4.853zm19.413-48.202-12.051-4.853 7.284-18.085c6.656-16.527 25.736-24.658 42.263-18.002 12.175 4.904 20.232 16.727 20.343 29.852l-12.993.13a19.52 19.52 0 0 0-12.207-17.924c-9.916-3.994-21.364.885-25.357 10.801zm42.378-.901 12.051 4.853-25.64 63.663-12.051-4.853zm14.125-59.379c23.813 15.02 33.579 45.2 23.08 71.324l-11.808 29.318-12.051-4.853 11.808-29.319c9.299-23.139-2.078-49.832-25.21-59.148a45.5 45.5 0 0 0-25.449-2.5l-2.45-12.764a58.08 58.08 0 0 1 42.08 7.942m-95.164 86.725-12.05-4.853 21.839-54.228q2.817-6.96 7.077-12.737l10.478 7.679a45.5 45.5 0 0 0-5.504 9.912zm35.136-72.359-8.234-10.053a59.2 59.2 0 0 1 12.329-7.765l5.499 11.766a45.8 45.8 0 0 0-9.594 6.052m54.396 93.474 12.051 4.853-4.854 12.051-12.05-4.854zm-103.926-54.923-12.051-4.853 12.133-30.126c12.07-29.97 39.443-49.253 69.507-52.438l1.366 12.916c-26.273 2.758-48.956 19.87-58.822 44.375zm82.842-74.769.805-12.953c43.983 2.755 78.804 39.475 79.221 83.543l-12.994.131c-.341-37.298-29.807-68.384-67.032-70.721m66.143 82.561 12.827 2.057q-1.45 9.234-5.073 18.264l-12.133 30.126-12.051-4.853 12.133-30.126q3.066-7.646 4.297-15.468" style="fill:#eee;fill-opacity:.2"/><path d="m1012.56 1140.56 1.857 12.013c1.055 6.827-3.695 13.313-10.522 14.368l-19.912 3.077-.641-4.148c-1.125-7.282-8.043-12.348-15.325-11.223-7.283 1.125-12.349 8.044-11.223 15.326l.641 4.148-19.912 3.077c-6.827 1.055-13.313-3.695-14.368-10.521l-3.077-19.912 4.148-.641c7.282-1.125 12.349-8.044 11.223-15.326s-8.043-12.348-15.325-11.223l-4.149.641-3.077-19.911c-1.055-6.827 3.695-13.313 10.522-14.368l12.013-1.857c.418-10.389 8.204-19.108 18.48-20.694 10.487-1.621 20.399 4.527 23.866 14.15l12.013-1.856c6.827-1.055 13.313 3.695 14.368 10.522l1.856 12.013c10.389.418 19.109 8.204 20.695 18.48 1.59 10.275-4.372 20.331-14.151 23.865m-5.369-7.257c7.282-1.125 12.349-8.044 11.223-15.326s-8.043-12.348-15.325-11.223l-4.149.641-3.077-19.911c-.351-2.276-2.513-3.859-4.789-3.508l-19.912 3.077-.641-4.148c-1.125-7.282-8.043-12.348-15.325-11.223-7.283 1.126-12.349 8.044-11.223 15.326l.641 4.148-19.912 3.077c-2.276.352-3.859 2.514-3.507 4.79l1.856 12.013c10.39.418 19.109 8.204 20.695 18.48 1.59 10.275-4.372 20.331-14.151 23.865l1.857 12.013c.351 2.276 2.513 3.859 4.789 3.508l12.013-1.857c.418-10.389 8.204-19.109 18.48-20.694 10.487-1.621 20.399 4.526 23.866 14.15l12.013-1.856c2.275-.352 3.859-2.514 3.507-4.79l-3.077-19.911z" style="fill:#eee;fill-opacity:.4;fill-rule:nonzero"/><path d="M488.917 705.893a8.02 8.02 0 0 1 7.099-5.767 8.02 8.02 0 0 1 7.87 4.66l6.531 14.328 15.132 4.353a8.02 8.02 0 0 1 5.766 7.1 8.02 8.02 0 0 1-4.66 7.869l-14.328 6.531-4.353 15.132a8.02 8.02 0 0 1-7.099 5.766 8.01 8.01 0 0 1-7.87-4.66l-6.531-14.327-15.131-4.354a8.01 8.01 0 0 1-5.767-7.099 8.02 8.02 0 0 1 4.66-7.87l14.328-6.53zm52.004 52.316a8.02 8.02 0 0 1 7.099-5.766 8.02 8.02 0 0 1 7.87 4.66l3.946 8.662 9.147 2.629a8.015 8.015 0 0 1 5.767 7.1 8.02 8.02 0 0 1-4.66 7.869l-8.662 3.946-2.63 9.148a8.01 8.01 0 0 1-7.099 5.766 8.015 8.015 0 0 1-7.87-4.66l-3.945-8.662-9.148-2.629a8.02 8.02 0 0 1-5.767-7.099 8.02 8.02 0 0 1 4.661-7.87l8.661-3.946zm-145.162-38.596a15.77 15.77 0 0 1 11.881-6.869c7.173-.53 13.842 3.914 16.115 10.737 9.09 23.991 26.163 50.697 50.757 71.92 24.644 21.237 53.634 34.209 78.62 39.455a15.97 15.97 0 0 1 12.542 11.204 16.03 16.03 0 0 1-4.648 16.357l-.121.105c-40.854 34.501-101.915 35.275-143.662-.711s-49.944-96.53-21.587-142.062zm154.493 130.988-.179-.035c-27.413-5.74-59.103-19.845-86.009-43.048-26.788-23.116-45.371-52.229-55.32-78.515-23.923 39.287-15.857 90.619 18.963 120.675 35.58 30.697 87.59 30.126 122.545.923" style="fill:#eee;fill-opacity:.5;fill-rule:nonzero"/><path d="m1234.89 1147.26-6.593-1.014c-3.091-.475-6.026 1.678-6.501 4.769l-17.329 112.696c-.475 3.091 1.677 6.026 4.768 6.501l28.174 4.332-1.733 11.27-28.174-4.332c-9.273-1.426-15.731-10.231-14.305-19.504l17.329-112.696c1.426-9.274 10.23-15.731 19.504-14.305l6.593 1.014c3.341-6.201 10.32-9.95 17.679-8.818l45.078 6.931c7.359 1.132 12.89 6.804 14.214 13.722l6.593 1.014c9.273 1.426 15.731 10.23 14.305 19.504l-4.332 28.174-11.27-1.733 4.332-28.174c.476-3.091-1.677-6.026-4.768-6.502l-6.593-1.013c-3.341 6.2-10.32 9.949-17.679 8.817l-45.079-6.931c-7.15-1.096-12.867-6.615-14.213-13.722m67.526 4.615c.475-3.091-1.677-6.026-4.768-6.501l-45.079-6.931c-3.091-.476-6.026 1.677-6.501 4.768s1.677 6.026 4.768 6.501l45.079 6.932c3.091.475 6.026-1.678 6.501-4.769m34.681 74.549-10.397 67.618c-1.426 9.274-10.23 15.731-19.504 14.305l-45.078-6.931c-9.274-1.426-15.731-10.231-14.305-19.504l10.397-67.618c1.426-9.273 10.23-15.731 19.504-14.305l45.078 6.932c9.273 1.426 15.731 10.23 14.305 19.503m-11.27-1.732c.476-3.092-1.677-6.026-4.768-6.502l-45.078-6.931c-3.092-.475-6.026 1.677-6.502 4.768l-10.397 67.618c-.475 3.091 1.677 6.026 4.769 6.501l45.078 6.932c3.091.475 6.026-1.678 6.501-4.769z" style="fill:#eee;fill-opacity:.2"/><path d="m1485.73 719.329-148.541-25.892c-12.223-2.131-20.528-13.942-18.397-26.165l25.892-148.541c2.131-12.223 13.942-20.528 26.165-18.397l127.538 22.231a22.6 22.6 0 0 1 14.608 9.266l17.355 24.682a22.6 22.6 0 0 1 3.776 16.882l-22.231 127.537c-2.131 12.223-13.942 20.528-26.165 18.397m-4.838-16.148 7.427 1.294c4.074.711 8.011-2.058 8.721-6.132l22.232-127.537a7.54 7.54 0 0 0-1.255-5.622l-17.354-24.682a7.55 7.55 0 0 0-4.866-3.083l-1.277-.222-6.473 37.135c-2.131 12.223-13.942 20.528-26.165 18.397l-59.417-10.357c-12.223-2.131-20.528-13.942-18.397-26.165l6.473-37.135-22.281-3.884c-4.074-.711-8.011 2.058-8.722 6.132l-25.892 148.541c-.711 4.074 2.058 8.011 6.132 8.722l7.427 1.294 11.652-66.843c2.131-12.223 13.942-20.528 26.165-18.397l89.124 15.535c12.223 2.131 20.528 13.942 18.398 26.165zm-1.226-168.574-29.708-5.178-7.768 44.562 22.281 3.884c4.074.71 8.011-2.058 8.722-6.133zm-117.607 147.859 103.979 18.125 11.651-66.843c.711-4.074-2.058-8.011-6.132-8.722l-89.124-15.535c-4.075-.711-8.012 2.058-8.722 6.132z" style="fill:#eee;fill-opacity:.8;fill-rule:nonzero"/></svg>