<svg xmlns="http://www.w3.org/2000/svg" xml:space="preserve" style="fill-rule:evenodd;clip-rule:evenodd;stroke-linejoin:round;stroke-miterlimit:2" viewBox="0 0 1920 1080"><path d="M1970 0h1920v1080H1970z" style="fill:none" transform="translate(-1970)"/><path d="M0 0h1920v1080H0z" style="fill:#eee"/><path d="M252.773 349.183v17.016H234.22v4.446h18.553v95.344h4.445v-95.344h29.549v-4.446h-29.549v-17.36c.172-12.547 10.48-22.689 23.021-22.689 7.902 0 12.197 1.718 12.197 1.718l.687-4.466c0 .013-5.669-1.697-12.884-1.697-15.118 0-27.466 12.352-27.466 27.478Zm52.375 28.681c-9.62 9.969-15.096 23.547-15.096 37.631 0 29.376 21.625 53.071 49.97 53.071 28.346 0 39.169-9.601 39.169-9.601l-3.436-3.609s-9.792 8.593-35.733 8.593c-25.081 0-44.15-20.109-45.353-45.718h89.16c0-24.039-8.761-39.164-20.615-47.242-7.215-4.8-15.461-7.023-23.879-7.023-12.541 0-25.253 4.961-34.187 13.898Zm74.043 35.75h-84.693c.515-12.203 5.325-23.89 13.743-32.484 8.074-8.078 19.584-12.719 30.922-12.719 7.559 0 15.118 1.891 21.474 6.36 10.136 6.875 17.523 19.421 18.554 38.843Zm123.368 24.133v28.242h4.445v-99.446h-4.445v28.242c-8.076-18.298-25.946-30.819-46.566-30.819-28.181 0-51.012 23.518-51.012 52.386 0 28.868 22.831 52.214 51.012 52.214 20.62 0 38.49-12.521 46.566-30.735v-.084Zm0-23.801v4.64c-1.203 25.431-21.651 45.707-46.566 45.707-25.775 0-46.567-21.479-46.567-47.941 0-26.462 20.792-47.941 46.567-47.941 24.915 0 45.363 20.104 46.566 45.535Zm48.081-47.403v-26.456l-4.446 2.577v23.879h-16.148v4.445h16.148v69.936c0 15.293 12.176 27.471 27.466 27.642 6.013 0 10.651-1.026 10.651-1.026l-1.031-3.934s-2.92.515-9.448.515a23.098 23.098 0 0 1-23.192-23.197v-69.936h32.125v-4.445H550.64Zm55.682 66.484c-.344 19.928 14.412 35.539 34.346 35.539 15.982 0 30.761-10.114 37.978-24.373v21.796h4.445v-99.446h-4.445v59.496c0 5.144-1.202 10.116-3.264 14.746-6.015 13.544-19.763 23.164-34.37 23.164-17.357 0-30.245-13.571-30.245-30.922v-66.484h-4.445v66.484Zm103.226-52.767v-13.717h-4.446v99.446h4.446l.171-69.269c0-15.596 12.541-28.309 28.002-28.309 7.388 0 9.793.859 9.793.859v-4.449s-2.405-.855-9.793-.855c-12.025 0-22.504 6.507-28.173 16.127v.167Zm66.311-13.717h-4.617v99.446h4.617v-99.446ZM773.636 326c-2.055 0-3.94 1.713-3.94 3.769s1.885 3.94 3.941 3.94c2.055 0 3.768-1.884 3.768-3.94S775.692 326 773.637 326h-.001Zm30.397 62.356v-21.813h-4.445v99.446h4.445V406.39c0-5.153 1.203-9.962 3.265-14.599 6.187-13.416 19.591-23.208 34.198-23.208 17.357 0 30.417 13.572 30.417 30.923v66.483h4.445v-66.483c.172-19.928-14.412-35.54-34.346-35.54-15.982 0-30.761 10.114-37.979 24.373v.017Zm137.444 117.833c29.9 0 49.123-18.883 49.123-50.49v-89.156h-4.445v24.861c-7.561-16.291-23.542-27.438-42.1-27.438-25.776 0-46.545 21.285-46.545 47.748 0 26.462 20.769 47.747 46.545 47.747 18.558 0 34.539-11.146 42.1-27.299v23.537c0 29.029-17.184 45.873-44.678 45.873-24.572 0-35.914-10.485-35.914-10.485l-3.093 3.438s12.373 11.664 39.007 11.664Zm2.578-51.345c-23.198 0-41.928-19.417-41.928-43.13s18.73-43.131 41.928-43.131c23.198 0 41.928 19.418 41.928 43.131s-18.73 43.13-41.928 43.13Zm226.085-17.097v28.242h4.45v-99.446h-4.45v28.242c-8.07-18.298-25.94-30.819-46.56-30.819-28.18 0-51.01 23.518-51.01 52.386 0 28.868 22.83 52.214 51.01 52.214 20.62 0 38.49-12.521 46.56-30.735v-.084Zm0-23.801v4.64c-1.2 25.431-21.65 45.707-46.56 45.707-25.78 0-46.57-21.479-46.57-47.941 0-26.462 20.79-47.941 46.57-47.941 24.91 0 45.36 20.104 46.56 45.535Zm137.43 50.003c-25.61 0-46.4-21.479-46.4-47.769s20.79-47.597 46.4-47.597c25.6 0 46.39 21.307 46.39 47.597 0 26.29-20.79 47.769-46.39 47.769Zm46.39-26.118v68.873h4.62V366.543h-4.62v28.174c-8.07-18.23-25.6-30.751-46.39-30.751-28.18 0-51.01 23.346-51.01 52.214s22.83 52.386 51.01 52.386c20.79 0 38.32-12.521 46.39-30.735Zm27.66-4.804c-.34 19.928 14.41 35.539 34.35 35.539 15.98 0 30.76-10.114 37.97-24.373v21.796h4.45v-99.446h-4.45v59.496c0 5.144-1.2 10.116-3.26 14.746-6.01 13.544-19.76 23.164-34.37 23.164-17.36 0-30.24-13.571-30.24-30.922v-66.484h-4.45v66.484Zm104.94-66.484h-4.61v99.446h4.61v-99.446ZM1484.34 326c-2.05 0-3.94 1.713-3.94 3.769s1.89 3.94 3.94 3.94c2.06 0 3.77-1.884 3.77-3.94s-1.71-3.769-3.77-3.769Zm120.25 64.062c-9.11-16.153-25.95-26.096-44.16-26.096-28.17 0-51 23.346-51 52.214s22.83 52.386 51 52.386c18.21 0 35.05-9.944 44.16-26.096l-3.96-2.234c-8.24 14.778-23.53 23.885-40.2 23.885-25.76 0-46.55-21.479-46.55-47.941 0-26.462 20.79-47.597 46.55-47.597 16.67 0 31.96 8.935 40.2 23.712l3.96-2.233Zm26.62 36.663v-98.148h-4.44v137.412h4.44v-32.577l20.96-22.461 43.64 55.038h5.67l-46.39-58.296 38.48-41.15h-6.18l-56.18 60.182Zm156.68-31.852v-66.296h-4.45v137.412h4.45v-28.295c8.07 18.351 25.94 30.872 46.56 30.872 28.18 0 50.84-23.346 50.84-52.214s-22.66-52.214-50.84-52.214c-20.62 0-38.49 12.521-46.56 30.735Zm46.56-26.118c25.61 0 46.23 21.307 46.23 47.597 0 26.29-20.62 47.597-46.23 47.597-25.6 0-46.39-21.307-46.39-47.597 0-26.29 20.79-47.597 46.39-47.597Zm76.61 11.505v-13.717h-4.44v99.446h4.44l.18-69.269c0-15.596 12.54-28.309 28-28.309 7.38 0 9.79.859 9.79.859v-4.449s-2.41-.855-9.79-.855c-12.03 0-22.51 6.507-28.18 16.127v.167Zm90.72-11.677c25.78 0 46.57 21.135 46.57 47.597s-20.79 47.941-46.57 47.941c-25.77 0-46.57-21.479-46.57-47.941 0-26.462 20.8-47.597 46.57-47.597Zm0-4.617c-28.18 0-51.01 23.346-51.01 52.214s22.83 52.386 51.01 52.386 51.01-23.518 51.01-52.386c0-28.868-22.83-52.214-51.01-52.214Zm102.56 95.336-33.33-92.759h-4.81l35.91 99.275-.18.171h4.81l33.5-92.759 33.33 92.588v.171h4.81l35.91-99.446h-4.81l-33.5 92.588-33.33-92.588h-4.81l-33.5 92.759Zm136.56-70.946v-21.813h-4.44v99.446h4.44V406.39c0-5.153 1.21-9.962 3.27-14.599 6.19-13.416 19.59-23.208 34.2-23.208 17.35 0 30.41 13.572 30.41 30.923v66.483h4.45v-66.483c.17-19.928-14.41-35.54-34.35-35.54-15.98 0-30.76 10.114-37.98 24.373v.017Zm172.68-39.173v17.016h-18.56v4.446h18.56v95.344h4.44v-95.344h29.55v-4.446h-29.55v-17.36c.17-12.547 10.48-22.689 23.02-22.689 7.91 0 12.2 1.718 12.2 1.718l.69-4.466c0 .013-5.67-1.697-12.89-1.697-15.12 0-27.46 12.352-27.46 27.478Zm88.29 19.4c25.77 0 46.56 21.135 46.56 47.597s-20.79 47.941-46.56 47.941c-25.78 0-46.57-21.479-46.57-47.941 0-26.462 20.79-47.597 46.57-47.597Zm0-4.617c-28.18 0-51.01 23.346-51.01 52.214s22.83 52.386 51.01 52.386 51.01-23.518 51.01-52.386c0-28.868-22.83-52.214-51.01-52.214Zm101.01 52.129 34.36-49.552h-5.15l-31.79 45.951-31.78-45.951h-5.15l34.36 49.552-34.36 49.894h5.15l31.78-46.122 31.61 46.122h5.33l-34.36-49.894Z" style="fill:#111;fill-rule:nonzero" transform="matrix(.63923 -.10258 0 .63923 41.86 628.239)"/><path d="M857.471 445.9v-55.832h-58.753v24.394h34.702v21.303c-8.417 7.215-19.24 11.338-30.579 11.338-25.94 0-47.071-21.302-47.071-47.243 0-25.941 21.131-47.071 47.071-47.071 12.541 0 24.567 5.154 33.328 13.915l17.179-17.179c-13.399-13.4-31.609-20.959-50.507-20.959-39.34 0-71.293 31.954-71.293 71.294 0 39.34 31.953 71.466 71.293 71.466 21.131 0 41.059-9.277 54.63-25.426Zm23.88 20.272h92.596v-24.051h-68.546v-32.469h50.164v-24.394h-50.164v-32.813h68.546v-24.051h-92.596v137.778Zm173.509-140.183c-39.34 0-71.293 31.954-71.293 71.294 0 39.341 31.953 71.294 71.293 71.294s71.47-31.953 71.47-71.294c0-39.34-32.13-71.294-71.47-71.294Zm0 24.223c25.94 0 47.24 21.13 47.24 47.071s-21.3 47.071-47.24 47.071-47.07-21.13-47.07-47.071 21.13-47.071 47.07-47.071Zm248.07 115.96V328.394h-25.6l-50.68 95.689-50.68-95.689h-25.76v137.778h24.05v-92.253l39.51 74.386h25.77l39.34-74.386v92.253h24.05Zm23.88 0h92.59v-24.051h-68.54v-32.469h50.16v-24.394h-50.16v-32.813h68.54v-24.051h-92.59v137.778Zm116.47-137.778v24.395h41.58v113.383h24.39V352.789H1551v-24.395h-107.72Zm186.91 0h-55.31v137.778h24.05v-48.961h25.59l29.38 48.961h25.6l-31.61-52.569c15.8-6.871 26.63-22.504 26.63-40.714 0-24.567-19.76-44.495-44.33-44.495Zm0 24.223c11.17 0 20.28 9.105 20.28 20.272 0 10.822-8.59 19.584-19.42 20.099h-32.12v-40.371h31.26Zm73.19-24.223h24.051v137.777h-24.051zm169.73 18.382c-13.4-13.4-31.61-20.787-50.51-20.787-39.34 0-71.29 31.954-71.29 71.294 0 39.341 31.95 71.294 71.29 71.294 18.9 0 37.11-7.387 50.51-20.787l-17.18-17.179c-8.76 8.761-20.79 13.743-33.33 13.743-25.94 0-47.07-21.13-47.07-47.071s21.13-47.071 47.07-47.071c12.54 0 24.57 4.982 33.33 13.743l17.18-17.179Zm61.84 61.502 18.73-47.071 18.72 47.071h-37.45Zm-9.62 23.879h56.69L1995.6 466h26.11l-54.98-137.434h-26.11L1885.65 466h26.11l13.57-33.843Zm144.31 9.792V328.394h-24.23v137.778h92.77v-24.223h-68.54Z" style="fill:#111;fill-rule:nonzero" transform="matrix(1.09124 -.1751 0 1.09124 -606.71 183.873)"/><path d="M653.135 328.577H667.2v137.412h-14.065zm50.314 20.39 81.622 117.022h17.674V328.577h-14.066V445.6l-81.622-117.023h-17.674v137.412h14.066V348.967Zm243.258-2.2C933.307 333.376 915.097 326 896.2 326c-39.341 0-71.272 31.936-71.272 71.283 0 39.348 31.931 71.283 71.272 71.283 18.897 0 37.107-7.376 50.507-20.766l-10.308-10.31a56.812 56.812 0 0 1-40.199 16.667c-31.438 0-56.692-25.43-56.692-56.874 0-31.443 25.254-56.874 56.692-56.874a56.813 56.813 0 0 1 40.199 16.668l10.308-10.31ZM1032.27 326c-39.348 0-71.283 31.936-71.283 71.283 0 39.348 31.935 71.283 71.283 71.283 39.35 0 71.46-31.935 71.46-71.283 0-39.347-32.11-71.283-71.46-71.283Zm0 14.409c31.44 0 56.87 25.431 56.87 56.874 0 31.444-25.43 56.874-56.87 56.874-31.44 0-56.702-25.43-56.702-56.874 0-31.443 25.262-56.874 56.702-56.874Zm107.53 8.558 81.62 117.022h17.68V328.577h-14.07V445.6l-81.62-117.023h-17.67v137.412h14.06V348.967Zm214.58-7.354S1340.82 326 1309.54 326c-29.38 0-47.4 19.049-47.4 39.324 0 2.578.17 5.327.86 7.904 2.74 11.684 10.12 18.557 19.56 23.196 13.58 6.701 33 7.561 47.09 13.746 7.22 3.265 12.89 8.591 14.26 18.214.17.859.17 1.546.17 2.405 0 12.715-13.57 23.196-33.16 23.196-23.72 0-41.06-12.371-41.06-12.371l-8.58 11.856s20.94 15.096 49.64 15.096c29.56 0 47.92-18.189 47.92-37.949 0-1.374-.18-2.921-.35-4.295-3.43-24.743-23.69-31.444-45.17-36.255-14.78-3.265-32.82-5.499-36.08-20.275a20.956 20.956 0 0 1-.52-4.64c0-13.23 13.4-24.571 32.82-24.571 23.55 0 33.86 10.825 33.86 10.825l10.98-9.793Zm26.47-13.036h14.065v137.412h-14.065zm129.34 13.036S1496.63 326 1465.36 326c-29.39 0-47.41 19.049-47.41 39.324 0 2.578.18 5.327.86 7.904 2.75 11.684 10.12 18.557 19.57 23.196 13.57 6.701 32.99 7.561 47.08 13.746 7.22 3.265 12.89 8.591 14.27 18.214.17.859.17 1.546.17 2.405 0 12.715-13.58 23.196-33.17 23.196-23.71 0-41.06-12.371-41.06-12.371l-8.57 11.856s20.94 15.096 49.63 15.096c29.56 0 47.92-18.189 47.92-37.949 0-1.374-.17-2.921-.34-4.295-3.43-24.743-23.69-31.444-45.17-36.255-14.78-3.265-32.82-5.499-36.09-20.275a21.554 21.554 0 0 1-.51-4.64c0-13.23 13.4-24.571 32.82-24.571 23.54 0 33.85 10.825 33.85 10.825l10.98-9.793Zm112-13.036H1514.5v14.065h46.73v123.347h14.24V342.642h46.72v-14.065Zm22.01-.172v137.756h92.58v-14.065h-78.51v-47.78h60.13V390.25h-60.13v-47.779h78.51v-14.066h-92.58Zm128.83 20.562 81.62 117.022h17.67V328.577h-14.06V445.6l-81.62-117.023h-17.68v137.412h14.07V348.967Zm243.26-2.2c-13.4-13.391-31.61-20.767-50.51-20.767-39.34 0-71.27 31.936-71.27 71.283 0 39.348 31.93 71.283 71.27 71.283 18.9 0 37.11-7.376 50.51-20.766l-10.31-10.31a56.81 56.81 0 0 1-40.2 16.667c-31.44 0-56.69-25.43-56.69-56.874 0-31.443 25.25-56.874 56.69-56.874a56.81 56.81 0 0 1 40.2 16.668l10.31-10.31Zm68.72 41.436-40.36-59.626h-16.83l50.16 73.847v63.565h14.07v-63.565l50.16-73.847h-16.66l-40.54 59.626Zm85.22-53.445-5.84 10.132s8.59 3.949 17.87 8.758a735.28 735.28 0 0 1-17.87 8.929l5.84 9.961 16.49-10.991c-.51 10.475-1.2 19.92-1.2 19.92h11.66s-.68-9.445-1.2-19.92c4.64 2.919 16.49 10.991 16.49 10.991l5.84-9.961s-13.22-6.525-17.86-8.929c4.64-2.404 17.86-8.758 17.86-8.758l-5.84-10.132s-11.85 8.071-16.49 10.99c.17-5.495 1.2-19.92 1.2-19.92h-11.66s1.2 14.425 1.38 19.92c-8.76-5.667-16.67-10.99-16.67-10.99Z" style="fill:#4b5;fill-rule:nonzero" transform="matrix(.9819 -.15756 0 .9819 -449.73 406.892)"/><path d="M648.916 328.394v24.223h15.461v113.555H688.6V328.394h-39.684Zm64.937.172s-6.356 68.03-6.528 68.202l19.241 13.399c4.638-5.669 11.682-8.933 19.24-8.933 13.228 0 24.051 10.136 24.051 22.505s-10.823 22.505-24.051 22.505c-8.589 0-16.663-4.295-20.958-11.338l-20.787 11.338c8.59 13.915 24.566 22.333 41.745 22.333 26.628 0 48.102-20.1 48.102-44.838s-21.474-45.009-48.102-45.009c-5.153 0-10.135.687-14.946 2.233l2.577-28.174h52.053v-24.223h-71.637Zm95.517 125.58c0 8.075 6.356 14.431 14.43 14.431s14.602-6.356 14.602-14.431c0-8.074-6.528-14.43-14.602-14.43-8.074 0-14.43 6.356-14.43 14.43Zm112.524-81.945v50.164c0 12.025-9.793 21.817-21.818 21.817-12.026 0-21.646-9.792-21.646-21.817v-50.164c0-12.025 9.62-21.817 21.646-21.817 12.025 0 21.818 9.792 21.818 21.817Zm-68.03 0v50.164c0 25.597 20.615 46.212 46.212 46.212 25.597 0 46.384-20.615 46.384-46.212v-50.164c0-25.597-20.787-46.212-46.384-46.212s-46.212 20.615-46.212 46.212Zm107.885-43.807v24.223h15.462v113.555h24.219V328.394h-39.681Zm55.141 125.752c0 8.075 6.36 14.431 14.44 14.431 8.07 0 14.6-6.356 14.6-14.431 0-8.074-6.53-14.43-14.6-14.43-8.08 0-14.44 6.356-14.44 14.43ZM1063.11 466h88.81v-24.051h-51.88c17.18-13.228 29.21-24.394 37.28-34.53 10.65-13.4 14.95-25.425 14.95-37.451 0-14.602-5.33-25.253-13.4-32.469-8.42-7.559-20.1-11.51-32.3-11.51-12.54 0-24.05 4.982-32.3 13.572-7.9 8.074-12.88 19.412-12.88 32.297h23.88c0-6.185 2.4-11.51 6.18-15.461 3.78-3.952 9.28-6.357 15.12-6.357 6.01 0 11.85 1.546 16.15 5.326 3.61 3.264 5.67 8.074 5.67 14.602 0 9.62-5.16 18.897-15.98 30.579-10.82 11.682-26.8 25.082-49.3 41.402V466Zm172.65-93.799v50.164c0 12.025-9.79 21.817-21.82 21.817-12.03 0-21.64-9.792-21.64-21.817v-50.164c0-12.025 9.61-21.817 21.64-21.817 12.03 0 21.82 9.792 21.82 21.817Zm-68.03 0v50.164c0 25.597 20.61 46.212 46.21 46.212s46.38-20.615 46.38-46.212v-50.164c0-25.597-20.78-46.212-46.38-46.212s-46.21 20.615-46.21 46.212ZM1277.33 466h88.82v-24.051h-51.88c17.18-13.228 29.2-24.394 37.28-34.53 10.65-13.4 14.94-25.425 14.94-37.451 0-14.602-5.32-25.253-13.4-32.469-8.42-7.559-20.1-11.51-32.29-11.51-12.55 0-24.06 4.982-32.3 13.572-7.9 8.074-12.89 19.412-12.89 32.297h23.88c0-6.185 2.41-11.51 6.19-15.461 3.78-3.952 9.27-6.357 15.12-6.357 6.01 0 11.85 1.546 16.14 5.326 3.61 3.264 5.67 8.074 5.67 14.602 0 9.62-5.15 18.897-15.97 30.579-10.83 11.682-26.8 25.082-49.31 41.402V466Zm106.34 0h88.82v-24.051h-51.88c17.18-13.228 29.2-24.394 37.28-34.53 10.65-13.4 14.94-25.425 14.94-37.451 0-14.602-5.32-25.253-13.4-32.469-8.42-7.559-20.1-11.51-32.3-11.51-12.54 0-24.05 4.982-32.29 13.572-7.91 8.074-12.89 19.412-12.89 32.297h23.88c0-6.185 2.41-11.51 6.19-15.461 3.78-3.952 9.27-6.357 15.11-6.357 6.02 0 11.86 1.546 16.15 5.326 3.61 3.264 5.67 8.074 5.67 14.602 0 9.62-5.15 18.897-15.97 30.579-10.83 11.682-26.8 25.082-49.31 41.402V466Z" style="fill:#111;fill-rule:nonzero" transform="translate(19.96 93.601) scale(.26447)"/><path d="M669.52 366.543v-26.456l-4.445 2.577v23.879h-16.149v4.445h16.149v69.936c0 15.293 12.176 27.471 27.465 27.642 6.013 0 10.651-1.026 10.651-1.026l-1.031-3.934s-2.92.515-9.448.515a23.098 23.098 0 0 1-23.192-23.197v-69.936h32.125v-4.445H669.52Z" style="fill:#111;fill-rule:nonzero" transform="translate(19.96 140.904) scale(.26447)"/><path d="M753.365 368.583c25.775 0 46.567 21.135 46.567 47.597s-20.792 47.941-46.567 47.941-46.566-21.479-46.566-47.941c0-26.462 20.791-47.597 46.566-47.597Zm0-4.617c-28.18 0-51.011 23.346-51.011 52.214s22.831 52.386 51.011 52.386c28.181 0 51.012-23.518 51.012-52.386 0-28.868-22.831-52.214-51.012-52.214Zm116.132-35.572v24.223h15.461v113.555h24.223V328.394h-39.684Zm102.732 70.779c13.056 0 23.707 10.479 23.707 23.192 0 12.712-10.651 23.192-23.707 23.192-13.057 0-23.879-10.48-23.879-23.192 0-12.713 10.822-23.192 23.879-23.192Zm-1.89-23.192 25.597-47.415h-26.971l-39.513 73.527c-3.092 6.185-4.81 13.056-4.81 20.272 0 25.597 21.302 46.212 47.587 46.212 26.284 0 47.591-20.615 47.591-46.212 0-25.597-21.307-46.384-47.591-46.384h-1.89Zm64.771 78.165c0 8.075 6.35 14.431 14.43 14.431 8.07 0 14.6-6.356 14.6-14.431 0-8.074-6.53-14.43-14.6-14.43-8.08 0-14.43 6.356-14.43 14.43Zm112.52-81.945v50.164c0 12.025-9.79 21.817-21.82 21.817-12.02 0-21.65-9.792-21.65-21.817v-50.164c0-12.025 9.63-21.817 21.65-21.817 12.03 0 21.82 9.792 21.82 21.817Zm-68.03 0v50.164c0 25.597 20.61 46.212 46.21 46.212s46.38-20.615 46.38-46.212v-50.164c0-25.597-20.78-46.212-46.38-46.212s-46.21 20.615-46.21 46.212Zm107.88-43.807v24.223h15.47v113.555h24.22V328.394h-39.69Zm55.15 125.752c0 8.075 6.36 14.431 14.43 14.431s14.6-6.356 14.6-14.431c0-8.074-6.53-14.43-14.6-14.43s-14.43 6.356-14.43 14.43ZM1288.84 466h88.82v-24.051h-51.88c17.18-13.228 29.2-24.394 37.28-34.53 10.65-13.4 14.94-25.425 14.94-37.451 0-14.602-5.32-25.253-13.4-32.469-8.42-7.559-20.1-11.51-32.29-11.51-12.54 0-24.06 4.982-32.3 13.572-7.9 8.074-12.89 19.412-12.89 32.297H1311c0-6.185 2.41-11.51 6.19-15.461 3.78-3.952 9.27-6.357 15.12-6.357 6.01 0 11.85 1.546 16.14 5.326 3.61 3.264 5.67 8.074 5.67 14.602 0 9.62-5.15 18.897-15.97 30.579-10.83 11.682-26.8 25.082-49.31 41.402V466Zm172.65-93.799v50.164c0 12.025-9.79 21.817-21.81 21.817-12.03 0-21.65-9.792-21.65-21.817v-50.164c0-12.025 9.62-21.817 21.65-21.817 12.02 0 21.81 9.792 21.81 21.817Zm-68.03 0v50.164c0 25.597 20.62 46.212 46.22 46.212 25.59 0 46.38-20.615 46.38-46.212v-50.164c0-25.597-20.79-46.212-46.38-46.212-25.6 0-46.22 20.615-46.22 46.212ZM1503.07 466h88.81v-24.051H1540c17.18-13.228 29.21-24.394 37.28-34.53 10.65-13.4 14.95-25.425 14.95-37.451 0-14.602-5.33-25.253-13.4-32.469-8.42-7.559-20.1-11.51-32.3-11.51-12.54 0-24.05 4.982-32.3 13.572-7.9 8.074-12.88 19.412-12.88 32.297h23.88c0-6.185 2.4-11.51 6.18-15.461 3.78-3.952 9.28-6.357 15.12-6.357 6.01 0 11.85 1.546 16.15 5.326 3.61 3.264 5.67 8.074 5.67 14.602 0 9.62-5.16 18.897-15.98 30.579-10.82 11.682-26.8 25.082-49.3 41.402V466Zm106.34 0h88.81v-24.051h-51.88c17.18-13.228 29.21-24.394 37.28-34.53 10.65-13.4 14.95-25.425 14.95-37.451 0-14.602-5.33-25.253-13.4-32.469-8.42-7.559-20.1-11.51-32.3-11.51-12.54 0-24.05 4.982-32.3 13.572-7.9 8.074-12.88 19.412-12.88 32.297h23.88c0-6.185 2.4-11.51 6.18-15.461 3.78-3.952 9.28-6.357 15.12-6.357 6.01 0 11.85 1.546 16.15 5.326 3.61 3.264 5.67 8.074 5.67 14.602 0 9.62-5.16 18.897-15.98 30.579-10.82 11.682-26.8 25.082-49.3 41.402V466Z" style="fill:#111;fill-rule:nonzero" transform="translate(19.96 140.904) scale(.26447)"/><path d="m-4009.91 334.758-5.84 10.132s8.59 3.949 17.87 8.758a735.28 735.28 0 0 1-17.87 8.929l5.84 9.961 16.49-10.991c-.51 10.475-1.2 19.92-1.2 19.92h11.66s-.69-9.445-1.2-19.92c4.64 2.919 16.49 10.991 16.49 10.991l5.84-9.961s-13.23-6.525-17.87-8.929c4.64-2.404 17.87-8.758 17.87-8.758l-5.84-10.132s-11.85 8.071-16.49 10.99c.17-5.495 1.2-19.92 1.2-19.92h-11.66s1.2 14.425 1.37 19.92c-8.76-5.667-16.66-10.99-16.66-10.99Zm229.49-6.181h-107.69v14.065h46.73v123.347h14.24V342.642h46.72v-14.065Zm31.96 55.124v-55.124h-14.07v137.412h14.07v-56.348c0-4.123.86-8.246 2.57-12.025 4.99-10.995 15.99-18.897 28.02-18.897 13.75 0 24.06 10.307 24.75 23.879v63.391h14.23v-63.048h-.17c.17-21.817-15.61-38.803-37.27-38.803-14.6 0-25.6 7.719-32.13 19.563Zm166.98 24.931h-65.97c1.37-7.564 4.81-14.612 10.14-20.114 6.87-6.876 15.97-10.658 25.08-10.658 6.01 0 11.85 1.719 16.83 4.985 7.39 4.814 12.54 13.409 13.92 25.787Zm-65.8-29.913c-9.43 9.799-14.58 23.209-14.58 37.118 0 29.209 21.11 52.729 49.28 52.729 28.18 0 41.23-10.978 41.23-10.978l-8.93-11.511s-11.68 8.424-32.3 8.424c-18.38 0-32.12-13.581-35.04-31.632h80.57v-8.576c-.34-21.477-9.11-35.402-20.61-43.123-7.22-4.803-15.81-7.204-24.4-7.204-12.71 0-25.77 4.974-35.22 14.753Zm170.76-12.176h-14.06v99.446h14.06v-99.446Zm-7.03-37.966c-5.32 0-9.78 4.462-9.78 9.781 0 5.32 4.46 9.782 9.78 9.782 5.32 0 9.78-4.462 9.78-9.782 0-5.319-4.46-9.781-9.78-9.781Zm100.32 44.82s-9.95-12.18-33.84-12.18c-22.68 0-36.58 15.097-36.58 30.734 0 2.062.18 4.124.69 6.187 3.26 13.575 14.07 19.074 27.13 22.339 12.03 3.265 28.02 3.608 29.91 17.184v1.202c0 3.437-1.72 6.702-4.64 9.108-4.13 3.609-10.49 5.671-17.88 5.671-16.67 0-30.06-8.764-30.06-8.764l-8.24 12.709s17.16 10.979 38.3 10.979c22.86 0 37.61-14.41 37.61-29.703 0-1.031 0-2.233-.17-3.264-2.57-18.903-17.33-24.402-33.49-28.01-9.62-2.062-21.48-3.437-23.72-13.06-.17-1.031-.34-1.89-.34-2.921 0-8.421 8.94-15.294 21.48-15.294 15.65 0 22.69 7.045 22.69 7.045l11.15-9.962Zm93.11 0s-9.95-12.18-33.83-12.18c-22.69 0-36.58 15.097-36.58 30.734 0 2.062.17 4.124.68 6.187 3.26 13.575 14.07 19.074 27.13 22.339 12.03 3.265 28.02 3.608 29.91 17.184v1.202c0 3.437-1.72 6.702-4.64 9.108-4.13 3.609-10.49 5.671-17.88 5.671-16.67 0-30.06-8.764-30.06-8.764l-8.24 12.709s17.16 10.979 38.3 10.979c22.86 0 37.61-14.41 37.61-29.703 0-1.031 0-2.233-.17-3.264-2.57-18.903-17.33-24.402-33.49-28.01-9.62-2.062-21.48-3.437-23.71-13.06-.18-1.031-.35-1.89-.35-2.921 0-8.421 8.94-15.294 21.49-15.294 15.64 0 22.68 7.045 22.68 7.045l11.15-9.962Zm87.29 61.863c-4.98 10.995-15.81 18.897-27.84 18.897-13.75 0-24.23-10.307-24.92-23.879v-63.735h-14.07v63.391c-.17 21.818 15.79 38.632 37.44 38.632 14.61 0 25.61-7.719 32.14-19.563v16.986h14.07v-99.446h-14.07v56.581c0 4.115-1.03 8.23-2.75 12.003v.133Zm114.22-26.628h-65.97c1.38-7.564 4.81-14.612 10.14-20.114 6.87-6.876 15.97-10.658 25.08-10.658 6.01 0 11.85 1.719 16.84 4.985 7.38 4.814 12.54 13.409 13.91 25.787Zm-65.8-29.913c-9.43 9.799-14.58 23.209-14.58 37.118 0 29.209 21.11 52.729 49.29 52.729 28.17 0 41.23-10.978 41.23-10.978l-8.94-11.511s-11.68 8.424-32.29 8.424c-18.39 0-32.13-13.581-35.05-31.632h80.57v-8.576c-.34-21.477-9.1-35.402-20.61-43.123-7.22-4.803-15.81-7.204-24.4-7.204-12.71 0-25.77 4.974-35.22 14.753Zm170.77-12.176h-14.07v99.446h14.07v-99.446Zm-7.04-37.966c-5.32 0-9.78 4.462-9.78 9.781 0 5.32 4.46 9.782 9.78 9.782 5.32 0 9.79-4.462 9.79-9.782 0-5.319-4.47-9.781-9.79-9.781Zm100.32 44.82s-9.95-12.18-33.83-12.18c-22.69 0-36.58 15.097-36.58 30.734 0 2.062.17 4.124.68 6.187 3.26 13.575 14.07 19.074 27.13 22.339 12.03 3.265 28.02 3.608 29.91 17.184v1.202c0 3.437-1.72 6.702-4.64 9.108-4.13 3.609-10.49 5.671-17.88 5.671-16.67 0-30.06-8.764-30.06-8.764l-8.24 12.709s17.16 10.979 38.3 10.979c22.86 0 37.62-14.41 37.62-29.703 0-1.031 0-2.233-.18-3.264-2.57-18.903-17.33-24.402-33.48-28.01-9.63-2.062-21.49-3.437-23.72-13.06-.18-1.031-.35-1.89-.35-2.921 0-8.421 8.94-15.294 21.49-15.294 15.64 0 22.68 7.045 22.68 7.045l11.15-9.962Zm163.22 41.581v2.577c-.68 20.449-16.84 36.946-36.94 36.946-20.45 0-36.95-17.184-36.95-38.149 0-20.964 16.5-38.32 36.95-38.32 20.1 0 36.26 16.497 36.94 36.946Zm0 31.79v19.221h14.07v-99.446h-14.07v19.513c-7.21-13.342-19.76-22.09-36.94-22.09-28.18 0-51.01 23.517-51.01 52.386 0 28.869 22.83 52.214 51.01 52.214 17.18 0 29.73-8.576 36.94-21.798Zm127.28-56.707c-9.11-16.146-25.94-26.095-44.15-26.095-28.17 0-51 23.517-51 52.386 0 28.869 22.83 52.214 51 52.214 18.21 0 35.04-9.949 44.15-26.094l-11.85-7.046c-6.7 11.857-18.9 19.075-32.3 19.075-20.61 0-37.28-17.012-37.28-38.149 0-21.136 16.67-38.32 37.28-38.32 13.4 0 25.6 7.217 32.3 19.074l11.85-7.045Zm37.62-23.518v-26.284l-14.06 2.405v23.879h-16.15v14.065h16.15v57.911a29.953 29.953 0 0 0 30.04 30.047c6.7 0 17.52-2.573 17.52-2.573l-2.75-12.695s-6.01 1.203-14.77 1.203-15.98-7.046-15.98-15.81v-58.083h30.07v-14.065h-30.07Zm118.39 68.717c-4.99 10.995-15.81 18.897-27.84 18.897-13.75 0-24.24-10.307-24.92-23.879v-63.735h-14.07v63.391c-.17 21.818 15.79 38.632 37.44 38.632 14.61 0 25.61-7.719 32.14-19.563v16.986h14.06v-99.446h-14.06v56.581c0 4.115-1.03 8.23-2.75 12.003v.133Zm121.8-20.282v2.577c-.69 20.449-16.84 36.946-36.95 36.946-20.45 0-36.94-17.184-36.94-38.149 0-20.964 16.49-38.32 36.94-38.32 20.11 0 36.26 16.497 36.95 36.946Zm0 31.79v19.221h14.07v-99.446h-14.07v19.513c-7.22-13.342-19.76-22.09-36.95-22.09-28.18 0-51.01 23.517-51.01 52.386 0 28.869 22.83 52.214 51.01 52.214 17.19 0 29.73-8.576 36.95-21.798ZM-2275 326l-14.07 2.405v137.584h14.07V326Zm32.12 0-14.06 2.405v137.584h14.06V326Zm66.67 121.578-35.39-81.035h-16.15l43.47 99.538-8.42 19.017c-2.06 3.94-6.19 6.682-10.82 6.682-3.27 0-6.53-1.2-8.76-3.598l-10.48 10.288c5.15 5.146 12.02 8.062 19.24 8.062 10.65 0 20.1-6.175 24.56-15.609l54.29-124.38h-16.15l-35.39 81.035ZM-2037.07 326l-14.06 2.405v137.584h14.06V326Zm97.58 82.632h-65.97c1.38-7.564 4.81-14.612 10.14-20.114 6.87-6.876 15.97-10.658 25.08-10.658 6.01 0 11.85 1.719 16.84 4.985 7.38 4.814 12.54 13.409 13.91 25.787Zm-65.8-29.913c-9.43 9.799-14.58 23.209-14.58 37.118 0 29.209 21.11 52.729 49.29 52.729 28.17 0 41.23-10.978 41.23-10.978l-8.94-11.511s-11.68 8.424-32.29 8.424c-18.39 0-32.13-13.581-35.05-31.632h80.57v-8.576c-.34-21.477-9.1-35.402-20.61-43.123-7.22-4.803-15.81-7.204-24.4-7.204-12.71 0-25.77 4.974-35.22 14.753Zm162.52-5.322s-9.95-12.18-33.83-12.18c-22.69 0-36.58 15.097-36.58 30.734 0 2.062.17 4.124.68 6.187 3.26 13.575 14.07 19.074 27.13 22.339 12.03 3.265 28.02 3.608 29.91 17.184v1.202c0 3.437-1.72 6.702-4.64 9.108-4.13 3.609-10.49 5.671-17.88 5.671-16.67 0-30.06-8.764-30.06-8.764l-8.24 12.709s17.16 10.979 38.3 10.979c22.86 0 37.61-14.41 37.61-29.703 0-1.031 0-2.233-.17-3.264-2.57-18.903-17.33-24.402-33.49-28.01-9.62-2.062-21.48-3.437-23.71-13.06-.18-1.031-.35-1.89-.35-2.921 0-8.421 8.94-15.294 21.49-15.294 15.64 0 22.68 7.045 22.68 7.045l11.15-9.962Zm93.11 0s-9.95-12.18-33.83-12.18c-22.69 0-36.58 15.097-36.58 30.734 0 2.062.17 4.124.68 6.187 3.26 13.575 14.07 19.074 27.13 22.339 12.03 3.265 28.02 3.608 29.91 17.184v1.202c0 3.437-1.72 6.702-4.64 9.108-4.13 3.609-10.49 5.671-17.88 5.671-16.67 0-30.06-8.764-30.06-8.764l-8.23 12.709s17.15 10.979 38.29 10.979c22.86 0 37.62-14.41 37.62-29.703 0-1.031 0-2.233-.18-3.264-2.57-18.903-17.33-24.402-33.48-28.01-9.63-2.062-21.49-3.437-23.72-13.06-.18-1.031-.35-1.89-.35-2.921 0-8.421 8.94-15.294 21.49-15.294 15.64 0 22.68 7.045 22.68 7.045l11.15-9.962Zm163.23 41.581v2.577c-.69 20.449-16.85 36.946-36.95 36.946-20.45 0-36.95-17.184-36.95-38.149 0-20.964 16.5-38.32 36.95-38.32 20.1 0 36.26 16.497 36.95 36.946Zm0 31.79v19.221h14.06v-99.446h-14.06v19.513c-7.22-13.342-19.77-22.09-36.95-22.09-28.18 0-51.01 23.517-51.01 52.386 0 28.869 22.83 52.214 51.01 52.214 17.18 0 29.73-8.576 36.95-21.798Zm47.04-29.041v-2.578c.69-20.448 16.84-36.946 36.95-36.946 20.45 0 36.78 17.185 36.78 38.149 0 20.965-16.33 38.149-36.78 38.149-20.11 0-36.26-16.325-36.95-36.774Zm0-31.79v-57.36h-14.06v137.412h14.06v-19.374c7.22 13.375 19.77 21.951 36.95 21.951 28.18 0 50.84-23.345 50.84-52.214s-22.66-52.214-50.84-52.214c-17.18 0-29.73 8.576-36.95 21.799Zm155.14-7.905c20.63 0 37.29 17.184 37.29 38.32 0 21.137-16.66 38.149-37.29 38.149-20.62 0-37.29-17.012-37.29-38.149 0-21.136 16.67-38.32 37.29-38.32Zm0-14.066c-28.18 0-51.01 23.517-51.01 52.386 0 28.869 22.83 52.214 51.01 52.214 28.19 0 51.01-23.345 51.01-52.214s-22.82-52.386-51.01-52.386Zm135.9 71.294c-4.98 10.995-15.81 18.897-27.84 18.897-13.75 0-24.23-10.307-24.92-23.879v-63.735h-14.06v63.391c-.18 21.818 15.78 38.632 37.43 38.632 14.61 0 25.61-7.719 32.14-19.563v16.986h14.07v-99.446h-14.07v56.581c0 4.115-1.03 8.23-2.75 12.003v.133Zm64.92-68.717v-26.284l-14.07 2.405v23.879h-16.15v14.065h16.15v57.911a29.955 29.955 0 0 0 30.05 30.047c6.69 0 17.52-2.573 17.52-2.573l-2.75-12.695s-6.01 1.203-14.77 1.203c-8.77 0-15.98-7.046-15.98-15.81v-58.083h30.06v-14.065h-30.06Zm137.43 0v-26.284l-14.06 2.405v23.879h-16.15v14.065h16.15v57.911a29.953 29.953 0 0 0 30.04 30.047c6.7 0 17.52-2.573 17.52-2.573l-2.75-12.695s-6.01 1.203-14.77 1.203-15.98-7.046-15.98-15.81v-58.083h30.07v-14.065H-1046Zm65.627 17.158v-55.124h-14.066v137.412h14.066v-56.348c0-4.123.859-8.246 2.577-12.025 4.984-10.995 15.983-18.897 28.013-18.897 13.749 0 24.06 10.307 24.748 23.879v63.391h14.237v-63.048h-.171c.171-21.817-15.613-38.803-37.267-38.803-14.608 0-25.607 7.719-32.137 19.563Zm166.982 24.931h-65.969c1.375-7.564 4.811-14.612 10.136-20.114 6.872-6.876 15.977-10.658 25.082-10.658 6.013 0 11.854 1.719 16.835 4.985 7.388 4.814 12.541 13.409 13.916 25.787Zm-65.797-29.913c-9.435 9.799-14.581 23.209-14.581 37.118 0 29.209 21.109 52.729 49.283 52.729s41.23-10.978 41.23-10.978l-8.933-11.511s-11.682 8.424-32.297 8.424c-18.382 0-32.125-13.581-35.045-31.632h80.57v-8.576c-.343-21.477-9.105-35.402-20.615-43.123-7.215-4.803-15.805-7.204-24.394-7.204-12.713 0-25.769 4.974-35.218 14.753Zm167.691-27.132v14.612h-13.743v14.238h13.743v85.552h14.237v-85.552h24.567v-14.238h-24.567v-14.612c0-8.768 6.872-15.645 15.633-15.645 7.559 0 10.995.516 10.995.516l1.546-12.866s-4.982-1.887-12.541-1.887c-16.49 0-29.87 13.38-29.87 29.882Zm90.867 26.445c20.621 0 37.29 17.184 37.29 38.32 0 21.137-16.669 38.149-37.29 38.149s-37.289-17.012-37.289-38.149c0-21.136 16.668-38.32 37.289-38.32Zm0-14.066c-28.182 0-51.011 23.517-51.011 52.386 0 28.869 22.829 52.214 51.011 52.214 28.183 0 51.012-23.345 51.012-52.214s-22.829-52.386-51.012-52.386Zm83.137 19.723v-17.146h-14.065v99.446h14.065v-56.41c0-4.115 1.031-8.23 2.75-12.002 4.984-11.128 15.983-19.03 28.013-19.03 13.748 0 24.06 10.308 24.747 23.879v63.563h14.238V402.77c.172-21.818-15.956-38.804-37.61-38.804-14.608 0-25.607 7.719-32.138 19.563v.16Zm108.745-17.146v-26.284l-14.066 2.405v23.879h-16.148v14.065h16.148v57.911a29.953 29.953 0 0 0 30.042 30.047c6.7 0 17.523-2.573 17.523-2.573l-2.749-12.695s-6.012 1.203-14.774 1.203c-8.761 0-15.976-7.046-15.976-15.81v-58.083h30.063v-14.065h-30.063Zm121.285 51.184v-2.578c.687-20.448 16.841-36.946 36.946-36.946 20.449 0 36.774 17.185 36.774 38.149 0 20.965-16.325 38.149-36.774 38.149-20.105 0-36.259-16.325-36.946-36.774Zm0-31.79v-57.36h-14.065v137.412h14.065v-19.374c7.217 13.375 19.762 21.951 36.946 21.951 28.182 0 50.84-23.345 50.84-52.214s-22.658-52.214-50.84-52.214c-17.184 0-29.729 8.576-36.946 21.799Zm184.505 22.695h-65.968c1.374-7.564 4.81-14.612 10.135-20.114 6.872-6.876 15.977-10.658 25.082-10.658 6.013 0 11.854 1.719 16.836 4.985 7.387 4.814 12.541 13.409 13.915 25.787Zm-65.796-29.913c-9.435 9.799-14.581 23.209-14.581 37.118 0 29.209 21.109 52.729 49.283 52.729 28.173 0 41.23-10.978 41.23-10.978l-8.933-11.511s-11.682 8.424-32.297 8.424c-18.382 0-32.126-13.581-35.046-31.632h80.571v-8.576c-.344-21.477-9.105-35.402-20.616-43.123-7.215-4.803-15.804-7.204-24.394-7.204-12.713 0-25.769 4.974-35.217 14.753Zm115.1-12.176h-14.065v99.446h14.065v-99.446Zm-7.032-37.966c-5.32 0-9.782 4.462-9.782 9.781 0 5.32 4.462 9.782 9.782 9.782 5.319 0 9.781-4.462 9.781-9.782 0-5.319-4.462-9.781-9.781-9.781Zm41.734 55.112v-17.146h-14.065v99.446h14.065v-56.41c0-4.115 1.032-8.23 2.75-12.002 4.984-11.128 15.983-19.03 28.013-19.03 13.749 0 24.06 10.308 24.748 23.879v63.563h14.237V402.77c.172-21.818-15.956-38.804-37.61-38.804-14.608 0-25.607 7.719-32.138 19.563v.16Zm165.801 25.103v5.671c-1.374 17.185-15.294 30.933-32.479 30.933-18.044 0-32.48-15.123-32.48-33.682 0-18.56 14.436-33.854 32.48-33.854 17.185 0 31.105 13.747 32.479 30.932Zm-34.885 97.74c29.558 0 48.951-18.363 48.951-49.472v-90.517h-14.066v16.113c-6.53-11.486-17.528-18.69-32.479-18.69-25.777 0-46.545 21.283-46.545 47.748 0 26.464 20.768 47.747 46.545 47.747 14.951 0 25.949-7.204 32.479-18.533v17.676c-.687 21.829-13.747 33.863-34.885 33.863-20.622 0-33.847-8.08-33.847-8.08l-7.548 11.853s16.133 10.292 41.395 10.292Zm140.344-139.989h-14.065v99.446h14.065v-99.446Zm-7.032-37.966c-5.32 0-9.782 4.462-9.782 9.781 0 5.32 4.462 9.782 9.782 9.782 5.319 0 9.781-4.462 9.781-9.782 0-5.319-4.462-9.781-9.781-9.781Zm41.735 55.112v-17.146h-14.066v99.446h14.066v-56.41c0-4.115 1.031-8.23 2.749-12.002 4.984-11.128 15.983-19.03 28.013-19.03 13.749 0 24.06 10.308 24.748 23.879v63.563h14.237V402.77c.172-21.818-15.956-38.804-37.61-38.804-14.608 0-25.607 7.719-32.137 19.563v.16Zm181.928 6.372c-9.105-16.146-25.941-26.095-44.151-26.095-28.174 0-51.001 23.517-51.001 52.386 0 28.869 22.827 52.214 51.001 52.214 18.21 0 35.046-9.949 44.151-26.094l-11.854-7.046c-6.7 11.857-18.897 19.075-32.297 19.075-20.615 0-37.279-17.012-37.279-38.149 0-21.136 16.664-38.32 37.279-38.32 13.4 0 25.597 7.217 32.297 19.074l11.854-7.045Zm62.027-12.029c20.621 0 37.29 17.184 37.29 38.32 0 21.137-16.669 38.149-37.29 38.149s-37.289-17.012-37.289-38.149c0-21.136 16.668-38.32 37.289-38.32Zm0-14.066c-28.182 0-51.011 23.517-51.011 52.386 0 28.869 22.829 52.214 51.011 52.214 28.183 0 51.012-23.345 51.012-52.214s-22.829-52.386-51.012-52.386Zm83.137 19.723v-17.146h-14.065v99.446h14.065v-56.41c0-4.115 1.031-8.23 2.75-12.002 4.984-11.128 15.983-19.03 28.013-19.03 13.748 0 24.06 10.308 24.747 23.879v63.563h14.238V402.77c.172-21.818-15.956-38.804-37.611-38.804-14.607 0-25.606 7.719-32.137 19.563v.16Zm160.286-10.292s-9.95-12.18-33.836-12.18c-22.686 0-36.581 15.097-36.581 30.734 0 2.062.171 4.124.686 6.187 3.26 13.575 14.067 19.074 27.129 22.339 12.032 3.265 28.016 3.608 29.907 17.184v1.202c0 3.437-1.719 6.702-4.641 9.108-4.125 3.609-10.484 5.671-17.875 5.671-16.672 0-30.06-8.764-30.06-8.764l-8.238 12.709s17.159 10.979 38.298 10.979c22.859 0 37.612-14.41 37.612-29.703 0-1.031 0-2.233-.171-3.264-2.573-18.903-17.331-24.402-33.488-28.01-9.625-2.062-21.485-3.437-23.719-13.06-.172-1.031-.344-1.89-.344-2.921 0-8.421 8.938-15.294 21.485-15.294 15.641 0 22.685 7.045 22.685 7.045l11.151-9.962Zm37.275-6.854h-14.065v99.446h14.065v-99.446Zm-7.033-37.966c-5.319 0-9.781 4.462-9.781 9.781 0 5.32 4.462 9.782 9.781 9.782 5.32 0 9.782-4.462 9.782-9.782 0-5.319-4.462-9.781-9.782-9.781Zm100.32 44.82s-9.95-12.18-33.836-12.18c-22.685 0-36.581 15.097-36.581 30.734 0 2.062.172 4.124.686 6.187 3.26 13.575 14.067 19.074 27.129 22.339 12.032 3.265 28.017 3.608 29.907 17.184v1.202c0 3.437-1.719 6.702-4.64 9.108-4.126 3.609-10.485 5.671-17.876 5.671-16.672 0-30.059-8.764-30.059-8.764l-8.239 12.709s17.159 10.979 38.298 10.979c22.859 0 37.613-14.41 37.613-29.703 0-1.031 0-2.233-.172-3.264-2.573-18.903-17.331-24.402-33.488-28.01-9.625-2.062-21.484-3.437-23.719-13.06-.172-1.031-.344-1.89-.344-2.921 0-8.421 8.938-15.294 21.485-15.294 15.641 0 22.685 7.045 22.685 7.045l11.151-9.962Zm39.68-6.854v-26.284l-14.065 2.405v23.879h-16.148v14.065h16.148v57.911a29.952 29.952 0 0 0 30.042 30.047c6.7 0 17.523-2.573 17.523-2.573l-2.749-12.695s-6.012 1.203-14.774 1.203c-8.761 0-15.977-7.046-15.977-15.81v-58.083h30.064v-14.065h-30.064Zm122.489 42.089h-65.969c1.374-7.564 4.81-14.612 10.136-20.114 6.872-6.876 15.973-10.658 25.083-10.658 6.01 0 11.85 1.719 16.83 4.985 7.39 4.814 12.55 13.409 13.92 25.787Zm-65.797-29.913c-9.435 9.799-14.581 23.209-14.581 37.118 0 29.209 21.109 52.729 49.278 52.729 28.18 0 41.24-10.978 41.24-10.978l-8.94-11.511s-11.68 8.424-32.3 8.424c-18.377 0-32.12-13.581-35.041-31.632h80.571v-8.576c-.34-21.477-9.11-35.402-20.62-43.123-7.21-4.803-15.8-7.204-24.39-7.204-12.71 0-25.768 4.974-35.217 14.753Zm112.347 4.97v-17.146h-14.06v99.446h14.06v-56.41c0-4.115 1.04-8.23 2.75-12.002 4.99-11.128 15.99-19.03 28.02-19.03 13.75 0 24.06 10.308 24.75 23.879v63.563h14.23V402.77c.18-21.818-15.95-38.804-37.61-38.804-14.61 0-25.6 7.719-32.14 19.563v.16Zm108.75-17.146v-26.284l-14.07 2.405v23.879h-16.14v14.065h16.14v57.911a29.955 29.955 0 0 0 30.05 30.047c6.7 0 17.52-2.573 17.52-2.573l-2.75-12.695s-6.01 1.203-14.77 1.203c-8.77 0-15.98-7.046-15.98-15.81v-58.083h30.06v-14.065h-30.06Zm76.1 82.632h-15.27l-9.27 36.399h8.75l15.79-36.399Zm87.62-31.448v-2.578c.69-20.448 16.84-36.946 36.94-36.946 20.45 0 36.78 17.185 36.78 38.149 0 20.965-16.33 38.149-36.78 38.149-20.1 0-36.25-16.325-36.94-36.774Zm0-31.79v-57.36h-14.07v137.412h14.07v-19.374c7.22 13.375 19.76 21.951 36.94 21.951 28.19 0 50.84-23.345 50.84-52.214s-22.65-52.214-50.84-52.214c-17.18 0-29.72 8.576-36.94 21.799Zm171.81 49.323c-4.98 10.995-15.81 18.897-27.84 18.897-13.75 0-24.23-10.307-24.92-23.879v-63.735h-14.07v63.391c-.17 21.818 15.79 38.632 37.44 38.632 14.61 0 25.61-7.719 32.14-19.563v16.986h14.07v-99.446h-14.07v56.581c0 4.115-1.03 8.23-2.75 12.003v.133Zm64.92-68.717v-26.284l-14.07 2.405v23.879h-16.15v14.065h16.15v57.911a29.953 29.953 0 0 0 30.04 30.047c6.7 0 17.53-2.573 17.53-2.573l-2.75-12.695s-6.01 1.203-14.78 1.203c-8.76 0-15.97-7.046-15.97-15.81v-58.083h30.06v-14.065h-30.06Zm121.63 6.526v-9.275h-14.41v102.195h14.41l.17-66.297c0-13.243 10.65-23.894 23.88-23.894 4.46 0 12.71 1.031 12.71 1.031V362.59s-8.42-1.373-12.71-1.373c-10.83 0-18.9 4.632-24.05 11.837v.015Zm118.73 41.909v2.577c-.69 20.449-16.84 36.946-36.95 36.946-20.45 0-36.95-17.184-36.95-38.149 0-20.964 16.5-38.32 36.95-38.32 20.11 0 36.26 16.497 36.95 36.946Zm0 31.79v19.221h14.06v-99.446h-14.06v19.513c-7.22-13.342-19.76-22.09-36.95-22.09-28.18 0-51.01 23.517-51.01 52.386 0 28.869 22.83 52.214 51.01 52.214 17.19 0 29.73-8.576 36.95-21.798Zm63.19-80.225v-26.284l-14.06 2.405v23.879h-16.15v14.065h16.15v57.911a29.953 29.953 0 0 0 30.04 30.047c6.7 0 17.52-2.573 17.52-2.573l-2.75-12.695s-6.01 1.203-14.77 1.203-15.98-7.046-15.98-15.81v-58.083h30.07v-14.065h-30.07Zm65.63 17.158v-55.124h-14.07v137.412h14.07v-56.348c0-4.123.86-8.246 2.58-12.025 4.98-10.995 15.98-18.897 28.01-18.897 13.75 0 24.06 10.307 24.75 23.879v63.391h14.23v-63.048h-.17c.17-21.817-15.61-38.803-37.26-38.803-14.61 0-25.61 7.719-32.14 19.563Zm166.98 24.931h-65.97c1.38-7.564 4.81-14.612 10.14-20.114 6.87-6.876 15.98-10.658 25.08-10.658 6.01 0 11.85 1.719 16.84 4.985 7.38 4.814 12.54 13.409 13.91 25.787Zm-65.79-29.913c-9.44 9.799-14.59 23.209-14.59 37.118 0 29.209 21.11 52.729 49.29 52.729 28.17 0 41.23-10.978 41.23-10.978l-8.94-11.511s-11.68 8.424-32.29 8.424c-18.39 0-32.13-13.581-35.05-31.632h80.57v-8.576c-.34-21.477-9.1-35.402-20.61-43.123-7.22-4.803-15.81-7.204-24.4-7.204-12.71 0-25.77 4.974-35.21 14.753Zm112.69-5.65v-9.275h-14.41v102.195h14.41l.17-66.297c0-13.243 10.65-23.894 23.88-23.894 4.47 0 12.71 1.031 12.71 1.031V362.59s-8.41-1.373-12.71-1.373c-10.82 0-18.9 4.632-24.05 11.837v.015Zm-7790.61 231.912v-2.578c.69-20.449 16.84-36.946 36.95-36.946 20.45 0 36.77 17.184 36.77 38.149 0 20.964-16.32 38.148-36.77 38.148-20.11 0-36.26-16.324-36.95-36.773Zm0-31.791v-57.359h-14.06v137.412h14.06v-19.375c7.22 13.375 19.76 21.952 36.95 21.952 28.18 0 50.84-23.345 50.84-52.214s-22.66-52.214-50.84-52.214c-17.19 0-29.73 8.576-36.95 21.798Zm184.51 22.696h-65.97c1.37-7.564 4.81-14.613 10.13-20.114 6.87-6.877 15.98-10.659 25.08-10.659 6.02 0 11.86 1.719 16.84 4.986 7.39 4.813 12.54 13.409 13.92 25.787Zm-65.8-29.913c-9.43 9.799-14.58 23.208-14.58 37.117 0 29.209 21.11 52.73 49.28 52.73 28.18 0 41.23-10.978 41.23-10.978l-8.93-11.511s-11.68 8.423-32.3 8.423c-18.38 0-32.12-13.581-35.04-31.631h80.57v-8.577c-.35-21.476-9.11-35.401-20.62-43.122-7.21-4.803-15.8-7.204-24.39-7.204-12.72 0-25.77 4.974-35.22 14.753Zm115.1-12.176h-14.07v99.446h14.07v-99.446Zm-7.03-37.966c-5.32 0-9.78 4.461-9.78 9.781s4.46 9.781 9.78 9.781c5.32 0 9.78-4.461 9.78-9.781s-4.46-9.781-9.78-9.781Zm41.73 55.111v-17.145h-14.06v99.446h14.06v-56.41c0-4.115 1.03-8.23 2.75-12.002 4.99-11.128 15.98-19.03 28.02-19.03 13.74 0 24.05 10.307 24.74 23.879v63.563h14.24v-63.22c.17-21.817-15.96-38.803-37.61-38.803-14.61 0-25.61 7.719-32.14 19.563v.159Zm165.8 25.104v5.671c-1.37 17.184-15.29 30.932-32.48 30.932-18.04 0-32.47-15.122-32.47-33.682 0-18.559 14.43-33.854 32.47-33.854 17.19 0 31.11 13.748 32.48 30.933Zm-34.88 97.74c29.56 0 48.95-18.363 48.95-49.473v-90.516h-14.07v16.113c-6.53-11.486-17.53-18.69-32.48-18.69-25.77 0-46.54 21.283-46.54 47.747 0 26.465 20.77 47.748 46.54 47.748 14.95 0 25.95-7.204 32.48-18.534v17.676c-.68 21.83-13.74 33.863-34.88 33.863-20.62 0-33.85-8.079-33.85-8.079l-7.55 11.853s16.14 10.292 41.4 10.292Zm153.74-139.989v-26.285l-14.06 2.405v23.88h-16.15v14.065h16.15v57.911a29.953 29.953 0 0 0 30.04 30.047c6.7 0 17.52-2.573 17.52-2.573l-2.75-12.696s-6.01 1.203-14.77 1.203-15.98-7.045-15.98-15.809v-58.083h30.07v-14.065h-30.07Zm92.95 11.488c20.62 0 37.29 17.185 37.29 38.321s-16.67 38.148-37.29 38.148c-20.62 0-37.29-17.012-37.29-38.148 0-21.136 16.67-38.321 37.29-38.321Zm0-14.065c-28.18 0-51.01 23.517-51.01 52.386 0 28.869 22.83 52.214 51.01 52.214s51.01-23.345 51.01-52.214-22.83-52.386-51.01-52.386Zm119.23 14.065c20.62 0 37.29 17.185 37.29 38.321s-16.67 38.148-37.29 38.148c-20.62 0-37.29-17.012-37.29-38.148 0-21.136 16.67-38.321 37.29-38.321Zm0-14.065c-28.19 0-51.02 23.517-51.02 52.386 0 28.869 22.83 52.214 51.02 52.214 28.18 0 51.01-23.345 51.01-52.214s-22.83-52.386-51.01-52.386Zm219.02 26.094c-9.1-16.146-25.94-26.094-44.15-26.094-28.17 0-51 23.517-51 52.386 0 28.869 22.83 52.214 51 52.214 18.21 0 35.05-9.949 44.15-26.094l-11.85-7.046c-6.7 11.857-18.9 19.074-32.3 19.074-20.61 0-37.28-17.012-37.28-38.148 0-21.136 16.67-38.321 37.28-38.321 13.4 0 25.6 7.218 32.3 19.075l11.85-7.046Zm62.03-12.029c20.62 0 37.29 17.185 37.29 38.321s-16.67 38.148-37.29 38.148c-20.62 0-37.29-17.012-37.29-38.148 0-21.136 16.67-38.321 37.29-38.321Zm0-14.065c-28.18 0-51.01 23.517-51.01 52.386 0 28.869 22.83 52.214 51.01 52.214s51.01-23.345 51.01-52.214-22.83-52.386-51.01-52.386Zm83.14 19.722v-17.145h-14.07v99.446h14.07v-56.41c0-4.115 1.03-8.23 2.74-12.002 4.99-11.128 15.99-19.03 28.02-19.03 13.75 0 24.06 10.307 24.75 23.879v63.563h14.23v-63.22c.17-21.817-15.95-38.803-37.61-38.803-14.6 0-25.6 7.719-32.13 19.563v.159Zm160.28-10.291s-9.95-12.18-33.83-12.18c-22.69 0-36.59 15.096-36.59 30.734 0 2.062.18 4.124.69 6.186 3.26 13.575 14.07 19.074 27.13 22.339 12.03 3.265 28.02 3.609 29.91 17.184v1.203c0 3.437-1.72 6.702-4.64 9.108-4.13 3.608-10.49 5.67-17.88 5.67-16.67 0-30.06-8.764-30.06-8.764l-8.24 12.71s17.16 10.979 38.3 10.979c22.86 0 37.61-14.41 37.61-29.703 0-1.031 0-2.234-.17-3.265-2.57-18.902-17.33-24.401-33.49-28.01-9.62-2.062-21.48-3.436-23.72-13.059-.17-1.032-.34-1.891-.34-2.922 0-8.42 8.94-15.294 21.49-15.294 15.64 0 22.68 7.046 22.68 7.046l11.15-9.962Zm37.28-6.854h-14.07v99.446h14.07v-99.446Zm-7.04-37.966c-5.32 0-9.78 4.461-9.78 9.781s4.46 9.781 9.78 9.781c5.32 0 9.78-4.461 9.78-9.781s-4.46-9.781-9.78-9.781Zm100.32 44.82s-9.95-12.18-33.83-12.18c-22.69 0-36.58 15.096-36.58 30.734 0 2.062.17 4.124.68 6.186 3.26 13.575 14.07 19.074 27.13 22.339 12.03 3.265 28.02 3.609 29.91 17.184v1.203c0 3.437-1.72 6.702-4.64 9.108-4.13 3.608-10.49 5.67-17.88 5.67-16.67 0-30.06-8.764-30.06-8.764l-8.24 12.71s17.16 10.979 38.3 10.979c22.86 0 37.61-14.41 37.61-29.703 0-1.031 0-2.234-.17-3.265-2.57-18.902-17.33-24.401-33.48-28.01-9.63-2.062-21.49-3.436-23.72-13.059-.17-1.032-.35-1.891-.35-2.922 0-8.42 8.94-15.294 21.49-15.294 15.64 0 22.68 7.046 22.68 7.046l11.15-9.962Zm39.68-6.854v-26.285l-14.06 2.405v23.88h-16.15v14.065h16.15v57.911a29.953 29.953 0 0 0 30.04 30.047c6.7 0 17.52-2.573 17.52-2.573l-2.74-12.696s-6.02 1.203-14.78 1.203-15.98-7.045-15.98-15.809v-58.083h30.07v-14.065h-30.07Zm122.49 42.089h-65.97c1.38-7.564 4.81-14.613 10.14-20.114 6.87-6.877 15.98-10.659 25.08-10.659 6.01 0 11.85 1.719 16.84 4.986 7.38 4.813 12.54 13.409 13.91 25.787Zm-65.8-29.913c-9.43 9.799-14.58 23.208-14.58 37.117 0 29.209 21.11 52.73 49.29 52.73 28.17 0 41.23-10.978 41.23-10.978l-8.94-11.511s-11.68 8.423-32.29 8.423c-18.38 0-32.13-13.581-35.05-31.631h80.57v-8.577c-.34-21.476-9.1-35.401-20.61-43.122-7.22-4.803-15.81-7.204-24.4-7.204-12.71 0-25.77 4.974-35.22 14.753Zm112.36 4.969v-17.145h-14.07v99.446h14.07v-56.41c0-4.115 1.03-8.23 2.75-12.002 4.98-11.128 15.98-19.03 28.01-19.03 13.75 0 24.06 10.307 24.75 23.879v63.563h14.23v-63.22c.18-21.817-15.95-38.803-37.6-38.803-14.61 0-25.61 7.719-32.14 19.563v.159Zm108.74-17.145v-26.285l-14.06 2.405v23.88h-16.15v14.065h16.15v57.911a29.953 29.953 0 0 0 30.04 30.047c6.7 0 17.52-2.573 17.52-2.573l-2.75-12.696s-6.01 1.203-14.77 1.203-15.98-7.045-15.98-15.809v-58.083h30.07v-14.065h-30.07Zm51.56 92.413c0 5.32 4.46 9.61 9.78 9.61 5.32 0 9.78-4.29 9.78-9.61 0-5.32-4.46-9.781-9.78-9.781-5.32 0-9.78 4.461-9.78 9.781Zm93.11-130.379h14.065v137.412h-14.065zm45.87 23.009v14.613h-13.74v14.237h13.74v85.553h14.24V567.69h24.56v-14.237h-24.56V538.84c0-8.767 6.87-15.644 15.63-15.644 7.56 0 11 .516 11 .516l1.54-12.866s-4.98-1.887-12.54-1.887c-16.49 0-29.87 13.379-29.87 29.881Zm167.66 95.992-35.39-81.035h-16.15l43.47 99.538-8.42 19.017c-2.06 3.94-6.19 6.681-10.83 6.681-3.26 0-6.52-1.199-8.76-3.598l-10.48 10.288c5.16 5.147 12.03 8.063 19.24 8.063 10.66 0 20.1-6.176 24.57-15.609l54.29-124.38h-16.15l-35.39 81.035Zm105.82-69.547c20.63 0 37.29 17.185 37.29 38.321s-16.66 38.148-37.29 38.148c-20.62 0-37.29-17.012-37.29-38.148 0-21.136 16.67-38.321 37.29-38.321Zm0-14.065c-28.18 0-51.01 23.517-51.01 52.386 0 28.869 22.83 52.214 51.01 52.214 28.19 0 51.01-23.345 51.01-52.214s-22.82-52.386-51.01-52.386Zm135.9 71.294c-4.98 10.994-15.81 18.897-27.84 18.897-13.75 0-24.23-10.308-24.92-23.879v-63.735h-14.07v63.391c-.17 21.818 15.79 38.632 37.44 38.632 14.61 0 25.61-7.719 32.14-19.563v16.986h14.07v-99.446h-14.07v56.581c0 4.115-1.03 8.23-2.75 12.002v.134Zm104.43-22.332v-84.351h-14.07v137.412h14.07v-32.521l14.43-15.405 37.97 47.926h18.21l-46.39-58.367 37.97-41.079h-19.07l-43.12 46.385Zm102.56-29.24v-17.145h-14.07v99.446h14.07v-56.41c0-4.115 1.03-8.23 2.75-12.002 4.98-11.128 15.98-19.03 28.01-19.03 13.75 0 24.06 10.307 24.75 23.879v63.563h14.24v-63.22c.17-21.817-15.96-38.803-37.61-38.803-14.61 0-25.61 7.719-32.14 19.563v.159Zm137.79-5.657c20.62 0 37.29 17.185 37.29 38.321s-16.67 38.148-37.29 38.148c-20.62 0-37.29-17.012-37.29-38.148 0-21.136 16.67-38.321 37.29-38.321Zm0-14.065c-28.18 0-51.01 23.517-51.01 52.386 0 28.869 22.83 52.214 51.01 52.214s51.01-23.345 51.01-52.214-22.83-52.386-51.01-52.386Zm131.93 2.577-27.83 76.985-27.65-76.985h-16.15l35.73 99.446h16.15l27.83-77.157 27.66 77.157h16.15l35.9-99.446h-16.15l-27.83 76.985-27.66-76.985h-16.15Zm175.39 17.157v-55.123h-14.06v137.412h14.06v-56.348c0-4.123.86-8.246 2.58-12.025 4.99-10.995 15.99-18.898 28.01-18.898 13.75 0 24.06 10.308 24.75 23.88v63.391h14.24v-63.048h-.17c.17-21.818-15.61-38.803-37.27-38.803-14.61 0-25.61 7.719-32.14 19.562Zm137.62-5.669c20.62 0 37.29 17.185 37.29 38.321s-16.67 38.148-37.29 38.148c-20.62 0-37.29-17.012-37.29-38.148 0-21.136 16.67-38.321 37.29-38.321Zm0-14.065c-28.18 0-51.01 23.517-51.01 52.386 0 28.869 22.83 52.214 51.01 52.214s51.01-23.345 51.01-52.214-22.83-52.386-51.01-52.386Zm131.94 2.577-27.83 76.985-27.66-76.985h-16.15l35.73 99.446h16.15l27.83-77.157 27.66 77.157h16.15l35.9-99.446h-16.15l-27.83 76.985-27.65-76.985h-16.15Zm191.53 0v-26.285l-14.06 2.405v23.88h-16.15v14.065h16.15v57.911a29.953 29.953 0 0 0 30.04 30.047c6.7 0 17.52-2.573 17.52-2.573l-2.74-12.696s-6.02 1.203-14.78 1.203-15.98-7.045-15.98-15.809v-58.083h30.07v-14.065h-30.07Zm95.88 81.035-35.39-81.035h-16.15l43.46 99.538-8.42 19.017c-2.06 3.94-6.18 6.681-10.82 6.681-3.26 0-6.53-1.199-8.76-3.598l-10.48 10.288c5.15 5.147 12.03 8.063 19.24 8.063 10.65 0 20.1-6.176 24.57-15.609l54.28-124.38h-16.15l-35.38 81.035Zm83.48-30.023v-2.578c.68-20.449 16.84-36.946 36.94-36.946 20.45 0 36.95 17.356 36.95 38.321 0 20.964-16.5 38.148-36.95 38.148-20.1 0-36.26-16.496-36.94-36.945Zm0-31.619v-19.393h-14.07v137.584h14.07v-57.342c7.21 13.204 19.76 21.781 36.94 21.781 28.18 0 51.01-23.324 51.01-52.129 0-28.954-22.83-52.471-51.01-52.471-17.18 0-29.73 8.748-36.94 21.97Zm155.31-7.905c20.62 0 37.29 17.185 37.29 38.321s-16.67 38.148-37.29 38.148c-20.62 0-37.29-17.012-37.29-38.148 0-21.136 16.67-38.321 37.29-38.321Zm0-14.065c-28.19 0-51.01 23.517-51.01 52.386 0 28.869 22.82 52.214 51.01 52.214 28.18 0 51.01-23.345 51.01-52.214s-22.83-52.386-51.01-52.386Zm147.23 44.826v5.671c-1.37 17.184-15.29 30.932-32.48 30.932-18.04 0-32.48-15.122-32.48-33.682 0-18.559 14.44-33.854 32.48-33.854 17.19 0 31.11 13.748 32.48 30.933Zm-34.88 97.74c29.56 0 48.95-18.363 48.95-49.473v-90.516h-14.07v16.113c-6.53-11.486-17.52-18.69-32.48-18.69-25.77 0-46.54 21.283-46.54 47.747 0 26.465 20.77 47.748 46.54 47.748 14.96 0 25.95-7.204 32.48-18.534v17.676c-.68 21.83-13.74 33.863-34.88 33.863-20.62 0-33.85-8.079-33.85-8.079l-7.55 11.853s16.14 10.292 41.4 10.292Zm82.28-133.463v-9.275h-14.41v102.195h14.41l.17-66.298c0-13.242 10.65-23.893 23.88-23.893 4.47 0 12.71 1.031 12.71 1.031v-14.24s-8.42-1.372-12.71-1.372c-10.82 0-18.9 4.632-24.05 11.836v.016Zm118.73 41.908v2.578c-.69 20.449-16.84 36.945-36.95 36.945-20.45 0-36.95-17.184-36.95-38.148 0-20.965 16.5-38.321 36.95-38.321 20.11 0 36.26 16.497 36.95 36.946Zm0 31.79v19.222h14.06v-99.446h-14.06v19.513c-7.22-13.342-19.76-22.09-36.95-22.09-28.18 0-51.01 23.517-51.01 52.386 0 28.869 22.83 52.214 51.01 52.214 17.19 0 29.73-8.577 36.95-21.799Zm47.05-29.212v-2.578c.68-20.449 16.84-36.946 36.94-36.946 20.45 0 36.95 17.356 36.95 38.321 0 20.964-16.5 38.148-36.95 38.148-20.1 0-36.26-16.496-36.94-36.945Zm0-31.619v-19.393h-14.07v137.584h14.07v-57.342c7.21 13.204 19.76 21.781 36.94 21.781 28.18 0 51.01-23.324 51.01-52.129 0-28.954-22.83-52.471-51.01-52.471-17.18 0-29.73 8.748-36.94 21.97Zm119.22-2.236v-55.123h-14.07v137.412h14.07v-56.348c0-4.123.86-8.246 2.58-12.025 4.98-10.995 15.98-18.898 28.01-18.898 13.75 0 24.06 10.308 24.75 23.88v63.391h14.24v-63.048h-.18c.18-21.818-15.61-38.803-37.26-38.803-14.61 0-25.61 7.719-32.14 19.562Zm125.93 63.878-35.38-81.035h-16.15l43.46 99.538-8.42 19.017c-2.06 3.94-6.18 6.681-10.82 6.681-3.26 0-6.53-1.199-8.76-3.598l-10.48 10.288c5.15 5.147 12.02 8.063 19.24 8.063 10.65 0 20.1-6.176 24.57-15.609l54.28-124.38h-16.15l-35.39 81.035Zm196.71-81.035-27.83 76.985-27.66-76.985h-16.15l35.73 99.446h16.15l27.83-77.157 27.66 77.157h16.149l35.904-99.446h-16.148l-27.831 76.985-27.654-76.985h-16.15Zm144.818 11.488c20.621 0 37.29 17.185 37.29 38.321s-16.669 38.148-37.29 38.148-37.289-17.012-37.289-38.148c0-21.136 16.668-38.321 37.289-38.321Zm0-14.065c-28.182 0-51.011 23.517-51.011 52.386 0 28.869 22.829 52.214 51.011 52.214 28.182 0 51.012-23.345 51.012-52.214s-22.83-52.386-51.012-52.386Zm83.481 9.103v-9.275h-14.41v102.195h14.41l.171-66.298c0-13.242 10.651-23.893 23.879-23.893 4.467 0 12.713 1.031 12.713 1.031v-14.24s-8.418-1.372-12.713-1.372c-10.822 0-18.897 4.632-24.05 11.836v.016Zm68.716 39.859v-84.351h-14.065v137.412h14.065v-32.521l14.431-15.405 37.966 47.926h18.21l-46.384-58.367 37.966-41.079h-19.069l-43.12 46.385Zm150.15-39.531s-9.949-12.18-33.835-12.18c-22.686 0-36.581 15.096-36.581 30.734 0 2.062.171 4.124.686 6.186 3.259 13.575 14.067 19.074 27.129 22.339 12.031 3.265 28.016 3.609 29.907 17.184v1.203c0 3.437-1.719 6.702-4.641 9.108-4.125 3.608-10.485 5.67-17.875 5.67-16.673 0-30.06-8.764-30.06-8.764l-8.239 12.71s17.16 10.979 38.299 10.979c22.859 0 37.612-14.41 37.612-29.703 0-1.031 0-2.234-.171-3.265-2.574-18.902-17.332-24.401-33.488-28.01-9.625-2.062-21.485-3.436-23.719-13.059-.172-1.032-.344-1.891-.344-2.922 0-8.42 8.938-15.294 21.485-15.294 15.641 0 22.685 7.046 22.685 7.046l11.15-9.962Zm45.007 75.778h-15.277l-9.268 36.398h8.753l15.792-36.398Zm125.075-1.597-35.389-81.035h-16.149l43.464 99.538-8.418 19.017c-2.061 3.94-6.185 6.681-10.823 6.681-3.264 0-6.528-1.199-8.761-3.598l-10.48 10.288c5.154 5.147 12.026 8.063 19.241 8.063 10.651 0 20.1-6.176 24.566-15.609l54.287-124.38h-16.149l-35.389 81.035Zm105.824-69.547c20.621 0 37.29 17.185 37.29 38.321s-16.669 38.148-37.29 38.148-37.29-17.012-37.29-38.148c0-21.136 16.669-38.321 37.29-38.321Zm0-14.065c-28.182 0-51.011 23.517-51.011 52.386 0 28.869 22.829 52.214 51.011 52.214 28.182 0 51.012-23.345 51.012-52.214s-22.83-52.386-51.012-52.386Zm135.897 71.294c-4.984 10.994-15.811 18.897-27.841 18.897-13.748 0-24.232-10.308-24.919-23.879v-63.735h-14.066v63.391c-.171 21.818 15.784 38.632 37.439 38.632 14.607 0 25.606-7.719 32.137-19.563v16.986h14.066v-99.446h-14.066v56.581c0 4.115-1.031 8.23-2.75 12.002v.134Zm104.43-22.332v-84.351h-14.066v137.412h14.066v-32.521l14.43-15.405 37.966 47.926h18.21l-46.383-58.367 37.966-41.079h-19.069l-43.12 46.385Zm102.56-29.24v-17.145H35.112v99.446h14.066v-56.41c0-4.115 1.031-8.23 2.75-12.002 4.983-11.128 15.982-19.03 28.012-19.03 13.749 0 24.061 10.307 24.748 23.879v63.563h14.238v-63.22c.171-21.817-15.957-38.803-37.611-38.803-14.608 0-25.607 7.719-32.137 19.563v.159Zm137.788-5.657c20.621 0 37.29 17.185 37.29 38.321s-16.669 38.148-37.29 38.148-37.29-17.012-37.29-38.148c0-21.136 16.669-38.321 37.29-38.321Zm0-14.065c-28.182 0-51.012 23.517-51.012 52.386 0 28.869 22.83 52.214 51.012 52.214 28.182 0 51.012-23.345 51.012-52.214s-22.83-52.386-51.012-52.386Zm131.937 2.577-27.831 76.985-27.658-76.985h-16.149l35.733 99.446h16.148l27.831-77.157 27.658 77.157h16.149l35.904-99.446H390.54l-27.83 76.985-27.659-76.985h-16.148Zm232.95 0-27.83 76.985-27.659-76.985h-16.148l35.732 99.446h16.149l27.83-77.157 27.659 77.157h16.148l35.905-99.446H623.49l-27.83 76.985-27.659-76.985h-16.148Zm119.728 17.157v-55.123h-14.065v137.412h14.065v-56.348c0-4.123.86-8.246 2.578-12.025 4.984-10.995 15.983-18.898 28.013-18.898 13.749 0 24.06 10.308 24.748 23.88v63.391h14.237v-63.048h-.171c.171-21.818-15.613-38.803-37.267-38.803-14.608 0-25.607 7.719-32.138 19.562Zm125.935 63.878-35.389-81.035h-16.149l43.464 99.538-8.418 19.017c-2.062 3.94-6.185 6.681-10.823 6.681-3.264 0-6.528-1.199-8.761-3.598l-10.48 10.288c5.154 5.147 12.026 8.063 19.241 8.063 10.651 0 20.1-6.176 24.566-15.609l54.287-124.38h-16.149l-35.389 81.035Zm155.289-81.035v-26.285l-14.065 2.405v23.88h-16.149v14.065h16.149v57.911a29.953 29.953 0 0 0 30.042 30.047c6.7 0 17.523-2.573 17.523-2.573l-2.749-12.696s-6.012 1.203-14.774 1.203c-8.761 0-15.977-7.045-15.977-15.809v-58.083h30.064v-14.065h-30.064Zm65.625 17.157v-55.123h-14.06v137.412h14.06v-56.348c0-4.123.86-8.246 2.58-12.025 4.98-10.995 15.98-18.898 28.01-18.898 13.75 0 24.06 10.308 24.75 23.88v63.391h14.24v-63.048h-.18c.18-21.818-15.61-38.803-37.26-38.803-14.61 0-25.61 7.719-32.14 19.562Zm174.56 31.277v2.578c-.68 20.449-16.84 36.945-36.94 36.945-20.45 0-36.95-17.184-36.95-38.148 0-20.965 16.5-38.321 36.95-38.321 20.1 0 36.26 16.497 36.94 36.946Zm0 31.79v19.222h14.07v-99.446h-14.07v19.513c-7.21-13.342-19.76-22.09-36.94-22.09-28.19 0-51.01 23.517-51.01 52.386 0 28.869 22.82 52.214 51.01 52.214 17.18 0 29.73-8.577 36.94-21.799Zm63.2-80.224v-26.285l-14.07 2.405v23.88h-16.14v14.065h16.14v57.911a29.955 29.955 0 0 0 30.05 30.047c6.7 0 17.52-2.573 17.52-2.573l-2.75-12.696s-6.01 1.203-14.77 1.203-15.98-7.045-15.98-15.809v-58.083h30.06v-14.065h-30.06Zm51.56-37.966h14.065v52.719h-14.065zm104.6 44.82s-9.95-12.18-33.83-12.18c-22.69 0-36.58 15.096-36.58 30.734 0 2.062.17 4.124.68 6.186 3.26 13.575 14.07 19.074 27.13 22.339 12.03 3.265 28.02 3.609 29.91 17.184v1.203c0 3.437-1.72 6.702-4.64 9.108-4.13 3.608-10.49 5.67-17.88 5.67-16.67 0-30.06-8.764-30.06-8.764l-8.24 12.71s17.16 10.979 38.3 10.979c22.86 0 37.62-14.41 37.62-29.703 0-1.031 0-2.234-.18-3.265-2.57-18.902-17.33-24.401-33.48-28.01-9.63-2.062-21.49-3.436-23.72-13.059-.18-1.032-.35-1.891-.35-2.922 0-8.42 8.94-15.294 21.49-15.294 15.64 0 22.68 7.046 22.68 7.046l11.15-9.962Zm163.22 41.58v2.578c-.68 20.449-16.84 36.945-36.94 36.945-20.45 0-36.95-17.184-36.95-38.148 0-20.965 16.5-38.321 36.95-38.321 20.1 0 36.26 16.497 36.94 36.946Zm0 31.79v19.222h14.07v-99.446h-14.07v19.513c-7.21-13.342-19.76-22.09-36.94-22.09-28.18 0-51.01 23.517-51.01 52.386 0 28.869 22.83 52.214 51.01 52.214 17.18 0 29.73-8.577 36.94-21.799Zm47.05-63.079v-17.145h-14.06v99.446h14.06v-56.41c0-4.115 1.03-8.23 2.75-12.002 4.99-11.128 15.99-19.03 28.02-19.03 13.74 0 24.06 10.307 24.74 23.879v63.563h14.24v-63.22c.17-21.817-15.96-38.803-37.61-38.803-14.61 0-25.61 7.719-32.14 19.563v.159Zm160.11-17.145h-14.06v99.446h14.06v-99.446Zm-7.03-37.966c-5.32 0-9.78 4.461-9.78 9.781s4.46 9.781 9.78 9.781c5.32 0 9.78-4.461 9.78-9.781s-4.46-9.781-9.78-9.781Zm100.32 44.82s-9.95-12.18-33.84-12.18c-22.68 0-36.58 15.096-36.58 30.734 0 2.062.18 4.124.69 6.186 3.26 13.575 14.07 19.074 27.13 22.339 12.03 3.265 28.01 3.609 29.91 17.184v1.203c0 3.437-1.72 6.702-4.65 9.108-4.12 3.608-10.48 5.67-17.87 5.67-16.67 0-30.06-8.764-30.06-8.764l-8.24 12.71s17.16 10.979 38.3 10.979c22.86 0 37.61-14.41 37.61-29.703 0-1.031 0-2.234-.17-3.265-2.57-18.902-17.33-24.401-33.49-28.01-9.62-2.062-21.48-3.436-23.72-13.059-.17-1.032-.34-1.891-.34-2.922 0-8.42 8.94-15.294 21.48-15.294 15.65 0 22.69 7.046 22.69 7.046l11.15-9.962Zm93.11 0s-9.95-12.18-33.83-12.18c-22.69 0-36.58 15.096-36.58 30.734 0 2.062.17 4.124.68 6.186 3.26 13.575 14.07 19.074 27.13 22.339 12.03 3.265 28.02 3.609 29.91 17.184v1.203c0 3.437-1.72 6.702-4.64 9.108-4.13 3.608-10.49 5.67-17.88 5.67-16.67 0-30.06-8.764-30.06-8.764l-8.24 12.71s17.16 10.979 38.3 10.979c22.86 0 37.61-14.41 37.61-29.703 0-1.031 0-2.234-.17-3.265-2.57-18.902-17.33-24.401-33.48-28.01-9.63-2.062-21.49-3.436-23.73-13.059-.17-1.032-.34-1.891-.34-2.922 0-8.42 8.94-15.294 21.49-15.294 15.64 0 22.68 7.046 22.68 7.046l11.15-9.962Zm87.29 61.863c-4.99 10.994-15.81 18.897-27.84 18.897-13.75 0-24.23-10.308-24.92-23.879v-63.735h-14.07v63.391c-.17 21.818 15.79 38.632 37.44 38.632 14.61 0 25.61-7.719 32.14-19.563v16.986h14.07v-99.446h-14.07v56.581c0 4.115-1.03 8.23-2.75 12.002v.134Zm114.22-26.628h-65.97c1.38-7.564 4.81-14.613 10.14-20.114 6.87-6.877 15.97-10.659 25.08-10.659 6.01 0 11.85 1.719 16.84 4.986 7.38 4.813 12.54 13.409 13.91 25.787Zm-65.79-29.913c-9.44 9.799-14.59 23.208-14.59 37.117 0 29.209 21.11 52.73 49.29 52.73 28.17 0 41.23-10.978 41.23-10.978l-8.94-11.511s-11.68 8.423-32.29 8.423c-18.39 0-32.13-13.581-35.05-31.631h80.57v-8.577c-.34-21.476-9.1-35.401-20.61-43.122-7.22-4.803-15.81-7.204-24.4-7.204-12.71 0-25.77 4.974-35.21 14.753Zm98.28 80.237c0 5.32 4.46 9.61 9.78 9.61 5.32 0 9.78-4.29 9.78-9.61 0-5.32-4.46-9.781-9.78-9.781-5.32 0-9.78 4.461-9.78 9.781Z" style="fill:#111;fill-rule:nonzero" transform="translate(1482.61 823.455) scale(.1106)"/></svg>