<svg xmlns="http://www.w3.org/2000/svg" xml:space="preserve" style="fill-rule:evenodd;clip-rule:evenodd;stroke-linejoin:round;stroke-miterlimit:2" viewBox="0 0 1920 1080"><path d="M0 0h1920v1080H0z" style="fill:none"/><path d="m279.304 408.278 18.726-47.071 18.725 47.071h-37.451Zm-9.62 23.879h56.691L339.947 466h26.113l-54.974-137.434h-26.112L230 466h26.112l13.572-33.843Zm135.888-13.915v-3.78c1.03-14.602 12.369-26.456 26.799-26.456 15.118 0 27.144 12.885 27.144 28.346s-12.026 28.346-27.144 28.346c-14.43 0-25.769-11.854-26.799-26.456Zm0-42.948v-46.728h-24.051v137.606h24.051v-8.762c6.184 7.044 14.946 11.167 26.799 11.167 28.174 0 51.023-23.364 51.023-52.225s-22.849-52.225-51.023-52.225c-11.853 0-20.615 4.123-26.799 11.167Zm167.154-.688s-13.916-10.651-37.623-10.651c-25.082 0-39.856 15.977-39.856 32.126 0 2.233.344 4.466.859 6.699 3.608 13.744 15.462 20.1 29.892 23.364 5.669 1.203 11.854 2.062 17.179 3.78 4.123 1.202 8.075 2.576 8.762 7.215.172 1.718-1.203 2.92-2.749 4.123-3.608 2.749-8.761 4.123-14.946 4.123-15.633 0-30.063-7.387-30.063-7.387l-10.652 20.615s19.585 9.964 40.715 9.964c14.946 0 26.8-5.497 33.5-12.885 4.982-5.325 7.559-11.681 7.559-18.21 0-1.202-.172-2.576-.344-3.779-2.405-15.977-13.915-23.192-28.346-26.971-7.043-1.89-14.946-2.749-21.474-4.982-2.92-1.031-5.669-1.718-6.528-4.811-.172-.343-.172-.687-.172-1.03 0-1.546 1.031-2.921 2.234-4.123 3.092-2.921 8.246-4.639 14.43-4.639 14.946 0 23.707 6.185 23.707 6.185l13.916-18.726Zm66.483-10.651c-28.174 0-51.022 23.536-51.022 52.397 0 28.861 22.848 52.225 51.022 52.225s51.023-23.364 51.023-52.225-22.849-52.397-51.023-52.397Zm0 24.738c14.946 0 26.972 12.37 26.972 27.659 0 15.29-12.026 27.659-26.972 27.659-14.946 0-26.971-12.369-26.971-27.659 0-15.289 12.025-27.659 26.971-27.659Zm88.817-62.704-24.051 2.405V466h24.051V325.989Zm57.035 117.85c-10.651 0-18.725-7.559-18.725-18.897v-58.41h-24.738v61.502c-.344 23.02 16.148 40.543 39.34 40.543 13.743 0 23.535-6.013 30.579-15.805v13.4h24.051v-99.64h-24.051v49.992c0 14.259-12.369 27.315-26.456 27.315Zm79.368-11.167c0 19.756 16.148 35.905 35.905 35.905 7.558 0 19.756-2.233 19.756-2.233l-2.921-22.849s-10.307 1.203-16.835 1.203c-6.529 0-11.854-5.498-11.854-12.026v-42.261h28.689v-23.879H888.48v-26.456l-24.051 2.577v23.879h-13.572v23.879h13.572v42.261Zm139.151-25.253h-47.414c1.374-4.123 3.436-8.074 6.528-11.167 5.669-5.669 12.197-8.418 18.554-8.418 2.92 0 5.841.516 8.418 1.718 6.7 2.921 12.024 9.277 13.914 17.867Zm-57.721-28.002c-9.277 9.792-14.431 23.02-14.431 36.763 0 29.033 22.677 52.397 50.851 52.397 28.171 0 39.171-10.308 39.171-10.308l-10.31-19.756s-13.744 5.841-28.861 5.841c-12.198 0-22.505-8.074-26.113-19.412h72.154v-10.48c-.17-23.707-13.06-40.027-29.206-46.899-5.669-2.405-11.853-3.608-18.038-3.608-12.025 0-24.566 4.639-35.217 15.29v.172Zm120.081-53.428-24.05 2.405V466h24.05V325.989Zm71.64 155.644 50.16-115.101h-24.56l-31.27 71.294-31.09-71.294h-24.57l43.46 99.64-3.78 8.589c-2.92 5.67-8.76 9.277-15.29 9.277-4.63 0-8.93-1.718-12.19-4.982l-15.98 15.977c7.39 7.387 17.69 11.682 28.17 11.682 16.32 0 30.93-9.964 36.94-25.082Z" style="fill:#eee;fill-rule:nonzero" transform="translate(-71.622 -152.858) scale(1.18531)"/><path d="M250.899 609.854c-.652 0-1.079-.349-1.281-1.047-.212-.753-.405-1.824-.579-3.211-.166-1.332-.248-2.425-.248-3.28 0-.239.011-.601.034-1.088.023-.487.035-.85.035-1.089 0-1.727-.432-2.591-1.296-2.591-1.167 0-2.209.528-3.128 1.585-.469.542-1.112 1.576-1.929 3.101 0 3.5-.147 5.572-.441 6.215-.258.569-.657.854-1.199.854-.377 0-.708-.128-.992-.386a1.215 1.215 0 0 1-.428-.937c0-.128.042-.331.124-.606.074-.23.124-.9.152-2.012l.041-2.04.042-10.129c.064-1.139.096-1.906.096-2.301 0-.468-.044-.912-.131-1.33a6.374 6.374 0 0 1-.131-1.302c0-.386.134-.705.4-.958.266-.252.593-.379.978-.379.754 0 1.195.404 1.323 1.213.147.891.221 1.695.221 2.412 0 .964-.032 1.97-.097 3.018a47.32 47.32 0 0 0-.069 3.018l.014 1.212c.754-1.01 1.56-1.766 2.419-2.267a5.353 5.353 0 0 1 2.735-.751c1.525 0 2.573.496 3.142 1.489.404.698.634 1.874.689 3.527l.111 2.633.275 2.866c.129 1.075.285 2.021.469 2.839.036.156.055.289.055.399 0 .377-.138.692-.414.944a1.414 1.414 0 0 1-.992.379Zm18.353.056c-.174 0-.491-.203-.95-.607-.414-.376-.722-.712-.924-1.006-.882.478-1.658.839-2.329 1.082-.67.243-1.231.365-1.681.365-2.15 0-3.716-.606-4.699-1.819-.928-1.139-1.392-2.885-1.392-5.237 0-2.223.765-4.125 2.294-5.705 1.53-1.58 3.356-2.37 5.478-2.37.8 0 1.695.207 2.688.62 1.249.514 1.874 1.135 1.874 1.86a.933.933 0 0 1-.276.662c-.092.349-.163.923-.214 1.722-.05.8-.08 1.824-.089 3.074-.009 1.139.069 2.039.234 2.701.092.404.381 1.212.868 2.425.065.165.17.409.317.73l.083.235c0 .367-.129.67-.386.909a1.276 1.276 0 0 1-.896.359Zm-2.866-9.578c0-.395.025-.825.076-1.289.05-.464.126-.957.227-1.481a6.656 6.656 0 0 0-.875-.386 1.924 1.924 0 0 0-.586-.124c-1.424 0-2.652.581-3.686 1.743-1.033 1.163-1.55 2.502-1.55 4.017 0 1.507.266 2.637.799 3.391.533.753 1.332 1.13 2.398 1.13.882 0 1.631-.161 2.246-.483.331-.174.795-.523 1.392-1.047-.294-2.435-.441-4.258-.441-5.471Zm11.38 13.409c-.321 0-.602-.124-.84-.372a1.2 1.2 0 0 1-.359-.855c0-.266.285-1.056.855-2.37.496-1.139.877-1.952 1.143-2.439.239-.441.556-.662.951-.662.331 0 .614.126.848.379.234.253.351.54.351.861 0 .221-.652 1.792-1.957 4.713-.211.497-.542.745-.992.745Zm29.182-15.352c-.505 0-.859-.17-1.061-.51-.138-.239-.257-.735-.358-1.488-.689.174-1.75.496-3.183.964-1.48.588-2.224 1.314-2.233 2.178.276.101.547.174.813.22 2.113.377 3.684.896 4.713 1.557 1.498.965 2.246 2.361 2.246 4.19 0 1.497-.647 2.627-1.943 3.39-1.075.624-2.434.937-4.079.937a9.837 9.837 0 0 1-3.445-.607c-1.415-.514-2.122-1.231-2.122-2.149 0-.368.145-.689.434-.965.289-.276.618-.413.985-.413.285 0 .653.22 1.103.661.22.211.716.386 1.488.524.616.11 1.135.165 1.557.165.772 0 1.452-.092 2.04-.275.854-.267 1.281-.69 1.281-1.268 0-1.25-.872-2.095-2.618-2.536l-1.433-.317c-1.222-.266-2.09-.579-2.605-.937-.744-.515-1.116-1.291-1.116-2.329 0-1.92.905-3.289 2.715-4.107.551-.248 1.433-.544 2.646-.889 1.212-.344 2.081-.636 2.604-.875a3.027 3.027 0 0 1 1.227-.248c.395 0 .719.129.971.386.253.257.379.593.379 1.006 0 .267.058.657.173 1.172.114.514.172.905.172 1.171 0 .413-.126.749-.379 1.006s-.577.386-.972.386Zm9.892-6.835c-.441 0-.822-.157-1.144-.469a1.52 1.52 0 0 1-.482-1.13c0-.441.161-.818.482-1.13a1.589 1.589 0 0 1 1.144-.469c.441 0 .82.157 1.137.469.317.312.476.689.476 1.13 0 .441-.159.818-.476 1.13a1.565 1.565 0 0 1-1.137.469Zm.62 11.19c0 .551.016 1.375.049 2.473.032 1.098.048 1.923.048 2.474 0 .404-.124.735-.372.992s-.575.386-.979.386c-.395 0-.719-.129-.971-.386-.253-.257-.379-.588-.379-.992 0-.551-.016-1.376-.048-2.474a89.508 89.508 0 0 1-.049-2.473c0-.864.046-1.941.138-3.232.092-1.291.138-2.368.138-3.232 0-.413.126-.748.379-1.006.253-.257.576-.386.971-.386s.719.129.972.386c.253.258.379.593.379 1.006 0 .864-.046 1.941-.138 3.232a46.873 46.873 0 0 0-.138 3.232Zm18.96 6.821c-.505 0-.896-.266-1.171-.799-.478-.928-1.199-2.026-2.164-3.294l-2.439-3.321c-.533.423-1.36 1.015-2.481 1.778a58.825 58.825 0 0 0-.151 4.161c0 .414-.127.749-.379 1.006-.253.258-.577.386-.972.386-.928 0-1.392-.624-1.392-1.874 0-.762.053-1.904.159-3.424.105-1.521.158-2.662.158-3.425 0-1.396.021-2.993.062-4.789.042-1.796.062-3.383.062-4.761 0-.413-.02-.9-.062-1.461a20.387 20.387 0 0 1-.062-1.461c0-.413.127-.748.379-1.005.253-.258.577-.386.972-.386s.719.128.971.386c.253.257.379.592.379 1.005 0 .423.023.922.069 1.496.046.574.069 1.072.069 1.495l-.096 4.437c-.046 1.599-.06 3.197-.042 4.796a38.374 38.374 0 0 0 3.611-3.142l3.032-3.128c.303-.313.629-.469.978-.469.358 0 .682.143.972.427.289.285.434.616.434.993 0 .312-.134.62-.4.923-1.13 1.323-2.522 2.742-4.176 4.258l3.005 4.093c1.405 1.92 2.108 3.17 2.108 3.748 0 .368-.145.685-.434.951-.289.267-.622.4-.999.4Zm13.02.069c-2.076 0-3.758-.519-5.044-1.557-1.405-1.149-2.108-2.756-2.108-4.824 0-2.388.579-4.391 1.736-6.008 1.259-1.764 2.94-2.646 5.044-2.646 1.525 0 2.77.257 3.734.772 1.186.634 1.778 1.608 1.778 2.921 0 .919-.519 1.755-1.557 2.508-.459.331-1.433.846-2.922 1.544l-5.264 2.494c.515.763 1.155 1.337 1.923 1.723.767.386 1.66.579 2.68.579.634 0 1.378-.12 2.232-.359 1.085-.303 1.783-.7 2.095-1.192.313-.491.648-.737 1.006-.737.322 0 .609.122.861.365.253.244.379.526.379.848 0 1.019-.822 1.897-2.466 2.632-1.406.625-2.775.937-4.107.937Zm-.372-12.554c-1.121 0-2.053.434-2.798 1.302-.744.868-1.3 2.175-1.667 3.921l4.231-2.012c1.663-.809 2.848-1.512 3.555-2.109-.79-.735-1.897-1.102-3.321-1.102Z" style="fill:#bbb;fill-rule:nonzero" transform="rotate(-9.836 87.342 -94.74)"/><path d="m217.29 534.894 53.758-8.947v-22.804h-25.25v-9.163c0-8.349 6.72-15.068 15.068-15.068 8.349 0 13.847 1.222 13.847 1.222l4.48-26.676s-7.738-3.054-18.327-3.054c-24.028 0-43.576 19.548-43.576 43.576v9.163H201v28.508h16.29v3.243Zm138.314 79.23-45.48 7.569c5.115 1.826 10.728 2.812 16.718 2.812 11.901 0 21.303-3.804 28.762-10.381Zm35.991-5.99-28.508 4.744v8.777h28.508v-13.521Zm-82.062-88.592v-15.991h-29.322v20.871l29.322-4.88Zm82.062-13.658v-2.333h-28.508v7.078l28.508-4.745Zm121.463 82.035-31.224 5.196a31.028 31.028 0 0 1-13.364 2.225l-44.34 7.379c11.091 13.333 27.615 21.786 46.065 21.786 21.585 0 41.54-11.81 52.333-30.951l-9.47-5.635Zm58.772-9.782-33.012 5.495v38.023h28.915v-39.097l4.097-4.421Zm36.627-6.095-30.656 5.102 35.341 44.511h34.617l-39.302-49.613Zm-40.724-95.472v-18.225h-28.915v23.037l28.915-4.812Z" style="fill:#eee;fill-rule:nonzero"/><path d="M648.83 553.614h-24.051v99.811h24.051v-99.811Zm-12.026-37.966c-8.074 0-14.43 6.528-14.43 14.431 0 8.074 6.356 14.602 14.43 14.602s14.603-6.528 14.603-14.602c0-7.903-6.529-14.431-14.603-14.431Zm80.571 60.299c10.823 0 18.725 7.559 18.725 19.069v58.238h24.738v-61.502c.344-23.02-16.148-40.543-39.34-40.543-13.744 0-23.536 6.013-30.579 15.805v-13.228h-24.051v99.468h24.051v-49.82c0-14.259 12.197-27.487 26.456-27.487Zm126.267 21.302v3.608c-.859 12.197-10.479 21.989-22.505 21.989-12.712 0-22.676-10.823-22.676-23.879 0-13.056 9.964-23.879 22.676-23.879 12.026 0 21.646 9.964 22.505 22.161Zm0 41.059v3.951c0 9.62-2.577 16.664-7.559 21.302-4.982 4.467-11.853 6.356-19.24 6.356-18.554 0-31.954-5.325-31.954-5.325l-9.105 21.989s17.179 7.387 41.059 7.387c13.743 0 26.456-4.294 35.561-12.712s15.289-21.302 15.289-38.997v-88.473h-24.051v5.841c-5.325-5.326-12.712-8.418-22.505-8.418-25.769 0-46.555 21.302-46.555 47.758 0 26.456 20.786 47.759 46.555 47.759 9.793 0 17.18-3.093 22.505-8.418ZM280.507 763.201c10.823 0 18.725 7.559 18.725 19.069v58.237h24.738v-61.501c.344-23.021-16.148-40.543-39.34-40.543-13.743 0-23.536 6.012-30.579 15.804v-51.194H230v137.434h24.051v-49.82c0-14.258 12.197-27.486 26.456-27.486Zm83.491-22.333h-24.051v99.811h24.051v-99.811Zm-12.025-37.966c-8.075 0-14.431 6.528-14.431 14.43 0 8.074 6.356 14.602 14.431 14.602 8.074 0 14.602-6.528 14.602-14.602 0-7.902-6.528-14.43-14.602-14.43Zm107.198 86.068v3.779c-1.031 14.602-12.369 26.456-26.8 26.456-15.117 0-27.143-12.884-27.143-28.346 0-15.461 12.026-28.345 27.143-28.345 14.431 0 25.769 11.853 26.8 26.456Zm0-39.169c-6.185-7.044-14.946-11.167-26.8-11.167-28.174 0-51.022 23.364-51.022 52.225s22.848 52.225 51.022 52.225c11.854 0 20.615-4.123 26.8-11.166v8.761h24.051V703.073h-24.051v46.728Zm110.978 32.125h-47.415c1.374-4.123 3.436-8.074 6.528-11.166 5.669-5.67 12.197-8.418 18.554-8.418 2.92 0 5.841.515 8.418 1.718 6.7 2.92 12.025 9.276 13.915 17.866Zm-57.722-28.002c-9.277 9.792-14.431 23.02-14.431 36.763 0 29.033 22.677 52.397 50.851 52.397 28.173 0 39.168-10.307 39.168-10.307l-10.307-19.757s-13.744 5.841-28.861 5.841c-12.198 0-22.505-8.074-26.113-19.412h72.153V788.97c-.172-23.708-13.056-40.028-29.205-46.9-5.669-2.405-11.853-3.607-18.038-3.607-12.025 0-24.566 4.638-35.217 15.289v.172Zm147.054-15.461c-28.174 0-51.023 23.535-51.023 52.396s22.849 52.225 51.023 52.225c28.174 0 51.022-23.364 51.022-52.225s-22.848-52.396-51.022-52.396Zm0 24.738c14.946 0 26.971 12.369 26.971 27.658 0 15.29-12.025 27.659-26.971 27.659s-26.972-12.369-26.972-27.659c0-15.289 12.026-27.658 26.972-27.658Zm108.229 55.145c-10.651 0-18.725-7.559-18.725-18.897v-58.41h-24.739v61.502c-.343 23.02 16.149 40.543 39.341 40.543 13.743 0 23.535-6.013 30.579-15.805v13.4h24.051v-99.64h-24.051v49.992c0 14.259-12.369 27.315-26.456 27.315Zm142.244-69.232s-13.915-10.651-37.623-10.651c-25.081 0-39.855 15.976-39.855 32.125 0 2.233.343 4.466.859 6.7 3.607 13.743 15.461 20.099 29.891 23.363 5.67 1.203 11.854 2.062 17.18 3.78 4.123 1.202 8.074 2.577 8.761 7.215.172 1.718-1.202 2.921-2.749 4.123-3.607 2.749-8.761 4.123-14.946 4.123-15.633 0-30.063-7.387-30.063-7.387l-10.651 20.615s19.584 9.964 40.714 9.964c14.946 0 26.8-5.497 33.5-12.884 4.982-5.326 7.559-11.682 7.559-18.21 0-1.203-.172-2.577-.344-3.78-2.405-15.976-13.915-23.192-28.345-26.971-7.044-1.89-14.946-2.749-21.474-4.982-2.921-1.031-5.67-1.718-6.529-4.81-.171-.344-.171-.687-.171-1.031 0-1.546 1.03-2.92 2.233-4.123 3.092-2.921 8.246-4.638 14.43-4.638 14.946 0 23.708 6.184 23.708 6.184l13.915-18.725Zm15.461 79.54c0 8.074 6.357 14.43 14.431 14.43 8.074 0 14.602-6.356 14.602-14.43 0-8.075-6.528-14.431-14.602-14.431-8.074 0-14.431 6.356-14.431 14.431Z" style="fill:#eee;fill-rule:nonzero" transform="translate(-71.622 -152.858) scale(1.18531)"/><path d="M301.293 326c-39.347 0-71.282 31.936-71.282 71.283 0 39.348 31.935 71.283 71.282 71.283 39.348 0 71.456-31.935 71.456-71.283 0-39.347-32.108-71.283-71.456-71.283Zm0 14.409c31.444 0 56.875 25.431 56.875 56.874 0 31.444-25.431 56.874-56.875 56.874-31.443 0-56.701-25.43-56.701-56.874 0-31.443 25.258-56.874 56.701-56.874Zm99.114 72.52v-84.352h-14.065v137.412h14.065v-32.521l14.431-15.404 37.966 47.925h18.21l-46.384-58.366 37.966-41.08h-19.069l-43.12 46.386Zm156.009 2.049v2.577c-.687 20.449-16.84 36.946-36.946 36.946-20.449 0-36.946-17.184-36.946-38.149 0-20.964 16.497-38.32 36.946-38.32 20.106 0 36.259 16.497 36.946 36.946Zm0 31.79v19.221h14.066v-99.446h-14.066v19.513c-7.217-13.342-19.762-22.09-36.946-22.09-28.182 0-51.012 23.517-51.012 52.386 0 28.869 22.83 52.214 51.012 52.214 17.184 0 29.729-8.576 36.946-21.798Zm77.296.81-35.389-81.035h-16.149l43.464 99.538-8.418 19.017c-2.062 3.94-6.185 6.682-10.823 6.682-3.264 0-6.528-1.2-8.761-3.598l-10.48 10.288c5.154 5.146 12.026 8.062 19.241 8.062 10.651 0 20.1-6.175 24.566-15.609l54.287-124.38h-16.149l-35.389 81.035Zm50.324 1.597H668.76l-9.268 36.399h8.753l15.791-36.399Zm95.173-82.632v-26.284l-14.065 2.405v23.879h-16.149v14.065h16.149v57.911a29.952 29.952 0 0 0 30.042 30.047c6.7 0 17.523-2.573 17.523-2.573l-2.749-12.695s-6.013 1.203-14.774 1.203-15.977-7.046-15.977-15.81v-58.083h30.064v-14.065h-30.064Zm88.656 11.489c20.621 0 37.29 17.184 37.29 38.32 0 21.137-16.669 38.149-37.29 38.149s-37.29-17.012-37.29-38.149c0-21.136 16.669-38.32 37.29-38.32Zm0-14.066c-28.182 0-51.012 23.517-51.012 52.386 0 28.869 22.83 52.214 51.012 52.214 28.182 0 51.011-23.345 51.011-52.214s-22.829-52.386-51.011-52.386Zm210.435 26.095c-9.11-16.146-25.94-26.095-44.15-26.095-28.17 0-51.002 23.517-51.002 52.386 0 28.869 22.832 52.214 51.002 52.214 18.21 0 35.04-9.949 44.15-26.094l-11.85-7.046c-6.7 11.857-18.9 19.075-32.3 19.075-20.62 0-37.28-17.012-37.28-38.149 0-21.136 16.66-38.32 37.28-38.32 13.4 0 25.6 7.217 32.3 19.074l11.85-7.045Zm80.59 45.199c-4.98 10.995-15.81 18.897-27.84 18.897-13.75 0-24.23-10.307-24.92-23.879v-63.735h-14.06v63.391c-.18 21.818 15.78 38.632 37.43 38.632 14.61 0 25.61-7.719 32.14-19.563v16.986h14.07v-99.446h-14.07v56.581c0 4.115-1.03 8.23-2.75 12.003v.133Zm60.62-68.717v-26.284l-14.06 2.405v23.879h-16.15v14.065h16.15v57.911a29.953 29.953 0 0 0 30.04 30.047c6.7 0 17.52-2.573 17.52-2.573l-2.75-12.695s-6.01 1.203-14.77 1.203-15.98-7.046-15.98-15.81v-58.083h30.07v-14.065h-30.07Zm180.05 21.968c-5.15-14.424-18.54-24.545-35.21-24.545-14.61 0-25.61 7.719-32.14 19.563v-16.986h-14.07v99.446h14.07v-56.41c0-4.115 1.03-8.23 2.75-12.002 4.98-11.128 15.98-19.03 28.01-19.03 13.75 0 24.06 10.308 24.75 23.879v63.563h14.24V409.47c0-4.123.86-8.246 2.57-12.026 4.99-10.995 15.99-18.897 28.02-18.897 13.75 0 24.23 10.308 24.92 23.879v63.563h14.06V402.77c.17-21.818-15.78-38.804-37.44-38.804-16.67 0-28.35 10.121-34.53 24.545Zm124.21 59.067-35.39-81.035h-16.15l43.46 99.538-8.41 19.017c-2.07 3.94-6.19 6.682-10.83 6.682-3.26 0-6.53-1.2-8.76-3.598l-10.48 10.288c5.16 5.146 12.03 8.062 19.24 8.062 10.65 0 20.1-6.175 24.57-15.609l54.29-124.38h-16.15l-35.39 81.035Zm128.15-74.181s-9.95-12.18-33.84-12.18c-22.68 0-36.58 15.097-36.58 30.734 0 2.062.17 4.124.69 6.187 3.26 13.575 14.06 19.074 27.13 22.339 12.03 3.265 28.01 3.608 29.9 17.184v1.202c0 3.437-1.72 6.702-4.64 9.108-4.12 3.609-10.48 5.671-17.87 5.671-16.67 0-30.06-8.764-30.06-8.764l-8.24 12.709s17.16 10.979 38.3 10.979c22.86 0 37.61-14.41 37.61-29.703 0-1.031 0-2.233-.17-3.264-2.57-18.903-17.33-24.402-33.49-28.01-9.62-2.062-21.49-3.437-23.72-13.06-.17-1.031-.34-1.89-.34-2.921 0-8.421 8.94-15.294 21.48-15.294 15.64 0 22.69 7.045 22.69 7.045l11.15-9.962Zm95.68 35.235h-65.97c1.38-7.564 4.81-14.612 10.14-20.114 6.87-6.876 15.98-10.658 25.08-10.658 6.01 0 11.85 1.719 16.84 4.985 7.38 4.814 12.54 13.409 13.91 25.787Zm-65.79-29.913c-9.44 9.799-14.58 23.209-14.58 37.118 0 29.209 21.1 52.729 49.28 52.729 28.17 0 41.23-10.978 41.23-10.978l-8.93-11.511s-11.69 8.424-32.3 8.424c-18.38 0-32.13-13.581-35.05-31.632h80.57v-8.576c-.34-21.477-9.1-35.402-20.61-43.123-7.22-4.803-15.81-7.204-24.4-7.204-12.71 0-25.76 4.974-35.21 14.753ZM1789.86 326l-14.06 2.405v137.584h14.06V326Zm27.51 25.587v14.612h-13.74v14.238h13.74v85.552h14.24v-85.552h24.56v-14.238h-24.56v-14.612c0-8.768 6.87-15.645 15.63-15.645 7.56 0 11 .516 11 .516l1.54-12.866s-4.98-1.887-12.54-1.887c-16.49 0-29.87 13.38-29.87 29.882Zm180.19 21.81s-9.95-12.18-33.83-12.18c-22.69 0-36.58 15.097-36.58 30.734 0 2.062.17 4.124.68 6.187 3.26 13.575 14.07 19.074 27.13 22.339 12.03 3.265 28.02 3.608 29.91 17.184v1.202c0 3.437-1.72 6.702-4.64 9.108-4.13 3.609-10.49 5.671-17.88 5.671-16.67 0-30.06-8.764-30.06-8.764l-8.23 12.709s17.15 10.979 38.29 10.979c22.86 0 37.62-14.41 37.62-29.703 0-1.031 0-2.233-.18-3.264-2.57-18.903-17.33-24.402-33.48-28.01-9.63-2.062-21.49-3.437-23.72-13.06-.18-1.031-.35-1.89-.35-2.921 0-8.421 8.94-15.294 21.49-15.294 15.64 0 22.68 7.045 22.68 7.045l11.15-9.962Zm66.32 4.635c20.62 0 37.29 17.184 37.29 38.32 0 21.137-16.67 38.149-37.29 38.149-20.62 0-37.29-17.012-37.29-38.149 0-21.136 16.67-38.32 37.29-38.32Zm0-14.066c-28.18 0-51.01 23.517-51.01 52.386 0 28.869 22.83 52.214 51.01 52.214 28.19 0 51.01-23.345 51.01-52.214s-22.82-52.386-51.01-52.386Zm146.19 24.545c-5.14-14.424-18.54-24.545-35.21-24.545-14.61 0-25.6 7.719-32.14 19.563v-16.986h-14.06v99.446h14.06v-56.41c0-4.115 1.04-8.23 2.75-12.002 4.99-11.128 15.99-19.03 28.02-19.03 13.75 0 24.06 10.308 24.75 23.879v63.563h14.23V409.47c0-4.123.86-8.246 2.58-12.026 4.98-10.995 15.98-18.897 28.01-18.897 13.75 0 24.24 10.308 24.92 23.879v63.563h14.07V402.77c.17-21.818-15.79-38.804-37.44-38.804-16.67 0-28.36 10.121-34.54 24.545Zm165.26 20.121h-65.97c1.38-7.564 4.81-14.612 10.14-20.114 6.87-6.876 15.98-10.658 25.08-10.658 6.01 0 11.85 1.719 16.84 4.985 7.38 4.814 12.54 13.409 13.91 25.787Zm-65.8-29.913c-9.43 9.799-14.58 23.209-14.58 37.118 0 29.209 21.11 52.729 49.29 52.729 28.17 0 41.23-10.978 41.23-10.978l-8.94-11.511s-11.68 8.424-32.29 8.424c-18.38 0-32.13-13.581-35.05-31.632h80.57v-8.576c-.34-21.477-9.1-35.402-20.61-43.123-7.22-4.803-15.81-7.204-24.4-7.204-12.71 0-25.77 4.974-35.22 14.753Zm218.01-5.322s-9.95-12.18-33.83-12.18c-22.69 0-36.58 15.097-36.58 30.734 0 2.062.17 4.124.68 6.187 3.26 13.575 14.07 19.074 27.13 22.339 12.03 3.265 28.02 3.608 29.91 17.184v1.202c0 3.437-1.72 6.702-4.64 9.108-4.13 3.609-10.49 5.671-17.88 5.671-16.67 0-30.06-8.764-30.06-8.764l-8.24 12.709s17.16 10.979 38.3 10.979c22.86 0 37.62-14.41 37.62-29.703 0-1.031 0-2.233-.18-3.264-2.57-18.903-17.33-24.402-33.48-28.01-9.63-2.062-21.49-3.437-23.72-13.06-.18-1.031-.35-1.89-.35-2.921 0-8.421 8.94-15.294 21.49-15.294 15.64 0 22.68 7.045 22.68 7.045l11.15-9.962ZM2557.78 326l-14.07 2.405v137.584h14.07V326Zm100.86 88.978v2.577c-.69 20.449-16.84 36.946-36.95 36.946-20.45 0-36.94-17.184-36.94-38.149 0-20.964 16.49-38.32 36.94-38.32 20.11 0 36.26 16.497 36.95 36.946Zm0 31.79v19.221h14.06v-99.446h-14.06v19.513c-7.22-13.342-19.76-22.09-36.95-22.09-28.18 0-51.01 23.517-51.01 52.386 0 28.869 22.83 52.214 51.01 52.214 17.19 0 29.73-8.576 36.95-21.798Zm122.98-56.707c-9.11-16.146-25.94-26.095-44.15-26.095-28.17 0-51 23.517-51 52.386 0 28.869 22.83 52.214 51 52.214 18.21 0 35.04-9.949 44.15-26.094l-11.85-7.046c-6.7 11.857-18.9 19.075-32.3 19.075-20.61 0-37.28-17.012-37.28-38.149 0-21.136 16.67-38.32 37.28-38.32 13.4 0 25.6 7.217 32.3 19.074l11.85-7.045Zm27.83 22.868v-84.352h-14.06v137.412h14.06v-32.521l14.43-15.404 37.97 47.925h18.21l-46.39-58.366 37.97-41.08h-19.07l-43.12 46.386Zm93.98-25.256c-5.32 0-9.78 4.29-9.78 9.61 0 5.32 4.46 9.781 9.78 9.781 5.32 0 9.78-4.461 9.78-9.781s-4.46-9.61-9.78-9.61Zm0 61.502c-5.32 0-9.78 4.462-9.78 9.781 0 5.32 4.46 9.61 9.78 9.61 5.32 0 9.78-4.29 9.78-9.61 0-5.319-4.46-9.781-9.78-9.781ZM337.703 546.457H230.011v14.066h46.727v123.346h14.238V560.523h46.727v-14.066Zm27.659 55.124v-55.124h-14.066v137.412h14.066v-56.347c0-4.123.859-8.246 2.577-12.026 4.984-10.995 15.983-18.897 28.013-18.897 13.749 0 24.06 10.308 24.748 23.879v63.391h14.237v-63.047h-.171c.171-21.818-15.613-38.804-37.267-38.804-14.608 0-25.607 7.719-32.137 19.563Zm99.983-17.158h-14.066v99.446h14.066v-99.446Zm-7.033-37.966c-5.32 0-9.781 4.462-9.781 9.782 0 5.319 4.461 9.781 9.781 9.781s9.781-4.462 9.781-9.781c0-5.32-4.461-9.782-9.781-9.782Zm96.025 44.821s-9.95-12.18-33.836-12.18c-22.686 0-36.581 15.096-36.581 30.734 0 2.062.171 4.124.686 6.186 3.259 13.575 14.067 19.074 27.129 22.339 12.032 3.265 28.016 3.609 29.907 17.184v1.203c0 3.437-1.719 6.701-4.641 9.107-4.125 3.609-10.484 5.671-17.875 5.671-16.672 0-30.06-8.764-30.06-8.764l-8.238 12.709s17.159 10.979 38.298 10.979c22.859 0 37.612-14.409 37.612-29.702 0-1.031 0-2.234-.171-3.265-2.574-18.903-17.331-24.401-33.488-28.01-9.625-2.062-21.485-3.437-23.719-13.06-.172-1.031-.344-1.89-.344-2.921 0-8.42 8.938-15.294 21.485-15.294 15.641 0 22.685 7.046 22.685 7.046l11.151-9.962Zm139.159-6.855-27.831 76.985-27.658-76.985h-16.149l35.733 99.446h16.149l27.83-77.156 27.658 77.156h16.149l35.905-99.446h-16.149l-27.83 76.985-27.659-76.985h-16.148Zm177.472 48.435v2.577c-.688 20.449-16.841 36.946-36.946 36.946-20.449 0-36.946-17.184-36.946-38.148 0-20.965 16.497-38.321 36.946-38.321 20.105 0 36.258 16.497 36.946 36.946Zm0 31.79v19.221h14.065v-99.446h-14.065v19.513c-7.218-13.342-19.762-22.09-36.946-22.09-28.182 0-51.012 23.517-51.012 52.387 0 28.869 22.83 52.213 51.012 52.213 17.184 0 29.728-8.576 36.946-21.798Zm101.339-73.37s-9.95-12.18-33.835-12.18c-22.686 0-36.582 15.096-36.582 30.734 0 2.062.172 4.124.687 6.186 3.259 13.575 14.067 19.074 27.129 22.339 12.031 3.265 28.016 3.609 29.907 17.184v1.203c0 3.437-1.719 6.701-4.641 9.107-4.125 3.609-10.485 5.671-17.875 5.671-16.673 0-30.06-8.764-30.06-8.764l-8.239 12.709s17.159 10.979 38.299 10.979c22.859 0 37.612-14.409 37.612-29.702 0-1.031 0-2.234-.172-3.265-2.573-18.903-17.331-24.401-33.487-28.01-9.625-2.062-21.485-3.437-23.72-13.06-.171-1.031-.343-1.89-.343-2.921 0-8.42 8.937-15.294 21.485-15.294 15.641 0 22.685 7.046 22.685 7.046l11.15-9.962Zm97.743-6.855v-26.284l-14.06 2.405v23.879h-16.15v14.066h16.15V656.4a29.952 29.952 0 0 0 30.04 30.046c6.7 0 17.52-2.573 17.52-2.573l-2.75-12.695s-6.01 1.203-14.77 1.203-15.98-7.046-15.98-15.81v-58.082h30.07v-14.066h-30.07Zm61.33 17.158v-55.124h-14.06v137.412h14.06v-56.347c0-4.123.86-8.246 2.58-12.026 4.98-10.995 15.98-18.897 28.01-18.897 13.75 0 24.06 10.308 24.75 23.879v63.391h14.24v-63.047h-.17c.17-21.818-15.62-38.804-37.27-38.804-14.61 0-25.61 7.719-32.14 19.563Zm162.69 24.931h-65.97c1.38-7.564 4.81-14.612 10.14-20.113 6.87-6.877 15.97-10.659 25.08-10.659 6.01 0 11.85 1.719 16.84 4.985 7.38 4.814 12.54 13.41 13.91 25.787Zm-65.8-29.913c-9.43 9.8-14.58 23.209-14.58 37.118 0 29.209 21.11 52.729 49.29 52.729 28.17 0 41.23-10.978 41.23-10.978l-8.94-11.511s-11.68 8.424-32.29 8.424c-18.38 0-32.13-13.581-35.05-31.631h80.57v-8.577c-.34-21.477-9.1-35.402-20.61-43.123-7.22-4.802-15.81-7.204-24.4-7.204-12.71 0-25.77 4.975-35.22 14.753Zm159.11-27.132v14.613h-13.75v14.237h13.75v85.552h14.23v-85.552h24.57V584.08h-24.57v-14.613c0-8.768 6.88-15.644 15.64-15.644 7.56 0 10.99.515 10.99.515l1.55-12.866s-4.98-1.887-12.54-1.887c-16.49 0-29.87 13.38-29.87 29.882Zm72.99 14.956h-14.07v99.446h14.07v-99.446Zm-7.04-37.966c-5.32 0-9.78 4.462-9.78 9.782 0 5.319 4.46 9.781 9.78 9.781 5.32 0 9.78-4.462 9.78-9.781 0-5.32-4.46-9.782-9.78-9.782Zm37.79 44.493v-9.275h-14.41v102.194h14.41l.17-66.297c0-13.242 10.65-23.893 23.88-23.893 4.46 0 12.71 1.03 12.71 1.03V580.47s-8.42-1.372-12.71-1.372c-10.82 0-18.9 4.631-24.05 11.836v.016Zm114.41.328s-9.95-12.18-33.83-12.18c-22.69 0-36.58 15.096-36.58 30.734 0 2.062.17 4.124.68 6.186 3.26 13.575 14.07 19.074 27.13 22.339 12.03 3.265 28.02 3.609 29.91 17.184v1.203c0 3.437-1.72 6.701-4.64 9.107-4.13 3.609-10.49 5.671-17.88 5.671-16.67 0-30.06-8.764-30.06-8.764l-8.23 12.709s17.15 10.979 38.29 10.979c22.86 0 37.61-14.409 37.61-29.702 0-1.031 0-2.234-.17-3.265-2.57-18.903-17.33-24.401-33.48-28.01-9.63-2.062-21.49-3.437-23.72-13.06-.18-1.031-.35-1.89-.35-2.921 0-8.42 8.94-15.294 21.49-15.294 15.64 0 22.68 7.046 22.68 7.046l11.15-9.962Zm35.39-6.855v-26.284l-14.07 2.405v23.879h-16.14v14.066h16.14V656.4a29.954 29.954 0 0 0 30.05 30.046c6.7 0 17.52-2.573 17.52-2.573l-2.75-12.695s-6.01 1.203-14.77 1.203c-8.77 0-15.98-7.046-15.98-15.81v-58.082h30.06v-14.066h-30.06Zm112.37-14.956v14.613h-13.74v14.237h13.74v85.552h14.24v-85.552h24.57V584.08h-24.57v-14.613c0-8.768 6.87-15.644 15.63-15.644 7.56 0 11 .515 11 .515l1.54-12.866s-4.98-1.887-12.54-1.887c-16.49 0-29.87 13.38-29.87 29.882Zm86.58 26.445c20.62 0 37.28 17.184 37.28 38.321 0 21.136-16.66 38.148-37.28 38.148s-37.29-17.012-37.29-38.148c0-21.137 16.67-38.321 37.29-38.321Zm0-14.066c-28.19 0-51.02 23.517-51.02 52.387 0 28.869 22.83 52.213 51.02 52.213 28.18 0 51.01-23.344 51.01-52.213 0-28.87-22.83-52.387-51.01-52.387Zm78.84 19.723v-17.146h-14.07v99.446h14.07v-56.41c0-4.115 1.03-8.23 2.75-12.002 4.98-11.127 15.98-19.03 28.01-19.03 13.75 0 24.06 10.308 24.75 23.879v63.563h14.24V620.65c.17-21.818-15.96-38.804-37.61-38.804-14.61 0-25.61 7.72-32.14 19.563v.16Zm104.45-17.146v-26.284l-14.07 2.405v23.879h-16.15v14.066h16.15V656.4a29.952 29.952 0 0 0 30.04 30.046c6.7 0 17.53-2.573 17.53-2.573l-2.75-12.695s-6.01 1.203-14.78 1.203c-8.76 0-15.97-7.046-15.97-15.81v-58.082h30.06v-14.066h-30.06Zm112.37-14.956v14.613h-13.74v14.237h13.74v85.552h14.24v-85.552h24.57V584.08h-24.57v-14.613c0-8.768 6.87-15.644 15.63-15.644 7.56 0 11 .515 11 .515l1.54-12.866s-4.98-1.887-12.54-1.887c-16.49 0-29.87 13.38-29.87 29.882Zm123.52 63.391v2.577c-.69 20.449-16.84 36.946-36.95 36.946-20.45 0-36.94-17.184-36.94-38.148 0-20.965 16.49-38.321 36.94-38.321 20.11 0 36.26 16.497 36.95 36.946Zm0 31.79v19.221h14.07v-99.446h-14.07v19.513c-7.22-13.342-19.76-22.09-36.95-22.09-28.18 0-51.01 23.517-51.01 52.387 0 28.869 22.83 52.213 51.01 52.213 17.19 0 29.73-8.576 36.95-21.798Zm110.1-58.257c-5.14-14.424-18.54-24.545-35.21-24.545-14.61 0-25.6 7.72-32.14 19.563v-16.986h-14.06v99.446h14.06v-56.41c0-4.115 1.04-8.23 2.75-12.002 4.99-11.127 15.99-19.03 28.02-19.03 13.75 0 24.06 10.308 24.75 23.879v63.563h14.23V627.35c0-4.123.86-8.246 2.58-12.026 4.98-10.994 15.98-18.897 28.01-18.897 13.75 0 24.24 10.308 24.92 23.879v63.563h14.07V620.65c.17-21.818-15.79-38.804-37.44-38.804-16.67 0-28.36 10.121-34.54 24.545Zm102.56-21.968h-14.07v99.446h14.07v-99.446Zm-7.04-37.966c-5.31 0-9.78 4.462-9.78 9.782 0 5.319 4.47 9.781 9.78 9.781 5.32 0 9.79-4.462 9.79-9.781 0-5.32-4.47-9.782-9.79-9.782Zm37.44-2.577-14.06 2.405v137.584h14.06V543.88Zm62.38 121.578-35.39-81.035h-16.15l43.46 99.538-8.42 19.017c-2.06 3.941-6.18 6.682-10.82 6.682-3.26 0-6.53-1.199-8.76-3.598l-10.48 10.288c5.15 5.146 12.02 8.062 19.24 8.062 10.65 0 20.1-6.175 24.57-15.609l54.28-124.38h-16.14l-35.39 81.035Zm146.7-81.035v-26.284l-14.07 2.405v23.879h-16.15v14.066h16.15V656.4a29.952 29.952 0 0 0 30.04 30.046c6.7 0 17.52-2.573 17.52-2.573l-2.74-12.695s-6.02 1.203-14.78 1.203-15.97-7.046-15.97-15.81v-58.082h30.06v-14.066h-30.06Zm61.32 17.158v-55.124h-14.06v137.412h14.06v-56.347c0-4.123.87-8.246 2.58-12.026 4.99-10.995 15.99-18.897 28.02-18.897 13.75 0 24.06 10.308 24.74 23.879v63.391h14.24v-63.047h-.17c.17-21.818-15.61-38.804-37.27-38.804-14.6 0-25.6 7.719-32.14 19.563Zm170.27 31.277v2.577c-.68 20.449-16.84 36.946-36.94 36.946-20.45 0-36.95-17.184-36.95-38.148 0-20.965 16.5-38.321 36.95-38.321 20.1 0 36.26 16.497 36.94 36.946Zm0 31.79v19.221h14.07v-99.446h-14.07v19.513c-7.21-13.342-19.76-22.09-36.94-22.09-28.18 0-51.01 23.517-51.01 52.387 0 28.869 22.83 52.213 51.01 52.213 17.18 0 29.73-8.576 36.94-21.798Zm58.91-80.225v-26.284l-14.07 2.405v23.879h-16.15v14.066h16.15V656.4a29.952 29.952 0 0 0 30.04 30.046c6.7 0 17.53-2.573 17.53-2.573l-2.75-12.695s-6.01 1.203-14.78 1.203c-8.76 0-15.97-7.046-15.97-15.81v-58.082h30.06v-14.066h-30.06Zm98.63-37.966h14.065v137.412h-14.065zM309.529 844.393h-65.968c1.374-7.565 4.81-14.613 10.136-20.114 6.871-6.877 15.976-10.659 25.081-10.659 6.013 0 11.854 1.719 16.836 4.986 7.387 4.813 12.541 13.409 13.915 25.787Zm-65.796-29.913c-9.435 9.799-14.581 23.208-14.581 37.117 0 29.209 21.109 52.73 49.283 52.73s41.23-10.978 41.23-10.978l-8.933-11.512s-11.682 8.424-32.297 8.424c-18.382 0-32.125-13.581-35.046-31.631h80.571v-8.577c-.344-21.476-9.105-35.401-20.615-43.122-7.216-4.803-15.805-7.204-24.395-7.204-12.713 0-25.769 4.974-35.217 14.753Zm133.837 68.784-35.39-80.961h-16.148l43.463 99.447h16.149l43.463-99.447h-16.148l-35.389 80.961Zm131.066-38.871h-65.968c1.374-7.565 4.81-14.613 10.136-20.114 6.872-6.877 15.977-10.659 25.082-10.659 6.012 0 11.853 1.719 16.835 4.986 7.387 4.813 12.541 13.409 13.915 25.787ZM442.84 814.48c-9.435 9.799-14.581 23.208-14.581 37.117 0 29.209 21.109 52.73 49.283 52.73s41.23-10.978 41.23-10.978l-8.933-11.512s-11.682 8.424-32.297 8.424c-18.382 0-32.125-13.581-35.046-31.631h80.571v-8.577c-.344-21.476-9.105-35.401-20.615-43.122-7.215-4.803-15.805-7.204-24.395-7.204-12.712 0-25.768 4.974-35.217 14.753Zm108.401-5.65v-9.275h-14.409V901.75h14.409l.172-66.298c0-13.242 10.651-23.893 23.879-23.893 4.466 0 12.712 1.03 12.712 1.03V798.35s-8.417-1.372-12.712-1.372c-10.823 0-18.897 4.631-24.051 11.836v.016Zm115.466-21.483v14.613h-13.744v14.237h13.744v85.553h14.237v-85.553h24.566V801.96h-24.566v-14.613c0-8.768 6.872-15.644 15.633-15.644 7.559 0 10.995.515 10.995.515l1.546-12.865s-4.982-1.887-12.541-1.887c-16.491 0-29.87 13.379-29.87 29.881Zm72.99 14.956h-14.065v99.447h14.065v-99.447Zm-7.033-37.966c-5.319 0-9.781 4.462-9.781 9.782 0 5.319 4.462 9.781 9.781 9.781 5.32 0 9.782-4.462 9.782-9.781 0-5.32-4.462-9.782-9.782-9.782Zm37.44 55.112v-17.146h-14.065v99.447h14.065v-56.41c0-4.115 1.031-8.23 2.75-12.003 4.984-11.127 15.983-19.03 28.013-19.03 13.748 0 24.06 10.308 24.748 23.88v63.563h14.237v-63.22c.172-21.817-15.956-38.803-37.61-38.803-14.608 0-25.607 7.719-32.138 19.562v.16Zm100.155-17.146h-14.065v99.447h14.065v-99.447Zm-7.033-37.966c-5.319 0-9.781 4.462-9.781 9.782 0 5.319 4.462 9.781 9.781 9.781 5.32 0 9.782-4.462 9.782-9.781 0-5.32-4.462-9.782-9.782-9.782Zm96.025 44.821s-9.95-12.18-33.836-12.18c-22.685 0-36.581 15.096-36.581 30.734 0 2.062.172 4.124.686 6.186 3.26 13.575 14.067 19.074 27.13 22.339 12.031 3.265 28.016 3.609 29.906 17.184v1.203c0 3.437-1.718 6.702-4.64 9.107-4.125 3.609-10.485 5.671-17.876 5.671-16.672 0-30.059-8.764-30.059-8.764l-8.239 12.71s17.159 10.979 38.298 10.979c22.86 0 37.613-14.41 37.613-29.703 0-1.031 0-2.234-.172-3.265-2.573-18.902-17.331-24.401-33.487-28.01-9.626-2.062-21.485-3.437-23.72-13.06-.172-1.031-.343-1.89-.343-2.921 0-8.42 8.937-15.294 21.484-15.294 15.641 0 22.685 7.046 22.685 7.046l11.151-9.962Zm30.232 10.303v-55.124h-14.065V901.75h14.065v-56.348c0-4.123.859-8.246 2.578-12.026 4.984-10.994 15.979-18.897 28.009-18.897 13.75 0 24.06 10.308 24.75 23.879v63.392h14.24v-63.048h-.17c.17-21.818-15.61-38.804-37.27-38.804-14.61 0-25.606 7.72-32.137 19.563Zm162.687 24.932h-65.97c1.38-7.565 4.81-14.613 10.14-20.114 6.87-6.877 15.98-10.659 25.08-10.659 6.01 0 11.85 1.719 16.84 4.986 7.38 4.813 12.54 13.409 13.91 25.787Zm-65.8-29.913c-9.43 9.799-14.58 23.208-14.58 37.117 0 29.209 21.11 52.73 49.29 52.73 28.17 0 41.23-10.978 41.23-10.978l-8.94-11.512s-11.68 8.424-32.29 8.424c-18.39 0-32.13-13.581-35.05-31.631h80.57v-8.577c-.34-21.476-9.1-35.401-20.61-43.122-7.22-4.803-15.81-7.204-24.4-7.204-12.71 0-25.77 4.974-35.22 14.753Zm180.92 36.43v2.577c-.68 20.449-16.67 36.774-36.77 36.774-20.45 0-36.95-17.184-36.95-38.148 0-20.965 16.5-38.149 36.95-38.149 20.1 0 36.09 16.497 36.77 36.946Zm0-29.213c-7.21-13.222-19.59-21.799-36.77-21.799-28.18 0-51.01 23.346-51.01 52.215 0 28.869 22.83 52.214 51.01 52.214 17.18 0 29.56-8.577 36.77-21.799v19.222h14.07V764.337h-14.07v57.36Zm28.69 73.02c0 5.319 4.46 9.61 9.78 9.61 5.32 0 9.79-4.291 9.79-9.61 0-5.32-4.47-9.781-9.79-9.781-5.32 0-9.78 4.461-9.78 9.781Zm192.22-130.38h-107.7v14.066h46.73V901.75h14.24V778.403h46.73v-14.066Z" style="fill:#eee;fill-rule:nonzero" transform="rotate(90 810.665 995.525) scale(.21243)"/><path d="M1491.63 808.83v-9.275h-14.41V901.75h14.41l.17-66.298c0-13.242 10.65-23.893 23.88-23.893 4.47 0 12.72 1.03 12.72 1.03V798.35s-8.42-1.372-12.72-1.372c-10.82 0-18.89 4.631-24.05 11.836v.016Zm117.18 62.19c-4.98 10.995-15.81 18.898-27.84 18.898-13.74 0-24.23-10.308-24.92-23.88v-63.735h-14.06v63.392c-.17 21.817 15.78 38.632 37.44 38.632 14.61 0 25.6-7.72 32.14-19.563v16.986h14.06v-99.447h-14.06v56.582c0 4.115-1.04 8.23-2.76 12.002v.133Zm103.06-61.862s-9.95-12.18-33.83-12.18c-22.69 0-36.58 15.096-36.58 30.734 0 2.062.17 4.124.68 6.186 3.26 13.575 14.07 19.074 27.13 22.339 12.03 3.265 28.02 3.609 29.91 17.184v1.203c0 3.437-1.72 6.702-4.64 9.107-4.13 3.609-10.49 5.671-17.88 5.671-16.67 0-30.06-8.764-30.06-8.764l-8.24 12.71s17.16 10.979 38.3 10.979c22.86 0 37.62-14.41 37.62-29.703 0-1.031 0-2.234-.18-3.265-2.57-18.902-17.33-24.401-33.48-28.01-9.63-2.062-21.49-3.437-23.72-13.06-.17-1.031-.35-1.89-.35-2.921 0-8.42 8.94-15.294 21.49-15.294 15.64 0 22.68 7.046 22.68 7.046l11.15-9.962Zm35.39-6.855v-26.284l-14.07 2.405v23.879h-16.14v14.066h16.14v57.911a29.955 29.955 0 0 0 30.05 30.047c6.7 0 17.52-2.573 17.52-2.573l-2.75-12.696s-6.01 1.203-14.77 1.203c-8.77 0-15.98-7.045-15.98-15.809v-58.083h30.06v-14.066h-30.06Zm180.04 21.968c-5.15-14.424-18.54-24.544-35.21-24.544-14.61 0-25.6 7.719-32.14 19.562v-16.986h-14.06v99.447h14.06v-56.41c0-4.115 1.04-8.23 2.75-12.003 4.99-11.127 15.99-19.03 28.02-19.03 13.75 0 24.06 10.308 24.75 23.88v63.563h14.23v-56.52c0-4.123.86-8.246 2.58-12.025 4.98-10.995 15.98-18.898 28.01-18.898 13.75 0 24.24 10.308 24.92 23.88v63.563h14.07v-63.22c.17-21.817-15.79-38.803-37.44-38.803-16.67 0-28.36 10.12-34.54 24.544Zm165.26 20.122h-65.97c1.38-7.565 4.81-14.613 10.14-20.114 6.87-6.877 15.98-10.659 25.08-10.659 6.01 0 11.85 1.719 16.84 4.986 7.38 4.813 12.54 13.409 13.91 25.787Zm-65.79-29.913c-9.44 9.799-14.59 23.208-14.59 37.117 0 29.209 21.11 52.73 49.29 52.73 28.17 0 41.23-10.978 41.23-10.978l-8.94-11.512s-11.68 8.424-32.29 8.424c-18.38 0-32.13-13.581-35.05-31.631h80.57v-8.577c-.34-21.476-9.1-35.401-20.61-43.122-7.22-4.803-15.81-7.204-24.4-7.204-12.71 0-25.77 4.974-35.21 14.753Zm216.98-12.177-27.83 76.986-27.66-76.986h-16.15l35.74 99.447h16.14l27.83-77.157 27.66 77.157h16.15l35.9-99.447h-16.14l-27.83 76.986-27.66-76.986h-16.15Zm115.43 17.158v-55.124h-14.06V901.75h14.06v-56.348c0-4.123.86-8.246 2.58-12.026 4.98-10.994 15.98-18.897 28.01-18.897 13.75 0 24.06 10.308 24.75 23.879v63.392h14.24v-63.048h-.17c.17-21.818-15.62-38.804-37.27-38.804-14.61 0-25.61 7.72-32.14 19.563Zm162.69 24.932h-65.97c1.38-7.565 4.81-14.613 10.14-20.114 6.87-6.877 15.97-10.659 25.08-10.659 6.01 0 11.85 1.719 16.83 4.986 7.39 4.813 12.55 13.409 13.92 25.787Zm-65.8-29.913c-9.43 9.799-14.58 23.208-14.58 37.117 0 29.209 21.11 52.73 49.29 52.73 28.17 0 41.23-10.978 41.23-10.978l-8.94-11.512s-11.68 8.424-32.29 8.424c-18.39 0-32.13-13.581-35.05-31.631h80.57v-8.577c-.34-21.476-9.1-35.401-20.61-43.122-7.22-4.803-15.81-7.204-24.4-7.204-12.71 0-25.77 4.974-35.22 14.753Zm108.06 4.969v-17.146h-14.06v99.447h14.06v-56.41c0-4.115 1.03-8.23 2.75-12.003 4.99-11.127 15.98-19.03 28.01-19.03 13.75 0 24.06 10.308 24.75 23.88v63.563h14.24v-63.22c.17-21.817-15.96-38.803-37.61-38.803-14.61 0-25.61 7.719-32.14 19.562v.16Zm134.71-55.112h14.065v137.412h-14.065zm151.84 44.821s-9.94-12.18-33.83-12.18c-22.69 0-36.58 15.096-36.58 30.734 0 2.062.17 4.124.68 6.186 3.26 13.575 14.07 19.074 27.13 22.339 12.03 3.265 28.02 3.609 29.91 17.184v1.203c0 3.437-1.72 6.702-4.64 9.107-4.13 3.609-10.49 5.671-17.88 5.671-16.67 0-30.06-8.764-30.06-8.764l-8.23 12.71s17.16 10.979 38.29 10.979c22.86 0 37.62-14.41 37.62-29.703 0-1.031 0-2.234-.18-3.265-2.57-18.902-17.33-24.401-33.48-28.01-9.63-2.062-21.49-3.437-23.72-13.06-.17-1.031-.35-1.89-.35-2.921 0-8.42 8.94-15.294 21.49-15.294 15.64 0 22.68 7.046 22.68 7.046l11.15-9.962Zm98.29 41.58v2.578c-.69 20.448-16.84 36.945-36.95 36.945-20.45 0-36.94-17.184-36.94-38.148 0-20.965 16.49-38.321 36.94-38.321 20.11 0 36.26 16.497 36.95 36.946Zm0 31.79v19.222h14.06v-99.447h-14.06v19.513c-7.22-13.341-19.76-22.089-36.95-22.089-28.18 0-51.01 23.517-51.01 52.386 0 28.869 22.83 52.214 51.01 52.214 17.19 0 29.73-8.577 36.95-21.799Zm77.29.811-35.39-81.036h-16.14l43.46 99.539-8.42 19.016c-2.06 3.941-6.18 6.682-10.82 6.682-3.27 0-6.53-1.199-8.76-3.598l-10.48 10.288c5.15 5.146 12.02 8.063 19.24 8.063 10.65 0 20.1-6.176 24.56-15.61l54.29-124.38h-16.15l-35.39 81.036ZM260.225 1020.18v-26.281l-14.066 2.406v23.875h-16.148v14.07h16.148v57.91c0 16.67 13.38 30.05 30.042 30.05 6.7 0 17.523-2.58 17.523-2.58l-2.748-12.69s-6.013 1.2-14.775 1.2c-8.761 0-15.976-7.04-15.976-15.81v-58.08h30.063v-14.07h-30.063Zm61.33 17.16v-55.122h-14.066v137.412h14.066v-56.35c0-4.12.859-8.24 2.577-12.02 4.984-11 15.983-18.9 28.013-18.9 13.749 0 24.06 10.31 24.748 23.88v63.39h14.237v-63.05h-.171c.171-21.81-15.613-38.8-37.267-38.8-14.608 0-25.607 7.72-32.137 19.56Zm170.267 31.28v2.58c-.687 20.44-16.84 36.94-36.946 36.94-20.449 0-36.946-17.18-36.946-38.15 0-20.96 16.497-38.32 36.946-38.32 20.106 0 36.259 16.5 36.946 36.95Zm0 31.79v19.22h14.066v-99.45h-14.066v19.52c-7.217-13.34-19.762-22.09-36.946-22.09-28.182 0-51.011 23.51-51.011 52.38s22.829 52.22 51.011 52.22c17.184 0 29.729-8.58 36.946-21.8Zm58.904-80.23v-26.281l-14.066 2.406v23.875h-16.148v14.07h16.148v57.91a29.954 29.954 0 0 0 30.042 30.05c6.7 0 17.523-2.58 17.523-2.58l-2.749-12.69s-6.012 1.2-14.774 1.2c-8.761 0-15.976-7.04-15.976-15.81v-58.08h30.063v-14.07h-30.063Zm154.282-37.963v-.171h-55.652V1119.8h58.574c20.965 0 38.123-16.99 38.123-37.95 0-14.27-7.89-26.64-19.392-33.16 8.062-7.03 13.036-17.17 13.036-28.69 0-19.93-15.268-36.067-34.687-37.783h-.002Zm2.923 75.743a23.833 23.833 0 0 1 23.885 23.89c0 13.23-10.654 23.89-23.886 23.89h-44.509v-47.78h44.51Zm-3.266-61.849c11.859 1.376 21.138 11.689 21.138 23.889s-9.279 22.52-21.137 23.89h-41.245v-47.779h41.244Zm121.807 92.789c-4.984 10.99-15.811 18.9-27.841 18.9-13.748 0-24.232-10.31-24.919-23.88v-63.74h-14.066v63.4c-.171 21.81 15.785 38.63 37.439 38.63 14.608 0 25.606-7.72 32.137-19.57v16.99h14.066v-99.45h-14.066v56.59c0 4.11-1.031 8.23-2.75 12v.13Zm60.623-68.72v-26.281l-14.066 2.406v23.875h-16.148v14.07h16.148v57.91c0 16.67 13.38 30.05 30.043 30.05 6.699 0 17.522-2.58 17.522-2.58l-2.748-12.69s-6.013 1.2-14.774 1.2c-8.762 0-15.977-7.04-15.977-15.81v-58.08h30.064v-14.07h-30.064Zm68.03 0v-26.281l-14.066 2.406v23.875h-16.148v14.07h16.148v57.91a29.954 29.954 0 0 0 30.042 30.05c6.7 0 17.523-2.58 17.523-2.58l-2.749-12.69s-6.012 1.2-14.774 1.2c-8.761 0-15.976-7.04-15.976-15.81v-58.08h30.063v-14.07h-30.063Zm118.195 42.09h-65.97c1.37-7.56 4.81-14.61 10.14-20.11 6.87-6.88 15.97-10.66 25.08-10.66 6.01 0 11.85 1.72 16.83 4.99 7.39 4.81 12.54 13.4 13.92 25.78Zm-65.8-29.91c-9.434 9.8-14.58 23.21-14.58 37.12 0 29.21 21.11 52.73 49.28 52.73 28.18 0 41.23-10.98 41.23-10.98l-8.93-11.51s-11.68 8.42-32.3 8.42c-18.38 0-32.12-13.58-35.04-31.63h80.57v-8.58c-.35-21.47-9.11-35.4-20.62-43.12-7.21-4.8-15.8-7.2-24.39-7.2-12.71 0-25.77 4.97-35.22 14.75Zm108.4-5.65v-9.27h-14.41v102.19h14.41l.17-66.3c0-13.24 10.66-23.89 23.88-23.89 4.47 0 12.72 1.03 12.72 1.03v-14.24s-8.42-1.37-12.72-1.37c-10.82 0-18.89 4.63-24.05 11.83v.02Zm64.42 39.86v-84.352h-14.06v137.412h14.06v-32.52l14.44-15.41 37.96 47.93h18.21l-46.38-58.37 37.96-41.08h-19.07l-43.12 46.39Zm98.27-29.24v-17.15h-14.07v99.45h14.07v-56.41c0-4.11 1.03-8.23 2.75-12 4.98-11.13 15.98-19.03 28.01-19.03 13.75 0 24.06 10.31 24.75 23.88v63.56h14.24v-63.22c.17-21.82-15.96-38.8-37.61-38.8-14.61 0-25.61 7.72-32.14 19.56v.16Zm100.15-17.15h-14.06v99.45h14.06v-99.45Zm-7.03-37.962c-5.32 0-9.78 4.461-9.78 9.781s4.46 9.781 9.78 9.781c5.32 0 9.78-4.461 9.78-9.781s-4.46-9.781-9.78-9.781Zm37.12 23.012v14.61h-13.74v14.24h13.74v85.55h14.24v-85.55h24.56v-14.24h-24.56v-14.61c0-8.77 6.87-15.647 15.63-15.647 7.56 0 10.99.516 10.99.516l1.55-12.866s-4.98-1.887-12.54-1.887c-16.49 0-29.87 13.379-29.87 29.884Zm115.94 57.04h-65.97c1.37-7.56 4.81-14.61 10.13-20.11 6.88-6.88 15.98-10.66 25.09-10.66 6.01 0 11.85 1.72 16.83 4.99 7.39 4.81 12.54 13.4 13.92 25.78Zm-65.8-29.91c-9.43 9.8-14.58 23.21-14.58 37.12 0 29.21 21.11 52.73 49.28 52.73 28.18 0 41.23-10.98 41.23-10.98l-8.93-11.51s-11.68 8.42-32.3 8.42c-18.38 0-32.12-13.58-35.04-31.63h80.57v-8.58c-.34-21.47-9.11-35.4-20.62-43.12-7.21-4.8-15.8-7.2-24.39-7.2-12.71 0-25.77 4.97-35.22 14.75Zm216.99-12.18-27.83 76.99-27.66-76.99h-16.15l35.73 99.45h16.15l27.83-77.16 27.66 77.16h16.15l35.9-99.45h-16.15l-27.83 76.99-27.66-76.99h-16.14Zm177.47 48.44v2.58c-.69 20.44-16.84 36.94-36.95 36.94-20.45 0-36.94-17.18-36.94-38.15 0-20.96 16.49-38.32 36.94-38.32 20.11 0 36.26 16.5 36.95 36.95Zm0 31.79v19.22h14.06v-99.45h-14.06v19.52c-7.22-13.34-19.76-22.09-36.95-22.09-28.18 0-51.01 23.51-51.01 52.38s22.83 52.22 51.01 52.22c17.19 0 29.73-8.58 36.95-21.8Zm101.34-73.37s-9.95-12.18-33.84-12.18c-22.68 0-36.58 15.09-36.58 30.73 0 2.06.17 4.13.69 6.19 3.26 13.57 14.06 19.07 27.13 22.34 12.03 3.26 28.01 3.61 29.9 17.18v1.2c0 3.44-1.72 6.71-4.64 9.11-4.12 3.61-10.48 5.67-17.87 5.67-16.68 0-30.06-8.76-30.06-8.76l-8.24 12.71s17.16 10.98 38.3 10.98c22.86 0 37.61-14.41 37.61-29.71 0-1.03 0-2.23-.17-3.26-2.58-18.9-17.33-24.4-33.49-28.01-9.63-2.06-21.48-3.44-23.72-13.06-.17-1.03-.34-1.89-.34-2.92 0-8.42 8.93-15.3 21.48-15.3 15.64 0 22.69 7.05 22.69 7.05l11.15-9.96Zm147.05 35.23h-65.97c1.37-7.56 4.81-14.61 10.14-20.11 6.87-6.88 15.97-10.66 25.08-10.66 6.01 0 11.85 1.72 16.83 4.99 7.39 4.81 12.54 13.4 13.92 25.78Zm-65.8-29.91c-9.43 9.8-14.58 23.21-14.58 37.12 0 29.21 21.11 52.73 49.28 52.73 28.18 0 41.23-10.98 41.23-10.98l-8.93-11.51s-11.68 8.42-32.3 8.42c-18.38 0-32.12-13.58-35.04-31.63h80.57v-8.58c-.34-21.47-9.11-35.4-20.62-43.12-7.21-4.8-15.8-7.2-24.39-7.2-12.71 0-25.77 4.97-35.22 14.75Zm133.84 68.78-35.39-80.96h-16.15l43.46 99.45h16.15l43.47-99.45h-16.15l-35.39 80.96Zm131.07-38.87h-65.97c1.37-7.56 4.81-14.61 10.13-20.11 6.88-6.88 15.98-10.66 25.09-10.66 6.01 0 11.85 1.72 16.83 4.99 7.39 4.81 12.54 13.4 13.92 25.78Zm-65.8-29.91c-9.44 9.8-14.58 23.21-14.58 37.12 0 29.21 21.11 52.73 49.28 52.73 28.18 0 41.23-10.98 41.23-10.98l-8.93-11.51s-11.68 8.42-32.3 8.42c-18.38 0-32.12-13.58-35.04-31.63h80.57v-8.58c-.35-21.47-9.11-35.4-20.62-43.12-7.21-4.8-15.8-7.2-24.39-7.2-12.72 0-25.77 4.97-35.22 14.75Zm108.06 4.97v-17.15h-14.07v99.45h14.07v-56.41c0-4.11 1.03-8.23 2.75-12 4.98-11.13 15.98-19.03 28.01-19.03 13.75 0 24.06 10.31 24.75 23.88v63.56h14.23v-63.22c.18-21.82-15.95-38.8-37.61-38.8-14.6 0-25.6 7.72-32.13 19.56v.16Zm201.53 51.57c-4.98 10.99-15.81 18.9-27.84 18.9-13.75 0-24.23-10.31-24.92-23.88v-63.74h-14.07v63.4c-.17 21.81 15.79 38.63 37.44 38.63 14.61 0 25.61-7.72 32.14-19.57v16.99h14.06v-99.45h-14.06v56.59c0 4.11-1.03 8.23-2.75 12v.13Zm108.57-26.47v5.67c-1.37 17.19-15.29 30.94-32.48 30.94-18.04 0-32.48-15.13-32.48-33.69 0-18.55 14.44-33.85 32.48-33.85 17.19 0 31.11 13.75 32.48 30.93Zm-34.88 97.74c29.56 0 48.95-18.36 48.95-49.47v-90.52h-14.07v16.12c-6.53-11.49-17.53-18.69-32.48-18.69-25.77 0-46.54 21.28-46.54 47.74 0 26.47 20.77 47.75 46.54 47.75 14.95 0 25.95-7.2 32.48-18.53v17.67c-.68 21.83-13.74 33.87-34.88 33.87-20.62 0-33.85-8.08-33.85-8.08l-7.55 11.85s16.14 10.29 41.4 10.29Zm77.64-180.529-14.07 2.404v137.585h14.07V979.641Zm30.58 40.539h-14.07v99.45h14.07v-99.45Zm-7.04-37.962c-5.32 0-9.78 4.461-9.78 9.781s4.46 9.781 9.78 9.781c5.32 0 9.79-4.461 9.79-9.781s-4.47-9.781-9.79-9.781Zm102.9 80.052h-65.97c1.37-7.56 4.81-14.61 10.14-20.11 6.87-6.88 15.97-10.66 25.08-10.66 6.01 0 11.85 1.72 16.83 4.99 7.39 4.81 12.54 13.4 13.92 25.78Zm-65.8-29.91c-9.43 9.8-14.58 23.21-14.58 37.12 0 29.21 21.11 52.73 49.28 52.73 28.18 0 41.23-10.98 41.23-10.98l-8.93-11.51s-11.68 8.42-32.3 8.42c-18.38 0-32.12-13.58-35.04-31.63h80.57v-8.58c-.35-21.47-9.11-35.4-20.62-43.12-7.21-4.8-15.8-7.2-24.39-7.2-12.71 0-25.77 4.97-35.22 14.75Zm108.4-5.65v-9.27h-14.41v102.19h14.41l.17-66.3a23.83 23.83 0 0 1 23.88-23.89c4.47 0 12.72 1.03 12.72 1.03v-14.24s-8.42-1.37-12.72-1.37c-10.82 0-18.9 4.63-24.05 11.83v.02Zm50.36 85.89c0 5.32 4.46 9.61 9.78 9.61 5.32 0 9.78-4.29 9.78-9.61 0-5.32-4.46-9.78-9.78-9.78-5.32 0-9.78 4.46-9.78 9.78Z" style="fill:#eee;fill-rule:nonzero" transform="rotate(90 810.665 995.525) scale(.21243)"/><path d="M176 512h469v119H176z" style="fill:#222" transform="matrix(.993 -.16526 .13915 .83608 -74.231 143.482)"/><path d="M153.259 562.642c6.561.066 11.864 5.436 11.864 11.998 0 6.628-5.369 11.998-11.997 11.998h-18.559v-23.996h18.692Zm2.253 25.71c6.628 0 11.93 5.369 11.93 11.998 0 6.628-5.235 11.931-11.863 11.998h-21.012v-23.996h20.945Zm-2.253-27.424h-20.406v53.134h22.726a13.662 13.662 0 0 0 13.578-13.712c0-6.43-4.299-11.799-10.264-13.317 4.706-2.185 7.878-6.891 7.878-12.393 0-7.557-6.023-13.646-13.512-13.712Zm27.833 53.134H216.8v-1.714h-33.993v-23.996h26.902v-1.714h-26.902v-23.996H216.8v-1.714h-35.708v53.134Zm47.643 0h35.707v-1.714H230.45v-23.996h26.902v-1.714H230.45v-23.996h33.992v-1.714h-35.707v53.134Zm47.643 0h35.707v-1.714h-33.992v-23.996h26.902v-1.714h-26.902v-23.996h33.992v-1.714h-35.707v53.134Zm47.643 0h35.707v-1.714h-33.993v-23.996h26.903v-1.714h-26.903v-23.996h33.993v-1.714h-35.707v53.134Zm47.643 0h35.707v-1.714h-33.993v-23.996h26.903v-1.714h-26.903v-23.996h33.993v-1.714h-35.707v53.134Zm47.643 0h35.707v-1.714h-33.993v-23.996h26.903v-1.714h-26.903v-23.996h33.993v-1.714h-35.707v53.134Zm47.643 0h35.707v-1.714h-33.993v-23.996h26.903v-1.714h-26.903v-23.996h33.993v-1.714H466.95v53.134Zm47.643 0H550.3v-1.714h-33.993v-23.996h26.903v-1.714h-26.903v-23.996H550.3v-1.714h-35.707v53.134Zm47.643 0h35.707v-1.714H563.95v-23.996h26.903v-1.714H563.95v-23.996h33.993v-1.714h-35.707v53.134Zm68.976-51.287c7.82 0 14.117 6.282 14.117 14.085 0 7.803-6.297 14.018-14.117 14.018h-19.619v-28.17l19.619.067Zm-21.334-1.781v53.002h1.715v-21.403h19.619c8.748 0 15.832-7.005 15.832-15.733 0-8.729-7.084-15.866-15.832-15.866h-21.334Z" style="fill:#0c6;fill-rule:nonzero" transform="rotate(-9.449 988.291 -194.573) scale(.764)"/></svg>