<svg xmlns="http://www.w3.org/2000/svg" xml:space="preserve" style="fill-rule:evenodd;clip-rule:evenodd;stroke-linejoin:round;stroke-miterlimit:2" viewBox="0 0 1920 1080"><path d="M1970 0h1920v1080H1970z" style="fill:none" transform="translate(-1970)"/><path d="M0 0h1920v1080H0z" style="fill:#eee"/><path d="M238.586 5610.93s-9.491-10.93-31.384-10.93c-20.57 0-33.183 13.33-33.183 27.53 0 1.8.12 3.73.601 5.53 1.921 8.18 7.084 12.99 13.696 16.24 9.503 4.69 23.096 5.29 32.96 9.62 5.053 2.28 9.022 6.01 9.985 12.75.12.6.12 1.08.12 1.68 0 8.9-9.503 16.24-23.217 16.24-16.6 0-28.741-8.66-28.741-8.66l-6.005 8.3s14.657 10.57 34.746 10.57c20.691 0 33.544-12.74 33.544-26.57 0-.96-.12-2.04-.24-3-2.402-17.33-16.583-22.01-31.62-25.38-10.345-2.29-22.976-3.85-25.261-14.2-.239-1.06-.36-2.15-.361-3.24 0-9.26 9.383-17.2 22.976-17.2 16.48 0 23.698 7.57 23.698 7.57l7.686-6.85Zm50.63 25.49c14.434 0 26.102 12.03 26.102 26.83 0 14.79-11.668 26.7-26.102 26.7-14.435 0-26.103-11.91-26.103-26.7 0-14.8 11.668-26.83 26.103-26.83Zm0-9.84c-19.728 0-35.708 16.46-35.708 36.67 0 20.2 15.98 36.55 35.708 36.55 19.727 0 35.708-16.35 35.708-36.55 0-20.21-15.981-36.67-35.708-36.67Zm105.217 17.18c-3.602-10.1-12.976-17.18-24.646-17.18-10.225 0-17.924 5.4-22.496 13.69v-11.89h-9.846v69.61h9.846v-39.48c0-2.89.722-5.77 1.925-8.41 3.489-7.78 11.188-13.32 19.609-13.32 9.624 0 16.842 7.22 17.323 16.72v44.49h9.967v-39.56c0-2.89.601-5.77 1.804-8.42 3.489-7.69 11.188-13.23 19.609-13.23 9.624 0 16.962 7.22 17.444 16.72v44.49h9.846v-44.25c.12-15.27-11.049-27.16-26.207-27.16-11.669 0-19.85 7.08-24.178 17.18Zm118.569 14.08h-46.178c.962-5.29 3.367-10.23 7.095-14.08 4.81-4.81 11.184-7.46 17.557-7.46 4.209 0 8.298 1.21 11.785 3.49 5.171 3.37 8.779 9.39 9.741 18.05Zm-46.057-20.94c-6.605 6.86-10.207 16.25-10.207 25.99 0 20.44 14.776 36.91 34.498 36.91 19.722 0 28.861-7.69 28.861-7.69l-6.253-8.06s-8.177 5.9-22.608 5.9c-12.867 0-22.488-9.51-24.532-22.14h56.399v-6c-.24-15.04-6.373-24.79-14.43-30.19-5.051-3.36-11.064-5.04-17.076-5.04-8.899 0-18.038 3.48-24.652 10.32Zm128.672-8.52v-18.4l-9.846 1.68v16.72h-11.304v9.85h11.304v40.53c0 11.67 9.366 21.04 21.03 21.04 4.69 0 12.266-1.81 12.266-1.81l-1.924-8.88s-4.209.84-10.342.84c-6.133 0-11.184-4.93-11.184-11.07v-40.65h21.045v-9.85h-21.045Zm47.741 0h-9.846v69.61h9.846v-69.61Zm-4.923-26.58c-3.724 0-6.847 3.13-6.847 6.85 0 3.73 3.123 6.85 6.847 6.85s6.847-3.12 6.847-6.85c0-3.72-3.123-6.85-6.847-6.85Zm29.094 62.29v-1.81c.481-14.31 11.789-25.86 25.862-25.86 14.315 0 25.863 12.15 25.863 26.83 0 14.67-11.548 26.7-25.863 26.7-14.073 0-25.381-11.55-25.862-25.86Zm0-22.13v-13.58h-9.846v96.31h9.846v-40.14c5.052 9.24 13.834 15.25 25.862 15.25 19.728 0 35.709-16.33 35.709-36.49 0-20.27-15.981-36.73-35.709-36.73-12.028 0-20.81 6.12-25.862 15.38Zm124.346-8.78s-6.965-8.53-23.685-8.53c-15.88 0-25.607 10.57-25.607 21.52 0 1.44.12 2.88.48 4.33 2.282 9.5 9.847 13.35 18.991 15.63 8.422 2.29 19.611 2.53 20.935 12.03v.84c0 2.41-1.203 4.7-3.249 6.38-2.887 2.53-7.339 3.97-12.513 3.97-11.67 0-21.041-6.13-21.041-6.13l-5.767 8.89s12.011 7.69 26.808 7.69c16.002 0 26.329-10.09 26.329-20.8 0-.72 0-1.56-.12-2.28-1.801-13.23-12.132-17.08-23.441-19.61-6.738-1.44-15.04-2.4-16.604-9.14-.12-.72-.24-1.32-.24-2.04 0-5.9 6.256-10.71 15.039-10.71 10.949 0 15.879 4.93 15.879 4.93l7.806-6.97Zm62.665-15.27v10.23h-9.62v9.97h9.62v59.88h9.966v-59.88h17.197v-9.97h-17.197v-10.23c0-6.14 4.81-10.95 10.943-10.95 5.292 0 7.697.36 7.697.36l1.082-9.01s-3.487-1.32-8.779-1.32c-11.543 0-20.909 9.37-20.909 20.92Zm63.487 18.51c14.435 0 26.103 12.03 26.103 26.83 0 14.79-11.668 26.7-26.103 26.7-14.435 0-26.103-11.91-26.103-26.7 0-14.8 11.668-26.83 26.103-26.83Zm0-9.84c-19.727 0-35.708 16.46-35.708 36.67 0 20.2 15.981 36.55 35.708 36.55 19.728 0 35.708-16.35 35.708-36.55 0-20.21-15.98-36.67-35.708-36.67Zm58.316 6.37v-6.49h-10.086v71.53h10.086l.12-46.41c0-9.26 7.456-16.72 16.716-16.72 3.126 0 8.901.72 8.901.72v-9.97s-5.895-.96-8.901-.96c-7.576 0-13.228 3.24-16.836 8.29v.01Zm123.757 43.53c-3.49 7.7-11.07 13.23-19.49 13.23-9.62 0-16.96-7.22-17.44-16.72v-44.61h-9.85v44.37c-.12 15.28 11.05 27.05 26.21 27.05 10.22 0 17.92-5.41 22.49-13.7v11.89h9.85v-69.61h-9.85v39.61c0 2.88-.72 5.76-1.92 8.4v.09Zm75.03-43.3s-6.97-8.53-23.69-8.53c-15.88 0-25.6 10.57-25.6 21.52 0 1.44.11 2.88.48 4.33 2.28 9.5 9.84 13.35 18.99 15.63 8.42 2.29 19.61 2.53 20.93 12.03v.84c0 2.41-1.2 4.7-3.25 6.38-2.89 2.53-7.34 3.97-12.51 3.97-11.67 0-21.04-6.13-21.04-6.13l-5.77 8.89s12.01 7.69 26.81 7.69c16 0 26.33-10.09 26.33-20.8 0-.72 0-1.56-.12-2.28-1.8-13.23-12.13-17.08-23.44-19.61-6.74-1.44-15.04-2.4-16.61-9.14-.12-.72-.24-1.32-.24-2.04 0-5.9 6.26-10.71 15.04-10.71 10.95 0 15.88 4.93 15.88 4.93l7.81-6.97Zm25.97-4.8h-9.85v69.61h9.85v-69.61Zm-4.92-26.58c-3.73 0-6.85 3.13-6.85 6.85 0 3.73 3.12 6.85 6.85 6.85 3.72 0 6.84-3.12 6.84-6.85 0-3.72-3.12-6.85-6.84-6.85Zm29.09 38.58v-12h-9.85v69.61h9.85v-39.48c0-2.89.72-5.77 1.92-8.41 3.49-7.78 11.19-13.32 19.61-13.32 9.63 0 16.85 7.22 17.33 16.72v44.49h9.96v-44.25c.12-15.27-11.17-27.16-26.32-27.16-10.23 0-17.93 5.4-22.5 13.69v.11Zm115.94 17.57v3.97c-.96 12.03-10.7 21.66-22.73 21.66-12.64 0-22.74-10.59-22.74-23.58 0-12.99 10.1-23.7 22.74-23.7 12.03 0 21.77 9.63 22.73 21.65Zm-24.42 68.42c20.69 0 34.27-12.85 34.27-34.63v-63.36h-9.85v11.28c-4.57-8.04-12.27-13.08-22.73-13.08-18.05 0-32.59 14.89-32.59 33.42s14.54 33.42 32.59 33.42c10.46 0 18.16-5.04 22.73-12.97v12.37c-.48 15.28-9.62 23.71-24.42 23.71-14.43 0-23.69-5.66-23.69-5.66l-5.28 8.3s11.29 7.2 28.97 7.2Zm193.13-28.25v-96.44H1492l-35.47 66.98-35.48-66.98h-18.04v96.44h16.84v-64.58l27.66 52.07h18.04l27.54-52.07v64.58h16.83Zm32.23-69.87h-16.84v69.87h16.84v-69.87Zm-8.42-26.57c-5.65 0-10.1 4.57-10.1 10.1 0 5.65 4.45 10.22 10.1 10.22 5.65 0 10.22-4.57 10.22-10.22 0-5.53-4.57-10.1-10.22-10.1Zm59.29 42.21c7.57 0 13.1 5.29 13.1 13.34V5698h17.32v-43.05c.24-16.11-11.3-28.38-27.54-28.38-9.62 0-16.47 4.21-21.4 11.06v-9.26h-16.84V5698h16.84v-34.87c0-9.98 8.54-19.24 18.52-19.24Zm46.05 30.78c0 13.83 11.31 25.13 25.14 25.13 5.29 0 13.83-1.56 13.83-1.56l-2.05-15.99s-7.21.84-11.78.84c-4.57 0-8.3-3.85-8.3-8.42v-29.58h20.08v-16.72h-20.08v-18.52l-16.84 1.81v16.71h-9.5v16.72h9.5v29.58Zm116.53-63.37s-9.5-11.31-31.87-11.31c-21.4 0-34.51 14.07-34.51 28.98 0 2.05.24 3.97.72 6.02 3.13 12.86 13.47 18.04 26.1 21.16 5.41 1.32 11.3 2.41 16.47 4.09 5.05 1.68 9.62 4.09 10.46 10.34.12.48.12.84.12 1.32 0 6.74-7.93 11.67-18.51 11.67-14.8 0-27.42-7.82-27.42-7.82l-8.54 13.83s16.47 10.22 35.96 10.22c21.52 0 34.75-13.7 34.75-28.14 0-1.08-.12-2.16-.24-3.24-2.53-17.8-16.72-23.09-32.23-26.46-4.45-.96-8.9-1.8-12.87-3.25-3.85-1.44-7.09-3.24-8.17-7.57-.24-.84-.24-1.57-.24-2.29 0-6.97 7.69-12.62 18.15-12.62 13.59 0 19.72 5.89 19.72 5.89l12.15-10.82Zm67.46 50.5v2.77c-.72 10.22-8.77 18.52-18.88 18.52-10.58 0-18.88-9.02-18.88-19.84 0-10.83 8.3-19.85 18.88-19.85 10.11 0 18.16 8.18 18.88 18.4Zm0 30.19v6.13h16.84v-69.75h-16.84v6.14c-4.33-4.94-10.46-7.94-18.88-7.94-19.72 0-35.71 16.47-35.71 36.68 0 20.2 15.99 36.55 35.71 36.55 8.42 0 14.55-2.88 18.88-7.81Zm65.3-48.1c7.58 0 13.11 5.29 13.11 13.34V5698h17.32v-43.05c.24-16.11-11.31-28.38-27.54-28.38-9.62 0-16.48 4.21-21.41 11.06v-9.26h-16.83V5698h16.83v-34.87c0-9.98 8.54-19.24 18.52-19.24Zm96.45-9.86s-9.74-7.46-26.34-7.46c-17.56 0-27.9 11.18-27.9 22.49 0 1.56.24 3.12.6 4.69 2.53 9.62 10.83 14.07 20.93 16.35 3.97.84 8.29 1.44 12.02 2.65 2.89.84 5.65 1.8 6.14 5.05.12 1.2-.85 2.04-1.93 2.88-2.52 1.93-6.13 2.89-10.46 2.89-10.94 0-21.05-5.17-21.05-5.17l-7.45 14.43s13.71 6.97 28.5 6.97c10.46 0 18.76-3.84 23.45-9.02 3.49-3.72 5.29-8.17 5.29-12.74 0-.84-.12-1.81-.24-2.65-1.68-11.18-9.74-16.23-19.84-18.88-4.93-1.32-10.46-1.92-15.03-3.48-2.05-.73-3.97-1.21-4.57-3.37-.12-.24-.12-.48-.12-.72 0-1.09.72-2.05 1.56-2.89 2.16-2.04 5.77-3.25 10.1-3.25 10.46 0 16.6 4.33 16.6 4.33l9.74-13.1Zm20.56 52.19c-3.72 0-6.85 3.13-6.85 6.85 0 3.72 3.13 6.73 6.85 6.73 3.72 0 6.85-3.01 6.85-6.73 0-3.72-3.13-6.85-6.85-6.85Zm4.92-84.42h-9.84v73.98h9.84v-73.98Z" style="fill:#111;fill-rule:nonzero" transform="translate(182.71 -3719.61) scale(.7113)"/><path d="M904.138 5601.68v16.95h10.823v79.49h16.956v-96.44h-27.779Zm41.608 88.02c0 5.65 4.449 10.1 10.101 10.1 5.652 0 10.222-4.45 10.222-10.1 0-5.65-4.57-10.1-10.222-10.1-5.652 0-10.101 4.45-10.101 10.1Zm45.697 21.65c5.291-9.62 9.377-18.16 12.387-29.34 2.89-10.59 4.21-21.41 4.21-32.11 0-10.71-1.2-21.41-4.09-32.11-3.01-11.3-7.096-19.72-12.628-29.34l-11.424 5.41c3.608 9.38 5.893 18.64 7.696 27.78 1.924 9.5 3.127 18.88 3.127 28.26 0 9.38-1.323 18.76-3.247 28.26-1.804 9.26-3.968 18.52-7.576 27.9l11.545 5.29Zm-87.299 48.93v77.92h29.315c21.533 0 39.058-17.49 39.058-38.96 0-21.46-17.525-38.96-39.058-38.96h-29.315Zm7.976 7.98h21.339c17.149 0 30.985 13.89 30.985 30.98 0 17.1-13.836 30.99-30.985 30.99H912.12v-61.97Zm98.98 20.07c11.69 0 21.15 9.74 21.15 21.73 0 11.98-9.46 21.63-21.15 21.63-11.693 0-21.145-9.65-21.145-21.63 0-11.99 9.452-21.73 21.145-21.73Zm0-7.98c-15.981 0-28.926 13.34-28.926 29.71s12.945 29.6 28.926 29.6c15.98 0 28.93-13.23 28.93-29.6s-12.95-29.71-28.93-29.71Zm47.14 11.18v-9.72h-7.97v56.39h7.97v-31.98c0-2.34.59-4.67 1.56-6.81 2.83-6.31 9.07-10.79 15.89-10.79 7.79 0 13.64 5.85 14.03 13.54v36.04h8.07v-35.84c.1-12.38-9.04-22.01-21.32-22.01-8.29 0-14.52 4.38-18.23 11.09v.09Zm49.7-31.25h7.98v29.89h-7.98v-29.89Zm35.25 21.53v-14.9l-7.98 1.36v13.54h-9.15v7.98h9.15v32.84c0 9.45 7.59 17.03 17.04 17.03 3.8 0 9.94-1.45 9.94-1.45l-1.56-7.2s-3.41.68-8.38.68c-4.97 0-9.06-4-9.06-8.96v-32.94h17.05v-7.98h-17.05Zm29.24 52.41c0 3.01 2.53 5.44 5.54 5.44 3.02 0 5.55-2.43 5.55-5.44 0-3.02-2.53-5.55-5.55-5.55-3.01 0-5.54 2.53-5.54 5.55Z" style="fill:#111;fill-rule:nonzero" transform="translate(-175.5 -2451.98) scale(.53253)"/><path d="M925.543 5654.95s3.848-.72 10.462-.72c8.418 0 15.152 6.49 15.152 14.67s-6.734 14.79-15.152 14.79-15.152-6.61-15.152-14.79h-16.715c0 17.08 14.31 30.9 31.867 30.9 17.557 0 31.868-13.82 31.868-30.9 0-13.11-8.418-24.17-20.203-28.74l17.557-21.41v-16.95h-58.564v16.95h39.203l-20.323 23.09v13.11Zm56.039 34.75c0 5.65 4.449 10.1 10.101 10.1 5.652 0 10.217-4.45 10.217-10.1 0-5.65-4.565-10.1-10.217-10.1s-10.101 4.45-10.101 10.1Zm45.698 21.65c5.29-9.62 9.38-18.16 12.38-29.34 2.89-10.59 4.21-21.41 4.21-32.11 0-10.71-1.2-21.41-4.08-32.11-3.01-11.3-7.1-19.72-12.63-29.34l-11.43 5.41c3.61 9.38 5.9 18.64 7.7 27.78 1.92 9.5 3.13 18.88 3.13 28.26 0 9.38-1.33 18.76-3.25 28.26-1.8 9.26-3.97 18.52-7.58 27.9l11.55 5.29Zm-87.488 60.14 13.638 33.99h-27.179l13.541-33.99Zm4.481-11.21h-8.962l-31.173 77.92h8.962l9.936-24.74h33.609l9.936 24.74h8.962l-31.27-77.92Zm49.384 50.46v-1.46c.389-11.6 9.553-20.95 20.953-20.95 11.59 0 20.95 9.84 20.95 21.73 0 11.88-9.36 21.63-20.95 21.63-11.4 0-20.564-9.35-20.953-20.95Zm0-17.93v-11h-7.976v78.02h7.976v-32.52c4.092 7.49 11.203 12.35 20.953 12.35 15.98 0 28.92-13.22 28.92-29.55 0-16.42-12.94-29.76-28.92-29.76-9.75 0-16.861 4.96-20.953 12.46Zm67.603 17.93v-1.46c.39-11.6 9.55-20.95 20.95-20.95 11.6 0 20.95 9.84 20.95 21.73 0 11.88-9.35 21.63-20.95 21.63-11.4 0-20.56-9.35-20.95-20.95Zm0-17.93v-11h-7.97v78.02h7.97v-32.52c4.1 7.49 11.21 12.35 20.95 12.35 15.98 0 28.93-13.22 28.93-29.55 0-16.42-12.95-29.76-28.93-29.76-9.74 0-16.85 4.96-20.95 12.46Zm67.61-33.99-7.98 1.37v78.01h7.98v-79.38Zm37.8 68.94-20.06-45.95h-9.16l24.64 56.45-4.77 10.78c-1.17 2.23-3.51 3.79-6.14 3.79-1.85 0-3.7-.68-4.96-2.04l-5.95 5.83c2.93 2.92 6.82 4.57 10.91 4.57 6.04 0 11.4-3.5 13.93-8.85l30.79-70.53h-9.16l-20.07 45.95Zm83.58-28.72c2.54 0 5.27.99 7.21 2.64 3.12 2.63 7.51 4.09 11.6 4.09 2.24 0 4.48-.39 6.33-1.37 3.6-1.84 6.42-5.45 6.42-11.48h-6.8c0 4.28-2.34 6.33-6.14 6.33-2.54 0-5.27-1.08-7.22-2.64-3.11-2.53-7.4-3.89-11.4-3.89-2.34 0-4.48.49-6.43 1.46-3.6 1.85-6.22 5.46-6.22 11.29h6.22c0-4.37 2.53-6.43 6.43-6.43Zm50.07-16.07c0-8.96 7.21-15.78 16.08-15.78 9.65 0 15.69 4.48 16.47 14.03 0 .58.1 1.07.1 1.66 0 6.23-3.02 12.56-9.36 20.16-6.43 7.7-16.37 16.57-30.29 27.19v7.97h48.6v-7.97h-37.02c10.92-8.28 19.1-15.4 24.75-21.92 8.28-9.46 11.68-17.83 11.68-25.83 0-.68-.09-1.26-.09-1.94-1.07-14.03-10.61-21.72-24.84-21.72-13.54 0-24.35 10.41-24.35 24.15h8.27Zm57-22.69-3.8 38.96 6.53 4.58c3.41-4.48 8.77-7.12 14.51-7.12 9.94 0 18.12 7.9 18.12 17.64 0 9.75-8.18 17.64-18.12 17.64-6.43 0-12.37-3.41-15.58-8.87l-6.92 3.9c4.68 7.89 13.25 12.65 22.5 12.65 14.32 0 26.1-11.28 26.1-25.32 0-14.03-11.78-25.42-26.1-25.42-4.48 0-8.76 1.17-12.56 3.21l2.24-23.87h33.21v-7.98h-40.13Zm69.94 5.06c5.46 0 9.94 4.48 9.94 9.94 0 5.46-4.48 9.84-9.94 9.84-5.46 0-9.85-4.38-9.85-9.84s4.39-9.94 9.85-9.94Zm0-6.52c-9.07 0-16.46 7.4-16.46 16.46 0 9.07 7.39 16.46 16.46 16.46s16.55-7.39 16.55-16.46c0-9.06-7.48-16.46-16.55-16.46Zm39.45 54.64c5.46 0 9.85 4.38 9.85 9.84s-4.39 9.85-9.85 9.85h-.02c-5.39 0-9.82-4.43-9.82-9.82v-.02c0-5.46 4.39-9.85 9.84-9.85Zm7.61-53.18h-8.58l-45.99 77.92h8.58l45.99-77.92Zm-7.61 46.57c-9.06 0-16.36 7.39-16.36 16.41 0 9.11 7.3 16.4 16.36 16.4 9.07 0 16.46-7.29 16.46-16.35 0-9.07-7.39-16.46-16.46-16.46Zm75.3-25.04v-14.9l-7.98 1.36v13.54h-9.15v7.98h9.15v32.84c0 9.45 7.59 17.03 17.04 17.03 3.8 0 9.94-1.45 9.94-1.45l-1.56-7.2s-3.41.68-8.38.68c-4.97 0-9.06-4-9.06-8.96v-32.94h17.05v-7.98h-17.05Zm37.41 3.7v-5.26h-8.17v57.95h8.17l.09-37.59c0-7.51 6.04-13.55 13.55-13.55 2.53 0 7.2.59 7.2.59v-8.08s-4.77-.78-7.2-.78c-6.14 0-10.72 2.63-13.64 6.72Zm67.32 23.77v1.46c-.39 11.6-9.55 20.95-20.95 20.95-11.59 0-20.95-9.75-20.95-21.63 0-11.89 9.36-21.73 20.95-21.73 11.4 0 20.56 9.35 20.95 20.95Zm0 18.03v10.89h7.98v-56.39h-7.98v11.07c-4.09-7.57-11.2-12.53-20.95-12.53-15.98 0-28.92 13.34-28.92 29.71s12.94 29.6 28.92 29.6c9.75 0 16.86-4.86 20.95-12.35Zm72.18-32.16c-5.17-9.16-14.71-14.8-25.04-14.8-15.98 0-28.92 13.34-28.92 29.71s12.94 29.6 28.92 29.6c10.33 0 19.87-5.64 25.04-14.79l-6.73-4c-3.8 6.73-10.71 10.82-18.31 10.82-11.69 0-21.14-9.65-21.14-21.63 0-11.99 9.45-21.73 21.14-21.73 7.6 0 14.51 4.09 18.31 10.81l6.73-3.99Zm18.21 12.97v-47.84h-7.97v77.92h7.97v-18.44l8.19-8.73 21.53 27.17h10.32l-26.3-33.09 21.53-23.3h-10.82l-24.45 26.31Zm59.72-26.31h-7.98v56.39h7.98v-56.39Zm-3.99-21.53c-3.02 0-5.55 2.53-5.55 5.55s2.53 5.55 5.55 5.55 5.55-2.53 5.55-5.55-2.53-5.55-5.55-5.55Zm23.67 31.25v-9.72h-7.98v56.39h7.98v-31.98c0-2.34.58-4.67 1.56-6.81 2.82-6.31 9.06-10.79 15.88-10.79 7.8 0 13.64 5.85 14.03 13.54v36.04h8.08v-35.84c.09-12.38-9.05-22.01-21.33-22.01-8.28 0-14.52 4.38-18.22 11.09v.09Zm94.02 14.24v3.22c-.78 9.74-8.68 17.54-18.42 17.54-10.24 0-18.42-8.58-18.42-19.1 0-10.53 8.18-19.2 18.42-19.2 9.74 0 17.64 7.8 18.42 17.54Zm-19.79 55.42c16.76 0 27.76-10.41 27.76-28.05v-51.33h-7.97v9.14c-3.71-6.51-9.94-10.6-18.42-10.6-14.62 0-26.4 12.07-26.4 27.08 0 15 11.78 27.07 26.4 27.07 8.48 0 14.71-4.08 18.42-10.51v10.03c-.4 12.38-7.8 19.2-19.79 19.2-11.69 0-19.19-4.58-19.19-4.58l-4.28 6.72s9.15 5.83 23.47 5.83Zm38.49-26.97c0 3.01 2.53 5.44 5.55 5.44 3.01 0 5.54-2.43 5.54-5.44 0-3.02-2.53-5.55-5.54-5.55-3.02 0-5.55 2.53-5.55 5.55Z" style="fill:#111;fill-rule:nonzero" transform="translate(-175.5 -2214) scale(.53253)"/><path d="m922.657 5662.53 29.703-60.85h-18.399l-29.823 60.85v16.95h39.804v18.64h16.956v-18.64h9.5v-16.95h-9.5v-22.01h-16.956v22.01h-21.285Zm61.57 27.17c0 5.65 4.45 10.1 10.102 10.1s10.221-4.45 10.221-10.1c0-5.65-4.569-10.1-10.221-10.1s-10.102 4.45-10.102 10.1Zm45.693 21.65c5.29-9.62 9.38-18.16 12.39-29.34 2.89-10.59 4.21-21.41 4.21-32.11 0-10.71-1.2-21.41-4.09-32.11-3.01-11.3-7.09-19.72-12.63-29.34l-11.42 5.41c3.61 9.38 5.89 18.64 7.7 27.78 1.92 9.5 3.12 18.88 3.12 28.26 0 9.38-1.32 18.76-3.24 28.26-1.81 9.26-3.97 18.52-7.58 27.9l11.54 5.29Zm-93.148 114.13-23.477-65.2h-9.157l28.055 77.92h9.157l23.478-65.19 23.477 65.19h9.157l28.058-77.92h-9.16l-23.477 65.2-23.477-65.2h-9.157l-23.477 65.2Zm134.048-16.2v1.46c-.39 11.6-9.55 20.95-20.95 20.95-11.59 0-20.95-9.75-20.95-21.63 0-11.89 9.36-21.73 20.95-21.73 11.4 0 20.56 9.35 20.95 20.95Zm0 18.03v10.89h7.98v-56.39h-7.98v11.07c-4.09-7.57-11.2-12.53-20.95-12.53-15.98 0-28.92 13.34-28.92 29.71s12.94 29.6 28.92 29.6c9.75 0 16.86-4.86 20.95-12.35Zm28.24-45.5h-7.98v56.39h7.98v-56.39Zm-3.99-21.53c-3.01 0-5.54 2.53-5.54 5.55s2.53 5.55 5.54 5.55c3.02 0 5.55-2.53 5.55-5.55s-2.53-5.55-5.55-5.55Zm32.82 21.53v-14.9l-7.97 1.36v13.54h-9.16v7.98h9.16v32.84c0 9.45 7.59 17.03 17.03 17.03 3.8 0 9.94-1.45 9.94-1.45l-1.56-7.2s-3.41.68-8.38.68c-4.96 0-9.06-4-9.06-8.96v-32.94h17.05v-7.98h-17.05Zm68.6-8.48v8.29h-7.8v8.07h7.8v48.51h8.07v-48.51h13.93v-8.07h-13.93v-8.29c0-4.97 3.9-8.87 8.87-8.87 4.28 0 6.23.29 6.23.29l.88-7.29s-2.83-1.07-7.11-1.07c-9.35 0-16.94 7.58-16.94 16.94Zm51.53 15c11.69 0 21.14 9.74 21.14 21.73 0 11.98-9.45 21.63-21.14 21.63-11.7 0-21.15-9.65-21.15-21.63 0-11.99 9.45-21.73 21.15-21.73Zm0-7.98c-15.99 0-28.93 13.34-28.93 29.71s12.94 29.6 28.93 29.6c15.98 0 28.92-13.23 28.92-29.6s-12.94-29.71-28.92-29.71Zm47.33 5.16v-5.26h-8.17v57.95h8.17l.1-37.59c0-7.51 6.04-13.55 13.54-13.55 2.53 0 7.21.59 7.21.59v-8.08s-4.77-.78-7.21-.78c-6.14 0-10.71 2.63-13.64 6.72Zm149.15 52.8v-78.13h-14.51l-28.74 54.26-28.74-54.26h-14.61v78.13h13.64v-52.32l22.4 42.19h14.62l22.3-42.19v52.32h13.64Zm26.21-56.6h-13.64v56.6h13.64v-56.6Zm-6.82-21.53c-4.58 0-8.19 3.7-8.19 8.18 0 4.58 3.61 8.28 8.19 8.28s8.28-3.7 8.28-8.28c0-4.48-3.7-8.18-8.28-8.18Zm48.12 34.19c6.14 0 10.62 4.29 10.62 10.82v33.02h14.03v-34.87c.19-13.06-9.16-22.99-22.31-22.99-7.79 0-13.35 3.41-17.34 8.96v-7.5h-13.64v56.4h13.64v-28.25c0-8.09 6.92-15.59 15-15.59Zm37.41 24.94c0 11.2 9.16 20.36 20.36 20.36 4.29 0 11.2-1.27 11.2-1.27l-1.65-12.95s-5.85.68-9.55.68c-3.7 0-6.72-3.12-6.72-6.82v-23.96h16.27v-13.54h-16.27v-15l-13.64 1.46v13.54h-7.7v13.54h7.7v23.96Zm94.49-51.34s-7.69-9.15-25.81-9.15c-17.34 0-27.96 11.39-27.96 23.47 0 1.66.19 3.22.58 4.87 2.54 10.43 10.91 14.62 21.14 17.15 4.39 1.07 9.16 1.95 13.35 3.31 4.09 1.37 7.79 3.31 8.47 8.38.1.39.1.68.1 1.07 0 5.46-6.43 9.45-15 9.45-11.98 0-22.21-6.33-22.21-6.33l-6.92 11.2s13.35 8.28 29.13 8.28c17.44 0 28.15-11.1 28.15-22.79 0-.88-.09-1.76-.19-2.63-2.05-14.42-13.54-18.71-26.11-21.43-3.6-.79-7.21-1.47-10.42-2.64-3.12-1.16-5.75-2.63-6.63-6.13-.19-.69-.19-1.27-.19-1.85 0-5.65 6.23-10.23 14.71-10.23 11.01 0 15.97 4.77 15.97 4.77l9.84-8.77Zm54.75 40.92v2.24c-.58 8.28-7.11 15-15.29 15-8.58 0-15.3-7.31-15.3-16.07 0-8.77 6.72-16.08 15.3-16.08 8.18 0 14.71 6.63 15.29 14.91Zm0 24.45v4.97h13.64v-56.5h-13.64v4.97c-3.51-4-8.48-6.43-15.29-6.43-15.98 0-28.94 13.34-28.94 29.71 0 16.36 12.96 29.61 28.94 29.61 6.81 0 11.78-2.34 15.29-6.33Zm52.99-38.97c6.14 0 10.62 4.29 10.62 10.82v33.02h14.03v-34.87c.2-13.06-9.16-22.99-22.31-22.99-7.79 0-13.34 3.41-17.34 8.96v-7.5h-13.64v56.4h13.64v-28.25c0-8.09 6.92-15.59 15-15.59Zm78.23-7.98s-7.89-6.04-21.33-6.04c-14.23 0-22.61 9.05-22.61 18.21 0 1.27.2 2.54.49 3.8 2.05 7.79 8.77 11.4 16.95 13.25 3.22.68 6.72 1.17 9.74 2.14 2.34.69 4.58 1.46 4.97 4.09.1.98-.68 1.66-1.56 2.34-2.04 1.56-4.96 2.34-8.47 2.34-8.87 0-17.05-4.19-17.05-4.19l-6.04 11.69s11.11 5.65 23.09 5.65c8.47 0 15.2-3.12 18.99-7.31 2.83-3.01 4.29-6.62 4.29-10.32 0-.68-.1-1.46-.2-2.14-1.36-9.06-7.88-13.16-16.07-15.3-3.99-1.07-8.47-1.56-12.18-2.82-1.65-.59-3.21-.98-3.7-2.73-.09-.2-.09-.39-.09-.58 0-.88.58-1.66 1.26-2.34 1.76-1.66 4.68-2.63 8.19-2.63 8.47 0 13.44 3.5 13.44 3.5l7.89-10.61Zm113 52.01v-78.12h-13.64v58.16l-40.04-58.16h-16.56v78.12h13.64v-58.25l40.14 58.25h16.46Zm52.22-33.41h-26.89c.78-2.34 1.95-4.58 3.7-6.33 3.22-3.22 6.92-4.77 10.52-4.77 1.66 0 3.31.29 4.78.97 3.79 1.66 6.81 5.26 7.89 10.13Zm-32.74-15.88c-5.26 5.55-8.18 13.06-8.18 20.85 0 16.46 12.86 29.71 28.84 29.71 15.97 0 22.21-5.84 22.21-5.84l-5.85-11.21s-7.79 3.32-16.36 3.32c-6.92 0-12.76-4.58-14.81-11.01h40.91v-5.94c-.09-13.45-7.4-22.7-16.56-26.6-3.21-1.36-6.72-2.04-10.23-2.04-6.81 0-13.93 2.63-19.97 8.67v.09Zm74.82 9.26-11.2-16.56h-15.88l19.19 28.25-19.19 28.25h15.78l11.3-16.66 11.3 16.66h15.78l-19.19-28.35 19.19-28.15h-15.78l-11.3 16.56Zm38.97 20.94c0 11.2 9.15 20.36 20.36 20.36 4.28 0 11.2-1.27 11.2-1.27l-1.66-12.95s-5.84.68-9.54.68c-3.71 0-6.73-3.12-6.73-6.82v-23.96h16.27v-13.54h-16.27v-15l-13.63 1.46v13.54h-7.7v13.54h7.7v23.96Zm42.67 14.91c0 3.01 2.53 5.44 5.55 5.44 3.01 0 5.54-2.43 5.54-5.44 0-3.02-2.53-5.55-5.54-5.55-3.02 0-5.55 2.53-5.55 5.55Z" style="fill:#111;fill-rule:nonzero" transform="translate(479.77 -2214) scale(.53253)"/><path d="M1198.64 873.533c.67-.341 1.35-.687 2.02-1.039 13.09-6.889 26.1-14.091 39.69-19.966 2.64-1.14 5.32-2.325 8.01-3.388 1.2-.474 2.4-.947 3.6-1.414.17-.064 1.66-.625 1.96-.732 2.97-1.057 4.46 1.927 4.48 1.987.26.655.42 1.731.28 2.989-.18 1.701-.87 3.932-1.29 4.78-1.51 3.041-3.16 6.006-4.76 8.997-4.73 8.868-11.77 16.27-18.36 23.753-1.36 1.537-2.71 3.073-4.07 4.609 25.21-8.13 46.33-21.894 70.51-35.475 4.53-2.546 9-5.194 13.48-7.843 1.81-1.073 4.68-3.396 6.74-3.894 1.51-.367 2.46.162 3.03.574.84.609 1.41 1.485 1.47 2.733.02.457-.04 1.179-.46 1.992-.19.368-.84 1.318-.93 1.463-.48.973-.98 1.957-1.53 2.891-3.1 5.284-6.89 10.727-9.67 16.267a112.16 112.16 0 0 0-1.67 3.48 5.73 5.73 0 0 1-.24.437c1.5.616 3.24 1.023 4.47.788 23.8-4.57 30.98-10.516 57.46-23.665 1.82-.903 3.61-1.728 5.48-2.565.27-.149 1.04-.567 1.25-.634.42-.134.79-.168 1.07-.17 1.76-.01 2.73.923 3.25 2.109.23.529.65 1.58-.11 3.068-3.25 6.314-7.52 11.824-12.27 16.948 8.1-4.513 16.18-9.086 24.32-13.549 5.52-3.031 11.05-6.049 16.57-9.087.77-.426 2.03-1.377 3.15-1.944.94-.479 1.86-.745 2.61-.797 1.33-.094 2.17.4 2.75.91a3.55 3.55 0 0 1 1.18 2.079c.1.545.11 1.309-.22 2.178-.25.669-.98 1.755-1.32 2.318-1.57 2.535-5.54 8.597-8.19 12.324-6.14 8.636-13.95 16.003-21.52 23.363-.25.246-.51.493-.76.74 1.8-.85 3.5-1.739 4.96-2.5 14.36-7.452 27.63-16.795 41.96-24.228a924.59 924.59 0 0 1 23.62-11.849c2.76-1.338 5.62-2.696 8.5-3.752 1.08-.392 2.16-.763 3.23-1.139.28-.145.94-.485 1.2-.567.7-.216 1.3-.202 1.77-.119.85.149 1.51.548 2.03 1.124.5.547.99 1.346.93 2.619-.06 1.146-.46 2.559-1.14 4.021-1.24 2.663-3.43 5.615-4.81 7.071-7.66 8.118-15.81 15.447-24.21 22.78-1.04.908-2.1 1.808-3.14 2.721.63-.3 1.28-.596 1.95-.882 14.58-6.248 29.1-12.642 43.61-19.041 5.42-2.389 12.05-6.703 17.84-7.068 1.23-.078 2.04.378 2.6.861.57.485.98 1.114 1.17 1.913.12.509.16 1.214-.09 2.026-.11.33-.52 1.135-.62 1.333-.31.769-.55 1.567-.94 2.297-1.09 2.041-2.49 4.354-3.83 6.4-4.03 6.147-9.12 10.987-14.24 16.296a1267.13 1267.13 0 0 0-4.27 4.439c2.15-.546 4.19-1.211 5.83-1.549 7.81-1.613 15.22-4.985 22.5-8.092 3.68-1.569 7.35-3.161 11.02-4.743 5.8-2.501 12.48-6.422 18.79-7.027.98-.093 1.83.182 2.56.778.25.21 1.66 1.319 1.2 3.498-.1.444-.84 2.696-.88 2.782-.76 2.06-1.62 4.188-2.9 5.992-1.75 2.468-3.42 5.024-5.49 7.232a159.607 159.607 0 0 1-3.28 3.363c.75-.371 1.42-.7 1.98-.963 14.9-6.998 29.29-14.578 43.62-22.664 4.14-2.335 8.33-4.571 12.52-6.81 1.32-.705 2.64-1.409 3.98-2.063.55-.266 1.65-1.033 2.24-1.334.78-.395 1.44-.491 1.79-.505 2.03-.078 3.03 1.026 3.5 2.356.19.524.55 1.648-.36 3.169-9.67 16.142-23.3 28.888-34.69 43.716a3.5 3.5 0 1 1-5.55-4.265c8.44-10.989 18.16-20.797 26.51-31.75a370.833 370.833 0 0 0-6.5 3.582c-14.49 8.173-29.03 15.831-44.08 22.903-2.96 1.391-8.94 4.529-12.96 6.242-2.43 1.033-4.41 1.485-5.27 1.428-2.35-.153-3.3-1.547-3.57-3.104-.12-.688-.15-2.162 1.37-3.954 4.21-4.961 9.2-9.396 13.64-14.137 1.86-1.977 3.33-4.285 4.9-6.495.1-.145.2-.292.29-.443-3.65 1.423-7.27 3.468-10.59 4.902-3.68 1.585-7.36 3.18-11.04 4.752-7.71 3.288-15.57 6.803-23.84 8.509-4.36.901-11.15 3.299-16.51 2.217-1.39-.282-2.06-1.052-2.45-1.69-.46-.755-.65-1.624-.45-2.614.1-.502.37-1.201.99-1.884.3-.341 1.27-1.135 1.42-1.256.71-.798 1.47-1.556 2.21-2.326 2.26-2.351 4.52-4.707 6.78-7.053 4.81-4.988 9.64-9.495 13.42-15.269.39-.588.78-1.2 1.16-1.82-.1.049-.2.099-.31.148-2.88 1.39-5.72 3.016-8.29 4.149-14.54 6.409-29.08 12.813-43.68 19.07-6.11 2.619-11.15 5.656-17.66 5.614-1.67-.011-2.48-.81-2.92-1.347-.72-.874-1.07-1.968-.67-3.318.14-.446.46-1.142 1.15-1.826.53-.516 1.73-1.316 2.21-1.79 1.64-1.612 3.27-3.235 4.93-4.836 2.16-2.101 4.52-4.059 6.79-6.043 8.13-7.102 16.04-14.196 23.47-22.042-1.12.515-2.23 1.049-3.32 1.578a901.154 901.154 0 0 0-23.44 11.762c-14.34 7.433-27.61 16.775-41.96 24.227-5.16 2.677-12.85 6.4-18.8 6.583-1.49.046-2.33-.597-2.85-1.143-.64-.679-1.02-1.54-.99-2.625.02-.519.17-1.28.69-2.089.4-.609 1.37-1.586 1.81-2.088.67-.755 1.34-1.5 2.02-2.243 1.84-2.028 3.85-3.959 5.81-5.869 7.28-7.066 14.8-14.108 20.69-22.399.64-.897 1.36-1.934 2.1-3.024-3.18 1.745-6.37 3.489-9.56 5.237-16.03 8.792-31.83 18.008-48.09 26.368-1.58.81-2.6.275-2.85.183a3.404 3.404 0 0 1-1.72-1.374c-.41-.621-1.25-2.187.14-4.025.08-.102.71-.696.97-.917.94-.819 1.89-1.636 2.83-2.455a200.12 200.12 0 0 0 5.3-4.724c5.34-4.942 10.61-9.945 15.1-15.578-23.24 11.773-31.25 17.315-54.17 21.718-3.53.677-9.55-1.254-12.28-3.307-1.66-1.248-2.06-2.851-1.46-4.732.2-.614.59-1.325 1.1-2.021.25-.345.59-.671.73-.977.57-1.238 1.16-2.468 1.78-3.687 1.61-3.204 3.54-6.379 5.49-9.511a481.048 481.048 0 0 1-7.95 4.575c-28.25 15.867-52.45 31.859-83.45 39.321-1.72.412-2.68-.259-3.15-.613-1.08-.818-1.78-2.04-1.26-3.844.11-.362.37-.994.97-1.658.44-.491 1.46-1.331 1.86-1.788.7-.808 1.4-1.613 2.1-2.415 2.6-2.962 5.21-5.91 7.82-8.867 6.23-7.08 12.96-14.033 17.44-22.424 1.14-2.126 2.3-4.237 3.42-6.374-2.27.922-4.53 1.917-6.75 2.878-13.43 5.804-26.28 12.929-39.21 19.735-2.5 1.313-5.03 2.539-7.55 3.79-3.73 1.845-7.44 3.711-11.17 5.545-.26.129-.9.395-1.12.451-.46.115-.83.119-1.09.104-1.44-.085-2.24-.845-2.71-1.559a3.41 3.41 0 0 1-.59-1.998c.01-.422.01-1.322.93-2.328 15.64-17.178 31.97-34.109 48.92-50.019a3.493 3.493 0 0 1 4.94.156 3.51 3.51 0 0 1-.15 4.947c-12.23 11.482-24.14 23.499-35.69 35.756Z" style="fill:#4b5" transform="translate(.311 -3.361)"/><path d="M1303.7 806.49c.33 4.79.21 9.605-.86 13.928a4.498 4.498 0 1 1-8.73-2.168c1.81-7.297.22-16.197-.97-23.422a4.502 4.502 0 0 1 3.71-5.168 4.497 4.497 0 0 1 5.17 3.712c.1.595.2 1.2.3 1.814a31.56 31.56 0 0 1 2.62-2.09c2.84-2.007 5.95-3.334 9.16-3.469 2.16-.091 4.2.63 5.99 1.91 1.92 1.376 3.54 3.452 4.62 5.205 4.11 6.671 2.55 15.824.14 22.747a4.508 4.508 0 0 1-5.73 2.771c-2.34-.816-3.59-3.382-2.77-5.727.88-2.534 1.72-5.471 1.94-8.39.17-2.354-.03-4.711-1.24-6.681-.39-.628-.89-1.348-1.49-1.973-.34-.359-.61-.892-1.08-.872-2.05.086-3.89 1.378-5.62 2.809-1.92 1.581-3.65 3.447-5.16 5.064Zm54.18 13.377c-1 .724-2.1 1.355-3.27 1.893-4.54 2.073-10.22 2.746-14.36 2.579-1.95-.078-4.34-.255-6.35-1.03-2.02-.781-3.71-2.088-4.8-4.081-.95-1.731-1.24-3.909-.83-6.252.61-3.542 2.93-7.62 4.2-9.489 7.19-10.574 17.03-14.393 29.11-10.44a4.497 4.497 0 0 1 4.41-1.292 4.508 4.508 0 0 1 3.24 5.474c-.81 3.136-2.59 7.844-3.32 12.501-.49 3.209-.76 6.481 1.54 8.484a4.495 4.495 0 0 1 .45 6.347 4.505 4.505 0 0 1-6.35.444 13.462 13.462 0 0 1-3.67-5.138Zm.73-18.321c-7.77-2.464-14.05.175-18.7 7.002-.61.899-1.61 2.544-2.28 4.282-.23.604-.42 1.583-.5 2.052.23.083.59.203.82.246.91.164 1.85.188 2.67.221 2.95.119 7.01-.293 10.24-1.771 1.52-.692 2.89-1.578 3.48-3.006a4.503 4.503 0 0 1 2.75-2.535c.37-2.213.94-4.427 1.52-6.491Zm101.3 22.885a4.51 4.51 0 0 1-2.59 2.866c-5.68 2.359-13.1 1.066-18.35-2.708-5.68-4.089-8.82-10.744-5.68-18.165 1.39-3.278 5.22-6.111 8.31-7.375 5.65-2.313 11.05-3.035 17.06-2.88.72.018 1.41.21 2.01.534a4.505 4.505 0 0 1 3.97 5.645c-.78 2.9-1.69 6.365-1.59 9.593.06 2.168.59 4.254 2.62 5.54a4.509 4.509 0 0 1 1.4 6.208 4.506 4.506 0 0 1-6.21 1.394c-.33-.21-.65-.427-.95-.652Zm-5.19-19.215c-3.31.196-6.46.828-9.71 2.159-1.19.487-2.9 1.294-3.43 2.557-1.29 3.047.31 5.673 2.65 7.352 2.77 1.993 6.64 2.949 9.64 1.703.48-.2.98-.31 1.48-.338-.84-1.99-1.23-4.172-1.3-6.447-.06-2.29.23-4.681.67-6.986Zm23.9 4.32c-.25 4.025-.66 8.041-.96 12.075a4.493 4.493 0 0 1-4.81 4.158 4.502 4.502 0 0 1-4.16-4.816c.49-6.71 1.34-13.364 1.15-20.108a4.493 4.493 0 0 1 4.36-4.629 4.498 4.498 0 0 1 4.54 3.585 63.2 63.2 0 0 1 10.87-2.844c4.45-.756 7.94-1.142 10.87.557 1.48.859 2.91 2.217 4.17 4.473.7 1.253 1.18 2.643 1.55 4.029.55 2.083.72 4.171.7 6.335-.03 2.793-.36 5.52-.9 8.261a4.498 4.498 0 0 1-5.27 3.558 4.504 4.504 0 0 1-3.56-5.275c.43-2.202.71-4.392.73-6.637.01-1.342-.05-2.641-.4-3.933-.17-.665-.37-1.345-.7-1.946-.3-.532-.51-.938-.87-1.098-.39-.175-.84-.076-1.32-.025-1.06.111-2.22.355-3.49.571-4.27.725-8.52 1.945-12.5 3.709Zm-245.37-18.923c.43-2.224.9-4.398 1.57-6.567.17-.536.47-1.838.64-2.243.23-.542.5-.92.7-1.164 1.29-1.599 2.84-1.768 3.95-1.661.92.089 1.84.426 2.68 1.226.36.343 1.19 1.108 1.4 2.831.36 2.885-.92 6.743-2.24 10.026-.72 3.972-1.1 7.996-.86 12.033l.05.517c3.27-.505 6.24-2.494 8.99-4.857 4.03-3.473 7.5-7.893 10.37-11.357 1.74-2.111 3.36-4.287 5-6.481.53-.714 1.08-1.413 1.62-2.118.23-.375.98-1.567 1.23-1.819.41-.42.83-.691 1.19-.874 1.68-.867 3.17-.617 4.44.157.71.429 1.87 1.255 2.16 3.318.34 2.369-.11 5.182-.29 7.499-.42 5.375-.9 10.742-1.31 16.118-.34 4.491.04 8.096.7 13.174a4.51 4.51 0 0 1-3.89 5.036 4.508 4.508 0 0 1-5.04-3.888c-.74-5.782-1.13-9.89-.74-15.004.2-2.636.42-5.27.64-7.905-3.62 4.383-8.07 9.646-13.14 13.268-4.41 3.152-9.29 5.092-14.49 4.831-2.15-.108-3.79-1.17-4.91-2.921-.31-.495-.57-1.086-.78-1.711-3.52 5.105-7.61 9.817-12.23 14.154a4.5 4.5 0 0 1-6.16-6.56c7.7-7.227 13.77-15.609 17.96-25.268.24-.551.51-1.154.79-1.79Zm48.39.614a4.5 4.5 0 0 1 8.92 1.194c-1.2 9.002-3.47 18.94-.74 27.872a4.5 4.5 0 0 1-2.98 5.619c-2.38.726-4.9-.611-5.62-2.986-3.11-10.155-.95-21.464.42-31.699Zm3.52-15.075a4.512 4.512 0 0 1 6.34-.634 4.503 4.503 0 0 1 .63 6.33c-.59.718-.45.542-1 1.245a4.507 4.507 0 0 1-6.32.773 4.505 4.505 0 0 1-.77-6.315c.62-.791.47-.593 1.12-1.399Zm147.26 2.544a4.494 4.494 0 0 1 0 6.363 4.498 4.498 0 0 1-6.36 0c-4.01-4.013-10.13-4.426-15.04-1.751-2 1.089-3.9 3.069-3.97 5.415-.02.82.56 1.394 1.16 1.915 1.19 1.047 2.75 1.773 4.08 2.269 3.08 1.152 6.26 1.6 8.95 2.682 3.84 1.546 6.97 4.018 8.56 9.335.55 1.81.61 3.576.54 5.468-.35 8.56-7.24 14.626-14.43 17.761-10.07 4.395-24.5 2.337-31.79-6.44a4.507 4.507 0 0 1 .59-6.335 4.494 4.494 0 0 1 6.33.589c4.86 5.852 14.56 6.87 21.28 3.939 4.2-1.834 8.83-4.87 9.03-9.877.03-.869.08-1.687-.16-2.519-.79-2.608-2.59-3.406-4.6-4.022-2.34-.72-4.93-1.209-7.45-2.152-2.77-1.033-6.01-2.797-8.16-5.219-1.88-2.108-3.01-4.673-2.92-7.662.16-5.474 3.99-10.51 8.66-13.051 8.41-4.578 18.84-3.574 25.7 3.292Zm84.15 22.725c.43.715.92 1.492 1.17 1.842 1.97 2.7 4.66 5.679 6.13 8.769 2.11 4.466 2.36 9.144-2.19 13.915-1.69 1.777-3.89 2.761-5.93 4.03a4.492 4.492 0 0 1-6.19-1.437 4.491 4.491 0 0 1 1.43-6.198c1.4-.871 3.01-1.383 4.18-2.604 1.67-1.755.89-3.474-.12-5.082-1.34-2.145-3.19-4.185-4.58-6.098-.92-1.268-2.71-3.735-3.39-5.954-.56-1.831-.51-3.594.09-5.082.26-.649.73-1.384 1.49-2.035.77-.661 2.27-1.367 2.75-1.599 3.01-1.438 6.15-2.573 9.26-3.777a4.505 4.505 0 0 1 5.82 2.571 4.51 4.51 0 0 1-2.57 5.82c-2.46.952-4.94 1.849-7.35 2.919Z" style="fill:#4b5" transform="rotate(2.369 -6363.873 9041.725) scale(.77796)"/><path d="M905.34 5698h62.172v-16.84h-36.317c12.025-9.26 20.443-17.07 26.095-24.17 7.456-9.38 10.462-17.8 10.462-26.21 0-10.22-3.727-17.68-9.379-22.73-5.893-5.29-14.07-8.06-22.608-8.06-8.779 0-16.836 3.49-22.608 9.5-5.532 5.66-9.019 13.59-9.019 22.61h16.715c0-4.33 1.684-8.06 4.329-10.82 2.646-2.77 6.494-4.45 10.583-4.45 4.209 0 8.297 1.08 11.304 3.73 2.525 2.28 3.968 5.65 3.968 10.22 0 6.73-3.608 13.23-11.184 21.4-7.576 8.18-18.759 17.56-34.513 28.98V5698Zm76.242-8.3c0 5.65 4.449 10.1 10.101 10.1 5.652 0 10.217-4.45 10.217-10.1 0-5.65-4.565-10.1-10.217-10.1s-10.101 4.45-10.101 10.1Zm45.698 21.65c5.29-9.62 9.38-18.16 12.38-29.34 2.89-10.59 4.21-21.41 4.21-32.11 0-10.71-1.2-21.41-4.08-32.11-3.01-11.3-7.1-19.72-12.63-29.34l-11.43 5.41c3.61 9.38 5.9 18.64 7.7 27.78 1.92 9.5 3.13 18.88 3.13 28.26 0 9.38-1.33 18.76-3.25 28.26-1.8 9.26-3.97 18.52-7.58 27.9l11.55 5.29Zm-115.16 88.87v-39.94h-7.976v77.92h7.976v-26.23l11.592-12.43 30.686 38.66h10.229l-35.362-44.59 30.978-33.33h-10.911l-37.212 39.94Z" style="fill:#111;fill-rule:nonzero" transform="translate(55.26 -2451.98) scale(.53253)"/><path d="M1007.1 5805.68h-37.408c.78-4.29 2.728-8.29 5.748-11.41 3.897-3.89 9.06-6.04 14.223-6.04 3.409 0 6.721.97 9.546 2.83 4.191 2.73 7.111 7.6 7.891 14.62Zm-37.31-16.96c-5.35 5.55-8.268 13.16-8.268 21.05 0 16.56 11.97 29.89 27.946 29.89 15.972 0 23.382-6.22 23.382-6.22l-5.07-6.53s-6.62 4.78-18.312 4.78c-10.424 0-18.217-7.7-19.873-17.94h45.685v-4.86c-.19-12.18-5.16-20.07-11.69-24.45-4.088-2.73-8.959-4.09-13.83-4.09-7.209 0-14.612 2.82-19.97 8.37Zm100.83 16.96h-37.41c.78-4.29 2.72-8.29 5.74-11.41 3.9-3.89 9.07-6.04 14.23-6.04 3.41 0 6.72.97 9.54 2.83 4.19 2.73 7.12 7.6 7.9 14.62Zm-37.31-16.96c-5.36 5.55-8.27 13.16-8.27 21.05 0 16.56 11.97 29.89 27.94 29.89 15.98 0 23.38-6.22 23.38-6.22l-5.06-6.53s-6.63 4.78-18.32 4.78c-10.42 0-18.21-7.7-19.87-17.94h45.69v-4.86c-.2-12.18-5.17-20.07-11.69-24.45-4.09-2.73-8.96-4.09-13.83-4.09-7.21 0-14.62 2.82-19.97 8.37Zm63.71 22.02v-1.46c.38-11.6 9.54-20.95 20.94-20.95 11.6 0 20.96 9.84 20.96 21.73 0 11.88-9.36 21.63-20.96 21.63-11.4 0-20.56-9.35-20.94-20.95Zm0-17.93v-11h-7.98v78.02h7.98v-32.52c4.09 7.49 11.2 12.35 20.94 12.35 15.99 0 28.93-13.22 28.93-29.55 0-16.42-12.94-29.76-28.93-29.76-9.74 0-16.85 4.96-20.94 12.46Zm100.72-11h-7.97v56.39h7.97v-56.39Zm-3.99-21.53c-3.01 0-5.54 2.53-5.54 5.55s2.53 5.55 5.54 5.55c3.02 0 5.55-2.53 5.55-5.55s-2.53-5.55-5.55-5.55Zm32.83 21.53v-14.9l-7.98 1.36v13.54h-9.16v7.98h9.16v32.84c0 9.45 7.59 17.03 17.04 17.03 3.8 0 9.93-1.45 9.93-1.45l-1.55-7.2s-3.41.68-8.38.68c-4.97 0-9.06-4-9.06-8.96v-32.94h17.04v-7.98h-17.04Zm110.19 27.47v1.46c-.39 11.6-9.55 20.95-20.95 20.95-11.6 0-20.95-9.75-20.95-21.63 0-11.89 9.35-21.73 20.95-21.73 11.4 0 20.56 9.35 20.95 20.95Zm0 18.03v10.89h7.97v-56.39h-7.97v11.07c-4.1-7.57-11.21-12.53-20.95-12.53-15.98 0-28.93 13.34-28.93 29.71s12.95 29.6 28.93 29.6c9.74 0 16.85-4.86 20.95-12.35Zm59.32-45.5-15.78 43.66-15.69-43.66h-9.16l20.27 56.39h9.15l15.78-43.75 15.69 43.75h9.16l20.36-56.39h-9.16l-15.78 43.66-15.69-43.66h-9.15Zm103.07 27.47v1.46c-.39 11.6-9.55 20.95-20.95 20.95-11.6 0-20.95-9.75-20.95-21.63 0-11.89 9.35-21.73 20.95-21.73 11.4 0 20.56 9.35 20.95 20.95Zm0 18.03v10.89h7.97v-56.39h-7.97v11.07c-4.09-7.57-11.21-12.53-20.95-12.53-15.98 0-28.93 13.34-28.93 29.71s12.95 29.6 28.93 29.6c9.74 0 16.86-4.86 20.95-12.35Zm46.26.45-20.06-45.95h-9.16l24.65 56.45-4.78 10.78c-1.17 2.23-3.5 3.79-6.13 3.79-1.85 0-3.71-.68-4.97-2.04l-5.94 5.83c2.92 2.92 6.82 4.57 10.91 4.57 6.04 0 11.39-3.5 13.93-8.85l30.78-70.53h-9.16l-20.07 45.95Zm78.72-54.43v8.29h-7.79v8.07h7.79v48.51h8.08v-48.51h13.93v-8.07h-13.93v-8.29c0-4.97 3.89-8.87 8.86-8.87 4.29 0 6.24.29 6.24.29l.87-7.29s-2.82-1.07-7.11-1.07c-9.35 0-16.94 7.58-16.94 16.94Zm40.03 12.18v-5.26H1656v57.95h8.17l.1-37.59c0-7.51 6.04-13.55 13.54-13.55 2.53 0 7.21.59 7.21.59v-8.08s-4.78-.78-7.21-.78c-6.14 0-10.72 2.63-13.64 6.72Zm51.54 2.82c11.69 0 21.14 9.74 21.14 21.73 0 11.98-9.45 21.63-21.14 21.63-11.7 0-21.15-9.65-21.15-21.63 0-11.99 9.45-21.73 21.15-21.73Zm0-7.98c-15.98 0-28.93 13.34-28.93 29.71s12.95 29.6 28.93 29.6 28.92-13.23 28.92-29.6-12.94-29.71-28.92-29.71Zm85.33 13.92c-2.92-8.18-10.51-13.92-19.97-13.92-8.28 0-14.52 4.38-18.22 11.09v-9.63h-7.97v56.39h7.97v-31.98c0-2.34.58-4.67 1.56-6.81 2.83-6.31 9.06-10.79 15.89-10.79 7.79 0 13.64 5.85 14.03 13.54v36.04h8.07v-32.05c0-2.33.49-4.67 1.46-6.81 2.83-6.24 9.07-10.72 15.89-10.72 7.79 0 13.74 5.85 14.13 13.54v36.04h7.98v-35.84c.09-12.38-8.96-22.01-21.24-22.01-9.45 0-16.07 5.74-19.58 13.92Zm90.59-35.45-7.97 1.37v78.01h7.97v-79.38Zm38.68 29.51c11.7 0 21.15 9.74 21.15 21.73 0 11.98-9.45 21.63-21.15 21.63-11.69 0-21.14-9.65-21.14-21.63 0-11.99 9.45-21.73 21.14-21.73Zm0-7.98c-15.98 0-28.92 13.34-28.92 29.71s12.94 29.6 28.92 29.6c15.99 0 28.93-13.23 28.93-29.6s-12.94-29.71-28.93-29.71Zm47.15 11.18v-9.72h-7.98v56.39h7.98v-31.98c0-2.34.58-4.67 1.56-6.81 2.82-6.31 9.06-10.79 15.88-10.79 7.8 0 13.65 5.85 14.03 13.54v36.04h8.08v-35.84c.1-12.38-9.05-22.01-21.33-22.01-8.28 0-14.52 4.38-18.22 11.09v.09Zm94.02 14.24v3.22c-.78 9.74-8.68 17.54-18.42 17.54-10.23 0-18.42-8.58-18.42-19.1 0-10.53 8.19-19.2 18.42-19.2 9.74 0 17.64 7.8 18.42 17.54Zm-19.79 55.42c16.76 0 27.76-10.41 27.76-28.05v-51.33h-7.97v9.14c-3.71-6.51-9.94-10.6-18.42-10.6-14.62 0-26.4 12.07-26.4 27.08 0 15 11.78 27.07 26.4 27.07 8.48 0 14.71-4.08 18.42-10.51v10.03c-.39 12.38-7.8 19.2-19.79 19.2-11.69 0-19.19-4.58-19.19-4.58l-4.28 6.72s9.15 5.83 23.47 5.83Zm87.19-79.38v-14.9l-7.98 1.36v13.54h-9.16v7.98h9.16v32.84c0 9.45 7.59 17.03 17.03 17.03 3.8 0 9.94-1.45 9.94-1.45l-1.56-7.2s-3.41.68-8.38.68c-4.96 0-9.05-4-9.05-8.96v-32.94h17.04v-7.98h-17.04Zm69.45 23.87h-37.4c.77-4.29 2.72-8.29 5.74-11.41 3.9-3.89 9.06-6.04 14.22-6.04 3.41 0 6.73.97 9.55 2.83 4.19 2.73 7.11 7.6 7.89 14.62Zm-37.31-16.96c-5.35 5.55-8.27 13.16-8.27 21.05 0 16.56 11.97 29.89 27.95 29.89 15.98 0 23.38-6.22 23.38-6.22l-5.07-6.53s-6.62 4.78-18.31 4.78c-10.42 0-18.22-7.7-19.87-17.94h45.69v-4.86c-.2-12.18-5.17-20.07-11.69-24.45-4.1-2.73-8.97-4.09-13.84-4.09-7.21 0-14.61 2.82-19.97 8.37Zm70.93 14.25-14.52-21.16h-9.84l19.49 28.25-19.39 28.14h9.74l14.52-21.06 14.51 21.06h9.84l-19.48-28.14 19.48-28.25h-9.74l-14.61 21.16Zm48.11-21.16v-14.9l-7.97 1.36v13.54h-9.16v7.98h9.16v32.84c0 9.45 7.59 17.03 17.03 17.03 3.8 0 9.94-1.45 9.94-1.45l-1.56-7.2s-3.41.68-8.38.68c-4.96 0-9.06-4-9.06-8.96v-32.94h17.05v-7.98h-17.05Zm68.78 28.93v-1.46c.39-11.6 9.55-20.95 20.95-20.95 11.6 0 20.95 9.84 20.95 21.73 0 11.88-9.35 21.63-20.95 21.63-11.4 0-20.56-9.35-20.95-20.95Zm0-17.93v-11h-7.98v78.02h7.98v-32.52c4.09 7.49 11.21 12.35 20.95 12.35 15.98 0 28.93-13.22 28.93-29.55 0-16.42-12.95-29.76-28.93-29.76-9.74 0-16.86 4.96-20.95 12.46Zm109.02 16.47v1.46c-.39 11.6-9.55 20.95-20.95 20.95-11.6 0-20.95-9.75-20.95-21.63 0-11.89 9.35-21.73 20.95-21.73 11.4 0 20.56 9.35 20.95 20.95Zm0 18.03v10.89h7.98v-56.39h-7.98v11.07c-4.09-7.57-11.21-12.53-20.95-12.53-15.98 0-28.93 13.34-28.93 29.71s12.95 29.6 28.93 29.6c9.74 0 16.86-4.86 20.95-12.35Zm26.88-41.8v-5.26h-8.18v57.95h8.18l.09-37.59c0-7.51 6.04-13.55 13.54-13.55 2.54 0 7.21.59 7.21.59v-8.08s-4.77-.78-7.21-.78c-6.13 0-10.71 2.63-13.63 6.72Zm67.32 23.77v1.46c-.39 11.6-9.55 20.95-20.95 20.95-11.6 0-20.95-9.75-20.95-21.63 0-11.89 9.35-21.73 20.95-21.73 11.4 0 20.56 9.35 20.95 20.95Zm0 18.03v10.89h7.98v-56.39h-7.98v11.07c-4.09-7.57-11.2-12.53-20.95-12.53-15.98 0-28.93 13.34-28.93 29.71s12.95 29.6 28.93 29.6c9.75 0 16.86-4.86 20.95-12.35Zm63.03-21.54v3.22c-.78 9.74-8.67 17.54-18.42 17.54-10.23 0-18.42-8.58-18.42-19.1 0-10.53 8.19-19.2 18.42-19.2 9.75 0 17.64 7.8 18.42 17.54Zm-19.78 55.42c16.76 0 27.76-10.41 27.76-28.05v-51.33h-7.98v9.14c-3.7-6.51-9.94-10.6-18.42-10.6-14.62 0-26.39 12.07-26.39 27.08 0 15 11.77 27.07 26.39 27.07 8.48 0 14.72-4.08 18.42-10.51v10.03c-.39 12.38-7.8 19.2-19.78 19.2-11.7 0-19.2-4.58-19.2-4.58l-4.28 6.72s9.15 5.83 23.48 5.83Zm46.65-75.68v-5.26h-8.17v57.95h8.17l.1-37.59c0-7.51 6.04-13.55 13.54-13.55 2.54 0 7.21.59 7.21.59v-8.08s-4.77-.78-7.21-.78c-6.13 0-10.71 2.63-13.64 6.72Zm67.33 23.77v1.46c-.39 11.6-9.55 20.95-20.95 20.95-11.6 0-20.95-9.75-20.95-21.63 0-11.89 9.35-21.73 20.95-21.73 11.4 0 20.56 9.35 20.95 20.95Zm0 18.03v10.89h7.98v-56.39h-7.98v11.07c-4.09-7.57-11.21-12.53-20.95-12.53-15.98 0-28.93 13.34-28.93 29.71s12.95 29.6 28.93 29.6c9.74 0 16.86-4.86 20.95-12.35Zm26.68-16.57v-1.46c.39-11.6 9.55-20.95 20.95-20.95 11.6 0 20.95 9.84 20.95 21.73 0 11.88-9.35 21.63-20.95 21.63-11.4 0-20.56-9.35-20.95-20.95Zm0-17.93v-11h-7.98v78.02h7.98v-32.52c4.09 7.49 11.21 12.35 20.95 12.35 15.98 0 28.93-13.22 28.93-29.55 0-16.42-12.95-29.76-28.93-29.76-9.74 0-16.86 4.96-20.95 12.46Zm67.61-1.27v-31.26h-7.98v77.92h7.98v-31.95c0-2.34.48-4.67 1.46-6.82 2.82-6.23 9.06-10.71 15.88-10.71 7.8 0 13.65 5.84 14.04 13.54v35.94h8.07v-35.75h-.1c.1-12.37-8.85-22-21.13-22-8.28 0-14.52 4.38-18.22 11.09Zm90.79-5.84s-5.64-6.91-19.19-6.91c-12.86 0-20.74 8.56-20.74 17.43 0 1.17.1 2.34.39 3.51 1.85 7.7 7.97 10.82 15.38 12.67 6.82 1.85 15.89 2.04 16.96 9.74v.68c0 1.95-.97 3.8-2.63 5.17-2.34 2.04-5.95 3.21-10.14 3.21-9.45 0-17.04-4.97-17.04-4.97l-4.67 7.21s9.73 6.22 21.71 6.22c12.97 0 21.33-8.17 21.33-16.84 0-.58 0-1.26-.1-1.85-1.45-10.72-9.82-13.84-18.99-15.88-5.45-1.17-12.18-1.95-13.44-7.41-.1-.58-.2-1.07-.2-1.65 0-4.78 5.07-8.68 12.18-8.68 8.87 0 12.87 4 12.87 4l6.32-5.65Zm11.6 48.52c0 3.01 2.53 5.44 5.55 5.44 3.01 0 5.55-2.43 5.55-5.44 0-3.02-2.54-5.55-5.55-5.55-3.02 0-5.55 2.53-5.55 5.55Z" style="fill:#111;fill-rule:nonzero" transform="translate(55.26 -2451.98) scale(.53253)"/><path d="M1152.99 5849.74c1.49-.12 2.66-3.38 2.61-7.27-.04-3.89-1.29-6.95-2.77-6.83-1.49.12-2.66 3.37-2.61 7.26.05 3.89 1.29 6.95 2.77 6.84Zm-16.31-.03c1.48.12 2.73-2.94 2.77-6.83.05-3.89-1.12-7.15-2.6-7.27-1.49-.12-2.73 2.94-2.78 6.83-.04 3.89 1.12 7.15 2.61 7.27Zm32.59-2.59c1.48-.35 2.57-3.79 2.44-7.67-.14-3.87-1.45-6.73-2.93-6.37-1.48.36-2.57 3.79-2.43 7.67.13 3.87 1.45 6.73 2.92 6.37Zm-48.87-.07c1.48.36 2.79-2.49 2.93-6.37.14-3.88-.95-7.32-2.43-7.68-1.48-.36-2.79 2.49-2.93 6.37-.14 3.87.95 7.31 2.43 7.68Zm65.06-5.16c1.47-.59 2.48-4.2 2.25-8.05-.22-3.85-1.6-6.48-3.07-5.89-1.47.6-2.48 4.2-2.25 8.05.23 3.85 1.61 6.49 3.07 5.89Zm-81.25-.13c1.47.6 2.85-2.04 3.08-5.88.23-3.85-.78-7.46-2.25-8.06-1.47-.6-2.84 2.04-3.07 5.88-.23 3.85.77 7.46 2.24 8.06Zm97.29-7.72c1.45-.84 2.37-4.6 2.05-8.4-.31-3.8-1.75-6.21-3.2-5.38-1.45.84-2.37 4.6-2.05 8.4.31 3.8 1.75 6.21 3.2 5.38Zm-113.32-.19c1.45.84 2.89-1.56 3.21-5.36.32-3.8-.6-7.57-2.05-8.41-1.45-.84-2.89 1.57-3.21 5.37-.32 3.8.6 7.57 2.05 8.4Zm129.14-10.31c1.43-1.07 2.25-4.98 1.84-8.72-.41-3.75-1.9-5.91-3.33-4.83-1.43 1.08-2.25 4.99-1.84 8.73.41 3.74 1.9 5.9 3.33 4.82Zm-144.96-.23c1.43 1.08 2.92-1.08 3.34-4.82.41-3.74-.41-7.65-1.84-8.73-1.43-1.09-2.92 1.07-3.33 4.81-.42 3.74.4 7.65 1.83 8.74Zm160.49-13.03c1.4-1.34 2.12-5.4 1.6-9.05-.51-3.66-2.06-5.54-3.45-4.2-1.39 1.34-2.11 5.4-1.6 9.05.51 3.66 2.06 5.54 3.45 4.2Zm-176.01-.3c1.39 1.34 2.94-.53 3.45-4.18.52-3.65-.2-7.71-1.59-9.06-1.4-1.34-2.94.53-3.46 4.18-.51 3.65.2 7.71 1.6 9.06Zm-15.16-16.83c1.32 1.77 2.95.39 3.62-3.07.68-3.47.15-7.72-1.17-9.49-1.33-1.77-2.95-.39-3.62 3.07-.68 3.47-.15 7.72 1.17 9.49Zm-186.881-15.99c1.394-1.34 2.109-5.4 1.596-9.05-.513-3.66-2.061-5.53-3.456-4.19-1.394 1.35-2.109 5.4-1.596 9.06.513 3.65 2.061 5.52 3.456 4.18Zm172.301-.1c1.4 1.35 2.94-.53 3.46-4.18.51-3.66-.21-7.71-1.6-9.06-1.4-1.34-2.94.54-3.46 4.19-.51 3.65.21 7.71 1.6 9.05Zm-157.138-12.9c1.427-1.07 2.251-4.99 1.839-8.73-.413-3.74-1.906-5.9-3.334-4.82-1.427 1.09-2.25 5-1.838 8.74.413 3.74 1.906 5.9 3.333 4.81Zm141.978-.07c1.42 1.08 2.92-1.08 3.33-4.82.41-3.74-.42-7.66-1.84-8.74-1.43-1.07-2.92 1.09-3.33 4.83-.42 3.74.41 7.65 1.84 8.73Zm-126.497-10.23c1.451-.84 2.369-4.6 2.05-8.41-.32-3.8-1.757-6.2-3.208-5.37-1.451.84-2.369 4.61-2.05 8.41.32 3.8 1.757 6.21 3.208 5.37Zm111.009-.06c1.451.83 2.888-1.57 3.207-5.37.319-3.81-.6-7.57-2.051-8.41-1.451-.83-2.888 1.57-3.207 5.38-.319 3.8.6 7.56 2.051 8.4Zm-95.304-7.66c1.467-.6 2.474-4.21 2.245-8.06-.229-3.85-1.606-6.48-3.074-5.88-1.467.6-2.474 4.2-2.245 8.05.228 3.85 1.606 6.48 3.074 5.89Zm79.598-.05c1.468.6 2.845-2.04 3.073-5.89.228-3.84-.779-7.45-2.247-8.05-1.468-.59-2.844 2.04-3.072 5.89-.228 3.85.778 7.45 2.246 8.05Zm-63.74-5.12c1.479-.36 2.568-3.8 2.431-7.67-.138-3.88-1.45-6.73-2.929-6.37-1.48.36-2.569 3.8-2.431 7.67.137 3.88 1.45 6.73 2.929 6.37Zm47.881-.02c1.479.36 2.791-2.5 2.928-6.38.137-3.87-.952-7.31-2.432-7.67-1.479-.36-2.791 2.5-2.928 6.37-.137 3.88.953 7.32 2.432 7.68Zm-31.931-2.57c1.485-.12 2.653-3.38 2.607-7.27-.046-3.89-1.289-6.95-2.774-6.83-1.485.12-2.653 3.38-2.607 7.27.046 3.89 1.289 6.95 2.774 6.83Zm15.98-.01h.001c1.484.12 2.727-2.94 2.772-6.83.046-3.89-1.122-7.15-2.607-7.27-1.485-.12-2.728 2.95-2.773 6.84-.046 3.89 1.123 7.14 2.607 7.26Z" style="fill:#4b5" transform="matrix(1.11461 0 0 .42537 -642.75 -2283.14)"/><path d="M1152.99 5849.74c1.49-.12 2.66-3.38 2.61-7.27-.04-3.89-1.29-6.95-2.77-6.83-1.49.12-2.66 3.37-2.61 7.26.05 3.89 1.29 6.95 2.77 6.84Zm-16.31-.03c1.48.12 2.73-2.94 2.77-6.83.05-3.89-1.12-7.15-2.6-7.27-1.49-.12-2.73 2.94-2.78 6.83-.04 3.89 1.12 7.15 2.61 7.27Zm32.59-2.59c1.48-.35 2.57-3.79 2.44-7.67-.14-3.87-1.45-6.73-2.93-6.37-1.48.36-2.57 3.79-2.43 7.67.13 3.87 1.45 6.73 2.92 6.37Zm-48.87-.07c1.48.36 2.79-2.49 2.93-6.37.14-3.88-.95-7.32-2.43-7.68-1.48-.36-2.79 2.49-2.93 6.37-.14 3.87.95 7.31 2.43 7.68Zm65.06-5.16c1.47-.59 2.48-4.2 2.25-8.05-.22-3.85-1.6-6.48-3.07-5.89-1.47.6-2.48 4.2-2.25 8.05.23 3.85 1.61 6.49 3.07 5.89Zm-81.25-.13c1.47.6 2.85-2.04 3.08-5.88.23-3.85-.78-7.46-2.25-8.06-1.47-.6-2.84 2.04-3.07 5.88-.23 3.85.77 7.46 2.24 8.06Zm97.29-7.72c1.45-.84 2.37-4.6 2.05-8.4-.31-3.8-1.75-6.21-3.2-5.38-1.45.84-2.37 4.6-2.05 8.4.31 3.8 1.75 6.21 3.2 5.38Zm-113.32-.19c1.45.84 2.89-1.56 3.21-5.36.32-3.8-.6-7.57-2.05-8.41-1.45-.84-2.89 1.57-3.21 5.37-.32 3.8.6 7.57 2.05 8.4Zm129.14-10.31c1.43-1.07 2.25-4.98 1.84-8.72-.41-3.75-1.9-5.91-3.33-4.83-1.43 1.08-2.25 4.99-1.84 8.73.41 3.74 1.9 5.9 3.33 4.82Zm-144.96-.23c1.43 1.08 2.92-1.08 3.34-4.82.41-3.74-.41-7.65-1.84-8.73-1.43-1.09-2.92 1.07-3.33 4.81-.42 3.74.4 7.65 1.83 8.74Zm160.49-13.03c1.4-1.34 2.12-5.4 1.6-9.05-.51-3.66-2.06-5.54-3.45-4.2-1.39 1.34-2.11 5.4-1.6 9.05.51 3.66 2.06 5.54 3.45 4.2Zm-176.01-.3c1.39 1.34 2.94-.53 3.45-4.18.52-3.65-.2-7.71-1.59-9.06-1.4-1.34-2.94.53-3.46 4.18-.51 3.65.2 7.71 1.6 9.06Zm-15.16-16.83c1.32 1.77 2.95.39 3.62-3.07.68-3.47.15-7.72-1.17-9.49-1.33-1.77-2.95-.39-3.62 3.07-.68 3.47-.15 7.72 1.17 9.49Zm-186.881-15.99c1.394-1.34 2.109-5.4 1.596-9.05-.513-3.66-2.061-5.53-3.456-4.19-1.394 1.35-2.109 5.4-1.596 9.06.513 3.65 2.061 5.52 3.456 4.18Zm172.301-.1c1.4 1.35 2.94-.53 3.46-4.18.51-3.66-.21-7.71-1.6-9.06-1.4-1.34-2.94.54-3.46 4.19-.51 3.65.21 7.71 1.6 9.05Zm-157.138-12.9c1.427-1.07 2.251-4.99 1.839-8.73-.413-3.74-1.906-5.9-3.334-4.82-1.427 1.09-2.25 5-1.838 8.74.413 3.74 1.906 5.9 3.333 4.81Zm141.978-.07c1.42 1.08 2.92-1.08 3.33-4.82.41-3.74-.42-7.66-1.84-8.74-1.43-1.07-2.92 1.09-3.33 4.83-.42 3.74.41 7.65 1.84 8.73Zm-126.497-10.23c1.451-.84 2.369-4.6 2.05-8.41-.32-3.8-1.757-6.2-3.208-5.37-1.451.84-2.369 4.61-2.05 8.41.32 3.8 1.757 6.21 3.208 5.37Zm111.009-.06c1.451.83 2.888-1.57 3.207-5.37.319-3.81-.6-7.57-2.051-8.41-1.451-.83-2.888 1.57-3.207 5.38-.319 3.8.6 7.56 2.051 8.4Zm-95.304-7.66c1.467-.6 2.474-4.21 2.245-8.06-.229-3.85-1.606-6.48-3.074-5.88-1.467.6-2.474 4.2-2.245 8.05.228 3.85 1.606 6.48 3.074 5.89Zm79.598-.05c1.468.6 2.845-2.04 3.073-5.89.228-3.84-.779-7.45-2.247-8.05-1.468-.59-2.844 2.04-3.072 5.89-.228 3.85.778 7.45 2.246 8.05Zm-63.74-5.12c1.479-.36 2.568-3.8 2.431-7.67-.138-3.88-1.45-6.73-2.929-6.37-1.48.36-2.569 3.8-2.431 7.67.137 3.88 1.45 6.73 2.929 6.37Zm47.881-.02c1.479.36 2.791-2.5 2.928-6.38.137-3.87-.952-7.31-2.432-7.67-1.479-.36-2.791 2.5-2.928 6.37-.137 3.88.953 7.32 2.432 7.68Zm-31.931-2.57c1.485-.12 2.653-3.38 2.607-7.27-.046-3.89-1.289-6.95-2.774-6.83-1.485.12-2.653 3.38-2.607 7.27.046 3.89 1.289 6.95 2.774 6.83Zm15.98-.01h.001c1.484.12 2.727-2.94 2.772-6.83.046-3.89-1.122-7.15-2.607-7.27-1.485-.12-2.728 2.95-2.773 6.84-.046 3.89 1.123 7.14 2.607 7.26Z" style="fill:#4b5" transform="matrix(1.11461 0 0 .42537 237.9 -2024.9)"/></svg>