<svg xmlns="http://www.w3.org/2000/svg" xml:space="preserve" style="fill-rule:evenodd;clip-rule:evenodd;stroke-linejoin:round;stroke-miterlimit:2" viewBox="0 0 1920 1080"><path d="M0 0h1920v1080H0z" style="fill:none"/><clipPath id="a"><path d="M0 0h1920v1080H0z"/></clipPath><g clip-path="url(#a)"><path d="M1042.47 2407.96v-62.34h-26.48v150.6h26.48v-61.78h74.93v61.78h26.29v-150.6h-26.29v62.34h-74.93Z" style="fill:#eee;fill-rule:nonzero" transform="translate(-6281.44 -16820.5) scale(7.17105)"/><path d="m74.408 2048-3.516.6v34.4h3.516v-35Zm15.979 13.01c5.154 0 9.321 4.29 9.321 9.58 0 5.28-4.167 9.53-9.321 9.53-5.155 0-9.322-4.25-9.322-9.53 0-5.29 4.167-9.58 9.322-9.58Zm0-3.52c-7.045 0-12.752 5.88-12.752 13.1s5.707 13.05 12.752 13.05c7.045 0 12.751-5.83 12.751-13.05 0-7.22-5.706-13.1-12.751-13.1Zm28.73 3.52c5.154 0 9.321 4.29 9.321 9.58 0 5.28-4.167 9.53-9.321 9.53-5.155 0-9.322-4.25-9.322-9.53 0-5.29 4.167-9.58 9.322-9.58Zm0-3.52c-7.045 0-12.752 5.88-12.752 13.1s5.707 13.05 12.752 13.05c7.045 0 12.751-5.83 12.751-13.05 0-7.22-5.706-13.1-12.751-13.1Z" style="fill:#111;fill-rule:nonzero" transform="rotate(90 3092.412 2969.099) scale(2.40142)"/><circle cx="1087" cy="2261" r="13" style="fill:#111" transform="translate(308.092 -1564.323) scale(.72878)"/><circle cx="1087" cy="2261" r="13" style="fill:#111" transform="translate(308.092 -1495.33) scale(.72878)"/><path d="M1087.45 2282.89c3.85 4.4 3.92 8.8.02 13.21-1.44 1.62-.81 3.79 1.4 4.84 2.22 1.05 5.18.59 6.61-1.03 6.14-6.94 6.07-13.87.02-20.8-1.42-1.62-4.38-2.1-6.6-1.06-2.22 1.04-2.87 3.21-1.45 4.84Z" style="fill:#111" transform="matrix(.7325 0 0 1 297.982 -2161.264)"/><path d="M138.826 2069.73v-21.08h-3.517V2083h3.517v-8.13l3.607-3.85 9.491 11.98h4.552l-11.595-14.59 9.491-10.27h-4.767l-10.779 11.59Z" style="fill:#111;fill-rule:nonzero" transform="rotate(90 3092.412 2969.099) scale(2.40142)"/><path d="M105.57 2075.32c-1.246 2.74-3.953 4.72-6.96 4.72-3.437 0-6.057-2.58-6.229-5.97v-15.93h-3.516v15.84c-.043 5.46 3.945 9.66 9.358 9.66 3.652 0 6.402-1.93 8.034-4.89v4.25h3.516v-24.86h-3.516v14.14c0 1.03-.258 2.06-.687 3v.04Zm11.118-4.43v-.65c.171-5.11 4.209-9.23 9.235-9.23 5.112 0 9.236 4.34 9.236 9.58s-4.124 9.53-9.236 9.53c-5.026 0-9.064-4.12-9.235-9.23Zm0-7.9v-4.85h-3.517v34.39h3.517v-14.33c1.804 3.3 4.94 5.44 9.235 5.44 7.045 0 12.752-5.83 12.752-13.03 0-7.24-5.707-13.12-12.752-13.12-4.295 0-7.431 2.19-9.235 5.5Z" style="fill:#eee;fill-rule:nonzero" transform="translate(1065.41 -4680.55) scale(2.31612)"/><path d="M1272.73 364.286V166.01h-3v198.276l-6.44-6.44-2.12 2.122 10.06 10.06 10.06-10.06-2.12-2.122-6.44 6.44Z" style="fill:#bbb"/><path d="M80.444 2075.88c0 4.22 3.449 7.67 7.668 7.67 1.615 0 4.219-.48 4.219-.48l-.623-4.88s-2.202.26-3.596.26c-1.394 0-2.531-1.17-2.531-2.57v-9.02h6.127v-5.1h-6.127v-5.65l-5.137.55v5.1h-2.898v5.1h2.898v9.02Zm25.939-9.39c2.312 0 3.999 1.61 3.999 4.07V2083h5.283v-13.13c.074-4.92-3.448-8.66-8.401-8.66-2.935 0-5.027 1.28-6.531 3.37v-10.93h-5.136V2083h5.136v-10.64c0-3.04 2.605-5.87 5.65-5.87Zm27.627 4h-10.126c.293-.88.733-1.73 1.394-2.39 1.211-1.21 2.605-1.79 3.962-1.79.624 0 1.248.11 1.798.36 1.431.63 2.568 1.99 2.972 3.82Zm-12.328-5.98c-1.981 2.09-3.082 4.92-3.082 7.85 0 6.2 4.843 11.19 10.86 11.19 6.017 0 8.365-2.2 8.365-2.2l-2.201-4.22s-2.935 1.25-6.164 1.25c-2.605 0-4.806-1.73-5.576-4.15h15.409v-2.24c-.037-5.06-2.789-8.54-6.237-10.01a9.782 9.782 0 0 0-3.853-.77c-2.568 0-5.246.99-7.521 3.26v.04Z" style="fill:#111;fill-rule:nonzero" transform="translate(1039.88 -3593.58) scale(1.99825)"/><path d="M2023.09 2380.49v.42c-.01 3.33-.21 5.98-.46 5.98-.26 0-.46-2.79-.46-6.2s.2-6.2.46-6.2c.25 0 .45 2.68.46 6Zm0-4.75c-.09-2.14-.24-3.54-.46-3.54-.35 0-.64 3.8-.64 8.49s.29 8.49.64 8.49c.22 0 .37-1.4.46-3.55v3.13h.18v-22.34h-.18v9.32Zm1.36 3.69h-.83c.02-1.23.06-2.37.13-3.27.08-1.11.2-1.73.31-1.73.08 0 .15.28.21.81.1.78.16 2.18.18 4.19Zm-.83-4.86c-.12 1.59-.18 3.77-.18 6.04 0 4.74.26 8.57.62 8.57.35 0 .52-1.79.52-1.79l-.12-1.87s-.14 1.37-.4 1.37c-.23 0-.41-2.21-.44-5.14h1.01v-1.39c-.01-3.5-.11-5.76-.26-7.02-.09-.78-.2-1.17-.31-1.17-.16 0-.32.81-.44 2.4Zm1.42-1.98v-4.27l-.18.39v3.88h-.2v2.29h.2v9.41c0 2.71.17 4.89.38 4.89.08 0 .22-.42.22-.42l-.04-2.06s-.07.19-.18.19c-.11 0-.2-1.14-.2-2.57v-9.44h.37v-2.29h-.37Zm1.48 6.84h-.83c.02-1.23.06-2.37.13-3.27.08-1.11.2-1.73.31-1.73.08 0 .15.28.21.81.1.78.16 2.18.18 4.19Zm-.83-4.86c-.11 1.59-.18 3.77-.18 6.04 0 4.74.27 8.57.62 8.57s.52-1.79.52-1.79l-.12-1.87s-.14 1.37-.4 1.37c-.23 0-.4-2.21-.44-5.14h1.01v-1.39c-.01-3.5-.11-5.76-.26-7.02-.09-.78-.2-1.17-.31-1.17-.15 0-.32.81-.44 2.4Zm1.36-.92v-1.51h-.18v16.62h.18l.01-10.78c0-2.15.13-3.88.3-3.88.05 0 .15.16.15.16v-2.31s-.1-.22-.15-.22c-.14 0-.24.75-.31 1.92Zm1.66 2.51c-.07-2.34-.24-3.99-.45-3.99-.18 0-.32 1.26-.4 3.18v-2.76h-.18v16.17h.18v-9.17c0-.67.01-1.34.04-1.95.06-1.81.2-3.1.35-3.1.17 0 .3 1.68.31 3.89v10.33h.18v-9.19c0-.67.01-1.34.03-1.95.06-1.79.2-3.08.35-3.08.17 0 .3 1.68.31 3.89v10.33h.18v-10.28c0-3.55-.2-6.31-.47-6.31-.21 0-.36 1.65-.43 3.99Zm1.28-3.57h-.17v16.17h.17v-16.17Zm-.09-6.17c-.06 0-.12.72-.12 1.59 0 .86.06 1.59.12 1.59.07 0 .13-.73.13-1.59 0-.87-.06-1.59-.13-1.59Zm.47 8.96v-2.79h-.17v16.17h.17v-9.17c0-.67.02-1.34.04-1.95.06-1.81.2-3.1.35-3.1.17 0 .3 1.68.31 3.89v10.33h.18v-10.28c0-3.55-.2-6.31-.47-6.31-.19 0-.32 1.26-.41 3.18v.03Zm2.05 4.05h-.83c.02-1.23.06-2.37.13-3.27.08-1.11.2-1.73.31-1.73.08 0 .15.28.21.81.1.78.16 2.18.18 4.19Zm-.83-4.86c-.12 1.59-.18 3.77-.18 6.04 0 4.74.26 8.57.62 8.57.35 0 .51-1.79.51-1.79l-.11-1.87s-.14 1.37-.4 1.37c-.23 0-.41-2.21-.44-5.14h1.01v-1.39c-.01-3.5-.12-5.76-.26-7.02-.09-.78-.2-1.17-.31-1.17-.16 0-.32.81-.44 2.4Zm1.36-.92v-1.51h-.18v16.62h.18v-10.78c0-2.15.14-3.88.3-3.88.06 0 .16.16.16.16v-2.31s-.1-.22-.16-.22c-.13 0-.23.75-.3 1.92Zm.83 2.38c-.06 0-.12.69-.12 1.56 0 .86.06 1.59.12 1.59.07 0 .13-.73.13-1.59 0-.87-.06-1.56-.13-1.56Zm.11 9.99h-.19l-.12 5.92h.11l.2-5.92Zm1.8-5.55v.42c-.01 3.32-.21 6-.47 6-.25 0-.46-2.79-.46-6.2s.21-6.23.46-6.23c.26 0 .46 2.68.47 6.01Zm0 5.16v3.13h.17v-16.17h-.17v3.17c-.09-2.16-.25-3.59-.47-3.59-.35 0-.64 3.83-.64 8.52 0 4.69.29 8.49.64 8.49.22 0 .38-1.4.47-3.55Zm.53-4.74v-.42c.01-3.33.21-6.01.47-6.01.25 0 .46 2.82.46 6.23 0 3.41-.21 6.2-.46 6.2-.26 0-.46-2.68-.47-6Zm0-5.15v-3.15h-.17v22.37h.17v-9.32c.09 2.14.25 3.54.47 3.54.35 0 .64-3.79.64-8.48 0-4.7-.29-8.53-.64-8.53-.22 0-.38 1.43-.47 3.57Zm1.44 5.15v-.42c.01-3.33.22-6.01.47-6.01.25 0 .46 2.82.46 6.23 0 3.41-.21 6.2-.46 6.2s-.46-2.68-.47-6Zm0-5.15v-3.15h-.17v22.37h.17v-9.32c.1 2.14.25 3.54.47 3.54.35 0 .64-3.79.64-8.48 0-4.7-.29-8.53-.64-8.53-.22 0-.37 1.43-.47 3.57Zm2.36 4.73v.42c-.01 3.32-.21 6-.46 6-.26 0-.46-2.79-.46-6.2s.2-6.23.46-6.23c.25 0 .45 2.68.46 6.01Zm0 5.16v3.13h.18v-16.17h-.18v3.17c-.09-2.16-.25-3.59-.46-3.59-.35 0-.64 3.83-.64 8.52 0 4.69.29 8.49.64 8.49.21 0 .37-1.4.46-3.55Zm.54-11.98v-1.51h-.18v16.62h.18l.01-10.78c0-2.15.13-3.88.29-3.88.06 0 .16.16.16.16v-2.31s-.1-.22-.16-.22c-.13 0-.23.75-.3 1.92Zm1.46 5.78h-.83c.02-1.23.06-2.37.13-3.27.08-1.11.2-1.73.31-1.73.08 0 .15.28.21.81.09.78.16 2.18.18 4.19Zm-.83-4.86c-.12 1.59-.18 3.77-.18 6.04 0 4.74.26 8.57.62 8.57.35 0 .51-1.79.51-1.79l-.11-1.87s-.14 1.37-.4 1.37c-.23 0-.41-2.21-.44-5.14h1.01v-1.39c-.01-3.5-.12-5.76-.26-7.02-.09-.78-.2-1.17-.31-1.17-.16 0-.32.81-.44 2.4Zm1.36.81v-2.79h-.18v16.17h.18v-9.17c0-.67.01-1.34.03-1.95.06-1.81.2-3.1.35-3.1.18 0 .31 1.68.31 3.89v10.33h.18v-10.28c0-3.55-.2-6.31-.47-6.31-.18 0-.32 1.26-.4 3.18v.03Zm1.31-2.79v-4.27l-.18.39v3.88h-.2v2.29h.2v9.41c0 2.71.17 4.89.38 4.89.08 0 .22-.42.22-.42l-.04-2.06s-.07.19-.18.19c-.11 0-.2-1.14-.2-2.57v-9.44h.38v-2.29h-.38Zm.77-6.59-.18.39v22.37h.18V2366Zm.78 19.77-.44-13.18h-.21l.55 16.18-.11 3.1c-.02.64-.08 1.08-.13 1.08-.04 0-.08-.19-.11-.58l-.13 1.67c.06.84.15 1.31.24 1.31.13 0 .25-1 .31-2.54l.68-20.22h-.21l-.44 13.18Zm1.54-13.18h-.17v16.17h.17v-16.17Zm-.09-6.17c-.06 0-.12.72-.12 1.59 0 .86.06 1.59.12 1.59.07 0 .13-.73.13-1.59 0-.87-.06-1.59-.13-1.59Zm.47 8.96v-2.79h-.17v16.17h.17v-9.17c0-.67.02-1.34.04-1.95.06-1.81.2-3.1.35-3.1.17 0 .3 1.68.31 3.89v10.33h.18v-10.28c0-3.55-.2-6.31-.47-6.31-.19 0-.32 1.26-.41 3.18v.03Zm2.23 1.03c-.11-2.62-.32-4.24-.55-4.24-.35 0-.64 3.83-.64 8.52 0 4.69.29 8.49.64 8.49.23 0 .44-1.62.55-4.24l-.15-1.15c-.08 1.93-.23 3.1-.4 3.1-.26 0-.47-2.76-.47-6.2 0-3.44.21-6.23.47-6.23.17 0 .32 1.17.4 3.1l.15-1.15Zm.35-2.76v-1.51h-.17v16.62h.17l.01-10.78c0-2.15.13-3.88.3-3.88.05 0 .16.16.16.16v-2.31s-.11-.22-.16-.22c-.14 0-.24.75-.31 1.92Zm1.46 5.78h-.83c.02-1.23.06-2.37.13-3.27.09-1.11.2-1.73.31-1.73.08 0 .15.28.22.81.09.78.15 2.18.17 4.19Zm-.82-4.86c-.12 1.59-.19 3.77-.19 6.04 0 4.74.27 8.57.62 8.57s.52-1.79.52-1.79l-.11-1.87s-.15 1.37-.41 1.37c-.23 0-.4-2.21-.44-5.14h1.01v-1.39c0-3.5-.11-5.76-.26-7.02-.09-.78-.2-1.17-.3-1.17-.16 0-.33.81-.44 2.4Zm2.26 5.92v.42c-.01 3.33-.2 5.98-.46 5.98-.25 0-.46-2.79-.46-6.2s.21-6.2.46-6.2c.26 0 .45 2.68.46 6Zm0-4.75c-.09-2.14-.24-3.54-.46-3.54-.35 0-.64 3.8-.64 8.49s.29 8.49.64 8.49c.22 0 .37-1.4.46-3.55v3.13h.18v-22.34h-.18v9.32Zm.58-3.15h-.18v16.17h.18v-16.17Zm-.09-6.17c-.07 0-.13.72-.13 1.59 0 .86.06 1.59.13 1.59.06 0 .12-.73.12-1.59 0-.87-.06-1.59-.12-1.59Zm.47 14.49v-.42c.01-3.32.21-6 .46-6 .26 0 .46 2.79.46 6.2s-.2 6.2-.46 6.2c-.25 0-.45-2.65-.46-5.98Zm0-5.17v-9.32h-.18v22.34h.18v-3.15c.09 2.17.24 3.57.46 3.57.35 0 .64-3.8.64-8.49s-.29-8.49-.64-8.49c-.22 0-.37 1.4-.46 3.54Zm1.44-9.74-.18.39v22.37h.18V2366Zm.78 19.77-.45-13.18h-.2l.55 16.18-.11 3.1c-.02.64-.08 1.08-.14 1.08-.04 0-.08-.19-.1-.58l-.14 1.67c.07.84.15 1.31.24 1.31.14 0 .26-1 .31-2.54l.69-20.22h-.21l-.44 13.18Zm1.51-10.39v-8.96h-.18v22.34h.18v-9.16c0-.67.01-1.34.03-1.96.06-1.78.2-3.07.35-3.07.17 0 .3 1.68.31 3.88v10.31h.18v-10.25c0-3.55-.2-6.31-.47-6.31-.18 0-.32 1.25-.4 3.18Zm2.13 5.09v.42c-.01 3.32-.21 6-.46 6-.26 0-.46-2.79-.46-6.2s.2-6.23.46-6.23c.25 0 .45 2.68.46 6.01Zm0 5.16v3.13h.18v-16.17h-.18v3.17c-.09-2.16-.24-3.59-.46-3.59-.35 0-.64 3.83-.64 8.52 0 4.69.29 8.49.64 8.49.22 0 .37-1.4.46-3.55Zm.54-11.98v-1.51h-.18v16.62h.18l.01-10.78c0-2.15.13-3.88.29-3.88.06 0 .16.16.16.16v-2.31s-.1-.22-.16-.22c-.13 0-.23.75-.3 1.92Zm1.55 6.84v.42c-.01 3.33-.21 5.98-.46 5.98s-.46-2.79-.46-6.2.21-6.2.46-6.2.45 2.68.46 6Zm0-4.75c-.09-2.14-.24-3.54-.46-3.54-.35 0-.64 3.8-.64 8.49s.29 8.49.64 8.49c.22 0 .37-1.4.46-3.55v3.13h.18v-22.34h-.18v9.32Zm1.26-3.15v-4.27l-.18.39v3.88h-.2v2.29h.2v9.41c0 2.71.17 4.89.38 4.89.08 0 .22-.42.22-.42l-.04-2.06s-.07.19-.18.19c-.11 0-.2-1.14-.2-2.57v-9.44h.37v-2.29h-.37Zm1.11 1.87c.26 0 .47 2.79.47 6.23 0 3.44-.21 6.2-.47 6.2s-.47-2.76-.47-6.2c0-3.44.21-6.23.47-6.23Zm0-2.29c-.35 0-.64 3.83-.64 8.52 0 4.69.29 8.49.64 8.49.35 0 .64-3.8.64-8.49s-.29-8.52-.64-8.52Zm1.5 8.72v-.42c.01-3.33.21-6.01.47-6.01.25 0 .46 2.82.46 6.23 0 3.41-.21 6.2-.46 6.2-.26 0-.46-2.68-.47-6Zm0-5.15v-3.15h-.17v22.37h.17v-9.32c.09 2.14.25 3.54.47 3.54.35 0 .64-3.79.64-8.48 0-4.7-.29-8.53-.64-8.53-.22 0-.38 1.43-.47 3.57Zm1.45-2.09v-1.51h-.18v16.62h.18v-10.78c0-2.15.14-3.88.3-3.88.06 0 .16.16.16.16v-2.31s-.11-.22-.16-.22c-.13 0-.24.75-.3 1.92Zm1.09.81c.26 0 .46 2.79.46 6.23 0 3.44-.2 6.2-.46 6.2s-.47-2.76-.47-6.2c0-3.44.21-6.23.47-6.23Zm0-2.29c-.36 0-.64 3.83-.64 8.52 0 4.69.28 8.49.64 8.49.35 0 .64-3.8.64-8.49s-.29-8.52-.64-8.52Zm.99 3.21v-2.79h-.18v16.17h.18v-9.17c0-.67.01-1.34.03-1.95.06-1.81.2-3.1.35-3.1.17 0 .3 1.68.31 3.89v10.33h.18v-10.28c0-3.55-.2-6.31-.47-6.31-.18 0-.32 1.26-.4 3.18v.03Zm1.67-.92c.26 0 .47 2.79.47 6.23 0 3.44-.21 6.2-.47 6.2s-.47-2.76-.47-6.2c0-3.44.21-6.23.47-6.23Zm0-2.29c-.35 0-.64 3.83-.64 8.52 0 4.69.29 8.49.64 8.49.35 0 .64-3.8.64-8.49s-.29-8.52-.64-8.52Zm1.65 11.59c-.06 1.79-.2 3.08-.35 3.08-.17 0-.3-1.68-.31-3.89v-10.36h-.18v10.31c0 3.55.2 6.28.47 6.28.19 0 .32-1.26.4-3.18v2.76h.18v-16.17h-.18v9.2c0 .67-.01 1.34-.03 1.95v.02Zm.56-8.38v-2.79h-.18v16.17h.18v-9.17c0-.67.01-1.34.03-1.95.07-1.81.2-3.1.35-3.1.18 0 .31 1.68.31 3.89v10.33h.18v-10.28c.01-3.55-.2-6.31-.47-6.31-.18 0-.32 1.26-.4 3.18v.03Zm2.23 1.03c-.12-2.62-.33-4.24-.56-4.24-.35 0-.64 3.83-.64 8.52 0 4.69.29 8.49.64 8.49.23 0 .44-1.62.56-4.24l-.15-1.15c-.09 1.93-.24 3.1-.41 3.1-.26 0-.47-2.76-.47-6.2 0-3.44.21-6.23.47-6.23.17 0 .32 1.17.41 3.1l.15-1.15Zm1.09 3.02h-.83c.02-1.23.06-2.37.13-3.27.09-1.11.2-1.73.31-1.73.08 0 .15.28.22.81.09.78.15 2.18.17 4.19Zm-.83-4.86c-.11 1.59-.18 3.77-.18 6.04 0 4.74.27 8.57.62 8.57s.52-1.79.52-1.79l-.11-1.87s-.15 1.37-.41 1.37c-.23 0-.4-2.21-.44-5.14h1.01v-1.39c0-3.5-.11-5.76-.26-7.02-.09-.78-.19-1.17-.3-1.17-.16 0-.33.81-.45 2.4Zm1.87-4.41v2.38h-.17v2.31h.17v13.91h.18v-13.91h.31v-2.31h-.31v-2.38c0-1.43.09-2.54.2-2.54.09 0 .14.08.14.08l.01-2.09s-.06-.31-.15-.31c-.21 0-.38 2.18-.38 4.86Zm1.09 4.3c.26 0 .47 2.79.47 6.23 0 3.44-.21 6.2-.47 6.2s-.47-2.76-.47-6.2c0-3.44.21-6.23.47-6.23Zm0-2.29c-.35 0-.64 3.83-.64 8.52 0 4.69.29 8.49.64 8.49.35 0 .64-3.8.64-8.49s-.29-8.52-.64-8.52Zm.99 1.48v-1.51h-.18v16.62h.18v-10.78c0-2.15.14-3.88.3-3.88.06 0 .16.16.16.16v-2.31s-.1-.22-.16-.22c-.13 0-.23.75-.3 1.92Zm1.32 1.73v-2.79h-.17v16.17h.17v-9.17c0-.67.02-1.34.04-1.95.06-1.81.2-3.1.35-3.1.17 0 .3 1.68.31 3.89v10.33h.18v-10.28c0-3.55-.2-6.31-.47-6.31-.18 0-.32 1.26-.41 3.18v.03Zm2.14 5.09v.42c-.01 3.32-.21 6-.46 6-.26 0-.46-2.79-.46-6.2s.2-6.23.46-6.23c.25 0 .45 2.68.46 6.01Zm0 5.16v3.13h.18v-16.17h-.18v3.17c-.09-2.16-.24-3.59-.46-3.59-.35 0-.64 3.83-.64 8.52 0 4.69.29 8.49.64 8.49.22 0 .37-1.4.46-3.55Zm.74-13.04v-4.27l-.17.39v3.88h-.21v2.29h.21v9.41c0 2.71.16 4.89.37 4.89.09 0 .22-.42.22-.42l-.03-2.06s-.08.19-.19.19-.2-1.14-.2-2.57v-9.44h.38v-2.29h-.38Zm.81 0h-.18v16.17h.18v-16.17Zm-.09-6.17c-.07 0-.12.72-.12 1.59 0 .86.05 1.59.12 1.59.06 0 .12-.73.12-1.59 0-.87-.06-1.59-.12-1.59Zm.94 19.33-.45-13.16h-.2l.55 16.17h.2l.54-16.17h-.2l-.44 13.16Zm1.64-6.32h-.83c.02-1.23.06-2.37.13-3.27.09-1.11.2-1.73.31-1.73.08 0 .15.28.22.81.09.78.15 2.18.17 4.19Zm-.82-4.86c-.12 1.59-.19 3.77-.19 6.04 0 4.74.27 8.57.62 8.57s.52-1.79.52-1.79l-.11-1.87s-.15 1.37-.41 1.37c-.23 0-.4-2.21-.44-5.14h1.01v-1.39c0-3.5-.11-5.76-.26-7.02-.09-.78-.2-1.17-.3-1.17-.16 0-.33.81-.44 2.4Zm3.27 10.48v-8.24h-.74v2.29h.56v4.97c-.13 1.76-.31 2.77-.51 2.77-.39 0-.71-4.14-.71-9.25s.32-9.25.71-9.25c.19 0 .37.98.51 2.71l.13-1.67c-.17-2.18-.4-3.41-.64-3.41-.49 0-.89 5.22-.89 11.62 0 6.4.4 11.59.89 11.59.27 0 .52-1.51.69-4.13Zm1.17-5.62h-.83c.02-1.23.06-2.37.13-3.27.09-1.11.2-1.73.31-1.73.08 0 .15.28.22.81.09.78.15 2.18.17 4.19Zm-.83-4.86c-.11 1.59-.18 3.77-.18 6.04 0 4.74.27 8.57.62 8.57s.52-1.79.52-1.79l-.12-1.87s-.14 1.37-.4 1.37c-.23 0-.4-2.21-.44-5.14h1.01v-1.39c0-3.5-.11-5.76-.26-7.02-.09-.78-.2-1.17-.3-1.17-.16 0-.33.81-.45 2.4Zm1.36-.92v-1.51h-.18v16.62h.18l.01-10.78c0-2.15.13-3.88.3-3.88.05 0 .15.16.15.16v-2.31s-.1-.22-.15-.22c-.14 0-.24.75-.31 1.92Zm1.66 2.51c-.07-2.34-.24-3.99-.45-3.99-.18 0-.32 1.26-.4 3.18v-2.76h-.17v16.17h.17v-9.17c0-.67.01-1.34.04-1.95.06-1.81.2-3.1.35-3.1.17 0 .3 1.68.31 3.89v10.33h.18v-9.19c0-.67.01-1.34.03-1.95.06-1.79.2-3.08.35-3.08.17 0 .31 1.68.31 3.89v10.33h.18v-10.28c0-3.55-.2-6.31-.47-6.31-.21 0-.36 1.65-.43 3.99Zm2.16 4.31v.42c0 3.32-.21 6-.46 6s-.46-2.79-.46-6.2.21-6.23.46-6.23.46 2.68.46 6.01Zm0 5.16v3.13h.18v-16.17h-.18v3.17c-.09-2.16-.24-3.59-.46-3.59-.35 0-.64 3.83-.64 8.52 0 4.69.29 8.49.64 8.49.22 0 .37-1.4.46-3.55Zm.54-10.25v-2.79h-.17v16.17h.17v-9.17c0-.67.01-1.34.04-1.95.06-1.81.2-3.1.35-3.1.17 0 .3 1.68.31 3.89v10.33h.18v-10.28c0-3.55-.2-6.31-.48-6.31-.18 0-.32 1.26-.4 3.18v.03Zm2.47-1.67s-.12-1.98-.42-1.98c-.29 0-.46 2.45-.46 4.99 0 .34 0 .67.01 1.01.04 2.2.17 3.1.34 3.63.15.53.35.59.37 2.79v.2c0 .56-.02 1.09-.05 1.48-.06.59-.14.92-.23.92-.21 0-.37-1.42-.37-1.42l-.11 2.06s.22 1.79.48 1.79c.29 0 .47-2.34.47-4.83v-.53c-.03-3.08-.22-3.97-.42-4.56-.12-.33-.27-.55-.3-2.12v-.47c0-1.37.11-2.49.27-2.49.2 0 .28 1.15.28 1.15l.14-1.62Zm.38 7.18v-.42c.01-3.33.21-6.01.47-6.01.25 0 .46 2.82.46 6.23 0 3.41-.21 6.2-.46 6.2-.26 0-.46-2.68-.47-6Zm0-5.15v-3.15h-.17v22.37h.17v-9.32c.09 2.14.25 3.54.47 3.54.35 0 .64-3.79.64-8.48 0-4.7-.29-8.53-.64-8.53-.22 0-.38 1.43-.47 3.57Zm2.27 3.69h-.83c.02-1.23.06-2.37.13-3.27.08-1.11.2-1.73.31-1.73.08 0 .15.28.21.81.09.78.16 2.18.18 4.19Zm-.83-4.86c-.12 1.59-.18 3.77-.18 6.04 0 4.74.26 8.57.62 8.57.35 0 .51-1.79.51-1.79l-.11-1.87s-.15 1.37-.4 1.37c-.23 0-.41-2.21-.44-5.14h1.01v-1.39c-.01-3.5-.12-5.76-.26-7.02-.09-.78-.2-1.17-.31-1.17-.16 0-.32.81-.44 2.4Zm2.27 5.9v.42c-.01 3.32-.21 6-.46 6-.26 0-.46-2.79-.46-6.2s.2-6.23.46-6.23c.25 0 .45 2.68.46 6.01Zm0 5.16v3.13h.18v-16.17h-.18v3.17c-.09-2.16-.25-3.59-.46-3.59-.35 0-.64 3.83-.64 8.52 0 4.69.29 8.49.64 8.49.21 0 .37-1.4.46-3.55Zm.54-5.5v-13.71h-.18v22.34h.18v-5.29l.18-2.5.47 7.79h.23l-.58-9.49.48-6.68h-.24l-.54 7.54Zm1.86-.7h-.83c.02-1.23.06-2.37.13-3.27.09-1.11.2-1.73.32-1.73.07 0 .15.28.21.81.09.78.15 2.18.17 4.19Zm-.82-4.86c-.12 1.59-.19 3.77-.19 6.04 0 4.74.27 8.57.62 8.57.36 0 .52-1.79.52-1.79l-.11-1.87s-.15 1.37-.41 1.37c-.23 0-.4-2.21-.44-5.14h1.01v-1.39c0-3.5-.11-5.76-.26-7.02-.09-.78-.19-1.17-.3-1.17-.16 0-.33.81-.44 2.4Zm1.36-.92v-1.51h-.19v16.62h.19v-10.78c0-2.15.13-3.88.3-3.88.05 0 .16.16.16.16v-2.31s-.11-.22-.16-.22c-.14 0-.24.75-.3 1.92Zm1.43.06s-.12-1.98-.42-1.98c-.29 0-.46 2.45-.46 4.99 0 .34 0 .67.01 1.01.04 2.2.17 3.1.34 3.63.15.53.35.59.37 2.79v.2c0 .56-.02 1.09-.06 1.48-.05.59-.13.92-.22.92-.21 0-.38-1.42-.38-1.42l-.1 2.06s.22 1.79.48 1.79c.29 0 .47-2.34.47-4.83v-.53c-.03-3.08-.22-3.97-.42-4.56-.12-.33-.27-.55-.3-2.12v-.47c0-1.37.11-2.49.27-2.49.19 0 .28 1.15.28 1.15l.14-1.62Zm.2 13.91c0 .86.06 1.56.13 1.56.06 0 .12-.7.12-1.56 0-.87-.06-1.59-.12-1.59-.07 0-.13.72-.13 1.59Zm-83.86 39.61-.52-18.69h-.2l.62 22.34h.2l.52-18.69.52 18.69h.2l.62-22.34h-.2l-.52 18.69-.52-18.69h-.2l-.52 18.69Zm2.31-9.73v-8.96h-.17v22.34h.17v-9.16c0-.67.02-1.34.04-1.96.06-1.79.2-3.07.35-3.07.17 0 .3 1.68.31 3.88v10.31h.18v-10.25h-.01c.01-3.55-.19-6.31-.46-6.31-.19 0-.32 1.25-.41 3.18Zm1.26-2.79h-.18v16.17h.18v-16.17Zm-.09-6.17c-.07 0-.12.72-.12 1.59 0 .86.05 1.59.12 1.59.07 0 .12-.73.12-1.59 0-.87-.05-1.59-.12-1.59Zm.47-.42-.18.39v22.37h.18v-22.76Zm1.17 13.43h-.83c.02-1.23.06-2.37.13-3.27.09-1.12.2-1.73.31-1.73.08 0 .15.28.21.81.1.78.16 2.18.18 4.19Zm-.83-4.86c-.11 1.59-.18 3.77-.18 6.03 0 4.75.27 8.58.62 8.58s.52-1.79.52-1.79l-.11-1.87s-.15 1.37-.41 1.37c-.23 0-.4-2.21-.44-5.14h1.01v-1.4c0-3.49-.11-5.75-.26-7.01-.09-.78-.2-1.17-.3-1.17-.16 0-.33.81-.45 2.4Zm2.3-1.98h-.18v16.17h.18v-16.17Zm-.09-6.17c-.07 0-.12.72-.12 1.59 0 .86.05 1.59.12 1.59.07 0 .12-.73.12-1.59 0-.87-.05-1.59-.12-1.59Zm.67 6.17v-4.27l-.17.39v3.88h-.21v2.29h.21v9.41c0 2.71.16 4.89.37 4.89.09 0 .22-.42.22-.42l-.03-2.07s-.08.2-.19.2-.2-1.15-.2-2.57V2417h.38v-2.29h-.38Zm1.71 0h-.17v16.17h.17v-16.17Zm-.09-6.17c-.06 0-.12.72-.12 1.59 0 .86.06 1.59.12 1.59.07 0 .13-.73.13-1.59 0-.87-.06-1.59-.13-1.59Zm1.21 7.28s-.13-1.98-.43-1.98c-.28 0-.45 2.46-.45 5v1.01c.04 2.2.18 3.1.34 3.63.16.53.36.59.38 2.79v.2c0 .56-.02 1.09-.06 1.48-.05.58-.13.92-.22.92-.21 0-.38-1.42-.38-1.42l-.1 2.06s.21 1.79.48 1.79c.28 0 .47-2.35.47-4.83v-.53c-.04-3.08-.22-3.97-.42-4.56-.12-.33-.27-.56-.3-2.12 0-.17-.01-.31-.01-.48 0-1.36.12-2.48.27-2.48.2 0 .29 1.14.29 1.14l.14-1.62Zm2.02 0s-.13-1.98-.43-1.98c-.28 0-.46 2.46-.46 5 0 .34.01.67.01 1.01.04 2.2.18 3.1.34 3.63.15.53.36.59.38 2.79v.2c0 .56-.02 1.09-.06 1.48-.05.58-.13.92-.22.92-.21 0-.38-1.42-.38-1.42l-.1 2.06s.21 1.79.48 1.79c.28 0 .47-2.35.47-4.83v-.53c-.04-3.08-.22-3.97-.42-4.56-.12-.33-.27-.56-.3-2.12 0-.17-.01-.31-.01-.48 0-1.36.12-2.48.27-2.48.2 0 .29 1.14.29 1.14l.14-1.62Zm.83.76c.26 0 .47 2.79.47 6.23 0 3.43-.21 6.2-.47 6.2s-.47-2.77-.47-6.2c0-3.44.21-6.23.47-6.23Zm0-2.29c-.35 0-.64 3.82-.64 8.52 0 4.69.29 8.49.64 8.49.35 0 .64-3.8.64-8.49 0-4.7-.29-8.52-.64-8.52Zm1.83 3.99c-.06-2.34-.23-3.99-.44-3.99-.18 0-.32 1.26-.4 3.18v-2.76h-.18v16.17h.18v-9.17c0-.67.01-1.34.03-1.95.06-1.81.2-3.1.35-3.1.18 0 .31 1.68.32 3.88v10.34h.17v-9.19c0-.67.01-1.34.04-1.96.06-1.78.2-3.07.35-3.07.17 0 .3 1.68.31 3.88v10.34h.18v-10.28c0-3.55-.2-6.31-.47-6.31-.21 0-.36 1.65-.44 3.99Zm2.08 3.27h-.83c.02-1.23.06-2.37.13-3.27.08-1.12.2-1.73.31-1.73.08 0 .15.28.21.81.09.78.16 2.18.18 4.19Zm-.83-4.86c-.12 1.59-.18 3.77-.18 6.03 0 4.75.26 8.58.62 8.58.35 0 .51-1.79.51-1.79l-.11-1.87s-.14 1.37-.4 1.37c-.23 0-.41-2.21-.44-5.14h1.01v-1.4c-.01-3.49-.12-5.75-.26-7.01-.09-.78-.2-1.17-.31-1.17-.16 0-.32.81-.44 2.4Zm1.41-1.98v-4.27l-.17.39v3.88h-.21v2.29h.21v9.41c0 2.71.17 4.89.38 4.89.08 0 .22-.42.22-.42l-.04-2.07s-.07.2-.18.2c-.12 0-.21-1.15-.21-2.57V2417h.38v-2.29h-.38Zm.81 0h-.18v16.17h.18v-16.17Zm-.09-6.17c-.07 0-.12.72-.12 1.59 0 .86.05 1.59.12 1.59.07 0 .12-.73.12-1.59 0-.87-.05-1.59-.12-1.59Zm1.31 9.74c-.06-2.34-.23-3.99-.44-3.99-.18 0-.32 1.26-.4 3.18v-2.76h-.18v16.17h.18v-9.17c0-.67.01-1.34.03-1.95.07-1.81.21-3.1.35-3.1.18 0 .31 1.68.32 3.88v10.34h.17v-9.19c0-.67.01-1.34.04-1.96.06-1.78.2-3.07.35-3.07.17 0 .3 1.68.31 3.88v10.34h.18v-10.28c0-3.55-.2-6.31-.47-6.31-.21 0-.36 1.65-.44 3.99Zm2.08 3.27h-.83c.02-1.23.06-2.37.13-3.27.08-1.12.2-1.73.31-1.73.08 0 .15.28.21.81.1.78.16 2.18.18 4.19Zm-.83-4.86c-.12 1.59-.18 3.77-.18 6.03 0 4.75.26 8.58.62 8.58.35 0 .51-1.79.51-1.79l-.11-1.87s-.14 1.37-.4 1.37c-.23 0-.41-2.21-.44-5.14h1.01v-1.4c-.01-3.49-.12-5.75-.26-7.01-.09-.78-.2-1.17-.31-1.17-.16 0-.32.81-.44 2.4Zm1.99-.87s-.13-1.98-.43-1.98c-.28 0-.46 2.46-.46 5 0 .34.01.67.01 1.01.04 2.2.18 3.1.34 3.63.15.53.35.59.38 2.79v.2c0 .56-.02 1.09-.06 1.48-.05.58-.13.92-.23.92-.2 0-.37-1.42-.37-1.42l-.11 2.06s.22 1.79.48 1.79c.29 0 .48-2.35.48-4.83v-.53c-.04-3.08-.22-3.97-.43-4.56-.12-.33-.27-.56-.29-2.12-.01-.17-.01-.31-.01-.48 0-1.36.12-2.48.27-2.48.2 0 .29 1.14.29 1.14l.14-1.62Zm2.02 0s-.13-1.98-.43-1.98c-.28 0-.46 2.46-.46 5 0 .34.01.67.01 1.01.04 2.2.18 3.1.34 3.63.15.53.35.59.38 2.79v.2c0 .56-.03 1.09-.06 1.48-.05.58-.13.92-.23.92-.21 0-.37-1.42-.37-1.42l-.11 2.06s.22 1.79.48 1.79c.29 0 .48-2.35.48-4.83 0-.17 0-.37-.01-.53-.03-3.08-.21-3.97-.42-4.56-.12-.33-.27-.56-.29-2.12-.01-.17-.01-.31-.01-.48 0-1.36.11-2.48.27-2.48.2 0 .29 1.14.29 1.14l.14-1.62Zm1.23 6.76v.42c-.01 3.33-.21 6.01-.46 6.01-.26 0-.47-2.79-.47-6.2s.21-6.23.47-6.23c.25 0 .45 2.68.46 6Zm0 5.17v3.13h.18v-16.17h-.18v3.17c-.09-2.17-.25-3.59-.46-3.59-.36 0-.64 3.82-.64 8.52 0 4.69.28 8.49.64 8.49.21 0 .37-1.4.46-3.55Zm.57-13.04h-.18v16.17h.18v-16.17Zm-.09-6.17c-.07 0-.12.72-.12 1.59 0 .86.05 1.59.12 1.59.07 0 .12-.73.12-1.59 0-.87-.05-1.59-.12-1.59Zm1.39 14.07v.42c-.01 3.33-.21 5.98-.47 5.98-.25 0-.46-2.79-.46-6.2s.21-6.2.46-6.2c.26 0 .46 2.68.47 6Zm0-4.75c-.1-2.15-.25-3.54-.47-3.54-.35 0-.64 3.79-.64 8.49 0 4.69.29 8.49.64 8.49.22 0 .37-1.4.47-3.55v3.13h.17v-22.34h-.17v9.32Zm1.64-3.15v-4.27l-.18.39v3.88h-.2v2.29h.2v9.41c0 2.71.17 4.89.38 4.89.08 0 .22-.42.22-.42l-.04-2.07s-.07.2-.18.2c-.11 0-.2-1.15-.2-2.57V2417h.38v-2.29h-.38Zm.77 2.79v-8.96h-.18v22.34h.18v-9.16c0-.67.01-1.34.03-1.96.06-1.79.2-3.07.35-3.07.17 0 .3 1.68.31 3.88v10.31h.18v-10.25c0-3.55-.2-6.31-.47-6.31-.18 0-.32 1.25-.4 3.18Zm2.13 5.08v.42c0 3.33-.21 6.01-.46 6.01-.26 0-.46-2.79-.46-6.2s.2-6.23.46-6.23c.25 0 .46 2.68.46 6Zm0 5.17v3.13h.18v-16.17h-.18v3.17c-.09-2.17-.24-3.59-.46-3.59-.35 0-.64 3.82-.64 8.52 0 4.69.29 8.49.64 8.49.22 0 .37-1.4.46-3.55Zm.74-13.04v-4.27l-.17.39v3.88h-.21v2.29h.21v9.41c0 2.71.16 4.89.37 4.89.09 0 .22-.42.22-.42l-.03-2.07s-.08.2-.19.2-.2-1.15-.2-2.57V2417h.38v-2.29h-.38Zm2.4 0-.35 12.52-.35-12.52h-.2l.45 16.17h.2l.35-12.55.35 12.55h.2l.45-16.17h-.2l-.35 12.52-.35-12.52h-.2Zm2.12 6.84h-.83c.02-1.23.06-2.37.13-3.27.08-1.12.2-1.73.31-1.73.08 0 .15.28.21.81.09.78.16 2.18.18 4.19Zm-.83-4.86c-.12 1.59-.18 3.77-.18 6.03 0 4.75.26 8.58.62 8.58.35 0 .51-1.79.51-1.79l-.11-1.87s-.14 1.37-.4 1.37c-.23 0-.41-2.21-.44-5.14h1.01v-1.4c-.01-3.49-.12-5.75-.26-7.01-.09-.78-.2-1.17-.31-1.17-.16 0-.32.81-.44 2.4Zm3.18 5.89v.42c-.01 3.33-.21 6.01-.46 6.01-.26 0-.47-2.79-.47-6.2s.21-6.23.47-6.23c.25 0 .45 2.68.46 6Zm0 5.17v3.13h.18v-16.17h-.18v3.17c-.09-2.17-.25-3.59-.46-3.59-.36 0-.65 3.82-.65 8.52 0 4.69.29 8.49.65 8.49.21 0 .37-1.4.46-3.55Zm.54-11.98v-1.51h-.18v16.62h.18v-10.78c0-2.15.14-3.89.3-3.89.06 0 .16.17.16.17v-2.31s-.11-.23-.16-.23c-.14 0-.24.76-.3 1.93Zm1.45 5.78h-.82c.01-1.23.06-2.37.12-3.27.09-1.12.2-1.73.32-1.73.07 0 .15.28.21.81.09.78.16 2.18.17 4.19Zm-.82-4.86c-.12 1.59-.18 3.77-.18 6.03 0 4.75.26 8.58.61 8.58.36 0 .52-1.79.52-1.79l-.11-1.87s-.15 1.37-.41 1.37c-.23 0-.4-2.21-.44-5.14h1.02v-1.4c-.01-3.49-.12-5.75-.26-7.01-.09-.78-.2-1.17-.31-1.17-.16 0-.32.81-.44 2.4Zm2.26 6.31v-.42c.01-3.32.21-6 .46-6 .26 0 .47 2.82.47 6.23 0 3.41-.21 6.2-.47 6.2-.25 0-.45-2.68-.46-6.01Zm0-5.14v-3.15h-.18v22.37h.18v-9.32c.09 2.14.25 3.54.46 3.54.36 0 .64-3.8.64-8.48 0-4.71-.28-8.53-.64-8.53-.21 0-.37 1.42-.46 3.57Zm1.44-2.09v-1.51h-.18v16.62h.18l.01-10.78c0-2.15.13-3.89.3-3.89.05 0 .16.17.16.17v-2.31s-.11-.23-.16-.23c-.14 0-.24.76-.31 1.93Zm1.46 5.78h-.83c.02-1.23.06-2.37.13-3.27.09-1.12.2-1.73.31-1.73.08 0 .15.28.22.81.09.78.15 2.18.17 4.19Zm-.83-4.86c-.11 1.59-.18 3.77-.18 6.03 0 4.75.27 8.58.62 8.58s.52-1.79.52-1.79l-.12-1.87s-.14 1.37-.4 1.37c-.23 0-.4-2.21-.44-5.14h1.01v-1.4c0-3.49-.11-5.75-.26-7.01-.09-.78-.2-1.17-.3-1.17-.16 0-.33.81-.45 2.4Zm1.42-1.98v-4.27l-.18.39v3.88h-.2v2.29h.2v9.41c0 2.71.17 4.89.38 4.89.08 0 .22-.42.22-.42l-.04-2.07s-.07.2-.18.2c-.11 0-.2-1.15-.2-2.57V2417h.37v-2.29h-.37Zm.85 0v-4.27l-.18.39v3.88h-.2v2.29h.2v9.41c0 2.71.17 4.89.38 4.89.09 0 .22-.42.22-.42l-.03-2.07s-.08.2-.19.2-.2-1.15-.2-2.57V2417h.38v-2.29h-.38Zm1.15 13.17-.44-13.17h-.21l.55 16.18-.11 3.09c-.02.64-.07 1.09-.13 1.09-.04 0-.08-.19-.11-.58l-.13 1.67c.06.83.15 1.31.24 1.31.13 0 .25-1 .31-2.54l.68-20.22h-.21l-.44 13.17Zm2.7-6.3v.92c-.02 2.79-.19 5.03-.4 5.03-.23 0-.41-2.46-.41-5.48 0-3.01.18-5.5.41-5.5.21 0 .38 2.23.4 5.03Zm-.44 15.89c.38 0 .62-2.99.62-8.04v-14.72h-.18v2.62c-.08-1.87-.22-3.04-.4-3.04-.33 0-.59 3.46-.59 7.76 0 4.31.26 7.77.59 7.77.18 0 .32-1.18.4-3.02v2.88c-.01 3.55-.17 5.5-.44 5.5-.25 0-.42-1.31-.42-1.31l-.1 1.93s.21 1.67.52 1.67Zm1.43-20.89c.26 0 .47 2.79.47 6.23 0 3.43-.21 6.2-.47 6.2s-.47-2.77-.47-6.2c0-3.44.21-6.23.47-6.23Zm0-2.29c-.35 0-.64 3.82-.64 8.52 0 4.69.29 8.49.64 8.49.35 0 .64-3.8.64-8.49 0-4.7-.29-8.52-.64-8.52Zm1.44 2.29c.26 0 .47 2.79.47 6.23 0 3.43-.21 6.2-.47 6.2s-.47-2.77-.47-6.2c0-3.44.21-6.23.47-6.23Zm0-2.29c-.35 0-.64 3.82-.64 8.52 0 4.69.29 8.49.64 8.49.36 0 .64-3.8.64-8.49 0-4.7-.28-8.52-.64-8.52Zm1.9 8.32v.42c0 3.33-.2 5.98-.46 5.98-.25 0-.46-2.79-.46-6.2s.21-6.2.46-6.2c.26 0 .46 2.68.46 6Zm0-4.75c-.08-2.15-.24-3.54-.46-3.54-.35 0-.64 3.79-.64 8.49 0 4.69.29 8.49.64 8.49.22 0 .38-1.4.46-3.55v3.13h.18v-22.34h-.18v9.32Zm2.36 4.72v.42c-.01 3.33-.21 6.01-.46 6.01-.26 0-.46-2.79-.46-6.2s.2-6.23.46-6.23c.25 0 .45 2.68.46 6Zm0 5.17v3.13h.18v-16.17h-.18v3.17c-.09-2.17-.25-3.59-.46-3.59-.35 0-.64 3.82-.64 8.52 0 4.69.29 8.49.64 8.49.21 0 .37-1.4.46-3.55Zm.74-13.04v-4.27l-.18.39v3.88h-.2v2.29h.2v9.41c0 2.71.17 4.89.38 4.89.09 0 .22-.42.22-.42l-.03-2.07s-.08.2-.19.2-.2-1.15-.2-2.57V2417h.38v-2.29h-.38Zm2.41 1.11s-.12-1.98-.42-1.98c-.29 0-.46 2.46-.46 5 0 .34 0 .67.01 1.01.04 2.2.17 3.1.34 3.63.15.53.35.59.37 2.79v.2c0 .56-.02 1.09-.06 1.48-.05.58-.13.92-.22.92-.21 0-.38-1.42-.38-1.42l-.1 2.06s.21 1.79.48 1.79c.29 0 .47-2.35.47-4.83v-.53c-.03-3.08-.22-3.97-.42-4.56-.12-.33-.27-.56-.3-2.12v-.48c0-1.36.11-2.48.27-2.48.19 0 .28 1.14.28 1.14l.14-1.62Zm.38 7.18v-.42c.01-3.32.21-6 .46-6 .26 0 .47 2.82.47 6.23 0 3.41-.21 6.2-.47 6.2-.25 0-.45-2.68-.46-6.01Zm0-5.14v-3.15h-.18v22.37h.18v-9.32c.09 2.14.25 3.54.46 3.54.36 0 .64-3.8.64-8.48 0-4.71-.28-8.53-.64-8.53-.21 0-.37 1.42-.46 3.57Zm2.26 3.69h-.82c.01-1.23.06-2.37.12-3.27.09-1.12.2-1.73.32-1.73.07 0 .15.28.21.81.09.78.16 2.18.17 4.19Zm-.82-4.86c-.12 1.59-.18 3.77-.18 6.03 0 4.75.26 8.58.61 8.58.36 0 .52-1.79.52-1.79l-.11-1.87s-.15 1.37-.41 1.37c-.23 0-.4-2.21-.44-5.14h1.01v-1.4c0-3.49-.11-5.75-.26-7.01-.09-.78-.19-1.17-.3-1.17-.16 0-.32.81-.44 2.4Zm2.27 5.89v.42c-.01 3.33-.21 6.01-.46 6.01-.26 0-.47-2.79-.47-6.2s.21-6.23.47-6.23c.25 0 .45 2.68.46 6Zm0 5.17v3.13h.17v-16.17h-.17v3.17c-.09-2.17-.25-3.59-.46-3.59-.36 0-.64 3.82-.64 8.52 0 4.69.28 8.49.64 8.49.21 0 .37-1.4.46-3.55Zm.53-5.5v-13.71h-.17v22.34h.17v-5.29l.19-2.5.47 7.79h.23l-.58-9.49.48-6.68h-.24l-.55 7.54Zm1.27-7.54h-.17v16.17h.17v-16.17Zm-.09-6.17c-.06 0-.12.72-.12 1.59 0 .86.06 1.59.12 1.59.07 0 .13-.73.13-1.59 0-.87-.06-1.59-.13-1.59Zm.47 8.96v-2.79h-.17v16.17h.17v-9.17c0-.67.02-1.34.04-1.95.06-1.81.2-3.1.35-3.1.17 0 .3 1.68.31 3.88v10.34h.18v-10.28c0-3.55-.2-6.31-.47-6.31-.19 0-.32 1.26-.41 3.18v.03Zm2.03 4.08v.92c-.02 2.79-.19 5.03-.41 5.03-.22 0-.4-2.46-.4-5.48 0-3.01.18-5.5.4-5.5.22 0 .39 2.23.41 5.03Zm-.44 15.89c.37 0 .62-2.99.62-8.04v-14.72h-.18v2.62c-.08-1.87-.22-3.04-.41-3.04-.32 0-.58 3.46-.58 7.76 0 4.31.26 7.77.58 7.77.19 0 .33-1.18.41-3.02v2.88c-.01 3.55-.17 5.5-.44 5.5-.26 0-.42-1.31-.42-1.31l-.1 1.93s.21 1.67.52 1.67Zm1.7-28.96v22.4h1.17v-2.29h-.99v-7.77h.75v-2.29h-.75v-7.76h.99v-2.29h-1.17Zm1.52 8.99v-2.79h-.18v16.17h.18v-9.17c0-.67.01-1.34.03-1.95.06-1.81.2-3.1.35-3.1.17 0 .3 1.68.31 3.88v10.34h.18v-10.28c0-3.55-.2-6.31-.47-6.31-.18 0-.32 1.26-.4 3.18v.03Zm2.02 4.08v.92c-.02 2.79-.19 5.03-.41 5.03-.22 0-.4-2.46-.4-5.48 0-3.01.18-5.5.4-5.5.22 0 .39 2.23.41 5.03Zm-.44 15.89c.37 0 .62-2.99.62-8.04v-14.72h-.18v2.62c-.08-1.87-.22-3.04-.41-3.04-.32 0-.58 3.46-.58 7.76 0 4.31.26 7.77.58 7.77.19 0 .33-1.18.41-3.02v2.88c-.01 3.55-.17 5.5-.44 5.5-.25 0-.42-1.31-.42-1.31l-.1 1.93s.21 1.67.52 1.67Zm.98-29.35-.18.39v22.37h.18v-22.76Zm.38 6.59h-.18v16.17h.18v-16.17Zm-.09-6.17c-.06 0-.12.72-.12 1.59 0 .86.06 1.59.12 1.59.07 0 .13-.73.13-1.59 0-.87-.06-1.59-.13-1.59Zm1.21 7.28s-.13-1.98-.43-1.98c-.28 0-.46 2.46-.46 5 0 .34.01.67.01 1.01.04 2.2.18 3.1.34 3.63.15.53.35.59.38 2.79v.2c0 .56-.02 1.09-.06 1.48-.05.58-.13.92-.22.92-.21 0-.38-1.42-.38-1.42l-.1 2.06s.21 1.79.48 1.79c.28 0 .47-2.35.47-4.83 0-.17 0-.37-.01-.53-.03-3.08-.21-3.97-.42-4.56-.12-.33-.27-.56-.29-2.12 0-.17-.01-.31-.01-.48 0-1.36.12-2.48.27-2.48.2 0 .29 1.14.29 1.14l.14-1.62Zm.38 1.68v-8.96h-.18v22.34h.18v-9.16c0-.67.01-1.34.03-1.96.06-1.79.2-3.07.35-3.07.17 0 .3 1.68.31 3.88v10.31h.18v-10.25c0-3.55-.2-6.31-.47-6.31-.18 0-.32 1.25-.4 3.18Zm1.35 10.64h-.19l-.12 5.92h.11l.2-5.92Zm1.72-.26-.45-13.17h-.2l.55 16.18-.11 3.09c-.02.64-.07 1.09-.13 1.09-.04 0-.09-.19-.11-.58l-.13 1.67c.06.83.15 1.31.24 1.31.13 0 .25-1 .31-2.54l.68-20.22h-.21l-.44 13.17Zm1.27-11.3c.26 0 .47 2.79.47 6.23 0 3.43-.21 6.2-.47 6.2s-.47-2.77-.47-6.2c0-3.44.21-6.23.47-6.23Zm0-2.29c-.35 0-.64 3.82-.64 8.52 0 4.69.29 8.49.64 8.49.36 0 .64-3.8.64-8.49 0-4.7-.28-8.52-.64-8.52Zm1.65 11.59c-.06 1.79-.19 3.07-.35 3.07-.17 0-.3-1.67-.31-3.88v-10.36h-.17v10.31c-.01 3.54.19 6.28.46 6.28.19 0 .33-1.26.41-3.18v2.76h.17v-16.17h-.17v9.2c0 .67-.01 1.34-.04 1.95v.02Z" style="fill:#111;fill-rule:nonzero" transform="matrix(4.64058 0 0 .35804 -8045.07 -318.125)"/><path d="M2105.95 2408.54h.176v8.571h-.176z" style="fill:#111" transform="matrix(4.64058 0 0 .35804 -8045.07 -318.125)"/><path d="m2106.48 2408.12-.18.39v22.37h.18v-22.76Zm.35 0-.18.39v22.37h.18v-22.76Zm-84.65 42.12-.18.39v22.36h.18v-22.75Zm.38 6.59h-.18v16.16h.18v-16.16Zm-.09-6.17c-.07 0-.12.72-.12 1.58 0 .87.05 1.6.12 1.6.07 0 .13-.73.13-1.6 0-.86-.06-1.58-.13-1.58Zm.47 13.71v-13.71h-.17v22.33h.17v-5.28l.18-2.51.48 7.79h.23l-.58-9.48.47-6.68h-.24l-.54 7.54Zm1.87-.7h-.83c.02-1.23.06-2.37.13-3.27.08-1.12.2-1.73.31-1.73.08 0 .15.28.21.81.09.78.16 2.18.18 4.19Zm-.83-4.86c-.12 1.59-.18 3.77-.18 6.03 0 4.75.26 8.57.62 8.57.35 0 .51-1.78.51-1.78l-.11-1.87s-.15 1.37-.4 1.37c-.24 0-.41-2.21-.44-5.14h1.01v-1.4c-.01-3.49-.12-5.75-.26-7.01-.09-.78-.2-1.17-.31-1.17-.16 0-.32.81-.44 2.4Zm1.36-8.57-.18.39v22.36h.18v-22.75Zm.78 19.76-.45-13.17h-.2l.55 16.18-.11 3.09c-.03.64-.08 1.09-.13 1.09s-.09-.2-.12-.59l-.13 1.68c.07.83.15 1.31.25 1.31.13 0 .25-1.01.3-2.54l.68-20.22h-.2l-.44 13.17Zm1.64-10.38v-8.96h-.18v22.33h.18v-9.16c0-.67.01-1.34.03-1.95.06-1.79.2-3.07.35-3.07.17 0 .3 1.67.31 3.88v10.3h.18v-10.25c0-3.54-.2-6.3-.47-6.3-.18 0-.32 1.25-.4 3.18Zm2.13 5.08v.42c-.01 3.33-.21 6.01-.46 6.01-.26 0-.46-2.8-.46-6.2 0-3.41.2-6.23.46-6.23.25 0 .45 2.68.46 6Zm0 5.17v3.12h.18v-16.16h-.18v3.17c-.09-2.17-.25-3.59-.46-3.59-.36 0-.64 3.82-.64 8.52 0 4.69.28 8.48.64 8.48.21 0 .37-1.39.46-3.54Zm1.01.12-.45-13.16h-.2l.55 16.16h.2l.54-16.16h-.2l-.44 13.16Zm1.64-6.32h-.83c.02-1.23.07-2.37.13-3.27.09-1.12.2-1.73.32-1.73.07 0 .15.28.21.81.09.78.15 2.18.17 4.19Zm-.82-4.86c-.12 1.59-.19 3.77-.19 6.03 0 4.75.27 8.57.62 8.57.36 0 .52-1.78.52-1.78l-.11-1.87s-.15 1.37-.41 1.37c-.23 0-.4-2.21-.44-5.14h1.01v-1.4c0-3.49-.11-5.75-.26-7.01-.09-.78-.19-1.17-.3-1.17-.16 0-.32.81-.44 2.4Zm2.91 5.89v.42c-.01 3.33-.21 6.01-.46 6.01-.26 0-.46-2.8-.46-6.2 0-3.41.2-6.23.46-6.23.25 0 .45 2.68.46 6Zm0 5.17v3.12h.18v-16.16h-.18v3.17c-.09-2.17-.25-3.59-.46-3.59-.35 0-.64 3.82-.64 8.52 0 4.69.29 8.48.64 8.48.21 0 .37-1.39.46-3.54Zm1.18-10.25v-8.96h-.17v22.33h.17v-9.16c0-.67.01-1.34.04-1.95.06-1.79.2-3.07.35-3.07.17 0 .3 1.67.31 3.88v10.3h.18v-10.25h-.01c.01-3.54-.19-6.3-.46-6.3-.19 0-.33 1.25-.41 3.18Zm2.14 5.08v.42c-.01 3.33-.21 6.01-.46 6.01-.26 0-.47-2.8-.47-6.2 0-3.41.21-6.23.47-6.23.25 0 .45 2.68.46 6Zm0 5.17v3.12h.17v-16.16h-.17v3.17c-.09-2.17-.25-3.59-.46-3.59-.36 0-.64 3.82-.64 8.52 0 4.69.28 8.48.64 8.48.21 0 .37-1.39.46-3.54Zm.54-11.98v-1.51h-.18v16.61h.18v-10.77c0-2.16.13-3.89.3-3.89.06 0 .16.17.16.17v-2.32s-.1-.22-.16-.22c-.14 0-.24.76-.3 1.93Zm1.55 6.84v.42c-.01 3.32-.21 5.98-.46 5.98-.26 0-.47-2.8-.47-6.2 0-3.41.21-6.21.47-6.21.25 0 .45 2.69.46 6.01Zm0-4.75c-.09-2.15-.25-3.54-.46-3.54-.36 0-.64 3.79-.64 8.49 0 4.69.28 8.48.64 8.48.21 0 .37-1.39.46-3.54v3.12h.18v-22.33h-.18v9.32Zm1.38-3.15v-4.28l-.17.4v3.88h-.21v2.28h.21v9.42c0 2.71.16 4.88.37 4.88.09 0 .22-.41.22-.41l-.03-2.07s-.08.2-.19.2-.2-1.15-.2-2.57v-9.45h.38v-2.28h-.38Zm.81 0h-.18v16.16h.18v-16.16Zm-.09-6.17c-.07 0-.12.72-.12 1.58 0 .87.05 1.6.12 1.6.06 0 .12-.73.12-1.6 0-.86-.06-1.58-.12-1.58Zm1.31 9.74c-.06-2.35-.23-3.99-.44-3.99-.18 0-.32 1.25-.4 3.18v-2.76h-.18v16.16h.18v-9.17c0-.66.01-1.33.03-1.95.06-1.81.2-3.09.35-3.09.18 0 .31 1.67.31 3.88v10.33h.18v-9.18c0-.67.01-1.34.03-1.96.07-1.79.21-3.07.36-3.07.17 0 .3 1.67.31 3.88v10.33h.18v-10.27c0-3.55-.2-6.31-.48-6.31-.2 0-.35 1.64-.43 3.99Zm2.08 3.27h-.83c.02-1.23.06-2.37.13-3.27.08-1.12.2-1.73.31-1.73.08 0 .15.28.21.81.09.78.16 2.18.18 4.19Zm-.83-4.86c-.12 1.59-.18 3.77-.18 6.03 0 4.75.26 8.57.61 8.57.36 0 .52-1.78.52-1.78l-.11-1.87s-.15 1.37-.41 1.37c-.23 0-.4-2.21-.44-5.14h1.02v-1.4c-.01-3.49-.12-5.75-.26-7.01-.09-.78-.2-1.17-.31-1.17-.16 0-.32.81-.44 2.4Zm1.99-4.41v2.37h-.17v2.32h.17v13.9h.18v-13.9h.31v-2.32h-.31v-2.37c0-1.43.09-2.55.2-2.55.09 0 .14.09.14.09l.02-2.09s-.07-.31-.16-.31c-.21 0-.38 2.17-.38 4.86Zm.92 2.43h-.18v16.16h.18v-16.16Zm-.09-6.17c-.06 0-.12.72-.12 1.58 0 .87.06 1.6.12 1.6.07 0 .12-.73.12-1.6 0-.86-.05-1.58-.12-1.58Zm.47 8.96v-2.79h-.17v16.16h.17v-9.17c0-.66.02-1.33.04-1.95.06-1.81.2-3.09.35-3.09.17 0 .3 1.67.31 3.88v10.33h.18v-10.27c0-3.55-.2-6.31-.48-6.31-.18 0-.32 1.25-.4 3.18v.03Zm2.14 5.11v.42c-.01 3.32-.21 5.98-.46 5.98-.26 0-.47-2.8-.47-6.2 0-3.41.21-6.21.47-6.21.25 0 .45 2.69.46 6.01Zm0-4.75c-.09-2.15-.25-3.54-.46-3.54-.36 0-.64 3.79-.64 8.49 0 4.69.28 8.48.64 8.48.21 0 .37-1.39.46-3.54v3.12h.17v-22.33h-.17v9.32Zm.57-3.15h-.18v16.16h.18v-16.16Zm-.09-6.17c-.07 0-.12.72-.12 1.58 0 .87.05 1.6.12 1.6.07 0 .12-.73.12-1.6 0-.86-.05-1.58-.12-1.58Zm.47 8.96v-2.79h-.18v16.16h.18v-9.17c0-.66.01-1.33.04-1.95.06-1.81.2-3.09.35-3.09.17 0 .3 1.67.31 3.88v10.33h.17v-10.27c.01-3.55-.19-6.31-.47-6.31-.18 0-.32 1.25-.4 3.18v.03Zm2.03 4.08v.92c-.02 2.79-.2 5.03-.41 5.03-.23 0-.41-2.46-.41-5.48 0-3.02.18-5.5.41-5.5.21 0 .39 2.23.41 5.03Zm-.44 15.89c.37 0 .61-2.99.61-8.05v-14.71h-.17v2.62c-.09-1.87-.22-3.04-.41-3.04-.32 0-.58 3.46-.58 7.76s.26 7.76.58 7.76c.19 0 .32-1.17.41-3.01v2.88c-.01 3.54-.18 5.5-.44 5.5s-.43-1.31-.43-1.31l-.09 1.92s.2 1.68.52 1.68Zm2.35-21.65s-.12-1.98-.42-1.98c-.29 0-.46 2.46-.46 5 0 .33 0 .67.01 1 .04 2.21.17 3.11.34 3.64.15.53.35.58.37 2.79v.2c0 .55-.02 1.09-.06 1.48-.05.58-.13.92-.22.92-.21 0-.38-1.43-.38-1.43l-.1 2.07s.22 1.78.48 1.78c.29 0 .47-2.34.47-4.82v-.54c-.03-3.07-.22-3.96-.42-4.55-.12-.33-.27-.56-.3-2.12v-.48c0-1.37.11-2.48.27-2.48.19 0 .28 1.14.28 1.14l.14-1.62Zm.83.76c.26 0 .47 2.79.47 6.23 0 3.43-.21 6.2-.47 6.2-.25 0-.46-2.77-.46-6.2 0-3.44.21-6.23.46-6.23Zm0-2.29c-.35 0-.64 3.82-.64 8.52 0 4.69.29 8.48.64 8.48.36 0 .64-3.79.64-8.48 0-4.7-.28-8.52-.64-8.52Zm1.84 3.99c-.07-2.35-.24-3.99-.44-3.99-.19 0-.33 1.25-.41 3.18v-2.76h-.17v16.16h.17v-9.17c0-.66.02-1.33.04-1.95.06-1.81.2-3.09.35-3.09.17 0 .3 1.67.31 3.88v10.33h.18v-9.18c0-.67.01-1.34.03-1.96.06-1.79.2-3.07.35-3.07.17 0 .31 1.67.31 3.88v10.33h.18v-10.27c0-3.55-.2-6.31-.47-6.31-.21 0-.36 1.64-.43 3.99Zm2.07 3.27h-.83c.02-1.23.06-2.37.13-3.27.09-1.12.2-1.73.32-1.73.07 0 .14.28.21.81.09.78.15 2.18.17 4.19Zm-.83-4.86c-.11 1.59-.18 3.77-.18 6.03 0 4.75.27 8.57.62 8.57s.52-1.78.52-1.78l-.11-1.87s-.15 1.37-.41 1.37c-.23 0-.4-2.21-.44-5.14h1.01v-1.4c0-3.49-.11-5.75-.26-7.01-.09-.78-.2-1.17-.3-1.17-.16 0-.33.81-.45 2.4Zm1.81-.11c.26 0 .47 2.79.47 6.23 0 3.43-.21 6.2-.47 6.2s-.46-2.77-.46-6.2c0-3.44.2-6.23.46-6.23Zm0-2.29c-.35 0-.64 3.82-.64 8.52 0 4.69.29 8.48.64 8.48.36 0 .64-3.79.64-8.48 0-4.7-.28-8.52-.64-8.52Zm.99 3.21v-2.79h-.17v16.16h.17v-9.17c0-.66.01-1.33.04-1.95.06-1.81.2-3.09.35-3.09.17 0 .3 1.67.31 3.88v10.33h.18v-10.27c0-3.55-.2-6.31-.47-6.31-.19 0-.33 1.25-.41 3.18v.03Zm2.05 4.05h-.83c.02-1.23.06-2.37.12-3.27.09-1.12.21-1.73.32-1.73.08 0 .15.28.21.81.09.78.16 2.18.18 4.19Zm-.83-4.86c-.12 1.59-.18 3.77-.18 6.03 0 4.75.26 8.57.62 8.57.35 0 .51-1.78.51-1.78l-.11-1.87s-.15 1.37-.4 1.37c-.24 0-.41-2.21-.44-5.14h1.01v-1.4c-.01-3.49-.12-5.75-.26-7.01-.09-.78-.2-1.17-.31-1.17-.16 0-.32.81-.44 2.4Zm2.72-1.98-.35 12.51-.35-12.51h-.2l.45 16.16h.2l.35-12.54.35 12.54h.2l.45-16.16h-.2l-.35 12.51-.35-12.51h-.2Zm1.45 2.79v-8.96h-.18v22.33h.18v-9.16c0-.67.01-1.34.03-1.95.06-1.79.2-3.07.35-3.07.18 0 .3 1.67.31 3.88v10.3h.18v-10.25c0-3.54-.2-6.3-.47-6.3-.18 0-.32 1.25-.4 3.18Zm1.67-.92c.26 0 .47 2.79.47 6.23 0 3.43-.21 6.2-.47 6.2s-.47-2.77-.47-6.2c0-3.44.21-6.23.47-6.23Zm0-2.29c-.35 0-.64 3.82-.64 8.52 0 4.69.29 8.48.64 8.48.35 0 .64-3.79.64-8.48 0-4.7-.29-8.52-.64-8.52Zm2.55 8.32v.42c-.01 3.32-.21 5.98-.46 5.98-.26 0-.47-2.8-.47-6.2 0-3.41.21-6.21.47-6.21.25 0 .45 2.69.46 6.01Zm0-4.75c-.09-2.15-.25-3.54-.46-3.54-.36 0-.64 3.79-.64 8.49 0 4.69.28 8.48.64 8.48.21 0 .37-1.39.46-3.54v3.12h.17v-22.33h-.17v9.32Zm.99-1.28c.26 0 .47 2.79.47 6.23 0 3.43-.21 6.2-.47 6.2s-.47-2.77-.47-6.2c0-3.44.21-6.23.47-6.23Zm0-2.29c-.36 0-.64 3.82-.64 8.52 0 4.69.28 8.48.64 8.48.35 0 .64-3.79.64-8.48 0-4.7-.29-8.52-.64-8.52Zm1.81 7.26h-.83c.02-1.23.06-2.37.13-3.27.08-1.12.2-1.73.31-1.73.08 0 .15.28.21.81.1.78.16 2.18.18 4.19Zm-.83-4.86c-.12 1.59-.18 3.77-.18 6.03 0 4.75.26 8.57.62 8.57.35 0 .51-1.78.51-1.78l-.11-1.87s-.14 1.37-.4 1.37c-.23 0-.4-2.21-.44-5.14h1.01v-1.4c-.01-3.49-.12-5.75-.26-7.01-.09-.78-.2-1.17-.31-1.17-.15 0-.32.81-.44 2.4Zm1.99-.87s-.13-1.98-.43-1.98c-.28 0-.46 2.46-.46 5 0 .33.01.67.01 1 .04 2.21.18 3.11.34 3.64.15.53.35.58.38 2.79v.2c0 .55-.02 1.09-.06 1.48-.05.58-.13.92-.22.92-.21 0-.38-1.43-.38-1.43l-.1 2.07s.21 1.78.48 1.78c.28 0 .47-2.34.47-4.82 0-.17 0-.37-.01-.54-.03-3.07-.21-3.96-.41-4.55-.13-.33-.27-.56-.3-2.12 0-.17-.01-.31-.01-.48 0-1.37.12-2.48.27-2.48.2 0 .29 1.14.29 1.14l.14-1.62Zm1.02 1.68v-2.79h-.18v16.16h.18v-9.17c0-.66.01-1.33.04-1.95.06-1.81.2-3.09.35-3.09.17 0 .3 1.67.31 3.88v10.33h.18v-10.27c0-3.55-.21-6.31-.48-6.31-.18 0-.32 1.25-.4 3.18v.03Zm1.67-.92c.26 0 .47 2.79.47 6.23 0 3.43-.21 6.2-.47 6.2-.25 0-.46-2.77-.46-6.2 0-3.44.21-6.23.46-6.23Zm0-2.29c-.35 0-.63 3.82-.63 8.52 0 4.69.28 8.48.63 8.48.36 0 .65-3.79.65-8.48 0-4.7-.29-8.52-.65-8.52Zm1.04.42v-4.28l-.18.4v3.88h-.2v2.28h.2v9.42c0 2.71.17 4.88.38 4.88.08 0 .22-.41.22-.41l-.04-2.07s-.07.2-.18.2c-.11 0-.2-1.15-.2-2.57v-9.45h.37v-2.28h-.37Zm1.41 8.29v-.42c.01-3.32.21-6 .46-6 .26 0 .47 2.82.47 6.23 0 3.4-.21 6.2-.47 6.2-.25 0-.45-2.68-.46-6.01Zm0-5.14v-3.15h-.18v22.37h.18v-9.33c.09 2.15.25 3.54.46 3.54.36 0 .64-3.79.64-8.47 0-4.71-.28-8.53-.64-8.53-.21 0-.37 1.42-.46 3.57Zm1.45-2.09v-1.51h-.18v16.61h.18v-10.77c0-2.16.13-3.89.3-3.89.05 0 .16.17.16.17v-2.32s-.11-.22-.16-.22c-.14 0-.24.76-.3 1.93Zm1.08.81c.26 0 .47 2.79.47 6.23 0 3.43-.21 6.2-.47 6.2s-.46-2.77-.46-6.2c0-3.44.2-6.23.46-6.23Zm0-2.29c-.35 0-.64 3.82-.64 8.52 0 4.69.29 8.48.64 8.48.36 0 .64-3.79.64-8.48 0-4.7-.28-8.52-.64-8.52Zm.99 3.21v-2.79h-.17v16.16h.17v-9.17c0-.66.01-1.33.04-1.95.06-1.81.2-3.09.35-3.09.17 0 .3 1.67.31 3.88v10.33h.18v-10.27c0-3.55-.2-6.31-.47-6.31-.19 0-.33 1.25-.41 3.18v.03Zm1.68-.92c.25 0 .46 2.79.46 6.23 0 3.43-.21 6.2-.46 6.2-.26 0-.47-2.77-.47-6.2 0-3.44.21-6.23.47-6.23Zm0-2.29c-.36 0-.64 3.82-.64 8.52 0 4.69.28 8.48.64 8.48.35 0 .64-3.79.64-8.48 0-4.7-.29-8.52-.64-8.52Zm1.65 11.59c-.07 1.79-.2 3.07-.35 3.07-.17 0-.31-1.67-.32-3.88v-10.36h-.17v10.3c0 3.55.2 6.28.47 6.28.18 0 .32-1.25.4-3.18v2.76h.18v-16.16h-.18v9.2c0 .67-.01 1.34-.03 1.95v.02Zm.56-8.38v-2.79h-.18v16.16h.18v-9.17c0-.66.01-1.33.03-1.95.06-1.81.2-3.09.35-3.09.17 0 .3 1.67.31 3.88v10.33h.18v-10.27c0-3.55-.2-6.31-.47-6.31-.18 0-.32 1.25-.4 3.18v.03Zm2.22 1.03c-.11-2.62-.32-4.24-.55-4.24-.35 0-.64 3.82-.64 8.52 0 4.69.29 8.48.64 8.48.23 0 .44-1.61.55-4.24l-.14-1.14c-.09 1.92-.24 3.1-.41 3.1-.26 0-.47-2.77-.47-6.2 0-3.44.21-6.23.47-6.23.17 0 .32 1.17.41 3.1l.14-1.15Zm1.1 3.02h-.83c.02-1.23.06-2.37.13-3.27.08-1.12.2-1.73.31-1.73.08 0 .15.28.21.81.1.78.16 2.18.18 4.19Zm-.83-4.86c-.12 1.59-.18 3.77-.18 6.03 0 4.75.27 8.57.62 8.57s.52-1.78.52-1.78l-.12-1.87s-.14 1.37-.4 1.37c-.23 0-.4-2.21-.44-5.14h1.01v-1.4c0-3.49-.11-5.75-.26-7.01-.09-.78-.2-1.17-.31-1.17-.16 0-.32.81-.44 2.4Zm2-8.15h-.17v8.57h.17v-8.57Zm.36 0h-.18v8.57h.18v-8.57Zm.55 6.17v-4.28l-.18.4v3.88h-.2v2.28h.2v9.42c0 2.71.17 4.88.38 4.88.09 0 .22-.41.22-.41l-.03-2.07s-.08.2-.19.2-.2-1.15-.2-2.57v-9.45h.38v-2.28h-.38Zm.77 2.79v-8.96h-.17v22.33h.17v-9.16c0-.67.01-1.34.03-1.95.07-1.79.2-3.07.36-3.07.17 0 .3 1.67.31 3.88v10.3h.17v-10.25c0-3.54-.19-6.3-.47-6.3-.18 0-.32 1.25-.4 3.18Zm2.04 4.05h-.83c.02-1.23.07-2.37.13-3.27.09-1.12.2-1.73.32-1.73.07 0 .14.28.21.81.09.78.16 2.18.17 4.19Zm-.82-4.86c-.12 1.59-.19 3.77-.19 6.03 0 4.75.27 8.57.62 8.57.36 0 .52-1.78.52-1.78l-.11-1.87s-.15 1.37-.41 1.37c-.23 0-.4-2.21-.44-5.14h1.01v-1.4c0-3.49-.11-5.75-.26-7.01-.09-.78-.19-1.17-.3-1.17-.16 0-.32.81-.44 2.4Zm1.35-8.15h-.18v8.57h.18v-8.57Zm.36 0h-.18v8.57h.18v-8.57Zm1.91 14.04v.42c-.01 3.33-.21 6.01-.46 6.01-.26 0-.47-2.8-.47-6.2 0-3.41.21-6.23.47-6.23.25 0 .45 2.68.46 6Zm0 5.17v3.12h.18v-16.16h-.18v3.17c-.09-2.17-.25-3.59-.46-3.59-.36 0-.64 3.82-.64 8.52 0 4.69.28 8.48.64 8.48.21 0 .37-1.39.46-3.54Zm1.27-11.93s-.12-1.98-.42-1.98c-.29 0-.46 2.46-.46 5 0 .33 0 .67.01 1 .04 2.21.17 3.11.34 3.64.15.53.35.58.37 2.79v.2c0 .55-.02 1.09-.06 1.48-.05.58-.13.92-.22.92-.21 0-.38-1.43-.38-1.43l-.1 2.07s.21 1.78.48 1.78c.28 0 .47-2.34.47-4.82v-.54c-.03-3.07-.22-3.96-.42-4.55-.12-.33-.27-.56-.3-2.12v-.48c0-1.37.11-2.48.27-2.48.19 0 .28 1.14.28 1.14l.14-1.62Zm1.02-7.28h-.17v8.57h.17v-8.57Zm.36 0h-.17v8.57h.17v-8.57Zm.17 8.48h.72l-.72 11.54v2.31h.94v-2.31h-.72l.72-11.54v-2.31h-.94v2.31Zm2.01 4.53h-.83c.02-1.23.06-2.37.13-3.27.08-1.12.2-1.73.31-1.73.08 0 .15.28.21.81.09.78.16 2.18.18 4.19Zm-.83-4.86c-.12 1.59-.18 3.77-.18 6.03 0 4.75.26 8.57.62 8.57.35 0 .51-1.78.51-1.78l-.11-1.87s-.15 1.37-.4 1.37c-.23 0-.41-2.21-.44-5.14h1.01v-1.4c-.01-3.49-.12-5.75-.26-7.01-.09-.78-.2-1.17-.31-1.17-.16 0-.32.81-.44 2.4Zm1.36-8.15h-.18v8.57h.18v-8.57Zm.35 0h-.17v8.57h.17v-8.57Zm.18 21.19c0 .87.05 1.56.12 1.56.07 0 .12-.69.12-1.56 0-.86-.05-1.59-.12-1.59-.07 0-.12.73-.12 1.59Z" style="fill:#111;fill-rule:nonzero" transform="matrix(4.64058 0 0 .35804 -8045.07 -318.125)"/><path d="M1079.57 542.5H1127v-5h-47.43l6.98-6.982-3.53-3.536L1070 540l13.02 13.018 3.53-3.536-6.98-6.982Z" style="fill:#111"/><path d="M106.061 2058.65c6.444 0 11.641 5.28 11.641 11.9 0 6.61-5.197 11.98-11.641 11.98-6.443 0-11.64-5.37-11.64-11.98 0-6.62 5.197-11.9 11.64-11.9Zm0-1.16c-7.044 0-12.752 5.84-12.752 13.06 0 7.21 5.708 13.09 12.752 13.09 7.045 0 12.752-5.88 12.752-13.09 0-7.22-5.707-13.06-12.752-13.06Zm17.653-3.69v4.25h-4.638v1.11h4.638V2083h1.112v-23.84h7.386v-1.11h-7.386v-4.34c.042-3.14 2.619-5.67 5.754-5.67 1.976 0 3.049.43 3.049.43l.172-1.12c0 .01-1.417-.42-3.221-.42-3.779 0-6.866 3.09-6.866 6.87Z" style="fill:#eee;fill-rule:nonzero" transform="matrix(0 4.71437 -4.70979 0 11189.2 335.378)"/><path d="M699.249 3236.68a3.746 3.746 0 0 0 4.939-1.89 3.74 3.74 0 0 0-1.89-4.94h-.001a3.737 3.737 0 0 0-4.938 1.89 3.742 3.742 0 0 0 1.89 4.94Zm-27.505-11.08a3.743 3.743 0 0 0 4.796-2.22 3.744 3.744 0 0 0-2.227-4.8 3.737 3.737 0 1 0-2.569 7.02Zm-28.173-9.49a3.738 3.738 0 1 0 2.223-7.14 3.729 3.729 0 0 0-4.682 2.46 3.741 3.741 0 0 0 2.459 4.68Zm-28.59-8.44h.001c1.987.56 4.053-.6 4.61-2.59a3.741 3.741 0 0 0-2.591-4.61 3.737 3.737 0 0 0-4.611 2.59 3.741 3.741 0 0 0 2.591 4.61Zm-28.815-7.73a3.744 3.744 0 0 0 4.553-2.69c.514-2-.691-4.04-2.69-4.55a3.735 3.735 0 0 0-4.553 2.69c-.514 2 .691 4.04 2.69 4.55Zm-28.976-7.2a3.741 3.741 0 0 0 4.511-2.76 3.738 3.738 0 0 0-2.76-4.51h-.001a3.742 3.742 0 0 0-4.511 2.76 3.737 3.737 0 0 0 2.761 4.51Zm-29.086-6.83c2.011.46 4.02-.8 4.483-2.81a3.737 3.737 0 0 0-2.805-4.48h-.001a3.732 3.732 0 0 0-4.482 2.8 3.752 3.752 0 0 0 2.805 4.49Zm-29.155-6.63a3.733 3.733 0 0 0 4.469-2.82 3.738 3.738 0 0 0-2.827-4.47h-.001a3.731 3.731 0 0 0-4.468 2.83 3.732 3.732 0 0 0 2.827 4.46Zm-29.189-6.55a3.74 3.74 0 1 0 1.64-7.298 3.74 3.74 0 0 0-1.64 7.298Zm-29.191-6.63c2.011.46 4.02-.79 4.484-2.8a3.748 3.748 0 0 0-2.805-4.49 3.75 3.75 0 0 0-4.484 2.81 3.737 3.737 0 0 0 2.805 4.48Zm-29.158-6.87a3.737 3.737 0 0 0 4.513-2.75 3.749 3.749 0 0 0-2.756-4.52 3.744 3.744 0 0 0-4.513 2.76c-.485 2 .75 4.03 2.756 4.51Zm-29.077-7.39a3.735 3.735 0 1 0 1.923-7.22 3.736 3.736 0 1 0-1.923 7.22Zm-28.903-8.06a3.742 3.742 0 0 0 2.101-7.18 3.743 3.743 0 0 0-4.64 2.54 3.743 3.743 0 0 0 2.539 4.64Zm-28.692-8.84a3.738 3.738 0 1 0 2.307-7.11 3.74 3.74 0 0 0-4.711 2.4 3.743 3.743 0 0 0 2.404 4.71Zm-28.42-9.73h.001c1.94.7 4.086-.31 4.788-2.25a3.746 3.746 0 0 0-2.244-4.79 3.743 3.743 0 0 0-2.545 7.04Zm-28.066-10.76a3.75 3.75 0 0 0 4.872-2.06 3.74 3.74 0 0 0-6.929-2.82 3.748 3.748 0 0 0 2.057 4.88Zm-27.614-11.93a3.74 3.74 0 1 0-1.838-4.96 3.744 3.744 0 0 0 1.838 4.96Zm-27.035-13.24c1.83.95 4.091.24 5.046-1.58.956-1.83.247-4.1-1.582-5.05h-.001a3.736 3.736 0 0 0-5.046 1.58 3.748 3.748 0 0 0 1.583 5.05Zm-26.297-14.7a3.742 3.742 0 0 0 5.129-1.29 3.743 3.743 0 0 0-1.289-5.13 3.742 3.742 0 0 0-5.129 1.29 3.743 3.743 0 0 0 1.289 5.13Zm-25.37-16.3a3.74 3.74 0 0 0 5.201-.95 3.739 3.739 0 0 0-.954-5.2l-.001-.01a3.743 3.743 0 0 0-5.201.96 3.739 3.739 0 0 0 .955 5.2Zm-24.221-18a3.743 3.743 0 0 0 5.257-.58 3.746 3.746 0 0 0-.58-5.26 3.743 3.743 0 0 0-5.257.58 3.745 3.745 0 0 0 .58 5.26Zm-22.823-19.77a3.748 3.748 0 0 0 5.286-.17 3.746 3.746 0 0 0-.17-5.29 3.738 3.738 0 0 0-5.285.17c-1.412 1.5-1.336 3.87.169 5.29Zm-21.172-21.56a3.736 3.736 0 0 0 5.281.26 3.738 3.738 0 1 0-5.013-5.55 3.751 3.751 0 0 0-.268 5.29Zm-19.282-23.28a3.751 3.751 0 0 0 5.239.72 3.743 3.743 0 0 0 .721-5.24 3.733 3.733 0 0 0-5.239-.72 3.74 3.74 0 0 0-.721 5.24ZM57.24 2950.8a3.74 3.74 0 0 0 5.157 1.18 3.744 3.744 0 0 0 1.172-5.16 3.737 3.737 0 0 0-5.157-1.17 3.735 3.735 0 0 0-1.172 5.15Zm-14.992-26.24h.001a3.751 3.751 0 0 0 5.038 1.61 3.745 3.745 0 0 0 1.607-5.04 3.734 3.734 0 0 0-5.038-1.61 3.743 3.743 0 0 0-1.608 5.04Zm-12.74-27.4a3.743 3.743 0 0 0 4.89 2.02 3.743 3.743 0 0 0-2.877-6.91 3.745 3.745 0 0 0-2.013 4.89Zm-10.526-28.3a3.738 3.738 0 0 0 4.722 2.38 3.737 3.737 0 0 0 2.381-4.72 3.736 3.736 0 0 0-4.721-2.38 3.74 3.74 0 0 0-2.382 4.72Zm-8.409-28.98v.01c.506 2 2.541 3.21 4.542 2.7a3.737 3.737 0 0 0 2.709-4.54 3.747 3.747 0 0 0-4.542-2.71 3.741 3.741 0 0 0-2.709 4.54Zm-6.243-29.53a3.746 3.746 0 0 0 4.327 3.04 3.744 3.744 0 0 0 3.041-4.33 3.746 3.746 0 0 0-4.326-3.04 3.745 3.745 0 0 0-3.042 4.33Zm-4.047-29.93a3.736 3.736 0 0 0 4.077 3.37 3.743 3.743 0 0 0 3.368-4.08 3.75 3.75 0 0 0-4.078-3.37 3.748 3.748 0 0 0-3.367 4.08Zm.078-30.16a3.736 3.736 0 0 0 3.796 3.68 3.737 3.737 0 0 0 3.682-3.79 3.73 3.73 0 0 0-3.797-3.68 3.737 3.737 0 0 0-3.681 3.79Zm-.047-29.97c0 2.06 1.676 3.74 3.74 3.74a3.744 3.744 0 0 0 3.739-3.74c0-2.07-1.675-3.74-3.739-3.74a3.738 3.738 0 0 0-3.74 3.74Zm0-29.92c0 2.07 1.676 3.74 3.74 3.74a3.737 3.737 0 0 0 3.739-3.74c0-2.06-1.675-3.74-3.739-3.74a3.745 3.745 0 0 0-3.74 3.74Zm0-29.91c0 2.06 1.676 3.74 3.74 3.74a3.744 3.744 0 0 0 3.739-3.74c0-2.07-1.675-3.74-3.739-3.74a3.738 3.738 0 0 0-3.74 3.74Z" style="fill:url(#b)" transform="matrix(1.00026 0 0 1.00125 -.266 -2164.03)"/><path d="M1105.52 2462.83s.03-.63-.06-.99c-1.06-7.86-6.8-10.89-13.15-13.01-6.44-2.1-13.79-3.45-20.54-5.1-15.67-3.88-28.51-10.28-32.39-26.25-.6-2.53-.9-4.92-.9-7.45 0-18.51 16.28-35.95 42.84-35.95 26.27 0 38.25 12.54 39.48 13.91l-14.9 13.27c-1.01-.89-8.75-7.28-24.58-7.28-7.87 0-14.49 2.55-18.53 6.49-2.71 2.63-4.26 5.89-4.26 9.41 0 .91 0 1.82.31 2.89 1.36 5.45 5.44 7.73 10.29 9.55 4.95 1.8 10.5 2.85 16.05 4.05 14.94 3.24 28.91 7.91 35.88 20.16v-.66c-7.11-11.96-20.97-16.6-35.81-19.82-5.53-1.2-11.07-2.25-16.01-4.04-4.74-1.78-8.75-3.99-10.08-9.33h-.01c-.29-1.03-.29-1.92-.29-2.8 0-3.44 1.52-6.61 4.16-9.18 3.99-3.88 10.53-6.39 18.3-6.39 16.85 0 24.46 7.29 24.46 7.29l.11.11 15.37-13.69-.1-.13s-11.88-14.14-39.84-14.14c-26.78 0-43.17 17.62-43.17 36.28 0 2.56.3 4.97.91 7.53 3.91 16.1 16.83 22.58 32.63 26.49 6.74 1.65 14.08 3 20.52 5.09 6.23 2.08 11.88 5.04 12.92 12.75v.01l.01.01c.08.34.04.92.04.92h.34Z" style="fill:#eee" transform="matrix(12.1128 0 0 12.1247 -12574.8 -28781)"/><path d="M80.206 2058.14H76.69V2083h3.516v-24.86Zm-1.758-9.49c-1.33 0-2.445 1.11-2.445 2.44 0 1.33 1.115 2.45 2.445 2.45 1.33 0 2.445-1.12 2.445-2.45s-1.115-2.44-2.445-2.44Zm9.279 5.75v3.65h-3.436v3.56h3.436V2083h3.559v-21.39h6.141v-3.56h-6.141v-3.65c0-2.19 1.717-3.91 3.908-3.91 1.889 0 2.748.13 2.748.13l.387-3.22s-1.246-.47-3.135-.47a7.466 7.466 0 0 0-7.467 7.47Z" style="fill:#eee;fill-rule:nonzero" transform="rotate(-42.371 -5937.22 2586.95) scale(2.33934)"/><path d="M553.554 123.03c-215.327-16.794-331.636 104.445-331.636 104.445l2.164 2.078s115.477-120.18 329.174-103.537l-6.95 5.842 1.93 2.296L559.128 125l-9.154-10.892-2.297 1.93 5.877 6.992Z" style="fill:#4b5"/><path d="m90.129 2081.63-10.221-23.49h-1.245l10.865 24.91-2.792 6.35c-.902 1.63-2.576 2.66-4.466 2.66a5.176 5.176 0 0 1-3.65-1.5l-.773.82a6.27 6.27 0 0 0 4.423 1.8c2.534 0 4.767-1.5 5.755-3.82l13.57-31.22h-1.245l-10.221 23.49Z" style="fill:#eee;fill-rule:nonzero" transform="rotate(9.942 31314.042 5173.413) scale(2.6547)"/><path d="M114.135 2058.65c6.443 0 11.641 5.28 11.641 11.9 0 6.61-5.198 11.98-11.641 11.98s-11.641-5.37-11.641-11.98c0-6.62 5.198-11.9 11.641-11.9Zm0-1.16c-7.045 0-12.752 5.84-12.752 13.06 0 7.21 5.707 13.09 12.752 13.09 7.045 0 12.752-5.88 12.752-13.09 0-7.22-5.707-13.06-12.752-13.06Z" style="fill:#eee;fill-rule:nonzero" transform="rotate(17.891 17504.569 4192.762) scale(2.6547)"/><path d="M130.328 2074.76c-.086 4.98 3.603 8.88 8.586 8.88 3.995 0 7.689-2.53 9.494-6.09v5.45h1.111v-24.86h-1.111v14.87c0 1.29-.301 2.53-.817 3.69-1.503 3.38-4.94 5.79-8.591 5.79-4.339 0-7.561-3.39-7.561-7.73v-16.62h-1.111v16.62Z" style="fill:#eee;fill-rule:nonzero" transform="rotate(31.528 9992.593 3631.537) scale(2.6547)"/><path d="M845.096 2624.03a3.742 3.742 0 0 0-4.976-5.59 3.742 3.742 0 0 0 4.976 5.59Zm-29.044-12.72a3.749 3.749 0 0 0 3.74 3.76 3.748 3.748 0 0 0 3.76-3.74 3.755 3.755 0 0 0-3.741-3.76 3.754 3.754 0 0 0-3.759 3.74Zm51.379-7.19a3.74 3.74 0 0 0 .304-5.28 3.741 3.741 0 0 0-5.584 4.98 3.736 3.736 0 0 0 5.28.3Zm22.335-19.9a3.741 3.741 0 0 0 .304-5.28 3.736 3.736 0 0 0-5.28-.3 3.741 3.741 0 0 0-.304 5.28 3.745 3.745 0 0 0 5.28.3Zm-69.854-6.65h-.024a3.749 3.749 0 1 0-.019 7.5h.024a3.753 3.753 0 0 0 3.735-3.74 3.753 3.753 0 0 0-3.716-3.76Zm92.189-13.25a3.741 3.741 0 0 0 .304-5.28 3.736 3.736 0 0 0-5.28-.3 3.73 3.73 0 0 0-.304 5.27 3.737 3.737 0 0 0 5.28.31Zm-92.112-16.75h-.025a3.754 3.754 0 0 0-3.759 3.74 3.748 3.748 0 0 0 3.74 3.76h.024a3.755 3.755 0 0 0 3.736-3.74 3.755 3.755 0 0 0-3.716-3.76Zm114.447-3.15a3.742 3.742 0 0 0-4.976-5.59 3.742 3.742 0 0 0 4.976 5.59Zm22.334-19.91a3.729 3.729 0 0 0 .304-5.27 3.735 3.735 0 0 0-5.279-.31 3.741 3.741 0 0 0-.304 5.28 3.735 3.735 0 0 0 5.279.3Zm-140.565-3.2a3.749 3.749 0 1 0 3.759-3.74 3.748 3.748 0 0 0-3.759 3.74Zm162.9-16.7a3.741 3.741 0 0 0 .304-5.28 3.741 3.741 0 0 0-5.583 4.98 3.735 3.735 0 0 0 5.279.3Zm22.335-19.9a3.736 3.736 0 0 0 .3-5.28 3.73 3.73 0 0 0-5.275-.3 3.742 3.742 0 0 0-.305 5.28 3.745 3.745 0 0 0 5.28.3Z" style="fill:#222" transform="translate(0 -2160)"/><path d="M817.747 483.192a3.74 3.74 0 1 0-.215-5.284 3.742 3.742 0 0 0 .215 5.284ZM308.596 481c2.208 0 4-1.792 4-4s-1.792-4-4-4c-2.207 0-4 1.792-4 4s1.793 4 4 4Zm16 0c2.208 0 4-1.792 4-4s-1.792-4-4-4c-2.207 0-4 1.792-4 4s1.793 4 4 4Zm-35.798-4c0 2.208 1.793 4 4 4 2.208 0 4-1.792 4-4s-1.792-4-4-4c-2.207 0-4 1.792-4 4Zm505.57-11.442a3.74 3.74 0 1 0-1.065-5.18 3.741 3.741 0 0 0 1.065 5.18ZM288.798 461c0 2.208 1.793 4 4 4 2.208 0 4-1.792 4-4s-1.792-4-4-4c-2.207 0-4 1.792-4 4Zm28.265-1.203a3.741 3.741 0 0 0 .552-5.259 3.74 3.74 0 0 0-5.812 4.707 3.742 3.742 0 0 0 5.26.552Zm451.876-9.318a3.74 3.74 0 0 0 3.529-6.594h-.001a3.741 3.741 0 0 0-5.061 1.532 3.742 3.742 0 0 0 1.533 5.062ZM288.798 445c0 2.208 1.793 4 4 4 2.208 0 4-1.792 4-4s-1.792-4-4-4c-2.207 0-4 1.792-4 4Zm52.264-2.241a3.74 3.74 0 0 0-3.951-6.349 3.74 3.74 0 0 0 3.951 6.349Zm401.231-5.218a3.74 3.74 0 1 0-1.917-4.929 3.742 3.742 0 0 0 1.917 4.929Zm-375.362-8.944a3.741 3.741 0 0 0-3.235-6.744 3.741 3.741 0 0 0 3.235 6.744Zm347.819-2.039v.001a3.74 3.74 0 0 0 2.533-7.037v-.001a3.74 3.74 0 0 0-2.533 7.037Zm-28.229-9.15h.001a3.74 3.74 0 0 0 2.083-7.183h-.001a3.74 3.74 0 0 0-2.083 7.183Zm-292.355-.245a3.743 3.743 0 0 0 2.234-4.794 3.741 3.741 0 0 0-4.794-2.233 3.741 3.741 0 0 0-2.234 4.793 3.743 3.743 0 0 0 4.794 2.234Zm263.605-7.174a3.742 3.742 0 0 0 4.476-2.817 3.74 3.74 0 1 0-4.476 2.817Zm-235.39-1.683h.001a3.742 3.742 0 0 0 2.651-4.576 3.74 3.74 0 1 0-2.652 4.576Zm206.251-4.098a3.74 3.74 0 0 0 1.256-7.373 3.742 3.742 0 0 0-4.315 3.058 3.742 3.742 0 0 0 3.059 4.315Zm-177.355-2.327a3.741 3.741 0 0 0 3.017-4.343 3.742 3.742 0 0 0-4.344-3.017 3.741 3.741 0 0 0-3.017 4.343 3.741 3.741 0 0 0 4.344 3.017Zm147.937-1.904a3.74 3.74 0 1 0-3.275-4.152 3.74 3.74 0 0 0 3.275 4.152Zm-118.603-2.219a3.74 3.74 0 1 0-4.1-3.34 3.741 3.741 0 0 0 4.1 3.34Zm88.999-.547a3.742 3.742 0 0 0 3.99-3.471 3.741 3.741 0 0 0-3.471-3.99 3.741 3.741 0 0 0-3.99 3.471 3.741 3.741 0 0 0 3.471 3.99Zm-29.713-1.386h.001a3.741 3.741 0 0 0 3.829-3.647 3.74 3.74 0 0 0-7.477-.182 3.741 3.741 0 0 0 3.647 3.829Zm-29.709-.01a3.742 3.742 0 0 0 3.626-3.85 3.74 3.74 0 0 0-7.476.225 3.741 3.741 0 0 0 3.85 3.625Z" style="fill:url(#c)"/><path d="m191.807 627.098-.908.83c-7.429 6.34-18.327 5.962-24.799-1.124-6.582-7.208-5.836-18.553 1.553-25.302 7.389-6.748 18.756-6.465 25.338.742 6.472 7.086 5.802 18.029-1.184 24.854Zm10.296-9.404c2.337-6.799 1.377-13.921-4.155-19.977-9.071-9.933-24.648-10.465-34.823-1.172-10.174 9.293-11.054 24.854-1.982 34.786 5.531 6.057 12.537 7.657 19.52 5.945l-6.774 6.187 4.527 4.957 48.431-44.232-4.528-4.957-20.216 18.463Zm83.965 68.866-27.877-14.642c2.26-2.891 5.276-5.107 8.747-6.25 4.43-1.381 9.117-.958 12.965 1.063a14.623 14.623 0 0 1 6.008 5.843c2.053 3.674 2.323 8.45.157 13.986Zm-21.165-27.244c-6.162 2.047-11.313 6.571-14.4 12.449-6.483 12.343-2.783 26.967 9.123 33.22 11.906 6.253 19.86 4.512 19.86 4.512l-1.22-6.847s-6.807.967-15.518-3.608c-7.768-4.08-10.561-12.869-7.789-21.145l34.047 17.882 1.904-3.625c4.621-9.151 4.009-16.98.859-22.798-1.983-3.631-5.08-6.552-8.71-8.458-5.372-2.822-11.993-3.618-18.156-1.582Zm95.944 28.074-2.223 6.611-6.218-2.091-2.166 6.441 6.218 2.091-13.018 38.706 6.441 2.166 13.018-38.705 11.114 3.738 2.166-6.441-11.114-3.738 2.224-6.612c1.334-3.966 5.489-6.032 9.453-4.699 3.419 1.151 4.895 1.907 4.895 1.907l2.658-5.586s-1.967-1.612-5.387-2.762c-7.461-2.509-15.55 1.508-18.061 8.974Zm85.14 32.499-6.499-1.682-11.892 45.954 6.5 1.682 11.891-45.954Zm1.29-18.386c-2.458-.636-5.053.893-5.689 3.351-.636 2.458.892 5.053 3.35 5.689 2.458.637 5.054-.892 5.69-3.35.636-2.458-.892-5.053-3.351-5.69Zm66.476 43.186 1.845-7.973-6.541-1.513-10.699 46.246 6.541 1.513 6.069-26.233c.442-1.913 1.365-3.716 2.57-5.285 3.514-4.639 9.48-7.13 15.074-5.836 6.394 1.479 10.08 7.382 8.94 13.767l-6.839 29.559 6.621 1.532 6.802-29.4c2.427-10.127-3.246-19.761-13.316-22.091-6.793-1.572-12.739.835-17.05 5.64l-.017.074Zm104.44 16.412-6.509-1.648-11.648 46.017 6.509 1.647 11.648-46.016Zm1.193-18.392c-2.462-.623-5.049.919-5.672 3.381-.623 2.461.919 5.048 3.38 5.671 2.462.624 5.049-.918 5.672-3.38.623-2.462-.919-5.049-3.38-5.672Zm76.321 40.564 3.907-11.922-6.737-1-3.55 10.831-7.325-2.401-2.091 6.38 7.325 2.401-8.609 26.267a14.297 14.297 0 0 0 9.16 18.095c3.039.996 8.33 1.438 8.33 1.438l.641-6.167s-2.906-.349-6.88-1.651c-3.974-1.302-6.2-5.571-4.897-9.546l8.635-26.345 13.636 4.469 2.091-6.38-13.636-4.469Zm83.478 33.451-6.031-2.949-20.854 42.641 6.032 2.95 20.853-42.642Zm4.946-17.754c-2.281-1.115-5.129-.138-6.245 2.143-1.115 2.281-.138 5.13 2.143 6.245 2.281 1.116 5.13.139 6.245-2.143 1.116-2.281.138-5.129-2.143-6.245Zm68.853 73.125c7.339 6.559 7.805 17.977 1.082 25.499-6.723 7.522-18.066 8.275-25.405 1.716-7.339-6.559-7.86-17.915-1.138-25.438 6.723-7.522 18.122-8.336 25.461-1.777Zm4.473-5.006c-10.03-8.964-25.635-7.856-34.817 2.419-9.183 10.274-8.483 25.844 1.547 34.808 10.03 8.964 25.58 7.917 34.763-2.357 9.182-10.275 8.537-25.906-1.493-34.87Zm52.537 84.719 7.588-3.067-2.516-6.224-44.008 17.789 2.516 6.225 24.963-10.091c1.821-.736 3.827-1.016 5.803-.93 5.816.215 11.281 3.668 13.433 8.992 2.459 6.084-.258 12.491-6.14 15.223l-28.129 11.371 2.547 6.3 27.976-11.309c9.686-3.826 14.318-14.002 10.444-23.585-2.613-6.464-7.996-9.951-14.406-10.722l-.071.028Z" style="fill:#eee;fill-rule:nonzero" transform="translate(4.123)"/></g><defs><linearGradient id="b" x1="0" x2="1" y1="0" y2="0" gradientTransform="translate(0 3240) scale(704.513)" gradientUnits="userSpaceOnUse"><stop offset="0" style="stop-color:#222;stop-opacity:1"/><stop offset="1" style="stop-color:#eee;stop-opacity:1"/></linearGradient><linearGradient id="c" x1="0" x2="1" y1="0" y2="0" gradientTransform="rotate(180 412.01 242.09) scale(535.222)" gradientUnits="userSpaceOnUse"><stop offset="0" style="stop-color:#222;stop-opacity:1"/><stop offset="1" style="stop-color:#eee;stop-opacity:1"/></linearGradient></defs></svg>