<svg xmlns="http://www.w3.org/2000/svg" xml:space="preserve" style="fill-rule:evenodd;clip-rule:evenodd;stroke-linejoin:round;stroke-miterlimit:2" viewBox="0 0 1920 1080"><path d="M1970 0h1920v1080H1970z" style="fill:none" transform="translate(-1970)"/><path d="M-85.775 4622.99v12.54H54.579v360.44h12.065v-360.44h139.422v-12.54H-85.775Zm367.381 166.94v-166.94h-38.178v372.98h38.178v-167.4h213.62v167.4h38.178v-372.98h-38.178v166.94h-213.62Zm288.664 206.54h251.332v-65.28H635.551v-88.13h136.158v-66.22H635.551v-89.06h186.051v-65.28H570.27v373.97Z" style="fill:#eee;fill-rule:nonzero" transform="translate(263.581 -3551.753) scale(.85075)"/><path d="M462.659 4690.98c-4.328 128.75-106.033 232.62-232.622 232.62-128.754 0-232.622-108.2-232.622-240.2 0-131.99 103.868-241.27 232.622-241.27 126.589 0 228.294 103.87 232.622 232.62v16.23Zm0-199.08c-45.443-83.25-124.426-138.33-232.622-138.33-177.442 0-321.182 148.07-321.182 329.83 0 181.77 143.74 328.76 321.182 328.76 108.196 0 187.179-54 232.622-137.25v361.15h88.56v-866.27h-88.56v122.11Zm601.391 310.55c-31.38 69.23-99.553 118.98-175.297 118.98-86.565 0-152.571-64.9-156.899-150.34v-401.3h-88.56v399.13c-1.081 137.37 99.381 243.24 235.72 243.24 91.976 0 161.226-48.6 202.346-123.18v106.95h88.56v-626.14h-88.56v356.25c0 25.91-6.49 51.82-17.31 75.57v.84Zm297.32-432.66h-88.56v626.14h88.56v-626.14Zm-44.28-239.04c-33.49 0-61.58 28.09-61.58 61.59 0 33.49 28.09 61.58 61.58 61.58 33.5 0 61.59-28.09 61.59-61.58 0-33.5-28.09-61.59-61.59-61.59Zm740.86 387.12c-57.32-101.66-163.32-164.3-277.98-164.3-177.39 0-321.11 148.07-321.11 329.83 0 181.77 143.72 328.76 321.11 328.76 114.66 0 220.66-62.64 277.98-164.3l-74.63-44.36c-42.18 74.65-118.98 120.1-203.35 120.1-129.8 0-234.72-107.12-234.72-240.2 0-133.07 104.92-241.27 234.72-241.27 84.37 0 161.17 45.44 203.35 120.1l74.63-44.36Zm175.23 143.98v-531.1h-88.56v865.18h88.56v-204.76l90.86-96.99 239.05 301.75h114.65l-292.04-367.49 239.04-258.65h-120.06l-271.5 292.06Z" style="fill:#eee;fill-rule:nonzero" transform="translate(848.662 347.001) scale(.02705)"/><path d="M-240.582 4692.06v-16.23c4.328-128.75 106.032-232.62 232.622-232.62 128.753 0 231.54 108.2 231.54 240.19 0 132-102.787 240.2-231.54 240.2-126.59 0-228.294-102.79-232.622-231.54Zm0-200.16v-361.15h-88.56v865.18h88.56v-121.99c45.442 84.22 124.426 138.22 232.622 138.22 177.442 0 320.1-146.99 320.1-328.76 0-181.76-142.658-328.75-320.1-328.75-108.196 0-187.18 54-232.622 137.25Zm724.704-81.01v-58.4h-90.723v643.44h90.723l1.082-417.42c0-83.38 67.062-150.44 150.349-150.44 28.123 0 80.042 6.49 80.042 6.49v-89.66s-53.001-8.64-80.042-8.64c-68.144 0-118.981 29.16-151.431 74.53v.1Zm545.218 31.24c129.84 0 234.79 108.2 234.79 241.27 0 133.08-104.95 240.2-234.79 240.2-129.834 0-234.784-107.12-234.784-240.2 0-133.07 104.95-241.27 234.784-241.27Zm0-88.56c-177.44 0-321.181 148.07-321.181 329.83 0 181.77 143.741 328.76 321.181 328.76 177.44 0 321.18-146.99 321.18-328.76 0-181.76-143.74-329.83-321.18-329.83Zm803.67 16.22-175.23 484.72-174.15-484.72h-101.67l224.98 626.14h101.68l175.22-485.8 174.15 485.8h101.67l226.07-626.14h-101.68l-175.22 484.72-174.15-484.72h-101.67Zm726.8 107.96v-107.96h-88.56v626.14h88.56v-355.17c0-25.91 6.49-51.82 17.31-75.57 31.38-70.06 100.63-119.82 176.37-119.82 86.57 0 151.49 64.9 155.82 150.35v400.21h89.64v-398.04c1.09-137.37-100.46-244.32-236.8-244.32-91.97 0-161.23 48.6-202.34 123.17v1.01Z" style="fill:#eee;fill-rule:nonzero" transform="translate(839.971 482.354) scale(.02705)"/><path d="M475.642 4685.45v39.66h-37.304v38.65h37.304v232.21h38.644v-232.21h66.68v-38.65h-66.68v-39.66c0-23.8 18.652-42.46 42.433-42.46 20.517 0 29.842 1.4 29.842 1.4l4.197-34.93s-13.522-5.12-34.039-5.12c-44.761 0-81.077 36.32-81.077 81.11Zm251.303 71.78c55.972 0 101.215 46.64 101.215 104.01 0 57.37-45.243 103.55-101.215 103.55-55.971 0-101.215-46.18-101.215-103.55s45.244-104.01 101.215-104.01Zm0-38.18c-76.494 0-138.46 63.83-138.46 142.19s61.966 141.73 138.46 141.73 138.46-63.37 138.46-141.73c0-78.36-61.966-142.19-138.46-142.19Zm261.591 108.28-69.478-101.28h-47.096l93.259 135.19-92.793 134.73h46.63l69.478-100.81 69.474 100.81h47.1l-93.26-134.73 93.26-135.19h-46.63l-69.944 101.28Z" style="fill:#4b5;fill-rule:nonzero" transform="translate(701.654 -3562.611) scale(.85301)"/><path d="M-432.38 4587.4c-15.525 0-28.547 12.52-28.547 28.05 0 15.53 13.022 28.55 28.547 28.55 15.526 0 28.548-13.02 28.548-28.55 0-15.53-13.022-28.05-28.548-28.05Zm-20.525 433.27c0 29.04-23.565 52.57-52.645 52.57-14.039 0-27.075-5.5-37.103-15.52l-29.08 29.04c17.548 17.52 41.113 27.54 66.183 27.54 51.642 0 93.696-42.06 93.696-93.63v-314.94h-41.051v314.94Zm307.846-114.39c-14.545 32.09-46.145 55.16-81.255 55.16-40.126 0-70.722-30.09-72.729-69.7v-186.01h-41.05v185.01c-.502 63.68 46.066 112.75 109.265 112.75 42.634 0 74.735-22.53 93.795-57.1v49.58h41.051v-290.24h-41.051v165.13c0 12.02-3.01 24.03-8.026 35.03v.39Zm350.42-136.44c-15.019-42.09-54.106-71.63-102.758-71.63-42.634 0-74.735 22.53-93.795 57.09v-49.57h-41.051v290.24H8.808v-164.64c0-12.01 3.009-24.02 8.025-35.03 14.546-32.47 46.647-55.54 81.757-55.54 40.126 0 70.221 30.09 72.228 69.7v185.51h41.552v-164.96c0-12.03 2.508-24.06 7.524-35.09 14.545-32.09 46.646-55.16 81.757-55.16 40.126 0 70.722 30.09 72.729 69.7v185.51h41.051v-184.51c.501-63.68-46.068-113.25-109.266-113.25-48.653 0-82.76 29.54-100.804 71.63Zm315.361 84.77v-7.52c2.006-59.68 49.15-107.83 107.829-107.83 59.682 0 107.829 50.65 107.829 111.84 0 61.19-48.147 111.34-107.829 111.34-58.679 0-105.823-48.15-107.829-107.83Zm0-92.28v-56.6h-41.051v401.55h41.051v-167.36c21.064 38.54 57.676 63.57 107.829 63.57 82.251 0 148.88-68.07 148.88-152.14 0-84.5-66.629-153.14-148.88-153.14-50.153 0-86.765 25.53-107.829 64.12Zm530.478-36.6s-29.04-35.54-98.754-35.54c-66.21 0-106.764 44.06-106.764 89.7 0 6.01.5 12.03 2.003 18.05 9.512 39.62 41.055 55.67 79.177 65.2 35.115 9.53 81.768 10.53 87.288 50.15v3.51c0 10.03-5.02 19.56-13.55 26.58-12.036 10.53-30.597 16.55-52.167 16.55-48.659 0-87.731-25.58-87.731-25.58l-24.045 37.1s50.08 32.04 111.776 32.04c66.717 0 109.777-42.06 109.777-86.69 0-3.01 0-6.52-.5-9.53-7.51-55.17-50.59-71.21-97.74-81.75-28.091-6.01-62.704-10.03-69.226-38.11-.501-3.01-1.003-5.52-1.003-8.53 0-24.57 26.085-44.63 62.705-44.63 45.649 0 66.204 20.56 66.204 20.56l32.55-29.08Zm391.6 13.53c60.18 0 108.83 50.15 108.83 111.84 0 61.69-48.65 111.34-108.83 111.34s-108.83-49.65-108.83-111.34c0-61.69 48.65-111.84 108.83-111.84Zm0-41.05c-82.25 0-148.88 68.64-148.88 152.89 0 84.26 66.63 152.39 148.88 152.39s148.88-68.13 148.88-152.39c0-84.25-66.63-152.89-148.88-152.89Zm329.91 243.81-103.28-236.29h-47.13l126.85 290.24h47.13l126.85-290.24H1876l-103.29 236.29Zm406.59-113.45h-192.53c4.01-22.08 14.04-42.65 29.58-58.7 20.06-20.07 46.63-31.11 73.2-31.11 17.55 0 34.6 5.02 49.14 14.55 21.56 14.05 36.6 39.13 40.61 75.26Zm-192.03-87.3c-27.53 28.6-42.55 67.73-42.55 108.33 0 85.24 61.61 153.89 143.83 153.89 82.23 0 120.34-32.04 120.34-32.04l-26.08-33.6s-34.09 24.59-94.26 24.59c-53.65 0-93.76-39.64-102.28-92.32h235.15v-25.03c-1-62.68-26.57-103.32-60.17-125.86-21.05-14.01-46.12-21.02-71.19-21.02-37.11 0-75.21 14.52-102.79 43.06Zm340.44-16.49v-27.07h-42.05v298.26h42.05l.5-193.49c0-38.65 31.09-69.74 69.7-69.74 13.03 0 37.1 3.01 37.1 3.01v-41.56s-24.57-4-37.1-4c-31.59 0-55.16 13.51-70.2 34.54v.05Zm433.2-19.05v-76.71l-41.05 7.02v69.69h-47.13v41.05h47.13v169.02a87.42 87.42 0 0 0 87.68 87.69c19.55 0 51.14-7.51 51.14-7.51l-8.02-37.05s-17.55 3.51-43.12 3.51c-25.57 0-46.63-20.56-46.63-46.14v-169.52h87.74v-41.05h-87.74Zm203.06 50.08v-160.89h-41.05v401.05h41.05v-164.46c0-12.03 2.51-24.06 7.52-35.09 14.55-32.09 46.65-55.15 81.76-55.15 40.13 0 70.22 30.08 72.23 69.69v185.01h41.55v-184.01h-.5c.5-63.68-45.57-113.25-108.77-113.25-42.63 0-74.73 22.53-93.79 57.1Zm498.88 72.76h-192.53c4.01-22.08 14.04-42.65 29.58-58.7 20.05-20.07 46.63-31.11 73.2-31.11 17.55 0 34.6 5.02 49.14 14.55 21.56 14.05 36.6 39.13 40.61 75.26Zm-192.03-87.3c-27.54 28.6-42.56 67.73-42.56 108.33 0 85.24 61.61 153.89 143.84 153.89s120.33-32.04 120.33-32.04l-26.07-33.6s-34.1 24.59-94.26 24.59c-53.65 0-93.76-39.64-102.28-92.32h235.15v-25.03c-1.01-62.68-26.58-103.32-60.17-125.86-21.06-14.01-46.13-21.02-71.2-21.02-37.1 0-75.21 14.52-102.78 43.06Z" style="fill:#eee;fill-rule:nonzero" transform="translate(1304.002 -176.698) scale(.12028)"/><path d="m-261.683 4606.47-39.135 6.69v382.81h39.135v-389.5Zm303.578 247.57v7.17c-1.912 56.9-46.856 102.8-102.796 102.8-56.896 0-102.796-47.82-102.796-106.15 0-58.33 45.9-106.62 102.796-106.62 55.94 0 100.884 45.9 102.796 102.8Zm0 88.45v53.48H81.03v-276.69H41.895v54.29c-20.081-37.12-54.984-61.46-102.796-61.46-78.412 0-141.931 65.43-141.931 145.75 0 80.33 63.519 145.28 141.931 145.28 47.812 0 82.715-23.86 102.796-60.65Zm102.737-183.6h158.212l-158.212 197.47v39.61h206.966v-39.61H193.386l158.212-197.47v-39.61H144.632v39.61Zm401.027 185.85-98.464-225.46h-44.931l120.93 276.95-23.421 52.91c-5.736 10.96-17.208 18.59-30.113 18.59-9.082 0-18.164-3.34-24.377-10.01l-29.157 28.62c14.339 14.32 33.459 22.43 53.534 22.43 29.635 0 55.924-17.18 68.351-43.43l151.043-346.06h-44.931l-98.464 225.46Zm611.851-90.22v7.17c-1.92 56.89-46.38 102.32-102.32 102.32-56.898 0-102.798-47.82-102.798-106.15 0-58.33 45.9-106.14 102.798-106.14 55.94 0 100.4 45.9 102.32 102.8Zm0-81.28c-20.09-36.79-54.51-60.65-102.32-60.65-78.413 0-141.932 64.95-141.932 145.27 0 80.33 63.519 145.28 141.932 145.28 47.81 0 82.23-23.86 102.32-60.65v53.48h39.13v-382.33h-39.13v159.6Zm242.3-22c57.38 0 103.76 47.82 103.76 106.62 0 58.81-46.38 106.15-103.76 106.15-57.37 0-103.75-47.34-103.75-106.15 0-58.8 46.38-106.62 103.75-106.62Zm0-39.13c-78.41 0-141.93 65.43-141.93 145.75 0 80.33 63.52 145.28 141.93 145.28 78.42 0 141.94-64.95 141.94-145.28 0-80.32-63.52-145.75-141.94-145.75Zm420.66 124.72v15.78c-3.83 47.81-42.56 86.06-90.37 86.06-50.21 0-90.37-42.07-90.37-93.71 0-51.64 40.16-94.19 90.37-94.19 47.81 0 86.54 38.25 90.37 86.06Zm-97.06 271.94c82.24 0 136.19-51.09 136.19-137.65v-251.84h-39.13v44.83c-18.17-31.96-48.77-52-90.37-52-71.72 0-129.5 59.21-129.5 132.85 0 73.63 57.78 132.85 129.5 132.85 41.6 0 72.2-20.05 90.37-51.57v49.18c-1.91 60.74-38.25 94.22-97.06 94.22-57.38 0-94.18-22.48-94.18-22.48l-21 32.98s44.89 28.63 115.18 28.63Z" style="fill:#eee;fill-rule:nonzero" transform="rotate(90 863.473 1365.504) scale(.10928)"/></svg>