<svg xmlns="http://www.w3.org/2000/svg" xml:space="preserve" style="fill-rule:evenodd;clip-rule:evenodd;stroke-linejoin:round;stroke-miterlimit:2" viewBox="0 0 1920 1080"><path d="M0 0h1920v1080H0z" style="fill:none"/><path d="M0 0h1920v1080H0z" style="fill:#eee"/><path d="m973.922 3895.41-63.38-69.3 63.38-69.29-6.272-6.86-69.65 76.15 69.65 76.15 6.272-6.85Z" style="fill:#0c6" transform="matrix(1.01481 0 0 .92817 -10.44 -2965.16)"/><path d="M904.271 3821.26H1376v9.7H904.271z" style="fill:#0c6" transform="matrix(1.01481 0 0 .92817 -10.44 -2965.16)"/><path d="M55.781 58.007h59.852v1021.99H55.781z" style="fill:#111" transform="translate(-.018 -.01)"/><path d="M1036.66 2345.82v5.04h56.52v77.93h4.86v-77.93h56.15v-5.04h-117.53Z" style="fill:#111;fill-rule:nonzero" transform="translate(-12352.7 -28837.1) scale(12.3177)"/><path d="m-313.696 3935.23-39.295 17.93v20.88l62.149-28.45v-20.88l-62.149-28.28v20.88l39.295 17.92Zm135.151-8.22c10.358 0 17.922 7.24 17.922 18.25V4001h23.676v-48.17c0-12.83 10.851-25.82 24.991-25.82 10.358 0 17.922 7.24 17.922 18.25V4001h23.676v-58.86c.329-22.03-15.455-38.8-37.652-38.8-15.619 0-25.978 8.22-32.719 20.71-5.919-12.49-18.25-20.71-33.87-20.71-13.153 0-22.525 5.75-29.266 15.12v-12.66h-23.018v95.2h23.018v-47.68c0-13.65 11.674-26.31 25.32-26.31Zm148.305-21.37h-23.019v95.52h23.019v-95.52Zm-11.51-36.34c-7.727 0-13.811 6.25-13.811 13.81 0 7.73 6.084 13.98 13.811 13.98 7.728 0 13.976-6.25 13.976-13.98 0-7.56-6.248-13.81-13.976-13.81Zm101.939 44.23s-13.318-10.19-36.007-10.19c-24.005 0-38.145 15.29-38.145 30.74 0 2.14.329 4.28.822 6.41 3.453 13.16 14.797 19.24 28.608 22.37 5.426 1.15 11.345 1.97 16.442 3.61 3.946 1.15 7.728 2.47 8.385 6.91.165 1.64-1.15 2.79-2.63 3.94-3.453 2.63-8.385 3.95-14.304 3.95-14.962 0-28.773-7.07-28.773-7.07l-10.194 19.73s18.743 9.54 38.967 9.54c14.304 0 25.649-5.27 32.061-12.33 4.768-5.1 7.234-11.19 7.234-17.43 0-1.15-.164-2.47-.329-3.62-2.301-15.29-13.317-22.2-27.128-25.81-6.742-1.81-14.305-2.64-20.553-4.77-2.795-.99-5.425-1.65-6.247-4.61-.165-.32-.165-.65-.165-.98 0-1.48.987-2.8 2.138-3.95 2.959-2.79 7.892-4.44 13.811-4.44 14.304 0 22.689 5.92 22.689 5.92l13.318-17.92Zm17.264 55.57c0 18.91 15.455 34.37 34.363 34.37 7.234 0 18.908-2.14 18.908-2.14l-2.795-21.87s-9.865 1.15-16.113 1.15c-6.248 0-11.345-5.26-11.345-11.51v-40.44h27.458v-22.86h-27.458v-25.32l-23.018 2.47v22.85H64.464v22.86h12.989v40.44Zm137.781-17.59v3.78c-.986 13.98-12.002 25.32-25.813 25.32-14.469 0-25.814-12.33-25.814-27.13 0-14.79 11.345-27.12 25.814-27.12 13.811 0 24.827 11.18 25.813 25.15Zm0 41.27v8.38h23.019v-95.36h-23.019v8.39c-5.919-6.74-14.304-10.85-25.813-10.85-26.965 0-48.832 22.52-48.832 50.14 0 27.63 21.867 49.99 48.832 49.99 11.509 0 19.894-3.95 25.813-10.69Zm60.341-53.93v-69.55h-23.347v131.86h23.347v-31.56l6.248-6.74 30.417 38.3h27.951l-43.241-54.58 37.816-40.94h-28.445l-30.746 33.21Zm132.027 6.08h-45.379c1.316-3.94 3.289-7.72 6.248-10.68 5.426-5.43 11.674-8.06 17.757-8.06 2.795 0 5.59.49 8.057 1.64 6.412 2.8 11.509 8.88 13.317 17.1Zm-55.244-26.8c-8.878 9.38-13.811 22.04-13.811 35.19 0 27.79 21.703 50.15 48.668 50.15 26.964 0 37.487-9.87 37.487-9.87l-9.865-18.91s-13.154 5.59-27.622 5.59c-11.674 0-21.539-7.72-24.992-18.58h69.056v-10.02c-.165-22.69-12.496-38.31-27.951-44.89-5.426-2.3-11.345-3.45-17.264-3.45-11.509 0-23.512 4.44-33.706 14.63v.16Z" style="fill:#111;fill-rule:nonzero" transform="matrix(0 .75033 -.75033 0 4509.2 557.536)"/><path d="M69.386 3905.81h-4.419v95.18h4.419v-95.18Zm-2.127-38.8c-1.968 0-3.771 1.64-3.771 3.61s1.803 3.77 3.771 3.77c1.967 0 3.607-1.8 3.607-3.77s-1.64-3.61-3.607-3.61Zm40.601 38.8v-25.32l-4.255 2.47v22.85H88.15v4.26h15.455V3977c0 14.64 11.653 26.29 26.287 26.46 5.754 0 10.193-.99 10.193-.99l-.986-3.76s-2.795.49-9.043.49a22.108 22.108 0 0 1-22.196-22.2v-66.93h30.746v-4.26H107.86Z" style="fill:#111;fill-rule:nonzero" transform="translate(239.1 -1723.11) scale(.57366)"/><path d="M157.205 3869.48h4.254v41.906h-4.254z" style="fill:#111" transform="translate(239.1 -1723.11) scale(.57366)"/><path d="m182.998 3867.01-4.254 2.3v131.68h4.254v-133.98Zm21.375 0-4.255 2.3v131.68h4.255v-133.98Zm74.645 65.92v-63.45h-4.254v131.51h4.254v-27.08c7.729 17.56 24.833 29.55 44.567 29.55 26.971 0 48.657-22.35 48.657-49.98 0-27.62-21.686-49.97-48.657-49.97-19.734 0-36.838 11.98-44.567 29.42Zm44.567-25c24.504 0 44.239 20.39 44.239 45.55 0 25.16-19.735 45.56-44.239 45.56-24.504 0-44.403-20.4-44.403-45.56 0-25.16 19.899-45.55 44.403-45.55Zm78.746 8.72c-9.208 9.54-14.448 22.53-14.448 36.01 0 28.12 20.696 50.8 47.825 50.8 27.128 0 37.487-9.19 37.487-9.19l-3.289-3.46s-9.371 8.23-34.198 8.23c-24.005 0-42.256-19.25-43.407-43.76h85.333c0-23-8.385-37.48-19.73-45.21-6.906-4.6-14.798-6.72-22.854-6.72-12.003 0-24.169 4.74-32.719 13.3Zm70.864 34.21h-81.057c.492-11.68 5.096-22.86 13.152-31.09 7.728-7.73 18.744-12.17 29.595-12.17 7.235 0 14.469 1.81 20.553 6.09 9.7 6.58 16.77 18.59 17.757 37.17Zm143.049-36.85s-9.689-10.66-32.222-10.66c-20.395 0-33.531 12.64-33.531 26.29 0 1.64.164 3.45.655 5.1 3.764 14.63 18.238 17.76 33.534 20.88 13.487 2.8 26.151 6.09 28.29 20.56.164.66.164 1.48.164 2.14 0 3.94-1.48 7.73-4.276 10.85-5.099 5.92-14.31 9.87-25.823 9.87-19.572 0-33.201-9.87-33.201-9.87l-2.631 3.62s14.779 10.67 35.832 10.67c20.724 0 34.518-11.99 34.518-25.31 0-.82 0-1.81-.164-2.63-2.455-16.94-16.919-20.89-31.887-24.17-13.651-2.96-30.592-5.43-30.592-22.04 0-11.35 11.678-21.55 29.112-21.55 20.23 0 28.948 9.21 28.948 9.21l3.274-2.96Zm32.055 2.64c-9.207 9.54-14.448 22.53-14.448 36.01 0 28.12 20.696 50.8 47.825 50.8 27.128 0 37.487-9.19 37.487-9.19l-3.289-3.46s-9.371 8.23-34.198 8.23c-24.005 0-42.256-19.25-43.407-43.76h85.333c0-23-8.385-37.48-19.73-45.21-6.906-4.6-14.798-6.72-22.854-6.72-12.003 0-24.169 4.74-32.719 13.3Zm70.864 34.21h-81.057c.492-11.68 5.096-22.86 13.152-31.09 7.728-7.73 18.744-12.17 29.596-12.17 7.234 0 14.468 1.81 20.552 6.09 9.7 6.58 16.77 18.59 17.757 37.17Zm30.252-45.05v-25.32l-4.254 2.47v22.85h-15.455v4.26h15.455V3977c0 14.64 11.653 26.29 26.286 26.46 5.755 0 10.194-.99 10.194-.99l-.986-3.76s-2.795.49-9.043.49a22.109 22.109 0 0 1-22.197-22.2v-66.93h30.747v-4.26h-30.747Zm108.516 0h-4.419v95.18h4.419v-95.18Zm-2.128-38.8c-1.967 0-3.771 1.64-3.771 3.61s1.804 3.77 3.771 3.77c1.968 0 3.608-1.8 3.608-3.77s-1.64-3.61-3.608-3.61Zm25.146 59.68v-20.88h-4.254v95.18h4.254v-57.04c0-4.93 1.152-9.54 3.125-13.97 5.921-12.84 18.75-22.22 32.73-22.22 16.611 0 29.111 12.99 29.111 29.6v63.63h4.254v-63.63c.164-19.07-13.793-34.01-32.872-34.01-15.296 0-29.44 9.68-36.348 23.32v.02Z" style="fill:#111;fill-rule:nonzero" transform="translate(239.1 -1723.11) scale(.57366)"/><path d="M124.815 3869.48v131.51h13.462v-106.1l47.361 89.05h15.293l47.197-89.05v106.1h13.626v-131.51h-15.271l-53.281 100.03-53.116-100.03h-15.271Zm170.151 36.33h-13.461v95.18h13.461v-95.18Zm-6.73-36.33c-5.092 0-9.362 4.27-9.362 9.36s4.27 9.36 9.362 9.36c5.091 0 9.361-4.27 9.361-9.36s-4.27-9.36-9.361-9.36Zm39.943 52.74v-16.41h-13.462v95.18h13.462V3947c0-3.94.987-7.88 2.631-11.49 4.77-10.64 15.297-18.21 26.811-18.21 13.158 0 23.027 9.87 23.685 22.86v60.83h13.626v-60.51c.164-20.88-15.271-37.13-35.996-37.13-13.98 0-24.507 7.38-30.757 18.72v.15Zm104.076-16.41v-25.15l-13.462 2.3v22.85h-15.455v13.46h15.455v55.43a28.67 28.67 0 0 0 28.753 28.76c6.412 0 16.77-2.47 16.77-2.47l-2.631-12.15s-5.754 1.15-14.139 1.15c-8.386 0-15.291-6.74-15.291-15.13v-55.59h28.773v-13.46h-28.773Zm140.916-23.36S560.182 3867 529.6 3867c-29.266 0-47.188 19.24-47.188 39.62 0 2.8.329 5.43.987 8.23 4.275 17.59 18.414 24.66 35.678 28.93 7.399 1.81 15.456 3.29 22.525 5.59 6.906 2.31 13.154 5.59 14.305 14.14.164.66.164 1.15.164 1.81 0 9.21-10.851 15.95-25.32 15.95-20.223 0-37.487-10.69-37.487-10.69l-11.674 18.91s22.525 13.98 49.161 13.98c29.431 0 47.516-18.75 47.516-38.48 0-1.48-.164-2.96-.328-4.44-3.453-24.33-22.854-31.56-44.064-36.17-6.084-1.31-12.167-2.47-17.593-4.44-5.261-1.97-9.7-4.44-11.18-10.36-.329-1.15-.329-2.13-.329-3.12 0-9.54 10.523-17.26 24.827-17.26 18.579 0 26.964 8.05 26.964 8.05l16.607-14.8Zm92.402 69.06v3.78c-.986 13.98-12.002 25.32-25.813 25.32-14.469 0-25.814-12.33-25.814-27.13 0-14.79 11.345-27.12 25.814-27.12 13.811 0 24.827 11.18 25.813 25.15Zm0 41.27v8.38h23.018v-95.36h-23.018v8.39c-5.919-6.74-14.304-10.85-25.813-10.85-26.965 0-48.832 22.52-48.832 50.14 0 27.63 21.867 49.99 48.832 49.99 11.509 0 19.894-3.95 25.813-10.69Zm89.443-65.77c10.358 0 17.921 7.24 17.921 18.25V4001h23.676v-58.86c.329-22.03-15.455-38.8-37.651-38.8-13.153 0-22.525 5.75-29.266 15.12v-12.66h-23.019v95.2h23.019v-47.68c0-13.65 11.673-26.31 25.32-26.31Zm132.027-13.48s-13.318-10.19-36.007-10.19c-24.005 0-38.145 15.29-38.145 30.74 0 2.14.329 4.28.822 6.41 3.453 13.16 14.797 19.24 28.608 22.37 5.426 1.15 11.345 1.97 16.442 3.61 3.946 1.15 7.728 2.47 8.385 6.91.165 1.64-1.15 2.79-2.63 3.94-3.453 2.63-8.385 3.95-14.305 3.95-14.961 0-28.773-7.07-28.773-7.07l-10.193 19.73s18.743 9.54 38.966 9.54c14.305 0 25.65-5.27 32.062-12.33 4.768-5.1 7.234-11.19 7.234-17.43 0-1.15-.164-2.47-.329-3.62-2.301-15.29-13.317-22.2-27.128-25.81-6.742-1.81-14.305-2.64-20.553-4.77-2.795-.99-5.425-1.65-6.247-4.61-.165-.32-.165-.65-.165-.98 0-1.48.987-2.8 2.138-3.95 2.959-2.79 7.892-4.44 13.811-4.44 14.304 0 22.689 5.92 22.689 5.92l13.318-17.92Z" style="fill:#111;fill-rule:nonzero" transform="translate(191.68 -2010.6) scale(.67171)"/></svg>