<svg xmlns="http://www.w3.org/2000/svg" xml:space="preserve" style="fill-rule:evenodd;clip-rule:evenodd;stroke-linejoin:round;stroke-miterlimit:2" viewBox="0 0 2000 2000"><path d="M66.62 32.43v.7c0 .14-.08.28-.18.39-.1.1-.25.18-.4.18h-2.68a1.02 1.02 0 0 1-1.03-1.03V20.01a2.94 2.94 0 0 0-2.95-2.95h-2.76a.42.42 0 0 1-.41-.53.59.59 0 0 1 .11-.23l3.8-4.77c.33-.41.83-.67 1.36-.66.48 0 .93.24 1.21.63l2.85 3.85a5.66 5.66 0 0 1 1.08 3.4v1.49c.13-.17.33-.4.6-.61a4.74 4.74 0 0 1 3.03-.93c4.15 0 7.3 3.38 7.3 7.54a7.8 7.8 0 0 1-2.15 5.4 7.29 7.29 0 0 1-5.3 2.27 4.67 4.67 0 0 1-3.48-1.48Zm-.13-.4s1.18 1.76 3.68 1.76c4.13 0 7.25-3.35 7.25-7.48 0-4.13-3.12-7.48-7.25-7.48-2.87 0-3.68 1.76-3.68 1.76v-1.76c0-1.08-.27-2.28-1.07-3.37l-2.84-3.86a1.5 1.5 0 0 0-2.38-.04l-3.8 4.77a.38.38 0 0 0 .3.6h2.76a3 3 0 0 1 3 3V32.6a.98.98 0 0 0 .97.97h2.69c.1 0 .2-.04.26-.1.07-.08.11-.17.11-.27v-1.17Zm3.55-9.78c2.03 0 3.77 1.65 3.77 4.06 0 2.4-1.74 4.05-3.77 4.05-2.03 0-3.92-1.34-3.92-4.05s1.89-4.06 3.92-4.06Zm-.07.13c-.98 0-1.91.3-2.6.95a3.81 3.81 0 0 0-1.13 2.9c0 2.68 1.87 4.01 3.87 4.01.97 0 1.86-.37 2.52-1.05a3.96 3.96 0 0 0 1.06-2.8c0-2.38-1.72-4.02-3.72-4.02Z" style="fill:#aaa" transform="scale(25.7407 12.8704) rotate(-45 113.5 55.79)"/><path d="m1144.88 74.87 1.04-1.74h1.39l-1.04 1.74h-1.39Zm8.85.23 1.09-1.74 1.35.07-1.09 1.73-1.35-.06Zm10.63.72 1.14-1.73 1.31.13-1.14 1.73-1.31-.13Zm10.32 1.2 1.18-1.73 1.28.18-1.18 1.72-1.28-.18Zm10.04 1.62 1.22-1.72 1.23.23-1.22 1.72-1.23-.23Zm9.75 2.03 1.25-1.72 1.2.28-1.25 1.72-1.2-.28Zm9.47 2.4 1.28-1.7 1.17.33-1.29 1.7-1.16-.32Zm9.2 2.78 1.31-1.7 1.14.37-1.32 1.7-1.13-.37Zm8.94 3.11 1.34-1.68 1.1.4-1.34 1.7-1.1-.42Zm8.68 3.44 1.36-1.68 1.07.46-1.37 1.67-1.06-.45Zm8.42 3.75 1.39-1.67 1.04.5-1.39 1.66-1.04-.5Zm8.18 4.04 1.42-1.65 1 .53-1.41 1.65-1.01-.53Zm7.94 4.34 1.43-1.64.98.56-1.44 1.64-.97-.56Zm7.69 4.6 1.46-1.62.94.6-1.45 1.62-.95-.6Zm7.46 4.88 1.47-1.61.92.63-1.47 1.61-.92-.63Zm7.22 5.14 1.49-1.6.89.66-1.49 1.6-.89-.66Zm6.98 5.4 1.51-1.6.86.7-1.51 1.59-.86-.7Zm6.75 5.63 1.52-1.57.83.72-1.52 1.58-.83-.73Zm6.51 5.89 1.54-1.56.8.75-1.54 1.56-.8-.75Zm6.28 6.13 1.55-1.55.77.78-1.56 1.55-.76-.78Zm6.03 6.36 1.57-1.53.74.81-1.57 1.54-.74-.82Zm5.79 6.6 1.59-1.51.71.84-1.59 1.52-.71-.84Zm5.55 6.84 1.6-1.5.67.88-1.59 1.5-.68-.88Zm5.29 7.08 1.61-1.48.65.9-1.61 1.48-.65-.9Zm5.04 7.3 1.63-1.46.61.94-1.63 1.46-.61-.93Zm4.78 7.56 1.63-1.45.58.96-1.63 1.45-.58-.96Zm4.5 7.78 1.65-1.42.54 1-1.65 1.41-.54-.99Zm4.22 8.03 1.66-1.4.51 1.02-1.66 1.4-.51-1.02Zm3.94 8.28 1.67-1.38.47 1.05-1.67 1.38-.47-1.05Zm3.63 8.52 1.68-1.36.43 1.09-1.68 1.35-.43-1.08Zm3.31 8.78 1.69-1.33.4 1.12-1.69 1.32-.4-1.11Zm2.99 9.03 1.7-1.3.35 1.16-1.7 1.3-.35-1.16Zm2.63 9.3 1.71-1.26.31 1.18-1.71 1.27-.31-1.18Zm2.27 9.59 1.72-1.24.25 1.22-1.71 1.23-.26-1.22Zm1.88 9.85 1.72-1.2.21 1.26-1.73 1.2-.2-1.26Zm1.46 10.15 1.73-1.16.15 1.29-1.73 1.16-.15-1.3Zm1.01 10.44 1.74-1.12.09 1.33-1.73 1.12-.1-1.33Zm.54 10.75 1.74-1.07.03 1.37-1.73 1.07-.04-1.37Zm.03 11.06 1.73-1.01-.03 1.4-1.74 1.02.04-1.4Zm-.53 11.39 1.73-.95-.11 1.45-1.73.95.11-1.45Zm-1.34 13.22.19-1.5 1.72-.88-.19 1.5-1.72.88Zm-1.93 12.11.28-1.54 1.71-.8-.28 1.54-1.71.8Zm-2.71 12.47.38-1.58 1.7-.7-.39 1.58-1.69.7Zm-3.58 12.83.5-1.63 1.66-.6-.5 1.64-1.66.6Zm-4.56 13.17.63-1.68 1.62-.46-.63 1.67-1.62.46Zm-131.9 130.55-.48 1.63-1.67.6.49-1.62 1.66-.61Zm-13.11 4.4-.61 1.66-1.63.48.62-1.67 1.62-.48Zm-12.77 3.42-.72 1.7-1.58.37.73-1.7 1.57-.37Zm-12.41 2.58-.82 1.71-1.53.27.81-1.71 1.54-.27Zm-12.06 1.81-.9 1.73-1.48.17.89-1.72 1.49-.18Zm-11.71 1.13-.97 1.73-1.44.1.96-1.74 1.45-.1Zm-11.38.5-1.02 1.74-1.4.03 1.02-1.74 1.4-.02Zm-11.05-.04-1.08 1.74-1.36-.05 1.08-1.73 1.36.04Zm-10.74-.56-1.12 1.74-1.32-.1 1.12-1.74 1.32.1Zm-10.43-1.03-1.16 1.73-1.29-.16 1.17-1.73 1.28.16Zm-10.13-1.47-1.21 1.72-1.25-.22 1.21-1.72 1.25.22Zm-9.85-1.9-1.24 1.72-1.22-.26 1.25-1.72 1.21.26Zm-9.57-2.28-1.27 1.71-1.18-.31 1.27-1.7 1.18.3Zm-9.29-2.64-1.31 1.7-1.14-.36 1.3-1.7 1.15.36Zm-9.03-3-1.33 1.69-1.11-.4 1.33-1.69 1.11.4Zm-8.77-3.33-1.35 1.68-1.08-.44 1.35-1.68 1.08.44Zm-8.51-3.64-1.38 1.67-1.05-.48 1.38-1.67 1.05.48Zm-8.27-3.94-1.4 1.65-1.02-.51 1.41-1.66 1.01.51Zm-8.02-4.24-1.42 1.65-.99-.55 1.43-1.65.98.55Zm-7.77-4.51-1.45 1.63-.96-.58 1.45-1.64.96.59Zm-7.54-4.79-1.47 1.62-.93-.61 1.47-1.63.93.62Zm-7.3-5.05-1.49 1.61-.9-.65 1.49-1.6.9.64Zm-7.07-5.3-1.5 1.6-.87-.69 1.5-1.6.87.69Zm-6.83-5.56-1.52 1.59-.84-.71 1.52-1.59.84.72Zm-6.6-5.8-1.53 1.57-.8-.74 1.53-1.57.8.74Zm-6.35-6.04-1.55 1.55-.78-.77 1.55-1.55.78.77Zm-6.12-6.28-1.57 1.54-.75-.8 1.57-1.55.75.8Zm-5.88-6.52-1.58 1.52-.72-.83 1.58-1.53.72.84Zm-5.63-6.76-1.6 1.5-.68-.86 1.6-1.5.68.86Zm-5.38-7-1.6 1.5-.66-.9 1.6-1.48.66.89Zm-5.13-7.22-1.62 1.47-.62-.92 1.62-1.47.62.92Zm-4.87-7.47-1.63 1.46-.59-.96 1.63-1.45.6.95Zm-4.6-7.7-1.64 1.43-.56-.98 1.65-1.43.55.98Zm-4.32-7.94-1.65 1.4-.52-1 1.65-1.42.52 1.02Zm-4.03-8.2-1.67 1.4-.49-1.05 1.67-1.38.49 1.04Zm-3.74-8.43-1.68 1.37-.45-1.08 1.68-1.36.45 1.07Zm-3.43-8.69-1.69 1.34-.4-1.1 1.68-1.34.41 1.1Zm-3.1-8.94-1.7 1.3-.36-1.13 1.7-1.31.36 1.14Zm-2.76-9.21-1.7 1.28-.32-1.18 1.7-1.28.32 1.18Zm-2.4-9.49-1.7 1.25-.28-1.2 1.71-1.25.27 1.2Zm-2.01-9.75-1.72 1.2-.23-1.23 1.73-1.21.22 1.24Zm-1.6-10.05-1.74 1.18-.17-1.28 1.73-1.18.17 1.28Zm-1.18-10.34-1.73 1.13-.12-1.31 1.73-1.13.12 1.31Zm-.71-10.64-1.74 1.09-.05-1.36 1.73-1.08.06 1.35Zm-.21-10.95-1.74 1.03.01-1.4 1.74-1.02-.01 1.4Zm.33-11.27-1.73.97.08-1.43 1.73-.98-.08 1.44Zm.93-11.6-1.73.9.16-1.48 1.73-.9-.16 1.47Zm1.84-13.48-.25 1.52-1.72.83.25-1.52 1.72-.83Zm2.43-12.35-.35 1.57-1.7.74.35-1.57 1.7-.74Zm3.26-12.7-.46 1.61-1.67.64.46-1.62 1.67-.64Zm4.2-13.05-.58 1.65-1.63.52.58-1.66 1.64-.51Zm5.26-13.37-.72 1.7-1.58.37.72-1.7 1.58-.37Zm6.42-13.61-.88 1.72-1.5.2.88-1.72 1.5-.2Zm7.68-13.76-1.04 1.74h-1.39l1.04-1.74h1.4Zm9.02-13.73-1.22 1.72-1.24-.22 1.21-1.72 1.25.22Zm10.33-13.45-1.37 1.67-1.06-.46 1.38-1.67 1.05.46Zm11.56-12.88-1.52 1.59-.84-.72 1.52-1.58.84.71Zm12.55-11.99-1.63 1.46-.6-.95 1.63-1.46.6.95Zm11.56-9.55-.35-1.15 1.7-1.3.35 1.15-1.7 1.3Zm13.61-9.73-.11-1.31 1.73-1.14.11 1.32-1.73 1.13Zm13.77-8.39.1-1.44 1.73-.96-.1 1.44-1.73.96Zm13.71-7.08.28-1.54 1.71-.8-.28 1.54-1.71.8Zm13.51-5.86.44-1.6 1.67-.66-.43 1.6-1.68.66Zm13.22-4.75.57-1.65 1.64-.53-.57 1.66-1.64.52Zm12.89-3.75.69-1.69 1.59-.4-.69 1.68-1.59.4Zm12.54-2.86.78-1.71 1.55-.3-.78 1.7-1.55.3Zm12.18-2.07.87-1.72 1.5-.21-.87 1.72-1.5.2Zm11.83-1.36.94-1.73 1.46-.12-.94 1.73-1.46.12Zm11.49-.72 1.01-1.73 1.41-.05-1 1.73-1.42.05Z" style="fill:#aaa" transform="scale(2.7335 1.3668) rotate(-45 1291.75 1235.56)"/><path d="m84.02 32.5-.06.06.02-.04-.07.04v-.07c0-.1.17-.14.17-.14l.04.04-.03.03v.03l-.07.04Zm-.11 1.24v-.15l.18-.1v.14l-.19.11Zm-.89.14-.11.19h-.15l.11-.19h.15Zm-1.18 0-.11.19h-.15l.11-.19h.15Zm-1.13-.04-.15.18-.11-.05.14-.18.12.05Zm-.62-.64-.19.13-.02-.13.18-.13.03.13Zm-.03-1.15-.19.11v-.15l.19-.1v.14Zm0-1.18-.19.11v-.14l.19-.12v.15Zm0-1.18-.19.11v-.14l.19-.11v.14Zm0-1.18-.19.11v-.14l.19-.12v.15Zm0-1.18-.19.11v-.14l.19-.11v.14Zm0-1.18-.19.12v-.15l.19-.11v.14Zm0-1.17-.19.1v-.14l.19-.11v.15Zm0-1.18-.19.1v-.14l.19-.11v.15Zm0-1.18-.19.1v-.14l.19-.11v.15Zm0-1.18-.19.1v-.14l.19-.11v.15Zm0-1.19-.19.12v-.14l.18-.12v.14Zm-.2-1.06-.19.15-.04-.12.18-.14.04.11Zm-.5-.83-.16.16-.08-.09.17-.16.08.09Zm-.7-.63-.15.18-.1-.07.15-.17.1.06Zm-.9-.4-.14.19-.13-.03.14-.18.12.03Zm-1.14-.08-.11.18h-.15l.11-.18h.15Zm-1.18 0-.11.18h-.15l.11-.18h.15Zm-1.3-.02.13.02-.13.19-.14-.03.13-.18Zm.1-.82-.12-.04.15-.18.11.04-.14.18Zm1.14-1.43-.12-.05.15-.17.11.04-.14.18Zm1.14-1.43-.12-.05.14-.18.12.05-.14.18Zm1.14-1.44-.12-.04.14-.18.12.04-.14.18Zm1.2-.63.13-.18.14.01-.12.18h-.14Zm.9.35.17-.17.09.08-.16.17-.1-.08Zm.6.73.16-.16.07.1-.17.15-.07-.1Zm.55.75.17-.16.07.1-.17.16-.07-.1Zm.56.76.17-.16.07.1-.17.15-.07-.09Zm.56.76.17-.16.07.1-.17.15-.07-.1Zm.55.75.17-.15.07.09-.17.16-.07-.1Zm.54.77.18-.15.06.1-.18.16-.06-.1Zm.42.87.18-.14.05.12-.18.14-.05-.12Zm.27.99.19-.13.02.14-.18.12-.03-.13Zm.1 1.11.18-.1v.14l-.18.1v-.14Zm0 1.18.18-.11v.15l-.18.1v-.14Zm.73-.21-.05-.12.17-.14.05.11-.17.15Zm1.38-.75.07-.18.17-.05-.07.18-.17.05Zm1.27-.21.1-.19h.16l-.1.18h-.16Zm1.15.04.12-.19.14.02-.12.18-.14-.02Zm1.05.19.13-.18.13.03-.14.18-.13-.03Zm.94.33.15-.18.11.05-.14.17-.12-.04Zm.86.43.15-.17.1.06-.15.18-.1-.07Zm.77.54.16-.17.1.07-.17.17-.09-.07Zm.69.62.17-.16.08.09-.17.16-.08-.09Zm.6.71.17-.15.07.1-.17.15-.07-.1Zm.51.8.18-.15.06.1-.18.15-.06-.1Zm.42.87.18-.14.05.12-.18.14-.05-.12Zm.31.96.19-.13.03.13-.19.13-.03-.13Zm.2 1.05.18-.12.01.14-.18.12-.02-.14Zm.04 1.14.18-.1v.15l-.19.1v-.15Zm-.14 1.25.18-.09-.03.17-.18.08.03-.16Zm-.46 1.53.07-.18.17-.04-.07.18-.17.04Zm-.8 1.43.12-.18.14.02-.13.18-.14-.02Zm-1.05 1.15.05.1-.17.16-.06-.1.18-.16Zm-1.42.97-.02.16-.18.09.02-.17.18-.09Zm-1.39.53-.07.18-.17.04.07-.18.17-.04Zm-1.28.2-.1.2h-.15l.1-.18.15-.01Zm-1.16 0-.12.18-.14-.02.13-.18.13.01Zm-1-.24-.15.18-.12-.05.14-.18.12.05Zm-.88-.42-.15.17-.1-.06.15-.18.1.07Zm-.73-.57-.17.16-.08-.08.16-.16.08.08Zm3.16-10.28-.12.19h-.14l.1-.19h.16Zm-1.3.17-.06.17-.17.06.06-.18.18-.05Zm-1.67.96.17-.16.07.1-.17.16-.07-.1Zm-.87 1.34.17-.06-.06.18-.18.05.07-.17Zm-.3 1.35.19-.1v.14l-.2.1.02-.14Zm.05 1.16.18-.13.02.14-.18.12-.02-.13Zm.27 1 .18-.14.04.12-.17.14-.05-.11Zm.47.85.17-.16.08.09-.17.16-.08-.1Zm.67.66.16-.17.09.07-.16.17-.1-.07Zm.83.49.15-.18.11.04-.14.18-.12-.04Zm1 .27.13-.18.14.02-.13.18-.13-.02Zm1.36-.01-.17.02.1-.18.15-.03-.08.19Zm1.46-.62-.18.12-.01-.14.18-.12.01.14Zm1.15-1.24-.15.01.1-.18.16-.01-.1.18Zm.54-1.44-.18.09.02-.16.18-.1-.02.17Zm.06-1.23-.19.12v-.14l.18-.12v.14Zm-.21-1.05-.18.14-.04-.12.18-.14.04.12Zm-.42-.9-.17.16-.06-.1.17-.15.06.1Zm-.6-.72-.15.16-.09-.08.16-.16.09.08Zm-.75-.57-.15.18-.1-.06.14-.17.1.05Zm-.94-.36-.13.18-.13-.03.14-.18.13.03Z" style="fill:#aaa" transform="scale(-25.7407 -12.8704) rotate(-45 -107.53 139.66)"/><path d="m44.22 241.05 1.56-.95v1.26l-1.56.94v-1.25Zm0 10.03 1.56-.94v1.26l-1.56.94v-1.26Zm0 10.04 1.56-.94v1.26l-1.56.94v-1.26Zm0 10.04 1.56-.94v1.25l-1.56.95v-1.26Zm0 10.04 1.56-.94v1.25l-1.56.94v-1.25Zm0 10.04 1.56-.94v1.25l-1.56.94v-1.25Zm0 10.03 1.56-.94v1.26l-1.56.94v-1.25Zm0 10.04 1.56-.94v1.26l-1.56.94v-1.26Zm0 10.04 1.56-.94v1.25l-1.56.95v-1.26Zm0 10.04 1.56-.94v1.25l-1.56.94v-1.25Zm0 10.04 1.56-.94v1.25l-1.56.94v-1.25Zm0 10.03 1.56-.94v1.26l-1.56.94v-1.26Zm0 10.04 1.56-.94v1.26l-1.56.94v-1.26Zm0 10.04 1.56-.94v1.25l-1.56.95v-1.26Zm0 10.04 1.56-.94v1.25l-1.56.94v-1.25Zm0 10.04 1.56-.94v1.25l-1.56.94v-1.25Zm0 10.03 1.56-.94v1.26l-1.56.94v-1.26Zm0 10.04 1.56-.94v1.26l-1.56.94v-1.26Zm0 10.04 1.56-.94v1.25l-1.56.95v-1.26Zm.37 9.87 1.56-1.06.15 1.16-1.56 1.06-.15-1.16Zm1.86 8.87L48 439.3l.32 1.03-1.53 1.18-.33-1.03Zm3.2 7.85 1.49-1.28.48.9-1.5 1.29-.47-.9Zm4.4 6.83 1.43-1.36.63.77-1.44 1.37-.63-.78Zm5.58 5.71 1.36-1.44.78.62-1.36 1.44-.78-.62Zm6.9 4.34 1.24-1.52.96.42-1.24 1.51-.96-.41Zm8.52 2.4 1.03-1.56 1.18.11-1.03 1.56-1.18-.1Zm9.97.18.94-1.56h1.26l-.94 1.56h-1.26Zm10.04 0 .94-1.56h1.25l-.94 1.56h-1.25Zm10.04 0 .94-1.56h1.25l-.94 1.56h-1.25Zm10.03 0 .95-1.56h1.25l-.94 1.56h-1.26Zm10.04 0 .94-1.56h1.26l-.94 1.56h-1.26Zm10.04 0 .94-1.56h1.26l-.94 1.56h-1.26Zm10.04 0 .94-1.56h1.25l-.94 1.56h-1.25Zm10.04 0 .94-1.56h1.25l-.94 1.56h-1.25Zm10.03 0 .95-1.56h1.25l-.94 1.56h-1.26Zm10.04 0 .94-1.56h1.26l-.94 1.56h-1.26Zm10.04 0 .94-1.56h1.26l-.94 1.56h-1.26Zm10.04 0 .94-1.56h1.25l-.94 1.56h-1.25Zm10.04 0 .94-1.56h1.25l-.94 1.56h-1.25Zm10.03 0 .95-1.56h1.25l-.94 1.56h-1.26Zm10.04 0 .94-1.56h1.26l-.94 1.56h-1.26Zm10.04 0 .94-1.56h1.26l-.94 1.56h-1.26Zm10.04 0 .94-1.56h1.25l-.94 1.56h-1.25Zm10.04 0 .94-1.56h1.25l-.94 1.56h-1.25Zm10.03 0 .95-1.56h1.25l-.94 1.56h-1.25Zm10.04 0 .94-1.56h1.26l-.94 1.56h-1.26Zm10.04 0 .94-1.56h1.26l-.94 1.56h-1.26Zm10.04 0 .94-1.56h1.25l-.94 1.56h-1.25Zm10.04 0 .94-1.56h1.25l-.94 1.56h-1.25Zm10.03 0 .95-1.56h1.25l-.94 1.56h-1.25Zm10.04 0 .94-1.56h1.26l-.94 1.56h-1.26Zm10.04 0 .94-1.56h1.26l-.94 1.56h-1.26Zm10.04 0 .94-1.56h1.26l-.95 1.56h-1.25Zm10.04 0 .94-1.56h1.25l-.94 1.56h-1.25Zm10.04 0 .94-1.56h1.25l-.94 1.56h-1.25Zm10.03 0 .94-1.56h1.26l-.94 1.56h-1.26Zm10.04 0 .94-1.56h1.26l-.94 1.56h-1.26Zm10.04 0 .94-1.56h1.26l-.94 1.56h-1.26Zm10.04 0 .94-1.56h1.25l-.94 1.56h-1.25Zm10.04 0 .94-1.56h1.25l-.94 1.56h-1.25Zm10.03 0 .94-1.56h1.26l-.94 1.56h-1.26Zm11.65-.47-1.37.22.75-1.55 1.38-.23-.76 1.56Zm12.6-5.63-1.57 1.1-.19-1.14 1.56-1.09.2 1.13Zm9.7-10.55-1.25-.02.96-1.57 1.24.02-.95 1.57Zm5.58-12.54-1.52.6.38-1.45 1.52-.6-.38 1.45Zm1.86-11.16-1.57.89.06-1.29 1.57-.9-.06 1.3Zm.08-10.12-1.56.94V417l1.56-.94v1.25Zm0-10.03-1.56.94v-1.26l1.56-.94v1.26Zm0-10.04-1.56.94v-1.25l1.56-.95v1.26Zm0-10.04-1.56.94v-1.25l1.56-.94v1.25Zm0-10.04-1.56.94v-1.25l1.56-.94v1.25Zm0-10.04-1.56.94v-1.25l1.56-.94v1.25Zm0-10.03-1.56.94v-1.26l1.56-.94v1.26Zm0-10.04-1.56.94v-1.26l1.56-.94v1.26Zm0-10.04-1.56.94v-1.25l1.56-.94V337Zm0-10.04-1.56.94v-1.25l1.56-.94v1.25Zm0-10.04-1.56.94v-1.25l1.56-.94v1.25Zm0-10.04-1.56.95v-1.26l1.56-.94v1.25Zm0-10.03-1.56.94v-1.26l1.56-.94v1.26Zm0-10.04-1.56.94v-1.25l1.56-.95v1.26Zm0-10.04-1.56.94v-1.25l1.56-.95v1.26Zm0-10.04-1.56.94v-1.25l1.56-.94v1.25Zm0-10.04-1.56.94v-1.25l1.56-.94v1.25Zm0-10.03-1.56.94v-1.26l1.56-.94v1.26Zm0-10.04-1.56.94v-1.26l1.56-.94v1.26Zm0-10.04-1.56.94v-1.25l1.56-.94v1.25Zm0-10.04-1.56.94v-1.25l1.56-.94v1.25Zm0-10.04-1.56.95v-1.26l1.56-.94v1.25Zm0-10.03-1.56.94v-1.26l1.56-.94v1.26Zm0-10.04-1.56.94v-1.26l1.56-.94v1.26Zm0-10.04-1.56.94v-1.25l1.56-.94v1.25Zm0-10.04-1.56.94v-1.25l1.56-.94v1.25Zm0-10.04-1.56.94v-1.25l1.56-.94v1.25Zm0-10.03-1.56.94v-1.26l1.56-.94v1.25Zm0-10.04-1.56.94v-1.26l1.56-.94v1.26Zm0-10.04-1.56.94v-1.25l1.56-.95v1.26Zm0-10.04-1.56.94v-1.25l1.56-.94v1.25Zm0-10.04-1.56.94v-1.25l1.56-.94v1.25Zm0-10.03-1.56.94v-1.26l1.56-.94v1.25Zm0-10.05-1.56.96-.03-1.24 1.56-.96.03 1.24Zm-.97-9.5-1.56 1.12-.23-1.1 1.56-1.12.23 1.1Zm-2.45-8.44-1.52 1.23-.4-.98 1.52-1.23.4.98Zm-22.24-22.6-1.17 1.54-1.05-.31 1.17-1.54 1.05.31Zm-9.31-1.3-.94 1.57h-1.26l.94-1.56h1.26Zm-10.04 0-.94 1.57h-1.26l.94-1.56h1.26Zm-10.04 0-.94 1.57h-1.26l.95-1.56h1.25Zm-10.04 0-.94 1.57h-1.25l.94-1.56h1.25Zm-10.04 0-.94 1.57h-1.25l.94-1.56h1.25Zm-10.03 0-.94 1.57h-1.26l.94-1.56h1.26Zm-10.04 0-.94 1.57h-1.26l.94-1.56h1.26Zm-10.04 0-.94 1.57h-1.26l.95-1.56h1.25Zm-10.04 0-.94 1.57h-1.25l.94-1.56h1.25Zm-10.04 0-.94 1.57h-1.25l.94-1.56h1.25Zm-10.03 0-.94 1.57h-1.26l.94-1.56h1.26Zm-10.04 0-.94 1.57h-1.26l.94-1.56h1.26Zm-10.04 0-.94 1.57h-1.26l.95-1.56h1.25Zm-10.04 0-.94 1.57h-1.25l.94-1.56h1.25Zm-10.04 0-.94 1.57h-1.25l.94-1.56h1.25Zm-10.03 0-.94 1.57h-1.26l.94-1.56h1.26Zm-10.04 0-.94 1.57H270l.94-1.56h1.26Zm-10.04 0-.94 1.57h-1.26l.94-1.56h1.26Zm-10.04 0-.94 1.57h-1.25l.94-1.56h1.25Zm-10.04 0-.94 1.57h-1.25l.94-1.56h1.25Z" style="fill:#aaa" transform="scale(3.0243 1.5121) rotate(-45 237.33 384.66)"/><path d="m1604.9 896.29-3.8 2.28v-3.04l3.8-2.29v3.05Zm0-23.14-3.8 2.28v-3.04l3.8-2.29v3.05Zm0-23.14-3.8 2.28v-3.04l3.8-2.29v3.05Zm0-23.14-3.8 2.28v-3.04l3.8-2.29v3.05Zm0-23.14-3.8 2.28v-3.04l3.8-2.29v3.05Zm0-23.14-3.8 2.28v-3.04l3.8-2.29v3.05Zm0-23.14-3.8 2.28v-3.04l3.8-2.29v3.05Zm0-23.14-3.8 2.28v-3.04l3.8-2.29v3.05Zm14.95-27.34-3.11.1 2.2-3.8 3.11-.1-2.2 3.8Zm16.69-28.92-3.11.11 2.2-3.8 3.11-.11-2.2 3.8Zm16.7-28.91-3.11.1 2.19-3.8 3.11-.1-2.19 3.8Zm16.69-28.91-3.11.1 2.2-3.8 3.1-.1-2.19 3.8Zm16.69-28.92-3.11.11 2.2-3.8 3.11-.11-2.2 3.8Zm16.69-28.9-3.1.1 2.19-3.8 3.11-.11-2.2 3.8Zm16.7-28.92-3.11.1 2.2-3.8 3.1-.1-2.19 3.8Zm16.69-28.92-3.11.11 2.2-3.8 3.11-.11-2.2 3.8Zm16.69-28.91-3.1.1 2.19-3.8 3.11-.1-2.2 3.8Zm16.7-28.91-3.11.1 2.19-3.8 3.11-.1-2.19 3.8Zm16.69-28.92-3.11.11 2.2-3.8 3.11-.11-2.2 3.8Zm16.69-28.91-3.11.1 2.2-3.8 3.11-.1-2.2 3.8Zm16.69-28.91-3.1.1 2.19-3.8 3.11-.1-2.2 3.8Zm16.7-28.92-3.11.11 2.2-3.8 3.11-.11-2.2 3.8Zm16.69-28.9-3.11.1 2.2-3.8 3.11-.11-2.2 3.8Zm16.69-28.92-3.1.1 2.19-3.8 3.11-.1-2.2 3.8Zm16.7-28.91-3.11.1 2.2-3.8 3.1-.11-2.19 3.8Zm16.69-28.92-3.11.1 2.2-3.8 3.11-.1-2.2 3.8Zm16.69-28.91-3.11.1 2.2-3.8 3.11-.1-2.2 3.8Zm16.7-28.91-3.11.1 2.19-3.8 3.11-.11-2.19 3.8Zm16.69-28.92-3.11.1 2.2-3.8 3.1-.1-2.19 3.8Zm16.69-28.91-3.11.1 2.2-3.8 3.11-.1-2.2 3.8Zm14.91-22.89 2.28-3.8h3.04l-2.28 3.8h-3.04Zm23.14 0 2.28-3.8h3.05l-2.29 3.8h-3.04Zm23.14 0 2.28-3.8h3.04l-2.28 3.8h-3.04Zm23.14 0 2.28-3.8h3.04l-2.28 3.8h-3.04Zm23.14 0 2.28-3.8h3.04l-2.28 3.8h-3.04Zm23.14 0 2.28-3.8h3.04l-2.28 3.8h-3.04Zm23.14 0 2.28-3.8h3.04l-2.28 3.8h-3.04Zm-5.95 18.97 3.11-.11-2.2 3.8-3.11.11 2.2-3.8Zm-16.69 28.91 3.11-.1-2.2 3.8-3.11.1 2.2-3.8Zm-16.7 28.91 3.11-.1-2.19 3.8-3.11.1 2.19-3.8Zm-16.69 28.92 3.11-.11-2.2 3.8-3.1.11 2.19-3.8Zm-16.69 28.91 3.11-.1-2.2 3.8-3.11.1 2.2-3.8Zm-16.69 28.91 3.1-.1-2.19 3.8-3.11.1 2.2-3.8Zm-16.7 28.92 3.11-.11-2.19 3.8-3.11.11 2.19-3.8Zm-16.69 28.91 3.11-.1-2.2 3.8-3.11.1 2.2-3.8Zm-16.69 28.91 3.11-.1-2.2 3.8-3.11.1 2.2-3.8Zm-16.69 28.92 3.1-.11-2.19 3.8-3.11.11 2.2-3.8Zm-16.7 28.91 3.11-.1-2.2 3.8-3.1.1 2.19-3.8Zm-16.69 28.91 3.11-.1-2.2 3.8-3.11.1 2.2-3.8Zm-16.69 28.92 3.11-.11-2.2 3.8-3.11.11 2.2-3.8Zm-16.7 28.9 3.11-.1-2.19 3.8-3.11.11 2.19-3.8Zm-16.69 28.92 3.11-.1-2.2 3.8-3.1.1 2.19-3.8Zm-16.69 28.92 3.11-.11-2.2 3.8-3.11.11 2.2-3.8Zm-16.69 28.9 3.11-.1-2.2 3.8-3.11.11 2.2-3.8Zm-16.7 28.92 3.11-.1-2.19 3.8-3.11.1 2.19-3.8Zm-16.69 28.92 3.11-.11-2.2 3.8-3.1.11 2.19-3.8Zm-4.46 24.37 3.6-3.14 1.24 2.13-3.6 3.15-1.24-2.14Zm9.39 16.26 3.6-3.15 1.23 2.14-3.6 3.15-1.23-2.14Zm9.38 16.26 3.6-3.15 1.24 2.14-3.6 3.14-1.24-2.13Zm9.39 16.25 3.6-3.15 1.23 2.14-3.6 3.15-1.23-2.14Zm9.38 16.26 3.6-3.15 1.24 2.14-3.6 3.15-1.24-2.14Zm9.39 16.26 3.6-3.15 1.23 2.14-3.6 3.14-1.23-2.13Zm9.38 16.25 3.6-3.14 1.24 2.13-3.6 3.15-1.24-2.14Zm9.39 16.26 3.6-3.15 1.23 2.14-3.6 3.15-1.23-2.14Zm9.38 16.26 3.6-3.15 1.24 2.14-3.6 3.14-1.24-2.13Zm9.39 16.25 3.6-3.14 1.24 2.13-3.6 3.15-1.24-2.14Zm9.38 16.26 3.61-3.15 1.23 2.14-3.6 3.15-1.24-2.14Zm9.39 16.26 3.6-3.15 1.24 2.14-3.6 3.14-1.24-2.13Zm9.39 16.25 3.6-3.14 1.23 2.13-3.6 3.15-1.23-2.14Zm9.38 16.26 3.6-3.15 1.24 2.14-3.6 3.15-1.24-2.14Zm9.39 16.26 3.6-3.15 1.23 2.14-3.6 3.14-1.23-2.13Zm9.38 16.25 3.6-3.15 1.24 2.14-3.6 3.15-1.24-2.14Zm9.39 16.26 3.6-3.15 1.23 2.14-3.6 3.15-1.23-2.14Zm9.38 16.26 3.6-3.15 1.24 2.14-3.6 3.14-1.24-2.13Zm9.39 16.25 3.6-3.15 1.23 2.14-3.6 3.15-1.23-2.14Zm14.36 13.8-2.29 3.8h-3.04l2.28-3.8h3.05Zm-23.14 0-2.29 3.8h-3.04l2.28-3.8h3.05Zm-23.14 0-2.29 3.8h-3.04l2.28-3.8h3.05Zm-23.14 0-2.29 3.8h-3.04l2.28-3.8h3.05Zm-23.14 0-2.29 3.8h-3.04l2.28-3.8h3.05Zm-23.14 0-2.29 3.8h-3.04l2.28-3.8h3.05Zm-23.14 0-2.29 3.8h-3.04l2.28-3.8h3.05Zm-23.14 0-2.29 3.8h-3.04l2.28-3.8h3.05Zm-23.14 0-2.29 3.8h-3.04l2.28-3.8h3.05Zm-23.14 0-2.29 3.8h-3.04l2.28-3.8h3.05Zm-23.14 0-2.29 3.8h-3.04l2.28-3.8h3.05Zm-23.14 0-2.29 3.8h-3.04l2.28-3.8h3.05Zm-23.14 0-2.29 3.8h-3.04l2.28-3.8h3.05Zm-23.14 0-2.29 3.8h-3.04l2.28-3.8h3.05Zm-23.14 0-2.29 3.8h-3.04l2.28-3.8h3.05Zm-23.14 0-2.29 3.8h-3.04l2.28-3.8h3.05Zm-20.63-3.1-3.04 3.65-2.29-1.06 3.05-3.65 2.28 1.06Zm-14.59-10.75-3.49 3.3-1.51-1.88 3.49-3.3 1.51 1.88Zm-8.38-16.62-3.77 2.68-.52-2.7 3.77-2.69.52 2.7ZM2474.71 915.66l.23-1.65 3.78-1.89-.24 1.65-.24 1.66-3.77 1.88.24-1.65Zm-18.47 26.88 1.9-1.03-.26 3.19-1.9 1.04-1.89 1.03.25-3.2 1.9-1.03Zm-26.18 4.56-2.29 3.8h-3.04l2.28-3.8h3.05Zm-26.49 0-2.29 3.8h-3.04l2.28-3.8h3.05Zm-26.49 0-2.28 3.8h-3.05l2.28-3.8h3.05Zm-26.49 0-2.28 3.8h-3.05l2.28-3.8h3.05Zm-26.49 0-2.28 3.8h-3.05l2.28-3.8h3.05Zm-26.49 0-2.28 3.8h-3.05l2.29-3.8h3.04Zm-26.49 0-2.28 3.8h-3.05l2.29-3.8h3.04Zm-26.49 0-2.28 3.8h-3.05l2.29-3.8h3.04Zm-26.49 0-2.28 3.8h-3.04l2.28-3.8h3.04Zm-26.48 0-2.29 3.8h-3.04l2.28-3.8h3.05Zm-26.49 0-2.29 3.8h-3.04l2.28-3.8h3.05Zm-26.49 0-2.29 3.8h-3.04l2.28-3.8h3.05Zm-26.49 0-2.29 3.8h-3.04l2.28-3.8h3.05Zm-26.49 0-2.29 3.8h-3.04l2.28-3.8h3.05Zm-26.49 0-2.28 3.8h-3.05l2.28-3.8h3.05Zm-24.8-.89-3.6 3.15-1.24-2.14 3.6-3.15 1.24 2.14Zm-10.75-18.61-3.6 3.15-1.23-2.14 3.6-3.15 1.23 2.14Zm-10.74-18.6-3.6 3.14-1.23-2.14 3.59-3.15 1.24 2.14Zm-10.74-18.62-3.6 3.15-1.24-2.14 3.6-3.15 1.24 2.14Zm-10.75-18.6-3.6 3.14-1.23-2.14 3.6-3.15 1.23 2.14Zm-10.74-18.62-3.6 3.15-1.24-2.14 3.6-3.15 1.24 2.14Zm-10.75-18.6-3.59 3.14-1.24-2.14 3.6-3.15 1.23 2.14Zm-10.74-18.62-3.6 3.15-1.23-2.14 3.6-3.15 1.23 2.14Zm-10.74-18.6-3.6 3.14-1.24-2.14 3.6-3.15 1.24 2.14Zm-10.75-18.62-3.6 3.15-1.23-2.14 3.6-3.15 1.23 2.14Zm-10.74-18.6-3.6 3.14-1.24-2.14 3.6-3.14 1.24 2.13Zm-10.74-18.62-3.61 3.15-1.23-2.14 3.6-3.14 1.24 2.13Zm-10.75-18.6-3.6 3.14-1.23-2.14 3.6-3.14 1.23 2.13Zm-10.74-18.62-3.6 3.15-1.24-2.14 3.6-3.14 1.24 2.13Zm-10.75-18.6-3.6 3.14-1.23-2.14 3.6-3.14 1.23 2.14Zm-10.74-18.61-3.6 3.14-1.24-2.13 3.61-3.15 1.23 2.14Zm-13.5-15.04 2.29-3.8h3.04l-2.28 3.8h-3.05Zm26.49 0 2.28-3.8h3.05l-2.28 3.8h-3.05Zm26.49 0 2.28-3.8h3.05l-2.29 3.8h-3.04Zm26.49 0 2.28-3.8h3.05l-2.29 3.8h-3.04Zm26.49 0 2.28-3.8h3.05l-2.29 3.8h-3.04Zm26.49 0 2.28-3.8h3.05l-2.29 3.8h-3.04Zm26.48 0 2.29-3.8h3.04l-2.28 3.8h-3.05Zm26.49 0 2.29-3.8h3.04l-2.28 3.8h-3.05Zm26.49 0 2.29-3.8h3.04l-2.28 3.8h-3.05Zm26.49 0 2.29-3.8h3.04l-2.28 3.8h-3.05Zm26.49 0 2.28-3.8h3.05l-2.28 3.8h-3.05Zm26.49 0 2.28-3.8h3.05l-2.28 3.8h-3.05Zm26.49 0 2.28-3.8h3.05l-2.29 3.8h-3.04Zm26.49 0 2.28-3.8h3.05l-2.29 3.8h-3.04Zm26.49 0 2.28-3.8h3.05l-2.29 3.8h-3.04Zm26.49 0 2.28-3.8h3.04l-2.28 3.8h-3.04Zm26.49 0 2.28-3.8h3.04l-2.28 3.8h-3.04Zm26.48 0 2.29-3.8h3.04l-2.28 3.8h-3.05Zm26.49 0 2.29-3.8h3.04l-2.28 3.8h-3.05Zm26.49 0 2.29-3.8h3.04l-2.28 3.8h-3.05Zm26.49 0 2.29-3.8h3.04l-2.28 3.8h-3.05Zm26.49 0 2.28-3.8h3.05l-2.28 3.8h-3.05Zm26.49 0 2.28-3.8h3.05l-2.29 3.8h-3.04Zm26.49 0 2.28-3.8h3.05l-2.29 3.8H2469Zm6.1 18.87 3.8-2.29v3.05l-3.8 2.28v-3.05Zm0 26.48 3.8-2.28v3.04l-3.8 2.29v-3.05Zm0 26.5 3.8-2.3v3.05l-3.8 2.29v-3.05Zm0 26.48 3.8-2.28v3.04l-3.8 2.29v-3.05Zm0 26.5 3.8-2.3v3.05l-3.8 2.29v-3.05Zm0 26.48 3.8-2.28v3.04l-3.8 2.28v-3.04Zm0 26.49 3.8-2.28v3.04l-3.8 2.28v-3.04Zm0 26.49 3.8-2.29v3.05l-3.8 2.28v-3.04Zm0 26.49 3.8-2.29v3.05l-3.8 2.28v-3.04ZM2437.76 73.73a40.53 40.53 0 0 1 40.51 40.2V617.3h-349.82L1992.7 382.23l178.12-308.5h266.94Zm-1.52 2.54h-264.86l-175.86 304.6 135.07 233.9h345.14V115.45a39.52 39.52 0 0 0-39.49-39.18ZM1939.19 617.31a47.3 47.3 0 0 1-41.09-23.54 48.07 48.07 0 0 1 .16-47.95l76.59-132.65 117.86 204.14h-153.52Zm148.44-2.53-113.57-196.72-73.72 127.69a45.84 45.84 0 0 0 .16 45.92 46.29 46.29 0 0 0 40.21 23.1h146.92Z" style="fill:#aaa" transform="scale(1.2463 .6232) rotate(-45 1417.1 2591.43)"/><path d="m43.87 333.64 2.26-1.4v1.86l-2.26 1.4v-1.86Zm0 14.86 2.26-1.4v1.87l-2.26 1.39v-1.86Zm0 14.87 2.26-1.4v1.86l-2.26 1.4v-1.87Zm0 14.86 2.26-1.4v1.86l-2.26 1.4v-1.86Zm.04 14.86 2.27-1.45.07 1.82-2.27 1.45-.07-1.82Zm1.43 14.04 2.24-1.64.3 1.66-2.24 1.63-.3-1.65Zm3.16 12.77 2.2-1.77.51 1.5L49 421.4l-.5-1.5Zm4.67 11.56 2.16-1.88.68 1.35-2.16 1.89-.68-1.36Zm6.06 10.36 2.1-1.99.86 1.2-2.1 2-.86-1.21Zm7.44 9.07 2.02-2.08 1.02 1.03-2.02 2.08-1.02-1.03Zm8.87 7.61 1.92-2.17 1.2.83-1.91 2.17-1.21-.83Zm10.48 5.82 1.76-2.25 1.43.57-1.77 2.25-1.42-.57Zm12.41 3.4 1.51-2.31 1.7.2-1.52 2.31-1.69-.2Zm14.32.44 1.36-2.32h1.82l-1.36 2.32h-1.82Zm14.52 0 1.36-2.32h1.81l-1.36 2.32h-1.81Zm14.51 0 1.36-2.32h1.82l-1.36 2.32h-1.82Zm14.52 0 1.36-2.32h1.81l-1.36 2.32h-1.81Zm14.51 0 1.36-2.32H174l-1.36 2.32h-1.82Zm14.52 0 1.36-2.32h1.81l-1.36 2.32h-1.81Zm14.51 0 1.36-2.32h1.82l-1.36 2.32h-1.82Zm14.52 0 1.36-2.32h1.81l-1.36 2.32h-1.81Zm14.51 0 1.36-2.32h1.82l-1.36 2.32h-1.82Zm14.52 0 1.36-2.32h1.81l-1.36 2.32h-1.81Zm14.51 0 1.36-2.32h1.82l-1.36 2.32h-1.82Zm14.52 0 1.36-2.32h1.81l-1.36 2.32h-1.81Zm14.51 0 1.36-2.32h1.82l-1.36 2.32h-1.82Zm14.52 0 1.36-2.32h1.81l-1.36 2.32h-1.81Zm14.51 0 1.36-2.32h1.82l-1.36 2.32h-1.82Zm14.52 0 1.36-2.32h1.81l-1.36 2.32h-1.81Zm14.51 0 1.36-2.32h1.82l-1.36 2.32h-1.82Zm14.52 0 1.36-2.32h1.81l-1.36 2.32h-1.81Zm14.51 0 1.36-2.32h1.82l-1.36 2.32h-1.82Zm14.52 0 1.36-2.32h1.81l-1.36 2.32h-1.81Zm14.51 0 1.36-2.32h1.82l-1.36 2.32h-1.82Zm17.82-2.42-2.12.63.81-2.23 2.12-.64-.8 2.24Zm17.38-9.43-1.11.87-.47-1.53 1.11-.87 1.11-.88.47 1.53-1.11.88Zm15.07-16.49-1.71-.17 1.49-2.31 1.71.17-1.49 2.31Zm9.34-18.78-2.14.7.76-2.22 2.14-.7-.76 2.22Zm4.33-17.27-2.25 1.15.29-2.02 2.25-1.14-.3 2.01Zm1.14-15.64-2.26 1.4v-1.86l2.26-1.4v1.86Zm0-14.86-2.26 1.4v-1.87l2.26-1.39v1.86Zm0-14.87-2.26 1.4v-1.86l2.26-1.4v1.86Zm0-14.86-2.26 1.4v-1.86l2.26-1.4v1.86Zm0-14.86-2.26 1.4v-1.87l2.26-1.39v1.86Zm0-14.87-2.26 1.4v-1.86l2.26-1.4v1.87Zm0-14.86-2.26 1.4v-1.86l2.26-1.4v1.86Zm0-14.86-2.26 1.4v-1.87l2.26-1.39v1.86Zm0-14.86-2.26 1.39v-1.86l2.26-1.4v1.87Zm0-14.87-2.26 1.4v-1.86l2.26-1.4v1.86Zm0-14.86-2.26 1.4v-1.87l2.26-1.39v1.86Zm0-14.87-2.26 1.4v-1.86l2.26-1.4v1.86Zm0-14.86-2.26 1.4v-1.86l2.26-1.4v1.86Zm0-14.86-2.26 1.4v-1.87l2.26-1.39v1.86Zm0-14.87-2.26 1.4v-1.86l2.26-1.4v1.86Zm0-14.86-2.26 1.4v-1.86l2.26-1.4v1.86Zm0-14.86-2.26 1.4v-1.87l2.26-1.39v1.86Zm0-14.86-2.26 1.39v-1.86l2.26-1.4v1.87Zm0-14.88-2.27 1.43-.04-1.84 2.27-1.42.04 1.83Zm-1.21-14.18-2.25 1.61-.28-1.67 2.25-1.61.28 1.67Zm-2.98-12.91-2.22 1.76-.48-1.53 2.22-1.75.48 1.52Zm-4.5-11.7-2.18 1.87-.66-1.37 2.17-1.88.66 1.38Zm-5.92-10.5-2.1 1.98-.84-1.22 2.11-1.98.83 1.22Zm-7.27-9.22-2.04 2.07-1-1.05 2.03-2.07 1 1.05Zm-8.7-7.8-1.94 2.17-1.19-.86 1.94-2.16 1.18.86Zm-10.29-6.04-1.78 2.24-1.4-.6 1.78-2.24 1.4.6Zm-12.17-3.72-1.55 2.31-1.66-.25 1.55-2.3 1.66.24Zm-14.2-.67-1.36 2.32h-1.81l1.36-2.32h1.81Zm-14.51 0-1.36 2.32h-1.82l1.36-2.32h1.82Zm-14.52 0-1.36 2.32h-1.81l1.36-2.32h1.81Zm-14.51 0-1.36 2.32h-1.82l1.36-2.32h1.82Zm-14.52 0-1.36 2.32h-1.81l1.36-2.32h1.81Zm-14.51 0-1.36 2.32h-1.82l1.36-2.32h1.82Z" style="fill:#aaa" transform="matrix(1.479 -.7395 1.4443 .7221 -534.93 1150.62)"/><path d="M13.48 22H9.82l-.73 2.28a.27.27 0 0 1-.08.13.26.26 0 0 1-.19.08H6.94c-.12 0-.17-.07-.13-.2l3.22-9.25.1-.3c.04-.22.06-.44.06-.65 0-.04.02-.08.04-.11a.18.18 0 0 1 .12-.07h2.59c.08 0 .13.03.14.09l3.66 10.25v.11c0 .04-.02.06-.04.08a.16.16 0 0 1-.06.04.2.2 0 0 1-.07.01h-2.1a.17.17 0 0 1-.17-.13L13.48 22Zm-3.2-8v.03c0 .23-.02.45-.06.66l-.1.33-3.22 9.23c-.03.1 0 .15.1.15h1.94a.1.1 0 0 0 .03-.03.1.1 0 0 0 .03-.05l.78-2.42h3.78l.82 2.4c.02.06.08.11.14.1h2.14v-.08L13 14.06c-.01-.05-.05-.07-.12-.07H10.3Z" style="fill:#aaa" transform="scale(36.299 18.1496) rotate(-45 63.39 53.15)"/><path d="m11.63 15.8.05-.03.02-.01a67 67 0 0 0 .48 1.66l.29.92a109.79 109.79 0 0 1 .5 1.59l.02.08h-2.65v-.02.01-.08h.02l.44-1.35c.15-.5.3-1 .46-1.48.13-.41.24-.84.33-1.26l.07-.08h.02l-.04.05Zm-1.2 4.12h2.43l-.2-.65-.28-.86-.29-.92a34.28 34.28 0 0 1-.45-1.55c-.08.38-.18.75-.3 1.12l-.46 1.49c-.15.49-.3.95-.45 1.37Z" style="fill:#aaa" transform="scale(36.299 18.1496) rotate(-45 63.39 53.15)"/><path d="M36.12 24.21h-3.09c.05.29.14.56.3.8.17.27.43.48.72.6.4.18.83.26 1.27.25.35 0 .7-.04 1.03-.11a3.82 3.82 0 0 0 .93-.25h.05l.02.11v1.53c0 .05 0 .1-.03.14v.01a.31.31 0 0 1-.1.1l-.01.01c-.33.15-.67.25-1.02.3-.47.1-.94.14-1.42.13-.66.02-1.32-.1-1.93-.36a3.45 3.45 0 0 1-1.95-2.27 5.21 5.21 0 0 1 .04-3.06c.16-.51.42-.98.76-1.4.34-.4.76-.74 1.24-.97.54-.24 1.12-.35 1.7-.32.53-.02 1.07.09 1.56.3.41.18.78.46 1.06.8a4.1 4.1 0 0 1 .8 2.37 7.46 7.46 0 0 1-.07 1.07c0 .06-.04.1-.08.14a.22.22 0 0 1-.13.06 7.82 7.82 0 0 1-.9.06c-.25 0-.49-.04-.75-.04Zm.05-.09c.26 0 .5.04.74.04a7.83 7.83 0 0 0 .96-.08c.02 0 .02-.02.02-.04a13.28 13.28 0 0 0 .07-1.06 3.97 3.97 0 0 0-.8-2.35 2.74 2.74 0 0 0-1.04-.8 3.6 3.6 0 0 0-1.54-.3 3.73 3.73 0 0 0-1.66.31 3.5 3.5 0 0 0-1.17.93c-.33.4-.58.85-.74 1.34a5.03 5.03 0 0 0-.04 3.03c.14.47.38.92.7 1.3.33.41.76.73 1.24.95.6.25 1.26.37 1.91.35.48 0 .95-.03 1.41-.12a4.07 4.07 0 0 0 1.02-.33.18.18 0 0 0 .02-.1v-1.52c0-.04 0-.06-.02-.08h-.03a5.92 5.92 0 0 1-1.95.35c-.44.02-.88-.07-1.29-.24-.3-.13-.56-.34-.74-.6a2.28 2.28 0 0 1-.3-.9l-.02-.08h3.25Zm-3.24-1.4c.04-.25.12-.5.23-.73.27-.52.81-.84 1.4-.8a1.34 1.34 0 0 1 1.38 1.3v.13l-.05.03a.61.61 0 0 1-.26.09H32.93v-.02Zm.1-.06h2.08l.57-.01c.06 0 .12-.02.17-.05v-.06c0-.12-.03-.25-.07-.36a1.3 1.3 0 0 0-1.28-.91 1.32 1.32 0 0 0-1.26.7c-.11.22-.18.45-.22.69Z" style="fill:#aaa" transform="scale(36.299 18.1496) rotate(-45 66.37 71.06)"/><path d="M468.01 87.7 466 88.73V86.7l2.02-1.01v2.03Zm-1.95-15.34-1.96 1.5-.52-1.7 1.96-1.5.52 1.7Zm-5.65-12.59-1.81 1.82-.92-1.35 1.82-1.82.91 1.35Zm-8.7-9.57-1.58 2.07-1.28-.94 1.58-2.06 1.28.93Zm-11.76-5.64-1.16 2.24-1.67-.32 1.16-2.25 1.67.33Zm-14.34-.7-.9 2.27h-1.82l.9-2.26h1.82Zm-14.52 0-.9 2.27h-1.82l.91-2.26h1.81Zm-14.51 0-.9 2.27h-1.82l.9-2.26h1.82Zm-14.52 0-.9 2.27h-1.82l.91-2.26h1.81Zm-14.51 0-.9 2.27h-1.82l.9-2.26h1.82Zm-14.51 0-.91 2.27h-1.82l.91-2.26h1.81Zm-14.52 0-.9 2.27h-1.82l.9-2.26h1.82Zm-14.51 0-.91 2.27h-1.82l.91-2.26H324Zm-14.52 0-.9 2.27h-1.82l.9-2.26h1.82Zm-14.51 0-.91 2.27h-1.82l.91-2.26h1.81Zm-14.52 0-.9 2.27h-1.82l.9-2.26h1.82Zm-14.51 0-.91 2.27h-1.82l.91-2.26h1.81Zm-14.52 0-.9 2.27h-1.82l.9-2.26h1.82Zm-14.52 0-.9 2.27h-1.82l.91-2.26h1.81Zm-14.51 0-.9 2.27h-1.82l.9-2.26h1.82Zm-14.52 0-.9 2.27h-1.82l.91-2.26h1.81Zm-14.51 0-.9 2.27h-1.82l.9-2.26h1.82Zm-14.52 0-.9 2.27h-1.82l.91-2.26h1.81Zm-14.51 0-.9 2.27h-1.82l.9-2.26h1.82Zm-14.52 0-.9 2.27h-1.82l.91-2.26h1.81Zm-14.51 0-.9 2.27h-1.82l.9-2.26h1.82Zm-14.52 0-.9 2.27h-1.82l.91-2.26h1.81Zm-14.51 0-.9 2.27h-1.82l.9-2.26h1.82Zm-14.52 0-.9 2.27h-1.82l.91-2.26h1.81Zm-16.5.27 1.88-.2-.74 2.26-1.88.2.74-2.26Zm-16.58 8.03 1.92-1.62.65 1.6-1.92 1.61-.65-1.6ZM47.95 67.58l1.82-.03-.89 2.27-1.82.03.88-2.27ZM44.02 85.6l2.02-.97-.04 2.05-2.02.97.04-2.05Zm-.03 16.27 2.02-1.02v2.03L44 103.9v-2.03Zm0 16.23 2.02-1.02v2.03L44 120.13v-2.03Zm0 16.22 2.02-1.01v2.03L44 136.35v-2.03Zm0 16.23 2.02-1.01v2.03L44 152.58v-2.03Zm0 16.23 2.02-1.01v2.02L44 168.81v-2.03Zm0 16.23L46 182v2.02L44 185.04V183Zm0 16.23 2.02-1.02v2.03L44 201.27v-2.03Zm0 16.22 2.02-1v2.02L44 217.49v-2.03Zm0 16.23 2.02-1.01v2.03L44 233.72v-2.03Zm0 16.23 2.02-1.01v2.03L44 249.95v-2.03Zm0 16.23 2.02-1.01v2.02L44 266.18v-2.03Zm0 16.23 2.02-1.02v2.03L44 282.41v-2.03Zm0 16.23 2.02-1.02v2.03L44 298.63v-2.02Zm0 16.22 2.02-1.01v2.03L44 314.86v-2.03Zm0 16.23 2.02-1.01v2.03L44 331.09v-2.03Zm0 16.23 2.02-1.01v2.03L44 347.31v-2.03Zm0 16.23L46 360.5v2.02L44 363.55v-2.03Zm0 16.23 2.02-1.02v2.03L44 379.78v-2.03Zm0 16.23 2.02-1.02V395L44 396v-2.02Zm0 16.22L46 409.2v2.03L44 412.23v-2.03Zm0 16.27 2.03-1.1.07 2-2.02 1.09-.08-1.99Zm2.5 15 1.95-1.56.58 1.66-1.95 1.55-.57-1.66Zm6.08 12.2 1.78-1.85.97 1.3-1.79 1.86-.96-1.3Zm9.1 9.13 1.53-2.1 1.32.87-1.53 2.1-1.33-.87Zm12.18 5 1.08-2.27 1.71.23-1.08 2.25-1.71-.22Zm14.45.33.91-2.26h1.82l-.91 2.26H88.3Zm14.52 0 .9-2.26h1.82l-.9 2.26h-1.82Zm14.51 0 .91-2.26h1.82l-.91 2.26h-1.82Zm14.52 0 .9-2.26h1.82l-.9 2.26h-1.82Zm14.51 0 .91-2.26h1.81l-.9 2.26h-1.82Zm14.52 0 .9-2.26h1.82l-.9 2.26h-1.82Zm14.51 0 .91-2.26h1.82l-.91 2.26h-1.82Zm14.52 0 .9-2.26h1.82l-.9 2.26h-1.82Zm14.51 0 .91-2.26h1.81l-.9 2.26h-1.82Zm14.52 0 .9-2.26h1.82l-.9 2.26h-1.82Zm14.51 0 .91-2.26h1.81l-.9 2.26h-1.82Zm14.52 0 .9-2.26h1.82l-.9 2.26h-1.82Zm14.51 0 .91-2.26h1.81l-.9 2.26h-1.82Zm14.52 0 .9-2.26h1.82l-.9 2.26H277Zm14.51 0 .91-2.26h1.81l-.9 2.26h-1.82Zm14.52 0 .9-2.26h1.82l-.9 2.26h-1.82Zm14.51 0 .91-2.26h1.81l-.9 2.26h-1.82Zm14.52 0 .9-2.26h1.82l-.9 2.26h-1.82Zm14.51 0 .91-2.26h1.81l-.9 2.26h-1.82ZM468.01 408l-2.02 1v-2.02l2.02-1.01v2.02Zm0-16.23-2.02 1.01v-2.03l2.02-1.01v2.03Zm0-16.23-2.02 1.01v-2.03l2.02-1.01v2.03Zm0-16.23-2.02 1.01v-2.02l2.02-1.02v2.03Zm0-16.23L466 344.1v-2.03l2.02-1.02v2.03Zm0-16.23-2.02 1.02v-2.03l2.02-1.01v2.02Zm0-16.23-2.02 1.02v-2.03l2.02-1.01v2.02Zm0-16.22L466 295.4v-2.03l2.02-1.01v2.03Zm0-16.23-2.02 1.01v-2.03l2.02-1.01v2.03Zm0-16.23-2.02 1.01v-2.02l2.02-1.02v2.03Zm0-16.23-2.02 1.02v-2.03l2.02-1.02v2.03Zm0-16.22-2.02 1v-2.02l2.02-1.01v2.03Zm0-16.23-2.02 1.01v-2.03l2.02-1.01v2.03Zm0-16.23-2.02 1.01v-2.03L468 195v2.03Zm0-16.23-2.02 1.01v-2.02l2.02-1.02v2.03Zm0-16.23L466 165.6v-2.03l2.02-1.02v2.03Zm0-16.23-2.02 1.02v-2.03l2.02-1.02v2.03Zm0-16.22-2.02 1.01v-2.03l2.02-1.01v2.03Zm0-16.23L466 116.9v-2.03l2.02-1.01v2.03Zm0-16.23-2.02 1.01v-2.03l2.02-1v2.02Z" style="fill:#aaa" transform="matrix(1.479 .7395 0 1.479 771.05 1050.27)"/><path d="M2697.61 948.13a41 41 0 0 1-26.14-35.23v-.06l-.11-179.1 191.37-331.32h151.64l-315.48 546.2-1.28-.49Zm.91-4.05 310.73-538h-145.64l-188.97 327.18.11 177.85a39.09 39.09 0 0 0 23.77 32.97ZM2733.7 950.83l236.99-409.86 236.73 409.86H2733.7Zm466.96-3.67-230.79-399.58-231.05 399.58h461.84ZM3548.64 908.18a42.7 42.7 0 0 1-12.34 29.91 42.13 42.13 0 0 1-29.22 12.74h-264.96l-174.76-302.58h481.28v259.93Zm-3.28-256.26h-471.24l170.52 295.24h263.88a37.68 37.68 0 0 0 26.27-11.22 37.1 37.1 0 0 0 10.57-26.12v-257.9ZM3520.95 75.34a41.03 41.03 0 0 1 27.69 38.84v503.66h-342.56L3519.67 74.9l1.28.43Zm-.85 4.03-308.9 534.8h334.16V115.82a39.04 39.04 0 0 0-25.26-36.45ZM3484.33 73.17l-234.67 406.3-215.71-373.49 18.95-32.81h431.43Zm-430.55 3.66-16.01 27.74 212.71 368.28 228.73-396.02h-425.43ZM2880.28 372.02l136.31-236 136.31 236h-272.62Zm265.86-3.66-130.37-225.72-130.37 225.72h260.74ZM3144.44 406.38l2.22-5.5 4.4.01-2.22 5.5-4.4-.01Zm27.54 11.06 4.19-4.68 2.58 2.9-4.19 4.68-2.58-2.9Zm16.63 26.44 4.49-4.26 2.01 3.48-4.49 4.26-2.01-3.48Zm15.9 27.53 4.49-4.26 2.02 3.49-4.5 4.26-2.01-3.49Zm15.41 27.55 4.76-3.63 1.25 4.13-4.76 3.64-1.25-4.14Zm-6.77 37.2 3.83 1.18-3.09 5.37-3.83-1.17 3.09-5.38Zm-24.52 42.42 3.81 1.2-3.11 5.38-3.81-1.2 3.11-5.38Zm-28.33 32.72-1.08 5.35-4.8 1.31 1.08-5.34 4.8-1.32Zm-34.89 1.96-2.19 5.5h-4.41l2.2-5.5h4.4Zm-34.78 0-2.2 5.5h-4.4l2.2-5.5h4.4Zm-32.31-3.55-3.55 5.19-3.41-1.85 3.55-5.18 3.41 1.84Zm-20.08-21.92-4.49 4.26-2.01-3.49 4.49-4.26 2.01 3.49Zm-15.9-27.53-4.5 4.25-2.01-3.48 4.49-4.26 2.02 3.49Zm-15.91-27.54-4.49 4.26-2.01-3.49 4.49-4.25 2.01 3.48Zm-6.38-34.6-.89 2.75-4.59.52.88-2.74.89-2.74 4.59-.52-.88 2.74Zm21.66-39.03-3.82-1.19 3.1-5.37 3.82 1.18-3.1 5.38Zm26.5-43.16-2.25 2.13-2.01-3.48 2.24-2.13 2.25-2.13 2.01 3.48-2.24 2.13Zm32.34-9.56 2.2-5.5h4.4l-2.2 5.5h-4.4Zm34.78.01 2.2-5.5h4.4l-2.2 5.5h-4.4Z" style="fill:#aaa" transform="matrix(.6095 .3047 0 .6095 -745.81 358.4)"/><path d="m332.24 43.84.91 2.32h-1.81l-.91-2.32h1.81Zm-14.51 0 .9 2.32h-1.8l-.92-2.32h1.82Zm-14.52 0 .91 2.32h-1.81l-.91-2.32h1.81Zm-14.51 0 .9 2.32h-1.8l-.92-2.32h1.82Zm-14.52 0 .91 2.32h-1.81l-.91-2.32h1.81Zm-14.51 0 .9 2.32h-1.8l-.91-2.32h1.8Zm-14.52 0 .91 2.32h-1.81l-.91-2.32h1.81Zm-14.51 0 .9 2.32h-1.8l-.92-2.32h1.82Zm-14.51 0 .9 2.32h-1.81l-.91-2.32h1.81Zm-14.52 0 .9 2.32h-1.8l-.92-2.32h1.82Zm-14.52 0 .91 2.32h-1.81l-.91-2.32h1.81Zm-14.51 0 .9 2.32h-1.8l-.92-2.32h1.82Zm-14.52 0 .91 2.32h-1.81l-.9-2.32h1.8Zm-14.51 0 .9 2.32h-1.8l-.91-2.32h1.81Zm-14.52 0 .91 2.32h-1.81l-.9-2.32h1.8Zm-14.51 0 .9 2.32h-1.8l-.91-2.32h1.81Zm-14.49.27 1.08 2.31-1.73.22-1.07-2.31 1.72-.22Zm-13.14 3.3 1.36 2.24-1.5.63-1.36-2.24 1.5-.63Zm-11.36 6.24 1.57 2.12-1.3.95-1.56-2.13 1.29-.94Zm-9.68 8.53 1.71 1.99-1.09 1.2-1.7-2 1.08-1.2ZM57.8 72.6l1.83 1.84-.89 1.42-1.83-1.84.89-1.42Zm-6.38 12.13 1.91 1.67-.67 1.62-1.91-1.67.67-1.62Zm-4.58 13.72 1.98 1.46-.43 1.8-1.98-1.45.43-1.8Zm-2.5 15.27 2.02 1.2-.15 1.99-2.02-1.19.14-2Zm-.35 16.51 2.02 1.04v2.08L44 132.32v-2.08Zm0 16.62L46 147.9v2.07L44 148.94v-2.08Zm0 16.61 2.02 1.04v2.08L44 165.55v-2.08Zm0 16.62 2.02 1.04v2.08L44 182.17v-2.08Zm0 16.62 2.02 1.04v2.08L44 198.79v-2.08Zm0 16.62 2.02 1.04v2.07L44 215.41v-2.08Zm0 16.62 2.02 1.04v2.07L44 232.02v-2.07Zm0 16.61L46 247.6v2.08L44 248.64v-2.08Zm0 16.62 2.02 1.04v2.08L44 265.26v-2.08Zm0 16.62 2.02 1.04v2.08L44 281.88v-2.08Zm0 16.62 2.02 1.03v2.08L44 298.5v-2.07Zm0 16.61 2.02 1.04v2.08L44 315.11v-2.08Zm0 16.62L46 330.7v2.08L44 331.73v-2.08Zm0 16.62 2.02 1.04v2.08L44 348.35v-2.08Zm0 16.62 2.02 1.04V366L44 364.96v-2.07Zm0 16.62 2.02 1.03v2.08L44 381.58v-2.07Zm.27 16.84 2.02.85.19 2.16-2.02-.84-.19-2.17Zm3.08 18.1 1.91.32.66 2.3-1.92-.31-.66-2.3Zm7.43 18.9 1.6-.48 1.26 2.27-1.6.48-1.26-2.27Zm12.66 17.42.85-1.46 1.84 1.82-.85 1.45-1.84-1.81Zm16.15 11.95-.07-2.11 2.03.96.07 2.12-2.03-.97Zm16.19 5.03-.74-2.31 1.89.2.74 2.32-1.9-.21Zm14.75.41-.91-2.32h1.81l.9 2.32h-1.8Zm14.5 0-.9-2.32h1.82l.9 2.32h-1.81Zm14.52 0-.9-2.32h1.81l.9 2.32h-1.8Zm14.52 0-.9-2.32h1.8l.91 2.32h-1.81Zm14.51 0-.9-2.32h1.81l.9 2.32h-1.8Zm14.52 0-.9-2.32h1.8l.91 2.32h-1.81Zm14.51 0-.9-2.32h1.81l.9 2.32h-1.8Zm14.52 0-.9-2.32h1.8l.91 2.32h-1.81Zm14.51 0-.9-2.32h1.81l.9 2.32h-1.8Zm14.52 0-.9-2.32h1.8l.91 2.32h-1.81Zm14.51 0-.9-2.32h1.81l.9 2.32h-1.8Zm14.52 0-.9-2.32h1.8l.91 2.32h-1.81Zm14.51 0-.9-2.32h1.81l.9 2.32h-1.8Zm14.52 0-.9-2.32h1.8l.91 2.32h-1.81Zm14.51 0-.9-2.32h1.81l.9 2.32h-1.8Zm14.52 0-.9-2.32h1.8l.91 2.32h-1.81Z" style="fill:#aaa" transform="matrix(1.479 -.7395 0 1.4443 1495.35 1362.53)"/><path d="M192.81 70.23a70.33 70.33 0 0 1 18.82 47.08c0 37.74-30.5 68.57-68.04 68.57H88.5c-15.95 0-31.1-6.6-42-18.21a60.43 60.43 0 0 1-16.42-40.88c0-27.93 22.18-58.07 58.04-58.07 2.07 0 4.23.2 6.4.39 11.94-12.6 30.47-20.39 48.7-20.39 18.75-.1 36.8 7.7 49.6 21.52Zm-.43.53a66.06 66.06 0 0 0-48.79-21.08c-18.14 0-36.57 7.78-48.43 20.33l-.07.08-.13-.01c-2.19-.2-4.38-.4-6.47-.4-35.54 0-57.56 29.85-57.56 57.53a58.96 58.96 0 0 0 15.98 39.92 56.37 56.37 0 0 0 41.2 17.79h55.1c37.26 0 67.56-30.57 67.56-68.03a68.85 68.85 0 0 0-18.39-46.13Zm-71.03 11.97-.02-.01c-.4-.28-2.1-1.36-3.98-2.52a52.37 52.37 0 0 0-3.85-2.17h-.02l-.02-.02a92.25 92.25 0 0 0-6.82-3.26c-.47-.2-1.13-.47-1.44-.58a.5.5 0 0 1-.07-.02l-.05-.02h-1.14l.9-.85.07-.06c10.83-10.1 24.27-15 39.1-15 16.2 0 30.84 6.6 41.43 17.2a58.95 58.95 0 0 1 17.29 41.6 59.67 59.67 0 0 1-16.97 41.8 57.37 57.37 0 0 1-41.17 17.66c-14.83 0-29.97-6.68-41.58-18.2l-26.2-26.4h-.01a9.33 9.33 0 0 1-2.57-5.2 8.96 8.96 0 0 1 2.51-7.6 8.53 8.53 0 0 1 6.17-2.46c2.44 0 4.79 1 6.5 2.8l26.08 26.1c8.2 8.18 18.65 12.8 28.72 12.8a39.2 39.2 0 0 0 28.63-12.43 42 42 0 0 0 11.93-29.3c0-11.1-4.5-21.16-11.79-28.44a40.6 40.6 0 0 0-28.59-11.87c-8.55 0-15.6 1.69-22.56 6.56l-.22.15-.27-.26Zm-15.29-9.08.5.2a94.41 94.41 0 0 1 10.89 5.55c1.69 1.04 3.25 2.02 3.86 2.43 0 0 .02 0 .02.02 7-4.85 14.1-6.53 22.68-6.53a41.74 41.74 0 0 1 29.36 12.25 41.5 41.5 0 0 1 12.26 29.45 42.58 42.58 0 0 1-12.07 29.7 39.66 39.66 0 0 1-28.97 12.56c-10.33 0-21.07-4.78-29.48-13.2L89 119.99l-.01-.01a7.73 7.73 0 0 0-5.7-2.39c-2.23 0-4.28.78-5.83 2.34a8.33 8.33 0 0 0-2.38 7.05 7.77 7.77 0 0 0 2.12 4.35l26.2 26.4c11.38 11.28 26.24 17.8 40.8 17.8a56.91 56.91 0 0 0 40.84-17.53 59.1 59.1 0 0 0 16.83-41.4A57.47 57.47 0 0 0 185.06 76a57.23 57.23 0 0 0-40.67-16.82c-14.5 0-27.66 4.73-38.33 14.47ZM91.6 157.72l.29.4c2.2 3.07 5.99 6.39 9.74 9.28 5.7 4.4 11.31 7.8 11.31 7.8l1.47.88H87.39a48.27 48.27 0 0 1-34.27-14.26 48.65 48.65 0 0 1-14.25-34.43 48.24 48.24 0 0 1 47.94-48.17 48.3 48.3 0 0 1 32.15 12.26l.02.02.22.22 19.9 20.4a9.28 9.28 0 0 1 2.56 5.2c.37 2.7-.5 5.55-2.6 7.6a8.76 8.76 0 0 1-7.62 2.34 9.2 9.2 0 0 1-5.04-2.68l-19.58-20.17a30.2 30.2 0 0 0-42.56 3.3 29.98 29.98 0 0 0-7.33 19.7c0 8.21 3.47 15.78 9.02 21.3a30.64 30.64 0 0 0 21.56 9.01h4.09Zm-4.4 18.31s-.43-.75-.43-.65l.43.65Zm-.2-.91h24.44c-2.05-1.3-6.02-3.9-10.04-7-3.74-2.89-7.5-6.2-9.82-9.28l-.09-.16h-.03l-.15-.2.15.2h-3.57a31.8 31.8 0 0 1-22.32-9.39 31.56 31.56 0 0 1-9.5-22.3c0-7.37 2.62-14.55 7.46-20.1A30.68 30.68 0 0 1 89.3 96.31c6.36.5 12.64 2.98 17.84 7.46l.03.02 19.63 20.23a7.92 7.92 0 0 0 4.37 2.3c2.52.43 5.2-.32 7.18-2.24a8.25 8.25 0 0 0 2.46-7.05 7.71 7.71 0 0 0-2.11-4.35l-19.9-20.4-.18-.18A47.2 47.2 0 0 0 87.2 80.18c-26.26.2-47.46 21.47-47.46 47.63a47.17 47.17 0 0 0 47.28 47.31Zm4.58-16.28.02.04-.14-.2.12.16Z" style="fill:#aaa" transform="matrix(2.3269 -1.1635 0 2.3269 1594.96 1409.51)"/></svg>