<?xml version="1.0" standalone="no"?>
<!DOCTYPE svg PUBLIC "-//W3C//DTD SVG 20010904//EN"
 "http://www.w3.org/TR/2001/REC-SVG-20010904/DTD/svg10.dtd">
<svg version="1.0" xmlns="http://www.w3.org/2000/svg"
 width="700.000000pt" height="700.000000pt" viewBox="0 0 700.000000 700.000000"
 preserveAspectRatio="xMidYMid meet">
<metadata>
Created by potrace 1.14, written by Peter Selinger 2001-2017
</metadata>
<g transform="translate(0.000000,700.000000) scale(0.100000,-0.100000)"
fill="#000000" stroke="none">
<path d="M3435 6963 c-53 -31 -645 -374 -735 -425 -19 -11 -150 -87 -290 -168
-140 -81 -356 -206 -480 -277 -223 -128 -370 -213 -920 -531 -157 -91 -301
-174 -320 -184 -19 -11 -77 -45 -127 -74 l-93 -55 0 -1748 0 -1749 43 -25 c23
-14 58 -34 77 -45 64 -36 682 -393 865 -500 99 -57 198 -115 220 -126 42 -24
730 -421 973 -563 79 -45 145 -83 147 -83 2 0 40 -22 85 -50 45 -27 83 -50 85
-50 1 0 111 -62 242 -139 132 -76 252 -145 268 -153 27 -15 31 -13 114 35 47
27 160 92 251 145 543 313 1139 657 1225 707 55 32 174 101 265 153 315 181
426 246 685 395 143 83 316 183 385 223 l125 72 3 1756 c1 1122 -1 1756 -8
1756 -5 0 -50 25 -101 55 -50 30 -93 55 -94 55 -1 0 -80 45 -174 100 -95 55
-176 100 -181 100 -6 0 -10 5 -10 10 0 6 -4 10 -10 10 -5 0 -55 27 -111 60
-55 33 -102 60 -104 60 -3 0 -194 110 -225 130 -8 5 -51 30 -95 55 -44 25 -98
56 -120 69 -95 55 -363 210 -395 228 -19 11 -51 29 -70 40 -295 172 -1329 768
-1333 768 -1 -1 -29 -17 -62 -37z m387 -1260 c178 -102 337 -194 353 -203 17
-10 219 -127 450 -260 231 -134 430 -249 443 -255 22 -12 21 -14 -35 -45 -69
-39 -68 -39 -308 -177 -482 -279 -1089 -628 -1151 -664 -17 -9 -40 -22 -50
-29 -21 -13 -43 -6 -109 35 -22 14 -53 32 -70 40 -30 15 -47 25 -95 56 -14 9
-45 27 -70 41 -25 14 -238 137 -475 273 -236 137 -504 291 -595 343 -91 52
-171 100 -178 107 -11 10 7 25 105 80 65 37 138 78 162 92 24 14 104 61 178
104 75 43 137 79 138 79 2 0 47 26 102 58 54 32 118 70 143 84 162 92 246 141
269 157 14 10 33 20 41 23 8 4 107 60 220 126 113 66 206 121 207 121 1 1 148
-83 325 -186z m-2157 -1698 c141 -81 375 -216 510 -295 48 -28 157 -91 195
-112 19 -11 123 -71 230 -133 107 -62 352 -203 544 -314 191 -110 352 -201
357 -201 8 0 79 39 129 70 38 24 206 120 305 174 11 6 22 13 25 16 3 3 14 10
25 16 11 6 124 71 250 144 348 201 491 283 532 306 21 12 148 85 283 164 135
78 269 155 299 172 60 34 140 80 189 110 l32 20 0 -919 -1 -918 -261 -150
c-143 -82 -284 -163 -312 -179 -28 -15 -103 -59 -166 -96 -96 -57 -197 -115
-415 -240 -16 -9 -133 -77 -260 -150 -126 -73 -250 -144 -275 -158 -25 -14
-57 -33 -72 -43 -14 -11 -29 -19 -32 -19 -4 0 -25 -12 -48 -26 -23 -14 -60
-36 -82 -48 -23 -13 -64 -37 -93 -54 l-51 -30 -74 42 c-40 23 -179 103 -308
178 -129 75 -251 145 -270 156 -19 11 -75 43 -125 72 -49 29 -109 63 -132 76
-65 37 -266 153 -283 164 -8 5 -67 39 -130 75 -148 85 -173 99 -319 184 -67
39 -126 71 -131 71 -6 0 -10 4 -10 8 0 4 -12 13 -27 20 -16 6 -50 25 -78 42
-27 16 -80 47 -117 68 l-68 37 0 918 0 919 33 -20 c17 -11 109 -64 202 -117z"/>
</g>
</svg>
