<?xml version="1.0" encoding="UTF-8" standalone="no"?>
<!DOCTYPE svg PUBLIC "-//W3C//DTD SVG 1.1//EN" "http://www.w3.org/Graphics/SVG/1.1/DTD/svg11.dtd">
<svg width="100%" height="100%" viewBox="0 0 400 434" version="1.1" xmlns="http://www.w3.org/2000/svg" xmlns:xlink="http://www.w3.org/1999/xlink" xml:space="preserve" xmlns:serif="http://www.serif.com/" style="fill-rule:evenodd;clip-rule:evenodd;stroke-linejoin:round;stroke-miterlimit:2;">
    <rect id="Head-back" serif:id="Head back" x="0" y="0" width="400" height="433.919" style="fill:none;"/>
    <path d="M69.829,338.646c14.067,11.838 23.351,15.686 35.645,25.057c-0.678,-0.942 -1.342,-1.909 -1.992,-2.902c-1.581,-2.416 -3.076,-4.983 -4.45,-7.728c-2.473,-4.942 -4.557,-10.443 -6.165,-16.624c1.987,6.024 4.438,11.325 7.167,16.088c1.501,2.62 3.085,5.071 4.738,7.382c1.745,2.441 3.565,4.719 5.434,6.867c0.903,1.038 1.817,2.045 2.74,3.024l0.071,0.062l-0.006,0.006c0.98,1.038 1.969,2.044 2.965,3.023c3.106,3.056 6.271,5.844 9.402,8.455c9.236,7.701 18.134,13.918 23.901,21.28c4.033,5.148 6.561,10.853 6.678,17.975c4.06,-5.577 8.485,-11.119 15.171,-16.456c-0.755,-1.242 -1.507,-2.48 -2.245,-3.669c-1.754,-2.825 -3.396,-5.341 -4.722,-6.875c1.318,1.156 3.003,2.97 4.771,5.128c1.408,1.719 2.862,3.637 4.252,5.562c0.694,0.961 1.365,1.925 2.002,2.867c0.684,1.012 1.324,1.999 1.915,2.922c0.651,1.015 1.24,1.953 1.746,2.769c0.261,-1.989 0.797,-3.725 0.797,-3.725l0.937,-3.018l1.028,2.988c0.561,1.622 1.402,3.426 2.294,5.147c0.921,1.777 1.898,3.465 2.69,4.779c0.285,-2.99 0.791,-7.127 2.141,-10.662c1.288,-3.374 3.35,-6.191 6.543,-7.258c1.292,-0.432 2.343,-0.386 3.192,-0.048c1.34,0.533 2.251,1.86 2.723,3.7c0.89,3.476 0.25,8.924 -0.283,12.203c1.709,-1.201 4.057,-2.784 6.674,-4.517c8.979,-5.947 21.14,-13.684 21.14,-13.684l2.305,-1.465l-0.617,2.661c-0.459,1.981 -1.24,5.098 -2.063,8.322c-0.615,2.406 -1.253,4.872 -1.797,6.964c4.494,-5.396 9.843,-10.052 15.085,-13.903c11.566,-8.495 22.594,-13.065 22.594,-13.065l6.637,-2.756l-5.484,4.645c-3.084,2.611 -5.188,5.43 -6.621,8.046c-1.209,2.206 -1.939,4.265 -2.378,5.919c2.908,-3.035 8.311,-7.648 16.97,-11.466c6.148,-2.71 13.954,-5.024 23.692,-6.068c11.972,-1.279 22.9,-9.187 32.19,-19.384c3.897,-4.279 7.488,-8.976 10.777,-13.751c2.252,-3.271 4.355,-6.582 6.306,-9.835c2.673,-4.456 5.044,-8.803 7.059,-12.816c2.625,-5.225 4.662,-9.857 5.925,-13.41c-1.019,3.646 -2.679,8.45 -5.006,13.839c-1.793,4.155 -3.969,8.653 -6.504,13.236c-1.857,3.357 -3.917,6.752 -6.147,10.093c-1.247,1.867 -2.55,3.715 -3.904,5.529c2.287,-1.788 4.472,-3.63 6.577,-5.499c3.173,-2.818 6.131,-5.712 8.872,-8.657c1.718,-1.845 3.349,-3.706 4.901,-5.572c3.886,-4.675 7.236,-9.404 9.939,-14.107c4.753,-8.208 8.004,-16.311 10.118,-23.554c3.411,-11.681 3.879,-21.09 2.833,-24.991c-1.93,-7.214 -16.13,-52.327 -39.111,-91.922c-11.85,-20.417 -26.025,-39.376 -42.095,-50.844c-14.218,-10.15 -24.651,-16.262 -32.481,-19.938c-14.764,-6.93 -20.195,-5.126 -24.326,-5.578l0.216,-1.988c4.242,0.459 9.808,-1.37 24.973,5.725c7.911,3.701 18.457,9.853 32.828,20.082c16.298,11.606 30.723,30.776 42.744,51.462c23.133,39.807 37.395,85.188 39.337,92.443c0.934,3.503 0.794,11.243 -1.537,21.075c-2.015,8.496 -5.655,18.58 -11.592,28.828c0.147,2.581 0.723,18.533 -6.123,35.456c-4.104,10.147 -10.874,20.637 -21.972,28.823c-11.23,8.275 -24.192,13.484 -36.191,16.739c-21.292,5.775 -39.529,5.419 -39.529,5.419l-1.944,-0.035l1.088,-1.612c4.333,-6.36 9.222,-11.273 13.879,-14.941c0.658,-0.518 1.31,-1.013 1.962,-1.474c1.67,-1.181 3.298,-2.186 4.833,-3.055c1.564,-0.886 3.025,-1.626 4.354,-2.226c0.513,-0.232 1.004,-0.444 1.471,-0.638c-6.958,1.19 -12.753,3.052 -17.522,5.161c-13.518,5.98 -18.708,13.928 -18.708,13.928l-2.136,3.298l0.086,-3.928c0,-0 0.089,-4.946 3.315,-10.841c0.743,-1.357 1.653,-2.766 2.769,-4.178c-4.204,2.146 -10.321,5.581 -16.602,10.196c-6.468,4.75 -13.115,10.75 -18.004,17.893l-3.666,5.356l1.657,-6.276c-0,0 1.686,-6.385 3.224,-12.402c0.508,-1.985 1,-3.93 1.409,-5.59c-3.965,2.529 -12.225,7.819 -18.786,12.154c-4.083,2.698 -7.503,5.02 -8.787,6.061l-2.458,1.996l0.693,-3.09c0,0 1.587,-7.019 1.135,-12.074c-0.104,-1.158 -0.309,-2.207 -0.7,-3.009c-0.248,-0.511 -0.562,-0.915 -1.02,-1.099c-0.454,-0.182 -1.014,-0.142 -1.705,0.087c-2.594,0.861 -4.172,3.234 -5.224,5.972c-1.867,4.858 -2.044,10.905 -2.339,13.229l-0.358,2.843l-1.575,-2.394c0,-0 -2.348,-3.583 -4.416,-7.604c-0.393,-0.765 -0.776,-1.546 -1.131,-2.323c-0.044,0.291 -0.081,0.59 -0.109,0.89c-0.084,0.887 -0.096,1.79 0.086,2.536l1.623,6.605l-3.486,-5.84c0,-0 -2.259,-3.703 -5.08,-8.289c-0.578,-0.939 -1.173,-1.917 -1.776,-2.91c-7.469,6.009 -12.027,12.29 -16.517,18.573l-0.391,0.546l-0.654,-0.155c-38.364,-9.123 -53.759,-31.694 -65.308,-52.534c-6.91,-12.471 -12.392,-24.323 -20.764,-32.132c-0.796,-0.669 -1.606,-1.364 -2.433,-2.086c-7.373,-5.804 -10.097,-14.403 -10.668,-22.654c-0.844,-12.188 3.01,-23.569 3.01,-23.569l1.894,0.641c0,0 -3.725,11.005 -2.909,22.79c0.535,7.725 3.018,15.807 9.929,21.236c0.849,0.667 1.669,1.372 2.465,2.112Zm84.091,83.969c0.328,-7.567 -2.148,-13.436 -6.283,-18.689c-5.707,-7.248 -14.525,-13.326 -23.618,-20.945c-3.169,-2.656 -6.377,-5.491 -9.486,-8.632c-0.953,-0.963 -1.897,-1.954 -2.828,-2.977l-0.004,0.006c-13.578,-11.867 -22.75,-15.797 -35.017,-24.796c5.105,7.11 9.388,15.765 14.371,24.756c11.209,20.228 26.086,42.154 62.865,51.277Zm183.276,-61.789c-2.038,2.69 -4.187,5.3 -6.428,7.779c-9.619,10.645 -21.041,18.786 -33.489,20.147c-1.082,0.118 -2.138,0.251 -3.171,0.4c-0.944,0.496 -2.075,1.124 -3.349,1.891c-1.226,0.737 -2.584,1.592 -4.04,2.589c-1.42,0.971 -2.919,2.079 -4.488,3.313c-0.61,0.48 -1.234,0.973 -1.864,1.489c-4.044,3.311 -8.333,7.54 -12.199,12.941c5.242,-0.107 20.11,-0.827 36.914,-5.392c11.76,-3.195 24.476,-8.265 35.49,-16.367c10.76,-7.908 17.32,-18.062 21.314,-27.878c5.348,-13.145 6.103,-25.694 6.122,-31.507c-2.428,3.811 -5.244,7.636 -8.477,11.362c-1.617,1.862 -3.339,3.696 -5.164,5.493c-2.899,2.855 -6.042,5.624 -9.431,8.257c-2.456,1.908 -5.041,3.731 -7.74,5.483Zm-187.144,-30.247c1.655,2.108 2.652,4.362 3.14,6.682c0.516,2.451 0.454,4.971 0.006,7.463c-0.572,3.181 -1.788,6.312 -3.28,9.201c-0.651,1.26 -1.359,2.47 -2.09,3.617c-4.047,6.351 -8.734,10.793 -8.734,10.793l-2.24,2.121l0.475,-3.048c0.507,-3.3 -0.506,-6.51 -2.484,-9.732c-1.681,-2.737 -4.056,-5.473 -6.851,-8.259c-5.431,-5.416 -12.431,-11.003 -19.125,-17.073c-6.555,-5.946 -12.811,-12.356 -17.072,-19.49c-3.269,-5.471 -5.368,-11.37 -5.567,-17.812l1.999,-0.065c0.212,6.088 2.237,11.65 5.344,16.812c4.184,6.95 10.327,13.171 16.738,18.962c6.733,6.082 13.766,11.688 19.217,17.128c2.928,2.92 5.404,5.798 7.156,8.671c1.68,2.754 2.701,5.51 2.866,8.3c1.687,-1.819 4.249,-4.784 6.643,-8.372c1.201,-1.798 2.368,-3.746 3.359,-5.793c0.972,-2.009 1.782,-4.105 2.291,-6.243c0.553,-2.323 0.758,-4.684 0.444,-7.025c-0.33,-2.462 -1.22,-4.893 -2.873,-7.221c-1.497,-0.894 -2.369,-1.381 -2.369,-1.381c-0.011,-0.006 -0.021,-0.012 -0.031,-0.018c-13.157,-7.981 -25.149,-16.382 -27.555,-41.806c-0.052,-0.549 0.352,-1.037 0.902,-1.089c0.549,-0.052 1.037,0.352 1.089,0.901c2.318,24.493 13.897,32.576 26.57,40.265c0.005,0.003 0.016,0.009 0.031,0.018c0.767,0.43 15.422,8.693 27.644,19.435c6.15,5.407 11.677,11.446 14.579,17.426c2.05,4.226 2.801,8.434 1.674,12.399c-0.831,2.921 -2.683,5.728 -5.854,8.308c7.196,1.28 30.391,3.685 55.646,-11.941c5.528,-3.421 11.146,-7.709 16.746,-13.035c2.129,-2.025 4.251,-4.202 6.379,-6.528c1.602,-1.751 3.206,-3.585 4.81,-5.511c2.256,-2.711 4.501,-5.601 6.742,-8.689c2.306,-3.177 4.615,-6.538 6.875,-10.153c-1.976,3.792 -3.984,7.357 -6.075,10.692c-0.892,1.422 -1.795,2.801 -2.708,4.14c2.06,1.332 5.541,1.955 9.886,1.883c6.974,-0.115 16.101,-2.112 25.397,-6.333c10.45,-4.746 21.117,-12.307 29.146,-23.278c3.933,-5.297 6.679,-10.878 8.57,-16.479c2.093,-6.2 3.129,-12.429 3.472,-18.364c1.171,-20.268 -5.676,-37.088 -5.676,-37.088c0,-0 7.521,16.704 6.948,37.143c-0.203,7.228 -1.418,14.92 -4.326,22.49c-1.765,4.596 -4.171,9.138 -7.323,13.515c-8.24,11.296 -19.184,19.117 -29.935,23.991c-9.6,4.351 -19.043,6.351 -26.242,6.446c-4.866,0.065 -8.738,-0.772 -11.057,-2.282c-0.809,1.148 -1.626,2.266 -2.448,3.354c-1.531,2.027 -3.086,3.947 -4.661,5.765c-2.098,2.422 -4.232,4.661 -6.374,6.742c-5.656,5.497 -11.393,9.88 -17.025,13.386c-31.294,19.481 -59.621,11.737 -59.621,11.737l-2.277,-0.618l1.956,-1.319c4.178,-2.813 6.42,-5.939 7.146,-9.272c1.166,-5.351 -1.514,-11.124 -5.883,-16.733c-9.503,-12.199 -27.108,-23.501 -34.13,-27.736Zm67.963,-149.026c0.531,4.201 4.988,9.926 10.108,17.055c2.448,3.409 5.043,7.133 7.441,11.155c1.136,1.906 2.223,3.88 3.225,5.919c0.987,2.01 1.898,4.081 2.677,6.213c1.028,2.813 1.842,5.729 2.372,8.729c1.049,5.93 1.011,12.193 -0.711,18.692c-1.431,5.404 -4.052,10.96 -8.175,16.648c3.75,-5.849 5.994,-11.486 7.145,-16.894c1.355,-6.363 1.133,-12.396 -0.055,-18.1c-0.6,-2.881 -1.446,-5.673 -2.451,-8.385c-0.767,-2.07 -1.619,-4.095 -2.544,-6.067c-0.945,-2.016 -1.957,-3.978 -3.005,-5.884c-2.236,-4.066 -4.642,-7.865 -6.893,-11.362c-4.778,-7.422 -8.849,-13.471 -9.134,-17.719Zm10.288,-24.87c3.25,0.54 9.771,0.911 17.571,2.753c7.544,1.782 16.279,4.92 24.395,10.863c4.514,3.305 8.833,7.482 12.642,12.758c2.215,3.067 4.259,6.507 6.05,10.372c1.582,3.411 2.966,7.154 4.115,11.253c1.475,5.26 2.559,11.11 3.172,17.611c0.515,5.467 0.693,11.397 0.475,17.828c-0.272,8.035 -1.17,16.847 -2.764,26.527c1.24,-9.707 1.793,-18.524 1.8,-26.543c0.006,-6.38 -0.343,-12.248 -0.994,-17.653c-0.769,-6.376 -1.969,-12.097 -3.501,-17.246c-1.184,-3.979 -2.574,-7.609 -4.116,-10.936c-2.807,-6.054 -6.151,-11.08 -9.84,-15.261c-4.345,-4.925 -9.139,-8.688 -14.016,-11.582c-7.064,-4.191 -14.275,-6.58 -20.446,-8.057c-6.434,-1.54 -11.732,-2.106 -14.543,-2.687Zm63.27,-15.045c1.787,1.075 3.84,2.557 6.047,4.374c2.601,2.14 5.419,4.712 8.261,7.585c1.71,1.728 3.422,3.564 5.102,5.471c1.093,1.242 2.174,2.512 3.218,3.811c1.045,1.301 2.054,2.629 3.028,3.965c1.501,2.059 2.912,4.137 4.217,6.184c1.407,2.207 2.681,4.375 3.788,6.459c2.068,3.891 3.539,7.462 4.183,10.379c-0.966,-3.09 -3.014,-6.843 -5.685,-10.931c-2.09,-3.198 -4.575,-6.576 -7.241,-9.983c-1.205,-1.54 -2.446,-3.085 -3.693,-4.627c-0.931,-1.153 -1.861,-2.31 -2.797,-3.449c-0.947,-1.154 -1.896,-2.296 -2.84,-3.416c-1.987,-2.357 -3.962,-4.606 -5.875,-6.674c-3.597,-3.888 -6.947,-7.123 -9.713,-9.148Zm-45.783,-14.575c1.426,-0.478 3.042,-0.735 4.79,-0.809c0.691,-0.029 1.387,-0.024 2.099,0.013c0.922,0.047 1.849,0.145 2.774,0.287c0.612,0.094 1.222,0.207 1.819,0.351c0.606,0.145 1.199,0.321 1.776,0.509c0.912,0.298 1.776,0.628 2.594,0.962c0.924,0.376 1.766,0.753 2.526,1.114c2.25,1.07 3.662,1.912 3.662,1.912c-0,-0 -1.5,-0.42 -3.821,-0.966c-0.774,-0.182 -1.624,-0.372 -2.546,-0.578c-0.935,-0.209 -1.927,-0.415 -2.959,-0.633c-0.416,-0.088 -0.837,-0.178 -1.259,-0.276c-0.575,-0.134 -1.154,-0.276 -1.736,-0.418c-0.578,-0.141 -1.154,-0.288 -1.731,-0.428c-1.184,-0.289 -2.347,-0.553 -3.494,-0.742c-1.598,-0.263 -3.1,-0.415 -4.494,-0.298Z" style="fill:#333;"/>
    <path d="M199.637,196.957c-9.426,25.436 -26.901,52.583 -49.771,72.02c-29.161,24.782 -67.059,37.049 -108.219,17.493l-4.564,-2.169l5.046,0.267c0,0 4.802,0.249 12.624,-0.883c-3.952,-0.113 -8.404,-0.566 -12.927,-1.66c-9.37,-2.264 -19.025,-7.266 -25.223,-17.593l-1.343,-2.238l2.494,0.767c0,0 22.947,7.044 43.228,-8.093c13.383,-9.988 25.539,-29.578 29.399,-66.947c-3.97,2.8 -13.709,8.408 -24.236,5.016l-2.096,-0.675l1.888,-1.134c-0,0 18.829,-11.269 21.908,-28.898c1.18,-6.761 3.077,-28.302 12.203,-47.394c9.237,-19.326 25.818,-36.15 56.345,-33.06c7.073,0.716 14.792,3.514 22.056,8.406c2.215,-9.642 6.414,-17.608 10.831,-24.856c4.555,-7.476 9.344,-14.174 12.329,-21.199c5.816,-13.691 -0.636,-26.268 -0.636,-26.268l-0.953,-1.856l2.043,0.419c4.667,0.957 14.175,7.518 23.253,18.006c13.493,15.587 26.104,39.789 20.623,66.521c-7.758,37.839 -30.073,47.221 -36.807,49.221c2.366,2.497 6.231,8.812 3.53,21.984c-3.317,16.178 -11.522,23.565 -13.025,24.803Zm-107.043,-11.113c-3.674,39.679 -16.473,60.22 -30.415,70.627c-17.023,12.705 -35.853,10.386 -42.514,9.009c5.886,8.41 14.385,12.608 22.631,14.601c17.704,4.28 40.704,-3.081 40.704,-3.081c0,0 -15,8.429 -36.404,9.505c38.761,16.494 74.36,4.416 101.975,-19.052c28.696,-24.388 48.803,-61.057 54.932,-90.951c12.162,-59.318 -21.715,-90.145 -47.312,-92.736c-29.451,-2.981 -45.427,13.287 -54.339,31.933c-9.024,18.879 -10.87,40.189 -12.037,46.875c-2.605,14.919 -15.956,25.514 -20.957,29.013c10.749,2.223 20.159,-5.019 21.821,-6.39c0.56,-3.113 4.679,-25.057 12.637,-42.969c4.772,-10.743 10.919,-20.036 18.51,-22.941c-7.459,3.084 -13.321,12.466 -17.775,23.256c-7.821,18.948 -11.298,42.223 -11.457,43.301Zm84.747,-3.291c-0.362,2.787 -1.077,5.799 -2.099,8.898c-0.404,1.227 -0.856,2.46 -1.356,3.695c-0.65,1.604 -1.37,3.206 -2.155,4.783c-0.52,1.044 -1.067,2.077 -1.648,3.084c-0.586,1.017 -1.207,2.006 -1.843,2.972c-0.983,1.491 -2.007,2.916 -3.041,4.27c-1.106,1.446 -2.222,2.799 -3.331,4.043c-1.974,2.214 -3.899,4.058 -5.639,5.433c1.546,-1.563 3.193,-3.627 4.893,-6.027c0.949,-1.34 1.903,-2.779 2.862,-4.295c0.896,-1.415 1.779,-2.895 2.662,-4.412c0.57,-0.98 1.134,-1.977 1.703,-2.977c0.565,-0.991 1.134,-1.984 1.691,-2.983c0.841,-1.509 1.656,-3.025 2.428,-4.537c1.216,-2.381 2.322,-4.734 3.223,-7.033c0.662,-1.691 1.228,-3.327 1.65,-4.914Zm30.72,-30.556c0.04,7.671 -0.767,15.972 -2.599,24.907c-1.035,5.048 -2.463,10.287 -4.26,15.627c2.951,-3.484 7.32,-10.141 9.501,-20.779c2.37,-11.558 -0.626,-17.329 -2.642,-19.755Zm-27.84,-60.573c13.66,9.956 25.348,27.495 27.491,52.709c1.289,-4.306 3.16,-11.009 4.955,-19.07c1.124,-5.048 2.215,-10.629 3.127,-16.488c0.453,-2.909 0.859,-5.887 1.214,-8.902c0.347,-2.954 0.646,-5.943 0.863,-8.94c0.485,-6.715 0.567,-13.466 0.001,-19.943c-0.608,-6.943 -1.938,-13.563 -4.303,-19.468c2.658,5.824 4.33,12.412 5.244,19.366c0.856,6.515 1.057,13.341 0.798,20.141c-0.116,3.036 -0.324,6.065 -0.617,9.058c-0.298,3.051 -0.687,6.063 -1.126,9.005c-0.884,5.914 -1.991,11.543 -3.134,16.633c-2.436,10.852 -5.048,19.251 -6.186,22.728c6.234,-1.865 27.884,-10.894 35.432,-47.705c5.342,-26.055 -7.025,-49.62 -20.176,-64.811c-7.546,-8.718 -15.326,-14.698 -20.163,-16.716c1.634,4.309 4.539,14.752 -0.192,25.888c-3.019,7.109 -7.852,13.893 -12.461,21.458c-4.433,7.274 -8.657,15.283 -10.767,25.057Z" style="fill:#777;"/>
    <g>
        <circle cx="165.406" cy="164.018" r="18.107" style="fill:#f44;"/>
        <path d="M57.27,323.402l0,9l-2,-0l0,-20l2,-0l0,9l160.562,-0l0,-156.384l-4.207,4.207l-1.414,-1.414l2.793,-2.793l-27.663,-0l2.793,2.793l-1.414,1.414l-4.232,-4.232c-0.509,10.093 -8.864,18.132 -19.082,18.132c-10.545,-0 -19.107,-8.562 -19.107,-19.107c0,-10.545 8.562,-19.107 19.107,-19.107c10.218,0 18.573,8.039 19.082,18.131l4.232,-4.231l1.414,1.414l-2.793,2.793l27.663,-0l-2.793,-2.793l1.414,-1.414l4.207,4.207l0,-17.107l2,0l0,175.491l160.562,-0l0,-9l2,-0l0,20l-2,-0l0,-9l-323.124,-0Zm108.136,-176.491c-9.442,0 -17.107,7.665 -17.107,17.107c0,9.441 7.665,17.107 17.107,17.107c9.441,-0 17.106,-7.666 17.106,-17.107c0,-9.442 -7.665,-17.107 -17.106,-17.107Z" style="fill:#eee;"/>
    </g>
</svg>
