<?xml version="1.0" encoding="UTF-8" standalone="no"?>
<!DOCTYPE svg PUBLIC "-//W3C//DTD SVG 1.1//EN" "http://www.w3.org/Graphics/SVG/1.1/DTD/svg11.dtd">
<svg width="100%" height="100%" viewBox="0 0 400 434" version="1.1" xmlns="http://www.w3.org/2000/svg" xmlns:xlink="http://www.w3.org/1999/xlink" xml:space="preserve" xmlns:serif="http://www.serif.com/" style="fill-rule:evenodd;clip-rule:evenodd;stroke-linejoin:round;stroke-miterlimit:2;">
    <rect id="Head-front" serif:id="Head front" x="0" y="0" width="400" height="433.919" style="fill:none;"/>
    <path d="M200.814,89.704c-7.401,7.254 -8.613,15.57 -8.613,15.57l-1.979,-0.284c-0,0 1.38,-9.802 10.359,-17.805c-4.254,-56.164 58.167,-78.079 58.167,-78.079l1.594,-0.558l-0.277,1.665c-5.429,32.766 3.874,53.498 8.757,71.773c22.98,6.513 34.019,18.179 40.05,32.055c3.146,7.237 4.92,15.087 6.296,23.137c1.326,7.755 2.292,15.695 3.786,23.449c1.198,6.212 2.752,12.297 5.102,18.082c1.552,3.818 3.431,7.515 5.836,11.013l0.921,1.3l-1.593,-0.054c0,-0 -4.485,-0.16 -10.888,-5.803c-0.114,1.7 -0.284,4.984 -0.274,9.295c0.011,4.417 0.201,9.911 0.879,15.891c1.366,12.049 4.678,26.082 12.32,37.196c10.125,14.724 27.893,24.206 58.831,17.076l1.843,-0.426l-0.595,1.796c0,-0 -2.671,8.158 -12.159,13.475c-2.071,1.161 -4.469,2.187 -7.237,2.945c-2.079,0.57 -4.368,0.992 -6.882,1.208c-0.073,0.007 -0.146,0.013 -0.22,0.019c-3.125,4.107 -6.921,7.836 -12.682,9.563c-5.741,1.722 -13.48,1.457 -24.554,-2.587l0.686,-1.878c10.51,3.837 17.845,4.184 23.293,2.55c4.675,-1.402 7.923,-4.263 10.599,-7.511c-3.887,0.092 -8.265,-0.275 -13.181,-1.271c-4.42,-0.896 -9.269,-2.314 -14.604,-4.336c5.418,1.697 10.319,2.798 14.758,3.457c5.096,0.756 9.569,0.903 13.503,0.602c3.294,-0.252 6.2,-0.823 8.769,-1.602c2.587,-0.784 4.826,-1.783 6.761,-2.9c5.979,-3.454 9.012,-8.06 10.314,-10.574c-30.89,6.568 -48.785,-3.358 -59.077,-18.346c-7.841,-11.418 -11.246,-25.841 -12.589,-38.222c-0.659,-6.073 -0.831,-11.652 -0.779,-16.134c0.02,-1.698 0.071,-3.238 0.136,-4.592c-0.917,2.93 -1.941,6.946 -2.672,11.94c-0.757,5.167 -1.234,11.36 -0.921,18.493c-0.714,-7.144 -0.621,-13.393 -0.109,-18.619c1.029,-10.492 3.635,-16.863 4.165,-18.075c-2.995,-2.96 -6.335,-7.127 -9.803,-12.975c4.422,6.561 8.548,10.817 12.03,13.615c3.805,3.055 6.822,4.3 8.603,4.805c-2.07,-3.061 -3.787,-6.266 -5.211,-9.591c-2.51,-5.863 -4.131,-12.08 -5.393,-18.419c-1.544,-7.761 -2.518,-15.718 -3.854,-23.488c-1.353,-7.876 -3.067,-15.559 -6.132,-22.647c-5.701,-13.181 -16.106,-24.26 -37.524,-30.666c2.227,10.557 -0.884,20.021 -5.554,27.649c-7.299,11.925 -18.399,19.322 -18.399,19.322l-1.462,-0.413c-0,0 -4.741,-10.145 -8.417,-24.949c-1.304,-5.249 -2.477,-11.082 -3.243,-17.256c-0.379,-3.055 -0.663,-6.193 -0.802,-9.384c-0.134,-3.102 -0.134,-6.252 0.018,-9.423c0.33,-6.87 1.37,-13.833 3.394,-20.602c1.952,-6.529 4.829,-12.868 8.864,-18.774c-3.737,6.043 -6.287,12.465 -7.952,19.026c-1.711,6.745 -2.462,13.631 -2.564,20.405c-0.048,3.121 0.045,6.215 0.236,9.262c0.196,3.137 0.496,6.222 0.887,9.226c0.791,6.082 1.941,11.834 3.217,17.011c2.895,11.741 6.426,20.528 7.694,23.512c2.807,-2.056 11.045,-8.567 16.824,-18.007c4.658,-7.61 7.722,-17.142 4.923,-27.788c-4.811,-18.302 -14.161,-38.963 -9.214,-71.449c-10.805,4.315 -72.401,32.046 -50.916,96.055l-1.897,0.636c-2.202,-6.562 -3.554,-12.754 -4.193,-18.587Z" style="fill:#777;"/>
    <path d="M37.288,374.558c-2.238,-1.468 -11.493,-7.964 -18.891,-19.553c-4.401,-6.896 -8.145,-15.593 -9.369,-26.102c-1.244,-10.696 0.515,-24.092 3.84,-38.45c-5.736,-13.18 -2.923,-28.341 2.618,-41.82c7.618,-18.535 20.342,-33.862 22.391,-36.266l0.006,-0.018c5.831,-17.144 10.96,-30.274 16.102,-40.752c5.076,-10.344 10.165,-18.117 15.903,-24.638c1.046,-1.158 2.192,-2.433 3.488,-3.745c1.132,-1.147 2.372,-2.322 3.696,-3.537c0.974,-0.893 1.986,-1.804 3.063,-2.711c1.201,-1.011 2.464,-2.006 3.779,-3.016c-0.128,-14.193 1.613,-27.183 5.967,-36.632c4.055,-8.8 10.362,-14.572 19.441,-15.619c7.542,-0.859 14.449,0.057 20.69,2.221c4.469,1.55 8.595,3.736 12.372,6.318c6.392,4.371 11.788,9.884 16.195,15.422l0.414,0.093c2.064,0.46 4.065,0.891 6.304,1.09c1.876,0.167 3.921,0.171 6.315,-0.108c7.348,-0.855 9.794,-1.781 13.006,-2.271c2.14,-0.327 4.611,-0.47 9.009,-0.278c6.953,0.303 27.046,5.864 47.533,21.804c12.031,9.36 24.204,22.3 33.928,39.841c16.091,29.055 24.657,53.819 35.031,71.617c6.262,10.743 13.172,18.925 22.914,23.89l3.584,1.822l-4.017,0.168c0,0 -10.869,0.517 -22.021,-9.197c4.414,7.043 11.292,18.824 16.76,31.822c3.891,9.252 7.052,19.121 8.154,28.33c1.066,9.051 -1.347,16.794 -5.296,23.203c-8.405,13.639 -23.78,21.189 -26.778,22.565c-0.542,3.351 -4.312,20.627 -25.926,34.636c-13.249,8.587 -33.26,15.962 -63.467,18.049l-4.851,0.342l4.456,-1.949c-0,-0 11.932,-5.203 21.043,-16.074c4.422,-5.277 8.181,-11.893 9.568,-19.908c-1.075,1.851 -2.272,3.388 -3.562,4.683c-2.574,2.584 -5.522,4.201 -8.629,5.404l-2.86,1.079l1.835,-2.445c1.72,-2.327 2.892,-5.875 3.708,-10.224c0.902,-4.806 1.342,-10.577 1.462,-16.816c0.479,-24.965 -4.21,-57.338 -5.346,-65.208c-16.824,-3.376 -31.679,-10.229 -44.785,-20.28c-11.282,-8.651 -21.267,-19.677 -30.095,-32.907c2.438,5.135 5.514,11.102 9.017,16.772c4.229,6.847 9.073,13.267 14.173,17.207l7.822,6.04l-8.905,-4.286c-16.961,-8.183 -29.454,-18.56 -38.343,-29.65c-4.315,-5.383 -7.777,-10.935 -10.504,-16.463c-1.796,-3.639 -3.27,-7.27 -4.452,-10.841c-0.826,-2.495 -1.509,-4.961 -2.063,-7.379c0.926,10.683 2.549,20.691 4.047,28.593c1.934,10.206 3.67,16.89 3.67,16.89l0.424,1.607l-1.626,-0.341c-8.941,-1.879 -20.091,-3.987 -29.561,-8.448c-4.757,-2.24 -9.092,-5.064 -12.54,-8.696c-3.214,49.252 -3.919,88.443 -1.103,110.746c3.389,26.839 9.336,37.814 9.336,37.814l1.774,3.258l-3.172,-1.925c-2.447,-1.486 -5.062,-4.393 -7.501,-7.757c-2.687,-3.706 -5.175,-7.963 -7.024,-11.362c7.387,35.788 24.561,43.788 24.561,43.788c0,-0 -42,-17.684 -64.757,-37.673c-0.67,-0.589 -1.322,-1.178 -1.955,-1.769Zm207.444,-3.575l0.001,-0.023c0.607,-9.621 0.036,-24.504 -0.966,-39.851c-0.871,-13.346 -2.07,-27.041 -3.11,-37.942c-2.62,-0.305 -5.196,-0.688 -7.728,-1.149c1.301,8.946 5.829,40.427 5.302,64.852c-0.137,6.362 -0.618,12.25 -1.587,17.142c-0.662,3.345 -1.56,6.232 -2.71,8.511c1.995,-0.947 3.892,-2.162 5.624,-3.833c1.967,-1.899 3.724,-4.378 5.174,-7.707Zm-84.257,-262.861c0.068,0.092 0.136,0.184 0.204,0.275c4.235,5.724 7.401,11.277 9.512,15.41c1.998,3.717 2.948,6.263 3.148,6.791c0.02,0.051 0.032,0.083 0.037,0.095l-10.411,-16.951c-1.804,-2.145 -3.864,-4.317 -6.197,-6.397l-0.7,-0.19c-4.175,-0.883 -9.02,-1.596 -16.703,-0.707c-17.452,2.02 -33.327,11.064 -45.868,20.854c-0.933,13.741 0.695,29.921 3.192,45.098c0.814,-1.288 1.66,-2.597 2.539,-3.927c-0.871,1.388 -1.708,2.753 -2.512,4.094c4.569,27.693 12.008,52.005 12.008,52.005l1.585,5.174l-3.332,-4.264c-5.935,-7.591 -12.055,-23.319 -16.499,-41.681c-9.285,18.275 -11.466,31.533 -9.255,41.305c2.403,10.62 10.088,16.97 19.297,21.197c5.21,2.391 10.908,4.11 16.454,5.482c-0.119,-0.071 -0.239,-0.144 -0.359,-0.218c-2.384,-1.464 -4.807,-3.362 -7.034,-5.715c-4.424,-4.673 -8.05,-11.192 -8.768,-20.183c1.321,8.701 5.284,14.784 9.876,19.066c2.256,2.103 4.673,3.737 6.976,5.074c4.282,2.486 8.255,3.801 10.367,4.389c-0.637,-2.594 -1.915,-8.107 -3.195,-15.421c-1.885,-10.778 -3.763,-25.468 -3.847,-40.414c-0.075,-13.356 1.318,-26.914 5.478,-38.076c-3.842,11.225 -4.843,24.761 -4.438,38.058c0.027,0.898 0.061,1.795 0.101,2.691c0.813,5.523 2.337,11.437 4.687,17.501c1.655,4.27 3.726,8.61 6.263,12.938c2.324,3.966 5.04,7.92 8.194,11.796c7.617,9.364 17.799,18.263 31.195,25.671c-3.286,-3.637 -6.41,-8.042 -9.253,-12.643c-8.929,-14.451 -18.217,-40.299 -18.217,-40.299c-0,0 17,34.279 42.311,53.716c15.198,11.671 32.796,18.957 53.15,21.413c-0.908,-9.389 -1.665,-16.4 -1.93,-18.808c-0.21,-0.026 -0.445,-0.079 -0.703,-0.166c-0.774,-0.261 -1.877,-0.851 -3.236,-1.743c-2.364,-1.551 -5.574,-4.029 -9.262,-7.17c-5.825,-4.961 -12.869,-11.559 -19.71,-18.659c-11.341,-11.77 -22.123,-24.907 -26.027,-34.069c4.152,9.017 15.318,21.749 26.905,33.202c6.975,6.894 14.101,13.323 19.974,18.164c3.665,3.021 6.83,5.427 9.164,6.922c0.997,0.639 1.831,1.108 2.477,1.377c0.09,0.038 0.189,0.071 0.284,0.1c0.594,-1.34 1.998,-4.785 3.272,-10c0.761,-3.113 1.475,-6.85 1.949,-11.147c0.997,-9.026 0.908,-20.508 -2.114,-33.861c-3.409,-15.061 -10.506,-32.489 -24.023,-51.421c14.042,18.698 21.638,36.035 25.367,51.102c3.342,13.509 3.6,25.196 2.687,34.381c-0.438,4.402 -1.152,8.232 -1.926,11.418c-1.729,7.114 -3.757,11.043 -3.757,11.043l-0.217,0.427c0.607,5.341 3.665,32.734 5.467,58.798c1.066,15.414 1.69,30.364 1.117,40.032c-0.611,10.292 -4.99,18.606 -10.327,25.021c-6.106,7.337 -13.465,12.179 -17.825,14.649c27.48,-2.503 45.971,-9.511 58.4,-17.613c23.092,-15.052 25.067,-33.836 25.067,-33.836l0.003,-0.028l-0.012,-0.001c0.024,-0.182 0.047,-0.366 0.068,-0.552c0.949,-8.283 -0.261,-20.512 -2.912,-34.836c-1.985,-10.726 -4.799,-22.615 -8.124,-34.91c-1.843,-6.815 -3.848,-13.752 -5.95,-20.69c-2.086,-6.887 -4.265,-13.773 -6.518,-20.525c-3.547,-10.628 -7.257,-20.924 -10.983,-30.387c-4.459,-11.323 -8.921,-21.454 -13.129,-29.529c4.427,7.969 9.183,17.981 13.926,29.204c3.968,9.387 7.936,19.612 11.702,30.189c2.394,6.724 4.713,13.585 6.886,20.466c2.19,6.934 4.233,13.887 6.103,20.718c3.378,12.345 6.172,24.302 8.151,35.083c2.55,13.899 3.714,25.863 2.959,34.253c4.472,-2.2 17.405,-9.319 24.81,-21.28c3.753,-6.061 6.086,-13.374 5.112,-21.948c-1.013,-9.062 -4.078,-18.779 -7.812,-27.913c-6.581,-16.097 -21.515,-39.193 -22.291,-40.317c-1.311,-1.897 -2.57,-3.998 -3.731,-6.345c-1.023,-2.068 -1.941,-4.313 -2.817,-6.751c1.198,2.276 2.451,4.328 3.698,6.248c1.394,2.146 2.796,4.078 4.21,5.831c0.828,1.027 1.653,1.99 2.475,2.899c1.35,1.493 2.693,2.831 4.036,4.013c6.168,5.43 12.231,7.61 16.264,8.483c-7.865,-5.187 -13.896,-12.677 -19.405,-22.111c-10.394,-17.8 -18.953,-42.586 -35.053,-71.659c-9.551,-17.262 -21.514,-30 -33.339,-39.22c-19.978,-15.578 -39.539,-21.121 -46.324,-21.426c-4.204,-0.188 -6.567,-0.064 -8.614,0.245c-3.229,0.489 -5.69,1.414 -13.079,2.263c-2.55,0.294 -4.729,0.286 -6.727,0.105c-1.633,-0.147 -3.145,-0.411 -4.642,-0.722Zm-0.125,1.362c-0.136,-0.173 -0.272,-0.347 -0.41,-0.521c-4.882,-6.154 -11.07,-12.472 -18.512,-17.288c-3.708,-2.399 -7.729,-4.416 -12.06,-5.861c-5.996,-2 -12.593,-2.9 -19.808,-2.052c-8.335,0.968 -14.053,6.353 -17.775,14.433c-4.319,9.374 -5.968,22.322 -5.789,36.44c0.387,30.561 9.349,66.596 18.927,83.979c-4.592,-16.546 -15.809,-60.961 -13.449,-92.279c0.615,-8.161 2.153,-15.443 4.935,-21.146c3.529,-7.232 9.04,-11.967 17.158,-12.902c5.591,-0.629 10.728,-0.548 15.427,0.145c8.521,1.255 15.606,4.411 21.421,8.379c3.854,2.629 7.148,5.622 9.935,8.673Zm-82.149,253.958c0.843,1.751 5.031,10.268 9.881,16.958c1.243,1.714 2.525,3.31 3.804,4.627c-2.067,-5.343 -5.545,-16.381 -7.844,-34.593c-2.599,-20.587 -2.221,-55.517 0.366,-99.455c-7.748,39.276 -9.554,69.343 -8.319,92.166c0.407,7.539 1.147,14.281 2.112,20.297Zm5.733,-227.974c0,0 -4.981,4.227 -5.851,5.209c-0.458,0.517 -0.897,1.029 -1.336,1.527c-0.694,0.786 -1.366,1.544 -2.015,2.275c-1.209,1.363 -2.336,2.627 -3.336,3.802c-5.607,6.422 -10.551,14.082 -15.507,24.247c-5.083,10.426 -10.176,23.475 -15.949,40.519c-6.586,19.392 -16.243,44.73 -22.636,68.514c-4.726,17.579 -7.679,34.301 -6.206,47.103c1.168,10.16 4.777,18.571 9.022,25.243c2.746,4.318 5.758,7.908 8.548,10.772c-2.709,-4.052 -4.406,-8.16 -4.887,-12.316c-1.89,-16.43 -1.903,-41.838 8.165,-77.443c1.675,-5.926 3.625,-12.137 5.912,-18.629c1.054,-2.995 2.179,-6.051 3.387,-9.163c1.149,-2.964 2.371,-5.981 3.671,-9.05c2.431,-5.734 5.112,-11.657 8.083,-17.765c2.735,-5.622 5.732,-11.382 8.949,-17.327c-2.788,5.841 -5.342,11.52 -7.745,17.024c-2.731,6.257 -5.237,12.289 -7.521,18.115c-1.043,2.66 -2.046,5.274 -3.007,7.844c-1.695,4.528 -3.257,8.92 -4.69,13.183c-3.821,11.367 -6.715,21.812 -8.827,31.39c-6.058,27.471 -5.833,47.737 -4.226,61.572c1.14,9.836 9.638,19.253 22.047,28.434c11.887,8.796 27.374,17.315 43.701,25.591c-5.732,-7.529 -15.72,-25.751 -17.697,-62.881c-1.355,-25.469 1.058,-59.911 11.251,-106.017c-2.581,-3.304 -4.48,-7.204 -5.424,-11.831c-2.049,-10.042 0.463,-23.623 10.524,-42.209c-3.635,-15.19 -6.116,-32.13 -6.4,-47.733Zm-70.248,151.563c0.49,-1.995 1.008,-4.005 1.549,-6.026c5.793,-21.619 14.288,-44.516 20.736,-63.088c-4.758,6.164 -13.077,17.953 -18.636,31.476c-4.971,12.094 -7.76,25.587 -3.649,37.638Zm139.805,-182.397c-1.213,-0.93 -2.489,-1.828 -3.829,-2.682c-5.746,-3.663 -12.672,-6.487 -20.939,-7.568c-4.555,-0.595 -9.516,-0.688 -14.919,-0.046c-7.363,0.857 -12.318,5.206 -15.516,11.767c-2.463,5.055 -3.894,11.4 -4.572,18.504c12.575,-9.56 28.259,-18.162 45.419,-20.147c6.222,-0.72 10.651,-0.427 14.356,0.172Z" style="fill:#333;"/>
    <g>
        <path d="M10.672,323.402l0,9l-2,-0l0,-20l2,-0l0,9l160.562,-0l0,-175.491l2,0l0,17.107l4.207,-4.207l1.415,1.414l-2.793,2.793l27.663,-0l-2.793,-2.793l1.414,-1.414l4.232,4.231c0.508,-10.092 8.864,-18.131 19.082,-18.131c10.545,0 19.106,8.562 19.106,19.107c0,10.545 -8.561,19.107 -19.106,19.107c-10.218,-0 -18.574,-8.039 -19.082,-18.132l-4.232,4.232l-1.414,-1.414l2.793,-2.793l-27.663,-0l2.793,2.793l-1.415,1.414l-4.207,-4.207l0,156.384l160.562,-0l0,-9l2,-0l0,20l-2,-0l0,-9l-323.124,-0Zm214.989,-176.491c-9.442,0 -17.107,7.665 -17.107,17.107c0,9.441 7.665,17.107 17.107,17.107c9.441,-0 17.106,-7.666 17.106,-17.107c0,-9.442 -7.665,-17.107 -17.106,-17.107Z" style="fill:#eee;"/>
        <circle cx="225.661" cy="164.018" r="18.107" style="fill:#f44;"/>
    </g>
</svg>
