<?xml version="1.0" encoding="UTF-8" standalone="no"?>
<!DOCTYPE svg PUBLIC "-//W3C//DTD SVG 1.1//EN" "http://www.w3.org/Graphics/SVG/1.1/DTD/svg11.dtd">
<svg width="100%" height="100%" viewBox="0 0 354 354" version="1.1" xmlns="http://www.w3.org/2000/svg" xmlns:xlink="http://www.w3.org/1999/xlink" xml:space="preserve" xmlns:serif="http://www.serif.com/" style="fill-rule:evenodd;clip-rule:evenodd;stroke-linejoin:round;stroke-miterlimit:1.5;">
    <path d="M252,27l0,-25l75,0l25,25l0,300l-25,25l-235.355,-0l-89.645,-89.645l-0,-135.355l25,-25l75,-0c-0,-25 -0,-50 -0,-50l-50,-0l0,-50l75,-0l25,25l0,-25l75,0l25,25Zm-100,114.645l25,25l-35.355,35.355l-50,-50c-0,-0 -39.645,-0 -39.645,0l0,89.645l60.355,60.355c0,-0 189.645,-0 189.645,-0l-0,-50c-0,-39.585 -0,-200 -0,-200l-50,-0l0,150l-50,-0c0,-0 0,-150 -0,-150l-50,-0l0,89.645Z" style="fill:#64748b;"/>
    <g>
        <g opacity="0.2">
            <path d="M52,2l0,350" style="fill:none;stroke:#eee;stroke-width:1px;"/>
            <path d="M352,52l-350,-0" style="fill:none;stroke:#eee;stroke-width:1px;"/>
            <path d="M102,2l0,350" style="fill:none;stroke:#eee;stroke-width:1px;"/>
            <path d="M352,102l-350,-0" style="fill:none;stroke:#eee;stroke-width:1px;"/>
            <path d="M152,2l0,350" style="fill:none;stroke:#eee;stroke-width:1px;"/>
            <path d="M352,152l-350,-0" style="fill:none;stroke:#eee;stroke-width:1px;"/>
            <path d="M202,2l0,350" style="fill:none;stroke:#eee;stroke-width:1px;"/>
            <path d="M352,202l-350,-0" style="fill:none;stroke:#eee;stroke-width:1px;"/>
            <path d="M252,2l0,350" style="fill:none;stroke:#eee;stroke-width:1px;"/>
            <path d="M352,252l-350,-0" style="fill:none;stroke:#eee;stroke-width:1px;"/>
            <path d="M302,2l0,350" style="fill:none;stroke:#eee;stroke-width:1px;"/>
            <path d="M352,302l-350,-0" style="fill:none;stroke:#eee;stroke-width:1px;"/>
        </g>
        <g>
            <path d="M52,50c1.104,0 2,0.896 2,2c0,1.104 -0.896,2 -2,2c-1.104,0 -2,-0.896 -2,-2c-0,-1.104 0.896,-2 2,-2Z" style="fill:#eee;"/>
            <path d="M52,-0c1.104,-0 2,0.896 2,2c0,1.104 -0.896,2 -2,2c-1.104,0 -2,-0.896 -2,-2c-0,-1.104 0.896,-2 2,-2Z" style="fill:#eee;"/>
            <path d="M2,50c1.104,0 2,0.896 2,2c0,1.104 -0.896,2 -2,2c-1.104,0 -2,-0.896 -2,-2c0,-1.104 0.896,-2 2,-2Z" style="fill:#eee;"/>
            <path d="M2,-0c1.104,-0 2,0.896 2,2c0,1.104 -0.896,2 -2,2c-1.104,0 -2,-0.896 -2,-2c0,-1.104 0.896,-2 2,-2Z" style="fill:#eee;"/>
            <path d="M100,52c-0,-1.104 0.896,-2 2,-2c1.104,0 2,0.896 2,2c-0,1.104 -0.896,2 -2,2c-1.104,0 -2,-0.896 -2,-2Z" style="fill:#eee;"/>
            <path d="M100,2c-0,-1.104 0.896,-2 2,-2c1.104,0 2,0.896 2,2c-0,1.104 -0.896,2 -2,2c-1.104,0 -2,-0.896 -2,-2Z" style="fill:#eee;"/>
            <path d="M52,100c1.104,-0 2,0.896 2,2c0,1.104 -0.896,2 -2,2c-1.104,0 -2,-0.896 -2,-2c-0,-1.104 0.896,-2 2,-2Z" style="fill:#eee;"/>
            <path d="M2,100c1.104,-0 2,0.896 2,2c0,1.104 -0.896,2 -2,2c-1.104,0 -2,-0.896 -2,-2c0,-1.104 0.896,-2 2,-2Z" style="fill:#eee;"/>
            <path d="M102,100c1.104,-0 2,0.896 2,2c-0,1.104 -0.896,2 -2,2c-1.104,0 -2,-0.896 -2,-2c-0,-1.104 0.896,-2 2,-2Z" style="fill:#eee;"/>
            <path d="M150,52c-0,-1.104 0.896,-2 2,-2c1.104,0 2,0.896 2,2c-0,1.104 -0.896,2 -2,2c-1.104,0 -2,-0.896 -2,-2Z" style="fill:#eee;"/>
            <path d="M150,2c-0,-1.104 0.896,-2 2,-2c1.104,0 2,0.896 2,2c-0,1.104 -0.896,2 -2,2c-1.104,0 -2,-0.896 -2,-2Z" style="fill:#eee;"/>
            <path d="M150,102c-0,-1.104 0.896,-2 2,-2c1.104,-0 2,0.896 2,2c-0,1.104 -0.896,2 -2,2c-1.104,0 -2,-0.896 -2,-2Z" style="fill:#eee;"/>
            <path d="M52,150c1.104,-0 2,0.896 2,2c0,1.104 -0.896,2 -2,2c-1.104,0 -2,-0.896 -2,-2c-0,-1.104 0.896,-2 2,-2Z" style="fill:#eee;"/>
            <path d="M2,150c1.104,-0 2,0.896 2,2c0,1.104 -0.896,2 -2,2c-1.104,0 -2,-0.896 -2,-2c0,-1.104 0.896,-2 2,-2Z" style="fill:#eee;"/>
            <path d="M102,150c1.104,-0 2,0.896 2,2c-0,1.104 -0.896,2 -2,2c-1.104,0 -2,-0.896 -2,-2c-0,-1.104 0.896,-2 2,-2Z" style="fill:#eee;"/>
            <path d="M152,150c1.104,-0 2,0.896 2,2c-0,1.104 -0.896,2 -2,2c-1.104,0 -2,-0.896 -2,-2c-0,-1.104 0.896,-2 2,-2Z" style="fill:#eee;"/>
            <path d="M200,52c-0,-1.104 0.896,-2 2,-2c1.104,0 2,0.896 2,2c0,1.104 -0.896,2 -2,2c-1.104,0 -2,-0.896 -2,-2Z" style="fill:#eee;"/>
            <path d="M200,2c-0,-1.104 0.896,-2 2,-2c1.104,0 2,0.896 2,2c0,1.104 -0.896,2 -2,2c-1.104,0 -2,-0.896 -2,-2Z" style="fill:#eee;"/>
            <path d="M200,102c-0,-1.104 0.896,-2 2,-2c1.104,-0 2,0.896 2,2c0,1.104 -0.896,2 -2,2c-1.104,0 -2,-0.896 -2,-2Z" style="fill:#eee;"/>
            <path d="M200,152c-0,-1.104 0.896,-2 2,-2c1.104,-0 2,0.896 2,2c0,1.104 -0.896,2 -2,2c-1.104,0 -2,-0.896 -2,-2Z" style="fill:#eee;"/>
            <path d="M52,200c1.104,0 2,0.896 2,2c0,1.104 -0.896,2 -2,2c-1.104,0 -2,-0.896 -2,-2c-0,-1.104 0.896,-2 2,-2Z" style="fill:#eee;"/>
            <path d="M2,200c1.104,0 2,0.896 2,2c0,1.104 -0.896,2 -2,2c-1.104,0 -2,-0.896 -2,-2c0,-1.104 0.896,-2 2,-2Z" style="fill:#eee;"/>
            <path d="M102,200c1.104,0 2,0.896 2,2c-0,1.104 -0.896,2 -2,2c-1.104,0 -2,-0.896 -2,-2c-0,-1.104 0.896,-2 2,-2Z" style="fill:#eee;"/>
            <path d="M152,200c1.104,0 2,0.896 2,2c-0,1.104 -0.896,2 -2,2c-1.104,0 -2,-0.896 -2,-2c-0,-1.104 0.896,-2 2,-2Z" style="fill:#eee;"/>
            <path d="M202,200c1.104,0 2,0.896 2,2c0,1.104 -0.896,2 -2,2c-1.104,0 -2,-0.896 -2,-2c-0,-1.104 0.896,-2 2,-2Z" style="fill:#eee;"/>
            <path d="M250,52c-0,-1.104 0.896,-2 2,-2c1.104,0 2,0.896 2,2c0,1.104 -0.896,2 -2,2c-1.104,0 -2,-0.896 -2,-2Z" style="fill:#eee;"/>
            <path d="M250,2c-0,-1.104 0.896,-2 2,-2c1.104,0 2,0.896 2,2c0,1.104 -0.896,2 -2,2c-1.104,0 -2,-0.896 -2,-2Z" style="fill:#eee;"/>
            <path d="M250,102c-0,-1.104 0.896,-2 2,-2c1.104,-0 2,0.896 2,2c0,1.104 -0.896,2 -2,2c-1.104,0 -2,-0.896 -2,-2Z" style="fill:#eee;"/>
            <path d="M250,152c-0,-1.104 0.896,-2 2,-2c1.104,-0 2,0.896 2,2c0,1.104 -0.896,2 -2,2c-1.104,0 -2,-0.896 -2,-2Z" style="fill:#eee;"/>
            <path d="M250,202c-0,-1.104 0.896,-2 2,-2c1.104,0 2,0.896 2,2c0,1.104 -0.896,2 -2,2c-1.104,0 -2,-0.896 -2,-2Z" style="fill:#eee;"/>
            <path d="M52,250c1.104,0 2,0.896 2,2c0,1.104 -0.896,2 -2,2c-1.104,0 -2,-0.896 -2,-2c-0,-1.104 0.896,-2 2,-2Z" style="fill:#eee;"/>
            <path d="M2,250c1.104,0 2,0.896 2,2c0,1.104 -0.896,2 -2,2c-1.104,0 -2,-0.896 -2,-2c0,-1.104 0.896,-2 2,-2Z" style="fill:#eee;"/>
            <path d="M102,250c1.104,0 2,0.896 2,2c-0,1.104 -0.896,2 -2,2c-1.104,0 -2,-0.896 -2,-2c-0,-1.104 0.896,-2 2,-2Z" style="fill:#eee;"/>
            <path d="M152,250c1.104,0 2,0.896 2,2c-0,1.104 -0.896,2 -2,2c-1.104,0 -2,-0.896 -2,-2c-0,-1.104 0.896,-2 2,-2Z" style="fill:#eee;"/>
            <path d="M202,250c1.104,0 2,0.896 2,2c0,1.104 -0.896,2 -2,2c-1.104,0 -2,-0.896 -2,-2c-0,-1.104 0.896,-2 2,-2Z" style="fill:#eee;"/>
            <path d="M252,250c1.104,0 2,0.896 2,2c0,1.104 -0.896,2 -2,2c-1.104,0 -2,-0.896 -2,-2c-0,-1.104 0.896,-2 2,-2Z" style="fill:#eee;"/>
            <path d="M300,52c-0,-1.104 0.896,-2 2,-2c1.104,0 2,0.896 2,2c-0,1.104 -0.896,2 -2,2c-1.104,0 -2,-0.896 -2,-2Z" style="fill:#eee;"/>
            <path d="M350,52c-0,-1.104 0.896,-2 2,-2c1.104,0 2,0.896 2,2c0,1.104 -0.896,2 -2,2c-1.104,0 -2,-0.896 -2,-2Z" style="fill:#eee;"/>
            <path d="M350,2c-0,-1.104 0.896,-2 2,-2c1.104,0 2,0.896 2,2c0,1.104 -0.896,2 -2,2c-1.104,0 -2,-0.896 -2,-2Z" style="fill:#eee;"/>
            <path d="M300,2c-0,-1.104 0.896,-2 2,-2c1.104,0 2,0.896 2,2c-0,1.104 -0.896,2 -2,2c-1.104,0 -2,-0.896 -2,-2Z" style="fill:#eee;"/>
            <path d="M300,102c-0,-1.104 0.896,-2 2,-2c1.104,-0 2,0.896 2,2c-0,1.104 -0.896,2 -2,2c-1.104,0 -2,-0.896 -2,-2Z" style="fill:#eee;"/>
            <path d="M350,102c-0,-1.104 0.896,-2 2,-2c1.104,-0 2,0.896 2,2c0,1.104 -0.896,2 -2,2c-1.104,0 -2,-0.896 -2,-2Z" style="fill:#eee;"/>
            <path d="M300,152c-0,-1.104 0.896,-2 2,-2c1.104,-0 2,0.896 2,2c-0,1.104 -0.896,2 -2,2c-1.104,0 -2,-0.896 -2,-2Z" style="fill:#eee;"/>
            <path d="M350,152c-0,-1.104 0.896,-2 2,-2c1.104,-0 2,0.896 2,2c0,1.104 -0.896,2 -2,2c-1.104,0 -2,-0.896 -2,-2Z" style="fill:#eee;"/>
            <path d="M300,202c-0,-1.104 0.896,-2 2,-2c1.104,0 2,0.896 2,2c-0,1.104 -0.896,2 -2,2c-1.104,0 -2,-0.896 -2,-2Z" style="fill:#eee;"/>
            <path d="M350,202c-0,-1.104 0.896,-2 2,-2c1.104,0 2,0.896 2,2c0,1.104 -0.896,2 -2,2c-1.104,0 -2,-0.896 -2,-2Z" style="fill:#eee;"/>
            <path d="M300,252c-0,-1.104 0.896,-2 2,-2c1.104,0 2,0.896 2,2c-0,1.104 -0.896,2 -2,2c-1.104,0 -2,-0.896 -2,-2Z" style="fill:#eee;"/>
            <path d="M350,252c-0,-1.104 0.896,-2 2,-2c1.104,0 2,0.896 2,2c0,1.104 -0.896,2 -2,2c-1.104,0 -2,-0.896 -2,-2Z" style="fill:#eee;"/>
            <path d="M52,300c1.104,-0 2,0.896 2,2c0,1.104 -0.896,2 -2,2c-1.104,0 -2,-0.896 -2,-2c-0,-1.104 0.896,-2 2,-2Z" style="fill:#eee;"/>
            <path d="M52,350c1.104,-0 2,0.896 2,2c0,1.104 -0.896,2 -2,2c-1.104,0 -2,-0.896 -2,-2c-0,-1.104 0.896,-2 2,-2Z" style="fill:#eee;"/>
            <path d="M2,300c1.104,-0 2,0.896 2,2c0,1.104 -0.896,2 -2,2c-1.104,0 -2,-0.896 -2,-2c0,-1.104 0.896,-2 2,-2Z" style="fill:#eee;"/>
            <path d="M2,350c1.104,-0 2,0.896 2,2c0,1.104 -0.896,2 -2,2c-1.104,0 -2,-0.896 -2,-2c0,-1.104 0.896,-2 2,-2Z" style="fill:#eee;"/>
            <path d="M102,300c1.104,-0 2,0.896 2,2c-0,1.104 -0.896,2 -2,2c-1.104,0 -2,-0.896 -2,-2c-0,-1.104 0.896,-2 2,-2Z" style="fill:#eee;"/>
            <path d="M102,350c1.104,-0 2,0.896 2,2c-0,1.104 -0.896,2 -2,2c-1.104,0 -2,-0.896 -2,-2c-0,-1.104 0.896,-2 2,-2Z" style="fill:#eee;"/>
            <path d="M152,300c1.104,-0 2,0.896 2,2c-0,1.104 -0.896,2 -2,2c-1.104,0 -2,-0.896 -2,-2c-0,-1.104 0.896,-2 2,-2Z" style="fill:#eee;"/>
            <path d="M152,350c1.104,-0 2,0.896 2,2c-0,1.104 -0.896,2 -2,2c-1.104,0 -2,-0.896 -2,-2c-0,-1.104 0.896,-2 2,-2Z" style="fill:#eee;"/>
            <path d="M202,300c1.104,-0 2,0.896 2,2c0,1.104 -0.896,2 -2,2c-1.104,0 -2,-0.896 -2,-2c-0,-1.104 0.896,-2 2,-2Z" style="fill:#eee;"/>
            <path d="M202,350c1.104,-0 2,0.896 2,2c0,1.104 -0.896,2 -2,2c-1.104,0 -2,-0.896 -2,-2c-0,-1.104 0.896,-2 2,-2Z" style="fill:#eee;"/>
            <path d="M252,300c1.104,-0 2,0.896 2,2c0,1.104 -0.896,2 -2,2c-1.104,0 -2,-0.896 -2,-2c-0,-1.104 0.896,-2 2,-2Z" style="fill:#eee;"/>
            <path d="M252,350c1.104,-0 2,0.896 2,2c0,1.104 -0.896,2 -2,2c-1.104,0 -2,-0.896 -2,-2c-0,-1.104 0.896,-2 2,-2Z" style="fill:#eee;"/>
            <path d="M302,300c1.104,-0 2,0.896 2,2c-0,1.104 -0.896,2 -2,2c-1.104,0 -2,-0.896 -2,-2c-0,-1.104 0.896,-2 2,-2Z" style="fill:#eee;"/>
            <path d="M302,350c1.104,-0 2,0.896 2,2c-0,1.104 -0.896,2 -2,2c-1.104,0 -2,-0.896 -2,-2c-0,-1.104 0.896,-2 2,-2Z" style="fill:#eee;"/>
            <path d="M352,350c1.104,-0 2,0.896 2,2c0,1.104 -0.896,2 -2,2c-1.104,0 -2,-0.896 -2,-2c-0,-1.104 0.896,-2 2,-2Z" style="fill:#eee;"/>
            <path d="M352,300c1.104,-0 2,0.896 2,2c0,1.104 -0.896,2 -2,2c-1.104,0 -2,-0.896 -2,-2c-0,-1.104 0.896,-2 2,-2Z" style="fill:#eee;"/>
        </g>
    </g>
</svg>
